<?xml version="1.0" encoding="UTF-8" standalone="no"?>
<!DOCTYPE svg PUBLIC "-//W3C//DTD SVG 1.1//EN"
 "http://www.w3.org/Graphics/SVG/1.1/DTD/svg11.dtd">
<!-- Generated by graphviz version 12.2.1 (20241206.2353)
 -->
<!-- Title: AST Pages: 1 -->
<svg width="1326pt" height="260pt"
 viewBox="0.00 0.00 1325.62 260.00" xmlns="http://www.w3.org/2000/svg" xmlns:xlink="http://www.w3.org/1999/xlink">
<g id="graph0" class="graph" transform="scale(1 1) rotate(0) translate(4 256)">
<title>AST</title>
<polygon fill="white" stroke="none" points="-4,4 -4,-256 1321.62,-256 1321.62,4 -4,4"/>
<!-- 0 -->
<g id="node1" class="node">
<title>0</title>
<polygon fill="none" stroke="black" points="709.5,-252 635.75,-252 635.75,-216 709.5,-216 709.5,-252"/>
<text text-anchor="middle" x="672.62" y="-230.45" font-family="monospace" font-size="14.00">Program</text>
</g>
<!-- 1 -->
<g id="node2" class="node">
<title>1</title>
<polygon fill="none" stroke="black" points="171.62,-180 23.62,-180 23.62,-144 171.62,-144 171.62,-180"/>
<text text-anchor="middle" x="97.62" y="-158.45" font-family="monospace" font-size="14.00">FunDecl tupleVal</text>
</g>
<!-- 0&#45;&gt;1 -->
<g id="edge4" class="edge">
<title>0&#45;&gt;1</title>
<path fill="none" stroke="black" d="M635.44,-230.2C554.87,-223.89 358.04,-207.06 183,-180.29"/>
<polygon fill="black" stroke="black" points="183.69,-176.85 173.27,-178.78 182.62,-183.77 183.69,-176.85"/>
</g>
<!-- 5 -->
<g id="node6" class="node">
<title>5</title>
<polygon fill="none" stroke="black" points="329.5,-180 189.75,-180 189.75,-144 329.5,-144 329.5,-180"/>
<text text-anchor="middle" x="259.62" y="-158.45" font-family="monospace" font-size="14.00">FunDecl listVal</text>
</g>
<!-- 0&#45;&gt;5 -->
<g id="edge9" class="edge">
<title>0&#45;&gt;5</title>
<path fill="none" stroke="black" d="M635.44,-227.78C575.64,-219.23 454.13,-201.26 341.06,-180.4"/>
<polygon fill="black" stroke="black" points="341.76,-176.97 331.28,-178.58 340.48,-183.85 341.76,-176.97"/>
</g>
<!-- 10 -->
<g id="node11" class="node">
<title>10</title>
<polygon fill="none" stroke="black" points="503.75,-180 347.5,-180 347.5,-144 503.75,-144 503.75,-180"/>
<text text-anchor="middle" x="425.62" y="-158.45" font-family="monospace" font-size="14.00">FunDecl stringVal</text>
</g>
<!-- 0&#45;&gt;10 -->
<g id="edge11" class="edge">
<title>0&#45;&gt;10</title>
<path fill="none" stroke="black" d="M635.38,-222.44C599.15,-212.18 543.14,-196.3 498.11,-183.54"/>
<polygon fill="black" stroke="black" points="499.24,-180.22 488.66,-180.87 497.33,-186.96 499.24,-180.22"/>
</g>
<!-- 12 -->
<g id="node13" class="node">
<title>12</title>
<polygon fill="none" stroke="black" points="661.5,-180 521.75,-180 521.75,-144 661.5,-144 661.5,-180"/>
<text text-anchor="middle" x="591.62" y="-158.45" font-family="monospace" font-size="14.00">FunDecl charVal</text>
</g>
<!-- 0&#45;&gt;12 -->
<g id="edge13" class="edge">
<title>0&#45;&gt;12</title>
<path fill="none" stroke="black" d="M652.6,-215.7C642.87,-207.28 630.99,-197.02 620.31,-187.79"/>
<polygon fill="black" stroke="black" points="622.7,-185.23 612.84,-181.34 618.12,-190.52 622.7,-185.23"/>
</g>
<!-- 14 -->
<g id="node15" class="node">
<title>14</title>
<polygon fill="none" stroke="black" points="827.62,-180 679.62,-180 679.62,-144 827.62,-144 827.62,-180"/>
<text text-anchor="middle" x="753.62" y="-158.45" font-family="monospace" font-size="14.00">FunDecl floatVal</text>
</g>
<!-- 0&#45;&gt;14 -->
<g id="edge15" class="edge">
<title>0&#45;&gt;14</title>
<path fill="none" stroke="black" d="M692.65,-215.7C702.38,-207.28 714.26,-197.02 724.94,-187.79"/>
<polygon fill="black" stroke="black" points="727.13,-190.52 732.41,-181.34 722.55,-185.23 727.13,-190.52"/>
</g>
<!-- 16 -->
<g id="node17" class="node">
<title>16</title>
<polygon fill="none" stroke="black" points="977.38,-180 845.88,-180 845.88,-144 977.38,-144 977.38,-180"/>
<text text-anchor="middle" x="911.62" y="-158.45" font-family="monospace" font-size="14.00">FunDecl intVal</text>
</g>
<!-- 0&#45;&gt;16 -->
<g id="edge17" class="edge">
<title>0&#45;&gt;16</title>
<path fill="none" stroke="black" d="M709.97,-222.06C744.99,-211.8 798.27,-196.2 841.26,-183.61"/>
<polygon fill="black" stroke="black" points="842.17,-186.99 850.79,-180.82 840.21,-180.27 842.17,-186.99"/>
</g>
<!-- 18 -->
<g id="node19" class="node">
<title>18</title>
<polygon fill="none" stroke="black" points="1151.75,-180 995.5,-180 995.5,-144 1151.75,-144 1151.75,-180"/>
<text text-anchor="middle" x="1073.62" y="-158.45" font-family="monospace" font-size="14.00">FunDecl falseBool</text>
</g>
<!-- 0&#45;&gt;18 -->
<g id="edge19" class="edge">
<title>0&#45;&gt;18</title>
<path fill="none" stroke="black" d="M709.9,-227.03C766.75,-217.85 878.82,-199.48 984.23,-180.41"/>
<polygon fill="black" stroke="black" points="984.69,-183.89 993.9,-178.66 983.43,-177 984.69,-183.89"/>
</g>
<!-- 20 -->
<g id="node21" class="node">
<title>20</title>
<polygon fill="none" stroke="black" points="1317.62,-180 1169.62,-180 1169.62,-144 1317.62,-144 1317.62,-180"/>
<text text-anchor="middle" x="1243.62" y="-158.45" font-family="monospace" font-size="14.00">FunDecl trueBool</text>
</g>
<!-- 0&#45;&gt;20 -->
<g id="edge21" class="edge">
<title>0&#45;&gt;20</title>
<path fill="none" stroke="black" d="M709.82,-230.16C789.92,-223.79 984.87,-206.89 1158.35,-180.27"/>
<polygon fill="black" stroke="black" points="1158.63,-183.77 1167.98,-178.78 1157.56,-176.85 1158.63,-183.77"/>
</g>
<!-- 2 -->
<g id="node3" class="node">
<title>2</title>
<polygon fill="none" stroke="black" points="134.5,-108 60.75,-108 60.75,-72 134.5,-72 134.5,-108"/>
<text text-anchor="middle" x="97.62" y="-86.45" font-family="monospace" font-size="14.00">Tuple/2</text>
</g>
<!-- 1&#45;&gt;2 -->
<g id="edge3" class="edge">
<title>1&#45;&gt;2</title>
<path fill="none" stroke="black" d="M97.62,-143.7C97.62,-136.41 97.62,-127.73 97.62,-119.54"/>
<polygon fill="black" stroke="black" points="101.13,-119.62 97.63,-109.62 94.13,-119.62 101.13,-119.62"/>
</g>
<!-- 3 -->
<g id="node4" class="node">
<title>3</title>
<polygon fill="none" stroke="black" points="57.25,-36 0,-36 0,0 57.25,0 57.25,-36"/>
<text text-anchor="middle" x="28.62" y="-14.45" font-family="monospace" font-size="14.00">Lit 1</text>
</g>
<!-- 2&#45;&gt;3 -->
<g id="edge1" class="edge">
<title>2&#45;&gt;3</title>
<path fill="none" stroke="black" d="M80.57,-71.7C72.38,-63.39 62.41,-53.28 53.41,-44.14"/>
<polygon fill="black" stroke="black" points="56.06,-41.85 46.55,-37.18 51.07,-46.76 56.06,-41.85"/>
</g>
<!-- 4 -->
<g id="node5" class="node">
<title>4</title>
<polygon fill="none" stroke="black" points="132.25,-36 75,-36 75,0 132.25,0 132.25,-36"/>
<text text-anchor="middle" x="103.62" y="-14.45" font-family="monospace" font-size="14.00">Lit 2</text>
</g>
<!-- 2&#45;&gt;4 -->
<g id="edge2" class="edge">
<title>2&#45;&gt;4</title>
<path fill="none" stroke="black" d="M99.11,-71.7C99.73,-64.41 100.48,-55.73 101.18,-47.54"/>
<polygon fill="black" stroke="black" points="104.66,-47.87 102.03,-37.61 97.69,-47.28 104.66,-47.87"/>
</g>
<!-- 6 -->
<g id="node7" class="node">
<title>6</title>
<polygon fill="none" stroke="black" points="286.62,-108 232.62,-108 232.62,-72 286.62,-72 286.62,-108"/>
<text text-anchor="middle" x="259.62" y="-86.45" font-family="monospace" font-size="14.00">List</text>
</g>
<!-- 5&#45;&gt;6 -->
<g id="edge8" class="edge">
<title>5&#45;&gt;6</title>
<path fill="none" stroke="black" d="M259.62,-143.7C259.62,-136.41 259.62,-127.73 259.62,-119.54"/>
<polygon fill="black" stroke="black" points="263.13,-119.62 259.63,-109.62 256.13,-119.62 263.13,-119.62"/>
</g>
<!-- 7 -->
<g id="node8" class="node">
<title>7</title>
<polygon fill="none" stroke="black" points="213.25,-36 156,-36 156,0 213.25,0 213.25,-36"/>
<text text-anchor="middle" x="184.62" y="-14.45" font-family="monospace" font-size="14.00">Lit 1</text>
</g>
<!-- 6&#45;&gt;7 -->
<g id="edge5" class="edge">
<title>6&#45;&gt;7</title>
<path fill="none" stroke="black" d="M241.09,-71.7C232.16,-63.37 221.29,-53.22 211.48,-44.07"/>
<polygon fill="black" stroke="black" points="214.02,-41.64 204.32,-37.38 209.24,-46.76 214.02,-41.64"/>
</g>
<!-- 8 -->
<g id="node9" class="node">
<title>8</title>
<polygon fill="none" stroke="black" points="288.25,-36 231,-36 231,0 288.25,0 288.25,-36"/>
<text text-anchor="middle" x="259.62" y="-14.45" font-family="monospace" font-size="14.00">Lit 2</text>
</g>
<!-- 6&#45;&gt;8 -->
<g id="edge6" class="edge">
<title>6&#45;&gt;8</title>
<path fill="none" stroke="black" d="M259.62,-71.7C259.62,-64.41 259.62,-55.73 259.62,-47.54"/>
<polygon fill="black" stroke="black" points="263.13,-47.62 259.63,-37.62 256.13,-47.62 263.13,-47.62"/>
</g>
<!-- 9 -->
<g id="node10" class="node">
<title>9</title>
<polygon fill="none" stroke="black" points="363.25,-36 306,-36 306,0 363.25,0 363.25,-36"/>
<text text-anchor="middle" x="334.62" y="-14.45" font-family="monospace" font-size="14.00">Lit 3</text>
</g>
<!-- 6&#45;&gt;9 -->
<g id="edge7" class="edge">
<title>6&#45;&gt;9</title>
<path fill="none" stroke="black" d="M278.16,-71.7C287.09,-63.37 297.96,-53.22 307.77,-44.07"/>
<polygon fill="black" stroke="black" points="310.01,-46.76 314.93,-37.38 305.23,-41.64 310.01,-46.76"/>
</g>
<!-- 11 -->
<g id="node12" class="node">
<title>11</title>
<polygon fill="none" stroke="black" points="483.12,-108 368.12,-108 368.12,-72 483.12,-72 483.12,-108"/>
<text text-anchor="middle" x="425.62" y="-86.45" font-family="monospace" font-size="14.00">Lit &quot;lambda&quot;</text>
</g>
<!-- 10&#45;&gt;11 -->
<g id="edge10" class="edge">
<title>10&#45;&gt;11</title>
<path fill="none" stroke="black" d="M425.62,-143.7C425.62,-136.41 425.62,-127.73 425.62,-119.54"/>
<polygon fill="black" stroke="black" points="429.13,-119.62 425.63,-109.62 422.13,-119.62 429.13,-119.62"/>
</g>
<!-- 13 -->
<g id="node14" class="node">
<title>13</title>
<polygon fill="none" stroke="black" points="628.5,-108 554.75,-108 554.75,-72 628.5,-72 628.5,-108"/>
<text text-anchor="middle" x="591.62" y="-86.45" font-family="monospace" font-size="14.00">Lit &#39;z&#39;</text>
</g>
<!-- 12&#45;&gt;13 -->
<g id="edge12" class="edge">
<title>12&#45;&gt;13</title>
<path fill="none" stroke="black" d="M591.62,-143.7C591.62,-136.41 591.62,-127.73 591.62,-119.54"/>
<polygon fill="black" stroke="black" points="595.13,-119.62 591.63,-109.62 588.13,-119.62 595.13,-119.62"/>
</g>
<!-- 15 -->
<g id="node16" class="node">
<title>15</title>
<polygon fill="none" stroke="black" points="794.62,-108 712.62,-108 712.62,-72 794.62,-72 794.62,-108"/>
<text text-anchor="middle" x="753.62" y="-86.45" font-family="monospace" font-size="14.00">Lit 3.14</text>
</g>
<!-- 14&#45;&gt;15 -->
<g id="edge14" class="edge">
<title>14&#45;&gt;15</title>
<path fill="none" stroke="black" d="M753.62,-143.7C753.62,-136.41 753.62,-127.73 753.62,-119.54"/>
<polygon fill="black" stroke="black" points="757.13,-119.62 753.63,-109.62 750.13,-119.62 757.13,-119.62"/>
</g>
<!-- 17 -->
<g id="node18" class="node">
<title>17</title>
<polygon fill="none" stroke="black" points="944.38,-108 878.88,-108 878.88,-72 944.38,-72 944.38,-108"/>
<text text-anchor="middle" x="911.62" y="-86.45" font-family="monospace" font-size="14.00">Lit 42</text>
</g>
<!-- 16&#45;&gt;17 -->
<g id="edge16" class="edge">
<title>16&#45;&gt;17</title>
<path fill="none" stroke="black" d="M911.62,-143.7C911.62,-136.41 911.62,-127.73 911.62,-119.54"/>
<polygon fill="black" stroke="black" points="915.13,-119.62 911.63,-109.62 908.13,-119.62 915.13,-119.62"/>
</g>
<!-- 19 -->
<g id="node20" class="node">
<title>19</title>
<polygon fill="none" stroke="black" points="1118.75,-108 1028.5,-108 1028.5,-72 1118.75,-72 1118.75,-108"/>
<text text-anchor="middle" x="1073.62" y="-86.45" font-family="monospace" font-size="14.00">Lit False</text>
</g>
<!-- 18&#45;&gt;19 -->
<g id="edge18" class="edge">
<title>18&#45;&gt;19</title>
<path fill="none" stroke="black" d="M1073.62,-143.7C1073.62,-136.41 1073.62,-127.73 1073.62,-119.54"/>
<polygon fill="black" stroke="black" points="1077.13,-119.62 1073.63,-109.62 1070.13,-119.62 1077.13,-119.62"/>
</g>
<!-- 21 -->
<g id="node22" class="node">
<title>21</title>
<polygon fill="none" stroke="black" points="1284.62,-108 1202.62,-108 1202.62,-72 1284.62,-72 1284.62,-108"/>
<text text-anchor="middle" x="1243.62" y="-86.45" font-family="monospace" font-size="14.00">Lit True</text>
</g>
<!-- 20&#45;&gt;21 -->
<g id="edge20" class="edge">
<title>20&#45;&gt;21</title>
<path fill="none" stroke="black" d="M1243.62,-143.7C1243.62,-136.41 1243.62,-127.73 1243.62,-119.54"/>
<polygon fill="black" stroke="black" points="1247.13,-119.62 1243.63,-109.62 1240.13,-119.62 1247.13,-119.62"/>
</g>
</g>
</svg>
