<?xml version="1.0" encoding="UTF-8" standalone="no"?>
<!DOCTYPE svg PUBLIC "-//W3C//DTD SVG 1.1//EN"
 "http://www.w3.org/Graphics/SVG/1.1/DTD/svg11.dtd">
<!-- Generated by graphviz version 12.2.1 (20241206.2353)
 -->
<!-- Title: AST Pages: 1 -->
<svg width="362pt" height="332pt"
 viewBox="0.00 0.00 361.50 332.00" xmlns="http://www.w3.org/2000/svg" xmlns:xlink="http://www.w3.org/1999/xlink">
<g id="graph0" class="graph" transform="scale(1 1) rotate(0) translate(4 328)">
<title>AST</title>
<polygon fill="white" stroke="none" points="-4,4 -4,-328 357.5,-328 357.5,4 -4,4"/>
<!-- 0 -->
<g id="node1" class="node">
<title>0</title>
<polygon fill="none" stroke="black" points="246.75,-324 173,-324 173,-288 246.75,-288 246.75,-324"/>
<text text-anchor="middle" x="209.88" y="-302.45" font-family="monospace" font-size="14.00">Program</text>
</g>
<!-- 1 -->
<g id="node2" class="node">
<title>1</title>
<polygon fill="none" stroke="black" points="203.38,-252 88.38,-252 88.38,-216 203.38,-216 203.38,-252"/>
<text text-anchor="middle" x="145.88" y="-230.45" font-family="monospace" font-size="14.00">FunDecl main</text>
</g>
<!-- 0&#45;&gt;1 -->
<g id="edge5" class="edge">
<title>0&#45;&gt;1</title>
<path fill="none" stroke="black" d="M194.05,-287.7C186.54,-279.47 177.4,-269.48 169.12,-260.42"/>
<polygon fill="black" stroke="black" points="171.87,-258.24 162.53,-253.22 166.7,-262.96 171.87,-258.24"/>
</g>
<!-- 6 -->
<g id="node7" class="node">
<title>6</title>
<polygon fill="none" stroke="black" points="336.25,-252 229.5,-252 229.5,-216 336.25,-216 336.25,-252"/>
<text text-anchor="middle" x="282.88" y="-230.45" font-family="monospace" font-size="14.00">FunDecl add</text>
</g>
<!-- 0&#45;&gt;6 -->
<g id="edge10" class="edge">
<title>0&#45;&gt;6</title>
<path fill="none" stroke="black" d="M227.92,-287.7C236.61,-279.37 247.19,-269.22 256.73,-260.07"/>
<polygon fill="black" stroke="black" points="258.9,-262.84 263.69,-253.39 254.05,-257.79 258.9,-262.84"/>
</g>
<!-- 2 -->
<g id="node3" class="node">
<title>2</title>
<polygon fill="none" stroke="black" points="155.88,-180 101.88,-180 101.88,-144 155.88,-144 155.88,-180"/>
<text text-anchor="middle" x="128.88" y="-158.45" font-family="monospace" font-size="14.00">App</text>
</g>
<!-- 1&#45;&gt;2 -->
<g id="edge4" class="edge">
<title>1&#45;&gt;2</title>
<path fill="none" stroke="black" d="M141.67,-215.7C139.88,-208.32 137.75,-199.52 135.74,-191.25"/>
<polygon fill="black" stroke="black" points="139.15,-190.47 133.39,-181.58 132.35,-192.12 139.15,-190.47"/>
</g>
<!-- 3 -->
<g id="node4" class="node">
<title>3</title>
<polygon fill="none" stroke="black" points="73.75,-108 0,-108 0,-72 73.75,-72 73.75,-108"/>
<text text-anchor="middle" x="36.88" y="-86.45" font-family="monospace" font-size="14.00">Var add</text>
</g>
<!-- 2&#45;&gt;3 -->
<g id="edge1" class="edge">
<title>2&#45;&gt;3</title>
<path fill="none" stroke="black" d="M106.13,-143.7C94.85,-135.11 81.04,-124.61 68.73,-115.24"/>
<polygon fill="black" stroke="black" points="70.96,-112.53 60.88,-109.26 66.72,-118.1 70.96,-112.53"/>
</g>
<!-- 4 -->
<g id="node5" class="node">
<title>4</title>
<polygon fill="none" stroke="black" points="157.62,-108 92.12,-108 92.12,-72 157.62,-72 157.62,-108"/>
<text text-anchor="middle" x="124.88" y="-86.45" font-family="monospace" font-size="14.00">Lit 10</text>
</g>
<!-- 2&#45;&gt;4 -->
<g id="edge2" class="edge">
<title>2&#45;&gt;4</title>
<path fill="none" stroke="black" d="M127.89,-143.7C127.47,-136.41 126.97,-127.73 126.51,-119.54"/>
<polygon fill="black" stroke="black" points="130,-119.4 125.94,-109.62 123.02,-119.8 130,-119.4"/>
</g>
<!-- 5 -->
<g id="node6" class="node">
<title>5</title>
<polygon fill="none" stroke="black" points="232.5,-108 175.25,-108 175.25,-72 232.5,-72 232.5,-108"/>
<text text-anchor="middle" x="203.88" y="-86.45" font-family="monospace" font-size="14.00">Lit 4</text>
</g>
<!-- 2&#45;&gt;5 -->
<g id="edge3" class="edge">
<title>2&#45;&gt;5</title>
<path fill="none" stroke="black" d="M147.41,-143.7C156.34,-135.37 167.21,-125.22 177.02,-116.07"/>
<polygon fill="black" stroke="black" points="179.26,-118.76 184.18,-109.38 174.48,-113.64 179.26,-118.76"/>
</g>
<!-- 7 -->
<g id="node8" class="node">
<title>7</title>
<polygon fill="none" stroke="black" points="334.12,-180 235.62,-180 235.62,-144 334.12,-144 334.12,-180"/>
<text text-anchor="middle" x="284.88" y="-158.45" font-family="monospace" font-size="14.00">Lambda y x</text>
</g>
<!-- 6&#45;&gt;7 -->
<g id="edge9" class="edge">
<title>6&#45;&gt;7</title>
<path fill="none" stroke="black" d="M283.37,-215.7C283.58,-208.41 283.83,-199.73 284.06,-191.54"/>
<polygon fill="black" stroke="black" points="287.56,-191.71 284.34,-181.62 280.56,-191.51 287.56,-191.71"/>
</g>
<!-- 8 -->
<g id="node9" class="node">
<title>8</title>
<polygon fill="none" stroke="black" points="324.75,-108 251,-108 251,-72 324.75,-72 324.75,-108"/>
<text text-anchor="middle" x="287.88" y="-86.45" font-family="monospace" font-size="14.00">BinOp +</text>
</g>
<!-- 7&#45;&gt;8 -->
<g id="edge8" class="edge">
<title>7&#45;&gt;8</title>
<path fill="none" stroke="black" d="M285.62,-143.7C285.93,-136.41 286.3,-127.73 286.65,-119.54"/>
<polygon fill="black" stroke="black" points="290.15,-119.76 287.08,-109.62 283.15,-119.46 290.15,-119.76"/>
</g>
<!-- 9 -->
<g id="node10" class="node">
<title>9</title>
<polygon fill="none" stroke="black" points="278.5,-36 221.25,-36 221.25,0 278.5,0 278.5,-36"/>
<text text-anchor="middle" x="249.88" y="-14.45" font-family="monospace" font-size="14.00">Var x</text>
</g>
<!-- 8&#45;&gt;9 -->
<g id="edge6" class="edge">
<title>8&#45;&gt;9</title>
<path fill="none" stroke="black" d="M278.48,-71.7C274.29,-63.98 269.26,-54.71 264.59,-46.11"/>
<polygon fill="black" stroke="black" points="267.73,-44.55 259.88,-37.43 261.58,-47.89 267.73,-44.55"/>
</g>
<!-- 10 -->
<g id="node11" class="node">
<title>10</title>
<polygon fill="none" stroke="black" points="353.5,-36 296.25,-36 296.25,0 353.5,0 353.5,-36"/>
<text text-anchor="middle" x="324.88" y="-14.45" font-family="monospace" font-size="14.00">Var y</text>
</g>
<!-- 8&#45;&gt;10 -->
<g id="edge7" class="edge">
<title>8&#45;&gt;10</title>
<path fill="none" stroke="black" d="M297.02,-71.7C301.1,-63.98 306,-54.71 310.54,-46.11"/>
<polygon fill="black" stroke="black" points="313.55,-47.92 315.13,-37.44 307.36,-44.65 313.55,-47.92"/>
</g>
</g>
</svg>
