<?xml version="1.0" encoding="UTF-8" standalone="no"?>
<!DOCTYPE svg PUBLIC "-//W3C//DTD SVG 1.1//EN"
 "http://www.w3.org/Graphics/SVG/1.1/DTD/svg11.dtd">
<!-- Generated by graphviz version 12.2.1 (20241206.2353)
 -->
<!-- Title: AST Pages: 1 -->
<svg width="382pt" height="404pt"
 viewBox="0.00 0.00 381.50 404.00" xmlns="http://www.w3.org/2000/svg" xmlns:xlink="http://www.w3.org/1999/xlink">
<g id="graph0" class="graph" transform="scale(1 1) rotate(0) translate(4 400)">
<title>AST</title>
<polygon fill="white" stroke="none" points="-4,4 -4,-400 377.5,-400 377.5,4 -4,4"/>
<!-- 0 -->
<g id="node1" class="node">
<title>0</title>
<polygon fill="none" stroke="black" points="233.75,-396 160,-396 160,-360 233.75,-360 233.75,-396"/>
<text text-anchor="middle" x="196.88" y="-374.45" font-family="monospace" font-size="14.00">Program</text>
</g>
<!-- 1 -->
<g id="node2" class="node">
<title>1</title>
<polygon fill="none" stroke="black" points="190.38,-324 75.38,-324 75.38,-288 190.38,-288 190.38,-324"/>
<text text-anchor="middle" x="132.88" y="-302.45" font-family="monospace" font-size="14.00">FunDecl main</text>
</g>
<!-- 0&#45;&gt;1 -->
<g id="edge5" class="edge">
<title>0&#45;&gt;1</title>
<path fill="none" stroke="black" d="M181.05,-359.7C173.54,-351.47 164.4,-341.48 156.12,-332.42"/>
<polygon fill="black" stroke="black" points="158.87,-330.24 149.53,-325.22 153.7,-334.96 158.87,-330.24"/>
</g>
<!-- 6 -->
<g id="node7" class="node">
<title>6</title>
<polygon fill="none" stroke="black" points="320.25,-324 213.5,-324 213.5,-288 320.25,-288 320.25,-324"/>
<text text-anchor="middle" x="266.88" y="-302.45" font-family="monospace" font-size="14.00">FunDecl max</text>
</g>
<!-- 0&#45;&gt;6 -->
<g id="edge13" class="edge">
<title>0&#45;&gt;6</title>
<path fill="none" stroke="black" d="M214.18,-359.7C222.49,-351.39 232.6,-341.28 241.73,-332.14"/>
<polygon fill="black" stroke="black" points="244.1,-334.72 248.7,-325.17 239.15,-329.77 244.1,-334.72"/>
</g>
<!-- 2 -->
<g id="node3" class="node">
<title>2</title>
<polygon fill="none" stroke="black" points="149.88,-252 95.88,-252 95.88,-216 149.88,-216 149.88,-252"/>
<text text-anchor="middle" x="122.88" y="-230.45" font-family="monospace" font-size="14.00">App</text>
</g>
<!-- 1&#45;&gt;2 -->
<g id="edge4" class="edge">
<title>1&#45;&gt;2</title>
<path fill="none" stroke="black" d="M130.4,-287.7C129.35,-280.32 128.09,-271.52 126.91,-263.25"/>
<polygon fill="black" stroke="black" points="130.41,-263.01 125.53,-253.6 123.48,-264 130.41,-263.01"/>
</g>
<!-- 3 -->
<g id="node4" class="node">
<title>3</title>
<polygon fill="none" stroke="black" points="73.75,-180 0,-180 0,-144 73.75,-144 73.75,-180"/>
<text text-anchor="middle" x="36.88" y="-158.45" font-family="monospace" font-size="14.00">Var max</text>
</g>
<!-- 2&#45;&gt;3 -->
<g id="edge1" class="edge">
<title>2&#45;&gt;3</title>
<path fill="none" stroke="black" d="M101.62,-215.7C91.18,-207.2 78.42,-196.81 66.99,-187.51"/>
<polygon fill="black" stroke="black" points="69.33,-184.9 59.36,-181.3 64.91,-190.33 69.33,-184.9"/>
</g>
<!-- 4 -->
<g id="node5" class="node">
<title>4</title>
<polygon fill="none" stroke="black" points="149.5,-180 92.25,-180 92.25,-144 149.5,-144 149.5,-180"/>
<text text-anchor="middle" x="120.88" y="-158.45" font-family="monospace" font-size="14.00">Lit 3</text>
</g>
<!-- 2&#45;&gt;4 -->
<g id="edge2" class="edge">
<title>2&#45;&gt;4</title>
<path fill="none" stroke="black" d="M122.38,-215.7C122.17,-208.41 121.92,-199.73 121.69,-191.54"/>
<polygon fill="black" stroke="black" points="125.19,-191.51 121.41,-181.62 118.19,-191.71 125.19,-191.51"/>
</g>
<!-- 5 -->
<g id="node6" class="node">
<title>5</title>
<polygon fill="none" stroke="black" points="224.5,-180 167.25,-180 167.25,-144 224.5,-144 224.5,-180"/>
<text text-anchor="middle" x="195.88" y="-158.45" font-family="monospace" font-size="14.00">Lit 2</text>
</g>
<!-- 2&#45;&gt;5 -->
<g id="edge3" class="edge">
<title>2&#45;&gt;5</title>
<path fill="none" stroke="black" d="M140.92,-215.7C149.61,-207.37 160.19,-197.22 169.73,-188.07"/>
<polygon fill="black" stroke="black" points="171.9,-190.84 176.69,-181.39 167.05,-185.79 171.9,-190.84"/>
</g>
<!-- 7 -->
<g id="node8" class="node">
<title>7</title>
<polygon fill="none" stroke="black" points="317.12,-252 218.62,-252 218.62,-216 317.12,-216 317.12,-252"/>
<text text-anchor="middle" x="267.88" y="-230.45" font-family="monospace" font-size="14.00">Lambda b a</text>
</g>
<!-- 6&#45;&gt;7 -->
<g id="edge12" class="edge">
<title>6&#45;&gt;7</title>
<path fill="none" stroke="black" d="M267.12,-287.7C267.23,-280.41 267.35,-271.73 267.47,-263.54"/>
<polygon fill="black" stroke="black" points="270.97,-263.67 267.61,-253.62 263.97,-263.57 270.97,-263.67"/>
</g>
<!-- 8 -->
<g id="node9" class="node">
<title>8</title>
<polygon fill="none" stroke="black" points="296.88,-180 242.88,-180 242.88,-144 296.88,-144 296.88,-180"/>
<text text-anchor="middle" x="269.88" y="-158.45" font-family="monospace" font-size="14.00">If</text>
</g>
<!-- 7&#45;&gt;8 -->
<g id="edge11" class="edge">
<title>7&#45;&gt;8</title>
<path fill="none" stroke="black" d="M268.37,-215.7C268.58,-208.41 268.83,-199.73 269.06,-191.54"/>
<polygon fill="black" stroke="black" points="272.56,-191.71 269.34,-181.62 265.56,-191.51 272.56,-191.71"/>
</g>
<!-- 9 -->
<g id="node10" class="node">
<title>9</title>
<polygon fill="none" stroke="black" points="222.75,-108 149,-108 149,-72 222.75,-72 222.75,-108"/>
<text text-anchor="middle" x="185.88" y="-86.45" font-family="monospace" font-size="14.00">BinOp &gt;</text>
</g>
<!-- 8&#45;&gt;9 -->
<g id="edge8" class="edge">
<title>8&#45;&gt;9</title>
<path fill="none" stroke="black" d="M249.11,-143.7C238.91,-135.2 226.45,-124.81 215.29,-115.51"/>
<polygon fill="black" stroke="black" points="217.78,-113.03 207.85,-109.32 213.3,-118.41 217.78,-113.03"/>
</g>
<!-- 12 -->
<g id="node13" class="node">
<title>12</title>
<polygon fill="none" stroke="black" points="298.5,-108 241.25,-108 241.25,-72 298.5,-72 298.5,-108"/>
<text text-anchor="middle" x="269.88" y="-86.45" font-family="monospace" font-size="14.00">Var a</text>
</g>
<!-- 8&#45;&gt;12 -->
<g id="edge9" class="edge">
<title>8&#45;&gt;12</title>
<path fill="none" stroke="black" d="M269.88,-143.7C269.88,-136.41 269.88,-127.73 269.88,-119.54"/>
<polygon fill="black" stroke="black" points="273.38,-119.62 269.88,-109.62 266.38,-119.62 273.38,-119.62"/>
</g>
<!-- 13 -->
<g id="node14" class="node">
<title>13</title>
<polygon fill="none" stroke="black" points="373.5,-108 316.25,-108 316.25,-72 373.5,-72 373.5,-108"/>
<text text-anchor="middle" x="344.88" y="-86.45" font-family="monospace" font-size="14.00">Var b</text>
</g>
<!-- 8&#45;&gt;13 -->
<g id="edge10" class="edge">
<title>8&#45;&gt;13</title>
<path fill="none" stroke="black" d="M288.41,-143.7C297.34,-135.37 308.21,-125.22 318.02,-116.07"/>
<polygon fill="black" stroke="black" points="320.26,-118.76 325.18,-109.38 315.48,-113.64 320.26,-118.76"/>
</g>
<!-- 10 -->
<g id="node11" class="node">
<title>10</title>
<polygon fill="none" stroke="black" points="177.5,-36 120.25,-36 120.25,0 177.5,0 177.5,-36"/>
<text text-anchor="middle" x="148.88" y="-14.45" font-family="monospace" font-size="14.00">Var a</text>
</g>
<!-- 9&#45;&gt;10 -->
<g id="edge6" class="edge">
<title>9&#45;&gt;10</title>
<path fill="none" stroke="black" d="M176.73,-71.7C172.65,-63.98 167.75,-54.71 163.21,-46.11"/>
<polygon fill="black" stroke="black" points="166.39,-44.65 158.62,-37.44 160.2,-47.92 166.39,-44.65"/>
</g>
<!-- 11 -->
<g id="node12" class="node">
<title>11</title>
<polygon fill="none" stroke="black" points="252.5,-36 195.25,-36 195.25,0 252.5,0 252.5,-36"/>
<text text-anchor="middle" x="223.88" y="-14.45" font-family="monospace" font-size="14.00">Var b</text>
</g>
<!-- 9&#45;&gt;11 -->
<g id="edge7" class="edge">
<title>9&#45;&gt;11</title>
<path fill="none" stroke="black" d="M195.27,-71.7C199.46,-63.98 204.49,-54.71 209.16,-46.11"/>
<polygon fill="black" stroke="black" points="212.17,-47.89 213.87,-37.43 206.02,-44.55 212.17,-47.89"/>
</g>
</g>
</svg>
