<?xml version="1.0" encoding="UTF-8" standalone="no"?>
<!DOCTYPE svg PUBLIC "-//W3C//DTD SVG 1.1//EN"
 "http://www.w3.org/Graphics/SVG/1.1/DTD/svg11.dtd">
<!-- Generated by graphviz version 12.2.1 (20241206.2353)
 -->
<!-- Title: AST Pages: 1 -->
<svg width="535pt" height="476pt"
 viewBox="0.00 0.00 535.00 476.00" xmlns="http://www.w3.org/2000/svg" xmlns:xlink="http://www.w3.org/1999/xlink">
<g id="graph0" class="graph" transform="scale(1 1) rotate(0) translate(4 472)">
<title>AST</title>
<polygon fill="white" stroke="none" points="-4,4 -4,-472 531,-472 531,4 -4,4"/>
<!-- 0 -->
<g id="node1" class="node">
<title>0</title>
<polygon fill="none" stroke="black" points="274.25,-468 200.5,-468 200.5,-432 274.25,-432 274.25,-468"/>
<text text-anchor="middle" x="237.38" y="-446.45" font-family="monospace" font-size="14.00">Program</text>
</g>
<!-- 1 -->
<g id="node2" class="node">
<title>1</title>
<polygon fill="none" stroke="black" points="222.88,-396 107.88,-396 107.88,-360 222.88,-360 222.88,-396"/>
<text text-anchor="middle" x="165.38" y="-374.45" font-family="monospace" font-size="14.00">FunDecl main</text>
</g>
<!-- 0&#45;&gt;1 -->
<g id="edge6" class="edge">
<title>0&#45;&gt;1</title>
<path fill="none" stroke="black" d="M219.58,-431.7C211.1,-423.45 200.79,-413.43 191.44,-404.35"/>
<polygon fill="black" stroke="black" points="193.91,-401.86 184.3,-397.4 189.03,-406.88 193.91,-401.86"/>
</g>
<!-- 7 -->
<g id="node8" class="node">
<title>7</title>
<polygon fill="none" stroke="black" points="382.25,-396 242.5,-396 242.5,-360 382.25,-360 382.25,-396"/>
<text text-anchor="middle" x="312.38" y="-374.45" font-family="monospace" font-size="14.00">FunDecl fstPair</text>
</g>
<!-- 0&#45;&gt;7 -->
<g id="edge18" class="edge">
<title>0&#45;&gt;7</title>
<path fill="none" stroke="black" d="M255.91,-431.7C264.84,-423.37 275.71,-413.22 285.52,-404.07"/>
<polygon fill="black" stroke="black" points="287.76,-406.76 292.68,-397.38 282.98,-401.64 287.76,-406.76"/>
</g>
<!-- 2 -->
<g id="node3" class="node">
<title>2</title>
<polygon fill="none" stroke="black" points="188.38,-324 134.38,-324 134.38,-288 188.38,-288 188.38,-324"/>
<text text-anchor="middle" x="161.38" y="-302.45" font-family="monospace" font-size="14.00">App</text>
</g>
<!-- 1&#45;&gt;2 -->
<g id="edge5" class="edge">
<title>1&#45;&gt;2</title>
<path fill="none" stroke="black" d="M164.39,-359.7C163.97,-352.41 163.47,-343.73 163.01,-335.54"/>
<polygon fill="black" stroke="black" points="166.5,-335.4 162.44,-325.62 159.52,-335.8 166.5,-335.4"/>
</g>
<!-- 3 -->
<g id="node4" class="node">
<title>3</title>
<polygon fill="none" stroke="black" points="106.75,-252 0,-252 0,-216 106.75,-216 106.75,-252"/>
<text text-anchor="middle" x="53.38" y="-230.45" font-family="monospace" font-size="14.00">Var fstPair</text>
</g>
<!-- 2&#45;&gt;3 -->
<g id="edge1" class="edge">
<title>2&#45;&gt;3</title>
<path fill="none" stroke="black" d="M134.4,-287.52C120.77,-278.68 104.04,-267.84 89.33,-258.3"/>
<polygon fill="black" stroke="black" points="91.57,-255.59 81.28,-253.08 87.76,-261.46 91.57,-255.59"/>
</g>
<!-- 4 -->
<g id="node5" class="node">
<title>4</title>
<polygon fill="none" stroke="black" points="198.25,-252 124.5,-252 124.5,-216 198.25,-216 198.25,-252"/>
<text text-anchor="middle" x="161.38" y="-230.45" font-family="monospace" font-size="14.00">Tuple/2</text>
</g>
<!-- 2&#45;&gt;4 -->
<g id="edge4" class="edge">
<title>2&#45;&gt;4</title>
<path fill="none" stroke="black" d="M161.38,-287.7C161.38,-280.41 161.38,-271.73 161.38,-263.54"/>
<polygon fill="black" stroke="black" points="164.88,-263.62 161.38,-253.62 157.88,-263.62 164.88,-263.62"/>
</g>
<!-- 5 -->
<g id="node6" class="node">
<title>5</title>
<polygon fill="none" stroke="black" points="110.12,-180 44.62,-180 44.62,-144 110.12,-144 110.12,-180"/>
<text text-anchor="middle" x="77.38" y="-158.45" font-family="monospace" font-size="14.00">Lit 10</text>
</g>
<!-- 4&#45;&gt;5 -->
<g id="edge2" class="edge">
<title>4&#45;&gt;5</title>
<path fill="none" stroke="black" d="M140.61,-215.7C130.41,-207.2 117.95,-196.81 106.79,-187.51"/>
<polygon fill="black" stroke="black" points="109.28,-185.03 99.35,-181.32 104.8,-190.41 109.28,-185.03"/>
</g>
<!-- 6 -->
<g id="node7" class="node">
<title>6</title>
<polygon fill="none" stroke="black" points="194.12,-180 128.62,-180 128.62,-144 194.12,-144 194.12,-180"/>
<text text-anchor="middle" x="161.38" y="-158.45" font-family="monospace" font-size="14.00">Lit 15</text>
</g>
<!-- 4&#45;&gt;6 -->
<g id="edge3" class="edge">
<title>4&#45;&gt;6</title>
<path fill="none" stroke="black" d="M161.38,-215.7C161.38,-208.41 161.38,-199.73 161.38,-191.54"/>
<polygon fill="black" stroke="black" points="164.88,-191.62 161.38,-181.62 157.88,-191.62 164.88,-191.62"/>
</g>
<!-- 8 -->
<g id="node9" class="node">
<title>8</title>
<polygon fill="none" stroke="black" points="353.38,-324 271.38,-324 271.38,-288 353.38,-288 353.38,-324"/>
<text text-anchor="middle" x="312.38" y="-302.45" font-family="monospace" font-size="14.00">Lambda p</text>
</g>
<!-- 7&#45;&gt;8 -->
<g id="edge17" class="edge">
<title>7&#45;&gt;8</title>
<path fill="none" stroke="black" d="M312.38,-359.7C312.38,-352.41 312.38,-343.73 312.38,-335.54"/>
<polygon fill="black" stroke="black" points="315.88,-335.62 312.38,-325.62 308.88,-335.62 315.88,-335.62"/>
</g>
<!-- 9 -->
<g id="node10" class="node">
<title>9</title>
<polygon fill="none" stroke="black" points="340.38,-252 286.38,-252 286.38,-216 340.38,-216 340.38,-252"/>
<text text-anchor="middle" x="313.38" y="-230.45" font-family="monospace" font-size="14.00">Case</text>
</g>
<!-- 8&#45;&gt;9 -->
<g id="edge16" class="edge">
<title>8&#45;&gt;9</title>
<path fill="none" stroke="black" d="M312.62,-287.7C312.73,-280.41 312.85,-271.73 312.97,-263.54"/>
<polygon fill="black" stroke="black" points="316.47,-263.67 313.11,-253.62 309.47,-263.57 316.47,-263.67"/>
</g>
<!-- 10 -->
<g id="node11" class="node">
<title>10</title>
<polygon fill="none" stroke="black" points="269,-180 211.75,-180 211.75,-144 269,-144 269,-180"/>
<text text-anchor="middle" x="240.38" y="-158.45" font-family="monospace" font-size="14.00">Var p</text>
</g>
<!-- 9&#45;&gt;10 -->
<g id="edge7" class="edge">
<title>9&#45;&gt;10</title>
<path fill="none" stroke="black" d="M295.33,-215.7C286.64,-207.37 276.06,-197.22 266.52,-188.07"/>
<polygon fill="black" stroke="black" points="269.2,-185.79 259.56,-181.39 264.35,-190.84 269.2,-185.79"/>
</g>
<!-- 11 -->
<g id="node12" class="node">
<title>11</title>
<polygon fill="none" stroke="black" points="341.38,-180 287.38,-180 287.38,-144 341.38,-144 341.38,-180"/>
<text text-anchor="middle" x="314.38" y="-158.45" font-family="monospace" font-size="14.00">Alt</text>
</g>
<!-- 9&#45;&gt;11 -->
<g id="edge12" class="edge">
<title>9&#45;&gt;11</title>
<path fill="none" stroke="black" d="M313.62,-215.7C313.73,-208.41 313.85,-199.73 313.97,-191.54"/>
<polygon fill="black" stroke="black" points="317.47,-191.67 314.11,-181.62 310.47,-191.57 317.47,-191.67"/>
</g>
<!-- 16 -->
<g id="node17" class="node">
<title>16</title>
<polygon fill="none" stroke="black" points="433.38,-180 379.38,-180 379.38,-144 433.38,-144 433.38,-180"/>
<text text-anchor="middle" x="406.38" y="-158.45" font-family="monospace" font-size="14.00">Alt</text>
</g>
<!-- 9&#45;&gt;16 -->
<g id="edge15" class="edge">
<title>9&#45;&gt;16</title>
<path fill="none" stroke="black" d="M336.36,-215.7C347.77,-207.11 361.73,-196.61 374.17,-187.24"/>
<polygon fill="black" stroke="black" points="376.23,-190.07 382.12,-181.26 372.02,-184.47 376.23,-190.07"/>
</g>
<!-- 12 -->
<g id="node13" class="node">
<title>12</title>
<polygon fill="none" stroke="black" points="267.38,-108 185.38,-108 185.38,-72 267.38,-72 267.38,-108"/>
<text text-anchor="middle" x="226.38" y="-86.45" font-family="monospace" font-size="14.00">PTuple/2</text>
</g>
<!-- 11&#45;&gt;12 -->
<g id="edge10" class="edge">
<title>11&#45;&gt;12</title>
<path fill="none" stroke="black" d="M292.62,-143.7C281.94,-135.2 268.88,-124.81 257.19,-115.51"/>
<polygon fill="black" stroke="black" points="259.37,-112.78 249.37,-109.29 255.01,-118.25 259.37,-112.78"/>
</g>
<!-- 15 -->
<g id="node16" class="node">
<title>15</title>
<polygon fill="none" stroke="black" points="343,-108 285.75,-108 285.75,-72 343,-72 343,-108"/>
<text text-anchor="middle" x="314.38" y="-86.45" font-family="monospace" font-size="14.00">Var x</text>
</g>
<!-- 11&#45;&gt;15 -->
<g id="edge11" class="edge">
<title>11&#45;&gt;15</title>
<path fill="none" stroke="black" d="M314.38,-143.7C314.38,-136.41 314.38,-127.73 314.38,-119.54"/>
<polygon fill="black" stroke="black" points="317.88,-119.62 314.38,-109.62 310.88,-119.62 317.88,-119.62"/>
</g>
<!-- 13 -->
<g id="node14" class="node">
<title>13</title>
<polygon fill="none" stroke="black" points="211.12,-36 145.62,-36 145.62,0 211.12,0 211.12,-36"/>
<text text-anchor="middle" x="178.38" y="-14.45" font-family="monospace" font-size="14.00">PVar x</text>
</g>
<!-- 12&#45;&gt;13 -->
<g id="edge8" class="edge">
<title>12&#45;&gt;13</title>
<path fill="none" stroke="black" d="M214.51,-71.7C209.1,-63.81 202.58,-54.3 196.58,-45.55"/>
<polygon fill="black" stroke="black" points="199.5,-43.62 190.96,-37.35 193.73,-47.58 199.5,-43.62"/>
</g>
<!-- 14 -->
<g id="node15" class="node">
<title>14</title>
<polygon fill="none" stroke="black" points="319.5,-36 229.25,-36 229.25,0 319.5,0 319.5,-36"/>
<text text-anchor="middle" x="274.38" y="-14.45" font-family="monospace" font-size="14.00">PWildcard</text>
</g>
<!-- 12&#45;&gt;14 -->
<g id="edge9" class="edge">
<title>12&#45;&gt;14</title>
<path fill="none" stroke="black" d="M238.24,-71.7C243.65,-63.81 250.17,-54.3 256.17,-45.55"/>
<polygon fill="black" stroke="black" points="259.02,-47.58 261.79,-37.35 253.25,-43.62 259.02,-47.58"/>
</g>
<!-- 17 -->
<g id="node18" class="node">
<title>17</title>
<polygon fill="none" stroke="black" points="451.5,-108 361.25,-108 361.25,-72 451.5,-72 451.5,-108"/>
<text text-anchor="middle" x="406.38" y="-86.45" font-family="monospace" font-size="14.00">PWildcard</text>
</g>
<!-- 16&#45;&gt;17 -->
<g id="edge13" class="edge">
<title>16&#45;&gt;17</title>
<path fill="none" stroke="black" d="M406.38,-143.7C406.38,-136.41 406.38,-127.73 406.38,-119.54"/>
<polygon fill="black" stroke="black" points="409.88,-119.62 406.38,-109.62 402.88,-119.62 409.88,-119.62"/>
</g>
<!-- 18 -->
<g id="node19" class="node">
<title>18</title>
<polygon fill="none" stroke="black" points="527,-108 469.75,-108 469.75,-72 527,-72 527,-108"/>
<text text-anchor="middle" x="498.38" y="-86.45" font-family="monospace" font-size="14.00">Lit 0</text>
</g>
<!-- 16&#45;&gt;18 -->
<g id="edge14" class="edge">
<title>16&#45;&gt;18</title>
<path fill="none" stroke="black" d="M429.12,-143.7C440.4,-135.11 454.21,-124.61 466.52,-115.24"/>
<polygon fill="black" stroke="black" points="468.53,-118.1 474.37,-109.26 464.29,-112.53 468.53,-118.1"/>
</g>
</g>
</svg>
