<?xml version="1.0" encoding="UTF-8" standalone="no"?>
<!DOCTYPE svg PUBLIC "-//W3C//DTD SVG 1.1//EN"
 "http://www.w3.org/Graphics/SVG/1.1/DTD/svg11.dtd">
<!-- Generated by graphviz version 12.2.1 (20241206.2353)
 -->
<!-- Title: AST Pages: 1 -->
<svg width="487pt" height="548pt"
 viewBox="0.00 0.00 486.75 548.00" xmlns="http://www.w3.org/2000/svg" xmlns:xlink="http://www.w3.org/1999/xlink">
<g id="graph0" class="graph" transform="scale(1 1) rotate(0) translate(4 544)">
<title>AST</title>
<polygon fill="white" stroke="none" points="-4,4 -4,-544 482.75,-544 482.75,4 -4,4"/>
<!-- 0 -->
<g id="node1" class="node">
<title>0</title>
<polygon fill="none" stroke="black" points="277,-540 203.25,-540 203.25,-504 277,-504 277,-540"/>
<text text-anchor="middle" x="240.12" y="-518.45" font-family="monospace" font-size="14.00">Program</text>
</g>
<!-- 1 -->
<g id="node2" class="node">
<title>1</title>
<polygon fill="none" stroke="black" points="212.62,-468 97.62,-468 97.62,-432 212.62,-432 212.62,-468"/>
<text text-anchor="middle" x="155.12" y="-446.45" font-family="monospace" font-size="14.00">FunDecl main</text>
</g>
<!-- 0&#45;&gt;1 -->
<g id="edge4" class="edge">
<title>0&#45;&gt;1</title>
<path fill="none" stroke="black" d="M219.11,-503.7C208.8,-495.2 196.18,-484.81 184.89,-475.51"/>
<polygon fill="black" stroke="black" points="187.3,-472.96 177.36,-469.31 182.85,-478.37 187.3,-472.96"/>
</g>
<!-- 5 -->
<g id="node6" class="node">
<title>5</title>
<polygon fill="none" stroke="black" points="419.75,-468 230.5,-468 230.5,-432 419.75,-432 419.75,-468"/>
<text text-anchor="middle" x="325.12" y="-446.45" font-family="monospace" font-size="14.00">FunDecl squarePlusOne</text>
</g>
<!-- 0&#45;&gt;5 -->
<g id="edge15" class="edge">
<title>0&#45;&gt;5</title>
<path fill="none" stroke="black" d="M261.14,-503.7C271.45,-495.2 284.07,-484.81 295.36,-475.51"/>
<polygon fill="black" stroke="black" points="297.4,-478.37 302.89,-469.31 292.95,-472.96 297.4,-478.37"/>
</g>
<!-- 2 -->
<g id="node3" class="node">
<title>2</title>
<polygon fill="none" stroke="black" points="182.12,-396 128.12,-396 128.12,-360 182.12,-360 182.12,-396"/>
<text text-anchor="middle" x="155.12" y="-374.45" font-family="monospace" font-size="14.00">App</text>
</g>
<!-- 1&#45;&gt;2 -->
<g id="edge3" class="edge">
<title>1&#45;&gt;2</title>
<path fill="none" stroke="black" d="M155.12,-431.7C155.12,-424.41 155.12,-415.73 155.12,-407.54"/>
<polygon fill="black" stroke="black" points="158.63,-407.62 155.13,-397.62 151.63,-407.62 158.63,-407.62"/>
</g>
<!-- 3 -->
<g id="node4" class="node">
<title>3</title>
<polygon fill="none" stroke="black" points="156.25,-324 0,-324 0,-288 156.25,-288 156.25,-324"/>
<text text-anchor="middle" x="78.12" y="-302.45" font-family="monospace" font-size="14.00">Var squarePlusOne</text>
</g>
<!-- 2&#45;&gt;3 -->
<g id="edge1" class="edge">
<title>2&#45;&gt;3</title>
<path fill="none" stroke="black" d="M136.09,-359.7C126.93,-351.37 115.77,-341.22 105.7,-332.07"/>
<polygon fill="black" stroke="black" points="108.08,-329.5 98.33,-325.37 103.37,-334.68 108.08,-329.5"/>
</g>
<!-- 4 -->
<g id="node5" class="node">
<title>4</title>
<polygon fill="none" stroke="black" points="231.75,-324 174.5,-324 174.5,-288 231.75,-288 231.75,-324"/>
<text text-anchor="middle" x="203.12" y="-302.45" font-family="monospace" font-size="14.00">Lit 1</text>
</g>
<!-- 2&#45;&gt;4 -->
<g id="edge2" class="edge">
<title>2&#45;&gt;4</title>
<path fill="none" stroke="black" d="M166.99,-359.7C172.4,-351.81 178.92,-342.3 184.92,-333.55"/>
<polygon fill="black" stroke="black" points="187.77,-335.58 190.54,-325.35 182,-331.62 187.77,-335.58"/>
</g>
<!-- 6 -->
<g id="node7" class="node">
<title>6</title>
<polygon fill="none" stroke="black" points="366.12,-396 284.12,-396 284.12,-360 366.12,-360 366.12,-396"/>
<text text-anchor="middle" x="325.12" y="-374.45" font-family="monospace" font-size="14.00">Lambda n</text>
</g>
<!-- 5&#45;&gt;6 -->
<g id="edge14" class="edge">
<title>5&#45;&gt;6</title>
<path fill="none" stroke="black" d="M325.12,-431.7C325.12,-424.41 325.12,-415.73 325.12,-407.54"/>
<polygon fill="black" stroke="black" points="328.63,-407.62 325.13,-397.62 321.63,-407.62 328.63,-407.62"/>
</g>
<!-- 7 -->
<g id="node8" class="node">
<title>7</title>
<polygon fill="none" stroke="black" points="352.12,-324 298.12,-324 298.12,-288 352.12,-288 352.12,-324"/>
<text text-anchor="middle" x="325.12" y="-302.45" font-family="monospace" font-size="14.00">Let</text>
</g>
<!-- 6&#45;&gt;7 -->
<g id="edge13" class="edge">
<title>6&#45;&gt;7</title>
<path fill="none" stroke="black" d="M325.12,-359.7C325.12,-352.41 325.12,-343.73 325.12,-335.54"/>
<polygon fill="black" stroke="black" points="328.63,-335.62 325.13,-325.62 321.63,-335.62 328.63,-335.62"/>
</g>
<!-- 8 -->
<g id="node9" class="node">
<title>8</title>
<polygon fill="none" stroke="black" points="307.75,-252 250.5,-252 250.5,-216 307.75,-216 307.75,-252"/>
<text text-anchor="middle" x="279.12" y="-230.45" font-family="monospace" font-size="14.00">Decls</text>
</g>
<!-- 7&#45;&gt;8 -->
<g id="edge5" class="edge">
<title>7&#45;&gt;8</title>
<path fill="none" stroke="black" d="M313.75,-287.7C308.57,-279.81 302.32,-270.3 296.57,-261.55"/>
<polygon fill="black" stroke="black" points="299.61,-259.8 291.2,-253.37 293.76,-263.65 299.61,-259.8"/>
</g>
<!-- 13 -->
<g id="node14" class="node">
<title>13</title>
<polygon fill="none" stroke="black" points="408,-252 334.25,-252 334.25,-216 408,-216 408,-252"/>
<text text-anchor="middle" x="371.12" y="-230.45" font-family="monospace" font-size="14.00">BinOp +</text>
</g>
<!-- 7&#45;&gt;13 -->
<g id="edge12" class="edge">
<title>7&#45;&gt;13</title>
<path fill="none" stroke="black" d="M336.5,-287.7C341.68,-279.81 347.93,-270.3 353.68,-261.55"/>
<polygon fill="black" stroke="black" points="356.49,-263.65 359.05,-253.37 350.64,-259.8 356.49,-263.65"/>
</g>
<!-- 9 -->
<g id="node10" class="node">
<title>9</title>
<polygon fill="none" stroke="black" points="320.38,-180 221.88,-180 221.88,-144 320.38,-144 320.38,-180"/>
<text text-anchor="middle" x="271.12" y="-158.45" font-family="monospace" font-size="14.00">FunDecl sq</text>
</g>
<!-- 8&#45;&gt;9 -->
<g id="edge9" class="edge">
<title>8&#45;&gt;9</title>
<path fill="none" stroke="black" d="M277.15,-215.7C276.31,-208.41 275.32,-199.73 274.39,-191.54"/>
<polygon fill="black" stroke="black" points="277.86,-191.15 273.25,-181.61 270.91,-191.94 277.86,-191.15"/>
</g>
<!-- 10 -->
<g id="node11" class="node">
<title>10</title>
<polygon fill="none" stroke="black" points="308,-108 234.25,-108 234.25,-72 308,-72 308,-108"/>
<text text-anchor="middle" x="271.12" y="-86.45" font-family="monospace" font-size="14.00">BinOp *</text>
</g>
<!-- 9&#45;&gt;10 -->
<g id="edge8" class="edge">
<title>9&#45;&gt;10</title>
<path fill="none" stroke="black" d="M271.12,-143.7C271.12,-136.41 271.12,-127.73 271.12,-119.54"/>
<polygon fill="black" stroke="black" points="274.63,-119.62 271.13,-109.62 267.63,-119.62 274.63,-119.62"/>
</g>
<!-- 11 -->
<g id="node12" class="node">
<title>11</title>
<polygon fill="none" stroke="black" points="262.75,-36 205.5,-36 205.5,0 262.75,0 262.75,-36"/>
<text text-anchor="middle" x="234.12" y="-14.45" font-family="monospace" font-size="14.00">Var n</text>
</g>
<!-- 10&#45;&gt;11 -->
<g id="edge6" class="edge">
<title>10&#45;&gt;11</title>
<path fill="none" stroke="black" d="M261.98,-71.7C257.9,-63.98 253,-54.71 248.46,-46.11"/>
<polygon fill="black" stroke="black" points="251.64,-44.65 243.87,-37.44 245.45,-47.92 251.64,-44.65"/>
</g>
<!-- 12 -->
<g id="node13" class="node">
<title>12</title>
<polygon fill="none" stroke="black" points="337.75,-36 280.5,-36 280.5,0 337.75,0 337.75,-36"/>
<text text-anchor="middle" x="309.12" y="-14.45" font-family="monospace" font-size="14.00">Var n</text>
</g>
<!-- 10&#45;&gt;12 -->
<g id="edge7" class="edge">
<title>10&#45;&gt;12</title>
<path fill="none" stroke="black" d="M280.52,-71.7C284.71,-63.98 289.74,-54.71 294.41,-46.11"/>
<polygon fill="black" stroke="black" points="297.42,-47.89 299.12,-37.43 291.27,-44.55 297.42,-47.89"/>
</g>
<!-- 14 -->
<g id="node15" class="node">
<title>14</title>
<polygon fill="none" stroke="black" points="403.88,-180 338.38,-180 338.38,-144 403.88,-144 403.88,-180"/>
<text text-anchor="middle" x="371.12" y="-158.45" font-family="monospace" font-size="14.00">Var sq</text>
</g>
<!-- 13&#45;&gt;14 -->
<g id="edge10" class="edge">
<title>13&#45;&gt;14</title>
<path fill="none" stroke="black" d="M371.12,-215.7C371.12,-208.41 371.12,-199.73 371.12,-191.54"/>
<polygon fill="black" stroke="black" points="374.63,-191.62 371.13,-181.62 367.63,-191.62 374.63,-191.62"/>
</g>
<!-- 15 -->
<g id="node16" class="node">
<title>15</title>
<polygon fill="none" stroke="black" points="478.75,-180 421.5,-180 421.5,-144 478.75,-144 478.75,-180"/>
<text text-anchor="middle" x="450.12" y="-158.45" font-family="monospace" font-size="14.00">Lit 1</text>
</g>
<!-- 13&#45;&gt;15 -->
<g id="edge11" class="edge">
<title>13&#45;&gt;15</title>
<path fill="none" stroke="black" d="M390.65,-215.7C400.15,-207.28 411.73,-197.02 422.15,-187.79"/>
<polygon fill="black" stroke="black" points="424.25,-190.6 429.41,-181.35 419.61,-185.36 424.25,-190.6"/>
</g>
</g>
</svg>
