<?xml version="1.0" encoding="UTF-8" standalone="no"?>
<!DOCTYPE svg PUBLIC "-//W3C//DTD SVG 1.1//EN"
 "http://www.w3.org/Graphics/SVG/1.1/DTD/svg11.dtd">
<!-- Generated by graphviz version 12.2.1 (20241206.2353)
 -->
<!-- Title: AST Pages: 1 -->
<svg width="810pt" height="476pt"
 viewBox="0.00 0.00 810.12 476.00" xmlns="http://www.w3.org/2000/svg" xmlns:xlink="http://www.w3.org/1999/xlink">
<g id="graph0" class="graph" transform="scale(1 1) rotate(0) translate(4 472)">
<title>AST</title>
<polygon fill="white" stroke="none" points="-4,4 -4,-472 806.12,-472 806.12,4 -4,4"/>
<!-- 0 -->
<g id="node1" class="node">
<title>0</title>
<polygon fill="none" stroke="black" points="311.38,-468 237.62,-468 237.62,-432 311.38,-432 311.38,-468"/>
<text text-anchor="middle" x="274.5" y="-446.45" font-family="monospace" font-size="14.00">Program</text>
</g>
<!-- 1 -->
<g id="node2" class="node">
<title>1</title>
<polygon fill="none" stroke="black" points="257,-396 142,-396 142,-360 257,-360 257,-396"/>
<text text-anchor="middle" x="199.5" y="-374.45" font-family="monospace" font-size="14.00">FunDecl main</text>
</g>
<!-- 0&#45;&gt;1 -->
<g id="edge6" class="edge">
<title>0&#45;&gt;1</title>
<path fill="none" stroke="black" d="M255.96,-431.7C247.04,-423.37 236.17,-413.22 226.36,-404.07"/>
<polygon fill="black" stroke="black" points="228.89,-401.64 219.19,-397.38 224.11,-406.76 228.89,-401.64"/>
</g>
<!-- 7 -->
<g id="node8" class="node">
<title>7</title>
<polygon fill="none" stroke="black" points="433.5,-396 285.5,-396 285.5,-360 433.5,-360 433.5,-396"/>
<text text-anchor="middle" x="359.5" y="-374.45" font-family="monospace" font-size="14.00">FunDecl headList</text>
</g>
<!-- 0&#45;&gt;7 -->
<g id="edge25" class="edge">
<title>0&#45;&gt;7</title>
<path fill="none" stroke="black" d="M295.51,-431.7C305.83,-423.2 318.44,-412.81 329.73,-403.51"/>
<polygon fill="black" stroke="black" points="331.77,-406.37 337.27,-397.31 327.32,-400.96 331.77,-406.37"/>
</g>
<!-- 2 -->
<g id="node3" class="node">
<title>2</title>
<polygon fill="none" stroke="black" points="187.5,-324 133.5,-324 133.5,-288 187.5,-288 187.5,-324"/>
<text text-anchor="middle" x="160.5" y="-302.45" font-family="monospace" font-size="14.00">App</text>
</g>
<!-- 1&#45;&gt;2 -->
<g id="edge5" class="edge">
<title>1&#45;&gt;2</title>
<path fill="none" stroke="black" d="M189.86,-359.7C185.56,-351.98 180.4,-342.71 175.61,-334.11"/>
<polygon fill="black" stroke="black" points="178.69,-332.46 170.77,-325.43 172.58,-335.87 178.69,-332.46"/>
</g>
<!-- 3 -->
<g id="node4" class="node">
<title>3</title>
<polygon fill="none" stroke="black" points="115,-252 0,-252 0,-216 115,-216 115,-252"/>
<text text-anchor="middle" x="57.5" y="-230.45" font-family="monospace" font-size="14.00">Var headList</text>
</g>
<!-- 2&#45;&gt;3 -->
<g id="edge1" class="edge">
<title>2&#45;&gt;3</title>
<path fill="none" stroke="black" d="M134.77,-287.52C121.9,-278.76 106.12,-268.04 92.19,-258.58"/>
<polygon fill="black" stroke="black" points="94.39,-255.84 84.15,-253.11 90.45,-261.63 94.39,-255.84"/>
</g>
<!-- 4 -->
<g id="node5" class="node">
<title>4</title>
<polygon fill="none" stroke="black" points="187.5,-252 133.5,-252 133.5,-216 187.5,-216 187.5,-252"/>
<text text-anchor="middle" x="160.5" y="-230.45" font-family="monospace" font-size="14.00">List</text>
</g>
<!-- 2&#45;&gt;4 -->
<g id="edge4" class="edge">
<title>2&#45;&gt;4</title>
<path fill="none" stroke="black" d="M160.5,-287.7C160.5,-280.41 160.5,-271.73 160.5,-263.54"/>
<polygon fill="black" stroke="black" points="164,-263.62 160.5,-253.62 157,-263.62 164,-263.62"/>
</g>
<!-- 5 -->
<g id="node6" class="node">
<title>5</title>
<polygon fill="none" stroke="black" points="109.25,-180 43.75,-180 43.75,-144 109.25,-144 109.25,-180"/>
<text text-anchor="middle" x="76.5" y="-158.45" font-family="monospace" font-size="14.00">Lit 10</text>
</g>
<!-- 4&#45;&gt;5 -->
<g id="edge2" class="edge">
<title>4&#45;&gt;5</title>
<path fill="none" stroke="black" d="M139.74,-215.7C129.54,-207.2 117.08,-196.81 105.92,-187.51"/>
<polygon fill="black" stroke="black" points="108.4,-185.03 98.48,-181.32 103.92,-190.41 108.4,-185.03"/>
</g>
<!-- 6 -->
<g id="node7" class="node">
<title>6</title>
<polygon fill="none" stroke="black" points="193.25,-180 127.75,-180 127.75,-144 193.25,-144 193.25,-180"/>
<text text-anchor="middle" x="160.5" y="-158.45" font-family="monospace" font-size="14.00">Lit 15</text>
</g>
<!-- 4&#45;&gt;6 -->
<g id="edge3" class="edge">
<title>4&#45;&gt;6</title>
<path fill="none" stroke="black" d="M160.5,-215.7C160.5,-208.41 160.5,-199.73 160.5,-191.54"/>
<polygon fill="black" stroke="black" points="164,-191.62 160.5,-181.62 157,-191.62 164,-191.62"/>
</g>
<!-- 8 -->
<g id="node9" class="node">
<title>8</title>
<polygon fill="none" stroke="black" points="410.75,-324 312.25,-324 312.25,-288 410.75,-288 410.75,-324"/>
<text text-anchor="middle" x="361.5" y="-302.45" font-family="monospace" font-size="14.00">Lambda lst</text>
</g>
<!-- 7&#45;&gt;8 -->
<g id="edge24" class="edge">
<title>7&#45;&gt;8</title>
<path fill="none" stroke="black" d="M359.99,-359.7C360.2,-352.41 360.45,-343.73 360.68,-335.54"/>
<polygon fill="black" stroke="black" points="364.18,-335.71 360.97,-325.62 357.18,-335.51 364.18,-335.71"/>
</g>
<!-- 9 -->
<g id="node10" class="node">
<title>9</title>
<polygon fill="none" stroke="black" points="393.5,-252 339.5,-252 339.5,-216 393.5,-216 393.5,-252"/>
<text text-anchor="middle" x="366.5" y="-230.45" font-family="monospace" font-size="14.00">Case</text>
</g>
<!-- 8&#45;&gt;9 -->
<g id="edge23" class="edge">
<title>8&#45;&gt;9</title>
<path fill="none" stroke="black" d="M362.74,-287.7C363.26,-280.41 363.88,-271.73 364.46,-263.54"/>
<polygon fill="black" stroke="black" points="367.95,-263.84 365.17,-253.61 360.97,-263.34 367.95,-263.84"/>
</g>
<!-- 10 -->
<g id="node11" class="node">
<title>10</title>
<polygon fill="none" stroke="black" points="285.38,-180 211.62,-180 211.62,-144 285.38,-144 285.38,-180"/>
<text text-anchor="middle" x="248.5" y="-158.45" font-family="monospace" font-size="14.00">Var lst</text>
</g>
<!-- 9&#45;&gt;10 -->
<g id="edge7" class="edge">
<title>9&#45;&gt;10</title>
<path fill="none" stroke="black" d="M339.13,-216.76C323.77,-207.65 304.33,-196.12 287.41,-186.08"/>
<polygon fill="black" stroke="black" points="289.47,-183.23 279.08,-181.14 285.9,-189.26 289.47,-183.23"/>
</g>
<!-- 11 -->
<g id="node12" class="node">
<title>11</title>
<polygon fill="none" stroke="black" points="357.5,-180 303.5,-180 303.5,-144 357.5,-144 357.5,-180"/>
<text text-anchor="middle" x="330.5" y="-158.45" font-family="monospace" font-size="14.00">Alt</text>
</g>
<!-- 9&#45;&gt;11 -->
<g id="edge10" class="edge">
<title>9&#45;&gt;11</title>
<path fill="none" stroke="black" d="M357.6,-215.7C353.63,-207.98 348.87,-198.71 344.44,-190.11"/>
<polygon fill="black" stroke="black" points="347.67,-188.74 339.99,-181.45 341.45,-191.94 347.67,-188.74"/>
</g>
<!-- 14 -->
<g id="node15" class="node">
<title>14</title>
<polygon fill="none" stroke="black" points="429.5,-180 375.5,-180 375.5,-144 429.5,-144 429.5,-180"/>
<text text-anchor="middle" x="402.5" y="-158.45" font-family="monospace" font-size="14.00">Alt</text>
</g>
<!-- 9&#45;&gt;14 -->
<g id="edge14" class="edge">
<title>9&#45;&gt;14</title>
<path fill="none" stroke="black" d="M375.4,-215.7C379.37,-207.98 384.13,-198.71 388.56,-190.11"/>
<polygon fill="black" stroke="black" points="391.55,-191.94 393.01,-181.45 385.33,-188.74 391.55,-191.94"/>
</g>
<!-- 18 -->
<g id="node19" class="node">
<title>18</title>
<polygon fill="none" stroke="black" points="541.5,-180 487.5,-180 487.5,-144 541.5,-144 541.5,-180"/>
<text text-anchor="middle" x="514.5" y="-158.45" font-family="monospace" font-size="14.00">Alt</text>
</g>
<!-- 9&#45;&gt;18 -->
<g id="edge19" class="edge">
<title>9&#45;&gt;18</title>
<path fill="none" stroke="black" d="M393.99,-220C417.35,-208.95 451.12,-192.98 476.97,-180.75"/>
<polygon fill="black" stroke="black" points="478.24,-184.02 485.79,-176.58 475.25,-177.69 478.24,-184.02"/>
</g>
<!-- 23 -->
<g id="node24" class="node">
<title>23</title>
<polygon fill="none" stroke="black" points="708.5,-180 654.5,-180 654.5,-144 708.5,-144 708.5,-180"/>
<text text-anchor="middle" x="681.5" y="-158.45" font-family="monospace" font-size="14.00">Alt</text>
</g>
<!-- 9&#45;&gt;23 -->
<g id="edge22" class="edge">
<title>9&#45;&gt;23</title>
<path fill="none" stroke="black" d="M393.9,-226.91C450.24,-214.39 579.18,-185.74 643.52,-171.44"/>
<polygon fill="black" stroke="black" points="643.9,-174.94 652.91,-169.35 642.39,-168.11 643.9,-174.94"/>
</g>
<!-- 12 -->
<g id="node13" class="node">
<title>12</title>
<polygon fill="none" stroke="black" points="243.12,-108 185.88,-108 185.88,-72 243.12,-72 243.12,-108"/>
<text text-anchor="middle" x="214.5" y="-86.45" font-family="monospace" font-size="14.00">PList</text>
</g>
<!-- 11&#45;&gt;12 -->
<g id="edge8" class="edge">
<title>11&#45;&gt;12</title>
<path fill="none" stroke="black" d="M303.01,-144.41C288.14,-135.44 269.53,-124.21 253.22,-114.36"/>
<polygon fill="black" stroke="black" points="255.08,-111.4 244.71,-109.23 251.46,-117.39 255.08,-111.4"/>
</g>
<!-- 13 -->
<g id="node14" class="node">
<title>13</title>
<polygon fill="none" stroke="black" points="318.12,-108 260.88,-108 260.88,-72 318.12,-72 318.12,-108"/>
<text text-anchor="middle" x="289.5" y="-86.45" font-family="monospace" font-size="14.00">Lit 0</text>
</g>
<!-- 11&#45;&gt;13 -->
<g id="edge9" class="edge">
<title>11&#45;&gt;13</title>
<path fill="none" stroke="black" d="M320.37,-143.7C315.8,-135.9 310.3,-126.51 305.21,-117.83"/>
<polygon fill="black" stroke="black" points="308.36,-116.27 300.28,-109.41 302.32,-119.81 308.36,-116.27"/>
</g>
<!-- 15 -->
<g id="node16" class="node">
<title>15</title>
<polygon fill="none" stroke="black" points="393.12,-108 335.88,-108 335.88,-72 393.12,-72 393.12,-108"/>
<text text-anchor="middle" x="364.5" y="-86.45" font-family="monospace" font-size="14.00">PList</text>
</g>
<!-- 14&#45;&gt;15 -->
<g id="edge12" class="edge">
<title>14&#45;&gt;15</title>
<path fill="none" stroke="black" d="M393.11,-143.7C388.92,-135.98 383.89,-126.71 379.22,-118.11"/>
<polygon fill="black" stroke="black" points="382.35,-116.55 374.51,-109.43 376.2,-119.89 382.35,-116.55"/>
</g>
<!-- 17 -->
<g id="node18" class="node">
<title>17</title>
<polygon fill="none" stroke="black" points="468.12,-108 410.88,-108 410.88,-72 468.12,-72 468.12,-108"/>
<text text-anchor="middle" x="439.5" y="-86.45" font-family="monospace" font-size="14.00">Var x</text>
</g>
<!-- 14&#45;&gt;17 -->
<g id="edge13" class="edge">
<title>14&#45;&gt;17</title>
<path fill="none" stroke="black" d="M411.65,-143.7C415.72,-135.98 420.62,-126.71 425.17,-118.11"/>
<polygon fill="black" stroke="black" points="428.17,-119.92 429.75,-109.44 421.98,-116.65 428.17,-119.92"/>
</g>
<!-- 16 -->
<g id="node17" class="node">
<title>16</title>
<polygon fill="none" stroke="black" points="397.25,-36 331.75,-36 331.75,0 397.25,0 397.25,-36"/>
<text text-anchor="middle" x="364.5" y="-14.45" font-family="monospace" font-size="14.00">PVar x</text>
</g>
<!-- 15&#45;&gt;16 -->
<g id="edge11" class="edge">
<title>15&#45;&gt;16</title>
<path fill="none" stroke="black" d="M364.5,-71.7C364.5,-64.41 364.5,-55.73 364.5,-47.54"/>
<polygon fill="black" stroke="black" points="368,-47.62 364.5,-37.62 361,-47.62 368,-47.62"/>
</g>
<!-- 19 -->
<g id="node20" class="node">
<title>19</title>
<polygon fill="none" stroke="black" points="543.12,-108 485.88,-108 485.88,-72 543.12,-72 543.12,-108"/>
<text text-anchor="middle" x="514.5" y="-86.45" font-family="monospace" font-size="14.00">PList</text>
</g>
<!-- 18&#45;&gt;19 -->
<g id="edge17" class="edge">
<title>18&#45;&gt;19</title>
<path fill="none" stroke="black" d="M514.5,-143.7C514.5,-136.41 514.5,-127.73 514.5,-119.54"/>
<polygon fill="black" stroke="black" points="518,-119.62 514.5,-109.62 511,-119.62 518,-119.62"/>
</g>
<!-- 22 -->
<g id="node23" class="node">
<title>22</title>
<polygon fill="none" stroke="black" points="618.12,-108 560.88,-108 560.88,-72 618.12,-72 618.12,-108"/>
<text text-anchor="middle" x="589.5" y="-86.45" font-family="monospace" font-size="14.00">Var x</text>
</g>
<!-- 18&#45;&gt;22 -->
<g id="edge18" class="edge">
<title>18&#45;&gt;22</title>
<path fill="none" stroke="black" d="M533.04,-143.7C541.96,-135.37 552.83,-125.22 562.64,-116.07"/>
<polygon fill="black" stroke="black" points="564.89,-118.76 569.81,-109.38 560.11,-113.64 564.89,-118.76"/>
</g>
<!-- 20 -->
<g id="node21" class="node">
<title>20</title>
<polygon fill="none" stroke="black" points="514.25,-36 448.75,-36 448.75,0 514.25,0 514.25,-36"/>
<text text-anchor="middle" x="481.5" y="-14.45" font-family="monospace" font-size="14.00">PVar x</text>
</g>
<!-- 19&#45;&gt;20 -->
<g id="edge15" class="edge">
<title>19&#45;&gt;20</title>
<path fill="none" stroke="black" d="M506.34,-71.7C502.75,-64.07 498.43,-54.92 494.42,-46.4"/>
<polygon fill="black" stroke="black" points="497.64,-45.03 490.21,-37.47 491.31,-48.01 497.64,-45.03"/>
</g>
<!-- 21 -->
<g id="node22" class="node">
<title>21</title>
<polygon fill="none" stroke="black" points="622.62,-36 532.38,-36 532.38,0 622.62,0 622.62,-36"/>
<text text-anchor="middle" x="577.5" y="-14.45" font-family="monospace" font-size="14.00">PWildcard</text>
</g>
<!-- 19&#45;&gt;21 -->
<g id="edge16" class="edge">
<title>19&#45;&gt;21</title>
<path fill="none" stroke="black" d="M530.07,-71.7C537.47,-63.47 546.47,-53.48 554.62,-44.42"/>
<polygon fill="black" stroke="black" points="557.01,-47 561.09,-37.23 551.8,-42.32 557.01,-47"/>
</g>
<!-- 24 -->
<g id="node25" class="node">
<title>24</title>
<polygon fill="none" stroke="black" points="726.62,-108 636.38,-108 636.38,-72 726.62,-72 726.62,-108"/>
<text text-anchor="middle" x="681.5" y="-86.45" font-family="monospace" font-size="14.00">PWildcard</text>
</g>
<!-- 23&#45;&gt;24 -->
<g id="edge20" class="edge">
<title>23&#45;&gt;24</title>
<path fill="none" stroke="black" d="M681.5,-143.7C681.5,-136.41 681.5,-127.73 681.5,-119.54"/>
<polygon fill="black" stroke="black" points="685,-119.62 681.5,-109.62 678,-119.62 685,-119.62"/>
</g>
<!-- 25 -->
<g id="node26" class="node">
<title>25</title>
<polygon fill="none" stroke="black" points="802.12,-108 744.88,-108 744.88,-72 802.12,-72 802.12,-108"/>
<text text-anchor="middle" x="773.5" y="-86.45" font-family="monospace" font-size="14.00">Lit 0</text>
</g>
<!-- 23&#45;&gt;25 -->
<g id="edge21" class="edge">
<title>23&#45;&gt;25</title>
<path fill="none" stroke="black" d="M704.24,-143.7C715.52,-135.11 729.33,-124.61 741.64,-115.24"/>
<polygon fill="black" stroke="black" points="743.66,-118.1 749.5,-109.26 739.42,-112.53 743.66,-118.1"/>
</g>
</g>
</svg>
