<?xml version="1.0" encoding="UTF-8" standalone="no"?>
<!DOCTYPE svg PUBLIC "-//W3C//DTD SVG 1.1//EN"
 "http://www.w3.org/Graphics/SVG/1.1/DTD/svg11.dtd">
<!-- Generated by graphviz version 12.2.1 (20241206.2353)
 -->
<!-- Title: AST Pages: 1 -->
<svg width="544pt" height="332pt"
 viewBox="0.00 0.00 544.12 332.00" xmlns="http://www.w3.org/2000/svg" xmlns:xlink="http://www.w3.org/1999/xlink">
<g id="graph0" class="graph" transform="scale(1 1) rotate(0) translate(4 328)">
<title>AST</title>
<polygon fill="white" stroke="none" points="-4,4 -4,-328 540.12,-328 540.12,4 -4,4"/>
<!-- 0 -->
<g id="node1" class="node">
<title>0</title>
<polygon fill="none" stroke="black" points="322.38,-324 248.62,-324 248.62,-288 322.38,-288 322.38,-324"/>
<text text-anchor="middle" x="285.5" y="-302.45" font-family="monospace" font-size="14.00">Program</text>
</g>
<!-- 1 -->
<g id="node2" class="node">
<title>1</title>
<polygon fill="none" stroke="black" points="268,-252 153,-252 153,-216 268,-216 268,-252"/>
<text text-anchor="middle" x="210.5" y="-230.45" font-family="monospace" font-size="14.00">FunDecl main</text>
</g>
<!-- 0&#45;&gt;1 -->
<g id="edge6" class="edge">
<title>0&#45;&gt;1</title>
<path fill="none" stroke="black" d="M266.96,-287.7C258.04,-279.37 247.17,-269.22 237.36,-260.07"/>
<polygon fill="black" stroke="black" points="239.89,-257.64 230.19,-253.38 235.11,-262.76 239.89,-257.64"/>
</g>
<!-- 7 -->
<g id="node8" class="node">
<title>7</title>
<polygon fill="none" stroke="black" points="434.5,-252 286.5,-252 286.5,-216 434.5,-216 434.5,-252"/>
<text text-anchor="middle" x="360.5" y="-230.45" font-family="monospace" font-size="14.00">FunDecl addThree</text>
</g>
<!-- 0&#45;&gt;7 -->
<g id="edge13" class="edge">
<title>0&#45;&gt;7</title>
<path fill="none" stroke="black" d="M304.04,-287.7C312.96,-279.37 323.83,-269.22 333.64,-260.07"/>
<polygon fill="black" stroke="black" points="335.89,-262.76 340.81,-253.38 331.11,-257.64 335.89,-262.76"/>
</g>
<!-- 2 -->
<g id="node3" class="node">
<title>2</title>
<polygon fill="none" stroke="black" points="237.5,-180 183.5,-180 183.5,-144 237.5,-144 237.5,-180"/>
<text text-anchor="middle" x="210.5" y="-158.45" font-family="monospace" font-size="14.00">App</text>
</g>
<!-- 1&#45;&gt;2 -->
<g id="edge5" class="edge">
<title>1&#45;&gt;2</title>
<path fill="none" stroke="black" d="M210.5,-215.7C210.5,-208.41 210.5,-199.73 210.5,-191.54"/>
<polygon fill="black" stroke="black" points="214,-191.62 210.5,-181.62 207,-191.62 214,-191.62"/>
</g>
<!-- 3 -->
<g id="node4" class="node">
<title>3</title>
<polygon fill="none" stroke="black" points="115,-108 0,-108 0,-72 115,-72 115,-108"/>
<text text-anchor="middle" x="57.5" y="-86.45" font-family="monospace" font-size="14.00">Var addThree</text>
</g>
<!-- 2&#45;&gt;3 -->
<g id="edge1" class="edge">
<title>2&#45;&gt;3</title>
<path fill="none" stroke="black" d="M183.15,-148.49C161.69,-138.67 131.29,-124.76 105.77,-113.08"/>
<polygon fill="black" stroke="black" points="107.46,-110.01 96.91,-109.03 104.55,-116.37 107.46,-110.01"/>
</g>
<!-- 4 -->
<g id="node5" class="node">
<title>4</title>
<polygon fill="none" stroke="black" points="190.12,-108 132.88,-108 132.88,-72 190.12,-72 190.12,-108"/>
<text text-anchor="middle" x="161.5" y="-86.45" font-family="monospace" font-size="14.00">Lit 1</text>
</g>
<!-- 2&#45;&gt;4 -->
<g id="edge2" class="edge">
<title>2&#45;&gt;4</title>
<path fill="none" stroke="black" d="M198.39,-143.7C192.81,-135.73 186.07,-126.1 179.88,-117.26"/>
<polygon fill="black" stroke="black" points="182.94,-115.53 174.34,-109.34 177.21,-119.54 182.94,-115.53"/>
</g>
<!-- 5 -->
<g id="node6" class="node">
<title>5</title>
<polygon fill="none" stroke="black" points="265.12,-108 207.88,-108 207.88,-72 265.12,-72 265.12,-108"/>
<text text-anchor="middle" x="236.5" y="-86.45" font-family="monospace" font-size="14.00">Lit 2</text>
</g>
<!-- 2&#45;&gt;5 -->
<g id="edge3" class="edge">
<title>2&#45;&gt;5</title>
<path fill="none" stroke="black" d="M216.93,-143.7C219.73,-136.15 223.08,-127.12 226.22,-118.68"/>
<polygon fill="black" stroke="black" points="229.42,-120.12 229.62,-109.52 222.86,-117.68 229.42,-120.12"/>
</g>
<!-- 6 -->
<g id="node7" class="node">
<title>6</title>
<polygon fill="none" stroke="black" points="340.12,-108 282.88,-108 282.88,-72 340.12,-72 340.12,-108"/>
<text text-anchor="middle" x="311.5" y="-86.45" font-family="monospace" font-size="14.00">Lit 3</text>
</g>
<!-- 2&#45;&gt;6 -->
<g id="edge4" class="edge">
<title>2&#45;&gt;6</title>
<path fill="none" stroke="black" d="M235.73,-143.52C248.35,-134.76 263.82,-124.04 277.48,-114.58"/>
<polygon fill="black" stroke="black" points="279.13,-117.7 285.35,-109.12 275.14,-111.94 279.13,-117.7"/>
</g>
<!-- 8 -->
<g id="node9" class="node">
<title>8</title>
<polygon fill="none" stroke="black" points="394,-180 279,-180 279,-144 394,-144 394,-180"/>
<text text-anchor="middle" x="336.5" y="-158.45" font-family="monospace" font-size="14.00">Params z y x</text>
</g>
<!-- 7&#45;&gt;8 -->
<g id="edge7" class="edge">
<title>7&#45;&gt;8</title>
<path fill="none" stroke="black" d="M354.57,-215.7C352.01,-208.24 348.95,-199.32 346.09,-190.97"/>
<polygon fill="black" stroke="black" points="349.41,-189.86 342.86,-181.54 342.79,-192.13 349.41,-189.86"/>
</g>
<!-- 9 -->
<g id="node10" class="node">
<title>9</title>
<polygon fill="none" stroke="black" points="485.38,-180 411.62,-180 411.62,-144 485.38,-144 485.38,-180"/>
<text text-anchor="middle" x="448.5" y="-158.45" font-family="monospace" font-size="14.00">BinOp +</text>
</g>
<!-- 7&#45;&gt;9 -->
<g id="edge12" class="edge">
<title>7&#45;&gt;9</title>
<path fill="none" stroke="black" d="M382.25,-215.7C392.94,-207.2 405.99,-196.81 417.68,-187.51"/>
<polygon fill="black" stroke="black" points="419.86,-190.25 425.51,-181.29 415.5,-184.78 419.86,-190.25"/>
</g>
<!-- 10 -->
<g id="node11" class="node">
<title>10</title>
<polygon fill="none" stroke="black" points="460.38,-108 386.62,-108 386.62,-72 460.38,-72 460.38,-108"/>
<text text-anchor="middle" x="423.5" y="-86.45" font-family="monospace" font-size="14.00">BinOp +</text>
</g>
<!-- 9&#45;&gt;10 -->
<g id="edge10" class="edge">
<title>9&#45;&gt;10</title>
<path fill="none" stroke="black" d="M442.32,-143.7C439.63,-136.15 436.4,-127.12 433.39,-118.68"/>
<polygon fill="black" stroke="black" points="436.78,-117.77 430.12,-109.53 430.19,-120.12 436.78,-117.77"/>
</g>
<!-- 13 -->
<g id="node14" class="node">
<title>13</title>
<polygon fill="none" stroke="black" points="536.12,-108 478.88,-108 478.88,-72 536.12,-72 536.12,-108"/>
<text text-anchor="middle" x="507.5" y="-86.45" font-family="monospace" font-size="14.00">Var z</text>
</g>
<!-- 9&#45;&gt;13 -->
<g id="edge11" class="edge">
<title>9&#45;&gt;13</title>
<path fill="none" stroke="black" d="M463.08,-143.7C469.94,-135.56 478.26,-125.69 485.84,-116.7"/>
<polygon fill="black" stroke="black" points="488.34,-119.16 492.11,-109.26 482.99,-114.65 488.34,-119.16"/>
</g>
<!-- 11 -->
<g id="node12" class="node">
<title>11</title>
<polygon fill="none" stroke="black" points="414.12,-36 356.88,-36 356.88,0 414.12,0 414.12,-36"/>
<text text-anchor="middle" x="385.5" y="-14.45" font-family="monospace" font-size="14.00">Var x</text>
</g>
<!-- 10&#45;&gt;11 -->
<g id="edge8" class="edge">
<title>10&#45;&gt;11</title>
<path fill="none" stroke="black" d="M414.11,-71.7C409.92,-63.98 404.89,-54.71 400.22,-46.11"/>
<polygon fill="black" stroke="black" points="403.35,-44.55 395.51,-37.43 397.2,-47.89 403.35,-44.55"/>
</g>
<!-- 12 -->
<g id="node13" class="node">
<title>12</title>
<polygon fill="none" stroke="black" points="489.12,-36 431.88,-36 431.88,0 489.12,0 489.12,-36"/>
<text text-anchor="middle" x="460.5" y="-14.45" font-family="monospace" font-size="14.00">Var y</text>
</g>
<!-- 10&#45;&gt;12 -->
<g id="edge9" class="edge">
<title>10&#45;&gt;12</title>
<path fill="none" stroke="black" d="M432.65,-71.7C436.72,-63.98 441.62,-54.71 446.17,-46.11"/>
<polygon fill="black" stroke="black" points="449.17,-47.92 450.75,-37.44 442.98,-44.65 449.17,-47.92"/>
</g>
</g>
</svg>
