<?xml version="1.0" encoding="UTF-8" standalone="no"?>
<!DOCTYPE svg PUBLIC "-//W3C//DTD SVG 1.1//EN"
 "http://www.w3.org/Graphics/SVG/1.1/DTD/svg11.dtd">
<!-- Generated by graphviz version 12.2.1 (20241206.2353)
 -->
<!-- Title: AST Pages: 1 -->
<svg width="1585pt" height="548pt"
 viewBox="0.00 0.00 1584.50 548.00" xmlns="http://www.w3.org/2000/svg" xmlns:xlink="http://www.w3.org/1999/xlink">
<g id="graph0" class="graph" transform="scale(1 1) rotate(0) translate(4 544)">
<title>AST</title>
<polygon fill="white" stroke="none" points="-4,4 -4,-544 1580.5,-544 1580.5,4 -4,4"/>
<!-- 0 -->
<g id="node1" class="node">
<title>0</title>
<polygon fill="none" stroke="black" points="558.62,-540 484.88,-540 484.88,-504 558.62,-504 558.62,-540"/>
<text text-anchor="middle" x="521.75" y="-518.45" font-family="monospace" font-size="14.00">Program</text>
</g>
<!-- 1 -->
<g id="node2" class="node">
<title>1</title>
<polygon fill="none" stroke="black" points="379.25,-468 264.25,-468 264.25,-432 379.25,-432 379.25,-468"/>
<text text-anchor="middle" x="321.75" y="-446.45" font-family="monospace" font-size="14.00">FunDecl main</text>
</g>
<!-- 0&#45;&gt;1 -->
<g id="edge10" class="edge">
<title>0&#45;&gt;1</title>
<path fill="none" stroke="black" d="M484.6,-508C455.85,-497.94 415.46,-483.8 382.09,-472.12"/>
<polygon fill="black" stroke="black" points="383.55,-468.92 372.96,-468.92 381.24,-475.53 383.55,-468.92"/>
</g>
<!-- 11 -->
<g id="node12" class="node">
<title>11</title>
<polygon fill="none" stroke="black" points="616.38,-468 427.12,-468 427.12,-432 616.38,-432 616.38,-468"/>
<text text-anchor="middle" x="521.75" y="-446.45" font-family="monospace" font-size="14.00">FunDecl insertionSort</text>
</g>
<!-- 0&#45;&gt;11 -->
<g id="edge28" class="edge">
<title>0&#45;&gt;11</title>
<path fill="none" stroke="black" d="M521.75,-503.7C521.75,-496.41 521.75,-487.73 521.75,-479.54"/>
<polygon fill="black" stroke="black" points="525.25,-479.62 521.75,-469.62 518.25,-479.62 525.25,-479.62"/>
</g>
<!-- 29 -->
<g id="node30" class="node">
<title>29</title>
<polygon fill="none" stroke="black" points="772.5,-468 641,-468 641,-432 772.5,-432 772.5,-468"/>
<text text-anchor="middle" x="706.75" y="-446.45" font-family="monospace" font-size="14.00">FunDecl insert</text>
</g>
<!-- 0&#45;&gt;29 -->
<g id="edge54" class="edge">
<title>0&#45;&gt;29</title>
<path fill="none" stroke="black" d="M558.74,-507C584.85,-497.12 620.32,-483.7 649.99,-472.48"/>
<polygon fill="black" stroke="black" points="651.1,-475.8 659.22,-468.99 648.62,-469.25 651.1,-475.8"/>
</g>
<!-- 2 -->
<g id="node3" class="node">
<title>2</title>
<polygon fill="none" stroke="black" points="301.75,-396 247.75,-396 247.75,-360 301.75,-360 301.75,-396"/>
<text text-anchor="middle" x="274.75" y="-374.45" font-family="monospace" font-size="14.00">App</text>
</g>
<!-- 1&#45;&gt;2 -->
<g id="edge9" class="edge">
<title>1&#45;&gt;2</title>
<path fill="none" stroke="black" d="M310.13,-431.7C304.84,-423.81 298.45,-414.3 292.57,-405.55"/>
<polygon fill="black" stroke="black" points="295.56,-403.71 287.08,-397.36 289.75,-407.61 295.56,-403.71"/>
</g>
<!-- 3 -->
<g id="node4" class="node">
<title>3</title>
<polygon fill="none" stroke="black" points="229.88,-324 73.62,-324 73.62,-288 229.88,-288 229.88,-324"/>
<text text-anchor="middle" x="151.75" y="-302.45" font-family="monospace" font-size="14.00">Var insertionSort</text>
</g>
<!-- 2&#45;&gt;3 -->
<g id="edge1" class="edge">
<title>2&#45;&gt;3</title>
<path fill="none" stroke="black" d="M247.45,-361.46C231.28,-352.26 210.49,-340.43 192.42,-330.15"/>
<polygon fill="black" stroke="black" points="194.17,-327.11 183.75,-325.21 190.71,-333.2 194.17,-327.11"/>
</g>
<!-- 4 -->
<g id="node5" class="node">
<title>4</title>
<polygon fill="none" stroke="black" points="301.75,-324 247.75,-324 247.75,-288 301.75,-288 301.75,-324"/>
<text text-anchor="middle" x="274.75" y="-302.45" font-family="monospace" font-size="14.00">List</text>
</g>
<!-- 2&#45;&gt;4 -->
<g id="edge8" class="edge">
<title>2&#45;&gt;4</title>
<path fill="none" stroke="black" d="M274.75,-359.7C274.75,-352.41 274.75,-343.73 274.75,-335.54"/>
<polygon fill="black" stroke="black" points="278.25,-335.62 274.75,-325.62 271.25,-335.62 278.25,-335.62"/>
</g>
<!-- 5 -->
<g id="node6" class="node">
<title>5</title>
<polygon fill="none" stroke="black" points="65.5,-252 0,-252 0,-216 65.5,-216 65.5,-252"/>
<text text-anchor="middle" x="32.75" y="-230.45" font-family="monospace" font-size="14.00">Lit 34</text>
</g>
<!-- 4&#45;&gt;5 -->
<g id="edge2" class="edge">
<title>4&#45;&gt;5</title>
<path fill="none" stroke="black" d="M247.5,-291.35C244.58,-290.12 241.63,-288.98 238.75,-288 171.02,-264.95 147.57,-273.54 76.52,-252.56"/>
<polygon fill="black" stroke="black" points="77.72,-249.27 67.13,-249.69 75.67,-255.96 77.72,-249.27"/>
</g>
<!-- 6 -->
<g id="node7" class="node">
<title>6</title>
<polygon fill="none" stroke="black" points="140.38,-252 83.12,-252 83.12,-216 140.38,-216 140.38,-252"/>
<text text-anchor="middle" x="111.75" y="-230.45" font-family="monospace" font-size="14.00">Lit 7</text>
</g>
<!-- 4&#45;&gt;6 -->
<g id="edge3" class="edge">
<title>4&#45;&gt;6</title>
<path fill="none" stroke="black" d="M247.31,-291.83C244.43,-290.51 241.54,-289.21 238.75,-288 202.34,-272.14 190.22,-269.37 151.28,-252.98"/>
<polygon fill="black" stroke="black" points="152.74,-249.8 142.17,-249.1 149.99,-256.24 152.74,-249.8"/>
</g>
<!-- 7 -->
<g id="node8" class="node">
<title>7</title>
<polygon fill="none" stroke="black" points="223.5,-252 158,-252 158,-216 223.5,-216 223.5,-252"/>
<text text-anchor="middle" x="190.75" y="-230.45" font-family="monospace" font-size="14.00">Lit 23</text>
</g>
<!-- 4&#45;&gt;7 -->
<g id="edge4" class="edge">
<title>4&#45;&gt;7</title>
<path fill="none" stroke="black" d="M253.99,-287.7C243.79,-279.2 231.33,-268.81 220.17,-259.51"/>
<polygon fill="black" stroke="black" points="222.65,-257.03 212.73,-253.32 218.17,-262.41 222.65,-257.03"/>
</g>
<!-- 8 -->
<g id="node9" class="node">
<title>8</title>
<polygon fill="none" stroke="black" points="307.5,-252 242,-252 242,-216 307.5,-216 307.5,-252"/>
<text text-anchor="middle" x="274.75" y="-230.45" font-family="monospace" font-size="14.00">Lit 32</text>
</g>
<!-- 4&#45;&gt;8 -->
<g id="edge5" class="edge">
<title>4&#45;&gt;8</title>
<path fill="none" stroke="black" d="M274.75,-287.7C274.75,-280.41 274.75,-271.73 274.75,-263.54"/>
<polygon fill="black" stroke="black" points="278.25,-263.62 274.75,-253.62 271.25,-263.62 278.25,-263.62"/>
</g>
<!-- 9 -->
<g id="node10" class="node">
<title>9</title>
<polygon fill="none" stroke="black" points="382.38,-252 325.12,-252 325.12,-216 382.38,-216 382.38,-252"/>
<text text-anchor="middle" x="353.75" y="-230.45" font-family="monospace" font-size="14.00">Lit 5</text>
</g>
<!-- 4&#45;&gt;9 -->
<g id="edge6" class="edge">
<title>4&#45;&gt;9</title>
<path fill="none" stroke="black" d="M294.28,-287.7C303.77,-279.28 315.36,-269.02 325.77,-259.79"/>
<polygon fill="black" stroke="black" points="327.88,-262.6 333.04,-253.35 323.23,-257.36 327.88,-262.6"/>
</g>
<!-- 10 -->
<g id="node11" class="node">
<title>10</title>
<polygon fill="none" stroke="black" points="465.5,-252 400,-252 400,-216 465.5,-216 465.5,-252"/>
<text text-anchor="middle" x="432.75" y="-230.45" font-family="monospace" font-size="14.00">Lit 62</text>
</g>
<!-- 4&#45;&gt;10 -->
<g id="edge7" class="edge">
<title>4&#45;&gt;10</title>
<path fill="none" stroke="black" d="M301.91,-292.97C325.93,-282.33 361.39,-266.61 389.34,-254.23"/>
<polygon fill="black" stroke="black" points="390.54,-257.53 398.26,-250.28 387.7,-251.13 390.54,-257.53"/>
</g>
<!-- 12 -->
<g id="node13" class="node">
<title>12</title>
<polygon fill="none" stroke="black" points="541,-396 442.5,-396 442.5,-360 541,-360 541,-396"/>
<text text-anchor="middle" x="491.75" y="-374.45" font-family="monospace" font-size="14.00">Params lst</text>
</g>
<!-- 11&#45;&gt;12 -->
<g id="edge11" class="edge">
<title>11&#45;&gt;12</title>
<path fill="none" stroke="black" d="M514.33,-431.7C511.1,-424.15 507.23,-415.12 503.61,-406.68"/>
<polygon fill="black" stroke="black" points="506.83,-405.31 499.68,-397.5 500.4,-408.07 506.83,-405.31"/>
</g>
<!-- 13 -->
<g id="node14" class="node">
<title>13</title>
<polygon fill="none" stroke="black" points="612.75,-396 558.75,-396 558.75,-360 612.75,-360 612.75,-396"/>
<text text-anchor="middle" x="585.75" y="-374.45" font-family="monospace" font-size="14.00">Case</text>
</g>
<!-- 11&#45;&gt;13 -->
<g id="edge27" class="edge">
<title>11&#45;&gt;13</title>
<path fill="none" stroke="black" d="M537.57,-431.7C545.09,-423.47 554.22,-413.48 562.51,-404.42"/>
<polygon fill="black" stroke="black" points="564.93,-406.96 569.09,-397.22 559.76,-402.24 564.93,-406.96"/>
</g>
<!-- 14 -->
<g id="node15" class="node">
<title>14</title>
<polygon fill="none" stroke="black" points="540.62,-324 466.88,-324 466.88,-288 540.62,-288 540.62,-324"/>
<text text-anchor="middle" x="503.75" y="-302.45" font-family="monospace" font-size="14.00">Var lst</text>
</g>
<!-- 13&#45;&gt;14 -->
<g id="edge12" class="edge">
<title>13&#45;&gt;14</title>
<path fill="none" stroke="black" d="M565.48,-359.7C555.62,-351.28 543.6,-341.02 532.79,-331.79"/>
<polygon fill="black" stroke="black" points="535.1,-329.16 525.22,-325.33 530.56,-334.48 535.1,-329.16"/>
</g>
<!-- 15 -->
<g id="node16" class="node">
<title>15</title>
<polygon fill="none" stroke="black" points="612.75,-324 558.75,-324 558.75,-288 612.75,-288 612.75,-324"/>
<text text-anchor="middle" x="585.75" y="-302.45" font-family="monospace" font-size="14.00">Alt</text>
</g>
<!-- 13&#45;&gt;15 -->
<g id="edge15" class="edge">
<title>13&#45;&gt;15</title>
<path fill="none" stroke="black" d="M585.75,-359.7C585.75,-352.41 585.75,-343.73 585.75,-335.54"/>
<polygon fill="black" stroke="black" points="589.25,-335.62 585.75,-325.62 582.25,-335.62 589.25,-335.62"/>
</g>
<!-- 18 -->
<g id="node19" class="node">
<title>18</title>
<polygon fill="none" stroke="black" points="698.75,-324 644.75,-324 644.75,-288 698.75,-288 698.75,-324"/>
<text text-anchor="middle" x="671.75" y="-302.45" font-family="monospace" font-size="14.00">Alt</text>
</g>
<!-- 13&#45;&gt;18 -->
<g id="edge26" class="edge">
<title>13&#45;&gt;18</title>
<path fill="none" stroke="black" d="M607.01,-359.7C617.45,-351.2 630.21,-340.81 641.63,-331.51"/>
<polygon fill="black" stroke="black" points="643.72,-334.33 649.26,-325.3 639.3,-328.9 643.72,-334.33"/>
</g>
<!-- 16 -->
<g id="node17" class="node">
<title>16</title>
<polygon fill="none" stroke="black" points="540.38,-252 483.12,-252 483.12,-216 540.38,-216 540.38,-252"/>
<text text-anchor="middle" x="511.75" y="-230.45" font-family="monospace" font-size="14.00">PList</text>
</g>
<!-- 15&#45;&gt;16 -->
<g id="edge13" class="edge">
<title>15&#45;&gt;16</title>
<path fill="none" stroke="black" d="M567.46,-287.7C558.65,-279.37 547.93,-269.22 538.25,-260.07"/>
<polygon fill="black" stroke="black" points="540.86,-257.72 531.19,-253.39 536.05,-262.8 540.86,-257.72"/>
</g>
<!-- 17 -->
<g id="node18" class="node">
<title>17</title>
<polygon fill="none" stroke="black" points="612.75,-252 558.75,-252 558.75,-216 612.75,-216 612.75,-252"/>
<text text-anchor="middle" x="585.75" y="-230.45" font-family="monospace" font-size="14.00">List</text>
</g>
<!-- 15&#45;&gt;17 -->
<g id="edge14" class="edge">
<title>15&#45;&gt;17</title>
<path fill="none" stroke="black" d="M585.75,-287.7C585.75,-280.41 585.75,-271.73 585.75,-263.54"/>
<polygon fill="black" stroke="black" points="589.25,-263.62 585.75,-253.62 582.25,-263.62 589.25,-263.62"/>
</g>
<!-- 19 -->
<g id="node20" class="node">
<title>19</title>
<polygon fill="none" stroke="black" points="712.75,-252 630.75,-252 630.75,-216 712.75,-216 712.75,-252"/>
<text text-anchor="middle" x="671.75" y="-230.45" font-family="monospace" font-size="14.00">PTuple/1</text>
</g>
<!-- 18&#45;&gt;19 -->
<g id="edge24" class="edge">
<title>18&#45;&gt;19</title>
<path fill="none" stroke="black" d="M671.75,-287.7C671.75,-280.41 671.75,-271.73 671.75,-263.54"/>
<polygon fill="black" stroke="black" points="675.25,-263.62 671.75,-253.62 668.25,-263.62 675.25,-263.62"/>
</g>
<!-- 23 -->
<g id="node24" class="node">
<title>23</title>
<polygon fill="none" stroke="black" points="784.75,-252 730.75,-252 730.75,-216 784.75,-216 784.75,-252"/>
<text text-anchor="middle" x="757.75" y="-230.45" font-family="monospace" font-size="14.00">App</text>
</g>
<!-- 18&#45;&gt;23 -->
<g id="edge25" class="edge">
<title>18&#45;&gt;23</title>
<path fill="none" stroke="black" d="M693.01,-287.7C703.45,-279.2 716.21,-268.81 727.63,-259.51"/>
<polygon fill="black" stroke="black" points="729.72,-262.33 735.26,-253.3 725.3,-256.9 729.72,-262.33"/>
</g>
<!-- 20 -->
<g id="node21" class="node">
<title>20</title>
<polygon fill="none" stroke="black" points="594.88,-180 504.62,-180 504.62,-144 594.88,-144 594.88,-180"/>
<text text-anchor="middle" x="549.75" y="-158.45" font-family="monospace" font-size="14.00">PCons (:)</text>
</g>
<!-- 19&#45;&gt;20 -->
<g id="edge18" class="edge">
<title>19&#45;&gt;20</title>
<path fill="none" stroke="black" d="M641.28,-215.52C625.59,-206.51 606.26,-195.42 589.42,-185.76"/>
<polygon fill="black" stroke="black" points="591.56,-182.95 581.15,-181.01 588.08,-189.03 591.56,-182.95"/>
</g>
<!-- 21 -->
<g id="node22" class="node">
<title>21</title>
<polygon fill="none" stroke="black" points="512.5,-108 447,-108 447,-72 512.5,-72 512.5,-108"/>
<text text-anchor="middle" x="479.75" y="-86.45" font-family="monospace" font-size="14.00">PVar h</text>
</g>
<!-- 20&#45;&gt;21 -->
<g id="edge16" class="edge">
<title>20&#45;&gt;21</title>
<path fill="none" stroke="black" d="M532.45,-143.7C524.14,-135.39 514.03,-125.28 504.89,-116.14"/>
<polygon fill="black" stroke="black" points="507.47,-113.77 497.92,-109.17 502.52,-118.72 507.47,-113.77"/>
</g>
<!-- 22 -->
<g id="node23" class="node">
<title>22</title>
<polygon fill="none" stroke="black" points="596.5,-108 531,-108 531,-72 596.5,-72 596.5,-108"/>
<text text-anchor="middle" x="563.75" y="-86.45" font-family="monospace" font-size="14.00">PVar t</text>
</g>
<!-- 20&#45;&gt;22 -->
<g id="edge17" class="edge">
<title>20&#45;&gt;22</title>
<path fill="none" stroke="black" d="M553.21,-143.7C554.69,-136.32 556.45,-127.52 558.1,-119.25"/>
<polygon fill="black" stroke="black" points="561.5,-120.08 560.03,-109.59 554.64,-118.71 561.5,-120.08"/>
</g>
<!-- 24 -->
<g id="node25" class="node">
<title>24</title>
<polygon fill="none" stroke="black" points="711,-180 612.5,-180 612.5,-144 711,-144 711,-180"/>
<text text-anchor="middle" x="661.75" y="-158.45" font-family="monospace" font-size="14.00">Var insert</text>
</g>
<!-- 23&#45;&gt;24 -->
<g id="edge19" class="edge">
<title>23&#45;&gt;24</title>
<path fill="none" stroke="black" d="M734.02,-215.7C722.13,-207.03 707.56,-196.4 694.61,-186.96"/>
<polygon fill="black" stroke="black" points="696.91,-184.3 686.76,-181.24 692.78,-189.96 696.91,-184.3"/>
</g>
<!-- 25 -->
<g id="node26" class="node">
<title>25</title>
<polygon fill="none" stroke="black" points="786.38,-180 729.12,-180 729.12,-144 786.38,-144 786.38,-180"/>
<text text-anchor="middle" x="757.75" y="-158.45" font-family="monospace" font-size="14.00">Var h</text>
</g>
<!-- 23&#45;&gt;25 -->
<g id="edge20" class="edge">
<title>23&#45;&gt;25</title>
<path fill="none" stroke="black" d="M757.75,-215.7C757.75,-208.41 757.75,-199.73 757.75,-191.54"/>
<polygon fill="black" stroke="black" points="761.25,-191.62 757.75,-181.62 754.25,-191.62 761.25,-191.62"/>
</g>
<!-- 26 -->
<g id="node27" class="node">
<title>26</title>
<polygon fill="none" stroke="black" points="858.75,-180 804.75,-180 804.75,-144 858.75,-144 858.75,-180"/>
<text text-anchor="middle" x="831.75" y="-158.45" font-family="monospace" font-size="14.00">App</text>
</g>
<!-- 23&#45;&gt;26 -->
<g id="edge23" class="edge">
<title>23&#45;&gt;26</title>
<path fill="none" stroke="black" d="M776.04,-215.7C784.85,-207.37 795.57,-197.22 805.25,-188.07"/>
<polygon fill="black" stroke="black" points="807.45,-190.8 812.31,-181.39 802.64,-185.72 807.45,-190.8"/>
</g>
<!-- 27 -->
<g id="node28" class="node">
<title>27</title>
<polygon fill="none" stroke="black" points="784.88,-108 628.62,-108 628.62,-72 784.88,-72 784.88,-108"/>
<text text-anchor="middle" x="706.75" y="-86.45" font-family="monospace" font-size="14.00">Var insertionSort</text>
</g>
<!-- 26&#45;&gt;27 -->
<g id="edge21" class="edge">
<title>26&#45;&gt;27</title>
<path fill="none" stroke="black" d="M804.32,-145.64C787.7,-136.33 766.2,-124.29 747.61,-113.88"/>
<polygon fill="black" stroke="black" points="749.39,-110.87 738.95,-109.03 745.97,-116.97 749.39,-110.87"/>
</g>
<!-- 28 -->
<g id="node29" class="node">
<title>28</title>
<polygon fill="none" stroke="black" points="860.38,-108 803.12,-108 803.12,-72 860.38,-72 860.38,-108"/>
<text text-anchor="middle" x="831.75" y="-86.45" font-family="monospace" font-size="14.00">Var t</text>
</g>
<!-- 26&#45;&gt;28 -->
<g id="edge22" class="edge">
<title>26&#45;&gt;28</title>
<path fill="none" stroke="black" d="M831.75,-143.7C831.75,-136.41 831.75,-127.73 831.75,-119.54"/>
<polygon fill="black" stroke="black" points="835.25,-119.62 831.75,-109.62 828.25,-119.62 835.25,-119.62"/>
</g>
<!-- 30 -->
<g id="node31" class="node">
<title>30</title>
<polygon fill="none" stroke="black" points="760.12,-396 653.38,-396 653.38,-360 760.12,-360 760.12,-396"/>
<text text-anchor="middle" x="706.75" y="-374.45" font-family="monospace" font-size="14.00">Params xs x</text>
</g>
<!-- 29&#45;&gt;30 -->
<g id="edge29" class="edge">
<title>29&#45;&gt;30</title>
<path fill="none" stroke="black" d="M706.75,-431.7C706.75,-424.41 706.75,-415.73 706.75,-407.54"/>
<polygon fill="black" stroke="black" points="710.25,-407.62 706.75,-397.62 703.25,-407.62 710.25,-407.62"/>
</g>
<!-- 31 -->
<g id="node32" class="node">
<title>31</title>
<polygon fill="none" stroke="black" points="842.75,-396 788.75,-396 788.75,-360 842.75,-360 842.75,-396"/>
<text text-anchor="middle" x="815.75" y="-374.45" font-family="monospace" font-size="14.00">Case</text>
</g>
<!-- 29&#45;&gt;31 -->
<g id="edge53" class="edge">
<title>29&#45;&gt;31</title>
<path fill="none" stroke="black" d="M733.97,-431.52C747.73,-422.68 764.62,-411.84 779.46,-402.3"/>
<polygon fill="black" stroke="black" points="781.08,-405.43 787.6,-397.08 777.29,-399.54 781.08,-405.43"/>
</g>
<!-- 32 -->
<g id="node33" class="node">
<title>32</title>
<polygon fill="none" stroke="black" points="817.5,-324 752,-324 752,-288 817.5,-288 817.5,-324"/>
<text text-anchor="middle" x="784.75" y="-302.45" font-family="monospace" font-size="14.00">Var xs</text>
</g>
<!-- 31&#45;&gt;32 -->
<g id="edge30" class="edge">
<title>31&#45;&gt;32</title>
<path fill="none" stroke="black" d="M808.09,-359.7C804.71,-352.07 800.66,-342.92 796.88,-334.4"/>
<polygon fill="black" stroke="black" points="800.19,-333.21 792.94,-325.49 793.79,-336.05 800.19,-333.21"/>
</g>
<!-- 33 -->
<g id="node34" class="node">
<title>33</title>
<polygon fill="none" stroke="black" points="889.75,-324 835.75,-324 835.75,-288 889.75,-288 889.75,-324"/>
<text text-anchor="middle" x="862.75" y="-302.45" font-family="monospace" font-size="14.00">Alt</text>
</g>
<!-- 31&#45;&gt;33 -->
<g id="edge34" class="edge">
<title>31&#45;&gt;33</title>
<path fill="none" stroke="black" d="M827.37,-359.7C832.66,-351.81 839.05,-342.3 844.93,-333.55"/>
<polygon fill="black" stroke="black" points="847.75,-335.61 850.42,-325.36 841.94,-331.71 847.75,-335.61"/>
</g>
<!-- 37 -->
<g id="node38" class="node">
<title>37</title>
<polygon fill="none" stroke="black" points="1024.75,-324 970.75,-324 970.75,-288 1024.75,-288 1024.75,-324"/>
<text text-anchor="middle" x="997.75" y="-302.45" font-family="monospace" font-size="14.00">Alt</text>
</g>
<!-- 31&#45;&gt;37 -->
<g id="edge52" class="edge">
<title>31&#45;&gt;37</title>
<path fill="none" stroke="black" d="M843,-366.52C873.96,-354.61 924.7,-335.1 959.59,-321.68"/>
<polygon fill="black" stroke="black" points="960.83,-324.95 968.9,-318.09 958.31,-318.42 960.83,-324.95"/>
</g>
<!-- 34 -->
<g id="node35" class="node">
<title>34</title>
<polygon fill="none" stroke="black" points="860.38,-252 803.12,-252 803.12,-216 860.38,-216 860.38,-252"/>
<text text-anchor="middle" x="831.75" y="-230.45" font-family="monospace" font-size="14.00">PList</text>
</g>
<!-- 33&#45;&gt;34 -->
<g id="edge32" class="edge">
<title>33&#45;&gt;34</title>
<path fill="none" stroke="black" d="M855.09,-287.7C851.71,-280.07 847.66,-270.92 843.88,-262.4"/>
<polygon fill="black" stroke="black" points="847.19,-261.21 839.94,-253.49 840.79,-264.05 847.19,-261.21"/>
</g>
<!-- 35 -->
<g id="node36" class="node">
<title>35</title>
<polygon fill="none" stroke="black" points="932.75,-252 878.75,-252 878.75,-216 932.75,-216 932.75,-252"/>
<text text-anchor="middle" x="905.75" y="-230.45" font-family="monospace" font-size="14.00">List</text>
</g>
<!-- 33&#45;&gt;35 -->
<g id="edge33" class="edge">
<title>33&#45;&gt;35</title>
<path fill="none" stroke="black" d="M873.38,-287.7C878.17,-279.9 883.94,-270.51 889.27,-261.83"/>
<polygon fill="black" stroke="black" points="892.2,-263.75 894.45,-253.39 886.23,-260.08 892.2,-263.75"/>
</g>
<!-- 36 -->
<g id="node37" class="node">
<title>36</title>
<polygon fill="none" stroke="black" points="934.38,-180 877.12,-180 877.12,-144 934.38,-144 934.38,-180"/>
<text text-anchor="middle" x="905.75" y="-158.45" font-family="monospace" font-size="14.00">Var x</text>
</g>
<!-- 35&#45;&gt;36 -->
<g id="edge31" class="edge">
<title>35&#45;&gt;36</title>
<path fill="none" stroke="black" d="M905.75,-215.7C905.75,-208.41 905.75,-199.73 905.75,-191.54"/>
<polygon fill="black" stroke="black" points="909.25,-191.62 905.75,-181.62 902.25,-191.62 909.25,-191.62"/>
</g>
<!-- 38 -->
<g id="node39" class="node">
<title>38</title>
<polygon fill="none" stroke="black" points="1038.75,-252 956.75,-252 956.75,-216 1038.75,-216 1038.75,-252"/>
<text text-anchor="middle" x="997.75" y="-230.45" font-family="monospace" font-size="14.00">PTuple/1</text>
</g>
<!-- 37&#45;&gt;38 -->
<g id="edge50" class="edge">
<title>37&#45;&gt;38</title>
<path fill="none" stroke="black" d="M997.75,-287.7C997.75,-280.41 997.75,-271.73 997.75,-263.54"/>
<polygon fill="black" stroke="black" points="1001.25,-263.62 997.75,-253.62 994.25,-263.62 1001.25,-263.62"/>
</g>
<!-- 42 -->
<g id="node43" class="node">
<title>42</title>
<polygon fill="none" stroke="black" points="1221.75,-252 1167.75,-252 1167.75,-216 1221.75,-216 1221.75,-252"/>
<text text-anchor="middle" x="1194.75" y="-230.45" font-family="monospace" font-size="14.00">If</text>
</g>
<!-- 37&#45;&gt;42 -->
<g id="edge51" class="edge">
<title>37&#45;&gt;42</title>
<path fill="none" stroke="black" d="M1025.14,-295.27C1059.3,-283.13 1117.89,-262.31 1156.48,-248.6"/>
<polygon fill="black" stroke="black" points="1157.6,-251.92 1165.85,-245.27 1155.25,-245.32 1157.6,-251.92"/>
</g>
<!-- 39 -->
<g id="node40" class="node">
<title>39</title>
<polygon fill="none" stroke="black" points="1042.88,-180 952.62,-180 952.62,-144 1042.88,-144 1042.88,-180"/>
<text text-anchor="middle" x="997.75" y="-158.45" font-family="monospace" font-size="14.00">PCons (:)</text>
</g>
<!-- 38&#45;&gt;39 -->
<g id="edge37" class="edge">
<title>38&#45;&gt;39</title>
<path fill="none" stroke="black" d="M997.75,-215.7C997.75,-208.41 997.75,-199.73 997.75,-191.54"/>
<polygon fill="black" stroke="black" points="1001.25,-191.62 997.75,-181.62 994.25,-191.62 1001.25,-191.62"/>
</g>
<!-- 40 -->
<g id="node41" class="node">
<title>40</title>
<polygon fill="none" stroke="black" points="943.5,-108 878,-108 878,-72 943.5,-72 943.5,-108"/>
<text text-anchor="middle" x="910.75" y="-86.45" font-family="monospace" font-size="14.00">PVar y</text>
</g>
<!-- 39&#45;&gt;40 -->
<g id="edge35" class="edge">
<title>39&#45;&gt;40</title>
<path fill="none" stroke="black" d="M976.24,-143.7C965.68,-135.2 952.77,-124.81 941.22,-115.51"/>
<polygon fill="black" stroke="black" points="943.47,-112.84 933.49,-109.3 939.09,-118.29 943.47,-112.84"/>
</g>
<!-- 41 -->
<g id="node42" class="node">
<title>41</title>
<polygon fill="none" stroke="black" points="1035.62,-108 961.88,-108 961.88,-72 1035.62,-72 1035.62,-108"/>
<text text-anchor="middle" x="998.75" y="-86.45" font-family="monospace" font-size="14.00">PVar ys</text>
</g>
<!-- 39&#45;&gt;41 -->
<g id="edge36" class="edge">
<title>39&#45;&gt;41</title>
<path fill="none" stroke="black" d="M998,-143.7C998.1,-136.41 998.23,-127.73 998.34,-119.54"/>
<polygon fill="black" stroke="black" points="1001.84,-119.67 998.48,-109.62 994.84,-119.57 1001.84,-119.67"/>
</g>
<!-- 43 -->
<g id="node44" class="node">
<title>43</title>
<polygon fill="none" stroke="black" points="1185.75,-180 1103.75,-180 1103.75,-144 1185.75,-144 1185.75,-180"/>
<text text-anchor="middle" x="1144.75" y="-158.45" font-family="monospace" font-size="14.00">BinOp &lt;=</text>
</g>
<!-- 42&#45;&gt;43 -->
<g id="edge40" class="edge">
<title>42&#45;&gt;43</title>
<path fill="none" stroke="black" d="M1182.39,-215.7C1176.7,-207.73 1169.82,-198.1 1163.51,-189.26"/>
<polygon fill="black" stroke="black" points="1166.51,-187.44 1157.85,-181.34 1160.81,-191.51 1166.51,-187.44"/>
</g>
<!-- 46 -->
<g id="node47" class="node">
<title>46</title>
<polygon fill="none" stroke="black" points="1285.75,-180 1203.75,-180 1203.75,-144 1285.75,-144 1285.75,-180"/>
<text text-anchor="middle" x="1244.75" y="-158.45" font-family="monospace" font-size="14.00">Cons (:)</text>
</g>
<!-- 42&#45;&gt;46 -->
<g id="edge43" class="edge">
<title>42&#45;&gt;46</title>
<path fill="none" stroke="black" d="M1207.11,-215.7C1212.8,-207.73 1219.68,-198.1 1225.99,-189.26"/>
<polygon fill="black" stroke="black" points="1228.69,-191.51 1231.65,-181.34 1222.99,-187.44 1228.69,-191.51"/>
</g>
<!-- 49 -->
<g id="node50" class="node">
<title>49</title>
<polygon fill="none" stroke="black" points="1431.75,-180 1349.75,-180 1349.75,-144 1431.75,-144 1431.75,-180"/>
<text text-anchor="middle" x="1390.75" y="-158.45" font-family="monospace" font-size="14.00">Cons (:)</text>
</g>
<!-- 42&#45;&gt;49 -->
<g id="edge49" class="edge">
<title>42&#45;&gt;49</title>
<path fill="none" stroke="black" d="M1222,-223.27C1252.06,-212.53 1301.14,-195 1338.64,-181.61"/>
<polygon fill="black" stroke="black" points="1339.71,-184.94 1347.95,-178.28 1337.36,-178.35 1339.71,-184.94"/>
</g>
<!-- 44 -->
<g id="node45" class="node">
<title>44</title>
<polygon fill="none" stroke="black" points="1111.38,-108 1054.12,-108 1054.12,-72 1111.38,-72 1111.38,-108"/>
<text text-anchor="middle" x="1082.75" y="-86.45" font-family="monospace" font-size="14.00">Var x</text>
</g>
<!-- 43&#45;&gt;44 -->
<g id="edge38" class="edge">
<title>43&#45;&gt;44</title>
<path fill="none" stroke="black" d="M1129.42,-143.7C1122.22,-135.56 1113.47,-125.69 1105.51,-116.7"/>
<polygon fill="black" stroke="black" points="1108.15,-114.4 1098.9,-109.24 1102.91,-119.04 1108.15,-114.4"/>
</g>
<!-- 45 -->
<g id="node46" class="node">
<title>45</title>
<polygon fill="none" stroke="black" points="1186.38,-108 1129.12,-108 1129.12,-72 1186.38,-72 1186.38,-108"/>
<text text-anchor="middle" x="1157.75" y="-86.45" font-family="monospace" font-size="14.00">Var y</text>
</g>
<!-- 43&#45;&gt;45 -->
<g id="edge39" class="edge">
<title>43&#45;&gt;45</title>
<path fill="none" stroke="black" d="M1147.96,-143.7C1149.33,-136.32 1150.97,-127.52 1152.5,-119.25"/>
<polygon fill="black" stroke="black" points="1155.91,-120.06 1154.3,-109.59 1149.03,-118.79 1155.91,-120.06"/>
</g>
<!-- 47 -->
<g id="node48" class="node">
<title>47</title>
<polygon fill="none" stroke="black" points="1261.38,-108 1204.12,-108 1204.12,-72 1261.38,-72 1261.38,-108"/>
<text text-anchor="middle" x="1232.75" y="-86.45" font-family="monospace" font-size="14.00">Var x</text>
</g>
<!-- 46&#45;&gt;47 -->
<g id="edge41" class="edge">
<title>46&#45;&gt;47</title>
<path fill="none" stroke="black" d="M1241.78,-143.7C1240.52,-136.32 1239.01,-127.52 1237.59,-119.25"/>
<polygon fill="black" stroke="black" points="1241.08,-118.86 1235.94,-109.6 1234.18,-120.04 1241.08,-118.86"/>
</g>
<!-- 48 -->
<g id="node49" class="node">
<title>48</title>
<polygon fill="none" stroke="black" points="1344.5,-108 1279,-108 1279,-72 1344.5,-72 1344.5,-108"/>
<text text-anchor="middle" x="1311.75" y="-86.45" font-family="monospace" font-size="14.00">Var xs</text>
</g>
<!-- 46&#45;&gt;48 -->
<g id="edge42" class="edge">
<title>46&#45;&gt;48</title>
<path fill="none" stroke="black" d="M1261.31,-143.7C1269.18,-135.47 1278.74,-125.48 1287.42,-116.42"/>
<polygon fill="black" stroke="black" points="1289.95,-118.84 1294.33,-109.2 1284.89,-114 1289.95,-118.84"/>
</g>
<!-- 50 -->
<g id="node51" class="node">
<title>50</title>
<polygon fill="none" stroke="black" points="1419.38,-108 1362.12,-108 1362.12,-72 1419.38,-72 1419.38,-108"/>
<text text-anchor="middle" x="1390.75" y="-86.45" font-family="monospace" font-size="14.00">Var y</text>
</g>
<!-- 49&#45;&gt;50 -->
<g id="edge44" class="edge">
<title>49&#45;&gt;50</title>
<path fill="none" stroke="black" d="M1390.75,-143.7C1390.75,-136.41 1390.75,-127.73 1390.75,-119.54"/>
<polygon fill="black" stroke="black" points="1394.25,-119.62 1390.75,-109.62 1387.25,-119.62 1394.25,-119.62"/>
</g>
<!-- 51 -->
<g id="node52" class="node">
<title>51</title>
<polygon fill="none" stroke="black" points="1491.75,-108 1437.75,-108 1437.75,-72 1491.75,-72 1491.75,-108"/>
<text text-anchor="middle" x="1464.75" y="-86.45" font-family="monospace" font-size="14.00">App</text>
</g>
<!-- 49&#45;&gt;51 -->
<g id="edge48" class="edge">
<title>49&#45;&gt;51</title>
<path fill="none" stroke="black" d="M1409.04,-143.7C1417.85,-135.37 1428.57,-125.22 1438.25,-116.07"/>
<polygon fill="black" stroke="black" points="1440.45,-118.8 1445.31,-109.39 1435.64,-113.72 1440.45,-118.8"/>
</g>
<!-- 52 -->
<g id="node53" class="node">
<title>52</title>
<polygon fill="none" stroke="black" points="1418,-36 1319.5,-36 1319.5,0 1418,0 1418,-36"/>
<text text-anchor="middle" x="1368.75" y="-14.45" font-family="monospace" font-size="14.00">Var insert</text>
</g>
<!-- 51&#45;&gt;52 -->
<g id="edge45" class="edge">
<title>51&#45;&gt;52</title>
<path fill="none" stroke="black" d="M1441.02,-71.7C1429.13,-63.03 1414.56,-52.4 1401.61,-42.96"/>
<polygon fill="black" stroke="black" points="1403.91,-40.3 1393.76,-37.24 1399.78,-45.96 1403.91,-40.3"/>
</g>
<!-- 53 -->
<g id="node54" class="node">
<title>53</title>
<polygon fill="none" stroke="black" points="1493.38,-36 1436.12,-36 1436.12,0 1493.38,0 1493.38,-36"/>
<text text-anchor="middle" x="1464.75" y="-14.45" font-family="monospace" font-size="14.00">Var x</text>
</g>
<!-- 51&#45;&gt;53 -->
<g id="edge46" class="edge">
<title>51&#45;&gt;53</title>
<path fill="none" stroke="black" d="M1464.75,-71.7C1464.75,-64.41 1464.75,-55.73 1464.75,-47.54"/>
<polygon fill="black" stroke="black" points="1468.25,-47.62 1464.75,-37.62 1461.25,-47.62 1468.25,-47.62"/>
</g>
<!-- 54 -->
<g id="node55" class="node">
<title>54</title>
<polygon fill="none" stroke="black" points="1576.5,-36 1511,-36 1511,0 1576.5,0 1576.5,-36"/>
<text text-anchor="middle" x="1543.75" y="-14.45" font-family="monospace" font-size="14.00">Var ys</text>
</g>
<!-- 51&#45;&gt;54 -->
<g id="edge47" class="edge">
<title>51&#45;&gt;54</title>
<path fill="none" stroke="black" d="M1484.28,-71.7C1493.77,-63.28 1505.36,-53.02 1515.77,-43.79"/>
<polygon fill="black" stroke="black" points="1517.88,-46.6 1523.04,-37.35 1513.23,-41.36 1517.88,-46.6"/>
</g>
</g>
</svg>
