<?xml version="1.0" encoding="UTF-8" standalone="no"?>
<!DOCTYPE svg PUBLIC "-//W3C//DTD SVG 1.1//EN"
 "http://www.w3.org/Graphics/SVG/1.1/DTD/svg11.dtd">
<!-- Generated by graphviz version 12.2.1 (20241206.2353)
 -->
<!-- Title: AST Pages: 1 -->
<svg width="614pt" height="476pt"
 viewBox="0.00 0.00 613.50 476.00" xmlns="http://www.w3.org/2000/svg" xmlns:xlink="http://www.w3.org/1999/xlink">
<g id="graph0" class="graph" transform="scale(1 1) rotate(0) translate(4 472)">
<title>AST</title>
<polygon fill="white" stroke="none" points="-4,4 -4,-472 609.5,-472 609.5,4 -4,4"/>
<!-- 0 -->
<g id="node1" class="node">
<title>0</title>
<polygon fill="none" stroke="black" points="214.75,-468 141,-468 141,-432 214.75,-432 214.75,-468"/>
<text text-anchor="middle" x="177.88" y="-446.45" font-family="monospace" font-size="14.00">Program</text>
</g>
<!-- 1 -->
<g id="node2" class="node">
<title>1</title>
<polygon fill="none" stroke="black" points="171.38,-396 56.38,-396 56.38,-360 171.38,-360 171.38,-396"/>
<text text-anchor="middle" x="113.88" y="-374.45" font-family="monospace" font-size="14.00">FunDecl main</text>
</g>
<!-- 0&#45;&gt;1 -->
<g id="edge4" class="edge">
<title>0&#45;&gt;1</title>
<path fill="none" stroke="black" d="M162.05,-431.7C154.54,-423.47 145.4,-413.48 137.12,-404.42"/>
<polygon fill="black" stroke="black" points="139.87,-402.24 130.53,-397.22 134.7,-406.96 139.87,-402.24"/>
</g>
<!-- 5 -->
<g id="node6" class="node">
<title>5</title>
<polygon fill="none" stroke="black" points="296.25,-396 189.5,-396 189.5,-360 296.25,-360 296.25,-396"/>
<text text-anchor="middle" x="242.88" y="-374.45" font-family="monospace" font-size="14.00">FunDecl fib</text>
</g>
<!-- 0&#45;&gt;5 -->
<g id="edge22" class="edge">
<title>0&#45;&gt;5</title>
<path fill="none" stroke="black" d="M193.94,-431.7C201.58,-423.47 210.85,-413.48 219.27,-404.42"/>
<polygon fill="black" stroke="black" points="221.72,-406.92 225.96,-397.21 216.59,-402.16 221.72,-406.92"/>
</g>
<!-- 2 -->
<g id="node3" class="node">
<title>2</title>
<polygon fill="none" stroke="black" points="140.88,-324 86.88,-324 86.88,-288 140.88,-288 140.88,-324"/>
<text text-anchor="middle" x="113.88" y="-302.45" font-family="monospace" font-size="14.00">App</text>
</g>
<!-- 1&#45;&gt;2 -->
<g id="edge3" class="edge">
<title>1&#45;&gt;2</title>
<path fill="none" stroke="black" d="M113.88,-359.7C113.88,-352.41 113.88,-343.73 113.88,-335.54"/>
<polygon fill="black" stroke="black" points="117.38,-335.62 113.88,-325.62 110.38,-335.62 117.38,-335.62"/>
</g>
<!-- 3 -->
<g id="node4" class="node">
<title>3</title>
<polygon fill="none" stroke="black" points="73.75,-252 0,-252 0,-216 73.75,-216 73.75,-252"/>
<text text-anchor="middle" x="36.88" y="-230.45" font-family="monospace" font-size="14.00">Var fib</text>
</g>
<!-- 2&#45;&gt;3 -->
<g id="edge1" class="edge">
<title>2&#45;&gt;3</title>
<path fill="none" stroke="black" d="M94.84,-287.7C85.68,-279.37 74.52,-269.22 64.45,-260.07"/>
<polygon fill="black" stroke="black" points="66.83,-257.5 57.08,-253.37 62.12,-262.68 66.83,-257.5"/>
</g>
<!-- 4 -->
<g id="node5" class="node">
<title>4</title>
<polygon fill="none" stroke="black" points="157.62,-252 92.12,-252 92.12,-216 157.62,-216 157.62,-252"/>
<text text-anchor="middle" x="124.88" y="-230.45" font-family="monospace" font-size="14.00">Lit 10</text>
</g>
<!-- 2&#45;&gt;4 -->
<g id="edge2" class="edge">
<title>2&#45;&gt;4</title>
<path fill="none" stroke="black" d="M116.59,-287.7C117.75,-280.32 119.14,-271.52 120.44,-263.25"/>
<polygon fill="black" stroke="black" points="123.86,-264.02 121.95,-253.6 116.94,-262.93 123.86,-264.02"/>
</g>
<!-- 6 -->
<g id="node7" class="node">
<title>6</title>
<polygon fill="none" stroke="black" points="272.88,-324 190.88,-324 190.88,-288 272.88,-288 272.88,-324"/>
<text text-anchor="middle" x="231.88" y="-302.45" font-family="monospace" font-size="14.00">Params n</text>
</g>
<!-- 5&#45;&gt;6 -->
<g id="edge5" class="edge">
<title>5&#45;&gt;6</title>
<path fill="none" stroke="black" d="M240.16,-359.7C239,-352.32 237.61,-343.52 236.31,-335.25"/>
<polygon fill="black" stroke="black" points="239.81,-334.93 234.8,-325.6 232.89,-336.02 239.81,-334.93"/>
</g>
<!-- 7 -->
<g id="node8" class="node">
<title>7</title>
<polygon fill="none" stroke="black" points="344.88,-324 290.88,-324 290.88,-288 344.88,-288 344.88,-324"/>
<text text-anchor="middle" x="317.88" y="-302.45" font-family="monospace" font-size="14.00">If</text>
</g>
<!-- 5&#45;&gt;7 -->
<g id="edge21" class="edge">
<title>5&#45;&gt;7</title>
<path fill="none" stroke="black" d="M261.41,-359.7C270.34,-351.37 281.21,-341.22 291.02,-332.07"/>
<polygon fill="black" stroke="black" points="293.26,-334.76 298.18,-325.38 288.48,-329.64 293.26,-334.76"/>
</g>
<!-- 8 -->
<g id="node9" class="node">
<title>8</title>
<polygon fill="none" stroke="black" points="270.75,-252 197,-252 197,-216 270.75,-216 270.75,-252"/>
<text text-anchor="middle" x="233.88" y="-230.45" font-family="monospace" font-size="14.00">BinOp &lt;</text>
</g>
<!-- 7&#45;&gt;8 -->
<g id="edge8" class="edge">
<title>7&#45;&gt;8</title>
<path fill="none" stroke="black" d="M297.11,-287.7C286.91,-279.2 274.45,-268.81 263.29,-259.51"/>
<polygon fill="black" stroke="black" points="265.78,-257.03 255.85,-253.32 261.3,-262.41 265.78,-257.03"/>
</g>
<!-- 11 -->
<g id="node12" class="node">
<title>11</title>
<polygon fill="none" stroke="black" points="346.5,-252 289.25,-252 289.25,-216 346.5,-216 346.5,-252"/>
<text text-anchor="middle" x="317.88" y="-230.45" font-family="monospace" font-size="14.00">Var n</text>
</g>
<!-- 7&#45;&gt;11 -->
<g id="edge9" class="edge">
<title>7&#45;&gt;11</title>
<path fill="none" stroke="black" d="M317.88,-287.7C317.88,-280.41 317.88,-271.73 317.88,-263.54"/>
<polygon fill="black" stroke="black" points="321.38,-263.62 317.88,-253.62 314.38,-263.62 321.38,-263.62"/>
</g>
<!-- 12 -->
<g id="node13" class="node">
<title>12</title>
<polygon fill="none" stroke="black" points="438.75,-252 365,-252 365,-216 438.75,-216 438.75,-252"/>
<text text-anchor="middle" x="401.88" y="-230.45" font-family="monospace" font-size="14.00">BinOp +</text>
</g>
<!-- 7&#45;&gt;12 -->
<g id="edge20" class="edge">
<title>7&#45;&gt;12</title>
<path fill="none" stroke="black" d="M338.64,-287.7C348.84,-279.2 361.3,-268.81 372.46,-259.51"/>
<polygon fill="black" stroke="black" points="374.45,-262.41 379.9,-253.32 369.97,-257.03 374.45,-262.41"/>
</g>
<!-- 9 -->
<g id="node10" class="node">
<title>9</title>
<polygon fill="none" stroke="black" points="211.5,-180 154.25,-180 154.25,-144 211.5,-144 211.5,-180"/>
<text text-anchor="middle" x="182.88" y="-158.45" font-family="monospace" font-size="14.00">Var n</text>
</g>
<!-- 8&#45;&gt;9 -->
<g id="edge6" class="edge">
<title>8&#45;&gt;9</title>
<path fill="none" stroke="black" d="M221.27,-215.7C215.46,-207.73 208.45,-198.1 202.01,-189.26"/>
<polygon fill="black" stroke="black" points="204.95,-187.35 196.23,-181.33 199.29,-191.47 204.95,-187.35"/>
</g>
<!-- 10 -->
<g id="node11" class="node">
<title>10</title>
<polygon fill="none" stroke="black" points="286.5,-180 229.25,-180 229.25,-144 286.5,-144 286.5,-180"/>
<text text-anchor="middle" x="257.88" y="-158.45" font-family="monospace" font-size="14.00">Lit 1</text>
</g>
<!-- 8&#45;&gt;10 -->
<g id="edge7" class="edge">
<title>8&#45;&gt;10</title>
<path fill="none" stroke="black" d="M239.81,-215.7C242.37,-208.24 245.42,-199.32 248.29,-190.97"/>
<polygon fill="black" stroke="black" points="251.59,-192.13 251.52,-181.54 244.97,-189.86 251.59,-192.13"/>
</g>
<!-- 13 -->
<g id="node14" class="node">
<title>13</title>
<polygon fill="none" stroke="black" points="382.88,-180 328.88,-180 328.88,-144 382.88,-144 382.88,-180"/>
<text text-anchor="middle" x="355.88" y="-158.45" font-family="monospace" font-size="14.00">App</text>
</g>
<!-- 12&#45;&gt;13 -->
<g id="edge14" class="edge">
<title>12&#45;&gt;13</title>
<path fill="none" stroke="black" d="M390.5,-215.7C385.32,-207.81 379.07,-198.3 373.32,-189.55"/>
<polygon fill="black" stroke="black" points="376.36,-187.8 367.95,-181.37 370.51,-191.65 376.36,-187.8"/>
</g>
<!-- 18 -->
<g id="node19" class="node">
<title>18</title>
<polygon fill="none" stroke="black" points="474.88,-180 420.88,-180 420.88,-144 474.88,-144 474.88,-180"/>
<text text-anchor="middle" x="447.88" y="-158.45" font-family="monospace" font-size="14.00">App</text>
</g>
<!-- 12&#45;&gt;18 -->
<g id="edge19" class="edge">
<title>12&#45;&gt;18</title>
<path fill="none" stroke="black" d="M413.25,-215.7C418.43,-207.81 424.68,-198.3 430.43,-189.55"/>
<polygon fill="black" stroke="black" points="433.24,-191.65 435.8,-181.37 427.39,-187.8 433.24,-191.65"/>
</g>
<!-- 14 -->
<g id="node15" class="node">
<title>14</title>
<polygon fill="none" stroke="black" points="300.75,-108 227,-108 227,-72 300.75,-72 300.75,-108"/>
<text text-anchor="middle" x="263.88" y="-86.45" font-family="monospace" font-size="14.00">Var fib</text>
</g>
<!-- 13&#45;&gt;14 -->
<g id="edge10" class="edge">
<title>13&#45;&gt;14</title>
<path fill="none" stroke="black" d="M333.13,-143.7C321.85,-135.11 308.04,-124.61 295.73,-115.24"/>
<polygon fill="black" stroke="black" points="297.96,-112.53 287.88,-109.26 293.72,-118.1 297.96,-112.53"/>
</g>
<!-- 15 -->
<g id="node16" class="node">
<title>15</title>
<polygon fill="none" stroke="black" points="392.75,-108 319,-108 319,-72 392.75,-72 392.75,-108"/>
<text text-anchor="middle" x="355.88" y="-86.45" font-family="monospace" font-size="14.00">BinOp &#45;</text>
</g>
<!-- 13&#45;&gt;15 -->
<g id="edge13" class="edge">
<title>13&#45;&gt;15</title>
<path fill="none" stroke="black" d="M355.88,-143.7C355.88,-136.41 355.88,-127.73 355.88,-119.54"/>
<polygon fill="black" stroke="black" points="359.38,-119.62 355.88,-109.62 352.38,-119.62 359.38,-119.62"/>
</g>
<!-- 16 -->
<g id="node17" class="node">
<title>16</title>
<polygon fill="none" stroke="black" points="344.5,-36 287.25,-36 287.25,0 344.5,0 344.5,-36"/>
<text text-anchor="middle" x="315.88" y="-14.45" font-family="monospace" font-size="14.00">Var n</text>
</g>
<!-- 15&#45;&gt;16 -->
<g id="edge11" class="edge">
<title>15&#45;&gt;16</title>
<path fill="none" stroke="black" d="M345.99,-71.7C341.53,-63.9 336.17,-54.51 331.21,-45.83"/>
<polygon fill="black" stroke="black" points="334.4,-44.36 326.4,-37.42 328.32,-47.84 334.4,-44.36"/>
</g>
<!-- 17 -->
<g id="node18" class="node">
<title>17</title>
<polygon fill="none" stroke="black" points="419.5,-36 362.25,-36 362.25,0 419.5,0 419.5,-36"/>
<text text-anchor="middle" x="390.88" y="-14.45" font-family="monospace" font-size="14.00">Lit 1</text>
</g>
<!-- 15&#45;&gt;17 -->
<g id="edge12" class="edge">
<title>15&#45;&gt;17</title>
<path fill="none" stroke="black" d="M364.53,-71.7C368.34,-64.07 372.92,-54.92 377.18,-46.4"/>
<polygon fill="black" stroke="black" points="380.3,-47.97 381.65,-37.46 374.04,-44.84 380.3,-47.97"/>
</g>
<!-- 19 -->
<g id="node20" class="node">
<title>19</title>
<polygon fill="none" stroke="black" points="484.75,-108 411,-108 411,-72 484.75,-72 484.75,-108"/>
<text text-anchor="middle" x="447.88" y="-86.45" font-family="monospace" font-size="14.00">Var fib</text>
</g>
<!-- 18&#45;&gt;19 -->
<g id="edge15" class="edge">
<title>18&#45;&gt;19</title>
<path fill="none" stroke="black" d="M447.88,-143.7C447.88,-136.41 447.88,-127.73 447.88,-119.54"/>
<polygon fill="black" stroke="black" points="451.38,-119.62 447.88,-109.62 444.38,-119.62 451.38,-119.62"/>
</g>
<!-- 20 -->
<g id="node21" class="node">
<title>20</title>
<polygon fill="none" stroke="black" points="576.75,-108 503,-108 503,-72 576.75,-72 576.75,-108"/>
<text text-anchor="middle" x="539.88" y="-86.45" font-family="monospace" font-size="14.00">BinOp &#45;</text>
</g>
<!-- 18&#45;&gt;20 -->
<g id="edge18" class="edge">
<title>18&#45;&gt;20</title>
<path fill="none" stroke="black" d="M470.62,-143.7C481.9,-135.11 495.71,-124.61 508.02,-115.24"/>
<polygon fill="black" stroke="black" points="510.03,-118.1 515.87,-109.26 505.79,-112.53 510.03,-118.1"/>
</g>
<!-- 21 -->
<g id="node22" class="node">
<title>21</title>
<polygon fill="none" stroke="black" points="530.5,-36 473.25,-36 473.25,0 530.5,0 530.5,-36"/>
<text text-anchor="middle" x="501.88" y="-14.45" font-family="monospace" font-size="14.00">Var n</text>
</g>
<!-- 20&#45;&gt;21 -->
<g id="edge16" class="edge">
<title>20&#45;&gt;21</title>
<path fill="none" stroke="black" d="M530.48,-71.7C526.29,-63.98 521.26,-54.71 516.59,-46.11"/>
<polygon fill="black" stroke="black" points="519.73,-44.55 511.88,-37.43 513.58,-47.89 519.73,-44.55"/>
</g>
<!-- 22 -->
<g id="node23" class="node">
<title>22</title>
<polygon fill="none" stroke="black" points="605.5,-36 548.25,-36 548.25,0 605.5,0 605.5,-36"/>
<text text-anchor="middle" x="576.88" y="-14.45" font-family="monospace" font-size="14.00">Lit 2</text>
</g>
<!-- 20&#45;&gt;22 -->
<g id="edge17" class="edge">
<title>20&#45;&gt;22</title>
<path fill="none" stroke="black" d="M549.02,-71.7C553.1,-63.98 558,-54.71 562.54,-46.11"/>
<polygon fill="black" stroke="black" points="565.55,-47.92 567.13,-37.44 559.36,-44.65 565.55,-47.92"/>
</g>
</g>
</svg>
