<?xml version="1.0" encoding="UTF-8" standalone="no"?>
<!DOCTYPE svg PUBLIC "-//W3C//DTD SVG 1.1//EN"
 "http://www.w3.org/Graphics/SVG/1.1/DTD/svg11.dtd">
<!-- Generated by graphviz version 12.2.1 (20241206.2353)
 -->
<!-- Title: AST Pages: 1 -->
<svg width="186pt" height="332pt"
 viewBox="0.00 0.00 186.25 332.00" xmlns="http://www.w3.org/2000/svg" xmlns:xlink="http://www.w3.org/1999/xlink">
<g id="graph0" class="graph" transform="scale(1 1) rotate(0) translate(4 328)">
<title>AST</title>
<polygon fill="white" stroke="none" points="-4,4 -4,-328 182.25,-328 182.25,4 -4,4"/>
<!-- 0 -->
<g id="node1" class="node">
<title>0</title>
<polygon fill="none" stroke="black" points="107.5,-324 33.75,-324 33.75,-288 107.5,-288 107.5,-324"/>
<text text-anchor="middle" x="70.62" y="-302.45" font-family="monospace" font-size="14.00">Program</text>
</g>
<!-- 1 -->
<g id="node2" class="node">
<title>1</title>
<polygon fill="none" stroke="black" points="128.12,-252 13.12,-252 13.12,-216 128.12,-216 128.12,-252"/>
<text text-anchor="middle" x="70.62" y="-230.45" font-family="monospace" font-size="14.00">FunDecl main</text>
</g>
<!-- 0&#45;&gt;1 -->
<g id="edge6" class="edge">
<title>0&#45;&gt;1</title>
<path fill="none" stroke="black" d="M70.62,-287.7C70.62,-280.41 70.62,-271.73 70.62,-263.54"/>
<polygon fill="black" stroke="black" points="74.13,-263.62 70.63,-253.62 67.13,-263.62 74.13,-263.62"/>
</g>
<!-- 2 -->
<g id="node3" class="node">
<title>2</title>
<polygon fill="none" stroke="black" points="107.5,-180 33.75,-180 33.75,-144 107.5,-144 107.5,-180"/>
<text text-anchor="middle" x="70.62" y="-158.45" font-family="monospace" font-size="14.00">BinOp +</text>
</g>
<!-- 1&#45;&gt;2 -->
<g id="edge5" class="edge">
<title>1&#45;&gt;2</title>
<path fill="none" stroke="black" d="M70.62,-215.7C70.62,-208.41 70.62,-199.73 70.62,-191.54"/>
<polygon fill="black" stroke="black" points="74.13,-191.62 70.63,-181.62 67.13,-191.62 74.13,-191.62"/>
</g>
<!-- 3 -->
<g id="node4" class="node">
<title>3</title>
<polygon fill="none" stroke="black" points="57.25,-108 0,-108 0,-72 57.25,-72 57.25,-108"/>
<text text-anchor="middle" x="28.63" y="-86.45" font-family="monospace" font-size="14.00">Lit 2</text>
</g>
<!-- 2&#45;&gt;3 -->
<g id="edge1" class="edge">
<title>2&#45;&gt;3</title>
<path fill="none" stroke="black" d="M60.24,-143.7C55.56,-135.9 49.93,-126.51 44.72,-117.83"/>
<polygon fill="black" stroke="black" points="47.81,-116.18 39.67,-109.4 41.81,-119.78 47.81,-116.18"/>
</g>
<!-- 4 -->
<g id="node5" class="node">
<title>4</title>
<polygon fill="none" stroke="black" points="149.5,-108 75.75,-108 75.75,-72 149.5,-72 149.5,-108"/>
<text text-anchor="middle" x="112.62" y="-86.45" font-family="monospace" font-size="14.00">BinOp *</text>
</g>
<!-- 2&#45;&gt;4 -->
<g id="edge4" class="edge">
<title>2&#45;&gt;4</title>
<path fill="none" stroke="black" d="M81.01,-143.7C85.69,-135.9 91.32,-126.51 96.53,-117.83"/>
<polygon fill="black" stroke="black" points="99.44,-119.78 101.58,-109.4 93.44,-116.18 99.44,-119.78"/>
</g>
<!-- 5 -->
<g id="node6" class="node">
<title>5</title>
<polygon fill="none" stroke="black" points="103.25,-36 46,-36 46,0 103.25,0 103.25,-36"/>
<text text-anchor="middle" x="74.62" y="-14.45" font-family="monospace" font-size="14.00">Lit 3</text>
</g>
<!-- 4&#45;&gt;5 -->
<g id="edge2" class="edge">
<title>4&#45;&gt;5</title>
<path fill="none" stroke="black" d="M103.23,-71.7C99.04,-63.98 94.01,-54.71 89.34,-46.11"/>
<polygon fill="black" stroke="black" points="92.48,-44.55 84.63,-37.43 86.33,-47.89 92.48,-44.55"/>
</g>
<!-- 6 -->
<g id="node7" class="node">
<title>6</title>
<polygon fill="none" stroke="black" points="178.25,-36 121,-36 121,0 178.25,0 178.25,-36"/>
<text text-anchor="middle" x="149.62" y="-14.45" font-family="monospace" font-size="14.00">Lit 4</text>
</g>
<!-- 4&#45;&gt;6 -->
<g id="edge3" class="edge">
<title>4&#45;&gt;6</title>
<path fill="none" stroke="black" d="M121.77,-71.7C125.85,-63.98 130.75,-54.71 135.29,-46.11"/>
<polygon fill="black" stroke="black" points="138.3,-47.92 139.88,-37.44 132.11,-44.65 138.3,-47.92"/>
</g>
</g>
</svg>
