<?xml version="1.0" encoding="UTF-8" standalone="no"?>
<!DOCTYPE svg PUBLIC "-//W3C//DTD SVG 1.1//EN"
 "http://www.w3.org/Graphics/SVG/1.1/DTD/svg11.dtd">
<!-- Generated by graphviz version 12.2.1 (20241206.2353)
 -->
<!-- Title: AST Pages: 1 -->
<svg width="359pt" height="260pt"
 viewBox="0.00 0.00 359.25 260.00" xmlns="http://www.w3.org/2000/svg" xmlns:xlink="http://www.w3.org/1999/xlink">
<g id="graph0" class="graph" transform="scale(1 1) rotate(0) translate(4 256)">
<title>AST</title>
<polygon fill="white" stroke="none" points="-4,4 -4,-256 355.25,-256 355.25,4 -4,4"/>
<!-- 0 -->
<g id="node1" class="node">
<title>0</title>
<polygon fill="none" stroke="black" points="179.75,-252 106,-252 106,-216 179.75,-216 179.75,-252"/>
<text text-anchor="middle" x="142.88" y="-230.45" font-family="monospace" font-size="14.00">Program</text>
</g>
<!-- 1 -->
<g id="node2" class="node">
<title>1</title>
<polygon fill="none" stroke="black" points="136.38,-180 21.38,-180 21.38,-144 136.38,-144 136.38,-180"/>
<text text-anchor="middle" x="78.88" y="-158.45" font-family="monospace" font-size="14.00">FunDecl main</text>
</g>
<!-- 0&#45;&gt;1 -->
<g id="edge4" class="edge">
<title>0&#45;&gt;1</title>
<path fill="none" stroke="black" d="M127.05,-215.7C119.54,-207.47 110.4,-197.48 102.12,-188.42"/>
<polygon fill="black" stroke="black" points="104.87,-186.24 95.53,-181.22 99.7,-190.96 104.87,-186.24"/>
</g>
<!-- 5 -->
<g id="node6" class="node">
<title>5</title>
<polygon fill="none" stroke="black" points="261.25,-180 154.5,-180 154.5,-144 261.25,-144 261.25,-180"/>
<text text-anchor="middle" x="207.88" y="-158.45" font-family="monospace" font-size="14.00">FunDecl neg</text>
</g>
<!-- 0&#45;&gt;5 -->
<g id="edge8" class="edge">
<title>0&#45;&gt;5</title>
<path fill="none" stroke="black" d="M158.94,-215.7C166.58,-207.47 175.85,-197.48 184.27,-188.42"/>
<polygon fill="black" stroke="black" points="186.72,-190.92 190.96,-181.21 181.59,-186.16 186.72,-190.92"/>
</g>
<!-- 2 -->
<g id="node3" class="node">
<title>2</title>
<polygon fill="none" stroke="black" points="105.88,-108 51.88,-108 51.88,-72 105.88,-72 105.88,-108"/>
<text text-anchor="middle" x="78.88" y="-86.45" font-family="monospace" font-size="14.00">App</text>
</g>
<!-- 1&#45;&gt;2 -->
<g id="edge3" class="edge">
<title>1&#45;&gt;2</title>
<path fill="none" stroke="black" d="M78.88,-143.7C78.88,-136.41 78.88,-127.73 78.88,-119.54"/>
<polygon fill="black" stroke="black" points="82.38,-119.62 78.88,-109.62 75.38,-119.62 82.38,-119.62"/>
</g>
<!-- 3 -->
<g id="node4" class="node">
<title>3</title>
<polygon fill="none" stroke="black" points="73.75,-36 0,-36 0,0 73.75,0 73.75,-36"/>
<text text-anchor="middle" x="36.88" y="-14.45" font-family="monospace" font-size="14.00">Var neg</text>
</g>
<!-- 2&#45;&gt;3 -->
<g id="edge1" class="edge">
<title>2&#45;&gt;3</title>
<path fill="none" stroke="black" d="M68.49,-71.7C63.81,-63.9 58.18,-54.51 52.97,-45.83"/>
<polygon fill="black" stroke="black" points="56.06,-44.18 47.92,-37.4 50.06,-47.78 56.06,-44.18"/>
</g>
<!-- 4 -->
<g id="node5" class="node">
<title>4</title>
<polygon fill="none" stroke="black" points="149.5,-36 92.25,-36 92.25,0 149.5,0 149.5,-36"/>
<text text-anchor="middle" x="120.88" y="-14.45" font-family="monospace" font-size="14.00">Lit 7</text>
</g>
<!-- 2&#45;&gt;4 -->
<g id="edge2" class="edge">
<title>2&#45;&gt;4</title>
<path fill="none" stroke="black" d="M89.26,-71.7C93.94,-63.9 99.57,-54.51 104.78,-45.83"/>
<polygon fill="black" stroke="black" points="107.69,-47.78 109.83,-37.4 101.69,-44.18 107.69,-47.78"/>
</g>
<!-- 6 -->
<g id="node7" class="node">
<title>6</title>
<polygon fill="none" stroke="black" points="226.88,-108 144.88,-108 144.88,-72 226.88,-72 226.88,-108"/>
<text text-anchor="middle" x="185.88" y="-86.45" font-family="monospace" font-size="14.00">Params x</text>
</g>
<!-- 5&#45;&gt;6 -->
<g id="edge5" class="edge">
<title>5&#45;&gt;6</title>
<path fill="none" stroke="black" d="M202.44,-143.7C200.09,-136.24 197.29,-127.32 194.66,-118.97"/>
<polygon fill="black" stroke="black" points="198.04,-118.04 191.7,-109.55 191.36,-120.14 198.04,-118.04"/>
</g>
<!-- 7 -->
<g id="node8" class="node">
<title>7</title>
<polygon fill="none" stroke="black" points="351.25,-108 244.5,-108 244.5,-72 351.25,-72 351.25,-108"/>
<text text-anchor="middle" x="297.88" y="-86.45" font-family="monospace" font-size="14.00">UnOp negate</text>
</g>
<!-- 5&#45;&gt;7 -->
<g id="edge7" class="edge">
<title>5&#45;&gt;7</title>
<path fill="none" stroke="black" d="M230.12,-143.7C241.16,-135.11 254.67,-124.61 266.71,-115.24"/>
<polygon fill="black" stroke="black" points="268.63,-118.18 274.38,-109.28 264.33,-112.65 268.63,-118.18"/>
</g>
<!-- 8 -->
<g id="node9" class="node">
<title>8</title>
<polygon fill="none" stroke="black" points="326.5,-36 269.25,-36 269.25,0 326.5,0 326.5,-36"/>
<text text-anchor="middle" x="297.88" y="-14.45" font-family="monospace" font-size="14.00">Var x</text>
</g>
<!-- 7&#45;&gt;8 -->
<g id="edge6" class="edge">
<title>7&#45;&gt;8</title>
<path fill="none" stroke="black" d="M297.88,-71.7C297.88,-64.41 297.88,-55.73 297.88,-47.54"/>
<polygon fill="black" stroke="black" points="301.38,-47.62 297.88,-37.62 294.38,-47.62 301.38,-47.62"/>
</g>
</g>
</svg>
