<?xml version="1.0" encoding="UTF-8" standalone="no"?>
<!DOCTYPE svg PUBLIC "-//W3C//DTD SVG 1.1//EN"
 "http://www.w3.org/Graphics/SVG/1.1/DTD/svg11.dtd">
<!-- Generated by graphviz version 12.2.1 (20241206.2353)
 -->
<!-- Title: AST Pages: 1 -->
<svg width="449pt" height="548pt"
 viewBox="0.00 0.00 448.75 548.00" xmlns="http://www.w3.org/2000/svg" xmlns:xlink="http://www.w3.org/1999/xlink">
<g id="graph0" class="graph" transform="scale(1 1) rotate(0) translate(4 544)">
<title>AST</title>
<polygon fill="white" stroke="none" points="-4,4 -4,-544 444.75,-544 444.75,4 -4,4"/>
<!-- 0 -->
<g id="node1" class="node">
<title>0</title>
<polygon fill="none" stroke="black" points="236,-540 162.25,-540 162.25,-504 236,-504 236,-540"/>
<text text-anchor="middle" x="199.12" y="-518.45" font-family="monospace" font-size="14.00">Program</text>
</g>
<!-- 1 -->
<g id="node2" class="node">
<title>1</title>
<polygon fill="none" stroke="black" points="256.62,-468 141.62,-468 141.62,-432 256.62,-432 256.62,-468"/>
<text text-anchor="middle" x="199.12" y="-446.45" font-family="monospace" font-size="14.00">FunDecl main</text>
</g>
<!-- 0&#45;&gt;1 -->
<g id="edge16" class="edge">
<title>0&#45;&gt;1</title>
<path fill="none" stroke="black" d="M199.12,-503.7C199.12,-496.41 199.12,-487.73 199.12,-479.54"/>
<polygon fill="black" stroke="black" points="202.63,-479.62 199.13,-469.62 195.63,-479.62 202.63,-479.62"/>
</g>
<!-- 2 -->
<g id="node3" class="node">
<title>2</title>
<polygon fill="none" stroke="black" points="226.12,-396 172.12,-396 172.12,-360 226.12,-360 226.12,-396"/>
<text text-anchor="middle" x="199.12" y="-374.45" font-family="monospace" font-size="14.00">Let</text>
</g>
<!-- 1&#45;&gt;2 -->
<g id="edge15" class="edge">
<title>1&#45;&gt;2</title>
<path fill="none" stroke="black" d="M199.12,-431.7C199.12,-424.41 199.12,-415.73 199.12,-407.54"/>
<polygon fill="black" stroke="black" points="202.63,-407.62 199.13,-397.62 195.63,-407.62 202.63,-407.62"/>
</g>
<!-- 3 -->
<g id="node4" class="node">
<title>3</title>
<polygon fill="none" stroke="black" points="181.75,-324 124.5,-324 124.5,-288 181.75,-288 181.75,-324"/>
<text text-anchor="middle" x="153.12" y="-302.45" font-family="monospace" font-size="14.00">Decls</text>
</g>
<!-- 2&#45;&gt;3 -->
<g id="edge1" class="edge">
<title>2&#45;&gt;3</title>
<path fill="none" stroke="black" d="M187.75,-359.7C182.57,-351.81 176.32,-342.3 170.57,-333.55"/>
<polygon fill="black" stroke="black" points="173.61,-331.8 165.2,-325.37 167.76,-335.65 173.61,-331.8"/>
</g>
<!-- 8 -->
<g id="node9" class="node">
<title>8</title>
<polygon fill="none" stroke="black" points="272.12,-324 218.12,-324 218.12,-288 272.12,-288 272.12,-324"/>
<text text-anchor="middle" x="245.12" y="-302.45" font-family="monospace" font-size="14.00">Let</text>
</g>
<!-- 2&#45;&gt;8 -->
<g id="edge14" class="edge">
<title>2&#45;&gt;8</title>
<path fill="none" stroke="black" d="M210.5,-359.7C215.68,-351.81 221.93,-342.3 227.68,-333.55"/>
<polygon fill="black" stroke="black" points="230.49,-335.65 233.05,-325.37 224.64,-331.8 230.49,-335.65"/>
</g>
<!-- 4 -->
<g id="node5" class="node">
<title>4</title>
<polygon fill="none" stroke="black" points="90.25,-252 0,-252 0,-216 90.25,-216 90.25,-252"/>
<text text-anchor="middle" x="45.12" y="-230.45" font-family="monospace" font-size="14.00">FunDecl y</text>
</g>
<!-- 3&#45;&gt;4 -->
<g id="edge3" class="edge">
<title>3&#45;&gt;4</title>
<path fill="none" stroke="black" d="M126.15,-287.52C112.52,-278.68 95.79,-267.84 81.08,-258.3"/>
<polygon fill="black" stroke="black" points="83.32,-255.59 73.03,-253.08 79.51,-261.46 83.32,-255.59"/>
</g>
<!-- 6 -->
<g id="node7" class="node">
<title>6</title>
<polygon fill="none" stroke="black" points="198.25,-252 108,-252 108,-216 198.25,-216 198.25,-252"/>
<text text-anchor="middle" x="153.12" y="-230.45" font-family="monospace" font-size="14.00">FunDecl x</text>
</g>
<!-- 3&#45;&gt;6 -->
<g id="edge5" class="edge">
<title>3&#45;&gt;6</title>
<path fill="none" stroke="black" d="M153.12,-287.7C153.12,-280.41 153.12,-271.73 153.12,-263.54"/>
<polygon fill="black" stroke="black" points="156.63,-263.62 153.13,-253.62 149.63,-263.62 156.63,-263.62"/>
</g>
<!-- 5 -->
<g id="node6" class="node">
<title>5</title>
<polygon fill="none" stroke="black" points="73.75,-180 16.5,-180 16.5,-144 73.75,-144 73.75,-180"/>
<text text-anchor="middle" x="45.12" y="-158.45" font-family="monospace" font-size="14.00">Lit 2</text>
</g>
<!-- 4&#45;&gt;5 -->
<g id="edge2" class="edge">
<title>4&#45;&gt;5</title>
<path fill="none" stroke="black" d="M45.12,-215.7C45.12,-208.41 45.12,-199.73 45.12,-191.54"/>
<polygon fill="black" stroke="black" points="48.63,-191.62 45.13,-181.62 41.63,-191.62 48.63,-191.62"/>
</g>
<!-- 7 -->
<g id="node8" class="node">
<title>7</title>
<polygon fill="none" stroke="black" points="181.75,-180 124.5,-180 124.5,-144 181.75,-144 181.75,-180"/>
<text text-anchor="middle" x="153.12" y="-158.45" font-family="monospace" font-size="14.00">Lit 1</text>
</g>
<!-- 6&#45;&gt;7 -->
<g id="edge4" class="edge">
<title>6&#45;&gt;7</title>
<path fill="none" stroke="black" d="M153.12,-215.7C153.12,-208.41 153.12,-199.73 153.12,-191.54"/>
<polygon fill="black" stroke="black" points="156.63,-191.62 153.13,-181.62 149.63,-191.62 156.63,-191.62"/>
</g>
<!-- 9 -->
<g id="node10" class="node">
<title>9</title>
<polygon fill="none" stroke="black" points="273.75,-252 216.5,-252 216.5,-216 273.75,-216 273.75,-252"/>
<text text-anchor="middle" x="245.12" y="-230.45" font-family="monospace" font-size="14.00">Decls</text>
</g>
<!-- 8&#45;&gt;9 -->
<g id="edge6" class="edge">
<title>8&#45;&gt;9</title>
<path fill="none" stroke="black" d="M245.12,-287.7C245.12,-280.41 245.12,-271.73 245.12,-263.54"/>
<polygon fill="black" stroke="black" points="248.63,-263.62 245.13,-253.62 241.63,-263.62 248.63,-263.62"/>
</g>
<!-- 14 -->
<g id="node15" class="node">
<title>14</title>
<polygon fill="none" stroke="black" points="374,-252 300.25,-252 300.25,-216 374,-216 374,-252"/>
<text text-anchor="middle" x="337.12" y="-230.45" font-family="monospace" font-size="14.00">BinOp *</text>
</g>
<!-- 8&#45;&gt;14 -->
<g id="edge13" class="edge">
<title>8&#45;&gt;14</title>
<path fill="none" stroke="black" d="M267.87,-287.7C279.15,-279.11 292.96,-268.61 305.27,-259.24"/>
<polygon fill="black" stroke="black" points="307.28,-262.1 313.12,-253.26 303.04,-256.53 307.28,-262.1"/>
</g>
<!-- 10 -->
<g id="node11" class="node">
<title>10</title>
<polygon fill="none" stroke="black" points="290.25,-180 200,-180 200,-144 290.25,-144 290.25,-180"/>
<text text-anchor="middle" x="245.12" y="-158.45" font-family="monospace" font-size="14.00">FunDecl z</text>
</g>
<!-- 9&#45;&gt;10 -->
<g id="edge10" class="edge">
<title>9&#45;&gt;10</title>
<path fill="none" stroke="black" d="M245.12,-215.7C245.12,-208.41 245.12,-199.73 245.12,-191.54"/>
<polygon fill="black" stroke="black" points="248.63,-191.62 245.13,-181.62 241.63,-191.62 248.63,-191.62"/>
</g>
<!-- 11 -->
<g id="node12" class="node">
<title>11</title>
<polygon fill="none" stroke="black" points="282,-108 208.25,-108 208.25,-72 282,-72 282,-108"/>
<text text-anchor="middle" x="245.12" y="-86.45" font-family="monospace" font-size="14.00">BinOp +</text>
</g>
<!-- 10&#45;&gt;11 -->
<g id="edge9" class="edge">
<title>10&#45;&gt;11</title>
<path fill="none" stroke="black" d="M245.12,-143.7C245.12,-136.41 245.12,-127.73 245.12,-119.54"/>
<polygon fill="black" stroke="black" points="248.63,-119.62 245.13,-109.62 241.63,-119.62 248.63,-119.62"/>
</g>
<!-- 12 -->
<g id="node13" class="node">
<title>12</title>
<polygon fill="none" stroke="black" points="236.75,-36 179.5,-36 179.5,0 236.75,0 236.75,-36"/>
<text text-anchor="middle" x="208.12" y="-14.45" font-family="monospace" font-size="14.00">Var x</text>
</g>
<!-- 11&#45;&gt;12 -->
<g id="edge7" class="edge">
<title>11&#45;&gt;12</title>
<path fill="none" stroke="black" d="M235.98,-71.7C231.9,-63.98 227,-54.71 222.46,-46.11"/>
<polygon fill="black" stroke="black" points="225.64,-44.65 217.87,-37.44 219.45,-47.92 225.64,-44.65"/>
</g>
<!-- 13 -->
<g id="node14" class="node">
<title>13</title>
<polygon fill="none" stroke="black" points="311.75,-36 254.5,-36 254.5,0 311.75,0 311.75,-36"/>
<text text-anchor="middle" x="283.12" y="-14.45" font-family="monospace" font-size="14.00">Var y</text>
</g>
<!-- 11&#45;&gt;13 -->
<g id="edge8" class="edge">
<title>11&#45;&gt;13</title>
<path fill="none" stroke="black" d="M254.52,-71.7C258.71,-63.98 263.74,-54.71 268.41,-46.11"/>
<polygon fill="black" stroke="black" points="271.42,-47.89 273.12,-37.43 265.27,-44.55 271.42,-47.89"/>
</g>
<!-- 15 -->
<g id="node16" class="node">
<title>15</title>
<polygon fill="none" stroke="black" points="365.75,-180 308.5,-180 308.5,-144 365.75,-144 365.75,-180"/>
<text text-anchor="middle" x="337.12" y="-158.45" font-family="monospace" font-size="14.00">Var z</text>
</g>
<!-- 14&#45;&gt;15 -->
<g id="edge11" class="edge">
<title>14&#45;&gt;15</title>
<path fill="none" stroke="black" d="M337.12,-215.7C337.12,-208.41 337.12,-199.73 337.12,-191.54"/>
<polygon fill="black" stroke="black" points="340.63,-191.62 337.13,-181.62 333.63,-191.62 340.63,-191.62"/>
</g>
<!-- 16 -->
<g id="node17" class="node">
<title>16</title>
<polygon fill="none" stroke="black" points="440.75,-180 383.5,-180 383.5,-144 440.75,-144 440.75,-180"/>
<text text-anchor="middle" x="412.12" y="-158.45" font-family="monospace" font-size="14.00">Var z</text>
</g>
<!-- 14&#45;&gt;16 -->
<g id="edge12" class="edge">
<title>14&#45;&gt;16</title>
<path fill="none" stroke="black" d="M355.66,-215.7C364.59,-207.37 375.46,-197.22 385.27,-188.07"/>
<polygon fill="black" stroke="black" points="387.51,-190.76 392.43,-181.38 382.73,-185.64 387.51,-190.76"/>
</g>
</g>
</svg>
