<?xml version="1.0" encoding="UTF-8" standalone="no"?>
<!DOCTYPE svg PUBLIC "-//W3C//DTD SVG 1.1//EN"
 "http://www.w3.org/Graphics/SVG/1.1/DTD/svg11.dtd">
<!-- Generated by graphviz version 12.2.1 (20241206.2353)
 -->
<!-- Title: AST Pages: 1 -->
<svg width="569pt" height="476pt"
 viewBox="0.00 0.00 568.62 476.00" xmlns="http://www.w3.org/2000/svg" xmlns:xlink="http://www.w3.org/1999/xlink">
<g id="graph0" class="graph" transform="scale(1 1) rotate(0) translate(4 472)">
<title>AST</title>
<polygon fill="white" stroke="none" points="-4,4 -4,-472 564.62,-472 564.62,4 -4,4"/>
<!-- 0 -->
<g id="node1" class="node">
<title>0</title>
<polygon fill="none" stroke="black" points="220.88,-468 147.12,-468 147.12,-432 220.88,-432 220.88,-468"/>
<text text-anchor="middle" x="184" y="-446.45" font-family="monospace" font-size="14.00">Program</text>
</g>
<!-- 1 -->
<g id="node2" class="node">
<title>1</title>
<polygon fill="none" stroke="black" points="175.5,-396 60.5,-396 60.5,-360 175.5,-360 175.5,-396"/>
<text text-anchor="middle" x="118" y="-374.45" font-family="monospace" font-size="14.00">FunDecl main</text>
</g>
<!-- 0&#45;&gt;1 -->
<g id="edge4" class="edge">
<title>0&#45;&gt;1</title>
<path fill="none" stroke="black" d="M167.69,-431.7C159.93,-423.47 150.51,-413.48 141.97,-404.42"/>
<polygon fill="black" stroke="black" points="144.57,-402.08 135.17,-397.21 139.48,-406.88 144.57,-402.08"/>
</g>
<!-- 5 -->
<g id="node6" class="node">
<title>5</title>
<polygon fill="none" stroke="black" points="308.5,-396 193.5,-396 193.5,-360 308.5,-360 308.5,-396"/>
<text text-anchor="middle" x="251" y="-374.45" font-family="monospace" font-size="14.00">FunDecl fact</text>
</g>
<!-- 0&#45;&gt;5 -->
<g id="edge18" class="edge">
<title>0&#45;&gt;5</title>
<path fill="none" stroke="black" d="M200.56,-431.7C208.43,-423.47 217.99,-413.48 226.67,-404.42"/>
<polygon fill="black" stroke="black" points="229.2,-406.84 233.58,-397.2 224.14,-402 229.2,-406.84"/>
</g>
<!-- 2 -->
<g id="node3" class="node">
<title>2</title>
<polygon fill="none" stroke="black" points="145,-324 91,-324 91,-288 145,-288 145,-324"/>
<text text-anchor="middle" x="118" y="-302.45" font-family="monospace" font-size="14.00">App</text>
</g>
<!-- 1&#45;&gt;2 -->
<g id="edge3" class="edge">
<title>1&#45;&gt;2</title>
<path fill="none" stroke="black" d="M118,-359.7C118,-352.41 118,-343.73 118,-335.54"/>
<polygon fill="black" stroke="black" points="121.5,-335.62 118,-325.62 114.5,-335.62 121.5,-335.62"/>
</g>
<!-- 3 -->
<g id="node4" class="node">
<title>3</title>
<polygon fill="none" stroke="black" points="82,-252 0,-252 0,-216 82,-216 82,-252"/>
<text text-anchor="middle" x="41" y="-230.45" font-family="monospace" font-size="14.00">Var fact</text>
</g>
<!-- 2&#45;&gt;3 -->
<g id="edge1" class="edge">
<title>2&#45;&gt;3</title>
<path fill="none" stroke="black" d="M98.97,-287.7C89.8,-279.37 78.65,-269.22 68.57,-260.07"/>
<polygon fill="black" stroke="black" points="70.96,-257.5 61.2,-253.37 66.25,-262.68 70.96,-257.5"/>
</g>
<!-- 4 -->
<g id="node5" class="node">
<title>4</title>
<polygon fill="none" stroke="black" points="157.62,-252 100.38,-252 100.38,-216 157.62,-216 157.62,-252"/>
<text text-anchor="middle" x="129" y="-230.45" font-family="monospace" font-size="14.00">Lit 5</text>
</g>
<!-- 2&#45;&gt;4 -->
<g id="edge2" class="edge">
<title>2&#45;&gt;4</title>
<path fill="none" stroke="black" d="M120.72,-287.7C121.88,-280.32 123.26,-271.52 124.56,-263.25"/>
<polygon fill="black" stroke="black" points="127.98,-264.02 126.08,-253.6 121.07,-262.93 127.98,-264.02"/>
</g>
<!-- 6 -->
<g id="node7" class="node">
<title>6</title>
<polygon fill="none" stroke="black" points="281,-324 199,-324 199,-288 281,-288 281,-324"/>
<text text-anchor="middle" x="240" y="-302.45" font-family="monospace" font-size="14.00">Params n</text>
</g>
<!-- 5&#45;&gt;6 -->
<g id="edge5" class="edge">
<title>5&#45;&gt;6</title>
<path fill="none" stroke="black" d="M248.28,-359.7C247.12,-352.32 245.74,-343.52 244.44,-335.25"/>
<polygon fill="black" stroke="black" points="247.93,-334.93 242.92,-325.6 241.02,-336.02 247.93,-334.93"/>
</g>
<!-- 7 -->
<g id="node8" class="node">
<title>7</title>
<polygon fill="none" stroke="black" points="353,-324 299,-324 299,-288 353,-288 353,-324"/>
<text text-anchor="middle" x="326" y="-302.45" font-family="monospace" font-size="14.00">If</text>
</g>
<!-- 5&#45;&gt;7 -->
<g id="edge17" class="edge">
<title>5&#45;&gt;7</title>
<path fill="none" stroke="black" d="M269.54,-359.7C278.46,-351.37 289.33,-341.22 299.14,-332.07"/>
<polygon fill="black" stroke="black" points="301.39,-334.76 306.31,-325.38 296.61,-329.64 301.39,-334.76"/>
</g>
<!-- 8 -->
<g id="node9" class="node">
<title>8</title>
<polygon fill="none" stroke="black" points="279,-252 197,-252 197,-216 279,-216 279,-252"/>
<text text-anchor="middle" x="238" y="-230.45" font-family="monospace" font-size="14.00">BinOp &lt;=</text>
</g>
<!-- 7&#45;&gt;8 -->
<g id="edge8" class="edge">
<title>7&#45;&gt;8</title>
<path fill="none" stroke="black" d="M304.25,-287.7C293.56,-279.2 280.51,-268.81 268.82,-259.51"/>
<polygon fill="black" stroke="black" points="271,-256.78 260.99,-253.29 266.64,-262.25 271,-256.78"/>
</g>
<!-- 11 -->
<g id="node12" class="node">
<title>11</title>
<polygon fill="none" stroke="black" points="354.62,-252 297.38,-252 297.38,-216 354.62,-216 354.62,-252"/>
<text text-anchor="middle" x="326" y="-230.45" font-family="monospace" font-size="14.00">Lit 1</text>
</g>
<!-- 7&#45;&gt;11 -->
<g id="edge9" class="edge">
<title>7&#45;&gt;11</title>
<path fill="none" stroke="black" d="M326,-287.7C326,-280.41 326,-271.73 326,-263.54"/>
<polygon fill="black" stroke="black" points="329.5,-263.62 326,-253.62 322.5,-263.62 329.5,-263.62"/>
</g>
<!-- 12 -->
<g id="node13" class="node">
<title>12</title>
<polygon fill="none" stroke="black" points="446.88,-252 373.12,-252 373.12,-216 446.88,-216 446.88,-252"/>
<text text-anchor="middle" x="410" y="-230.45" font-family="monospace" font-size="14.00">BinOp *</text>
</g>
<!-- 7&#45;&gt;12 -->
<g id="edge16" class="edge">
<title>7&#45;&gt;12</title>
<path fill="none" stroke="black" d="M346.76,-287.7C356.96,-279.2 369.42,-268.81 380.58,-259.51"/>
<polygon fill="black" stroke="black" points="382.58,-262.41 388.02,-253.32 378.1,-257.03 382.58,-262.41"/>
</g>
<!-- 9 -->
<g id="node10" class="node">
<title>9</title>
<polygon fill="none" stroke="black" points="221.62,-180 164.38,-180 164.38,-144 221.62,-144 221.62,-180"/>
<text text-anchor="middle" x="193" y="-158.45" font-family="monospace" font-size="14.00">Var n</text>
</g>
<!-- 8&#45;&gt;9 -->
<g id="edge6" class="edge">
<title>8&#45;&gt;9</title>
<path fill="none" stroke="black" d="M226.88,-215.7C221.81,-207.81 215.7,-198.3 210.07,-189.55"/>
<polygon fill="black" stroke="black" points="213.17,-187.9 204.81,-181.38 207.28,-191.68 213.17,-187.9"/>
</g>
<!-- 10 -->
<g id="node11" class="node">
<title>10</title>
<polygon fill="none" stroke="black" points="296.62,-180 239.38,-180 239.38,-144 296.62,-144 296.62,-180"/>
<text text-anchor="middle" x="268" y="-158.45" font-family="monospace" font-size="14.00">Lit 1</text>
</g>
<!-- 8&#45;&gt;10 -->
<g id="edge7" class="edge">
<title>8&#45;&gt;10</title>
<path fill="none" stroke="black" d="M245.42,-215.7C248.65,-208.15 252.52,-199.12 256.14,-190.68"/>
<polygon fill="black" stroke="black" points="259.35,-192.07 260.07,-181.5 252.92,-189.31 259.35,-192.07"/>
</g>
<!-- 13 -->
<g id="node14" class="node">
<title>13</title>
<polygon fill="none" stroke="black" points="401.62,-180 344.38,-180 344.38,-144 401.62,-144 401.62,-180"/>
<text text-anchor="middle" x="373" y="-158.45" font-family="monospace" font-size="14.00">Var n</text>
</g>
<!-- 12&#45;&gt;13 -->
<g id="edge10" class="edge">
<title>12&#45;&gt;13</title>
<path fill="none" stroke="black" d="M400.85,-215.7C396.78,-207.98 391.88,-198.71 387.33,-190.11"/>
<polygon fill="black" stroke="black" points="390.52,-188.65 382.75,-181.44 384.33,-191.92 390.52,-188.65"/>
</g>
<!-- 14 -->
<g id="node15" class="node">
<title>14</title>
<polygon fill="none" stroke="black" points="474,-180 420,-180 420,-144 474,-144 474,-180"/>
<text text-anchor="middle" x="447" y="-158.45" font-family="monospace" font-size="14.00">App</text>
</g>
<!-- 12&#45;&gt;14 -->
<g id="edge15" class="edge">
<title>12&#45;&gt;14</title>
<path fill="none" stroke="black" d="M419.15,-215.7C423.22,-207.98 428.12,-198.71 432.67,-190.11"/>
<polygon fill="black" stroke="black" points="435.67,-191.92 437.25,-181.44 429.48,-188.65 435.67,-191.92"/>
</g>
<!-- 15 -->
<g id="node16" class="node">
<title>15</title>
<polygon fill="none" stroke="black" points="440,-108 358,-108 358,-72 440,-72 440,-108"/>
<text text-anchor="middle" x="399" y="-86.45" font-family="monospace" font-size="14.00">Var fact</text>
</g>
<!-- 14&#45;&gt;15 -->
<g id="edge11" class="edge">
<title>14&#45;&gt;15</title>
<path fill="none" stroke="black" d="M435.13,-143.7C429.73,-135.81 423.21,-126.3 417.2,-117.55"/>
<polygon fill="black" stroke="black" points="420.13,-115.62 411.58,-109.35 414.35,-119.58 420.13,-115.62"/>
</g>
<!-- 16 -->
<g id="node17" class="node">
<title>16</title>
<polygon fill="none" stroke="black" points="531.88,-108 458.12,-108 458.12,-72 531.88,-72 531.88,-108"/>
<text text-anchor="middle" x="495" y="-86.45" font-family="monospace" font-size="14.00">BinOp &#45;</text>
</g>
<!-- 14&#45;&gt;16 -->
<g id="edge14" class="edge">
<title>14&#45;&gt;16</title>
<path fill="none" stroke="black" d="M458.87,-143.7C464.27,-135.81 470.79,-126.3 476.8,-117.55"/>
<polygon fill="black" stroke="black" points="479.65,-119.58 482.42,-109.35 473.87,-115.62 479.65,-119.58"/>
</g>
<!-- 17 -->
<g id="node18" class="node">
<title>17</title>
<polygon fill="none" stroke="black" points="485.62,-36 428.38,-36 428.38,0 485.62,0 485.62,-36"/>
<text text-anchor="middle" x="457" y="-14.45" font-family="monospace" font-size="14.00">Var n</text>
</g>
<!-- 16&#45;&gt;17 -->
<g id="edge12" class="edge">
<title>16&#45;&gt;17</title>
<path fill="none" stroke="black" d="M485.61,-71.7C481.42,-63.98 476.39,-54.71 471.72,-46.11"/>
<polygon fill="black" stroke="black" points="474.85,-44.55 467.01,-37.43 468.7,-47.89 474.85,-44.55"/>
</g>
<!-- 18 -->
<g id="node19" class="node">
<title>18</title>
<polygon fill="none" stroke="black" points="560.62,-36 503.38,-36 503.38,0 560.62,0 560.62,-36"/>
<text text-anchor="middle" x="532" y="-14.45" font-family="monospace" font-size="14.00">Lit 1</text>
</g>
<!-- 16&#45;&gt;18 -->
<g id="edge13" class="edge">
<title>16&#45;&gt;18</title>
<path fill="none" stroke="black" d="M504.15,-71.7C508.22,-63.98 513.12,-54.71 517.67,-46.11"/>
<polygon fill="black" stroke="black" points="520.67,-47.92 522.25,-37.44 514.48,-44.65 520.67,-47.92"/>
</g>
</g>
</svg>
