<?xml version="1.0" encoding="UTF-8" standalone="no"?>
<!DOCTYPE svg PUBLIC "-//W3C//DTD SVG 1.1//EN"
 "http://www.w3.org/Graphics/SVG/1.1/DTD/svg11.dtd">
<!-- Generated by graphviz version 12.2.1 (20241206.2353)
 -->
<!-- Title: AST Pages: 1 -->
<svg width="1238pt" height="476pt"
 viewBox="0.00 0.00 1238.25 476.00" xmlns="http://www.w3.org/2000/svg" xmlns:xlink="http://www.w3.org/1999/xlink">
<g id="graph0" class="graph" transform="scale(1 1) rotate(0) translate(4 472)">
<title>AST</title>
<polygon fill="white" stroke="none" points="-4,4 -4,-472 1234.25,-472 1234.25,4 -4,4"/>
<!-- 0 -->
<g id="node1" class="node">
<title>0</title>
<polygon fill="none" stroke="black" points="586.5,-468 512.75,-468 512.75,-432 586.5,-432 586.5,-468"/>
<text text-anchor="middle" x="549.62" y="-446.45" font-family="monospace" font-size="14.00">Program</text>
</g>
<!-- 1 -->
<g id="node2" class="node">
<title>1</title>
<polygon fill="none" stroke="black" points="535.12,-396 420.12,-396 420.12,-360 535.12,-360 535.12,-396"/>
<text text-anchor="middle" x="477.62" y="-374.45" font-family="monospace" font-size="14.00">FunDecl main</text>
</g>
<!-- 0&#45;&gt;1 -->
<g id="edge14" class="edge">
<title>0&#45;&gt;1</title>
<path fill="none" stroke="black" d="M531.83,-431.7C523.35,-423.45 513.04,-413.43 503.69,-404.35"/>
<polygon fill="black" stroke="black" points="506.16,-401.86 496.55,-397.4 501.28,-406.88 506.16,-401.86"/>
</g>
<!-- 15 -->
<g id="node16" class="node">
<title>15</title>
<polygon fill="none" stroke="black" points="727.5,-396 587.75,-396 587.75,-360 727.5,-360 727.5,-396"/>
<text text-anchor="middle" x="657.62" y="-374.45" font-family="monospace" font-size="14.00">FunDecl sumList</text>
</g>
<!-- 0&#45;&gt;15 -->
<g id="edge31" class="edge">
<title>0&#45;&gt;15</title>
<path fill="none" stroke="black" d="M576.6,-431.52C590.23,-422.68 606.96,-411.84 621.67,-402.3"/>
<polygon fill="black" stroke="black" points="623.24,-405.46 629.72,-397.08 619.43,-399.59 623.24,-405.46"/>
</g>
<!-- 2 -->
<g id="node3" class="node">
<title>2</title>
<polygon fill="none" stroke="black" points="430.62,-324 376.62,-324 376.62,-288 430.62,-288 430.62,-324"/>
<text text-anchor="middle" x="403.62" y="-302.45" font-family="monospace" font-size="14.00">App</text>
</g>
<!-- 1&#45;&gt;2 -->
<g id="edge13" class="edge">
<title>1&#45;&gt;2</title>
<path fill="none" stroke="black" d="M459.33,-359.7C450.53,-351.37 439.8,-341.22 430.13,-332.07"/>
<polygon fill="black" stroke="black" points="432.73,-329.72 423.06,-325.39 427.92,-334.8 432.73,-329.72"/>
</g>
<!-- 3 -->
<g id="node4" class="node">
<title>3</title>
<polygon fill="none" stroke="black" points="359,-252 252.25,-252 252.25,-216 359,-216 359,-252"/>
<text text-anchor="middle" x="305.62" y="-230.45" font-family="monospace" font-size="14.00">Var sumList</text>
</g>
<!-- 2&#45;&gt;3 -->
<g id="edge1" class="edge">
<title>2&#45;&gt;3</title>
<path fill="none" stroke="black" d="M379.15,-287.52C367.01,-278.85 352.17,-268.25 339.01,-258.85"/>
<polygon fill="black" stroke="black" points="341.19,-256.1 331.02,-253.14 337.12,-261.8 341.19,-256.1"/>
</g>
<!-- 4 -->
<g id="node5" class="node">
<title>4</title>
<polygon fill="none" stroke="black" points="430.62,-252 376.62,-252 376.62,-216 430.62,-216 430.62,-252"/>
<text text-anchor="middle" x="403.62" y="-230.45" font-family="monospace" font-size="14.00">List</text>
</g>
<!-- 2&#45;&gt;4 -->
<g id="edge12" class="edge">
<title>2&#45;&gt;4</title>
<path fill="none" stroke="black" d="M403.62,-287.7C403.62,-280.41 403.62,-271.73 403.62,-263.54"/>
<polygon fill="black" stroke="black" points="407.13,-263.62 403.63,-253.62 400.13,-263.62 407.13,-263.62"/>
</g>
<!-- 5 -->
<g id="node6" class="node">
<title>5</title>
<polygon fill="none" stroke="black" points="57.25,-180 0,-180 0,-144 57.25,-144 57.25,-180"/>
<text text-anchor="middle" x="28.62" y="-158.45" font-family="monospace" font-size="14.00">Lit 1</text>
</g>
<!-- 4&#45;&gt;5 -->
<g id="edge2" class="edge">
<title>4&#45;&gt;5</title>
<path fill="none" stroke="black" d="M376.46,-219.06C373.53,-217.89 370.55,-216.84 367.62,-216 241.14,-179.64 198.01,-214.71 68.13,-180.21"/>
<polygon fill="black" stroke="black" points="69.41,-176.93 58.84,-177.65 67.56,-183.68 69.41,-176.93"/>
</g>
<!-- 6 -->
<g id="node7" class="node">
<title>6</title>
<polygon fill="none" stroke="black" points="132.25,-180 75,-180 75,-144 132.25,-144 132.25,-180"/>
<text text-anchor="middle" x="103.62" y="-158.45" font-family="monospace" font-size="14.00">Lit 2</text>
</g>
<!-- 4&#45;&gt;6 -->
<g id="edge3" class="edge">
<title>4&#45;&gt;6</title>
<path fill="none" stroke="black" d="M376.43,-219.18C373.5,-217.99 370.53,-216.9 367.62,-216 273.45,-186.95 240.7,-208 143.32,-180.36"/>
<polygon fill="black" stroke="black" points="144.45,-177.04 133.87,-177.56 142.47,-183.75 144.45,-177.04"/>
</g>
<!-- 7 -->
<g id="node8" class="node">
<title>7</title>
<polygon fill="none" stroke="black" points="207.25,-180 150,-180 150,-144 207.25,-144 207.25,-180"/>
<text text-anchor="middle" x="178.62" y="-158.45" font-family="monospace" font-size="14.00">Lit 3</text>
</g>
<!-- 4&#45;&gt;7 -->
<g id="edge4" class="edge">
<title>4&#45;&gt;7</title>
<path fill="none" stroke="black" d="M376.36,-219.4C373.44,-218.17 370.5,-217.01 367.62,-216 305.43,-194.22 283.5,-201.72 218.33,-180.57"/>
<polygon fill="black" stroke="black" points="219.52,-177.27 208.92,-177.4 217.28,-183.91 219.52,-177.27"/>
</g>
<!-- 8 -->
<g id="node9" class="node">
<title>8</title>
<polygon fill="none" stroke="black" points="282.25,-180 225,-180 225,-144 282.25,-144 282.25,-180"/>
<text text-anchor="middle" x="253.62" y="-158.45" font-family="monospace" font-size="14.00">Lit 4</text>
</g>
<!-- 4&#45;&gt;8 -->
<g id="edge5" class="edge">
<title>4&#45;&gt;8</title>
<path fill="none" stroke="black" d="M376.51,-220.17C373.51,-218.76 370.5,-217.35 367.62,-216 342.83,-204.38 314.95,-191.42 292.97,-181.22"/>
<polygon fill="black" stroke="black" points="294.62,-178.13 284.07,-177.09 291.67,-184.48 294.62,-178.13"/>
</g>
<!-- 9 -->
<g id="node10" class="node">
<title>9</title>
<polygon fill="none" stroke="black" points="357.25,-180 300,-180 300,-144 357.25,-144 357.25,-180"/>
<text text-anchor="middle" x="328.62" y="-158.45" font-family="monospace" font-size="14.00">Lit 5</text>
</g>
<!-- 4&#45;&gt;9 -->
<g id="edge6" class="edge">
<title>4&#45;&gt;9</title>
<path fill="none" stroke="black" d="M385.09,-215.7C376.16,-207.37 365.29,-197.22 355.48,-188.07"/>
<polygon fill="black" stroke="black" points="358.02,-185.64 348.32,-181.38 353.24,-190.76 358.02,-185.64"/>
</g>
<!-- 10 -->
<g id="node11" class="node">
<title>10</title>
<polygon fill="none" stroke="black" points="432.25,-180 375,-180 375,-144 432.25,-144 432.25,-180"/>
<text text-anchor="middle" x="403.62" y="-158.45" font-family="monospace" font-size="14.00">Lit 6</text>
</g>
<!-- 4&#45;&gt;10 -->
<g id="edge7" class="edge">
<title>4&#45;&gt;10</title>
<path fill="none" stroke="black" d="M403.62,-215.7C403.62,-208.41 403.62,-199.73 403.62,-191.54"/>
<polygon fill="black" stroke="black" points="407.13,-191.62 403.63,-181.62 400.13,-191.62 407.13,-191.62"/>
</g>
<!-- 11 -->
<g id="node12" class="node">
<title>11</title>
<polygon fill="none" stroke="black" points="507.25,-180 450,-180 450,-144 507.25,-144 507.25,-180"/>
<text text-anchor="middle" x="478.62" y="-158.45" font-family="monospace" font-size="14.00">Lit 7</text>
</g>
<!-- 4&#45;&gt;11 -->
<g id="edge8" class="edge">
<title>4&#45;&gt;11</title>
<path fill="none" stroke="black" d="M422.16,-215.7C431.09,-207.37 441.96,-197.22 451.77,-188.07"/>
<polygon fill="black" stroke="black" points="454.01,-190.76 458.93,-181.38 449.23,-185.64 454.01,-190.76"/>
</g>
<!-- 12 -->
<g id="node13" class="node">
<title>12</title>
<polygon fill="none" stroke="black" points="582.25,-180 525,-180 525,-144 582.25,-144 582.25,-180"/>
<text text-anchor="middle" x="553.62" y="-158.45" font-family="monospace" font-size="14.00">Lit 8</text>
</g>
<!-- 4&#45;&gt;12 -->
<g id="edge9" class="edge">
<title>4&#45;&gt;12</title>
<path fill="none" stroke="black" d="M430.79,-220.32C454.09,-209.45 487.96,-193.64 514.24,-181.38"/>
<polygon fill="black" stroke="black" points="515.66,-184.58 523.24,-177.18 512.7,-178.23 515.66,-184.58"/>
</g>
<!-- 13 -->
<g id="node14" class="node">
<title>13</title>
<polygon fill="none" stroke="black" points="657.25,-180 600,-180 600,-144 657.25,-144 657.25,-180"/>
<text text-anchor="middle" x="628.62" y="-158.45" font-family="monospace" font-size="14.00">Lit 9</text>
</g>
<!-- 4&#45;&gt;13 -->
<g id="edge10" class="edge">
<title>4&#45;&gt;13</title>
<path fill="none" stroke="black" d="M430.82,-226.75C465.74,-218.42 528.29,-202.49 589.17,-180.65"/>
<polygon fill="black" stroke="black" points="590.1,-184.03 598.3,-177.32 587.7,-177.46 590.1,-184.03"/>
</g>
<!-- 14 -->
<g id="node15" class="node">
<title>14</title>
<polygon fill="none" stroke="black" points="740.38,-180 674.88,-180 674.88,-144 740.38,-144 740.38,-180"/>
<text text-anchor="middle" x="707.62" y="-158.45" font-family="monospace" font-size="14.00">Lit 10</text>
</g>
<!-- 4&#45;&gt;14 -->
<g id="edge11" class="edge">
<title>4&#45;&gt;14</title>
<path fill="none" stroke="black" d="M430.94,-229.29C477.31,-222.6 574.44,-206.96 663.85,-180.57"/>
<polygon fill="black" stroke="black" points="664.69,-183.97 673.26,-177.73 662.67,-177.26 664.69,-183.97"/>
</g>
<!-- 16 -->
<g id="node17" class="node">
<title>16</title>
<polygon fill="none" stroke="black" points="702.75,-324 612.5,-324 612.5,-288 702.75,-288 702.75,-324"/>
<text text-anchor="middle" x="657.62" y="-302.45" font-family="monospace" font-size="14.00">Params xs</text>
</g>
<!-- 15&#45;&gt;16 -->
<g id="edge15" class="edge">
<title>15&#45;&gt;16</title>
<path fill="none" stroke="black" d="M657.62,-359.7C657.62,-352.41 657.62,-343.73 657.62,-335.54"/>
<polygon fill="black" stroke="black" points="661.13,-335.62 657.63,-325.62 654.13,-335.62 661.13,-335.62"/>
</g>
<!-- 17 -->
<g id="node18" class="node">
<title>17</title>
<polygon fill="none" stroke="black" points="811.62,-324 757.62,-324 757.62,-288 811.62,-288 811.62,-324"/>
<text text-anchor="middle" x="784.62" y="-302.45" font-family="monospace" font-size="14.00">Case</text>
</g>
<!-- 15&#45;&gt;17 -->
<g id="edge30" class="edge">
<title>15&#45;&gt;17</title>
<path fill="none" stroke="black" d="M689.34,-359.52C706.87,-349.86 728.74,-337.8 747.11,-327.68"/>
<polygon fill="black" stroke="black" points="748.79,-330.75 755.86,-322.86 745.41,-324.62 748.79,-330.75"/>
</g>
<!-- 18 -->
<g id="node19" class="node">
<title>18</title>
<polygon fill="none" stroke="black" points="778.38,-252 712.88,-252 712.88,-216 778.38,-216 778.38,-252"/>
<text text-anchor="middle" x="745.62" y="-230.45" font-family="monospace" font-size="14.00">Var xs</text>
</g>
<!-- 17&#45;&gt;18 -->
<g id="edge16" class="edge">
<title>17&#45;&gt;18</title>
<path fill="none" stroke="black" d="M774.98,-287.7C770.69,-279.98 765.52,-270.71 760.73,-262.11"/>
<polygon fill="black" stroke="black" points="763.82,-260.46 755.89,-253.43 757.7,-263.87 763.82,-260.46"/>
</g>
<!-- 19 -->
<g id="node20" class="node">
<title>19</title>
<polygon fill="none" stroke="black" points="850.62,-252 796.62,-252 796.62,-216 850.62,-216 850.62,-252"/>
<text text-anchor="middle" x="823.62" y="-230.45" font-family="monospace" font-size="14.00">Alt</text>
</g>
<!-- 17&#45;&gt;19 -->
<g id="edge19" class="edge">
<title>17&#45;&gt;19</title>
<path fill="none" stroke="black" d="M794.27,-287.7C798.56,-279.98 803.73,-270.71 808.52,-262.11"/>
<polygon fill="black" stroke="black" points="811.55,-263.87 813.36,-253.43 805.43,-260.46 811.55,-263.87"/>
</g>
<!-- 22 -->
<g id="node23" class="node">
<title>22</title>
<polygon fill="none" stroke="black" points="976.62,-252 922.62,-252 922.62,-216 976.62,-216 976.62,-252"/>
<text text-anchor="middle" x="949.62" y="-230.45" font-family="monospace" font-size="14.00">Alt</text>
</g>
<!-- 17&#45;&gt;22 -->
<g id="edge29" class="edge">
<title>17&#45;&gt;22</title>
<path fill="none" stroke="black" d="M811.87,-293.44C839.22,-281.84 881.56,-263.88 912.08,-250.93"/>
<polygon fill="black" stroke="black" points="913.11,-254.29 920.94,-247.17 910.37,-247.85 913.11,-254.29"/>
</g>
<!-- 20 -->
<g id="node21" class="node">
<title>20</title>
<polygon fill="none" stroke="black" points="815.25,-180 758,-180 758,-144 815.25,-144 815.25,-180"/>
<text text-anchor="middle" x="786.62" y="-158.45" font-family="monospace" font-size="14.00">PList</text>
</g>
<!-- 19&#45;&gt;20 -->
<g id="edge17" class="edge">
<title>19&#45;&gt;20</title>
<path fill="none" stroke="black" d="M814.48,-215.7C810.4,-207.98 805.5,-198.71 800.96,-190.11"/>
<polygon fill="black" stroke="black" points="804.14,-188.65 796.37,-181.44 797.95,-191.92 804.14,-188.65"/>
</g>
<!-- 21 -->
<g id="node22" class="node">
<title>21</title>
<polygon fill="none" stroke="black" points="890.25,-180 833,-180 833,-144 890.25,-144 890.25,-180"/>
<text text-anchor="middle" x="861.62" y="-158.45" font-family="monospace" font-size="14.00">Lit 0</text>
</g>
<!-- 19&#45;&gt;21 -->
<g id="edge18" class="edge">
<title>19&#45;&gt;21</title>
<path fill="none" stroke="black" d="M833.02,-215.7C837.21,-207.98 842.24,-198.71 846.91,-190.11"/>
<polygon fill="black" stroke="black" points="849.92,-191.89 851.62,-181.43 843.77,-188.55 849.92,-191.89"/>
</g>
<!-- 23 -->
<g id="node24" class="node">
<title>23</title>
<polygon fill="none" stroke="black" points="990.62,-180 908.62,-180 908.62,-144 990.62,-144 990.62,-180"/>
<text text-anchor="middle" x="949.62" y="-158.45" font-family="monospace" font-size="14.00">PTuple/1</text>
</g>
<!-- 22&#45;&gt;23 -->
<g id="edge27" class="edge">
<title>22&#45;&gt;23</title>
<path fill="none" stroke="black" d="M949.62,-215.7C949.62,-208.41 949.62,-199.73 949.62,-191.54"/>
<polygon fill="black" stroke="black" points="953.13,-191.62 949.63,-181.62 946.13,-191.62 953.13,-191.62"/>
</g>
<!-- 27 -->
<g id="node28" class="node">
<title>27</title>
<polygon fill="none" stroke="black" points="1082.5,-180 1008.75,-180 1008.75,-144 1082.5,-144 1082.5,-180"/>
<text text-anchor="middle" x="1045.62" y="-158.45" font-family="monospace" font-size="14.00">BinOp +</text>
</g>
<!-- 22&#45;&gt;27 -->
<g id="edge28" class="edge">
<title>22&#45;&gt;27</title>
<path fill="none" stroke="black" d="M973.36,-215.7C985.24,-207.03 999.82,-196.4 1012.76,-186.96"/>
<polygon fill="black" stroke="black" points="1014.59,-189.96 1020.61,-181.24 1010.47,-184.3 1014.59,-189.96"/>
</g>
<!-- 24 -->
<g id="node25" class="node">
<title>24</title>
<polygon fill="none" stroke="black" points="994.75,-108 904.5,-108 904.5,-72 994.75,-72 994.75,-108"/>
<text text-anchor="middle" x="949.62" y="-86.45" font-family="monospace" font-size="14.00">PCons (:)</text>
</g>
<!-- 23&#45;&gt;24 -->
<g id="edge22" class="edge">
<title>23&#45;&gt;24</title>
<path fill="none" stroke="black" d="M949.62,-143.7C949.62,-136.41 949.62,-127.73 949.62,-119.54"/>
<polygon fill="black" stroke="black" points="953.13,-119.62 949.63,-109.62 946.13,-119.62 953.13,-119.62"/>
</g>
<!-- 25 -->
<g id="node26" class="node">
<title>25</title>
<polygon fill="none" stroke="black" points="915.38,-36 849.88,-36 849.88,0 915.38,0 915.38,-36"/>
<text text-anchor="middle" x="882.62" y="-14.45" font-family="monospace" font-size="14.00">PVar h</text>
</g>
<!-- 24&#45;&gt;25 -->
<g id="edge20" class="edge">
<title>24&#45;&gt;25</title>
<path fill="none" stroke="black" d="M933.06,-71.7C925.19,-63.47 915.63,-53.48 906.96,-44.42"/>
<polygon fill="black" stroke="black" points="909.49,-42 900.04,-37.2 904.43,-46.84 909.49,-42"/>
</g>
<!-- 26 -->
<g id="node27" class="node">
<title>26</title>
<polygon fill="none" stroke="black" points="999.38,-36 933.88,-36 933.88,0 999.38,0 999.38,-36"/>
<text text-anchor="middle" x="966.62" y="-14.45" font-family="monospace" font-size="14.00">PVar t</text>
</g>
<!-- 24&#45;&gt;26 -->
<g id="edge21" class="edge">
<title>24&#45;&gt;26</title>
<path fill="none" stroke="black" d="M953.83,-71.7C955.62,-64.32 957.75,-55.52 959.76,-47.25"/>
<polygon fill="black" stroke="black" points="963.15,-48.12 962.11,-37.58 956.35,-46.47 963.15,-48.12"/>
</g>
<!-- 28 -->
<g id="node29" class="node">
<title>28</title>
<polygon fill="none" stroke="black" points="1072.25,-108 1015,-108 1015,-72 1072.25,-72 1072.25,-108"/>
<text text-anchor="middle" x="1043.62" y="-86.45" font-family="monospace" font-size="14.00">Var h</text>
</g>
<!-- 27&#45;&gt;28 -->
<g id="edge23" class="edge">
<title>27&#45;&gt;28</title>
<path fill="none" stroke="black" d="M1045.13,-143.7C1044.92,-136.41 1044.67,-127.73 1044.44,-119.54"/>
<polygon fill="black" stroke="black" points="1047.94,-119.51 1044.16,-109.62 1040.94,-119.71 1047.94,-119.51"/>
</g>
<!-- 29 -->
<g id="node30" class="node">
<title>29</title>
<polygon fill="none" stroke="black" points="1144.62,-108 1090.62,-108 1090.62,-72 1144.62,-72 1144.62,-108"/>
<text text-anchor="middle" x="1117.62" y="-86.45" font-family="monospace" font-size="14.00">App</text>
</g>
<!-- 27&#45;&gt;29 -->
<g id="edge26" class="edge">
<title>27&#45;&gt;29</title>
<path fill="none" stroke="black" d="M1063.42,-143.7C1071.9,-135.45 1082.21,-125.43 1091.56,-116.35"/>
<polygon fill="black" stroke="black" points="1093.97,-118.88 1098.7,-109.4 1089.09,-113.86 1093.97,-118.88"/>
</g>
<!-- 30 -->
<g id="node31" class="node">
<title>30</title>
<polygon fill="none" stroke="black" points="1155,-36 1048.25,-36 1048.25,0 1155,0 1155,-36"/>
<text text-anchor="middle" x="1101.62" y="-14.45" font-family="monospace" font-size="14.00">Var sumList</text>
</g>
<!-- 29&#45;&gt;30 -->
<g id="edge24" class="edge">
<title>29&#45;&gt;30</title>
<path fill="none" stroke="black" d="M1113.67,-71.7C1111.98,-64.32 1109.97,-55.52 1108.08,-47.25"/>
<polygon fill="black" stroke="black" points="1111.51,-46.55 1105.87,-37.58 1104.69,-48.11 1111.51,-46.55"/>
</g>
<!-- 31 -->
<g id="node32" class="node">
<title>31</title>
<polygon fill="none" stroke="black" points="1230.25,-36 1173,-36 1173,0 1230.25,0 1230.25,-36"/>
<text text-anchor="middle" x="1201.62" y="-14.45" font-family="monospace" font-size="14.00">Var t</text>
</g>
<!-- 29&#45;&gt;31 -->
<g id="edge25" class="edge">
<title>29&#45;&gt;31</title>
<path fill="none" stroke="black" d="M1138.39,-71.7C1148.59,-63.2 1161.05,-52.81 1172.21,-43.51"/>
<polygon fill="black" stroke="black" points="1174.2,-46.41 1179.65,-37.32 1169.72,-41.03 1174.2,-46.41"/>
</g>
</g>
</svg>
