<?xml version="1.0" encoding="UTF-8" standalone="no"?>
<!DOCTYPE svg PUBLIC "-//W3C//DTD SVG 1.1//EN"
 "http://www.w3.org/Graphics/SVG/1.1/DTD/svg11.dtd">
<!-- Generated by graphviz version 12.2.1 (20241206.2353)
 -->
<!-- Title: AST Pages: 1 -->
<svg width="475pt" height="404pt"
 viewBox="0.00 0.00 474.50 404.00" xmlns="http://www.w3.org/2000/svg" xmlns:xlink="http://www.w3.org/1999/xlink">
<g id="graph0" class="graph" transform="scale(1 1) rotate(0) translate(4 400)">
<title>AST</title>
<polygon fill="white" stroke="none" points="-4,4 -4,-400 470.5,-400 470.5,4 -4,4"/>
<!-- 0 -->
<g id="node1" class="node">
<title>0</title>
<polygon fill="none" stroke="black" points="352.38,-396 278.62,-396 278.62,-360 352.38,-360 352.38,-396"/>
<text text-anchor="middle" x="315.5" y="-374.45" font-family="monospace" font-size="14.00">Program</text>
</g>
<!-- 1 -->
<g id="node2" class="node">
<title>1</title>
<polygon fill="none" stroke="black" points="298,-324 183,-324 183,-288 298,-288 298,-324"/>
<text text-anchor="middle" x="240.5" y="-302.45" font-family="monospace" font-size="14.00">FunDecl main</text>
</g>
<!-- 0&#45;&gt;1 -->
<g id="edge6" class="edge">
<title>0&#45;&gt;1</title>
<path fill="none" stroke="black" d="M296.96,-359.7C288.04,-351.37 277.17,-341.22 267.36,-332.07"/>
<polygon fill="black" stroke="black" points="269.89,-329.64 260.19,-325.38 265.11,-334.76 269.89,-329.64"/>
</g>
<!-- 7 -->
<g id="node8" class="node">
<title>7</title>
<polygon fill="none" stroke="black" points="466.5,-324 318.5,-324 318.5,-288 466.5,-288 466.5,-324"/>
<text text-anchor="middle" x="392.5" y="-302.45" font-family="monospace" font-size="14.00">FunDecl addThree</text>
</g>
<!-- 0&#45;&gt;7 -->
<g id="edge13" class="edge">
<title>0&#45;&gt;7</title>
<path fill="none" stroke="black" d="M334.53,-359.7C343.7,-351.37 354.85,-341.22 364.93,-332.07"/>
<polygon fill="black" stroke="black" points="367.25,-334.68 372.3,-325.37 362.54,-329.5 367.25,-334.68"/>
</g>
<!-- 2 -->
<g id="node3" class="node">
<title>2</title>
<polygon fill="none" stroke="black" points="263.5,-252 209.5,-252 209.5,-216 263.5,-216 263.5,-252"/>
<text text-anchor="middle" x="236.5" y="-230.45" font-family="monospace" font-size="14.00">App</text>
</g>
<!-- 1&#45;&gt;2 -->
<g id="edge5" class="edge">
<title>1&#45;&gt;2</title>
<path fill="none" stroke="black" d="M239.51,-287.7C239.09,-280.41 238.6,-271.73 238.13,-263.54"/>
<polygon fill="black" stroke="black" points="241.63,-263.4 237.56,-253.62 234.64,-263.8 241.63,-263.4"/>
</g>
<!-- 3 -->
<g id="node4" class="node">
<title>3</title>
<polygon fill="none" stroke="black" points="115,-180 0,-180 0,-144 115,-144 115,-180"/>
<text text-anchor="middle" x="57.5" y="-158.45" font-family="monospace" font-size="14.00">Var addThree</text>
</g>
<!-- 2&#45;&gt;3 -->
<g id="edge1" class="edge">
<title>2&#45;&gt;3</title>
<path fill="none" stroke="black" d="M209.31,-222.37C183.74,-212.37 144.7,-197.1 112.62,-184.55"/>
<polygon fill="black" stroke="black" points="114.03,-181.35 103.44,-180.96 111.48,-187.87 114.03,-181.35"/>
</g>
<!-- 4 -->
<g id="node5" class="node">
<title>4</title>
<polygon fill="none" stroke="black" points="190.12,-180 132.88,-180 132.88,-144 190.12,-144 190.12,-180"/>
<text text-anchor="middle" x="161.5" y="-158.45" font-family="monospace" font-size="14.00">Lit 1</text>
</g>
<!-- 2&#45;&gt;4 -->
<g id="edge2" class="edge">
<title>2&#45;&gt;4</title>
<path fill="none" stroke="black" d="M217.96,-215.7C209.04,-207.37 198.17,-197.22 188.36,-188.07"/>
<polygon fill="black" stroke="black" points="190.89,-185.64 181.19,-181.38 186.11,-190.76 190.89,-185.64"/>
</g>
<!-- 5 -->
<g id="node6" class="node">
<title>5</title>
<polygon fill="none" stroke="black" points="265.12,-180 207.88,-180 207.88,-144 265.12,-144 265.12,-180"/>
<text text-anchor="middle" x="236.5" y="-158.45" font-family="monospace" font-size="14.00">Lit 2</text>
</g>
<!-- 2&#45;&gt;5 -->
<g id="edge3" class="edge">
<title>2&#45;&gt;5</title>
<path fill="none" stroke="black" d="M236.5,-215.7C236.5,-208.41 236.5,-199.73 236.5,-191.54"/>
<polygon fill="black" stroke="black" points="240,-191.62 236.5,-181.62 233,-191.62 240,-191.62"/>
</g>
<!-- 6 -->
<g id="node7" class="node">
<title>6</title>
<polygon fill="none" stroke="black" points="340.12,-180 282.88,-180 282.88,-144 340.12,-144 340.12,-180"/>
<text text-anchor="middle" x="311.5" y="-158.45" font-family="monospace" font-size="14.00">Lit 3</text>
</g>
<!-- 2&#45;&gt;6 -->
<g id="edge4" class="edge">
<title>2&#45;&gt;6</title>
<path fill="none" stroke="black" d="M255.04,-215.7C263.96,-207.37 274.83,-197.22 284.64,-188.07"/>
<polygon fill="black" stroke="black" points="286.89,-190.76 291.81,-181.38 282.11,-185.64 286.89,-190.76"/>
</g>
<!-- 8 -->
<g id="node9" class="node">
<title>8</title>
<polygon fill="none" stroke="black" points="451,-252 336,-252 336,-216 451,-216 451,-252"/>
<text text-anchor="middle" x="393.5" y="-230.45" font-family="monospace" font-size="14.00">Lambda z y x</text>
</g>
<!-- 7&#45;&gt;8 -->
<g id="edge12" class="edge">
<title>7&#45;&gt;8</title>
<path fill="none" stroke="black" d="M392.75,-287.7C392.85,-280.41 392.98,-271.73 393.09,-263.54"/>
<polygon fill="black" stroke="black" points="396.59,-263.67 393.23,-253.62 389.59,-263.57 396.59,-263.67"/>
</g>
<!-- 9 -->
<g id="node10" class="node">
<title>9</title>
<polygon fill="none" stroke="black" points="432.38,-180 358.62,-180 358.62,-144 432.38,-144 432.38,-180"/>
<text text-anchor="middle" x="395.5" y="-158.45" font-family="monospace" font-size="14.00">BinOp +</text>
</g>
<!-- 8&#45;&gt;9 -->
<g id="edge11" class="edge">
<title>8&#45;&gt;9</title>
<path fill="none" stroke="black" d="M393.99,-215.7C394.2,-208.41 394.45,-199.73 394.68,-191.54"/>
<polygon fill="black" stroke="black" points="398.18,-191.71 394.97,-181.62 391.18,-191.51 398.18,-191.71"/>
</g>
<!-- 10 -->
<g id="node11" class="node">
<title>10</title>
<polygon fill="none" stroke="black" points="390.38,-108 316.62,-108 316.62,-72 390.38,-72 390.38,-108"/>
<text text-anchor="middle" x="353.5" y="-86.45" font-family="monospace" font-size="14.00">BinOp +</text>
</g>
<!-- 9&#45;&gt;10 -->
<g id="edge9" class="edge">
<title>9&#45;&gt;10</title>
<path fill="none" stroke="black" d="M385.12,-143.7C380.44,-135.9 374.81,-126.51 369.6,-117.83"/>
<polygon fill="black" stroke="black" points="372.69,-116.18 364.54,-109.4 366.69,-119.78 372.69,-116.18"/>
</g>
<!-- 13 -->
<g id="node14" class="node">
<title>13</title>
<polygon fill="none" stroke="black" points="466.12,-108 408.88,-108 408.88,-72 466.12,-72 466.12,-108"/>
<text text-anchor="middle" x="437.5" y="-86.45" font-family="monospace" font-size="14.00">Var z</text>
</g>
<!-- 9&#45;&gt;13 -->
<g id="edge10" class="edge">
<title>9&#45;&gt;13</title>
<path fill="none" stroke="black" d="M405.88,-143.7C410.56,-135.9 416.19,-126.51 421.4,-117.83"/>
<polygon fill="black" stroke="black" points="424.31,-119.78 426.46,-109.4 418.31,-116.18 424.31,-119.78"/>
</g>
<!-- 11 -->
<g id="node12" class="node">
<title>11</title>
<polygon fill="none" stroke="black" points="345.12,-36 287.88,-36 287.88,0 345.12,0 345.12,-36"/>
<text text-anchor="middle" x="316.5" y="-14.45" font-family="monospace" font-size="14.00">Var x</text>
</g>
<!-- 10&#45;&gt;11 -->
<g id="edge7" class="edge">
<title>10&#45;&gt;11</title>
<path fill="none" stroke="black" d="M344.35,-71.7C340.28,-63.98 335.38,-54.71 330.83,-46.11"/>
<polygon fill="black" stroke="black" points="334.02,-44.65 326.25,-37.44 327.83,-47.92 334.02,-44.65"/>
</g>
<!-- 12 -->
<g id="node13" class="node">
<title>12</title>
<polygon fill="none" stroke="black" points="420.12,-36 362.88,-36 362.88,0 420.12,0 420.12,-36"/>
<text text-anchor="middle" x="391.5" y="-14.45" font-family="monospace" font-size="14.00">Var y</text>
</g>
<!-- 10&#45;&gt;12 -->
<g id="edge8" class="edge">
<title>10&#45;&gt;12</title>
<path fill="none" stroke="black" d="M362.89,-71.7C367.08,-63.98 372.11,-54.71 376.78,-46.11"/>
<polygon fill="black" stroke="black" points="379.8,-47.89 381.49,-37.43 373.65,-44.55 379.8,-47.89"/>
</g>
</g>
</svg>
