<?xml version="1.0" encoding="UTF-8" standalone="no"?>
<!DOCTYPE svg PUBLIC "-//W3C//DTD SVG 1.1//EN"
 "http://www.w3.org/Graphics/SVG/1.1/DTD/svg11.dtd">
<!-- Generated by graphviz version 12.2.1 (20241206.2353)
 -->
<!-- Title: AST Pages: 1 -->
<svg width="351pt" height="260pt"
 viewBox="0.00 0.00 351.38 260.00" xmlns="http://www.w3.org/2000/svg" xmlns:xlink="http://www.w3.org/1999/xlink">
<g id="graph0" class="graph" transform="scale(1 1) rotate(0) translate(4 256)">
<title>AST</title>
<polygon fill="white" stroke="none" points="-4,4 -4,-256 347.38,-256 347.38,4 -4,4"/>
<!-- 0 -->
<g id="node1" class="node">
<title>0</title>
<polygon fill="none" stroke="black" points="196.25,-252 122.5,-252 122.5,-216 196.25,-216 196.25,-252"/>
<text text-anchor="middle" x="159.38" y="-230.45" font-family="monospace" font-size="14.00">Program</text>
</g>
<!-- 1 -->
<g id="node2" class="node">
<title>1</title>
<polygon fill="none" stroke="black" points="144.88,-180 29.88,-180 29.88,-144 144.88,-144 144.88,-180"/>
<text text-anchor="middle" x="87.38" y="-158.45" font-family="monospace" font-size="14.00">FunDecl main</text>
</g>
<!-- 0&#45;&gt;1 -->
<g id="edge4" class="edge">
<title>0&#45;&gt;1</title>
<path fill="none" stroke="black" d="M141.58,-215.7C133.1,-207.45 122.79,-197.43 113.44,-188.35"/>
<polygon fill="black" stroke="black" points="115.91,-185.86 106.3,-181.4 111.03,-190.88 115.91,-185.86"/>
</g>
<!-- 5 -->
<g id="node6" class="node">
<title>5</title>
<polygon fill="none" stroke="black" points="302.25,-180 162.5,-180 162.5,-144 302.25,-144 302.25,-180"/>
<text text-anchor="middle" x="232.38" y="-158.45" font-family="monospace" font-size="14.00">FunDecl negBool</text>
</g>
<!-- 0&#45;&gt;5 -->
<g id="edge8" class="edge">
<title>0&#45;&gt;5</title>
<path fill="none" stroke="black" d="M177.42,-215.7C186.11,-207.37 196.69,-197.22 206.23,-188.07"/>
<polygon fill="black" stroke="black" points="208.4,-190.84 213.19,-181.39 203.55,-185.79 208.4,-190.84"/>
</g>
<!-- 2 -->
<g id="node3" class="node">
<title>2</title>
<polygon fill="none" stroke="black" points="114.38,-108 60.38,-108 60.38,-72 114.38,-72 114.38,-108"/>
<text text-anchor="middle" x="87.38" y="-86.45" font-family="monospace" font-size="14.00">App</text>
</g>
<!-- 1&#45;&gt;2 -->
<g id="edge3" class="edge">
<title>1&#45;&gt;2</title>
<path fill="none" stroke="black" d="M87.38,-143.7C87.38,-136.41 87.38,-127.73 87.38,-119.54"/>
<polygon fill="black" stroke="black" points="90.88,-119.62 87.38,-109.62 83.88,-119.62 90.88,-119.62"/>
</g>
<!-- 3 -->
<g id="node4" class="node">
<title>3</title>
<polygon fill="none" stroke="black" points="106.75,-36 0,-36 0,0 106.75,0 106.75,-36"/>
<text text-anchor="middle" x="53.38" y="-14.45" font-family="monospace" font-size="14.00">Var negBool</text>
</g>
<!-- 2&#45;&gt;3 -->
<g id="edge1" class="edge">
<title>2&#45;&gt;3</title>
<path fill="none" stroke="black" d="M78.97,-71.7C75.26,-64.07 70.82,-54.92 66.68,-46.4"/>
<polygon fill="black" stroke="black" points="69.86,-44.93 62.34,-37.47 63.56,-47.99 69.86,-44.93"/>
</g>
<!-- 4 -->
<g id="node5" class="node">
<title>4</title>
<polygon fill="none" stroke="black" points="206.38,-36 124.38,-36 124.38,0 206.38,0 206.38,-36"/>
<text text-anchor="middle" x="165.38" y="-14.45" font-family="monospace" font-size="14.00">Lit True</text>
</g>
<!-- 2&#45;&gt;4 -->
<g id="edge2" class="edge">
<title>2&#45;&gt;4</title>
<path fill="none" stroke="black" d="M106.66,-71.7C116.03,-63.28 127.47,-53.02 137.75,-43.79"/>
<polygon fill="black" stroke="black" points="139.81,-46.64 144.92,-37.36 135.14,-41.43 139.81,-46.64"/>
</g>
<!-- 6 -->
<g id="node7" class="node">
<title>6</title>
<polygon fill="none" stroke="black" points="243.38,-108 161.38,-108 161.38,-72 243.38,-72 243.38,-108"/>
<text text-anchor="middle" x="202.38" y="-86.45" font-family="monospace" font-size="14.00">Params b</text>
</g>
<!-- 5&#45;&gt;6 -->
<g id="edge5" class="edge">
<title>5&#45;&gt;6</title>
<path fill="none" stroke="black" d="M224.96,-143.7C221.73,-136.15 217.85,-127.12 214.24,-118.68"/>
<polygon fill="black" stroke="black" points="217.46,-117.31 210.3,-109.5 211.02,-120.07 217.46,-117.31"/>
</g>
<!-- 7 -->
<g id="node8" class="node">
<title>7</title>
<polygon fill="none" stroke="black" points="343.38,-108 261.38,-108 261.38,-72 343.38,-72 343.38,-108"/>
<text text-anchor="middle" x="302.38" y="-86.45" font-family="monospace" font-size="14.00">UnOp not</text>
</g>
<!-- 5&#45;&gt;7 -->
<g id="edge7" class="edge">
<title>5&#45;&gt;7</title>
<path fill="none" stroke="black" d="M249.68,-143.7C257.99,-135.39 268.1,-125.28 277.23,-116.14"/>
<polygon fill="black" stroke="black" points="279.6,-118.72 284.2,-109.17 274.65,-113.77 279.6,-118.72"/>
</g>
<!-- 8 -->
<g id="node9" class="node">
<title>8</title>
<polygon fill="none" stroke="black" points="331,-36 273.75,-36 273.75,0 331,0 331,-36"/>
<text text-anchor="middle" x="302.38" y="-14.45" font-family="monospace" font-size="14.00">Var b</text>
</g>
<!-- 7&#45;&gt;8 -->
<g id="edge6" class="edge">
<title>7&#45;&gt;8</title>
<path fill="none" stroke="black" d="M302.38,-71.7C302.38,-64.41 302.38,-55.73 302.38,-47.54"/>
<polygon fill="black" stroke="black" points="305.88,-47.62 302.38,-37.62 298.88,-47.62 305.88,-47.62"/>
</g>
</g>
</svg>
