<?xml version="1.0" encoding="UTF-8" standalone="no"?>
<!DOCTYPE svg PUBLIC "-//W3C//DTD SVG 1.1//EN"
 "http://www.w3.org/Graphics/SVG/1.1/DTD/svg11.dtd">
<!-- Generated by graphviz version 12.2.1 (20241206.2353)
 -->
<!-- Title: AST Pages: 1 -->
<svg width="345pt" height="260pt"
 viewBox="0.00 0.00 344.62 260.00" xmlns="http://www.w3.org/2000/svg" xmlns:xlink="http://www.w3.org/1999/xlink">
<g id="graph0" class="graph" transform="scale(1 1) rotate(0) translate(4 256)">
<title>AST</title>
<polygon fill="white" stroke="none" points="-4,4 -4,-256 340.62,-256 340.62,4 -4,4"/>
<!-- 0 -->
<g id="node1" class="node">
<title>0</title>
<polygon fill="none" stroke="black" points="175.88,-252 102.12,-252 102.12,-216 175.88,-216 175.88,-252"/>
<text text-anchor="middle" x="139" y="-230.45" font-family="monospace" font-size="14.00">Program</text>
</g>
<!-- 1 -->
<g id="node2" class="node">
<title>1</title>
<polygon fill="none" stroke="black" points="130.5,-180 15.5,-180 15.5,-144 130.5,-144 130.5,-180"/>
<text text-anchor="middle" x="73" y="-158.45" font-family="monospace" font-size="14.00">FunDecl main</text>
</g>
<!-- 0&#45;&gt;1 -->
<g id="edge4" class="edge">
<title>0&#45;&gt;1</title>
<path fill="none" stroke="black" d="M122.69,-215.7C114.93,-207.47 105.51,-197.48 96.97,-188.42"/>
<polygon fill="black" stroke="black" points="99.57,-186.08 90.17,-181.21 94.48,-190.88 99.57,-186.08"/>
</g>
<!-- 5 -->
<g id="node6" class="node">
<title>5</title>
<polygon fill="none" stroke="black" points="263.5,-180 148.5,-180 148.5,-144 263.5,-144 263.5,-180"/>
<text text-anchor="middle" x="206" y="-158.45" font-family="monospace" font-size="14.00">FunDecl rem7</text>
</g>
<!-- 0&#45;&gt;5 -->
<g id="edge9" class="edge">
<title>0&#45;&gt;5</title>
<path fill="none" stroke="black" d="M155.56,-215.7C163.43,-207.47 172.99,-197.48 181.67,-188.42"/>
<polygon fill="black" stroke="black" points="184.2,-190.84 188.58,-181.2 179.14,-186 184.2,-190.84"/>
</g>
<!-- 2 -->
<g id="node3" class="node">
<title>2</title>
<polygon fill="none" stroke="black" points="100,-108 46,-108 46,-72 100,-72 100,-108"/>
<text text-anchor="middle" x="73" y="-86.45" font-family="monospace" font-size="14.00">App</text>
</g>
<!-- 1&#45;&gt;2 -->
<g id="edge3" class="edge">
<title>1&#45;&gt;2</title>
<path fill="none" stroke="black" d="M73,-143.7C73,-136.41 73,-127.73 73,-119.54"/>
<polygon fill="black" stroke="black" points="76.5,-119.62 73,-109.62 69.5,-119.62 76.5,-119.62"/>
</g>
<!-- 3 -->
<g id="node4" class="node">
<title>3</title>
<polygon fill="none" stroke="black" points="82,-36 0,-36 0,0 82,0 82,-36"/>
<text text-anchor="middle" x="41" y="-14.45" font-family="monospace" font-size="14.00">Var rem7</text>
</g>
<!-- 2&#45;&gt;3 -->
<g id="edge1" class="edge">
<title>2&#45;&gt;3</title>
<path fill="none" stroke="black" d="M65.09,-71.7C61.6,-64.07 57.42,-54.92 53.52,-46.4"/>
<polygon fill="black" stroke="black" points="56.79,-45.12 49.45,-37.48 50.42,-48.03 56.79,-45.12"/>
</g>
<!-- 4 -->
<g id="node5" class="node">
<title>4</title>
<polygon fill="none" stroke="black" points="165.75,-36 100.25,-36 100.25,0 165.75,0 165.75,-36"/>
<text text-anchor="middle" x="133" y="-14.45" font-family="monospace" font-size="14.00">Lit 15</text>
</g>
<!-- 2&#45;&gt;4 -->
<g id="edge2" class="edge">
<title>2&#45;&gt;4</title>
<path fill="none" stroke="black" d="M87.83,-71.7C94.81,-63.56 103.27,-53.69 110.97,-44.7"/>
<polygon fill="black" stroke="black" points="113.5,-47.12 117.35,-37.25 108.19,-42.57 113.5,-47.12"/>
</g>
<!-- 6 -->
<g id="node7" class="node">
<title>6</title>
<polygon fill="none" stroke="black" points="223,-108 141,-108 141,-72 223,-72 223,-108"/>
<text text-anchor="middle" x="182" y="-86.45" font-family="monospace" font-size="14.00">Params x</text>
</g>
<!-- 5&#45;&gt;6 -->
<g id="edge5" class="edge">
<title>5&#45;&gt;6</title>
<path fill="none" stroke="black" d="M200.07,-143.7C197.51,-136.24 194.45,-127.32 191.59,-118.97"/>
<polygon fill="black" stroke="black" points="194.91,-117.86 188.36,-109.54 188.29,-120.13 194.91,-117.86"/>
</g>
<!-- 7 -->
<g id="node8" class="node">
<title>7</title>
<polygon fill="none" stroke="black" points="314.88,-108 241.12,-108 241.12,-72 314.88,-72 314.88,-108"/>
<text text-anchor="middle" x="278" y="-86.45" font-family="monospace" font-size="14.00">BinOp %</text>
</g>
<!-- 5&#45;&gt;7 -->
<g id="edge8" class="edge">
<title>5&#45;&gt;7</title>
<path fill="none" stroke="black" d="M223.8,-143.7C232.28,-135.45 242.59,-125.43 251.93,-116.35"/>
<polygon fill="black" stroke="black" points="254.34,-118.88 259.07,-109.4 249.46,-113.86 254.34,-118.88"/>
</g>
<!-- 8 -->
<g id="node9" class="node">
<title>8</title>
<polygon fill="none" stroke="black" points="261.62,-36 204.38,-36 204.38,0 261.62,0 261.62,-36"/>
<text text-anchor="middle" x="233" y="-14.45" font-family="monospace" font-size="14.00">Var x</text>
</g>
<!-- 7&#45;&gt;8 -->
<g id="edge6" class="edge">
<title>7&#45;&gt;8</title>
<path fill="none" stroke="black" d="M266.88,-71.7C261.81,-63.81 255.7,-54.3 250.07,-45.55"/>
<polygon fill="black" stroke="black" points="253.17,-43.9 244.81,-37.38 247.28,-47.68 253.17,-43.9"/>
</g>
<!-- 9 -->
<g id="node10" class="node">
<title>9</title>
<polygon fill="none" stroke="black" points="336.62,-36 279.38,-36 279.38,0 336.62,0 336.62,-36"/>
<text text-anchor="middle" x="308" y="-14.45" font-family="monospace" font-size="14.00">Lit 7</text>
</g>
<!-- 7&#45;&gt;9 -->
<g id="edge7" class="edge">
<title>7&#45;&gt;9</title>
<path fill="none" stroke="black" d="M285.42,-71.7C288.65,-64.15 292.52,-55.12 296.14,-46.68"/>
<polygon fill="black" stroke="black" points="299.35,-48.07 300.07,-37.5 292.92,-45.31 299.35,-48.07"/>
</g>
</g>
</svg>
