<?xml version="1.0" encoding="UTF-8" standalone="no"?>
<!DOCTYPE svg PUBLIC "-//W3C//DTD SVG 1.1//EN"
 "http://www.w3.org/Graphics/SVG/1.1/DTD/svg11.dtd">
<!-- Generated by graphviz version 12.2.1 (20241206.2353)
 -->
<!-- Title: AST Pages: 1 -->
<svg width="548pt" height="404pt"
 viewBox="0.00 0.00 547.88 404.00" xmlns="http://www.w3.org/2000/svg" xmlns:xlink="http://www.w3.org/1999/xlink">
<g id="graph0" class="graph" transform="scale(1 1) rotate(0) translate(4 400)">
<title>AST</title>
<polygon fill="white" stroke="none" points="-4,4 -4,-400 543.88,-400 543.88,4 -4,4"/>
<!-- 0 -->
<g id="node1" class="node">
<title>0</title>
<polygon fill="none" stroke="black" points="215.12,-396 141.38,-396 141.38,-360 215.12,-360 215.12,-396"/>
<text text-anchor="middle" x="178.25" y="-374.45" font-family="monospace" font-size="14.00">Program</text>
</g>
<!-- 1 -->
<g id="node2" class="node">
<title>1</title>
<polygon fill="none" stroke="black" points="165.75,-324 50.75,-324 50.75,-288 165.75,-288 165.75,-324"/>
<text text-anchor="middle" x="108.25" y="-302.45" font-family="monospace" font-size="14.00">FunDecl main</text>
</g>
<!-- 0&#45;&gt;1 -->
<g id="edge6" class="edge">
<title>0&#45;&gt;1</title>
<path fill="none" stroke="black" d="M160.95,-359.7C152.64,-351.39 142.53,-341.28 133.39,-332.14"/>
<polygon fill="black" stroke="black" points="135.97,-329.77 126.42,-325.17 131.02,-334.72 135.97,-329.77"/>
</g>
<!-- 7 -->
<g id="node8" class="node">
<title>7</title>
<polygon fill="none" stroke="black" points="315,-324 183.5,-324 183.5,-288 315,-288 315,-324"/>
<text text-anchor="middle" x="249.25" y="-302.45" font-family="monospace" font-size="14.00">FunDecl sumTwo</text>
</g>
<!-- 0&#45;&gt;7 -->
<g id="edge20" class="edge">
<title>0&#45;&gt;7</title>
<path fill="none" stroke="black" d="M195.8,-359.7C204.23,-351.39 214.48,-341.28 223.75,-332.14"/>
<polygon fill="black" stroke="black" points="226.16,-334.68 230.82,-325.17 221.25,-329.7 226.16,-334.68"/>
</g>
<!-- 2 -->
<g id="node3" class="node">
<title>2</title>
<polygon fill="none" stroke="black" points="135.25,-252 81.25,-252 81.25,-216 135.25,-216 135.25,-252"/>
<text text-anchor="middle" x="108.25" y="-230.45" font-family="monospace" font-size="14.00">App</text>
</g>
<!-- 1&#45;&gt;2 -->
<g id="edge5" class="edge">
<title>1&#45;&gt;2</title>
<path fill="none" stroke="black" d="M108.25,-287.7C108.25,-280.41 108.25,-271.73 108.25,-263.54"/>
<polygon fill="black" stroke="black" points="111.75,-263.62 108.25,-253.62 104.75,-263.62 111.75,-263.62"/>
</g>
<!-- 3 -->
<g id="node4" class="node">
<title>3</title>
<polygon fill="none" stroke="black" points="98.5,-180 0,-180 0,-144 98.5,-144 98.5,-180"/>
<text text-anchor="middle" x="49.25" y="-158.45" font-family="monospace" font-size="14.00">Var sumTwo</text>
</g>
<!-- 2&#45;&gt;3 -->
<g id="edge1" class="edge">
<title>2&#45;&gt;3</title>
<path fill="none" stroke="black" d="M93.67,-215.7C86.81,-207.56 78.49,-197.69 70.91,-188.7"/>
<polygon fill="black" stroke="black" points="73.76,-186.65 64.64,-181.26 68.41,-191.16 73.76,-186.65"/>
</g>
<!-- 4 -->
<g id="node5" class="node">
<title>4</title>
<polygon fill="none" stroke="black" points="170.25,-180 116.25,-180 116.25,-144 170.25,-144 170.25,-180"/>
<text text-anchor="middle" x="143.25" y="-158.45" font-family="monospace" font-size="14.00">List</text>
</g>
<!-- 2&#45;&gt;4 -->
<g id="edge4" class="edge">
<title>2&#45;&gt;4</title>
<path fill="none" stroke="black" d="M116.9,-215.7C120.72,-208.07 125.29,-198.92 129.55,-190.4"/>
<polygon fill="black" stroke="black" points="132.68,-191.97 134.02,-181.46 126.42,-188.84 132.68,-191.97"/>
</g>
<!-- 5 -->
<g id="node6" class="node">
<title>5</title>
<polygon fill="none" stroke="black" points="98,-108 32.5,-108 32.5,-72 98,-72 98,-108"/>
<text text-anchor="middle" x="65.25" y="-86.45" font-family="monospace" font-size="14.00">Lit 10</text>
</g>
<!-- 4&#45;&gt;5 -->
<g id="edge2" class="edge">
<title>4&#45;&gt;5</title>
<path fill="none" stroke="black" d="M123.97,-143.7C114.59,-135.28 103.16,-125.02 92.87,-115.79"/>
<polygon fill="black" stroke="black" points="95.49,-113.43 85.71,-109.36 90.81,-118.64 95.49,-113.43"/>
</g>
<!-- 6 -->
<g id="node7" class="node">
<title>6</title>
<polygon fill="none" stroke="black" points="182,-108 116.5,-108 116.5,-72 182,-72 182,-108"/>
<text text-anchor="middle" x="149.25" y="-86.45" font-family="monospace" font-size="14.00">Lit 15</text>
</g>
<!-- 4&#45;&gt;6 -->
<g id="edge3" class="edge">
<title>4&#45;&gt;6</title>
<path fill="none" stroke="black" d="M144.73,-143.7C145.36,-136.41 146.1,-127.73 146.8,-119.54"/>
<polygon fill="black" stroke="black" points="150.29,-119.87 147.65,-109.61 143.31,-119.28 150.29,-119.87"/>
</g>
<!-- 8 -->
<g id="node9" class="node">
<title>8</title>
<polygon fill="none" stroke="black" points="274.5,-252 176,-252 176,-216 274.5,-216 274.5,-252"/>
<text text-anchor="middle" x="225.25" y="-230.45" font-family="monospace" font-size="14.00">Params lst</text>
</g>
<!-- 7&#45;&gt;8 -->
<g id="edge7" class="edge">
<title>7&#45;&gt;8</title>
<path fill="none" stroke="black" d="M243.32,-287.7C240.76,-280.24 237.7,-271.32 234.84,-262.97"/>
<polygon fill="black" stroke="black" points="238.16,-261.86 231.61,-253.54 231.54,-264.13 238.16,-261.86"/>
</g>
<!-- 9 -->
<g id="node10" class="node">
<title>9</title>
<polygon fill="none" stroke="black" points="346.25,-252 292.25,-252 292.25,-216 346.25,-216 346.25,-252"/>
<text text-anchor="middle" x="319.25" y="-230.45" font-family="monospace" font-size="14.00">Case</text>
</g>
<!-- 7&#45;&gt;9 -->
<g id="edge19" class="edge">
<title>7&#45;&gt;9</title>
<path fill="none" stroke="black" d="M266.55,-287.7C274.86,-279.39 284.97,-269.28 294.11,-260.14"/>
<polygon fill="black" stroke="black" points="296.48,-262.72 301.08,-253.17 291.53,-257.77 296.48,-262.72"/>
</g>
<!-- 10 -->
<g id="node11" class="node">
<title>10</title>
<polygon fill="none" stroke="black" points="274.12,-180 200.38,-180 200.38,-144 274.12,-144 274.12,-180"/>
<text text-anchor="middle" x="237.25" y="-158.45" font-family="monospace" font-size="14.00">Var lst</text>
</g>
<!-- 9&#45;&gt;10 -->
<g id="edge8" class="edge">
<title>9&#45;&gt;10</title>
<path fill="none" stroke="black" d="M298.98,-215.7C289.12,-207.28 277.1,-197.02 266.29,-187.79"/>
<polygon fill="black" stroke="black" points="268.6,-185.16 258.72,-181.33 264.06,-190.48 268.6,-185.16"/>
</g>
<!-- 11 -->
<g id="node12" class="node">
<title>11</title>
<polygon fill="none" stroke="black" points="346.25,-180 292.25,-180 292.25,-144 346.25,-144 346.25,-180"/>
<text text-anchor="middle" x="319.25" y="-158.45" font-family="monospace" font-size="14.00">Alt</text>
</g>
<!-- 9&#45;&gt;11 -->
<g id="edge15" class="edge">
<title>9&#45;&gt;11</title>
<path fill="none" stroke="black" d="M319.25,-215.7C319.25,-208.41 319.25,-199.73 319.25,-191.54"/>
<polygon fill="black" stroke="black" points="322.75,-191.62 319.25,-181.62 315.75,-191.62 322.75,-191.62"/>
</g>
<!-- 18 -->
<g id="node19" class="node">
<title>18</title>
<polygon fill="none" stroke="black" points="446.25,-180 392.25,-180 392.25,-144 446.25,-144 446.25,-180"/>
<text text-anchor="middle" x="419.25" y="-158.45" font-family="monospace" font-size="14.00">Alt</text>
</g>
<!-- 9&#45;&gt;18 -->
<g id="edge18" class="edge">
<title>9&#45;&gt;18</title>
<path fill="none" stroke="black" d="M344.23,-215.52C356.61,-206.85 371.75,-196.25 385.18,-186.85"/>
<polygon fill="black" stroke="black" points="387.17,-189.73 393.35,-181.13 383.15,-184 387.17,-189.73"/>
</g>
<!-- 12 -->
<g id="node13" class="node">
<title>12</title>
<polygon fill="none" stroke="black" points="263.88,-108 206.62,-108 206.62,-72 263.88,-72 263.88,-108"/>
<text text-anchor="middle" x="235.25" y="-86.45" font-family="monospace" font-size="14.00">PList</text>
</g>
<!-- 11&#45;&gt;12 -->
<g id="edge13" class="edge">
<title>11&#45;&gt;12</title>
<path fill="none" stroke="black" d="M298.49,-143.7C288.29,-135.2 275.83,-124.81 264.67,-115.51"/>
<polygon fill="black" stroke="black" points="267.15,-113.03 257.23,-109.32 262.67,-118.41 267.15,-113.03"/>
</g>
<!-- 15 -->
<g id="node16" class="node">
<title>15</title>
<polygon fill="none" stroke="black" points="356.12,-108 282.38,-108 282.38,-72 356.12,-72 356.12,-108"/>
<text text-anchor="middle" x="319.25" y="-86.45" font-family="monospace" font-size="14.00">BinOp +</text>
</g>
<!-- 11&#45;&gt;15 -->
<g id="edge14" class="edge">
<title>11&#45;&gt;15</title>
<path fill="none" stroke="black" d="M319.25,-143.7C319.25,-136.41 319.25,-127.73 319.25,-119.54"/>
<polygon fill="black" stroke="black" points="322.75,-119.62 319.25,-109.62 315.75,-119.62 322.75,-119.62"/>
</g>
<!-- 13 -->
<g id="node14" class="node">
<title>13</title>
<polygon fill="none" stroke="black" points="185,-36 119.5,-36 119.5,0 185,0 185,-36"/>
<text text-anchor="middle" x="152.25" y="-14.45" font-family="monospace" font-size="14.00">PVar x</text>
</g>
<!-- 12&#45;&gt;13 -->
<g id="edge9" class="edge">
<title>12&#45;&gt;13</title>
<path fill="none" stroke="black" d="M214.73,-71.7C204.66,-63.2 192.34,-52.81 181.32,-43.51"/>
<polygon fill="black" stroke="black" points="183.88,-41.09 173.98,-37.32 179.36,-46.45 183.88,-41.09"/>
</g>
<!-- 14 -->
<g id="node15" class="node">
<title>14</title>
<polygon fill="none" stroke="black" points="269,-36 203.5,-36 203.5,0 269,0 269,-36"/>
<text text-anchor="middle" x="236.25" y="-14.45" font-family="monospace" font-size="14.00">PVar y</text>
</g>
<!-- 12&#45;&gt;14 -->
<g id="edge10" class="edge">
<title>12&#45;&gt;14</title>
<path fill="none" stroke="black" d="M235.5,-71.7C235.6,-64.41 235.73,-55.73 235.84,-47.54"/>
<polygon fill="black" stroke="black" points="239.34,-47.67 235.98,-37.62 232.34,-47.57 239.34,-47.67"/>
</g>
<!-- 16 -->
<g id="node17" class="node">
<title>16</title>
<polygon fill="none" stroke="black" points="345.88,-36 288.62,-36 288.62,0 345.88,0 345.88,-36"/>
<text text-anchor="middle" x="317.25" y="-14.45" font-family="monospace" font-size="14.00">Var x</text>
</g>
<!-- 15&#45;&gt;16 -->
<g id="edge11" class="edge">
<title>15&#45;&gt;16</title>
<path fill="none" stroke="black" d="M318.76,-71.7C318.55,-64.41 318.3,-55.73 318.07,-47.54"/>
<polygon fill="black" stroke="black" points="321.57,-47.51 317.78,-37.62 314.57,-47.71 321.57,-47.51"/>
</g>
<!-- 17 -->
<g id="node18" class="node">
<title>17</title>
<polygon fill="none" stroke="black" points="420.88,-36 363.62,-36 363.62,0 420.88,0 420.88,-36"/>
<text text-anchor="middle" x="392.25" y="-14.45" font-family="monospace" font-size="14.00">Var y</text>
</g>
<!-- 15&#45;&gt;17 -->
<g id="edge12" class="edge">
<title>15&#45;&gt;17</title>
<path fill="none" stroke="black" d="M337.29,-71.7C345.98,-63.37 356.56,-53.22 366.11,-44.07"/>
<polygon fill="black" stroke="black" points="368.27,-46.84 373.07,-37.39 363.43,-41.79 368.27,-46.84"/>
</g>
<!-- 19 -->
<g id="node20" class="node">
<title>19</title>
<polygon fill="none" stroke="black" points="464.38,-108 374.12,-108 374.12,-72 464.38,-72 464.38,-108"/>
<text text-anchor="middle" x="419.25" y="-86.45" font-family="monospace" font-size="14.00">PWildcard</text>
</g>
<!-- 18&#45;&gt;19 -->
<g id="edge16" class="edge">
<title>18&#45;&gt;19</title>
<path fill="none" stroke="black" d="M419.25,-143.7C419.25,-136.41 419.25,-127.73 419.25,-119.54"/>
<polygon fill="black" stroke="black" points="422.75,-119.62 419.25,-109.62 415.75,-119.62 422.75,-119.62"/>
</g>
<!-- 20 -->
<g id="node21" class="node">
<title>20</title>
<polygon fill="none" stroke="black" points="539.88,-108 482.62,-108 482.62,-72 539.88,-72 539.88,-108"/>
<text text-anchor="middle" x="511.25" y="-86.45" font-family="monospace" font-size="14.00">Lit 0</text>
</g>
<!-- 18&#45;&gt;20 -->
<g id="edge17" class="edge">
<title>18&#45;&gt;20</title>
<path fill="none" stroke="black" d="M441.99,-143.7C453.27,-135.11 467.08,-124.61 479.39,-115.24"/>
<polygon fill="black" stroke="black" points="481.41,-118.1 487.25,-109.26 477.17,-112.53 481.41,-118.1"/>
</g>
</g>
</svg>
