<?xml version="1.0" encoding="UTF-8" standalone="no"?>
<!DOCTYPE svg PUBLIC "-//W3C//DTD SVG 1.1//EN"
 "http://www.w3.org/Graphics/SVG/1.1/DTD/svg11.dtd">
<!-- Generated by graphviz version 12.2.1 (20241206.2353)
 -->
<!-- Title: AST Pages: 1 -->
<svg width="769pt" height="404pt"
 viewBox="0.00 0.00 769.00 404.00" xmlns="http://www.w3.org/2000/svg" xmlns:xlink="http://www.w3.org/1999/xlink">
<g id="graph0" class="graph" transform="scale(1 1) rotate(0) translate(4 400)">
<title>AST</title>
<polygon fill="white" stroke="none" points="-4,4 -4,-400 765,-400 765,4 -4,4"/>
<!-- 0 -->
<g id="node1" class="node">
<title>0</title>
<polygon fill="none" stroke="black" points="296.25,-396 222.5,-396 222.5,-360 296.25,-360 296.25,-396"/>
<text text-anchor="middle" x="259.38" y="-374.45" font-family="monospace" font-size="14.00">Program</text>
</g>
<!-- 1 -->
<g id="node2" class="node">
<title>1</title>
<polygon fill="none" stroke="black" points="244.88,-324 129.88,-324 129.88,-288 244.88,-288 244.88,-324"/>
<text text-anchor="middle" x="187.38" y="-302.45" font-family="monospace" font-size="14.00">FunDecl main</text>
</g>
<!-- 0&#45;&gt;1 -->
<g id="edge5" class="edge">
<title>0&#45;&gt;1</title>
<path fill="none" stroke="black" d="M241.58,-359.7C233.1,-351.45 222.79,-341.43 213.44,-332.35"/>
<polygon fill="black" stroke="black" points="215.91,-329.86 206.3,-325.4 211.03,-334.88 215.91,-329.86"/>
</g>
<!-- 6 -->
<g id="node7" class="node">
<title>6</title>
<polygon fill="none" stroke="black" points="409.25,-324 269.5,-324 269.5,-288 409.25,-288 409.25,-324"/>
<text text-anchor="middle" x="339.38" y="-302.45" font-family="monospace" font-size="14.00">FunDecl sumFrom</text>
</g>
<!-- 0&#45;&gt;6 -->
<g id="edge20" class="edge">
<title>0&#45;&gt;6</title>
<path fill="none" stroke="black" d="M279.15,-359.7C288.77,-351.28 300.5,-341.02 311.04,-331.79"/>
<polygon fill="black" stroke="black" points="313.19,-334.56 318.41,-325.34 308.58,-329.29 313.19,-334.56"/>
</g>
<!-- 2 -->
<g id="node3" class="node">
<title>2</title>
<polygon fill="none" stroke="black" points="200.38,-252 146.38,-252 146.38,-216 200.38,-216 200.38,-252"/>
<text text-anchor="middle" x="173.38" y="-230.45" font-family="monospace" font-size="14.00">App</text>
</g>
<!-- 1&#45;&gt;2 -->
<g id="edge4" class="edge">
<title>1&#45;&gt;2</title>
<path fill="none" stroke="black" d="M183.91,-287.7C182.44,-280.32 180.68,-271.52 179.03,-263.25"/>
<polygon fill="black" stroke="black" points="182.49,-262.71 177.09,-253.59 175.62,-264.08 182.49,-262.71"/>
</g>
<!-- 3 -->
<g id="node4" class="node">
<title>3</title>
<polygon fill="none" stroke="black" points="106.75,-180 0,-180 0,-144 106.75,-144 106.75,-180"/>
<text text-anchor="middle" x="53.38" y="-158.45" font-family="monospace" font-size="14.00">Var sumFrom</text>
</g>
<!-- 2&#45;&gt;3 -->
<g id="edge1" class="edge">
<title>2&#45;&gt;3</title>
<path fill="none" stroke="black" d="M146.15,-217.12C130.42,-207.94 110.37,-196.25 92.93,-186.07"/>
<polygon fill="black" stroke="black" points="94.73,-183.07 84.33,-181.05 91.2,-189.12 94.73,-183.07"/>
</g>
<!-- 4 -->
<g id="node5" class="node">
<title>4</title>
<polygon fill="none" stroke="black" points="215.5,-180 125.25,-180 125.25,-144 215.5,-144 215.5,-180"/>
<text text-anchor="middle" x="170.38" y="-158.45" font-family="monospace" font-size="14.00">Lit 10000</text>
</g>
<!-- 2&#45;&gt;4 -->
<g id="edge2" class="edge">
<title>2&#45;&gt;4</title>
<path fill="none" stroke="black" d="M172.63,-215.7C172.32,-208.41 171.95,-199.73 171.6,-191.54"/>
<polygon fill="black" stroke="black" points="175.1,-191.46 171.17,-181.62 168.1,-191.76 175.1,-191.46"/>
</g>
<!-- 5 -->
<g id="node6" class="node">
<title>5</title>
<polygon fill="none" stroke="black" points="291,-180 233.75,-180 233.75,-144 291,-144 291,-180"/>
<text text-anchor="middle" x="262.38" y="-158.45" font-family="monospace" font-size="14.00">Lit 0</text>
</g>
<!-- 2&#45;&gt;5 -->
<g id="edge3" class="edge">
<title>2&#45;&gt;5</title>
<path fill="none" stroke="black" d="M195.38,-215.7C206.29,-207.11 219.65,-196.61 231.56,-187.24"/>
<polygon fill="black" stroke="black" points="233.43,-190.22 239.13,-181.28 229.11,-184.71 233.43,-190.22"/>
</g>
<!-- 7 -->
<g id="node8" class="node">
<title>7</title>
<polygon fill="none" stroke="black" points="396.88,-252 281.88,-252 281.88,-216 396.88,-216 396.88,-252"/>
<text text-anchor="middle" x="339.38" y="-230.45" font-family="monospace" font-size="14.00">Params acc n</text>
</g>
<!-- 6&#45;&gt;7 -->
<g id="edge6" class="edge">
<title>6&#45;&gt;7</title>
<path fill="none" stroke="black" d="M339.38,-287.7C339.38,-280.41 339.38,-271.73 339.38,-263.54"/>
<polygon fill="black" stroke="black" points="342.88,-263.62 339.38,-253.62 335.88,-263.62 342.88,-263.62"/>
</g>
<!-- 8 -->
<g id="node9" class="node">
<title>8</title>
<polygon fill="none" stroke="black" points="471.38,-252 417.38,-252 417.38,-216 471.38,-216 471.38,-252"/>
<text text-anchor="middle" x="444.38" y="-230.45" font-family="monospace" font-size="14.00">If</text>
</g>
<!-- 6&#45;&gt;8 -->
<g id="edge19" class="edge">
<title>6&#45;&gt;8</title>
<path fill="none" stroke="black" d="M365.6,-287.52C378.73,-278.76 394.81,-268.04 409.01,-258.58"/>
<polygon fill="black" stroke="black" points="410.85,-261.56 417.22,-253.1 406.96,-255.73 410.85,-261.56"/>
</g>
<!-- 9 -->
<g id="node10" class="node">
<title>9</title>
<polygon fill="none" stroke="black" points="391.38,-180 309.38,-180 309.38,-144 391.38,-144 391.38,-180"/>
<text text-anchor="middle" x="350.38" y="-158.45" font-family="monospace" font-size="14.00">BinOp &lt;=</text>
</g>
<!-- 8&#45;&gt;9 -->
<g id="edge9" class="edge">
<title>8&#45;&gt;9</title>
<path fill="none" stroke="black" d="M421.14,-215.7C409.5,-207.03 395.23,-196.4 382.55,-186.96"/>
<polygon fill="black" stroke="black" points="384.99,-184.42 374.88,-181.25 380.81,-190.03 384.99,-184.42"/>
</g>
<!-- 12 -->
<g id="node13" class="node">
<title>12</title>
<polygon fill="none" stroke="black" points="483.25,-180 409.5,-180 409.5,-144 483.25,-144 483.25,-180"/>
<text text-anchor="middle" x="446.38" y="-158.45" font-family="monospace" font-size="14.00">Var acc</text>
</g>
<!-- 8&#45;&gt;12 -->
<g id="edge10" class="edge">
<title>8&#45;&gt;12</title>
<path fill="none" stroke="black" d="M444.87,-215.7C445.08,-208.41 445.33,-199.73 445.56,-191.54"/>
<polygon fill="black" stroke="black" points="449.06,-191.71 445.84,-181.62 442.06,-191.51 449.06,-191.71"/>
</g>
<!-- 13 -->
<g id="node14" class="node">
<title>13</title>
<polygon fill="none" stroke="black" points="570.38,-180 516.38,-180 516.38,-144 570.38,-144 570.38,-180"/>
<text text-anchor="middle" x="543.38" y="-158.45" font-family="monospace" font-size="14.00">App</text>
</g>
<!-- 8&#45;&gt;13 -->
<g id="edge18" class="edge">
<title>8&#45;&gt;13</title>
<path fill="none" stroke="black" d="M469.1,-215.52C481.36,-206.85 496.35,-196.25 509.65,-186.85"/>
<polygon fill="black" stroke="black" points="511.58,-189.77 517.73,-181.13 507.54,-184.05 511.58,-189.77"/>
</g>
<!-- 10 -->
<g id="node11" class="node">
<title>10</title>
<polygon fill="none" stroke="black" points="304,-108 246.75,-108 246.75,-72 304,-72 304,-108"/>
<text text-anchor="middle" x="275.38" y="-86.45" font-family="monospace" font-size="14.00">Var n</text>
</g>
<!-- 9&#45;&gt;10 -->
<g id="edge7" class="edge">
<title>9&#45;&gt;10</title>
<path fill="none" stroke="black" d="M331.84,-143.7C322.91,-135.37 312.04,-125.22 302.23,-116.07"/>
<polygon fill="black" stroke="black" points="304.77,-113.64 295.07,-109.38 299.99,-118.76 304.77,-113.64"/>
</g>
<!-- 11 -->
<g id="node12" class="node">
<title>11</title>
<polygon fill="none" stroke="black" points="379,-108 321.75,-108 321.75,-72 379,-72 379,-108"/>
<text text-anchor="middle" x="350.38" y="-86.45" font-family="monospace" font-size="14.00">Lit 0</text>
</g>
<!-- 9&#45;&gt;11 -->
<g id="edge8" class="edge">
<title>9&#45;&gt;11</title>
<path fill="none" stroke="black" d="M350.38,-143.7C350.38,-136.41 350.38,-127.73 350.38,-119.54"/>
<polygon fill="black" stroke="black" points="353.88,-119.62 350.38,-109.62 346.88,-119.62 353.88,-119.62"/>
</g>
<!-- 14 -->
<g id="node15" class="node">
<title>14</title>
<polygon fill="none" stroke="black" points="503.75,-108 397,-108 397,-72 503.75,-72 503.75,-108"/>
<text text-anchor="middle" x="450.38" y="-86.45" font-family="monospace" font-size="14.00">Var sumFrom</text>
</g>
<!-- 13&#45;&gt;14 -->
<g id="edge11" class="edge">
<title>13&#45;&gt;14</title>
<path fill="none" stroke="black" d="M520.39,-143.7C508.98,-135.11 495.02,-124.61 482.58,-115.24"/>
<polygon fill="black" stroke="black" points="484.73,-112.47 474.63,-109.26 480.52,-118.07 484.73,-112.47"/>
</g>
<!-- 15 -->
<g id="node16" class="node">
<title>15</title>
<polygon fill="none" stroke="black" points="595.25,-108 521.5,-108 521.5,-72 595.25,-72 595.25,-108"/>
<text text-anchor="middle" x="558.38" y="-86.45" font-family="monospace" font-size="14.00">BinOp &#45;</text>
</g>
<!-- 13&#45;&gt;15 -->
<g id="edge14" class="edge">
<title>13&#45;&gt;15</title>
<path fill="none" stroke="black" d="M547.08,-143.7C548.66,-136.32 550.55,-127.52 552.32,-119.25"/>
<polygon fill="black" stroke="black" points="555.72,-120.1 554.39,-109.58 548.87,-118.63 555.72,-120.1"/>
</g>
<!-- 18 -->
<g id="node19" class="node">
<title>18</title>
<polygon fill="none" stroke="black" points="687.25,-108 613.5,-108 613.5,-72 687.25,-72 687.25,-108"/>
<text text-anchor="middle" x="650.38" y="-86.45" font-family="monospace" font-size="14.00">BinOp +</text>
</g>
<!-- 13&#45;&gt;18 -->
<g id="edge17" class="edge">
<title>13&#45;&gt;18</title>
<path fill="none" stroke="black" d="M570.1,-143.52C583.61,-134.68 600.18,-123.84 614.75,-114.3"/>
<polygon fill="black" stroke="black" points="616.27,-117.49 622.72,-109.09 612.44,-111.63 616.27,-117.49"/>
</g>
<!-- 16 -->
<g id="node17" class="node">
<title>16</title>
<polygon fill="none" stroke="black" points="514,-36 456.75,-36 456.75,0 514,0 514,-36"/>
<text text-anchor="middle" x="485.38" y="-14.45" font-family="monospace" font-size="14.00">Var n</text>
</g>
<!-- 15&#45;&gt;16 -->
<g id="edge12" class="edge">
<title>15&#45;&gt;16</title>
<path fill="none" stroke="black" d="M540.33,-71.7C531.64,-63.37 521.06,-53.22 511.52,-44.07"/>
<polygon fill="black" stroke="black" points="514.2,-41.79 504.56,-37.39 509.35,-46.84 514.2,-41.79"/>
</g>
<!-- 17 -->
<g id="node18" class="node">
<title>17</title>
<polygon fill="none" stroke="black" points="589,-36 531.75,-36 531.75,0 589,0 589,-36"/>
<text text-anchor="middle" x="560.38" y="-14.45" font-family="monospace" font-size="14.00">Lit 1</text>
</g>
<!-- 15&#45;&gt;17 -->
<g id="edge13" class="edge">
<title>15&#45;&gt;17</title>
<path fill="none" stroke="black" d="M558.87,-71.7C559.08,-64.41 559.33,-55.73 559.56,-47.54"/>
<polygon fill="black" stroke="black" points="563.06,-47.71 559.84,-37.62 556.06,-47.51 563.06,-47.71"/>
</g>
<!-- 19 -->
<g id="node20" class="node">
<title>19</title>
<polygon fill="none" stroke="black" points="685.25,-36 611.5,-36 611.5,0 685.25,0 685.25,-36"/>
<text text-anchor="middle" x="648.38" y="-14.45" font-family="monospace" font-size="14.00">Var acc</text>
</g>
<!-- 18&#45;&gt;19 -->
<g id="edge15" class="edge">
<title>18&#45;&gt;19</title>
<path fill="none" stroke="black" d="M649.88,-71.7C649.67,-64.41 649.42,-55.73 649.19,-47.54"/>
<polygon fill="black" stroke="black" points="652.69,-47.51 648.91,-37.62 645.69,-47.71 652.69,-47.51"/>
</g>
<!-- 20 -->
<g id="node21" class="node">
<title>20</title>
<polygon fill="none" stroke="black" points="761,-36 703.75,-36 703.75,0 761,0 761,-36"/>
<text text-anchor="middle" x="732.38" y="-14.45" font-family="monospace" font-size="14.00">Var n</text>
</g>
<!-- 18&#45;&gt;20 -->
<g id="edge16" class="edge">
<title>18&#45;&gt;20</title>
<path fill="none" stroke="black" d="M670.64,-71.7C680.5,-63.28 692.53,-53.02 703.33,-43.79"/>
<polygon fill="black" stroke="black" points="705.57,-46.48 710.9,-37.33 701.03,-41.16 705.57,-46.48"/>
</g>
</g>
</svg>
