<?xml version="1.0" encoding="UTF-8" standalone="no"?>
<!DOCTYPE svg PUBLIC "-//W3C//DTD SVG 1.1//EN"
 "http://www.w3.org/Graphics/SVG/1.1/DTD/svg11.dtd">
<!-- Generated by graphviz version 12.2.1 (20241206.2353)
 -->
<!-- Title: AST Pages: 1 -->
<svg width="1444pt" height="404pt"
 viewBox="0.00 0.00 1444.12 404.00" xmlns="http://www.w3.org/2000/svg" xmlns:xlink="http://www.w3.org/1999/xlink">
<g id="graph0" class="graph" transform="scale(1 1) rotate(0) translate(4 400)">
<title>AST</title>
<polygon fill="white" stroke="none" points="-4,4 -4,-400 1440.12,-400 1440.12,4 -4,4"/>
<!-- 0 -->
<g id="node1" class="node">
<title>0</title>
<polygon fill="none" stroke="black" points="941.38,-396 867.62,-396 867.62,-360 941.38,-360 941.38,-396"/>
<text text-anchor="middle" x="904.5" y="-374.45" font-family="monospace" font-size="14.00">Program</text>
</g>
<!-- 1 -->
<g id="node2" class="node">
<title>1</title>
<polygon fill="none" stroke="black" points="623,-324 508,-324 508,-288 623,-288 623,-324"/>
<text text-anchor="middle" x="565.5" y="-302.45" font-family="monospace" font-size="14.00">FunDecl main</text>
</g>
<!-- 0&#45;&gt;1 -->
<g id="edge18" class="edge">
<title>0&#45;&gt;1</title>
<path fill="none" stroke="black" d="M867.47,-369.38C817.52,-359.09 725.8,-340.19 647.5,-324 643.22,-323.11 638.81,-322.2 634.36,-321.28"/>
<polygon fill="black" stroke="black" points="635.27,-317.9 624.77,-319.3 633.85,-324.75 635.27,-317.9"/>
</g>
<!-- 19 -->
<g id="node20" class="node">
<title>19</title>
<polygon fill="none" stroke="black" points="812.62,-324 656.38,-324 656.38,-288 812.62,-288 812.62,-324"/>
<text text-anchor="middle" x="734.5" y="-302.45" font-family="monospace" font-size="14.00">FunDecl floatMult</text>
</g>
<!-- 0&#45;&gt;19 -->
<g id="edge23" class="edge">
<title>0&#45;&gt;19</title>
<path fill="none" stroke="black" d="M867.19,-361.64C843.74,-351.98 813.13,-339.38 787.22,-328.71"/>
<polygon fill="black" stroke="black" points="788.78,-325.57 778.2,-325 786.12,-332.04 788.78,-325.57"/>
</g>
<!-- 24 -->
<g id="node25" class="node">
<title>24</title>
<polygon fill="none" stroke="black" points="978.5,-324 830.5,-324 830.5,-288 978.5,-288 978.5,-324"/>
<text text-anchor="middle" x="904.5" y="-302.45" font-family="monospace" font-size="14.00">FunDecl floatDiv</text>
</g>
<!-- 0&#45;&gt;24 -->
<g id="edge28" class="edge">
<title>0&#45;&gt;24</title>
<path fill="none" stroke="black" d="M904.5,-359.7C904.5,-352.41 904.5,-343.73 904.5,-335.54"/>
<polygon fill="black" stroke="black" points="908,-335.62 904.5,-325.62 901,-335.62 908,-335.62"/>
</g>
<!-- 29 -->
<g id="node30" class="node">
<title>29</title>
<polygon fill="none" stroke="black" points="1144.5,-324 996.5,-324 996.5,-288 1144.5,-288 1144.5,-324"/>
<text text-anchor="middle" x="1070.5" y="-302.45" font-family="monospace" font-size="14.00">FunDecl floatSub</text>
</g>
<!-- 0&#45;&gt;29 -->
<g id="edge33" class="edge">
<title>0&#45;&gt;29</title>
<path fill="none" stroke="black" d="M941.75,-361.29C964.5,-351.7 993.92,-339.29 1018.9,-328.76"/>
<polygon fill="black" stroke="black" points="1020.04,-332.08 1027.9,-324.96 1017.32,-325.63 1020.04,-332.08"/>
</g>
<!-- 34 -->
<g id="node35" class="node">
<title>34</title>
<polygon fill="none" stroke="black" points="1340.5,-324 1192.5,-324 1192.5,-288 1340.5,-288 1340.5,-324"/>
<text text-anchor="middle" x="1266.5" y="-302.45" font-family="monospace" font-size="14.00">FunDecl floatSum</text>
</g>
<!-- 0&#45;&gt;34 -->
<g id="edge38" class="edge">
<title>0&#45;&gt;34</title>
<path fill="none" stroke="black" d="M941.54,-369.84C997.53,-359.01 1105.24,-338.18 1181.28,-323.48"/>
<polygon fill="black" stroke="black" points="1181.62,-326.98 1190.77,-321.64 1180.29,-320.11 1181.62,-326.98"/>
</g>
<!-- 2 -->
<g id="node3" class="node">
<title>2</title>
<polygon fill="none" stroke="black" points="575.38,-252 501.62,-252 501.62,-216 575.38,-216 575.38,-252"/>
<text text-anchor="middle" x="538.5" y="-230.45" font-family="monospace" font-size="14.00">BinOp /</text>
</g>
<!-- 1&#45;&gt;2 -->
<g id="edge17" class="edge">
<title>1&#45;&gt;2</title>
<path fill="none" stroke="black" d="M558.83,-287.7C555.92,-280.15 552.43,-271.12 549.18,-262.68"/>
<polygon fill="black" stroke="black" points="552.51,-261.59 545.64,-253.52 545.98,-264.11 552.51,-261.59"/>
</g>
<!-- 3 -->
<g id="node4" class="node">
<title>3</title>
<polygon fill="none" stroke="black" points="522.38,-180 448.62,-180 448.62,-144 522.38,-144 522.38,-180"/>
<text text-anchor="middle" x="485.5" y="-158.45" font-family="monospace" font-size="14.00">BinOp *</text>
</g>
<!-- 2&#45;&gt;3 -->
<g id="edge9" class="edge">
<title>2&#45;&gt;3</title>
<path fill="none" stroke="black" d="M525.4,-215.7C519.37,-207.73 512.08,-198.1 505.39,-189.26"/>
<polygon fill="black" stroke="black" points="508.19,-187.17 499.36,-181.31 502.61,-191.4 508.19,-187.17"/>
</g>
<!-- 12 -->
<g id="node13" class="node">
<title>12</title>
<polygon fill="none" stroke="black" points="660.5,-180 606.5,-180 606.5,-144 660.5,-144 660.5,-180"/>
<text text-anchor="middle" x="633.5" y="-158.45" font-family="monospace" font-size="14.00">App</text>
</g>
<!-- 2&#45;&gt;12 -->
<g id="edge16" class="edge">
<title>2&#45;&gt;12</title>
<path fill="none" stroke="black" d="M561.98,-215.7C573.74,-207.03 588.17,-196.4 600.98,-186.96"/>
<polygon fill="black" stroke="black" points="602.76,-189.99 608.74,-181.24 598.61,-184.36 602.76,-189.99"/>
</g>
<!-- 4 -->
<g id="node5" class="node">
<title>4</title>
<polygon fill="none" stroke="black" points="242.5,-108 188.5,-108 188.5,-72 242.5,-72 242.5,-108"/>
<text text-anchor="middle" x="215.5" y="-86.45" font-family="monospace" font-size="14.00">App</text>
</g>
<!-- 3&#45;&gt;4 -->
<g id="edge4" class="edge">
<title>3&#45;&gt;4</title>
<path fill="none" stroke="black" d="M448.24,-151.34C397.13,-138.09 305.75,-114.4 254,-100.98"/>
<polygon fill="black" stroke="black" points="254.99,-97.62 244.44,-98.5 253.24,-104.4 254.99,-97.62"/>
</g>
<!-- 8 -->
<g id="node9" class="node">
<title>8</title>
<polygon fill="none" stroke="black" points="512.5,-108 458.5,-108 458.5,-72 512.5,-72 512.5,-108"/>
<text text-anchor="middle" x="485.5" y="-86.45" font-family="monospace" font-size="14.00">App</text>
</g>
<!-- 3&#45;&gt;8 -->
<g id="edge8" class="edge">
<title>3&#45;&gt;8</title>
<path fill="none" stroke="black" d="M485.5,-143.7C485.5,-136.41 485.5,-127.73 485.5,-119.54"/>
<polygon fill="black" stroke="black" points="489,-119.62 485.5,-109.62 482,-119.62 489,-119.62"/>
</g>
<!-- 5 -->
<g id="node6" class="node">
<title>5</title>
<polygon fill="none" stroke="black" points="115,-36 0,-36 0,0 115,0 115,-36"/>
<text text-anchor="middle" x="57.5" y="-14.45" font-family="monospace" font-size="14.00">Var floatSum</text>
</g>
<!-- 4&#45;&gt;5 -->
<g id="edge1" class="edge">
<title>4&#45;&gt;5</title>
<path fill="none" stroke="black" d="M188.34,-76.97C166.06,-67.1 133.94,-52.87 107.1,-40.97"/>
<polygon fill="black" stroke="black" points="108.67,-37.84 98.11,-36.99 105.83,-44.24 108.67,-37.84"/>
</g>
<!-- 6 -->
<g id="node7" class="node">
<title>6</title>
<polygon fill="none" stroke="black" points="206.38,-36 132.62,-36 132.62,0 206.38,0 206.38,-36"/>
<text text-anchor="middle" x="169.5" y="-14.45" font-family="monospace" font-size="14.00">Lit 2.5</text>
</g>
<!-- 4&#45;&gt;6 -->
<g id="edge2" class="edge">
<title>4&#45;&gt;6</title>
<path fill="none" stroke="black" d="M204.13,-71.7C198.95,-63.81 192.7,-54.3 186.94,-45.55"/>
<polygon fill="black" stroke="black" points="189.99,-43.8 181.57,-37.37 184.14,-47.65 189.99,-43.8"/>
</g>
<!-- 7 -->
<g id="node8" class="node">
<title>7</title>
<polygon fill="none" stroke="black" points="298.38,-36 224.62,-36 224.62,0 298.38,0 298.38,-36"/>
<text text-anchor="middle" x="261.5" y="-14.45" font-family="monospace" font-size="14.00">Lit 3.0</text>
</g>
<!-- 4&#45;&gt;7 -->
<g id="edge3" class="edge">
<title>4&#45;&gt;7</title>
<path fill="none" stroke="black" d="M226.87,-71.7C232.05,-63.81 238.3,-54.3 244.06,-45.55"/>
<polygon fill="black" stroke="black" points="246.86,-47.65 249.43,-37.37 241.01,-43.8 246.86,-47.65"/>
</g>
<!-- 9 -->
<g id="node10" class="node">
<title>9</title>
<polygon fill="none" stroke="black" points="431,-36 316,-36 316,0 431,0 431,-36"/>
<text text-anchor="middle" x="373.5" y="-14.45" font-family="monospace" font-size="14.00">Var floatSub</text>
</g>
<!-- 8&#45;&gt;9 -->
<g id="edge5" class="edge">
<title>8&#45;&gt;9</title>
<path fill="none" stroke="black" d="M458.1,-71.88C443.97,-63.04 426.52,-52.14 411.14,-42.53"/>
<polygon fill="black" stroke="black" points="413.01,-39.57 402.68,-37.24 409.3,-45.5 413.01,-39.57"/>
</g>
<!-- 10 -->
<g id="node11" class="node">
<title>10</title>
<polygon fill="none" stroke="black" points="522.38,-36 448.62,-36 448.62,0 522.38,0 522.38,-36"/>
<text text-anchor="middle" x="485.5" y="-14.45" font-family="monospace" font-size="14.00">Lit 2.5</text>
</g>
<!-- 8&#45;&gt;10 -->
<g id="edge6" class="edge">
<title>8&#45;&gt;10</title>
<path fill="none" stroke="black" d="M485.5,-71.7C485.5,-64.41 485.5,-55.73 485.5,-47.54"/>
<polygon fill="black" stroke="black" points="489,-47.62 485.5,-37.62 482,-47.62 489,-47.62"/>
</g>
<!-- 11 -->
<g id="node12" class="node">
<title>11</title>
<polygon fill="none" stroke="black" points="614.38,-36 540.62,-36 540.62,0 614.38,0 614.38,-36"/>
<text text-anchor="middle" x="577.5" y="-14.45" font-family="monospace" font-size="14.00">Lit 3.5</text>
</g>
<!-- 8&#45;&gt;11 -->
<g id="edge7" class="edge">
<title>8&#45;&gt;11</title>
<path fill="none" stroke="black" d="M508.24,-71.7C519.52,-63.11 533.33,-52.61 545.64,-43.24"/>
<polygon fill="black" stroke="black" points="547.66,-46.1 553.5,-37.26 543.42,-40.53 547.66,-46.1"/>
</g>
<!-- 13 -->
<g id="node14" class="node">
<title>13</title>
<polygon fill="none" stroke="black" points="656.12,-108 532.88,-108 532.88,-72 656.12,-72 656.12,-108"/>
<text text-anchor="middle" x="594.5" y="-86.45" font-family="monospace" font-size="14.00">Var floatMult</text>
</g>
<!-- 12&#45;&gt;13 -->
<g id="edge10" class="edge">
<title>12&#45;&gt;13</title>
<path fill="none" stroke="black" d="M623.86,-143.7C619.56,-135.98 614.4,-126.71 609.61,-118.11"/>
<polygon fill="black" stroke="black" points="612.69,-116.46 604.77,-109.43 606.58,-119.87 612.69,-116.46"/>
</g>
<!-- 14 -->
<g id="node15" class="node">
<title>14</title>
<polygon fill="none" stroke="black" points="748.38,-108 674.62,-108 674.62,-72 748.38,-72 748.38,-108"/>
<text text-anchor="middle" x="711.5" y="-86.45" font-family="monospace" font-size="14.00">Lit 1.5</text>
</g>
<!-- 12&#45;&gt;14 -->
<g id="edge11" class="edge">
<title>12&#45;&gt;14</title>
<path fill="none" stroke="black" d="M652.78,-143.7C662.16,-135.28 673.59,-125.02 683.88,-115.79"/>
<polygon fill="black" stroke="black" points="685.94,-118.64 691.04,-109.36 681.26,-113.43 685.94,-118.64"/>
</g>
<!-- 15 -->
<g id="node16" class="node">
<title>15</title>
<polygon fill="none" stroke="black" points="825.5,-108 771.5,-108 771.5,-72 825.5,-72 825.5,-108"/>
<text text-anchor="middle" x="798.5" y="-86.45" font-family="monospace" font-size="14.00">App</text>
</g>
<!-- 12&#45;&gt;15 -->
<g id="edge15" class="edge">
<title>12&#45;&gt;15</title>
<path fill="none" stroke="black" d="M660.75,-149.44C688.09,-137.84 730.43,-119.88 760.95,-106.93"/>
<polygon fill="black" stroke="black" points="761.98,-110.29 769.82,-103.17 759.25,-103.85 761.98,-110.29"/>
</g>
<!-- 16 -->
<g id="node17" class="node">
<title>16</title>
<polygon fill="none" stroke="black" points="747,-36 632,-36 632,0 747,0 747,-36"/>
<text text-anchor="middle" x="689.5" y="-14.45" font-family="monospace" font-size="14.00">Var floatDiv</text>
</g>
<!-- 15&#45;&gt;16 -->
<g id="edge12" class="edge">
<title>15&#45;&gt;16</title>
<path fill="none" stroke="black" d="M771.28,-71.52C757.52,-62.68 740.63,-51.84 725.79,-42.3"/>
<polygon fill="black" stroke="black" points="727.96,-39.54 717.65,-37.08 724.17,-45.43 727.96,-39.54"/>
</g>
<!-- 17 -->
<g id="node18" class="node">
<title>17</title>
<polygon fill="none" stroke="black" points="838.38,-36 764.62,-36 764.62,0 838.38,0 838.38,-36"/>
<text text-anchor="middle" x="801.5" y="-14.45" font-family="monospace" font-size="14.00">Lit 3.0</text>
</g>
<!-- 15&#45;&gt;17 -->
<g id="edge13" class="edge">
<title>15&#45;&gt;17</title>
<path fill="none" stroke="black" d="M799.24,-71.7C799.55,-64.41 799.93,-55.73 800.28,-47.54"/>
<polygon fill="black" stroke="black" points="803.77,-47.76 800.7,-37.62 796.78,-47.46 803.77,-47.76"/>
</g>
<!-- 18 -->
<g id="node19" class="node">
<title>18</title>
<polygon fill="none" stroke="black" points="930.38,-36 856.62,-36 856.62,0 930.38,0 930.38,-36"/>
<text text-anchor="middle" x="893.5" y="-14.45" font-family="monospace" font-size="14.00">Lit 2.0</text>
</g>
<!-- 15&#45;&gt;18 -->
<g id="edge14" class="edge">
<title>15&#45;&gt;18</title>
<path fill="none" stroke="black" d="M821.98,-71.7C833.74,-63.03 848.17,-52.4 860.98,-42.96"/>
<polygon fill="black" stroke="black" points="862.76,-45.99 868.74,-37.24 858.61,-40.36 862.76,-45.99"/>
</g>
<!-- 20 -->
<g id="node21" class="node">
<title>20</title>
<polygon fill="none" stroke="black" points="691.75,-252 593.25,-252 593.25,-216 691.75,-216 691.75,-252"/>
<text text-anchor="middle" x="642.5" y="-230.45" font-family="monospace" font-size="14.00">Params y x</text>
</g>
<!-- 19&#45;&gt;20 -->
<g id="edge19" class="edge">
<title>19&#45;&gt;20</title>
<path fill="none" stroke="black" d="M711.76,-287.7C700.48,-279.11 686.67,-268.61 674.36,-259.24"/>
<polygon fill="black" stroke="black" points="676.58,-256.53 666.5,-253.26 672.34,-262.1 676.58,-256.53"/>
</g>
<!-- 21 -->
<g id="node22" class="node">
<title>21</title>
<polygon fill="none" stroke="black" points="783.38,-252 709.62,-252 709.62,-216 783.38,-216 783.38,-252"/>
<text text-anchor="middle" x="746.5" y="-230.45" font-family="monospace" font-size="14.00">BinOp *</text>
</g>
<!-- 19&#45;&gt;21 -->
<g id="edge22" class="edge">
<title>19&#45;&gt;21</title>
<path fill="none" stroke="black" d="M737.47,-287.7C738.73,-280.32 740.24,-271.52 741.66,-263.25"/>
<polygon fill="black" stroke="black" points="745.07,-264.04 743.31,-253.6 738.17,-262.86 745.07,-264.04"/>
</g>
<!-- 22 -->
<g id="node23" class="node">
<title>22</title>
<polygon fill="none" stroke="black" points="756.12,-180 698.88,-180 698.88,-144 756.12,-144 756.12,-180"/>
<text text-anchor="middle" x="727.5" y="-158.45" font-family="monospace" font-size="14.00">Var x</text>
</g>
<!-- 21&#45;&gt;22 -->
<g id="edge20" class="edge">
<title>21&#45;&gt;22</title>
<path fill="none" stroke="black" d="M741.8,-215.7C739.78,-208.24 737.36,-199.32 735.09,-190.97"/>
<polygon fill="black" stroke="black" points="738.54,-190.3 732.54,-181.57 731.78,-192.13 738.54,-190.3"/>
</g>
<!-- 23 -->
<g id="node24" class="node">
<title>23</title>
<polygon fill="none" stroke="black" points="831.12,-180 773.88,-180 773.88,-144 831.12,-144 831.12,-180"/>
<text text-anchor="middle" x="802.5" y="-158.45" font-family="monospace" font-size="14.00">Var y</text>
</g>
<!-- 21&#45;&gt;23 -->
<g id="edge21" class="edge">
<title>21&#45;&gt;23</title>
<path fill="none" stroke="black" d="M760.34,-215.7C766.79,-207.64 774.58,-197.89 781.71,-188.98"/>
<polygon fill="black" stroke="black" points="784.36,-191.28 787.87,-181.29 778.89,-186.91 784.36,-191.28"/>
</g>
<!-- 25 -->
<g id="node26" class="node">
<title>25</title>
<polygon fill="none" stroke="black" points="899.75,-252 801.25,-252 801.25,-216 899.75,-216 899.75,-252"/>
<text text-anchor="middle" x="850.5" y="-230.45" font-family="monospace" font-size="14.00">Params y x</text>
</g>
<!-- 24&#45;&gt;25 -->
<g id="edge24" class="edge">
<title>24&#45;&gt;25</title>
<path fill="none" stroke="black" d="M891.15,-287.7C884.94,-279.64 877.42,-269.89 870.54,-260.98"/>
<polygon fill="black" stroke="black" points="873.5,-259.08 864.62,-253.3 867.96,-263.36 873.5,-259.08"/>
</g>
<!-- 26 -->
<g id="node27" class="node">
<title>26</title>
<polygon fill="none" stroke="black" points="991.38,-252 917.62,-252 917.62,-216 991.38,-216 991.38,-252"/>
<text text-anchor="middle" x="954.5" y="-230.45" font-family="monospace" font-size="14.00">BinOp /</text>
</g>
<!-- 24&#45;&gt;26 -->
<g id="edge27" class="edge">
<title>24&#45;&gt;26</title>
<path fill="none" stroke="black" d="M916.86,-287.7C922.55,-279.73 929.43,-270.1 935.74,-261.26"/>
<polygon fill="black" stroke="black" points="938.44,-263.51 941.4,-253.34 932.74,-259.44 938.44,-263.51"/>
</g>
<!-- 27 -->
<g id="node28" class="node">
<title>27</title>
<polygon fill="none" stroke="black" points="964.12,-180 906.88,-180 906.88,-144 964.12,-144 964.12,-180"/>
<text text-anchor="middle" x="935.5" y="-158.45" font-family="monospace" font-size="14.00">Var x</text>
</g>
<!-- 26&#45;&gt;27 -->
<g id="edge25" class="edge">
<title>26&#45;&gt;27</title>
<path fill="none" stroke="black" d="M949.8,-215.7C947.78,-208.24 945.36,-199.32 943.09,-190.97"/>
<polygon fill="black" stroke="black" points="946.54,-190.3 940.54,-181.57 939.78,-192.13 946.54,-190.3"/>
</g>
<!-- 28 -->
<g id="node29" class="node">
<title>28</title>
<polygon fill="none" stroke="black" points="1039.12,-180 981.88,-180 981.88,-144 1039.12,-144 1039.12,-180"/>
<text text-anchor="middle" x="1010.5" y="-158.45" font-family="monospace" font-size="14.00">Var y</text>
</g>
<!-- 26&#45;&gt;28 -->
<g id="edge26" class="edge">
<title>26&#45;&gt;28</title>
<path fill="none" stroke="black" d="M968.34,-215.7C974.79,-207.64 982.58,-197.89 989.71,-188.98"/>
<polygon fill="black" stroke="black" points="992.36,-191.28 995.87,-181.29 986.89,-186.91 992.36,-191.28"/>
</g>
<!-- 30 -->
<g id="node31" class="node">
<title>30</title>
<polygon fill="none" stroke="black" points="1107.75,-252 1009.25,-252 1009.25,-216 1107.75,-216 1107.75,-252"/>
<text text-anchor="middle" x="1058.5" y="-230.45" font-family="monospace" font-size="14.00">Params y x</text>
</g>
<!-- 29&#45;&gt;30 -->
<g id="edge29" class="edge">
<title>29&#45;&gt;30</title>
<path fill="none" stroke="black" d="M1067.53,-287.7C1066.27,-280.32 1064.76,-271.52 1063.34,-263.25"/>
<polygon fill="black" stroke="black" points="1066.83,-262.86 1061.69,-253.6 1059.93,-264.04 1066.83,-262.86"/>
</g>
<!-- 31 -->
<g id="node32" class="node">
<title>31</title>
<polygon fill="none" stroke="black" points="1199.38,-252 1125.62,-252 1125.62,-216 1199.38,-216 1199.38,-252"/>
<text text-anchor="middle" x="1162.5" y="-230.45" font-family="monospace" font-size="14.00">BinOp &#45;</text>
</g>
<!-- 29&#45;&gt;31 -->
<g id="edge32" class="edge">
<title>29&#45;&gt;31</title>
<path fill="none" stroke="black" d="M1093.24,-287.7C1104.52,-279.11 1118.33,-268.61 1130.64,-259.24"/>
<polygon fill="black" stroke="black" points="1132.66,-262.1 1138.5,-253.26 1128.42,-256.53 1132.66,-262.1"/>
</g>
<!-- 32 -->
<g id="node33" class="node">
<title>32</title>
<polygon fill="none" stroke="black" points="1134.12,-180 1076.88,-180 1076.88,-144 1134.12,-144 1134.12,-180"/>
<text text-anchor="middle" x="1105.5" y="-158.45" font-family="monospace" font-size="14.00">Var x</text>
</g>
<!-- 31&#45;&gt;32 -->
<g id="edge30" class="edge">
<title>31&#45;&gt;32</title>
<path fill="none" stroke="black" d="M1148.41,-215.7C1141.85,-207.64 1133.91,-197.89 1126.66,-188.98"/>
<polygon fill="black" stroke="black" points="1129.41,-186.82 1120.38,-181.28 1123.98,-191.24 1129.41,-186.82"/>
</g>
<!-- 33 -->
<g id="node34" class="node">
<title>33</title>
<polygon fill="none" stroke="black" points="1209.12,-180 1151.88,-180 1151.88,-144 1209.12,-144 1209.12,-180"/>
<text text-anchor="middle" x="1180.5" y="-158.45" font-family="monospace" font-size="14.00">Var y</text>
</g>
<!-- 31&#45;&gt;33 -->
<g id="edge31" class="edge">
<title>31&#45;&gt;33</title>
<path fill="none" stroke="black" d="M1166.95,-215.7C1168.85,-208.32 1171.11,-199.52 1173.24,-191.25"/>
<polygon fill="black" stroke="black" points="1176.62,-192.13 1175.72,-181.57 1169.84,-190.38 1176.62,-192.13"/>
</g>
<!-- 35 -->
<g id="node36" class="node">
<title>35</title>
<polygon fill="none" stroke="black" points="1315.75,-252 1217.25,-252 1217.25,-216 1315.75,-216 1315.75,-252"/>
<text text-anchor="middle" x="1266.5" y="-230.45" font-family="monospace" font-size="14.00">Params y x</text>
</g>
<!-- 34&#45;&gt;35 -->
<g id="edge34" class="edge">
<title>34&#45;&gt;35</title>
<path fill="none" stroke="black" d="M1266.5,-287.7C1266.5,-280.41 1266.5,-271.73 1266.5,-263.54"/>
<polygon fill="black" stroke="black" points="1270,-263.62 1266.5,-253.62 1263,-263.62 1270,-263.62"/>
</g>
<!-- 36 -->
<g id="node37" class="node">
<title>36</title>
<polygon fill="none" stroke="black" points="1407.38,-252 1333.62,-252 1333.62,-216 1407.38,-216 1407.38,-252"/>
<text text-anchor="middle" x="1370.5" y="-230.45" font-family="monospace" font-size="14.00">BinOp +</text>
</g>
<!-- 34&#45;&gt;36 -->
<g id="edge37" class="edge">
<title>34&#45;&gt;36</title>
<path fill="none" stroke="black" d="M1292.48,-287.52C1305.48,-278.76 1321.41,-268.04 1335.47,-258.58"/>
<polygon fill="black" stroke="black" points="1337.26,-261.59 1343.6,-253.11 1333.35,-255.79 1337.26,-261.59"/>
</g>
<!-- 37 -->
<g id="node38" class="node">
<title>37</title>
<polygon fill="none" stroke="black" points="1361.12,-180 1303.88,-180 1303.88,-144 1361.12,-144 1361.12,-180"/>
<text text-anchor="middle" x="1332.5" y="-158.45" font-family="monospace" font-size="14.00">Var x</text>
</g>
<!-- 36&#45;&gt;37 -->
<g id="edge35" class="edge">
<title>36&#45;&gt;37</title>
<path fill="none" stroke="black" d="M1361.11,-215.7C1356.92,-207.98 1351.89,-198.71 1347.22,-190.11"/>
<polygon fill="black" stroke="black" points="1350.35,-188.55 1342.51,-181.43 1344.2,-191.89 1350.35,-188.55"/>
</g>
<!-- 38 -->
<g id="node39" class="node">
<title>38</title>
<polygon fill="none" stroke="black" points="1436.12,-180 1378.88,-180 1378.88,-144 1436.12,-144 1436.12,-180"/>
<text text-anchor="middle" x="1407.5" y="-158.45" font-family="monospace" font-size="14.00">Var y</text>
</g>
<!-- 36&#45;&gt;38 -->
<g id="edge36" class="edge">
<title>36&#45;&gt;38</title>
<path fill="none" stroke="black" d="M1379.65,-215.7C1383.72,-207.98 1388.62,-198.71 1393.17,-190.11"/>
<polygon fill="black" stroke="black" points="1396.17,-191.92 1397.75,-181.44 1389.98,-188.65 1396.17,-191.92"/>
</g>
</g>
</svg>
