<?xml version="1.0" encoding="UTF-8" standalone="no"?>
<!DOCTYPE svg PUBLIC "-//W3C//DTD SVG 1.1//EN"
 "http://www.w3.org/Graphics/SVG/1.1/DTD/svg11.dtd">
<!-- Generated by graphviz version 12.2.1 (20241206.2353)
 -->
<!-- Title: G Pages: 1 -->
<svg width="1064pt" height="638pt"
 viewBox="0.00 0.00 1064.00 638.00" xmlns="http://www.w3.org/2000/svg" xmlns:xlink="http://www.w3.org/1999/xlink">
<g id="graph0" class="graph" transform="scale(1 1) rotate(0) translate(4 634)">
<title>G</title>
<polygon fill="white" stroke="none" points="-4,4 -4,-634 1060,-634 1060,4 -4,4"/>
<!-- n0 -->
<g id="node1" class="node">
<title>n0</title>
<path fill="none" stroke="black" d="M49.25,-90C49.25,-90 19.25,-90 19.25,-90 13.25,-90 7.25,-84 7.25,-78 7.25,-78 7.25,-66 7.25,-66 7.25,-60 13.25,-54 19.25,-54 19.25,-54 49.25,-54 49.25,-54 55.25,-54 61.25,-60 61.25,-66 61.25,-66 61.25,-78 61.25,-78 61.25,-84 55.25,-90 49.25,-90"/>
<text text-anchor="middle" x="34.25" y="-67.72" font-family="Times,serif" font-size="12.00">const 1</text>
</g>
<!-- n2 -->
<g id="node3" class="node">
<title>n2</title>
<path fill="none" stroke="black" d="M181.12,-90C181.12,-90 151.12,-90 151.12,-90 145.12,-90 139.12,-84 139.12,-78 139.12,-78 139.12,-66 139.12,-66 139.12,-60 145.12,-54 151.12,-54 151.12,-54 181.12,-54 181.12,-54 187.12,-54 193.12,-60 193.12,-66 193.12,-66 193.12,-78 193.12,-78 193.12,-84 187.12,-90 181.12,-90"/>
<text text-anchor="middle" x="166.12" y="-67.72" font-family="Times,serif" font-size="12.00">+i 2</text>
</g>
<!-- n0&#45;&gt;n2 -->
<g id="edge1" class="edge">
<title>n0&#45;&gt;n2</title>
<path fill="none" stroke="black" d="M61.53,-72C80.46,-72 106.27,-72 127.39,-72"/>
<polygon fill="black" stroke="black" points="127.37,-75.5 137.37,-72 127.37,-68.5 127.37,-75.5"/>
<text text-anchor="middle" x="95.88" y="-73.75" font-family="Times,serif" font-size="10.00">(0,0)</text>
</g>
<!-- n1 -->
<g id="node2" class="node">
<title>n1</title>
<path fill="none" stroke="black" d="M181.12,-36C181.12,-36 151.12,-36 151.12,-36 145.12,-36 139.12,-30 139.12,-24 139.12,-24 139.12,-12 139.12,-12 139.12,-6 145.12,0 151.12,0 151.12,0 181.12,0 181.12,0 187.12,0 193.12,-6 193.12,-12 193.12,-12 193.12,-24 193.12,-24 193.12,-30 187.12,-36 181.12,-36"/>
<text text-anchor="middle" x="166.12" y="-13.72" font-family="Times,serif" font-size="12.00">const 2</text>
</g>
<!-- n3 -->
<g id="node4" class="node">
<title>n3</title>
<path fill="none" stroke="black" d="M305.75,-36C305.75,-36 275.75,-36 275.75,-36 269.75,-36 263.75,-30 263.75,-24 263.75,-24 263.75,-12 263.75,-12 263.75,-6 269.75,0 275.75,0 275.75,0 305.75,0 305.75,0 311.75,0 317.75,-6 317.75,-12 317.75,-12 317.75,-24 317.75,-24 317.75,-30 311.75,-36 305.75,-36"/>
<text text-anchor="middle" x="290.75" y="-13.72" font-family="Times,serif" font-size="12.00">+i 2</text>
</g>
<!-- n1&#45;&gt;n3 -->
<g id="edge2" class="edge">
<title>n1&#45;&gt;n3</title>
<path fill="none" stroke="black" d="M193.43,-18C210.56,-18 233.18,-18 252.2,-18"/>
<polygon fill="black" stroke="black" points="251.97,-21.5 261.97,-18 251.97,-14.5 251.97,-21.5"/>
<text text-anchor="middle" x="236.38" y="-19.75" font-family="Times,serif" font-size="10.00">(0,0)</text>
</g>
<!-- n5 -->
<g id="node6" class="node">
<title>n5</title>
<path fill="none" stroke="black" d="M305.75,-90C305.75,-90 275.75,-90 275.75,-90 269.75,-90 263.75,-84 263.75,-78 263.75,-78 263.75,-66 263.75,-66 263.75,-60 269.75,-54 275.75,-54 275.75,-54 305.75,-54 305.75,-54 311.75,-54 317.75,-60 317.75,-66 317.75,-66 317.75,-78 317.75,-78 317.75,-84 311.75,-90 305.75,-90"/>
<text text-anchor="middle" x="290.75" y="-67.72" font-family="Times,serif" font-size="12.00">*</text>
</g>
<!-- n2&#45;&gt;n5 -->
<g id="edge3" class="edge">
<title>n2&#45;&gt;n5</title>
<path fill="none" stroke="black" d="M193.43,-72C210.56,-72 233.18,-72 252.2,-72"/>
<polygon fill="black" stroke="black" points="251.97,-75.5 261.97,-72 251.97,-68.5 251.97,-75.5"/>
<text text-anchor="middle" x="236.38" y="-73.75" font-family="Times,serif" font-size="10.00">(0,0)</text>
</g>
<!-- n6 -->
<g id="node7" class="node">
<title>n6</title>
<path fill="none" stroke="black" d="M430.38,-36C430.38,-36 400.38,-36 400.38,-36 394.38,-36 388.38,-30 388.38,-24 388.38,-24 388.38,-12 388.38,-12 388.38,-6 394.38,0 400.38,0 400.38,0 430.38,0 430.38,0 436.38,0 442.38,-6 442.38,-12 442.38,-12 442.38,-24 442.38,-24 442.38,-30 436.38,-36 430.38,-36"/>
<text text-anchor="middle" x="415.38" y="-13.72" font-family="Times,serif" font-size="12.00">+</text>
</g>
<!-- n3&#45;&gt;n6 -->
<g id="edge6" class="edge">
<title>n3&#45;&gt;n6</title>
<path fill="none" stroke="black" d="M318.06,-18C335.19,-18 357.81,-18 376.82,-18"/>
<polygon fill="black" stroke="black" points="376.6,-21.5 386.6,-18 376.6,-14.5 376.6,-21.5"/>
<text text-anchor="middle" x="345.12" y="-19.75" font-family="Times,serif" font-size="10.00">(0,1)</text>
</g>
<!-- n4 -->
<g id="node5" class="node">
<title>n4</title>
<path fill="none" stroke="black" d="M197,-144C197,-144 135.25,-144 135.25,-144 129.25,-144 123.25,-138 123.25,-132 123.25,-132 123.25,-120 123.25,-120 123.25,-114 129.25,-108 135.25,-108 135.25,-108 197,-108 197,-108 203,-108 209,-114 209,-120 209,-120 209,-132 209,-132 209,-138 203,-144 197,-144"/>
<text text-anchor="middle" x="166.12" y="-121.72" font-family="Times,serif" font-size="12.00">const 1000003</text>
</g>
<!-- n4&#45;&gt;n5 -->
<g id="edge4" class="edge">
<title>n4&#45;&gt;n5</title>
<path fill="none" stroke="black" d="M208.98,-107.57C223.36,-101.24 239.32,-94.21 253.24,-88.08"/>
<polygon fill="black" stroke="black" points="254.3,-91.44 262.04,-84.2 251.47,-85.03 254.3,-91.44"/>
<text text-anchor="middle" x="236.38" y="-100.75" font-family="Times,serif" font-size="10.00">(0,1)</text>
</g>
<!-- n5&#45;&gt;n6 -->
<g id="edge5" class="edge">
<title>n5&#45;&gt;n6</title>
<path fill="none" stroke="black" d="M318.06,-60.42C335.43,-52.76 358.45,-42.63 377.63,-34.18"/>
<polygon fill="black" stroke="black" points="378.99,-37.41 386.73,-30.18 376.16,-31 378.99,-37.41"/>
<text text-anchor="middle" x="345.12" y="-53.17" font-family="Times,serif" font-size="10.00">(0,0)</text>
</g>
<!-- n7 -->
<g id="node8" class="node">
<title>n7</title>
<path fill="none" stroke="black" d="M571,-36C571,-36 525,-36 525,-36 519,-36 513,-30 513,-24 513,-24 513,-12 513,-12 513,-6 519,0 525,0 525,0 571,0 571,0 577,0 583,-6 583,-12 583,-12 583,-24 583,-24 583,-30 577,-36 571,-36"/>
<text text-anchor="middle" x="548" y="-13.72" font-family="Times,serif" font-size="12.00">ret tupleVal</text>
</g>
<!-- n6&#45;&gt;n7 -->
<g id="edge7" class="edge">
<title>n6&#45;&gt;n7</title>
<path fill="none" stroke="black" d="M442.81,-18C459.56,-18 481.67,-18 501.21,-18"/>
<polygon fill="black" stroke="black" points="501.15,-21.5 511.15,-18 501.15,-14.5 501.15,-21.5"/>
<text text-anchor="middle" x="485.62" y="-19.75" font-family="Times,serif" font-size="10.00">(0,0)</text>
</g>
<!-- n8 -->
<g id="node9" class="node">
<title>n8</title>
<path fill="none" stroke="black" d="M181.12,-198C181.12,-198 151.12,-198 151.12,-198 145.12,-198 139.12,-192 139.12,-186 139.12,-186 139.12,-174 139.12,-174 139.12,-168 145.12,-162 151.12,-162 151.12,-162 181.12,-162 181.12,-162 187.12,-162 193.12,-168 193.12,-174 193.12,-174 193.12,-186 193.12,-186 193.12,-192 187.12,-198 181.12,-198"/>
<text text-anchor="middle" x="166.12" y="-175.72" font-family="Times,serif" font-size="12.00">const &#45;1</text>
</g>
<!-- n13 -->
<g id="node14" class="node">
<title>n13</title>
<path fill="none" stroke="black" d="M305.75,-198C305.75,-198 275.75,-198 275.75,-198 269.75,-198 263.75,-192 263.75,-186 263.75,-186 263.75,-174 263.75,-174 263.75,-168 269.75,-162 275.75,-162 275.75,-162 305.75,-162 305.75,-162 311.75,-162 317.75,-168 317.75,-174 317.75,-174 317.75,-186 317.75,-186 317.75,-192 311.75,-198 305.75,-198"/>
<text text-anchor="middle" x="290.75" y="-175.72" font-family="Times,serif" font-size="12.00">+i 2</text>
</g>
<!-- n8&#45;&gt;n13 -->
<g id="edge9" class="edge">
<title>n8&#45;&gt;n13</title>
<path fill="none" stroke="black" d="M193.43,-180C210.56,-180 233.18,-180 252.2,-180"/>
<polygon fill="black" stroke="black" points="251.97,-183.5 261.97,-180 251.97,-176.5 251.97,-183.5"/>
<text text-anchor="middle" x="236.38" y="-181.75" font-family="Times,serif" font-size="10.00">(0,0)</text>
</g>
<!-- n9 -->
<g id="node10" class="node">
<title>n9</title>
<path fill="none" stroke="black" d="M563,-90C563,-90 533,-90 533,-90 527,-90 521,-84 521,-78 521,-78 521,-66 521,-66 521,-60 527,-54 533,-54 533,-54 563,-54 563,-54 569,-54 575,-60 575,-66 575,-66 575,-78 575,-78 575,-84 569,-90 563,-90"/>
<text text-anchor="middle" x="548" y="-67.72" font-family="Times,serif" font-size="12.00">const 1</text>
</g>
<!-- n22 -->
<g id="node23" class="node">
<title>n22</title>
<path fill="none" stroke="black" d="M695.62,-90C695.62,-90 665.62,-90 665.62,-90 659.62,-90 653.62,-84 653.62,-78 653.62,-78 653.62,-66 653.62,-66 653.62,-60 659.62,-54 665.62,-54 665.62,-54 695.62,-54 695.62,-54 701.62,-54 707.62,-60 707.62,-66 707.62,-66 707.62,-78 707.62,-78 707.62,-84 701.62,-90 695.62,-90"/>
<text text-anchor="middle" x="680.62" y="-67.72" font-family="Times,serif" font-size="12.00">+i 2</text>
</g>
<!-- n9&#45;&gt;n22 -->
<g id="edge20" class="edge">
<title>n9&#45;&gt;n22</title>
<path fill="none" stroke="black" d="M575.43,-72C594.56,-72 620.67,-72 641.97,-72"/>
<polygon fill="black" stroke="black" points="641.72,-75.5 651.72,-72 641.72,-68.5 641.72,-75.5"/>
<text text-anchor="middle" x="610.38" y="-73.75" font-family="Times,serif" font-size="10.00">(0,0)</text>
</g>
<!-- n10 -->
<g id="node11" class="node">
<title>n10</title>
<path fill="none" stroke="black" d="M305.75,-144C305.75,-144 275.75,-144 275.75,-144 269.75,-144 263.75,-138 263.75,-132 263.75,-132 263.75,-120 263.75,-120 263.75,-114 269.75,-108 275.75,-108 275.75,-108 305.75,-108 305.75,-108 311.75,-108 317.75,-114 317.75,-120 317.75,-120 317.75,-132 317.75,-132 317.75,-138 311.75,-144 305.75,-144"/>
<text text-anchor="middle" x="290.75" y="-121.72" font-family="Times,serif" font-size="12.00">const 2</text>
</g>
<!-- n17 -->
<g id="node18" class="node">
<title>n17</title>
<path fill="none" stroke="black" d="M430.38,-144C430.38,-144 400.38,-144 400.38,-144 394.38,-144 388.38,-138 388.38,-132 388.38,-132 388.38,-120 388.38,-120 388.38,-114 394.38,-108 400.38,-108 400.38,-108 430.38,-108 430.38,-108 436.38,-108 442.38,-114 442.38,-120 442.38,-120 442.38,-132 442.38,-132 442.38,-138 436.38,-144 430.38,-144"/>
<text text-anchor="middle" x="415.38" y="-121.72" font-family="Times,serif" font-size="12.00">+i 2</text>
</g>
<!-- n10&#45;&gt;n17 -->
<g id="edge14" class="edge">
<title>n10&#45;&gt;n17</title>
<path fill="none" stroke="black" d="M318.06,-126C335.19,-126 357.81,-126 376.82,-126"/>
<polygon fill="black" stroke="black" points="376.6,-129.5 386.6,-126 376.6,-122.5 376.6,-129.5"/>
<text text-anchor="middle" x="345.12" y="-127.75" font-family="Times,serif" font-size="10.00">(0,0)</text>
</g>
<!-- n11 -->
<g id="node12" class="node">
<title>n11</title>
<path fill="none" stroke="black" d="M49.25,-252C49.25,-252 19.25,-252 19.25,-252 13.25,-252 7.25,-246 7.25,-240 7.25,-240 7.25,-228 7.25,-228 7.25,-222 13.25,-216 19.25,-216 19.25,-216 49.25,-216 49.25,-216 55.25,-216 61.25,-222 61.25,-228 61.25,-228 61.25,-240 61.25,-240 61.25,-246 55.25,-252 49.25,-252"/>
<text text-anchor="middle" x="34.25" y="-229.72" font-family="Times,serif" font-size="12.00">const 3</text>
</g>
<!-- n12 -->
<g id="node13" class="node">
<title>n12</title>
<path fill="none" stroke="black" d="M181.12,-252C181.12,-252 151.12,-252 151.12,-252 145.12,-252 139.12,-246 139.12,-240 139.12,-240 139.12,-228 139.12,-228 139.12,-222 145.12,-216 151.12,-216 151.12,-216 181.12,-216 181.12,-216 187.12,-216 193.12,-222 193.12,-228 193.12,-228 193.12,-240 193.12,-240 193.12,-246 187.12,-252 181.12,-252"/>
<text text-anchor="middle" x="166.12" y="-229.72" font-family="Times,serif" font-size="12.00">+i 2</text>
</g>
<!-- n11&#45;&gt;n12 -->
<g id="edge8" class="edge">
<title>n11&#45;&gt;n12</title>
<path fill="none" stroke="black" d="M61.53,-234C80.46,-234 106.27,-234 127.39,-234"/>
<polygon fill="black" stroke="black" points="127.37,-237.5 137.37,-234 127.37,-230.5 127.37,-237.5"/>
<text text-anchor="middle" x="95.88" y="-235.75" font-family="Times,serif" font-size="10.00">(0,0)</text>
</g>
<!-- n15 -->
<g id="node16" class="node">
<title>n15</title>
<path fill="none" stroke="black" d="M305.75,-252C305.75,-252 275.75,-252 275.75,-252 269.75,-252 263.75,-246 263.75,-240 263.75,-240 263.75,-228 263.75,-228 263.75,-222 269.75,-216 275.75,-216 275.75,-216 305.75,-216 305.75,-216 311.75,-216 317.75,-222 317.75,-228 317.75,-228 317.75,-240 317.75,-240 317.75,-246 311.75,-252 305.75,-252"/>
<text text-anchor="middle" x="290.75" y="-229.72" font-family="Times,serif" font-size="12.00">*</text>
</g>
<!-- n12&#45;&gt;n15 -->
<g id="edge10" class="edge">
<title>n12&#45;&gt;n15</title>
<path fill="none" stroke="black" d="M193.43,-234C210.56,-234 233.18,-234 252.2,-234"/>
<polygon fill="black" stroke="black" points="251.97,-237.5 261.97,-234 251.97,-230.5 251.97,-237.5"/>
<text text-anchor="middle" x="236.38" y="-235.75" font-family="Times,serif" font-size="10.00">(0,0)</text>
</g>
<!-- n16 -->
<g id="node17" class="node">
<title>n16</title>
<path fill="none" stroke="black" d="M430.38,-198C430.38,-198 400.38,-198 400.38,-198 394.38,-198 388.38,-192 388.38,-186 388.38,-186 388.38,-174 388.38,-174 388.38,-168 394.38,-162 400.38,-162 400.38,-162 430.38,-162 430.38,-162 436.38,-162 442.38,-168 442.38,-174 442.38,-174 442.38,-186 442.38,-186 442.38,-192 436.38,-198 430.38,-198"/>
<text text-anchor="middle" x="415.38" y="-175.72" font-family="Times,serif" font-size="12.00">+</text>
</g>
<!-- n13&#45;&gt;n16 -->
<g id="edge13" class="edge">
<title>n13&#45;&gt;n16</title>
<path fill="none" stroke="black" d="M318.06,-180C335.19,-180 357.81,-180 376.82,-180"/>
<polygon fill="black" stroke="black" points="376.6,-183.5 386.6,-180 376.6,-176.5 376.6,-183.5"/>
<text text-anchor="middle" x="345.12" y="-181.75" font-family="Times,serif" font-size="10.00">(0,1)</text>
</g>
<!-- n14 -->
<g id="node15" class="node">
<title>n14</title>
<path fill="none" stroke="black" d="M197,-306C197,-306 135.25,-306 135.25,-306 129.25,-306 123.25,-300 123.25,-294 123.25,-294 123.25,-282 123.25,-282 123.25,-276 129.25,-270 135.25,-270 135.25,-270 197,-270 197,-270 203,-270 209,-276 209,-282 209,-282 209,-294 209,-294 209,-300 203,-306 197,-306"/>
<text text-anchor="middle" x="166.12" y="-283.73" font-family="Times,serif" font-size="12.00">const 1000003</text>
</g>
<!-- n14&#45;&gt;n15 -->
<g id="edge11" class="edge">
<title>n14&#45;&gt;n15</title>
<path fill="none" stroke="black" d="M208.98,-269.57C223.36,-263.24 239.32,-256.21 253.24,-250.08"/>
<polygon fill="black" stroke="black" points="254.3,-253.44 262.04,-246.2 251.47,-247.03 254.3,-253.44"/>
<text text-anchor="middle" x="236.38" y="-262.75" font-family="Times,serif" font-size="10.00">(0,1)</text>
</g>
<!-- n15&#45;&gt;n16 -->
<g id="edge12" class="edge">
<title>n15&#45;&gt;n16</title>
<path fill="none" stroke="black" d="M318.06,-222.42C335.43,-214.76 358.45,-204.63 377.63,-196.18"/>
<polygon fill="black" stroke="black" points="378.99,-199.41 386.73,-192.18 376.16,-193 378.99,-199.41"/>
<text text-anchor="middle" x="345.12" y="-215.17" font-family="Times,serif" font-size="10.00">(0,0)</text>
</g>
<!-- n18 -->
<g id="node19" class="node">
<title>n18</title>
<path fill="none" stroke="black" d="M563,-198C563,-198 533,-198 533,-198 527,-198 521,-192 521,-186 521,-186 521,-174 521,-174 521,-168 527,-162 533,-162 533,-162 563,-162 563,-162 569,-162 575,-168 575,-174 575,-174 575,-186 575,-186 575,-192 569,-198 563,-198"/>
<text text-anchor="middle" x="548" y="-175.72" font-family="Times,serif" font-size="12.00">+i 2</text>
</g>
<!-- n16&#45;&gt;n18 -->
<g id="edge15" class="edge">
<title>n16&#45;&gt;n18</title>
<path fill="none" stroke="black" d="M442.81,-180C461.93,-180 488.04,-180 509.34,-180"/>
<polygon fill="black" stroke="black" points="509.09,-183.5 519.09,-180 509.09,-176.5 509.09,-183.5"/>
<text text-anchor="middle" x="485.62" y="-181.75" font-family="Times,serif" font-size="10.00">(0,0)</text>
</g>
<!-- n20 -->
<g id="node21" class="node">
<title>n20</title>
<path fill="none" stroke="black" d="M563,-144C563,-144 533,-144 533,-144 527,-144 521,-138 521,-132 521,-132 521,-120 521,-120 521,-114 527,-108 533,-108 533,-108 563,-108 563,-108 569,-108 575,-114 575,-120 575,-120 575,-132 575,-132 575,-138 569,-144 563,-144"/>
<text text-anchor="middle" x="548" y="-121.72" font-family="Times,serif" font-size="12.00">*</text>
</g>
<!-- n17&#45;&gt;n20 -->
<g id="edge16" class="edge">
<title>n17&#45;&gt;n20</title>
<path fill="none" stroke="black" d="M442.81,-126C461.93,-126 488.04,-126 509.34,-126"/>
<polygon fill="black" stroke="black" points="509.09,-129.5 519.09,-126 509.09,-122.5 509.09,-129.5"/>
<text text-anchor="middle" x="485.62" y="-127.75" font-family="Times,serif" font-size="10.00">(0,0)</text>
</g>
<!-- n21 -->
<g id="node22" class="node">
<title>n21</title>
<path fill="none" stroke="black" d="M695.62,-144C695.62,-144 665.62,-144 665.62,-144 659.62,-144 653.62,-138 653.62,-132 653.62,-132 653.62,-120 653.62,-120 653.62,-114 659.62,-108 665.62,-108 665.62,-108 695.62,-108 695.62,-108 701.62,-108 707.62,-114 707.62,-120 707.62,-120 707.62,-132 707.62,-132 707.62,-138 701.62,-144 695.62,-144"/>
<text text-anchor="middle" x="680.62" y="-121.72" font-family="Times,serif" font-size="12.00">+</text>
</g>
<!-- n18&#45;&gt;n21 -->
<g id="edge19" class="edge">
<title>n18&#45;&gt;n21</title>
<path fill="none" stroke="black" d="M575.43,-169.07C594.82,-161.06 621.39,-150.07 642.85,-141.2"/>
<polygon fill="black" stroke="black" points="643.93,-144.54 651.83,-137.49 641.25,-138.08 643.93,-144.54"/>
<text text-anchor="middle" x="610.38" y="-159.59" font-family="Times,serif" font-size="10.00">(0,1)</text>
</g>
<!-- n19 -->
<g id="node20" class="node">
<title>n19</title>
<path fill="none" stroke="black" d="M446.25,-90C446.25,-90 384.5,-90 384.5,-90 378.5,-90 372.5,-84 372.5,-78 372.5,-78 372.5,-66 372.5,-66 372.5,-60 378.5,-54 384.5,-54 384.5,-54 446.25,-54 446.25,-54 452.25,-54 458.25,-60 458.25,-66 458.25,-66 458.25,-78 458.25,-78 458.25,-84 452.25,-90 446.25,-90"/>
<text text-anchor="middle" x="415.38" y="-67.72" font-family="Times,serif" font-size="12.00">const 1000003</text>
</g>
<!-- n19&#45;&gt;n20 -->
<g id="edge17" class="edge">
<title>n19&#45;&gt;n20</title>
<path fill="none" stroke="black" d="M458.42,-89.38C475.03,-96.25 493.94,-104.06 510.01,-110.71"/>
<polygon fill="black" stroke="black" points="508.65,-113.93 519.22,-114.52 511.32,-107.46 508.65,-113.93"/>
<text text-anchor="middle" x="485.62" y="-105.59" font-family="Times,serif" font-size="10.00">(0,1)</text>
</g>
<!-- n20&#45;&gt;n21 -->
<g id="edge18" class="edge">
<title>n20&#45;&gt;n21</title>
<path fill="none" stroke="black" d="M575.43,-126C594.56,-126 620.67,-126 641.97,-126"/>
<polygon fill="black" stroke="black" points="641.72,-129.5 651.72,-126 641.72,-122.5 641.72,-129.5"/>
<text text-anchor="middle" x="610.38" y="-127.75" font-family="Times,serif" font-size="10.00">(0,0)</text>
</g>
<!-- n23 -->
<g id="node24" class="node">
<title>n23</title>
<path fill="none" stroke="black" d="M820.25,-144C820.25,-144 790.25,-144 790.25,-144 784.25,-144 778.25,-138 778.25,-132 778.25,-132 778.25,-120 778.25,-120 778.25,-114 784.25,-108 790.25,-108 790.25,-108 820.25,-108 820.25,-108 826.25,-108 832.25,-114 832.25,-120 832.25,-120 832.25,-132 832.25,-132 832.25,-138 826.25,-144 820.25,-144"/>
<text text-anchor="middle" x="805.25" y="-121.72" font-family="Times,serif" font-size="12.00">+i 2</text>
</g>
<!-- n21&#45;&gt;n23 -->
<g id="edge21" class="edge">
<title>n21&#45;&gt;n23</title>
<path fill="none" stroke="black" d="M707.93,-126C725.06,-126 747.68,-126 766.7,-126"/>
<polygon fill="black" stroke="black" points="766.47,-129.5 776.47,-126 766.47,-122.5 766.47,-129.5"/>
<text text-anchor="middle" x="750.88" y="-127.75" font-family="Times,serif" font-size="10.00">(0,0)</text>
</g>
<!-- n25 -->
<g id="node26" class="node">
<title>n25</title>
<path fill="none" stroke="black" d="M820.25,-90C820.25,-90 790.25,-90 790.25,-90 784.25,-90 778.25,-84 778.25,-78 778.25,-78 778.25,-66 778.25,-66 778.25,-60 784.25,-54 790.25,-54 790.25,-54 820.25,-54 820.25,-54 826.25,-54 832.25,-60 832.25,-66 832.25,-66 832.25,-78 832.25,-78 832.25,-84 826.25,-90 820.25,-90"/>
<text text-anchor="middle" x="805.25" y="-67.72" font-family="Times,serif" font-size="12.00">*</text>
</g>
<!-- n22&#45;&gt;n25 -->
<g id="edge22" class="edge">
<title>n22&#45;&gt;n25</title>
<path fill="none" stroke="black" d="M707.93,-72C725.06,-72 747.68,-72 766.7,-72"/>
<polygon fill="black" stroke="black" points="766.47,-75.5 776.47,-72 766.47,-68.5 766.47,-75.5"/>
<text text-anchor="middle" x="750.88" y="-73.75" font-family="Times,serif" font-size="10.00">(0,0)</text>
</g>
<!-- n26 -->
<g id="node27" class="node">
<title>n26</title>
<path fill="none" stroke="black" d="M929,-117C929,-117 899,-117 899,-117 893,-117 887,-111 887,-105 887,-105 887,-93 887,-93 887,-87 893,-81 899,-81 899,-81 929,-81 929,-81 935,-81 941,-87 941,-93 941,-93 941,-105 941,-105 941,-111 935,-117 929,-117"/>
<text text-anchor="middle" x="914" y="-94.72" font-family="Times,serif" font-size="12.00">+</text>
</g>
<!-- n23&#45;&gt;n26 -->
<g id="edge25" class="edge">
<title>n23&#45;&gt;n26</title>
<path fill="none" stroke="black" d="M832.64,-119.33C845.6,-116.05 861.44,-112.04 875.62,-108.46"/>
<polygon fill="black" stroke="black" points="876.24,-111.91 885.08,-106.06 874.53,-105.12 876.24,-111.91"/>
<text text-anchor="middle" x="859.62" y="-115.87" font-family="Times,serif" font-size="10.00">(0,1)</text>
</g>
<!-- n24 -->
<g id="node25" class="node">
<title>n24</title>
<path fill="none" stroke="black" d="M711.5,-36C711.5,-36 649.75,-36 649.75,-36 643.75,-36 637.75,-30 637.75,-24 637.75,-24 637.75,-12 637.75,-12 637.75,-6 643.75,0 649.75,0 649.75,0 711.5,0 711.5,0 717.5,0 723.5,-6 723.5,-12 723.5,-12 723.5,-24 723.5,-24 723.5,-30 717.5,-36 711.5,-36"/>
<text text-anchor="middle" x="680.62" y="-13.72" font-family="Times,serif" font-size="12.00">const 1000003</text>
</g>
<!-- n24&#45;&gt;n25 -->
<g id="edge23" class="edge">
<title>n24&#45;&gt;n25</title>
<path fill="none" stroke="black" d="M723.48,-36.43C737.86,-42.76 753.82,-49.79 767.74,-55.92"/>
<polygon fill="black" stroke="black" points="765.97,-58.97 776.54,-59.8 768.8,-52.56 765.97,-58.97"/>
<text text-anchor="middle" x="750.88" y="-53.17" font-family="Times,serif" font-size="10.00">(0,1)</text>
</g>
<!-- n25&#45;&gt;n26 -->
<g id="edge24" class="edge">
<title>n25&#45;&gt;n26</title>
<path fill="none" stroke="black" d="M832.51,-78.56C843.75,-81.38 857.02,-84.72 869,-87.75 871.27,-88.32 873.6,-88.92 875.96,-89.52"/>
<polygon fill="black" stroke="black" points="874.93,-92.87 885.48,-91.94 876.65,-86.08 874.93,-92.87"/>
<text text-anchor="middle" x="859.62" y="-89.5" font-family="Times,serif" font-size="10.00">(0,0)</text>
</g>
<!-- n27 -->
<g id="node28" class="node">
<title>n27</title>
<path fill="none" stroke="black" d="M1044,-117C1044,-117 1007.75,-117 1007.75,-117 1001.75,-117 995.75,-111 995.75,-105 995.75,-105 995.75,-93 995.75,-93 995.75,-87 1001.75,-81 1007.75,-81 1007.75,-81 1044,-81 1044,-81 1050,-81 1056,-87 1056,-93 1056,-93 1056,-105 1056,-105 1056,-111 1050,-117 1044,-117"/>
<text text-anchor="middle" x="1025.88" y="-94.72" font-family="Times,serif" font-size="12.00">ret listVal</text>
</g>
<!-- n26&#45;&gt;n27 -->
<g id="edge26" class="edge">
<title>n26&#45;&gt;n27</title>
<path fill="none" stroke="black" d="M941.32,-99C954.14,-99 969.85,-99 984.18,-99"/>
<polygon fill="black" stroke="black" points="983.77,-102.5 993.77,-99 983.77,-95.5 983.77,-102.5"/>
<text text-anchor="middle" x="968.38" y="-100.75" font-family="Times,serif" font-size="10.00">(0,0)</text>
</g>
<!-- n28 -->
<g id="node29" class="node">
<title>n28</title>
<path fill="none" stroke="black" d="M49.25,-360C49.25,-360 19.25,-360 19.25,-360 13.25,-360 7.25,-354 7.25,-348 7.25,-348 7.25,-336 7.25,-336 7.25,-330 13.25,-324 19.25,-324 19.25,-324 49.25,-324 49.25,-324 55.25,-324 61.25,-330 61.25,-336 61.25,-336 61.25,-348 61.25,-348 61.25,-354 55.25,-360 49.25,-360"/>
<text text-anchor="middle" x="34.25" y="-337.73" font-family="Times,serif" font-size="12.00">const 0</text>
</g>
<!-- n29 -->
<g id="node30" class="node">
<title>n29</title>
<path fill="none" stroke="black" d="M190.62,-360C190.62,-360 141.62,-360 141.62,-360 135.62,-360 129.62,-354 129.62,-348 129.62,-348 129.62,-336 129.62,-336 129.62,-330 135.62,-324 141.62,-324 141.62,-324 190.62,-324 190.62,-324 196.62,-324 202.62,-330 202.62,-336 202.62,-336 202.62,-348 202.62,-348 202.62,-354 196.62,-360 190.62,-360"/>
<text text-anchor="middle" x="166.12" y="-337.73" font-family="Times,serif" font-size="12.00">ret stringVal</text>
</g>
<!-- n28&#45;&gt;n29 -->
<g id="edge27" class="edge">
<title>n28&#45;&gt;n29</title>
<path fill="none" stroke="black" d="M61.53,-342C77.74,-342 98.99,-342 118.03,-342"/>
<polygon fill="black" stroke="black" points="118.02,-345.5 128.02,-342 118.02,-338.5 118.02,-345.5"/>
<text text-anchor="middle" x="95.88" y="-343.75" font-family="Times,serif" font-size="10.00">(0,0)</text>
</g>
<!-- n30 -->
<g id="node31" class="node">
<title>n30</title>
<path fill="none" stroke="black" d="M53.12,-414C53.12,-414 15.38,-414 15.38,-414 9.38,-414 3.38,-408 3.38,-402 3.38,-402 3.38,-390 3.38,-390 3.38,-384 9.38,-378 15.38,-378 15.38,-378 53.12,-378 53.12,-378 59.12,-378 65.12,-384 65.12,-390 65.12,-390 65.12,-402 65.12,-402 65.12,-408 59.12,-414 53.12,-414"/>
<text text-anchor="middle" x="34.25" y="-391.73" font-family="Times,serif" font-size="12.00">const 122</text>
</g>
<!-- n31 -->
<g id="node32" class="node">
<title>n31</title>
<path fill="none" stroke="black" d="M187.62,-414C187.62,-414 144.62,-414 144.62,-414 138.62,-414 132.62,-408 132.62,-402 132.62,-402 132.62,-390 132.62,-390 132.62,-384 138.62,-378 144.62,-378 144.62,-378 187.62,-378 187.62,-378 193.62,-378 199.62,-384 199.62,-390 199.62,-390 199.62,-402 199.62,-402 199.62,-408 193.62,-414 187.62,-414"/>
<text text-anchor="middle" x="166.12" y="-391.73" font-family="Times,serif" font-size="12.00">ret charVal</text>
</g>
<!-- n30&#45;&gt;n31 -->
<g id="edge28" class="edge">
<title>n30&#45;&gt;n31</title>
<path fill="none" stroke="black" d="M65.37,-396C81.92,-396 102.76,-396 121.11,-396"/>
<polygon fill="black" stroke="black" points="120.92,-399.5 130.92,-396 120.92,-392.5 120.92,-399.5"/>
<text text-anchor="middle" x="95.88" y="-397.75" font-family="Times,serif" font-size="10.00">(0,0)</text>
</g>
<!-- n32 -->
<g id="node33" class="node">
<title>n32</title>
<path fill="none" stroke="black" d="M56.5,-468C56.5,-468 12,-468 12,-468 6,-468 0,-462 0,-456 0,-456 0,-444 0,-444 0,-438 6,-432 12,-432 12,-432 56.5,-432 56.5,-432 62.5,-432 68.5,-438 68.5,-444 68.5,-444 68.5,-456 68.5,-456 68.5,-462 62.5,-468 56.5,-468"/>
<text text-anchor="middle" x="34.25" y="-445.73" font-family="Times,serif" font-size="12.00">fconst 3.14</text>
</g>
<!-- n33 -->
<g id="node34" class="node">
<title>n33</title>
<path fill="none" stroke="black" d="M188,-468C188,-468 144.25,-468 144.25,-468 138.25,-468 132.25,-462 132.25,-456 132.25,-456 132.25,-444 132.25,-444 132.25,-438 138.25,-432 144.25,-432 144.25,-432 188,-432 188,-432 194,-432 200,-438 200,-444 200,-444 200,-456 200,-456 200,-462 194,-468 188,-468"/>
<text text-anchor="middle" x="166.12" y="-445.73" font-family="Times,serif" font-size="12.00">ret floatVal</text>
</g>
<!-- n32&#45;&gt;n33 -->
<g id="edge29" class="edge">
<title>n32&#45;&gt;n33</title>
<path fill="none" stroke="black" d="M68.7,-450C84.45,-450 103.47,-450 120.44,-450"/>
<polygon fill="black" stroke="black" points="120.28,-453.5 130.28,-450 120.28,-446.5 120.28,-453.5"/>
<text text-anchor="middle" x="95.88" y="-451.75" font-family="Times,serif" font-size="10.00">(0,0)</text>
</g>
<!-- n34 -->
<g id="node35" class="node">
<title>n34</title>
<path fill="none" stroke="black" d="M50.12,-522C50.12,-522 18.38,-522 18.38,-522 12.38,-522 6.38,-516 6.38,-510 6.38,-510 6.38,-498 6.38,-498 6.38,-492 12.38,-486 18.38,-486 18.38,-486 50.12,-486 50.12,-486 56.12,-486 62.12,-492 62.12,-498 62.12,-498 62.12,-510 62.12,-510 62.12,-516 56.12,-522 50.12,-522"/>
<text text-anchor="middle" x="34.25" y="-499.73" font-family="Times,serif" font-size="12.00">const 42</text>
</g>
<!-- n35 -->
<g id="node36" class="node">
<title>n35</title>
<path fill="none" stroke="black" d="M183.5,-522C183.5,-522 148.75,-522 148.75,-522 142.75,-522 136.75,-516 136.75,-510 136.75,-510 136.75,-498 136.75,-498 136.75,-492 142.75,-486 148.75,-486 148.75,-486 183.5,-486 183.5,-486 189.5,-486 195.5,-492 195.5,-498 195.5,-498 195.5,-510 195.5,-510 195.5,-516 189.5,-522 183.5,-522"/>
<text text-anchor="middle" x="166.12" y="-499.73" font-family="Times,serif" font-size="12.00">ret intVal</text>
</g>
<!-- n34&#45;&gt;n35 -->
<g id="edge30" class="edge">
<title>n34&#45;&gt;n35</title>
<path fill="none" stroke="black" d="M62.48,-504C80.63,-504 104.81,-504 125.14,-504"/>
<polygon fill="black" stroke="black" points="125.07,-507.5 135.07,-504 125.07,-500.5 125.07,-507.5"/>
<text text-anchor="middle" x="95.88" y="-505.75" font-family="Times,serif" font-size="10.00">(0,0)</text>
</g>
<!-- n36 -->
<g id="node37" class="node">
<title>n36</title>
<path fill="none" stroke="black" d="M49.25,-576C49.25,-576 19.25,-576 19.25,-576 13.25,-576 7.25,-570 7.25,-564 7.25,-564 7.25,-552 7.25,-552 7.25,-546 13.25,-540 19.25,-540 19.25,-540 49.25,-540 49.25,-540 55.25,-540 61.25,-546 61.25,-552 61.25,-552 61.25,-564 61.25,-564 61.25,-570 55.25,-576 49.25,-576"/>
<text text-anchor="middle" x="34.25" y="-553.73" font-family="Times,serif" font-size="12.00">const 0</text>
</g>
<!-- n37 -->
<g id="node38" class="node">
<title>n37</title>
<path fill="none" stroke="black" d="M192.12,-576C192.12,-576 140.12,-576 140.12,-576 134.12,-576 128.12,-570 128.12,-564 128.12,-564 128.12,-552 128.12,-552 128.12,-546 134.12,-540 140.12,-540 140.12,-540 192.12,-540 192.12,-540 198.12,-540 204.12,-546 204.12,-552 204.12,-552 204.12,-564 204.12,-564 204.12,-570 198.12,-576 192.12,-576"/>
<text text-anchor="middle" x="166.12" y="-553.73" font-family="Times,serif" font-size="12.00">ret falseBool</text>
</g>
<!-- n36&#45;&gt;n37 -->
<g id="edge31" class="edge">
<title>n36&#45;&gt;n37</title>
<path fill="none" stroke="black" d="M61.53,-558C77.37,-558 98.03,-558 116.73,-558"/>
<polygon fill="black" stroke="black" points="116.54,-561.5 126.54,-558 116.54,-554.5 116.54,-561.5"/>
<text text-anchor="middle" x="95.88" y="-559.75" font-family="Times,serif" font-size="10.00">(0,0)</text>
</g>
<!-- n38 -->
<g id="node39" class="node">
<title>n38</title>
<path fill="none" stroke="black" d="M49.25,-630C49.25,-630 19.25,-630 19.25,-630 13.25,-630 7.25,-624 7.25,-618 7.25,-618 7.25,-606 7.25,-606 7.25,-600 13.25,-594 19.25,-594 19.25,-594 49.25,-594 49.25,-594 55.25,-594 61.25,-600 61.25,-606 61.25,-606 61.25,-618 61.25,-618 61.25,-624 55.25,-630 49.25,-630"/>
<text text-anchor="middle" x="34.25" y="-607.73" font-family="Times,serif" font-size="12.00">const 1</text>
</g>
<!-- n39 -->
<g id="node40" class="node">
<title>n39</title>
<path fill="none" stroke="black" d="M190.25,-630C190.25,-630 142,-630 142,-630 136,-630 130,-624 130,-618 130,-618 130,-606 130,-606 130,-600 136,-594 142,-594 142,-594 190.25,-594 190.25,-594 196.25,-594 202.25,-600 202.25,-606 202.25,-606 202.25,-618 202.25,-618 202.25,-624 196.25,-630 190.25,-630"/>
<text text-anchor="middle" x="166.12" y="-607.73" font-family="Times,serif" font-size="12.00">ret trueBool</text>
</g>
<!-- n38&#45;&gt;n39 -->
<g id="edge32" class="edge">
<title>n38&#45;&gt;n39</title>
<path fill="none" stroke="black" d="M61.53,-612C77.74,-612 98.99,-612 118.03,-612"/>
<polygon fill="black" stroke="black" points="118.02,-615.5 128.02,-612 118.02,-608.5 118.02,-615.5"/>
<text text-anchor="middle" x="95.88" y="-613.75" font-family="Times,serif" font-size="10.00">(0,0)</text>
</g>
</g>
</svg>
