<?xml version="1.0" encoding="UTF-8" standalone="no"?>
<!DOCTYPE svg PUBLIC "-//W3C//DTD SVG 1.1//EN"
 "http://www.w3.org/Graphics/SVG/1.1/DTD/svg11.dtd">
<!-- Generated by graphviz version 12.2.1 (20241206.2353)
 -->
<!-- Title: G Pages: 1 -->
<svg width="336pt" height="319pt"
 viewBox="0.00 0.00 335.75 319.00" xmlns="http://www.w3.org/2000/svg" xmlns:xlink="http://www.w3.org/1999/xlink">
<g id="graph0" class="graph" transform="scale(1 1) rotate(0) translate(4 315)">
<title>G</title>
<polygon fill="white" stroke="none" points="-4,4 -4,-315 331.75,-315 331.75,4 -4,4"/>
<!-- n0 -->
<g id="node1" class="node">
<title>n0</title>
<path fill="none" stroke="black" d="M56.12,-172C56.12,-172 24.38,-172 24.38,-172 18.38,-172 12.38,-166 12.38,-160 12.38,-160 12.38,-148 12.38,-148 12.38,-142 18.38,-136 24.38,-136 24.38,-136 56.12,-136 56.12,-136 62.12,-136 68.12,-142 68.12,-148 68.12,-148 68.12,-160 68.12,-160 68.12,-166 62.12,-172 56.12,-172"/>
<text text-anchor="middle" x="40.25" y="-149.72" font-family="Times,serif" font-size="12.00">const 10</text>
</g>
<!-- n5 -->
<g id="node6" class="node">
<title>n5</title>
<path fill="none" stroke="black" d="M206.75,-162C206.75,-162 149.5,-162 149.5,-162 143.5,-162 137.5,-156 137.5,-150 137.5,-150 137.5,-138 137.5,-138 137.5,-132 143.5,-126 149.5,-126 149.5,-126 206.75,-126 206.75,-126 212.75,-126 218.75,-132 218.75,-138 218.75,-138 218.75,-150 218.75,-150 218.75,-156 212.75,-162 206.75,-162"/>
<text text-anchor="middle" x="178.12" y="-139.72" font-family="Times,serif" font-size="12.00">callsnd add#0</text>
</g>
<!-- n0&#45;&gt;n5 -->
<g id="edge4" class="edge">
<title>n0&#45;&gt;n5</title>
<path fill="none" stroke="black" d="M68.42,-152C84.86,-150.79 106.36,-149.21 125.9,-147.77"/>
<polygon fill="black" stroke="black" points="125.89,-151.28 135.61,-147.06 125.38,-144.3 125.89,-151.28"/>
<text text-anchor="middle" x="109" y="-151.35" font-family="Times,serif" font-size="10.00">(0,0)</text>
</g>
<!-- n1 -->
<g id="node2" class="node">
<title>n1</title>
<path fill="none" stroke="black" d="M55.25,-36C55.25,-36 25.25,-36 25.25,-36 19.25,-36 13.25,-30 13.25,-24 13.25,-24 13.25,-12 13.25,-12 13.25,-6 19.25,0 25.25,0 25.25,0 55.25,0 55.25,0 61.25,0 67.25,-6 67.25,-12 67.25,-12 67.25,-24 67.25,-24 67.25,-30 61.25,-36 55.25,-36"/>
<text text-anchor="middle" x="40.25" y="-13.72" font-family="Times,serif" font-size="12.00">const 4</text>
</g>
<!-- n6 -->
<g id="node7" class="node">
<title>n6</title>
<path fill="none" stroke="black" d="M206.75,-43C206.75,-43 149.5,-43 149.5,-43 143.5,-43 137.5,-37 137.5,-31 137.5,-31 137.5,-19 137.5,-19 137.5,-13 143.5,-7 149.5,-7 149.5,-7 206.75,-7 206.75,-7 212.75,-7 218.75,-13 218.75,-19 218.75,-19 218.75,-31 218.75,-31 218.75,-37 212.75,-43 206.75,-43"/>
<text text-anchor="middle" x="178.12" y="-20.73" font-family="Times,serif" font-size="12.00">callsnd add#1</text>
</g>
<!-- n1&#45;&gt;n6 -->
<g id="edge6" class="edge">
<title>n1&#45;&gt;n6</title>
<path fill="none" stroke="black" d="M67.71,-17.61C82.88,-17.54 102.28,-17.74 119.5,-18.75 121.56,-18.87 123.66,-19.01 125.77,-19.17"/>
<polygon fill="black" stroke="black" points="125.41,-22.65 135.67,-20.02 126.01,-15.68 125.41,-22.65"/>
<text text-anchor="middle" x="109" y="-20.5" font-family="Times,serif" font-size="10.00">(0,0)</text>
</g>
<!-- n2 -->
<g id="node3" class="node">
<title>n2</title>
<path fill="none" stroke="black" d="M193.12,-284C193.12,-284 163.12,-284 163.12,-284 157.12,-284 151.12,-278 151.12,-272 151.12,-272 151.12,-260 151.12,-260 151.12,-254 157.12,-248 163.12,-248 163.12,-248 193.12,-248 193.12,-248 199.12,-248 205.12,-254 205.12,-260 205.12,-260 205.12,-272 205.12,-272 205.12,-278 199.12,-284 193.12,-284"/>
<text text-anchor="middle" x="178.12" y="-261.73" font-family="Times,serif" font-size="12.00">+</text>
</g>
<!-- n3 -->
<g id="node4" class="node">
<title>n3</title>
<path fill="none" stroke="black" d="M315.62,-284C315.62,-284 285.62,-284 285.62,-284 279.62,-284 273.62,-278 273.62,-272 273.62,-272 273.62,-260 273.62,-260 273.62,-254 279.62,-248 285.62,-248 285.62,-248 315.62,-248 315.62,-248 321.62,-248 327.62,-254 327.62,-260 327.62,-260 327.62,-272 327.62,-272 327.62,-278 321.62,-284 315.62,-284"/>
<text text-anchor="middle" x="300.62" y="-261.73" font-family="Times,serif" font-size="12.00">ret add</text>
</g>
<!-- n2&#45;&gt;n3 -->
<g id="edge3" class="edge">
<title>n2&#45;&gt;n3</title>
<path fill="none" stroke="black" d="M205.57,-266C222.05,-266 243.52,-266 261.79,-266"/>
<polygon fill="black" stroke="black" points="261.73,-269.5 271.73,-266 261.73,-262.5 261.73,-269.5"/>
<text text-anchor="middle" x="246.12" y="-267.75" font-family="Times,serif" font-size="10.00">(0,0)</text>
</g>
<!-- n4 -->
<g id="node5" class="node">
<title>n4</title>
<path fill="none" stroke="black" d="M68.5,-104C68.5,-104 12,-104 12,-104 6,-104 0,-98 0,-92 0,-92 0,-80 0,-80 0,-74 6,-68 12,-68 12,-68 68.5,-68 68.5,-68 74.5,-68 80.5,-74 80.5,-80 80.5,-80 80.5,-92 80.5,-92 80.5,-98 74.5,-104 68.5,-104"/>
<text text-anchor="middle" x="40.25" y="-81.72" font-family="Times,serif" font-size="12.00">callgroup add</text>
</g>
<!-- n4&#45;&gt;n5 -->
<g id="edge5" class="edge">
<title>n4&#45;&gt;n5</title>
<path fill="none" stroke="black" d="M80.92,-102.93C95.3,-109.07 111.74,-116.09 126.91,-122.57"/>
<polygon fill="black" stroke="black" points="125.21,-125.65 135.78,-126.35 127.96,-119.21 125.21,-125.65"/>
<text text-anchor="middle" x="109" y="-120.22" font-family="Times,serif" font-size="10.00">(0,1)</text>
</g>
<!-- n4&#45;&gt;n6 -->
<g id="edge7" class="edge">
<title>n4&#45;&gt;n6</title>
<path fill="none" stroke="black" d="M80.92,-68.19C95.3,-61.73 111.74,-54.35 126.91,-47.54"/>
<polygon fill="black" stroke="black" points="128.1,-50.84 135.79,-43.56 125.24,-44.46 128.1,-50.84"/>
<text text-anchor="middle" x="109" y="-60.9" font-family="Times,serif" font-size="10.00">(0,1)</text>
</g>
<!-- n7 -->
<g id="node8" class="node">
<title>n7</title>
<path fill="none" stroke="black" d="M198.5,-104C198.5,-104 157.75,-104 157.75,-104 151.75,-104 145.75,-98 145.75,-92 145.75,-92 145.75,-80 145.75,-80 145.75,-74 151.75,-68 157.75,-68 157.75,-68 198.5,-68 198.5,-68 204.5,-68 210.5,-74 210.5,-80 210.5,-80 210.5,-92 210.5,-92 210.5,-98 204.5,-104 198.5,-104"/>
<text text-anchor="middle" x="178.12" y="-81.72" font-family="Times,serif" font-size="12.00">retsnd add</text>
</g>
<!-- n4&#45;&gt;n7 -->
<g id="edge8" class="edge">
<title>n4&#45;&gt;n7</title>
<path fill="none" stroke="black" d="M80.92,-86C97.59,-86 117.03,-86 134.05,-86"/>
<polygon fill="black" stroke="black" points="133.88,-89.5 143.88,-86 133.88,-82.5 133.88,-89.5"/>
<text text-anchor="middle" x="109" y="-87.75" font-family="Times,serif" font-size="10.00">(0,1)</text>
</g>
<!-- n8 -->
<g id="node9" class="node">
<title>n8</title>
<path fill="none" stroke="black" d="M315.75,-104C315.75,-104 285.5,-104 285.5,-104 279.5,-104 273.5,-98 273.5,-92 273.5,-92 273.5,-80 273.5,-80 273.5,-74 279.5,-68 285.5,-68 285.5,-68 315.75,-68 315.75,-68 321.75,-68 327.75,-74 327.75,-80 327.75,-80 327.75,-92 327.75,-92 327.75,-98 321.75,-104 315.75,-104"/>
<text text-anchor="middle" x="300.62" y="-81.72" font-family="Times,serif" font-size="12.00">ret main</text>
</g>
<!-- n7&#45;&gt;n8 -->
<g id="edge9" class="edge">
<title>n7&#45;&gt;n8</title>
<path fill="none" stroke="black" d="M210.78,-86C226.38,-86 245.31,-86 261.68,-86"/>
<polygon fill="black" stroke="black" points="261.55,-89.5 271.55,-86 261.55,-82.5 261.55,-89.5"/>
<text text-anchor="middle" x="246.12" y="-87.75" font-family="Times,serif" font-size="10.00">(0,0)</text>
</g>
<!-- n9 -->
<g id="node10" class="node">
<title>n9</title>
<path fill="none" stroke="black" d="M193.12,-223C193.12,-223 163.12,-223 163.12,-223 157.12,-223 151.12,-217 151.12,-211 151.12,-211 151.12,-199 151.12,-199 151.12,-193 157.12,-187 163.12,-187 163.12,-187 193.12,-187 193.12,-187 199.12,-187 205.12,-193 205.12,-199 205.12,-199 205.12,-211 205.12,-211 205.12,-217 199.12,-223 193.12,-223"/>
<text text-anchor="middle" x="178.12" y="-200.72" font-family="Times,serif" font-size="12.00">+</text>
</g>
<!-- n10 -->
<g id="node11" class="node">
<title>n10</title>
<path fill="none" stroke="black" d="M315.62,-223C315.62,-223 285.62,-223 285.62,-223 279.62,-223 273.62,-217 273.62,-211 273.62,-211 273.62,-199 273.62,-199 273.62,-193 279.62,-187 285.62,-187 285.62,-187 315.62,-187 315.62,-187 321.62,-187 327.62,-193 327.62,-199 327.62,-199 327.62,-211 327.62,-211 327.62,-217 321.62,-223 315.62,-223"/>
<text text-anchor="middle" x="300.62" y="-200.72" font-family="Times,serif" font-size="12.00">ret add</text>
</g>
<!-- n9&#45;&gt;n10 -->
<g id="edge12" class="edge">
<title>n9&#45;&gt;n10</title>
<path fill="none" stroke="black" d="M205.57,-205C222.05,-205 243.52,-205 261.79,-205"/>
<polygon fill="black" stroke="black" points="261.73,-208.5 271.73,-205 261.73,-201.5 261.73,-208.5"/>
<text text-anchor="middle" x="246.12" y="-206.75" font-family="Times,serif" font-size="10.00">(0,0)</text>
</g>
<!-- n -->
<g id="node12" class="node">
<title>n</title>
<path fill="none" stroke="black" d="M55.25,-311C55.25,-311 25.25,-311 25.25,-311 19.25,-311 13.25,-305 13.25,-299 13.25,-299 13.25,-287 13.25,-287 13.25,-281 19.25,-275 25.25,-275 25.25,-275 55.25,-275 55.25,-275 61.25,-275 67.25,-281 67.25,-287 67.25,-287 67.25,-299 67.25,-299 67.25,-305 61.25,-311 55.25,-311"/>
<text text-anchor="middle" x="40.25" y="-288.73" font-family="Times,serif" font-size="12.00">n</text>
</g>
<!-- &#45;1 -->
<g id="node13" class="node">
<title>&#45;1</title>
<path fill="none" stroke="black" d="M55.25,-257C55.25,-257 25.25,-257 25.25,-257 19.25,-257 13.25,-251 13.25,-245 13.25,-245 13.25,-233 13.25,-233 13.25,-227 19.25,-221 25.25,-221 25.25,-221 55.25,-221 55.25,-221 61.25,-221 67.25,-227 67.25,-233 67.25,-233 67.25,-245 67.25,-245 67.25,-251 61.25,-257 55.25,-257"/>
<text text-anchor="middle" x="40.25" y="-234.72" font-family="Times,serif" font-size="12.00">&#45;1</text>
</g>
<!-- &#45;1&#45;&gt;n2 -->
<g id="edge1" class="edge">
<title>&#45;1&#45;&gt;n2</title>
<path fill="none" stroke="black" d="M67.62,-255.61C77,-260.62 87.88,-265.46 98.5,-268 111.75,-271.16 126.62,-271.56 139.82,-270.86"/>
<polygon fill="black" stroke="black" points="139.71,-274.38 149.41,-270.13 139.17,-267.4 139.71,-274.38"/>
<text text-anchor="middle" x="109" y="-272.53" font-family="Times,serif" font-size="10.00">(X,0)</text>
</g>
<!-- &#45;1&#45;&gt;n2 -->
<g id="edge2" class="edge">
<title>&#45;1&#45;&gt;n2</title>
<path fill="none" stroke="black" d="M67.45,-244.21C88.03,-248.3 116.96,-254.04 139.94,-258.61"/>
<polygon fill="black" stroke="black" points="139.03,-262 149.52,-260.52 140.4,-255.13 139.03,-262"/>
<text text-anchor="middle" x="109" y="-255.87" font-family="Times,serif" font-size="10.00">(Y,1)</text>
</g>
<!-- &#45;1&#45;&gt;n9 -->
<g id="edge10" class="edge">
<title>&#45;1&#45;&gt;n9</title>
<path fill="none" stroke="black" d="M67.45,-232.44C88.03,-227.29 116.96,-220.06 139.94,-214.31"/>
<polygon fill="black" stroke="black" points="140.69,-217.73 149.54,-211.9 138.99,-210.94 140.69,-217.73"/>
<text text-anchor="middle" x="109" y="-225.79" font-family="Times,serif" font-size="10.00">(X,0)</text>
</g>
<!-- &#45;1&#45;&gt;n9 -->
<g id="edge11" class="edge">
<title>&#45;1&#45;&gt;n9</title>
<path fill="none" stroke="black" d="M65.55,-220.51C75.26,-214.21 86.89,-207.96 98.5,-204.75 111.63,-201.12 126.47,-200.36 139.69,-200.78"/>
<polygon fill="black" stroke="black" points="139.11,-204.25 149.29,-201.33 139.51,-197.27 139.11,-204.25"/>
<text text-anchor="middle" x="109" y="-206.5" font-family="Times,serif" font-size="10.00">(Y,1)</text>
</g>
</g>
</svg>
