<?xml version="1.0" encoding="UTF-8" standalone="no"?>
<!DOCTYPE svg PUBLIC "-//W3C//DTD SVG 1.1//EN"
 "http://www.w3.org/Graphics/SVG/1.1/DTD/svg11.dtd">
<!-- Generated by graphviz version 12.2.1 (20241206.2353)
 -->
<!-- Title: G Pages: 1 -->
<svg width="451pt" height="465pt"
 viewBox="0.00 0.00 450.50 464.93" xmlns="http://www.w3.org/2000/svg" xmlns:xlink="http://www.w3.org/1999/xlink">
<g id="graph0" class="graph" transform="scale(1 1) rotate(0) translate(4 460.93)">
<title>G</title>
<polygon fill="white" stroke="none" points="-4,4 -4,-460.93 446.5,-460.93 446.5,4 -4,4"/>
<!-- n0 -->
<g id="node1" class="node">
<title>n0</title>
<path fill="none" stroke="black" d="M56.75,-172C56.75,-172 26.75,-172 26.75,-172 20.75,-172 14.75,-166 14.75,-160 14.75,-160 14.75,-148 14.75,-148 14.75,-142 20.75,-136 26.75,-136 26.75,-136 56.75,-136 56.75,-136 62.75,-136 68.75,-142 68.75,-148 68.75,-148 68.75,-160 68.75,-160 68.75,-166 62.75,-172 56.75,-172"/>
<text text-anchor="middle" x="41.75" y="-149.72" font-family="Times,serif" font-size="12.00">const 3</text>
</g>
<!-- n7 -->
<g id="node8" class="node">
<title>n7</title>
<path fill="none" stroke="black" d="M212.75,-165C212.75,-165 152.5,-165 152.5,-165 146.5,-165 140.5,-159 140.5,-153 140.5,-153 140.5,-141 140.5,-141 140.5,-135 146.5,-129 152.5,-129 152.5,-129 212.75,-129 212.75,-129 218.75,-129 224.75,-135 224.75,-141 224.75,-141 224.75,-153 224.75,-153 224.75,-159 218.75,-165 212.75,-165"/>
<text text-anchor="middle" x="182.62" y="-142.72" font-family="Times,serif" font-size="12.00">callsnd max#0</text>
</g>
<!-- n0&#45;&gt;n7 -->
<g id="edge9" class="edge">
<title>n0&#45;&gt;n7</title>
<path fill="none" stroke="black" d="M69.2,-152.67C86.05,-151.82 108.48,-150.69 128.86,-149.66"/>
<polygon fill="black" stroke="black" points="128.93,-153.16 138.74,-149.16 128.58,-146.17 128.93,-153.16"/>
<text text-anchor="middle" x="112" y="-152.67" font-family="Times,serif" font-size="10.00">(0,0)</text>
</g>
<!-- n1 -->
<g id="node2" class="node">
<title>n1</title>
<path fill="none" stroke="black" d="M56.75,-36C56.75,-36 26.75,-36 26.75,-36 20.75,-36 14.75,-30 14.75,-24 14.75,-24 14.75,-12 14.75,-12 14.75,-6 20.75,0 26.75,0 26.75,0 56.75,0 56.75,0 62.75,0 68.75,-6 68.75,-12 68.75,-12 68.75,-24 68.75,-24 68.75,-30 62.75,-36 56.75,-36"/>
<text text-anchor="middle" x="41.75" y="-13.72" font-family="Times,serif" font-size="12.00">const 2</text>
</g>
<!-- n8 -->
<g id="node9" class="node">
<title>n8</title>
<path fill="none" stroke="black" d="M212.75,-43C212.75,-43 152.5,-43 152.5,-43 146.5,-43 140.5,-37 140.5,-31 140.5,-31 140.5,-19 140.5,-19 140.5,-13 146.5,-7 152.5,-7 152.5,-7 212.75,-7 212.75,-7 218.75,-7 224.75,-13 224.75,-19 224.75,-19 224.75,-31 224.75,-31 224.75,-37 218.75,-43 212.75,-43"/>
<text text-anchor="middle" x="182.62" y="-20.73" font-family="Times,serif" font-size="12.00">callsnd max#1</text>
</g>
<!-- n1&#45;&gt;n8 -->
<g id="edge11" class="edge">
<title>n1&#45;&gt;n8</title>
<path fill="none" stroke="black" d="M68.99,-17.61C84.56,-17.54 104.67,-17.73 122.5,-18.75 124.66,-18.87 126.87,-19.02 129.1,-19.18"/>
<polygon fill="black" stroke="black" points="128.55,-22.65 138.81,-20 129.14,-15.67 128.55,-22.65"/>
<text text-anchor="middle" x="112" y="-20.5" font-family="Times,serif" font-size="10.00">(0,0)</text>
</g>
<!-- n2 -->
<g id="node3" class="node">
<title>n2</title>
<path fill="none" stroke="black" d="M197.62,-414C197.62,-414 167.62,-414 167.62,-414 161.62,-414 155.62,-408 155.62,-402 155.62,-402 155.62,-390 155.62,-390 155.62,-384 161.62,-378 167.62,-378 167.62,-378 197.62,-378 197.62,-378 203.62,-378 209.62,-384 209.62,-390 209.62,-390 209.62,-402 209.62,-402 209.62,-408 203.62,-414 197.62,-414"/>
<text text-anchor="middle" x="182.62" y="-391.73" font-family="Times,serif" font-size="12.00">&gt;</text>
</g>
<!-- n3 -->
<g id="node4" class="node">
<title>n3</title>
<path fill="none" stroke="black" d="M321.62,-450C321.62,-450 291.62,-450 291.62,-450 285.62,-450 279.62,-444 279.62,-438 279.62,-438 279.62,-426 279.62,-426 279.62,-420 285.62,-414 291.62,-414 291.62,-414 321.62,-414 321.62,-414 327.62,-414 333.62,-420 333.62,-426 333.62,-426 333.62,-438 333.62,-438 333.62,-444 327.62,-450 321.62,-450"/>
<text text-anchor="middle" x="306.62" y="-427.73" font-family="Times,serif" font-size="12.00">steer</text>
</g>
<!-- n2&#45;&gt;n3 -->
<g id="edge4" class="edge">
<title>n2&#45;&gt;n3</title>
<path fill="none" stroke="black" d="M210.1,-403.81C227.12,-408.84 249.5,-415.44 268.32,-420.99"/>
<polygon fill="black" stroke="black" points="267.17,-424.3 277.75,-423.78 269.15,-417.59 267.17,-424.3"/>
<text text-anchor="middle" x="252.12" y="-420.03" font-family="Times,serif" font-size="10.00">(0,1)</text>
</g>
<!-- n4 -->
<g id="node5" class="node">
<title>n4</title>
<path fill="none" stroke="black" d="M321.62,-396C321.62,-396 291.62,-396 291.62,-396 285.62,-396 279.62,-390 279.62,-384 279.62,-384 279.62,-372 279.62,-372 279.62,-366 285.62,-360 291.62,-360 291.62,-360 321.62,-360 321.62,-360 327.62,-360 333.62,-366 333.62,-372 333.62,-372 333.62,-384 333.62,-384 333.62,-390 327.62,-396 321.62,-396"/>
<text text-anchor="middle" x="306.62" y="-373.73" font-family="Times,serif" font-size="12.00">steer</text>
</g>
<!-- n2&#45;&gt;n4 -->
<g id="edge6" class="edge">
<title>n2&#45;&gt;n4</title>
<path fill="none" stroke="black" d="M210.1,-392.09C227.04,-389.59 249.29,-386.31 268.05,-383.54"/>
<polygon fill="black" stroke="black" points="268.33,-387.04 277.71,-382.12 267.3,-380.12 268.33,-387.04"/>
<text text-anchor="middle" x="252.12" y="-388.75" font-family="Times,serif" font-size="10.00">(0,1)</text>
</g>
<!-- n5 -->
<g id="node6" class="node">
<title>n5</title>
<path fill="none" stroke="black" d="M430.5,-423C430.5,-423 400.5,-423 400.5,-423 394.5,-423 388.5,-417 388.5,-411 388.5,-411 388.5,-399 388.5,-399 388.5,-393 394.5,-387 400.5,-387 400.5,-387 430.5,-387 430.5,-387 436.5,-387 442.5,-393 442.5,-399 442.5,-399 442.5,-411 442.5,-411 442.5,-417 436.5,-423 430.5,-423"/>
<text text-anchor="middle" x="415.5" y="-400.73" font-family="Times,serif" font-size="12.00">ret max</text>
</g>
<!-- n3&#45;&gt;n5 -->
<g id="edge7" class="edge">
<title>n3&#45;&gt;n5</title>
<path fill="none" stroke="black" d="M334.04,-425.33C347.02,-422.05 362.88,-418.04 377.07,-414.46"/>
<polygon fill="black" stroke="black" points="377.71,-417.9 386.55,-412.06 375.99,-411.12 377.71,-417.9"/>
<text text-anchor="middle" x="361.12" y="-421.87" font-family="Times,serif" font-size="10.00">(T,0)</text>
</g>
<!-- n4&#45;&gt;n5 -->
<g id="edge8" class="edge">
<title>n4&#45;&gt;n5</title>
<path fill="none" stroke="black" d="M334.04,-384.67C347.02,-387.95 362.88,-391.96 377.07,-395.54"/>
<polygon fill="black" stroke="black" points="375.99,-398.88 386.55,-397.94 377.71,-392.1 375.99,-398.88"/>
<text text-anchor="middle" x="361.12" y="-394.87" font-family="Times,serif" font-size="10.00">(F,0)</text>
</g>
<!-- n6 -->
<g id="node7" class="node">
<title>n6</title>
<path fill="none" stroke="black" d="M71.5,-104C71.5,-104 12,-104 12,-104 6,-104 0,-98 0,-92 0,-92 0,-80 0,-80 0,-74 6,-68 12,-68 12,-68 71.5,-68 71.5,-68 77.5,-68 83.5,-74 83.5,-80 83.5,-80 83.5,-92 83.5,-92 83.5,-98 77.5,-104 71.5,-104"/>
<text text-anchor="middle" x="41.75" y="-81.72" font-family="Times,serif" font-size="12.00">callgroup max</text>
</g>
<!-- n6&#45;&gt;n7 -->
<g id="edge10" class="edge">
<title>n6&#45;&gt;n7</title>
<path fill="none" stroke="black" d="M83.67,-103.97C98.1,-110.31 114.52,-117.52 129.74,-124.21"/>
<polygon fill="black" stroke="black" points="128.09,-127.31 138.65,-128.13 130.91,-120.9 128.09,-127.31"/>
<text text-anchor="middle" x="112" y="-121.9" font-family="Times,serif" font-size="10.00">(0,1)</text>
</g>
<!-- n6&#45;&gt;n8 -->
<g id="edge12" class="edge">
<title>n6&#45;&gt;n8</title>
<path fill="none" stroke="black" d="M83.67,-68.03C98.1,-61.69 114.52,-54.48 129.74,-47.79"/>
<polygon fill="black" stroke="black" points="130.91,-51.1 138.65,-43.87 128.09,-44.69 130.91,-51.1"/>
<text text-anchor="middle" x="112" y="-60.9" font-family="Times,serif" font-size="10.00">(0,1)</text>
</g>
<!-- n9 -->
<g id="node10" class="node">
<title>n9</title>
<path fill="none" stroke="black" d="M204.5,-104C204.5,-104 160.75,-104 160.75,-104 154.75,-104 148.75,-98 148.75,-92 148.75,-92 148.75,-80 148.75,-80 148.75,-74 154.75,-68 160.75,-68 160.75,-68 204.5,-68 204.5,-68 210.5,-68 216.5,-74 216.5,-80 216.5,-80 216.5,-92 216.5,-92 216.5,-98 210.5,-104 204.5,-104"/>
<text text-anchor="middle" x="182.62" y="-81.72" font-family="Times,serif" font-size="12.00">retsnd max</text>
</g>
<!-- n6&#45;&gt;n9 -->
<g id="edge13" class="edge">
<title>n6&#45;&gt;n9</title>
<path fill="none" stroke="black" d="M83.67,-86C100.44,-86 119.9,-86 137.03,-86"/>
<polygon fill="black" stroke="black" points="136.95,-89.5 146.95,-86 136.95,-82.5 136.95,-89.5"/>
<text text-anchor="middle" x="112" y="-87.75" font-family="Times,serif" font-size="10.00">(0,1)</text>
</g>
<!-- n10 -->
<g id="node11" class="node">
<title>n10</title>
<path fill="none" stroke="black" d="M321.75,-104C321.75,-104 291.5,-104 291.5,-104 285.5,-104 279.5,-98 279.5,-92 279.5,-92 279.5,-80 279.5,-80 279.5,-74 285.5,-68 291.5,-68 291.5,-68 321.75,-68 321.75,-68 327.75,-68 333.75,-74 333.75,-80 333.75,-80 333.75,-92 333.75,-92 333.75,-98 327.75,-104 321.75,-104"/>
<text text-anchor="middle" x="306.62" y="-81.72" font-family="Times,serif" font-size="12.00">ret main</text>
</g>
<!-- n9&#45;&gt;n10 -->
<g id="edge14" class="edge">
<title>n9&#45;&gt;n10</title>
<path fill="none" stroke="black" d="M216.96,-86C232.74,-86 251.66,-86 267.96,-86"/>
<polygon fill="black" stroke="black" points="267.77,-89.5 277.77,-86 267.77,-82.5 267.77,-89.5"/>
<text text-anchor="middle" x="252.12" y="-87.75" font-family="Times,serif" font-size="10.00">(0,0)</text>
</g>
<!-- n11 -->
<g id="node12" class="node">
<title>n11</title>
<path fill="none" stroke="black" d="M197.62,-266C197.62,-266 167.62,-266 167.62,-266 161.62,-266 155.62,-260 155.62,-254 155.62,-254 155.62,-242 155.62,-242 155.62,-236 161.62,-230 167.62,-230 167.62,-230 197.62,-230 197.62,-230 203.62,-230 209.62,-236 209.62,-242 209.62,-242 209.62,-254 209.62,-254 209.62,-260 203.62,-266 197.62,-266"/>
<text text-anchor="middle" x="182.62" y="-243.72" font-family="Times,serif" font-size="12.00">&gt;</text>
</g>
<!-- n12 -->
<g id="node13" class="node">
<title>n12</title>
<path fill="none" stroke="black" d="M321.62,-300C321.62,-300 291.62,-300 291.62,-300 285.62,-300 279.62,-294 279.62,-288 279.62,-288 279.62,-276 279.62,-276 279.62,-270 285.62,-264 291.62,-264 291.62,-264 321.62,-264 321.62,-264 327.62,-264 333.62,-270 333.62,-276 333.62,-276 333.62,-288 333.62,-288 333.62,-294 327.62,-300 321.62,-300"/>
<text text-anchor="middle" x="306.62" y="-277.73" font-family="Times,serif" font-size="12.00">steer</text>
</g>
<!-- n11&#45;&gt;n12 -->
<g id="edge18" class="edge">
<title>n11&#45;&gt;n12</title>
<path fill="none" stroke="black" d="M210.1,-255.38C227.12,-260.12 249.5,-266.36 268.32,-271.6"/>
<polygon fill="black" stroke="black" points="267.17,-274.92 277.75,-274.23 269.05,-268.17 267.17,-274.92"/>
<text text-anchor="middle" x="252.12" y="-270.8" font-family="Times,serif" font-size="10.00">(0,1)</text>
</g>
<!-- n13 -->
<g id="node14" class="node">
<title>n13</title>
<path fill="none" stroke="black" d="M321.62,-246C321.62,-246 291.62,-246 291.62,-246 285.62,-246 279.62,-240 279.62,-234 279.62,-234 279.62,-222 279.62,-222 279.62,-216 285.62,-210 291.62,-210 291.62,-210 321.62,-210 321.62,-210 327.62,-210 333.62,-216 333.62,-222 333.62,-222 333.62,-234 333.62,-234 333.62,-240 327.62,-246 321.62,-246"/>
<text text-anchor="middle" x="306.62" y="-223.72" font-family="Times,serif" font-size="12.00">steer</text>
</g>
<!-- n11&#45;&gt;n13 -->
<g id="edge20" class="edge">
<title>n11&#45;&gt;n13</title>
<path fill="none" stroke="black" d="M210.1,-243.66C227.04,-240.88 249.29,-237.24 268.05,-234.16"/>
<polygon fill="black" stroke="black" points="268.41,-237.65 277.71,-232.58 267.28,-230.74 268.41,-237.65"/>
<text text-anchor="middle" x="252.12" y="-239.75" font-family="Times,serif" font-size="10.00">(0,1)</text>
</g>
<!-- n14 -->
<g id="node15" class="node">
<title>n14</title>
<path fill="none" stroke="black" d="M430.5,-273C430.5,-273 400.5,-273 400.5,-273 394.5,-273 388.5,-267 388.5,-261 388.5,-261 388.5,-249 388.5,-249 388.5,-243 394.5,-237 400.5,-237 400.5,-237 430.5,-237 430.5,-237 436.5,-237 442.5,-243 442.5,-249 442.5,-249 442.5,-261 442.5,-261 442.5,-267 436.5,-273 430.5,-273"/>
<text text-anchor="middle" x="415.5" y="-250.72" font-family="Times,serif" font-size="12.00">ret max</text>
</g>
<!-- n12&#45;&gt;n14 -->
<g id="edge21" class="edge">
<title>n12&#45;&gt;n14</title>
<path fill="none" stroke="black" d="M334.04,-275.33C347.02,-272.05 362.88,-268.04 377.07,-264.46"/>
<polygon fill="black" stroke="black" points="377.71,-267.9 386.55,-262.06 375.99,-261.12 377.71,-267.9"/>
<text text-anchor="middle" x="361.12" y="-271.87" font-family="Times,serif" font-size="10.00">(T,0)</text>
</g>
<!-- n13&#45;&gt;n14 -->
<g id="edge22" class="edge">
<title>n13&#45;&gt;n14</title>
<path fill="none" stroke="black" d="M334.04,-234.67C347.02,-237.95 362.88,-241.96 377.07,-245.54"/>
<polygon fill="black" stroke="black" points="375.99,-248.88 386.55,-247.94 377.71,-242.1 375.99,-248.88"/>
<text text-anchor="middle" x="361.12" y="-244.87" font-family="Times,serif" font-size="10.00">(F,0)</text>
</g>
<!-- n -->
<g id="node16" class="node">
<title>n</title>
<path fill="none" stroke="black" d="M56.75,-397C56.75,-397 26.75,-397 26.75,-397 20.75,-397 14.75,-391 14.75,-385 14.75,-385 14.75,-373 14.75,-373 14.75,-367 20.75,-361 26.75,-361 26.75,-361 56.75,-361 56.75,-361 62.75,-361 68.75,-367 68.75,-373 68.75,-373 68.75,-385 68.75,-385 68.75,-391 62.75,-397 56.75,-397"/>
<text text-anchor="middle" x="41.75" y="-374.73" font-family="Times,serif" font-size="12.00">n</text>
</g>
<!-- &#45;1 -->
<g id="node17" class="node">
<title>&#45;1</title>
<path fill="none" stroke="black" d="M56.75,-343C56.75,-343 26.75,-343 26.75,-343 20.75,-343 14.75,-337 14.75,-331 14.75,-331 14.75,-319 14.75,-319 14.75,-313 20.75,-307 26.75,-307 26.75,-307 56.75,-307 56.75,-307 62.75,-307 68.75,-313 68.75,-319 68.75,-319 68.75,-331 68.75,-331 68.75,-337 62.75,-343 56.75,-343"/>
<text text-anchor="middle" x="41.75" y="-320.73" font-family="Times,serif" font-size="12.00">&#45;1</text>
</g>
<!-- &#45;1&#45;&gt;n2 -->
<g id="edge1" class="edge">
<title>&#45;1&#45;&gt;n2</title>
<path fill="none" stroke="black" d="M69,-341.51C79.02,-347.59 90.65,-354.36 101.5,-360 115.38,-367.22 131,-374.43 144.74,-380.49"/>
<polygon fill="black" stroke="black" points="143.33,-383.69 153.89,-384.47 146.12,-377.27 143.33,-383.69"/>
<text text-anchor="middle" x="112" y="-371.37" font-family="Times,serif" font-size="10.00">(A,0)</text>
</g>
<!-- &#45;1&#45;&gt;n2 -->
<g id="edge2" class="edge">
<title>&#45;1&#45;&gt;n2</title>
<path fill="none" stroke="black" d="M69.24,-339.82C74.34,-343.39 79.37,-347.5 83.5,-352 94.8,-364.31 87.75,-375.51 101.5,-385 113.81,-393.49 129.75,-396.82 144.17,-397.82"/>
<polygon fill="black" stroke="black" points="143.68,-401.3 153.79,-398.12 143.9,-394.31 143.68,-401.3"/>
<text text-anchor="middle" x="112" y="-395.73" font-family="Times,serif" font-size="10.00">(B,1)</text>
</g>
<!-- &#45;1&#45;&gt;n3 -->
<g id="edge3" class="edge">
<title>&#45;1&#45;&gt;n3</title>
<path fill="none" stroke="black" d="M69.1,-338.63C74.45,-342.38 79.62,-346.85 83.5,-352 99.49,-373.22 83.08,-389.85 101.5,-409 144.12,-453.31 221.9,-448.37 268.17,-440.42"/>
<polygon fill="black" stroke="black" points="268.53,-443.91 277.72,-438.64 267.25,-437.03 268.53,-443.91"/>
<text text-anchor="middle" x="182.62" y="-447.43" font-family="Times,serif" font-size="10.00">(A,0)</text>
</g>
<!-- &#45;1&#45;&gt;n4 -->
<g id="edge5" class="edge">
<title>&#45;1&#45;&gt;n4</title>
<path fill="none" stroke="black" d="M69.08,-329.17C104.57,-334.91 169.66,-345.91 224.75,-357.75 239.01,-360.81 254.58,-364.61 268.21,-368.07"/>
<polygon fill="black" stroke="black" points="267.12,-371.41 277.67,-370.51 268.86,-364.63 267.12,-371.41"/>
<text text-anchor="middle" x="182.62" y="-359.5" font-family="Times,serif" font-size="10.00">(B,0)</text>
</g>
<!-- &#45;1&#45;&gt;n11 -->
<g id="edge15" class="edge">
<title>&#45;1&#45;&gt;n11</title>
<path fill="none" stroke="black" d="M49.82,-306.59C58.59,-286.71 75.6,-256.08 101.5,-242.75 114.38,-236.12 130,-235.74 144.02,-237.62"/>
<polygon fill="black" stroke="black" points="143.38,-241.06 153.84,-239.39 144.61,-234.17 143.38,-241.06"/>
<text text-anchor="middle" x="112" y="-244.5" font-family="Times,serif" font-size="10.00">(A,0)</text>
</g>
<!-- &#45;1&#45;&gt;n11 -->
<g id="edge16" class="edge">
<title>&#45;1&#45;&gt;n11</title>
<path fill="none" stroke="black" d="M61.62,-306.66C72.58,-296.77 87.04,-284.96 101.5,-276.75 114.89,-269.15 130.65,-262.98 144.63,-258.33"/>
<polygon fill="black" stroke="black" points="145.46,-261.74 153.94,-255.38 143.35,-255.06 145.46,-261.74"/>
<text text-anchor="middle" x="112" y="-278.5" font-family="Times,serif" font-size="10.00">(B,1)</text>
</g>
<!-- &#45;1&#45;&gt;n12 -->
<g id="edge17" class="edge">
<title>&#45;1&#45;&gt;n12</title>
<path fill="none" stroke="black" d="M68.92,-320.72C115.74,-313.06 214,-296.99 268.03,-288.15"/>
<polygon fill="black" stroke="black" points="268.38,-291.64 277.68,-286.57 267.25,-284.73 268.38,-291.64"/>
<text text-anchor="middle" x="182.62" y="-310.23" font-family="Times,serif" font-size="10.00">(A,0)</text>
</g>
<!-- &#45;1&#45;&gt;n13 -->
<g id="edge19" class="edge">
<title>&#45;1&#45;&gt;n13</title>
<path fill="none" stroke="black" d="M50.13,-306.77C63.17,-277.68 93.45,-222.71 140.5,-209.75 183.47,-197.91 234.73,-207.02 268.62,-216.09"/>
<polygon fill="black" stroke="black" points="267.37,-219.38 277.95,-218.73 269.28,-212.64 267.37,-219.38"/>
<text text-anchor="middle" x="182.62" y="-211.5" font-family="Times,serif" font-size="10.00">(B,0)</text>
</g>
</g>
</svg>
