<?xml version="1.0" encoding="UTF-8" standalone="no"?>
<!DOCTYPE svg PUBLIC "-//W3C//DTD SVG 1.1//EN"
 "http://www.w3.org/Graphics/SVG/1.1/DTD/svg11.dtd">
<!-- Generated by graphviz version 12.2.1 (20241206.2353)
 -->
<!-- Title: G Pages: 1 -->
<svg width="865pt" height="1098pt"
 viewBox="0.00 0.00 864.50 1098.00" xmlns="http://www.w3.org/2000/svg" xmlns:xlink="http://www.w3.org/1999/xlink">
<g id="graph0" class="graph" transform="scale(1 1) rotate(0) translate(4 1094)">
<title>G</title>
<polygon fill="white" stroke="none" points="-4,4 -4,-1094 860.5,-1094 860.5,4 -4,4"/>
<!-- n0 -->
<g id="node1" class="node">
<title>n0</title>
<path fill="none" stroke="black" d="M58.75,-145C58.75,-145 27,-145 27,-145 21,-145 15,-139 15,-133 15,-133 15,-121 15,-121 15,-115 21,-109 27,-109 27,-109 58.75,-109 58.75,-109 64.75,-109 70.75,-115 70.75,-121 70.75,-121 70.75,-133 70.75,-133 70.75,-139 64.75,-145 58.75,-145"/>
<text text-anchor="middle" x="42.88" y="-122.72" font-family="Times,serif" font-size="12.00">const 10</text>
</g>
<!-- n2 -->
<g id="node3" class="node">
<title>n2</title>
<path fill="none" stroke="black" d="M198.38,-145C198.38,-145 168.38,-145 168.38,-145 162.38,-145 156.38,-139 156.38,-133 156.38,-133 156.38,-121 156.38,-121 156.38,-115 162.38,-109 168.38,-109 168.38,-109 198.38,-109 198.38,-109 204.38,-109 210.38,-115 210.38,-121 210.38,-121 210.38,-133 210.38,-133 210.38,-139 204.38,-145 198.38,-145"/>
<text text-anchor="middle" x="183.38" y="-122.72" font-family="Times,serif" font-size="12.00">+i 2</text>
</g>
<!-- n0&#45;&gt;n2 -->
<g id="edge1" class="edge">
<title>n0&#45;&gt;n2</title>
<path fill="none" stroke="black" d="M71.24,-127C92.18,-127 121.32,-127 144.5,-127"/>
<polygon fill="black" stroke="black" points="144.49,-130.5 154.49,-127 144.49,-123.5 144.49,-130.5"/>
<text text-anchor="middle" x="113.12" y="-128.75" font-family="Times,serif" font-size="10.00">(0,0)</text>
</g>
<!-- n1 -->
<g id="node2" class="node">
<title>n1</title>
<path fill="none" stroke="black" d="M199.25,-91C199.25,-91 167.5,-91 167.5,-91 161.5,-91 155.5,-85 155.5,-79 155.5,-79 155.5,-67 155.5,-67 155.5,-61 161.5,-55 167.5,-55 167.5,-55 199.25,-55 199.25,-55 205.25,-55 211.25,-61 211.25,-67 211.25,-67 211.25,-79 211.25,-79 211.25,-85 205.25,-91 199.25,-91"/>
<text text-anchor="middle" x="183.38" y="-68.72" font-family="Times,serif" font-size="12.00">const 15</text>
</g>
<!-- n3 -->
<g id="node4" class="node">
<title>n3</title>
<path fill="none" stroke="black" d="M323,-91C323,-91 293,-91 293,-91 287,-91 281,-85 281,-79 281,-79 281,-67 281,-67 281,-61 287,-55 293,-55 293,-55 323,-55 323,-55 329,-55 335,-61 335,-67 335,-67 335,-79 335,-79 335,-85 329,-91 323,-91"/>
<text text-anchor="middle" x="308" y="-68.72" font-family="Times,serif" font-size="12.00">+i 2</text>
</g>
<!-- n1&#45;&gt;n3 -->
<g id="edge2" class="edge">
<title>n1&#45;&gt;n3</title>
<path fill="none" stroke="black" d="M211.59,-73C228.57,-73 250.67,-73 269.32,-73"/>
<polygon fill="black" stroke="black" points="269.19,-76.5 279.19,-73 269.19,-69.5 269.19,-76.5"/>
<text text-anchor="middle" x="253.62" y="-74.75" font-family="Times,serif" font-size="10.00">(0,0)</text>
</g>
<!-- n5 -->
<g id="node6" class="node">
<title>n5</title>
<path fill="none" stroke="black" d="M323,-145C323,-145 293,-145 293,-145 287,-145 281,-139 281,-133 281,-133 281,-121 281,-121 281,-115 287,-109 293,-109 293,-109 323,-109 323,-109 329,-109 335,-115 335,-121 335,-121 335,-133 335,-133 335,-139 329,-145 323,-145"/>
<text text-anchor="middle" x="308" y="-122.72" font-family="Times,serif" font-size="12.00">*</text>
</g>
<!-- n2&#45;&gt;n5 -->
<g id="edge3" class="edge">
<title>n2&#45;&gt;n5</title>
<path fill="none" stroke="black" d="M210.68,-127C227.81,-127 250.43,-127 269.45,-127"/>
<polygon fill="black" stroke="black" points="269.22,-130.5 279.22,-127 269.22,-123.5 269.22,-130.5"/>
<text text-anchor="middle" x="253.62" y="-128.75" font-family="Times,serif" font-size="10.00">(0,0)</text>
</g>
<!-- n6 -->
<g id="node7" class="node">
<title>n6</title>
<path fill="none" stroke="black" d="M451.38,-104C451.38,-104 421.38,-104 421.38,-104 415.38,-104 409.38,-98 409.38,-92 409.38,-92 409.38,-80 409.38,-80 409.38,-74 415.38,-68 421.38,-68 421.38,-68 451.38,-68 451.38,-68 457.38,-68 463.38,-74 463.38,-80 463.38,-80 463.38,-92 463.38,-92 463.38,-98 457.38,-104 451.38,-104"/>
<text text-anchor="middle" x="436.38" y="-81.72" font-family="Times,serif" font-size="12.00">+</text>
</g>
<!-- n3&#45;&gt;n6 -->
<g id="edge6" class="edge">
<title>n3&#45;&gt;n6</title>
<path fill="none" stroke="black" d="M335.49,-75.73C353.52,-77.58 377.65,-80.06 397.68,-82.12"/>
<polygon fill="black" stroke="black" points="397.11,-85.58 407.41,-83.12 397.82,-78.62 397.11,-85.58"/>
<text text-anchor="middle" x="362.38" y="-80.86" font-family="Times,serif" font-size="10.00">(0,1)</text>
</g>
<!-- n4 -->
<g id="node5" class="node">
<title>n4</title>
<path fill="none" stroke="black" d="M214.25,-199C214.25,-199 152.5,-199 152.5,-199 146.5,-199 140.5,-193 140.5,-187 140.5,-187 140.5,-175 140.5,-175 140.5,-169 146.5,-163 152.5,-163 152.5,-163 214.25,-163 214.25,-163 220.25,-163 226.25,-169 226.25,-175 226.25,-175 226.25,-187 226.25,-187 226.25,-193 220.25,-199 214.25,-199"/>
<text text-anchor="middle" x="183.38" y="-176.72" font-family="Times,serif" font-size="12.00">const 1000003</text>
</g>
<!-- n4&#45;&gt;n5 -->
<g id="edge4" class="edge">
<title>n4&#45;&gt;n5</title>
<path fill="none" stroke="black" d="M226.23,-162.57C240.61,-156.24 256.57,-149.21 270.49,-143.08"/>
<polygon fill="black" stroke="black" points="271.55,-146.44 279.29,-139.2 268.72,-140.03 271.55,-146.44"/>
<text text-anchor="middle" x="253.62" y="-155.75" font-family="Times,serif" font-size="10.00">(0,1)</text>
</g>
<!-- n5&#45;&gt;n6 -->
<g id="edge5" class="edge">
<title>n5&#45;&gt;n6</title>
<path fill="none" stroke="black" d="M335.49,-118.41C353.69,-112.5 378.1,-104.58 398.24,-98.05"/>
<polygon fill="black" stroke="black" points="399.05,-101.47 407.48,-95.05 396.89,-94.81 399.05,-101.47"/>
<text text-anchor="middle" x="362.38" y="-114.32" font-family="Times,serif" font-size="10.00">(0,0)</text>
</g>
<!-- n35 -->
<g id="node36" class="node">
<title>n35</title>
<path fill="none" stroke="black" d="M619.75,-97C619.75,-97 549.75,-97 549.75,-97 543.75,-97 537.75,-91 537.75,-85 537.75,-85 537.75,-73 537.75,-73 537.75,-67 543.75,-61 549.75,-61 549.75,-61 619.75,-61 619.75,-61 625.75,-61 631.75,-67 631.75,-73 631.75,-73 631.75,-85 631.75,-85 631.75,-91 625.75,-97 619.75,-97"/>
<text text-anchor="middle" x="584.75" y="-74.72" font-family="Times,serif" font-size="12.00">callsnd fstPair#0</text>
</g>
<!-- n6&#45;&gt;n35 -->
<g id="edge39" class="edge">
<title>n6&#45;&gt;n35</title>
<path fill="none" stroke="black" d="M463.54,-84.75C480.9,-83.92 504.37,-82.8 525.97,-81.76"/>
<polygon fill="black" stroke="black" points="526.06,-85.26 535.88,-81.29 525.72,-78.27 526.06,-85.26"/>
<text text-anchor="middle" x="510.38" y="-84.67" font-family="Times,serif" font-size="10.00">(0,0)</text>
</g>
<!-- n7 -->
<g id="node8" class="node">
<title>n7</title>
<path fill="none" stroke="black" d="M57.88,-901C57.88,-901 27.88,-901 27.88,-901 21.88,-901 15.88,-895 15.88,-889 15.88,-889 15.88,-877 15.88,-877 15.88,-871 21.88,-865 27.88,-865 27.88,-865 57.88,-865 57.88,-865 63.88,-865 69.88,-871 69.88,-877 69.88,-877 69.88,-889 69.88,-889 69.88,-895 63.88,-901 57.88,-901"/>
<text text-anchor="middle" x="42.88" y="-878.73" font-family="Times,serif" font-size="12.00">const 0</text>
</g>
<!-- n18 -->
<g id="node19" class="node">
<title>n18</title>
<path fill="none" stroke="black" d="M198.38,-972C198.38,-972 168.38,-972 168.38,-972 162.38,-972 156.38,-966 156.38,-960 156.38,-960 156.38,-948 156.38,-948 156.38,-942 162.38,-936 168.38,-936 168.38,-936 198.38,-936 198.38,-936 204.38,-936 210.38,-942 210.38,-948 210.38,-948 210.38,-960 210.38,-960 210.38,-966 204.38,-972 198.38,-972"/>
<text text-anchor="middle" x="183.38" y="-949.73" font-family="Times,serif" font-size="12.00">==</text>
</g>
<!-- n7&#45;&gt;n18 -->
<g id="edge17" class="edge">
<title>n7&#45;&gt;n18</title>
<path fill="none" stroke="black" d="M70.25,-896.52C91.72,-907.53 122.25,-923.18 146.03,-935.37"/>
<polygon fill="black" stroke="black" points="144.25,-938.39 154.75,-939.84 147.45,-932.16 144.25,-938.39"/>
<text text-anchor="middle" x="113.12" y="-924.5" font-family="Times,serif" font-size="10.00">(0,0)</text>
</g>
<!-- n21 -->
<g id="node22" class="node">
<title>n21</title>
<path fill="none" stroke="black" d="M198.38,-918C198.38,-918 168.38,-918 168.38,-918 162.38,-918 156.38,-912 156.38,-906 156.38,-906 156.38,-894 156.38,-894 156.38,-888 162.38,-882 168.38,-882 168.38,-882 198.38,-882 198.38,-882 204.38,-882 210.38,-888 210.38,-894 210.38,-894 210.38,-906 210.38,-906 210.38,-912 204.38,-918 198.38,-918"/>
<text text-anchor="middle" x="183.38" y="-895.73" font-family="Times,serif" font-size="12.00">+</text>
</g>
<!-- n7&#45;&gt;n21 -->
<g id="edge23" class="edge">
<title>n7&#45;&gt;n21</title>
<path fill="none" stroke="black" d="M70.23,-871.52C85.57,-866.34 105.23,-862.28 122.5,-866.75 130.49,-868.82 138.55,-872.21 146.06,-876.06"/>
<polygon fill="black" stroke="black" points="144.12,-878.99 154.57,-880.77 147.51,-872.86 144.12,-878.99"/>
<text text-anchor="middle" x="113.12" y="-868.5" font-family="Times,serif" font-size="10.00">(0,0)</text>
</g>
<!-- n8 -->
<g id="node9" class="node">
<title>n8</title>
<path fill="none" stroke="black" d="M73.75,-757C73.75,-757 12,-757 12,-757 6,-757 0,-751 0,-745 0,-745 0,-733 0,-733 0,-727 6,-721 12,-721 12,-721 73.75,-721 73.75,-721 79.75,-721 85.75,-727 85.75,-733 85.75,-733 85.75,-745 85.75,-745 85.75,-751 79.75,-757 73.75,-757"/>
<text text-anchor="middle" x="42.88" y="-734.73" font-family="Times,serif" font-size="12.00">const 1000003</text>
</g>
<!-- n9 -->
<g id="node10" class="node">
<title>n9</title>
<path fill="none" stroke="black" d="M198.38,-709C198.38,-709 168.38,-709 168.38,-709 162.38,-709 156.38,-703 156.38,-697 156.38,-697 156.38,-685 156.38,-685 156.38,-679 162.38,-673 168.38,-673 168.38,-673 198.38,-673 198.38,-673 204.38,-673 210.38,-679 210.38,-685 210.38,-685 210.38,-697 210.38,-697 210.38,-703 204.38,-709 198.38,-709"/>
<text text-anchor="middle" x="183.38" y="-686.73" font-family="Times,serif" font-size="12.00">/</text>
</g>
<!-- n8&#45;&gt;n9 -->
<g id="edge8" class="edge">
<title>n8&#45;&gt;n9</title>
<path fill="none" stroke="black" d="M86.24,-728.29C98.08,-724.99 110.88,-721.13 122.5,-717 130.12,-714.29 138.15,-711.08 145.76,-707.84"/>
<polygon fill="black" stroke="black" points="147,-711.12 154.77,-703.91 144.21,-704.7 147,-711.12"/>
<text text-anchor="middle" x="113.12" y="-724.37" font-family="Times,serif" font-size="10.00">(0,1)</text>
</g>
<!-- n10 -->
<g id="node11" class="node">
<title>n10</title>
<path fill="none" stroke="black" d="M323,-763C323,-763 293,-763 293,-763 287,-763 281,-757 281,-751 281,-751 281,-739 281,-739 281,-733 287,-727 293,-727 293,-727 323,-727 323,-727 329,-727 335,-733 335,-739 335,-739 335,-751 335,-751 335,-757 329,-763 323,-763"/>
<text text-anchor="middle" x="308" y="-740.73" font-family="Times,serif" font-size="12.00">&#45;i 2</text>
</g>
<!-- n9&#45;&gt;n10 -->
<g id="edge9" class="edge">
<title>n9&#45;&gt;n10</title>
<path fill="none" stroke="black" d="M210.68,-702.58C228.06,-710.24 251.07,-720.37 270.25,-728.82"/>
<polygon fill="black" stroke="black" points="268.79,-732 279.35,-732.82 271.61,-725.59 268.79,-732"/>
<text text-anchor="middle" x="253.62" y="-726.17" font-family="Times,serif" font-size="10.00">(0,0)</text>
</g>
<!-- n20 -->
<g id="node21" class="node">
<title>n20</title>
<path fill="none" stroke="black" d="M451.38,-899C451.38,-899 421.38,-899 421.38,-899 415.38,-899 409.38,-893 409.38,-887 409.38,-887 409.38,-875 409.38,-875 409.38,-869 415.38,-863 421.38,-863 421.38,-863 451.38,-863 451.38,-863 457.38,-863 463.38,-869 463.38,-875 463.38,-875 463.38,-887 463.38,-887 463.38,-893 457.38,-899 451.38,-899"/>
<text text-anchor="middle" x="436.38" y="-876.73" font-family="Times,serif" font-size="12.00">steer</text>
</g>
<!-- n10&#45;&gt;n20 -->
<g id="edge21" class="edge">
<title>n10&#45;&gt;n20</title>
<path fill="none" stroke="black" d="M328.48,-763.38C330.85,-766.13 333.1,-769.04 335,-772 346.84,-790.49 339.79,-800.46 353,-818 365.47,-834.56 383.38,-848.96 399.31,-859.8"/>
<polygon fill="black" stroke="black" points="397.37,-862.71 407.65,-865.25 401.2,-856.85 397.37,-862.71"/>
<text text-anchor="middle" x="362.38" y="-838.51" font-family="Times,serif" font-size="10.00">(0,0)</text>
</g>
<!-- n11 -->
<g id="node12" class="node">
<title>n11</title>
<path fill="none" stroke="black" d="M73.75,-814C73.75,-814 12,-814 12,-814 6,-814 0,-808 0,-802 0,-802 0,-790 0,-790 0,-784 6,-778 12,-778 12,-778 73.75,-778 73.75,-778 79.75,-778 85.75,-784 85.75,-790 85.75,-790 85.75,-802 85.75,-802 85.75,-808 79.75,-814 73.75,-814"/>
<text text-anchor="middle" x="42.88" y="-791.73" font-family="Times,serif" font-size="12.00">const 1000003</text>
</g>
<!-- n12 -->
<g id="node13" class="node">
<title>n12</title>
<path fill="none" stroke="black" d="M198.38,-763C198.38,-763 168.38,-763 168.38,-763 162.38,-763 156.38,-757 156.38,-751 156.38,-751 156.38,-739 156.38,-739 156.38,-733 162.38,-727 168.38,-727 168.38,-727 198.38,-727 198.38,-727 204.38,-727 210.38,-733 210.38,-739 210.38,-739 210.38,-751 210.38,-751 210.38,-757 204.38,-763 198.38,-763"/>
<text text-anchor="middle" x="183.38" y="-740.73" font-family="Times,serif" font-size="12.00">/</text>
</g>
<!-- n11&#45;&gt;n12 -->
<g id="edge11" class="edge">
<title>n11&#45;&gt;n12</title>
<path fill="none" stroke="black" d="M86.06,-780.29C92,-778.09 98.03,-775.86 103.75,-773.75 117.39,-768.72 132.37,-763.24 145.56,-758.42"/>
<polygon fill="black" stroke="black" points="146.54,-761.79 154.73,-755.07 144.14,-755.21 146.54,-761.79"/>
<text text-anchor="middle" x="113.12" y="-775.5" font-family="Times,serif" font-size="10.00">(0,1)</text>
</g>
<!-- n13 -->
<g id="node14" class="node">
<title>n13</title>
<path fill="none" stroke="black" d="M323,-817C323,-817 293,-817 293,-817 287,-817 281,-811 281,-805 281,-805 281,-793 281,-793 281,-787 287,-781 293,-781 293,-781 323,-781 323,-781 329,-781 335,-787 335,-793 335,-793 335,-805 335,-805 335,-811 329,-817 323,-817"/>
<text text-anchor="middle" x="308" y="-794.73" font-family="Times,serif" font-size="12.00">*</text>
</g>
<!-- n11&#45;&gt;n13 -->
<g id="edge13" class="edge">
<title>n11&#45;&gt;n13</title>
<path fill="none" stroke="black" d="M86.15,-796.48C136.88,-797.06 221.15,-798.02 269.6,-798.57"/>
<polygon fill="black" stroke="black" points="269.27,-802.07 279.31,-798.68 269.35,-795.07 269.27,-802.07"/>
<text text-anchor="middle" x="183.38" y="-799.79" font-family="Times,serif" font-size="10.00">(0,1)</text>
</g>
<!-- n12&#45;&gt;n13 -->
<g id="edge12" class="edge">
<title>n12&#45;&gt;n13</title>
<path fill="none" stroke="black" d="M210.68,-753.36C226.17,-758.6 246,-765.84 263,-773.75 265.58,-774.95 268.22,-776.26 270.85,-777.61"/>
<polygon fill="black" stroke="black" points="269.07,-780.63 279.53,-782.31 272.4,-774.47 269.07,-780.63"/>
<text text-anchor="middle" x="253.62" y="-775.5" font-family="Times,serif" font-size="10.00">(0,0)</text>
</g>
<!-- n14 -->
<g id="node15" class="node">
<title>n14</title>
<path fill="none" stroke="black" d="M451.38,-656C451.38,-656 421.38,-656 421.38,-656 415.38,-656 409.38,-650 409.38,-644 409.38,-644 409.38,-632 409.38,-632 409.38,-626 415.38,-620 421.38,-620 421.38,-620 451.38,-620 451.38,-620 457.38,-620 463.38,-626 463.38,-632 463.38,-632 463.38,-644 463.38,-644 463.38,-650 457.38,-656 451.38,-656"/>
<text text-anchor="middle" x="436.38" y="-633.73" font-family="Times,serif" font-size="12.00">&#45;</text>
</g>
<!-- n13&#45;&gt;n14 -->
<g id="edge15" class="edge">
<title>n13&#45;&gt;n14</title>
<path fill="none" stroke="black" d="M327.94,-780.74C330.45,-777.93 332.88,-774.97 335,-772 366.03,-728.51 353.15,-703.92 389.75,-665 392.63,-661.94 395.94,-659.11 399.42,-656.52"/>
<polygon fill="black" stroke="black" points="401.22,-659.53 407.65,-651.11 397.37,-653.69 401.22,-659.53"/>
<text text-anchor="middle" x="362.38" y="-738.82" font-family="Times,serif" font-size="10.00">(0,1)</text>
</g>
<!-- n15 -->
<g id="node16" class="node">
<title>n15</title>
<path fill="none" stroke="black" d="M599.75,-656C599.75,-656 569.75,-656 569.75,-656 563.75,-656 557.75,-650 557.75,-644 557.75,-644 557.75,-632 557.75,-632 557.75,-626 563.75,-620 569.75,-620 569.75,-620 599.75,-620 599.75,-620 605.75,-620 611.75,-626 611.75,-632 611.75,-632 611.75,-644 611.75,-644 611.75,-650 605.75,-656 599.75,-656"/>
<text text-anchor="middle" x="584.75" y="-633.73" font-family="Times,serif" font-size="12.00">&#45;i 2</text>
</g>
<!-- n14&#45;&gt;n15 -->
<g id="edge16" class="edge">
<title>n14&#45;&gt;n15</title>
<path fill="none" stroke="black" d="M463.54,-638C486.51,-638 520.18,-638 546.04,-638"/>
<polygon fill="black" stroke="black" points="545.8,-641.5 555.8,-638 545.8,-634.5 545.8,-641.5"/>
<text text-anchor="middle" x="510.38" y="-639.75" font-family="Times,serif" font-size="10.00">(0,0)</text>
</g>
<!-- n16 -->
<g id="node17" class="node">
<title>n16</title>
<path fill="none" stroke="black" d="M57.88,-1036C57.88,-1036 27.88,-1036 27.88,-1036 21.88,-1036 15.88,-1030 15.88,-1024 15.88,-1024 15.88,-1012 15.88,-1012 15.88,-1006 21.88,-1000 27.88,-1000 27.88,-1000 57.88,-1000 57.88,-1000 63.88,-1000 69.88,-1006 69.88,-1012 69.88,-1012 69.88,-1024 69.88,-1024 69.88,-1030 63.88,-1036 57.88,-1036"/>
<text text-anchor="middle" x="42.88" y="-1013.73" font-family="Times,serif" font-size="12.00">const 1</text>
</g>
<!-- n19 -->
<g id="node20" class="node">
<title>n19</title>
<path fill="none" stroke="black" d="M323,-967C323,-967 293,-967 293,-967 287,-967 281,-961 281,-955 281,-955 281,-943 281,-943 281,-937 287,-931 293,-931 293,-931 323,-931 323,-931 329,-931 335,-937 335,-943 335,-943 335,-955 335,-955 335,-961 329,-967 323,-967"/>
<text text-anchor="middle" x="308" y="-944.73" font-family="Times,serif" font-size="12.00">band</text>
</g>
<!-- n16&#45;&gt;n19 -->
<g id="edge19" class="edge">
<title>n16&#45;&gt;n19</title>
<path fill="none" stroke="black" d="M70.17,-1014.06C105.92,-1008.38 171.64,-996.83 226.25,-981 243.04,-976.13 246.74,-973.42 263,-967 265.31,-966.09 267.68,-965.14 270.07,-964.18"/>
<polygon fill="black" stroke="black" points="271.16,-967.52 279.11,-960.52 268.53,-961.03 271.16,-967.52"/>
<text text-anchor="middle" x="183.38" y="-1003.12" font-family="Times,serif" font-size="10.00">(0,0)</text>
</g>
<!-- n16&#45;&gt;n21 -->
<g id="edge24" class="edge">
<title>n16&#45;&gt;n21</title>
<path fill="none" stroke="black" d="M70.1,-1005.67C76.05,-1001.75 81.77,-996.87 85.75,-991 109.18,-956.41 71.51,-925.31 103.75,-898.75 115.06,-889.44 130.7,-888.15 145.06,-889.8"/>
<polygon fill="black" stroke="black" points="144.26,-893.21 154.7,-891.4 145.41,-886.31 144.26,-893.21"/>
<text text-anchor="middle" x="113.12" y="-900.5" font-family="Times,serif" font-size="10.00">(0,1)</text>
</g>
<!-- n17 -->
<g id="node18" class="node">
<title>n17</title>
<path fill="none" stroke="black" d="M57.88,-982C57.88,-982 27.88,-982 27.88,-982 21.88,-982 15.88,-976 15.88,-970 15.88,-970 15.88,-958 15.88,-958 15.88,-952 21.88,-946 27.88,-946 27.88,-946 57.88,-946 57.88,-946 63.88,-946 69.88,-952 69.88,-958 69.88,-958 69.88,-970 69.88,-970 69.88,-976 63.88,-982 57.88,-982"/>
<text text-anchor="middle" x="42.88" y="-959.73" font-family="Times,serif" font-size="12.00">const 0</text>
</g>
<!-- n17&#45;&gt;n18 -->
<g id="edge18" class="edge">
<title>n17&#45;&gt;n18</title>
<path fill="none" stroke="black" d="M70.25,-962.1C91.33,-960.57 121.16,-958.42 144.75,-956.72"/>
<polygon fill="black" stroke="black" points="144.86,-960.22 154.59,-956.01 144.36,-953.24 144.86,-960.22"/>
<text text-anchor="middle" x="113.12" y="-961.35" font-family="Times,serif" font-size="10.00">(0,1)</text>
</g>
<!-- n18&#45;&gt;n19 -->
<g id="edge20" class="edge">
<title>n18&#45;&gt;n19</title>
<path fill="none" stroke="black" d="M210.68,-952.93C227.81,-952.23 250.43,-951.31 269.45,-950.53"/>
<polygon fill="black" stroke="black" points="269.38,-954.04 279.23,-950.13 269.09,-947.04 269.38,-954.04"/>
<text text-anchor="middle" x="253.62" y="-953.25" font-family="Times,serif" font-size="10.00">(0,1)</text>
</g>
<!-- n19&#45;&gt;n20 -->
<g id="edge22" class="edge">
<title>n19&#45;&gt;n20</title>
<path fill="none" stroke="black" d="M329.12,-930.8C336.32,-924.87 344.71,-918.57 353,-913.75 367.2,-905.49 383.89,-898.42 398.52,-892.99"/>
<polygon fill="black" stroke="black" points="399.56,-896.33 407.8,-889.67 397.21,-889.74 399.56,-896.33"/>
<text text-anchor="middle" x="362.38" y="-915.5" font-family="Times,serif" font-size="10.00">(0,1)</text>
</g>
<!-- n33 -->
<g id="node34" class="node">
<title>n33</title>
<path fill="none" stroke="black" d="M844.5,-886C844.5,-886 807.5,-886 807.5,-886 801.5,-886 795.5,-880 795.5,-874 795.5,-874 795.5,-862 795.5,-862 795.5,-856 801.5,-850 807.5,-850 807.5,-850 844.5,-850 844.5,-850 850.5,-850 856.5,-856 856.5,-862 856.5,-862 856.5,-874 856.5,-874 856.5,-880 850.5,-886 844.5,-886"/>
<text text-anchor="middle" x="826" y="-863.73" font-family="Times,serif" font-size="12.00">ret fstPair</text>
</g>
<!-- n20&#45;&gt;n33 -->
<g id="edge37" class="edge">
<title>n20&#45;&gt;n33</title>
<path fill="none" stroke="black" d="M463.71,-880.12C530.06,-877.89 704.43,-872.04 784.16,-869.37"/>
<polygon fill="black" stroke="black" points="783.82,-872.88 793.7,-869.05 783.59,-865.89 783.82,-872.88"/>
<text text-anchor="middle" x="659.12" y="-875.5" font-family="Times,serif" font-size="10.00">(T,0)</text>
</g>
<!-- n23 -->
<g id="node24" class="node">
<title>n23</title>
<path fill="none" stroke="black" d="M323,-904C323,-904 293,-904 293,-904 287,-904 281,-898 281,-892 281,-892 281,-880 281,-880 281,-874 287,-868 293,-868 293,-868 323,-868 323,-868 329,-868 335,-874 335,-880 335,-880 335,-892 335,-892 335,-898 329,-904 323,-904"/>
<text text-anchor="middle" x="308" y="-881.73" font-family="Times,serif" font-size="12.00">&gt;</text>
</g>
<!-- n21&#45;&gt;n23 -->
<g id="edge25" class="edge">
<title>n21&#45;&gt;n23</title>
<path fill="none" stroke="black" d="M210.68,-897C227.81,-895.04 250.43,-892.46 269.45,-890.29"/>
<polygon fill="black" stroke="black" points="269.7,-893.78 279.23,-889.17 268.9,-886.83 269.7,-893.78"/>
<text text-anchor="middle" x="253.62" y="-894.75" font-family="Times,serif" font-size="10.00">(0,0)</text>
</g>
<!-- n22 -->
<g id="node23" class="node">
<title>n22</title>
<path fill="none" stroke="black" d="M198.38,-864C198.38,-864 168.38,-864 168.38,-864 162.38,-864 156.38,-858 156.38,-852 156.38,-852 156.38,-840 156.38,-840 156.38,-834 162.38,-828 168.38,-828 168.38,-828 198.38,-828 198.38,-828 204.38,-828 210.38,-834 210.38,-840 210.38,-840 210.38,-852 210.38,-852 210.38,-858 204.38,-864 198.38,-864"/>
<text text-anchor="middle" x="183.38" y="-841.73" font-family="Times,serif" font-size="12.00">const 0</text>
</g>
<!-- n22&#45;&gt;n23 -->
<g id="edge26" class="edge">
<title>n22&#45;&gt;n23</title>
<path fill="none" stroke="black" d="M210.68,-854.58C227.98,-860.22 250.86,-867.69 269.98,-873.93"/>
<polygon fill="black" stroke="black" points="268.71,-877.19 279.3,-876.96 270.88,-870.54 268.71,-877.19"/>
<text text-anchor="middle" x="253.62" y="-872.51" font-family="Times,serif" font-size="10.00">(0,1)</text>
</g>
<!-- n26 -->
<g id="node27" class="node">
<title>n26</title>
<path fill="none" stroke="black" d="M451.38,-967C451.38,-967 421.38,-967 421.38,-967 415.38,-967 409.38,-961 409.38,-955 409.38,-955 409.38,-943 409.38,-943 409.38,-937 415.38,-931 421.38,-931 421.38,-931 451.38,-931 451.38,-931 457.38,-931 463.38,-937 463.38,-943 463.38,-943 463.38,-955 463.38,-955 463.38,-961 457.38,-967 451.38,-967"/>
<text text-anchor="middle" x="436.38" y="-944.73" font-family="Times,serif" font-size="12.00">==</text>
</g>
<!-- n23&#45;&gt;n26 -->
<g id="edge27" class="edge">
<title>n23&#45;&gt;n26</title>
<path fill="none" stroke="black" d="M324.58,-904.11C332.38,-912.17 342.4,-921.13 353,-927 366.69,-934.58 383.13,-939.65 397.7,-942.99"/>
<polygon fill="black" stroke="black" points="396.92,-946.41 407.42,-945.01 398.34,-939.55 396.92,-946.41"/>
<text text-anchor="middle" x="362.38" y="-936.47" font-family="Times,serif" font-size="10.00">(0,0)</text>
</g>
<!-- n30 -->
<g id="node31" class="node">
<title>n30</title>
<path fill="none" stroke="black" d="M451.38,-831C451.38,-831 421.38,-831 421.38,-831 415.38,-831 409.38,-825 409.38,-819 409.38,-819 409.38,-807 409.38,-807 409.38,-801 415.38,-795 421.38,-795 421.38,-795 451.38,-795 451.38,-795 457.38,-795 463.38,-801 463.38,-807 463.38,-807 463.38,-819 463.38,-819 463.38,-825 457.38,-831 451.38,-831"/>
<text text-anchor="middle" x="436.38" y="-808.73" font-family="Times,serif" font-size="12.00">+</text>
</g>
<!-- n23&#45;&gt;n30 -->
<g id="edge33" class="edge">
<title>n23&#45;&gt;n30</title>
<path fill="none" stroke="black" d="M335.26,-876.2C346.74,-871.54 360.2,-865.56 371.75,-859 382.53,-852.88 393.68,-845.31 403.58,-838.08"/>
<polygon fill="black" stroke="black" points="405.5,-841.01 411.42,-832.22 401.31,-835.41 405.5,-841.01"/>
<text text-anchor="middle" x="362.38" y="-870.11" font-family="Times,serif" font-size="10.00">(0,0)</text>
</g>
<!-- n24 -->
<g id="node25" class="node">
<title>n24</title>
<path fill="none" stroke="black" d="M323,-709C323,-709 293,-709 293,-709 287,-709 281,-703 281,-697 281,-697 281,-685 281,-685 281,-679 287,-673 293,-673 293,-673 323,-673 323,-673 329,-673 335,-679 335,-685 335,-685 335,-697 335,-697 335,-703 329,-709 323,-709"/>
<text text-anchor="middle" x="308" y="-686.73" font-family="Times,serif" font-size="12.00">const 1</text>
</g>
<!-- n27 -->
<g id="node28" class="node">
<title>n27</title>
<path fill="none" stroke="black" d="M599.75,-853C599.75,-853 569.75,-853 569.75,-853 563.75,-853 557.75,-847 557.75,-841 557.75,-841 557.75,-829 557.75,-829 557.75,-823 563.75,-817 569.75,-817 569.75,-817 599.75,-817 599.75,-817 605.75,-817 611.75,-823 611.75,-829 611.75,-829 611.75,-841 611.75,-841 611.75,-847 605.75,-853 599.75,-853"/>
<text text-anchor="middle" x="584.75" y="-830.73" font-family="Times,serif" font-size="12.00">band</text>
</g>
<!-- n24&#45;&gt;n27 -->
<g id="edge29" class="edge">
<title>n24&#45;&gt;n27</title>
<path fill="none" stroke="black" d="M335.49,-700.4C351.22,-705.92 371.58,-712.99 389.75,-719 447.26,-738.04 475.79,-718.32 519.75,-760 536.28,-775.68 523.08,-790.56 537.75,-808 540.68,-811.49 544.19,-814.63 547.94,-817.44"/>
<polygon fill="black" stroke="black" points="546.02,-820.36 556.31,-822.88 549.84,-814.5 546.02,-820.36"/>
<text text-anchor="middle" x="436.38" y="-737.66" font-family="Times,serif" font-size="10.00">(0,0)</text>
</g>
<!-- n24&#45;&gt;n30 -->
<g id="edge34" class="edge">
<title>n24&#45;&gt;n30</title>
<path fill="none" stroke="black" d="M329.1,-709.47C331.32,-712.16 333.37,-715.04 335,-718 351.14,-747.26 329.6,-767.15 353,-791 364.68,-802.9 382.03,-808.59 397.8,-811.23"/>
<polygon fill="black" stroke="black" points="397.04,-814.66 407.4,-812.46 397.93,-807.72 397.04,-814.66"/>
<text text-anchor="middle" x="362.38" y="-804.45" font-family="Times,serif" font-size="10.00">(0,1)</text>
</g>
<!-- n25 -->
<g id="node26" class="node">
<title>n25</title>
<path fill="none" stroke="black" d="M323,-1021C323,-1021 293,-1021 293,-1021 287,-1021 281,-1015 281,-1009 281,-1009 281,-997 281,-997 281,-991 287,-985 293,-985 293,-985 323,-985 323,-985 329,-985 335,-991 335,-997 335,-997 335,-1009 335,-1009 335,-1015 329,-1021 323,-1021"/>
<text text-anchor="middle" x="308" y="-998.73" font-family="Times,serif" font-size="12.00">const 0</text>
</g>
<!-- n25&#45;&gt;n26 -->
<g id="edge28" class="edge">
<title>n25&#45;&gt;n26</title>
<path fill="none" stroke="black" d="M335.49,-991.68C353.77,-983.87 378.33,-973.38 398.52,-964.75"/>
<polygon fill="black" stroke="black" points="399.71,-968.05 407.53,-960.9 396.95,-961.61 399.71,-968.05"/>
<text text-anchor="middle" x="362.38" y="-985.74" font-family="Times,serif" font-size="10.00">(0,1)</text>
</g>
<!-- n26&#45;&gt;n27 -->
<g id="edge30" class="edge">
<title>n26&#45;&gt;n27</title>
<path fill="none" stroke="black" d="M460.89,-930.68C485.43,-911.57 524.08,-881.47 551.47,-860.14"/>
<polygon fill="black" stroke="black" points="553.36,-863.11 559.1,-854.2 549.06,-857.58 553.36,-863.11"/>
<text text-anchor="middle" x="510.38" y="-900.58" font-family="Times,serif" font-size="10.00">(0,1)</text>
</g>
<!-- n29 -->
<g id="node30" class="node">
<title>n29</title>
<path fill="none" stroke="black" d="M728.62,-853C728.62,-853 698.62,-853 698.62,-853 692.62,-853 686.62,-847 686.62,-841 686.62,-841 686.62,-829 686.62,-829 686.62,-823 692.62,-817 698.62,-817 698.62,-817 728.62,-817 728.62,-817 734.62,-817 740.62,-823 740.62,-829 740.62,-829 740.62,-841 740.62,-841 740.62,-847 734.62,-853 728.62,-853"/>
<text text-anchor="middle" x="713.62" y="-830.73" font-family="Times,serif" font-size="12.00">steer</text>
</g>
<!-- n27&#45;&gt;n29 -->
<g id="edge32" class="edge">
<title>n27&#45;&gt;n29</title>
<path fill="none" stroke="black" d="M612.04,-835C630.24,-835 654.74,-835 675.01,-835"/>
<polygon fill="black" stroke="black" points="674.86,-838.5 684.86,-835 674.86,-831.5 674.86,-838.5"/>
<text text-anchor="middle" x="659.12" y="-836.75" font-family="Times,serif" font-size="10.00">(0,1)</text>
</g>
<!-- n28 -->
<g id="node29" class="node">
<title>n28</title>
<path fill="none" stroke="black" d="M599.75,-799C599.75,-799 569.75,-799 569.75,-799 563.75,-799 557.75,-793 557.75,-787 557.75,-787 557.75,-775 557.75,-775 557.75,-769 563.75,-763 569.75,-763 569.75,-763 599.75,-763 599.75,-763 605.75,-763 611.75,-769 611.75,-775 611.75,-775 611.75,-787 611.75,-787 611.75,-793 605.75,-799 599.75,-799"/>
<text text-anchor="middle" x="584.75" y="-776.73" font-family="Times,serif" font-size="12.00">const 0</text>
</g>
<!-- n28&#45;&gt;n29 -->
<g id="edge31" class="edge">
<title>n28&#45;&gt;n29</title>
<path fill="none" stroke="black" d="M612.04,-792.19C630.5,-800.04 655.43,-810.66 675.86,-819.35"/>
<polygon fill="black" stroke="black" points="674.41,-822.54 684.98,-823.23 677.15,-816.1 674.41,-822.54"/>
<text text-anchor="middle" x="659.12" y="-817.74" font-family="Times,serif" font-size="10.00">(0,0)</text>
</g>
<!-- n29&#45;&gt;n33 -->
<g id="edge38" class="edge">
<title>n29&#45;&gt;n33</title>
<path fill="none" stroke="black" d="M741.06,-842.9C754.07,-846.79 770.04,-851.57 784.54,-855.9"/>
<polygon fill="black" stroke="black" points="783.24,-859.17 793.83,-858.68 785.25,-852.46 783.24,-859.17"/>
<text text-anchor="middle" x="768.12" y="-855.23" font-family="Times,serif" font-size="10.00">(T,0)</text>
</g>
<!-- n32 -->
<g id="node33" class="node">
<title>n32</title>
<path fill="none" stroke="black" d="M599.75,-728C599.75,-728 569.75,-728 569.75,-728 563.75,-728 557.75,-722 557.75,-716 557.75,-716 557.75,-704 557.75,-704 557.75,-698 563.75,-692 569.75,-692 569.75,-692 599.75,-692 599.75,-692 605.75,-692 611.75,-698 611.75,-704 611.75,-704 611.75,-716 611.75,-716 611.75,-722 605.75,-728 599.75,-728"/>
<text text-anchor="middle" x="584.75" y="-705.73" font-family="Times,serif" font-size="12.00">&gt;</text>
</g>
<!-- n30&#45;&gt;n32 -->
<g id="edge35" class="edge">
<title>n30&#45;&gt;n32</title>
<path fill="none" stroke="black" d="M463.54,-794.59C487.27,-777.89 522.44,-753.14 548.61,-734.73"/>
<polygon fill="black" stroke="black" points="550.41,-737.74 556.57,-729.13 546.38,-732.02 550.41,-737.74"/>
<text text-anchor="middle" x="510.38" y="-769.42" font-family="Times,serif" font-size="10.00">(0,0)</text>
</g>
<!-- n31 -->
<g id="node32" class="node">
<title>n31</title>
<path fill="none" stroke="black" d="M451.38,-710C451.38,-710 421.38,-710 421.38,-710 415.38,-710 409.38,-704 409.38,-698 409.38,-698 409.38,-686 409.38,-686 409.38,-680 415.38,-674 421.38,-674 421.38,-674 451.38,-674 451.38,-674 457.38,-674 463.38,-680 463.38,-686 463.38,-686 463.38,-698 463.38,-698 463.38,-704 457.38,-710 451.38,-710"/>
<text text-anchor="middle" x="436.38" y="-687.73" font-family="Times,serif" font-size="12.00">const 0</text>
</g>
<!-- n31&#45;&gt;n32 -->
<g id="edge36" class="edge">
<title>n31&#45;&gt;n32</title>
<path fill="none" stroke="black" d="M463.54,-695.22C486.51,-698.04 520.18,-702.18 546.04,-705.36"/>
<polygon fill="black" stroke="black" points="545.46,-708.82 555.81,-706.56 546.31,-701.87 545.46,-708.82"/>
<text text-anchor="middle" x="510.38" y="-703.83" font-family="Times,serif" font-size="10.00">(0,1)</text>
</g>
<!-- n34 -->
<g id="node35" class="node">
<title>n34</title>
<path fill="none" stroke="black" d="M471,-43C471,-43 401.75,-43 401.75,-43 395.75,-43 389.75,-37 389.75,-31 389.75,-31 389.75,-19 389.75,-19 389.75,-13 395.75,-7 401.75,-7 401.75,-7 471,-7 471,-7 477,-7 483,-13 483,-19 483,-19 483,-31 483,-31 483,-37 477,-43 471,-43"/>
<text text-anchor="middle" x="436.38" y="-20.73" font-family="Times,serif" font-size="12.00">callgroup fstPair</text>
</g>
<!-- n34&#45;&gt;n35 -->
<g id="edge40" class="edge">
<title>n34&#45;&gt;n35</title>
<path fill="none" stroke="black" d="M483.29,-41.94C497.05,-47.02 512.32,-52.65 526.7,-57.95"/>
<polygon fill="black" stroke="black" points="525.48,-61.24 536.08,-61.41 527.91,-54.67 525.48,-61.24"/>
<text text-anchor="middle" x="510.38" y="-56.98" font-family="Times,serif" font-size="10.00">(0,1)</text>
</g>
<!-- n36 -->
<g id="node37" class="node">
<title>n36</title>
<path fill="none" stroke="black" d="M611.5,-36C611.5,-36 558,-36 558,-36 552,-36 546,-30 546,-24 546,-24 546,-12 546,-12 546,-6 552,0 558,0 558,0 611.5,0 611.5,0 617.5,0 623.5,-6 623.5,-12 623.5,-12 623.5,-24 623.5,-24 623.5,-30 617.5,-36 611.5,-36"/>
<text text-anchor="middle" x="584.75" y="-13.72" font-family="Times,serif" font-size="12.00">retsnd fstPair</text>
</g>
<!-- n34&#45;&gt;n36 -->
<g id="edge41" class="edge">
<title>n34&#45;&gt;n36</title>
<path fill="none" stroke="black" d="M483.21,-20.01C489.19,-19.5 495.24,-19.06 501,-18.75 511.86,-18.17 523.53,-17.87 534.59,-17.73"/>
<polygon fill="black" stroke="black" points="534.34,-21.23 544.31,-17.65 534.29,-14.23 534.34,-21.23"/>
<text text-anchor="middle" x="510.38" y="-20.5" font-family="Times,serif" font-size="10.00">(0,1)</text>
</g>
<!-- n37 -->
<g id="node38" class="node">
<title>n37</title>
<path fill="none" stroke="black" d="M728.75,-36C728.75,-36 698.5,-36 698.5,-36 692.5,-36 686.5,-30 686.5,-24 686.5,-24 686.5,-12 686.5,-12 686.5,-6 692.5,0 698.5,0 698.5,0 728.75,0 728.75,0 734.75,0 740.75,-6 740.75,-12 740.75,-12 740.75,-24 740.75,-24 740.75,-30 734.75,-36 728.75,-36"/>
<text text-anchor="middle" x="713.62" y="-13.72" font-family="Times,serif" font-size="12.00">ret main</text>
</g>
<!-- n36&#45;&gt;n37 -->
<g id="edge42" class="edge">
<title>n36&#45;&gt;n37</title>
<path fill="none" stroke="black" d="M623.82,-18C640.03,-18 658.89,-18 675.04,-18"/>
<polygon fill="black" stroke="black" points="674.74,-21.5 684.74,-18 674.74,-14.5 674.74,-21.5"/>
<text text-anchor="middle" x="659.12" y="-19.75" font-family="Times,serif" font-size="10.00">(0,0)</text>
</g>
<!-- n38 -->
<g id="node39" class="node">
<title>n38</title>
<path fill="none" stroke="black" d="M57.88,-267C57.88,-267 27.88,-267 27.88,-267 21.88,-267 15.88,-261 15.88,-255 15.88,-255 15.88,-243 15.88,-243 15.88,-237 21.88,-231 27.88,-231 27.88,-231 57.88,-231 57.88,-231 63.88,-231 69.88,-237 69.88,-243 69.88,-243 69.88,-255 69.88,-255 69.88,-261 63.88,-267 57.88,-267"/>
<text text-anchor="middle" x="42.88" y="-244.72" font-family="Times,serif" font-size="12.00">const 0</text>
</g>
<!-- n49 -->
<g id="node50" class="node">
<title>n49</title>
<path fill="none" stroke="black" d="M198.38,-361C198.38,-361 168.38,-361 168.38,-361 162.38,-361 156.38,-355 156.38,-349 156.38,-349 156.38,-337 156.38,-337 156.38,-331 162.38,-325 168.38,-325 168.38,-325 198.38,-325 198.38,-325 204.38,-325 210.38,-331 210.38,-337 210.38,-337 210.38,-349 210.38,-349 210.38,-355 204.38,-361 198.38,-361"/>
<text text-anchor="middle" x="183.38" y="-338.73" font-family="Times,serif" font-size="12.00">==</text>
</g>
<!-- n38&#45;&gt;n49 -->
<g id="edge53" class="edge">
<title>n38&#45;&gt;n49</title>
<path fill="none" stroke="black" d="M58.88,-267.38C70.17,-280.31 86.59,-297.33 103.75,-309 116.46,-317.65 131.73,-324.85 145.41,-330.37"/>
<polygon fill="black" stroke="black" points="143.96,-333.57 154.55,-333.89 146.48,-327.03 143.96,-333.57"/>
<text text-anchor="middle" x="113.12" y="-321.43" font-family="Times,serif" font-size="10.00">(0,0)</text>
</g>
<!-- n52 -->
<g id="node53" class="node">
<title>n52</title>
<path fill="none" stroke="black" d="M198.38,-253C198.38,-253 168.38,-253 168.38,-253 162.38,-253 156.38,-247 156.38,-241 156.38,-241 156.38,-229 156.38,-229 156.38,-223 162.38,-217 168.38,-217 168.38,-217 198.38,-217 198.38,-217 204.38,-217 210.38,-223 210.38,-229 210.38,-229 210.38,-241 210.38,-241 210.38,-247 204.38,-253 198.38,-253"/>
<text text-anchor="middle" x="183.38" y="-230.72" font-family="Times,serif" font-size="12.00">+</text>
</g>
<!-- n38&#45;&gt;n52 -->
<g id="edge59" class="edge">
<title>n38&#45;&gt;n52</title>
<path fill="none" stroke="black" d="M70.25,-246.33C91.33,-244.2 121.16,-241.19 144.75,-238.8"/>
<polygon fill="black" stroke="black" points="144.99,-242.3 154.59,-237.81 144.29,-235.33 144.99,-242.3"/>
<text text-anchor="middle" x="113.12" y="-244.59" font-family="Times,serif" font-size="10.00">(0,0)</text>
</g>
<!-- n39 -->
<g id="node40" class="node">
<title>n39</title>
<path fill="none" stroke="black" d="M73.75,-541C73.75,-541 12,-541 12,-541 6,-541 0,-535 0,-529 0,-529 0,-517 0,-517 0,-511 6,-505 12,-505 12,-505 73.75,-505 73.75,-505 79.75,-505 85.75,-511 85.75,-517 85.75,-517 85.75,-529 85.75,-529 85.75,-535 79.75,-541 73.75,-541"/>
<text text-anchor="middle" x="42.88" y="-518.73" font-family="Times,serif" font-size="12.00">const 1000003</text>
</g>
<!-- n40 -->
<g id="node41" class="node">
<title>n40</title>
<path fill="none" stroke="black" d="M198.38,-610C198.38,-610 168.38,-610 168.38,-610 162.38,-610 156.38,-604 156.38,-598 156.38,-598 156.38,-586 156.38,-586 156.38,-580 162.38,-574 168.38,-574 168.38,-574 198.38,-574 198.38,-574 204.38,-574 210.38,-580 210.38,-586 210.38,-586 210.38,-598 210.38,-598 210.38,-604 204.38,-610 198.38,-610"/>
<text text-anchor="middle" x="183.38" y="-587.73" font-family="Times,serif" font-size="12.00">/</text>
</g>
<!-- n39&#45;&gt;n40 -->
<g id="edge44" class="edge">
<title>n39&#45;&gt;n40</title>
<path fill="none" stroke="black" d="M86.14,-514.07C98.35,-513.37 111.37,-514.52 122.5,-519.75 142.03,-528.93 157.39,-547.96 167.65,-564.19"/>
<polygon fill="black" stroke="black" points="164.49,-565.71 172.61,-572.52 170.5,-562.13 164.49,-565.71"/>
<text text-anchor="middle" x="113.12" y="-521.5" font-family="Times,serif" font-size="10.00">(0,1)</text>
</g>
<!-- n41 -->
<g id="node42" class="node">
<title>n41</title>
<path fill="none" stroke="black" d="M323,-610C323,-610 293,-610 293,-610 287,-610 281,-604 281,-598 281,-598 281,-586 281,-586 281,-580 287,-574 293,-574 293,-574 323,-574 323,-574 329,-574 335,-580 335,-586 335,-586 335,-598 335,-598 335,-604 329,-610 323,-610"/>
<text text-anchor="middle" x="308" y="-587.73" font-family="Times,serif" font-size="12.00">&#45;i 2</text>
</g>
<!-- n40&#45;&gt;n41 -->
<g id="edge45" class="edge">
<title>n40&#45;&gt;n41</title>
<path fill="none" stroke="black" d="M210.68,-592C227.81,-592 250.43,-592 269.45,-592"/>
<polygon fill="black" stroke="black" points="269.22,-595.5 279.22,-592 269.22,-588.5 269.22,-595.5"/>
<text text-anchor="middle" x="253.62" y="-593.75" font-family="Times,serif" font-size="10.00">(0,0)</text>
</g>
<!-- n51 -->
<g id="node52" class="node">
<title>n51</title>
<path fill="none" stroke="black" d="M451.38,-591C451.38,-591 421.38,-591 421.38,-591 415.38,-591 409.38,-585 409.38,-579 409.38,-579 409.38,-567 409.38,-567 409.38,-561 415.38,-555 421.38,-555 421.38,-555 451.38,-555 451.38,-555 457.38,-555 463.38,-561 463.38,-567 463.38,-567 463.38,-579 463.38,-579 463.38,-585 457.38,-591 451.38,-591"/>
<text text-anchor="middle" x="436.38" y="-568.73" font-family="Times,serif" font-size="12.00">steer</text>
</g>
<!-- n41&#45;&gt;n51 -->
<g id="edge57" class="edge">
<title>n41&#45;&gt;n51</title>
<path fill="none" stroke="black" d="M335.31,-589.51C346.56,-588.33 359.83,-586.79 371.75,-585 380.23,-583.73 389.31,-582.15 397.88,-580.56"/>
<polygon fill="black" stroke="black" points="398.49,-584.01 407.65,-578.69 397.17,-577.13 398.49,-584.01"/>
<text text-anchor="middle" x="362.38" y="-589.08" font-family="Times,serif" font-size="10.00">(0,0)</text>
</g>
<!-- n42 -->
<g id="node43" class="node">
<title>n42</title>
<path fill="none" stroke="black" d="M73.75,-487C73.75,-487 12,-487 12,-487 6,-487 0,-481 0,-475 0,-475 0,-463 0,-463 0,-457 6,-451 12,-451 12,-451 73.75,-451 73.75,-451 79.75,-451 85.75,-457 85.75,-463 85.75,-463 85.75,-475 85.75,-475 85.75,-481 79.75,-487 73.75,-487"/>
<text text-anchor="middle" x="42.88" y="-464.73" font-family="Times,serif" font-size="12.00">const 1000003</text>
</g>
<!-- n43 -->
<g id="node44" class="node">
<title>n43</title>
<path fill="none" stroke="black" d="M198.38,-517C198.38,-517 168.38,-517 168.38,-517 162.38,-517 156.38,-511 156.38,-505 156.38,-505 156.38,-493 156.38,-493 156.38,-487 162.38,-481 168.38,-481 168.38,-481 198.38,-481 198.38,-481 204.38,-481 210.38,-487 210.38,-493 210.38,-493 210.38,-505 210.38,-505 210.38,-511 204.38,-517 198.38,-517"/>
<text text-anchor="middle" x="183.38" y="-494.73" font-family="Times,serif" font-size="12.00">/</text>
</g>
<!-- n42&#45;&gt;n43 -->
<g id="edge47" class="edge">
<title>n42&#45;&gt;n43</title>
<path fill="none" stroke="black" d="M85.92,-477.89C97.75,-480.41 110.63,-483.17 122.5,-485.75 129.82,-487.34 137.65,-489.06 145.14,-490.71"/>
<polygon fill="black" stroke="black" points="144.16,-494.08 154.68,-492.82 145.67,-487.24 144.16,-494.08"/>
<text text-anchor="middle" x="113.12" y="-487.5" font-family="Times,serif" font-size="10.00">(0,1)</text>
</g>
<!-- n44 -->
<g id="node45" class="node">
<title>n44</title>
<path fill="none" stroke="black" d="M323,-517C323,-517 293,-517 293,-517 287,-517 281,-511 281,-505 281,-505 281,-493 281,-493 281,-487 287,-481 293,-481 293,-481 323,-481 323,-481 329,-481 335,-487 335,-493 335,-493 335,-505 335,-505 335,-511 329,-517 323,-517"/>
<text text-anchor="middle" x="308" y="-494.73" font-family="Times,serif" font-size="12.00">*</text>
</g>
<!-- n42&#45;&gt;n44 -->
<g id="edge49" class="edge">
<title>n42&#45;&gt;n44</title>
<path fill="none" stroke="black" d="M86.08,-460.85C123.4,-455.1 179.09,-450.15 226.25,-460.75 241.57,-464.19 257.39,-470.89 270.93,-477.73"/>
<polygon fill="black" stroke="black" points="268.98,-480.66 279.46,-482.24 272.25,-474.47 268.98,-480.66"/>
<text text-anchor="middle" x="183.38" y="-462.5" font-family="Times,serif" font-size="10.00">(0,1)</text>
</g>
<!-- n43&#45;&gt;n44 -->
<g id="edge48" class="edge">
<title>n43&#45;&gt;n44</title>
<path fill="none" stroke="black" d="M210.68,-499C227.81,-499 250.43,-499 269.45,-499"/>
<polygon fill="black" stroke="black" points="269.22,-502.5 279.22,-499 269.22,-495.5 269.22,-502.5"/>
<text text-anchor="middle" x="253.62" y="-500.75" font-family="Times,serif" font-size="10.00">(0,0)</text>
</g>
<!-- n45 -->
<g id="node46" class="node">
<title>n45</title>
<path fill="none" stroke="black" d="M451.38,-532C451.38,-532 421.38,-532 421.38,-532 415.38,-532 409.38,-526 409.38,-520 409.38,-520 409.38,-508 409.38,-508 409.38,-502 415.38,-496 421.38,-496 421.38,-496 451.38,-496 451.38,-496 457.38,-496 463.38,-502 463.38,-508 463.38,-508 463.38,-520 463.38,-520 463.38,-526 457.38,-532 451.38,-532"/>
<text text-anchor="middle" x="436.38" y="-509.73" font-family="Times,serif" font-size="12.00">&#45;</text>
</g>
<!-- n44&#45;&gt;n45 -->
<g id="edge51" class="edge">
<title>n44&#45;&gt;n45</title>
<path fill="none" stroke="black" d="M335.49,-502.14C353.52,-504.28 377.65,-507.15 397.68,-509.53"/>
<polygon fill="black" stroke="black" points="397.07,-512.98 407.41,-510.68 397.9,-506.03 397.07,-512.98"/>
<text text-anchor="middle" x="362.38" y="-507.8" font-family="Times,serif" font-size="10.00">(0,1)</text>
</g>
<!-- n46 -->
<g id="node47" class="node">
<title>n46</title>
<path fill="none" stroke="black" d="M599.75,-532C599.75,-532 569.75,-532 569.75,-532 563.75,-532 557.75,-526 557.75,-520 557.75,-520 557.75,-508 557.75,-508 557.75,-502 563.75,-496 569.75,-496 569.75,-496 599.75,-496 599.75,-496 605.75,-496 611.75,-502 611.75,-508 611.75,-508 611.75,-520 611.75,-520 611.75,-526 605.75,-532 599.75,-532"/>
<text text-anchor="middle" x="584.75" y="-509.73" font-family="Times,serif" font-size="12.00">&#45;i 2</text>
</g>
<!-- n45&#45;&gt;n46 -->
<g id="edge52" class="edge">
<title>n45&#45;&gt;n46</title>
<path fill="none" stroke="black" d="M463.54,-514C486.51,-514 520.18,-514 546.04,-514"/>
<polygon fill="black" stroke="black" points="545.8,-517.5 555.8,-514 545.8,-510.5 545.8,-517.5"/>
<text text-anchor="middle" x="510.38" y="-515.75" font-family="Times,serif" font-size="10.00">(0,0)</text>
</g>
<!-- n47 -->
<g id="node48" class="node">
<title>n47</title>
<path fill="none" stroke="black" d="M57.88,-362C57.88,-362 27.88,-362 27.88,-362 21.88,-362 15.88,-356 15.88,-350 15.88,-350 15.88,-338 15.88,-338 15.88,-332 21.88,-326 27.88,-326 27.88,-326 57.88,-326 57.88,-326 63.88,-326 69.88,-332 69.88,-338 69.88,-338 69.88,-350 69.88,-350 69.88,-356 63.88,-362 57.88,-362"/>
<text text-anchor="middle" x="42.88" y="-339.73" font-family="Times,serif" font-size="12.00">const 1</text>
</g>
<!-- n50 -->
<g id="node51" class="node">
<title>n50</title>
<path fill="none" stroke="black" d="M323,-423C323,-423 293,-423 293,-423 287,-423 281,-417 281,-411 281,-411 281,-399 281,-399 281,-393 287,-387 293,-387 293,-387 323,-387 323,-387 329,-387 335,-393 335,-399 335,-399 335,-411 335,-411 335,-417 329,-423 323,-423"/>
<text text-anchor="middle" x="308" y="-400.73" font-family="Times,serif" font-size="12.00">band</text>
</g>
<!-- n47&#45;&gt;n50 -->
<g id="edge55" class="edge">
<title>n47&#45;&gt;n50</title>
<path fill="none" stroke="black" d="M70.02,-351.46C89.4,-356.88 116.51,-364.26 140.5,-370 184.57,-380.55 235.61,-391.03 269.45,-397.73"/>
<polygon fill="black" stroke="black" points="268.68,-401.14 279.17,-399.64 270.04,-394.28 268.68,-401.14"/>
<text text-anchor="middle" x="183.38" y="-390.69" font-family="Times,serif" font-size="10.00">(0,0)</text>
</g>
<!-- n47&#45;&gt;n52 -->
<g id="edge60" class="edge">
<title>n47&#45;&gt;n52</title>
<path fill="none" stroke="black" d="M63.97,-325.6C83.08,-308.42 112.93,-282.45 140.5,-262 142.48,-260.53 144.53,-259.06 146.62,-257.6"/>
<polygon fill="black" stroke="black" points="148.31,-260.68 154.63,-252.18 144.38,-254.89 148.31,-260.68"/>
<text text-anchor="middle" x="113.12" y="-291.83" font-family="Times,serif" font-size="10.00">(0,1)</text>
</g>
<!-- n48 -->
<g id="node49" class="node">
<title>n48</title>
<path fill="none" stroke="black" d="M57.88,-433C57.88,-433 27.88,-433 27.88,-433 21.88,-433 15.88,-427 15.88,-421 15.88,-421 15.88,-409 15.88,-409 15.88,-403 21.88,-397 27.88,-397 27.88,-397 57.88,-397 57.88,-397 63.88,-397 69.88,-403 69.88,-409 69.88,-409 69.88,-421 69.88,-421 69.88,-427 63.88,-433 57.88,-433"/>
<text text-anchor="middle" x="42.88" y="-410.73" font-family="Times,serif" font-size="12.00">const 0</text>
</g>
<!-- n48&#45;&gt;n49 -->
<g id="edge54" class="edge">
<title>n48&#45;&gt;n49</title>
<path fill="none" stroke="black" d="M70.25,-401.29C91.72,-390.13 122.25,-374.26 146.03,-361.89"/>
<polygon fill="black" stroke="black" points="147.5,-365.08 154.75,-357.36 144.27,-358.87 147.5,-365.08"/>
<text text-anchor="middle" x="113.12" y="-385.06" font-family="Times,serif" font-size="10.00">(0,1)</text>
</g>
<!-- n49&#45;&gt;n50 -->
<g id="edge56" class="edge">
<title>n49&#45;&gt;n50</title>
<path fill="none" stroke="black" d="M210.71,-350.47C226.39,-355.44 246.41,-362.71 263,-371.75 267.47,-374.19 271.98,-377.05 276.33,-380.05"/>
<polygon fill="black" stroke="black" points="274.12,-382.77 284.26,-385.84 278.25,-377.12 274.12,-382.77"/>
<text text-anchor="middle" x="253.62" y="-373.5" font-family="Times,serif" font-size="10.00">(0,1)</text>
</g>
<!-- n50&#45;&gt;n51 -->
<g id="edge58" class="edge">
<title>n50&#45;&gt;n51</title>
<path fill="none" stroke="black" d="M316.26,-423.45C321.53,-436.89 328.78,-455.54 335,-472 343.2,-493.7 338.41,-502.96 353,-521 365.21,-536.1 383.04,-548.12 399,-556.78"/>
<polygon fill="black" stroke="black" points="397.29,-559.84 407.79,-561.3 400.49,-553.61 397.29,-559.84"/>
<text text-anchor="middle" x="362.38" y="-539.42" font-family="Times,serif" font-size="10.00">(0,1)</text>
</g>
<!-- n64 -->
<g id="node65" class="node">
<title>n64</title>
<path fill="none" stroke="black" d="M844.5,-572C844.5,-572 807.5,-572 807.5,-572 801.5,-572 795.5,-566 795.5,-560 795.5,-560 795.5,-548 795.5,-548 795.5,-542 801.5,-536 807.5,-536 807.5,-536 844.5,-536 844.5,-536 850.5,-536 856.5,-542 856.5,-548 856.5,-548 856.5,-560 856.5,-560 856.5,-566 850.5,-572 844.5,-572"/>
<text text-anchor="middle" x="826" y="-549.73" font-family="Times,serif" font-size="12.00">ret fstPair</text>
</g>
<!-- n51&#45;&gt;n64 -->
<g id="edge73" class="edge">
<title>n51&#45;&gt;n64</title>
<path fill="none" stroke="black" d="M463.71,-571.71C530.06,-568.46 704.43,-559.91 784.16,-556"/>
<polygon fill="black" stroke="black" points="783.88,-559.52 793.7,-555.53 783.54,-552.53 783.88,-559.52"/>
<text text-anchor="middle" x="659.12" y="-564.16" font-family="Times,serif" font-size="10.00">(T,0)</text>
</g>
<!-- n54 -->
<g id="node55" class="node">
<title>n54</title>
<path fill="none" stroke="black" d="M323,-303C323,-303 293,-303 293,-303 287,-303 281,-297 281,-291 281,-291 281,-279 281,-279 281,-273 287,-267 293,-267 293,-267 323,-267 323,-267 329,-267 335,-273 335,-279 335,-279 335,-291 335,-291 335,-297 329,-303 323,-303"/>
<text text-anchor="middle" x="308" y="-280.73" font-family="Times,serif" font-size="12.00">&gt;</text>
</g>
<!-- n52&#45;&gt;n54 -->
<g id="edge61" class="edge">
<title>n52&#45;&gt;n54</title>
<path fill="none" stroke="black" d="M210.68,-245.73C228.06,-252.81 251.07,-262.2 270.25,-270.02"/>
<polygon fill="black" stroke="black" points="268.75,-273.19 279.34,-273.72 271.4,-266.7 268.75,-273.19"/>
<text text-anchor="middle" x="253.62" y="-267.7" font-family="Times,serif" font-size="10.00">(0,0)</text>
</g>
<!-- n53 -->
<g id="node54" class="node">
<title>n53</title>
<path fill="none" stroke="black" d="M198.38,-307C198.38,-307 168.38,-307 168.38,-307 162.38,-307 156.38,-301 156.38,-295 156.38,-295 156.38,-283 156.38,-283 156.38,-277 162.38,-271 168.38,-271 168.38,-271 198.38,-271 198.38,-271 204.38,-271 210.38,-277 210.38,-283 210.38,-283 210.38,-295 210.38,-295 210.38,-301 204.38,-307 198.38,-307"/>
<text text-anchor="middle" x="183.38" y="-284.73" font-family="Times,serif" font-size="12.00">const 0</text>
</g>
<!-- n53&#45;&gt;n54 -->
<g id="edge62" class="edge">
<title>n53&#45;&gt;n54</title>
<path fill="none" stroke="black" d="M210.68,-288.14C227.81,-287.58 250.43,-286.85 269.45,-286.22"/>
<polygon fill="black" stroke="black" points="269.34,-289.73 279.22,-285.91 269.12,-282.73 269.34,-289.73"/>
<text text-anchor="middle" x="253.62" y="-288.75" font-family="Times,serif" font-size="10.00">(0,1)</text>
</g>
<!-- n57 -->
<g id="node58" class="node">
<title>n57</title>
<path fill="none" stroke="black" d="M451.38,-352C451.38,-352 421.38,-352 421.38,-352 415.38,-352 409.38,-346 409.38,-340 409.38,-340 409.38,-328 409.38,-328 409.38,-322 415.38,-316 421.38,-316 421.38,-316 451.38,-316 451.38,-316 457.38,-316 463.38,-322 463.38,-328 463.38,-328 463.38,-340 463.38,-340 463.38,-346 457.38,-352 451.38,-352"/>
<text text-anchor="middle" x="436.38" y="-329.73" font-family="Times,serif" font-size="12.00">==</text>
</g>
<!-- n54&#45;&gt;n57 -->
<g id="edge63" class="edge">
<title>n54&#45;&gt;n57</title>
<path fill="none" stroke="black" d="M335.49,-295.27C353.69,-302.33 378.1,-311.79 398.24,-319.6"/>
<polygon fill="black" stroke="black" points="396.92,-322.84 407.51,-323.19 399.45,-316.32 396.92,-322.84"/>
<text text-anchor="middle" x="362.38" y="-309.78" font-family="Times,serif" font-size="10.00">(0,0)</text>
</g>
<!-- n61 -->
<g id="node62" class="node">
<title>n61</title>
<path fill="none" stroke="black" d="M451.38,-214C451.38,-214 421.38,-214 421.38,-214 415.38,-214 409.38,-208 409.38,-202 409.38,-202 409.38,-190 409.38,-190 409.38,-184 415.38,-178 421.38,-178 421.38,-178 451.38,-178 451.38,-178 457.38,-178 463.38,-184 463.38,-190 463.38,-190 463.38,-202 463.38,-202 463.38,-208 457.38,-214 451.38,-214"/>
<text text-anchor="middle" x="436.38" y="-191.72" font-family="Times,serif" font-size="12.00">+</text>
</g>
<!-- n54&#45;&gt;n61 -->
<g id="edge69" class="edge">
<title>n54&#45;&gt;n61</title>
<path fill="none" stroke="black" d="M334.81,-266.75C350.65,-255.56 371.37,-240.94 389.75,-228 393.11,-225.63 396.62,-223.17 400.12,-220.71"/>
<polygon fill="black" stroke="black" points="401.89,-223.74 408.07,-215.13 397.87,-218.01 401.89,-223.74"/>
<text text-anchor="middle" x="362.38" y="-254.75" font-family="Times,serif" font-size="10.00">(0,0)</text>
</g>
<!-- n55 -->
<g id="node56" class="node">
<title>n55</title>
<path fill="none" stroke="black" d="M323,-240C323,-240 293,-240 293,-240 287,-240 281,-234 281,-228 281,-228 281,-216 281,-216 281,-210 287,-204 293,-204 293,-204 323,-204 323,-204 329,-204 335,-210 335,-216 335,-216 335,-228 335,-228 335,-234 329,-240 323,-240"/>
<text text-anchor="middle" x="308" y="-217.72" font-family="Times,serif" font-size="12.00">const 1</text>
</g>
<!-- n58 -->
<g id="node59" class="node">
<title>n58</title>
<path fill="none" stroke="black" d="M599.75,-352C599.75,-352 569.75,-352 569.75,-352 563.75,-352 557.75,-346 557.75,-340 557.75,-340 557.75,-328 557.75,-328 557.75,-322 563.75,-316 569.75,-316 569.75,-316 599.75,-316 599.75,-316 605.75,-316 611.75,-322 611.75,-328 611.75,-328 611.75,-340 611.75,-340 611.75,-346 605.75,-352 599.75,-352"/>
<text text-anchor="middle" x="584.75" y="-329.73" font-family="Times,serif" font-size="12.00">band</text>
</g>
<!-- n55&#45;&gt;n58 -->
<g id="edge65" class="edge">
<title>n55&#45;&gt;n58</title>
<path fill="none" stroke="black" d="M335.34,-232.74C384.58,-252.81 490.64,-296.04 546.92,-318.99"/>
<polygon fill="black" stroke="black" points="545.5,-322.19 556.08,-322.72 548.15,-315.71 545.5,-322.19"/>
<text text-anchor="middle" x="436.38" y="-294.53" font-family="Times,serif" font-size="10.00">(0,0)</text>
</g>
<!-- n55&#45;&gt;n61 -->
<g id="edge70" class="edge">
<title>n55&#45;&gt;n61</title>
<path fill="none" stroke="black" d="M335.49,-216.55C353.52,-212.84 377.65,-207.88 397.68,-203.76"/>
<polygon fill="black" stroke="black" points="398.35,-207.19 407.44,-201.75 396.93,-200.34 398.35,-207.19"/>
<text text-anchor="middle" x="362.38" y="-214.6" font-family="Times,serif" font-size="10.00">(0,1)</text>
</g>
<!-- n56 -->
<g id="node57" class="node">
<title>n56</title>
<path fill="none" stroke="black" d="M323,-369C323,-369 293,-369 293,-369 287,-369 281,-363 281,-357 281,-357 281,-345 281,-345 281,-339 287,-333 293,-333 293,-333 323,-333 323,-333 329,-333 335,-339 335,-345 335,-345 335,-357 335,-357 335,-363 329,-369 323,-369"/>
<text text-anchor="middle" x="308" y="-346.73" font-family="Times,serif" font-size="12.00">const 0</text>
</g>
<!-- n56&#45;&gt;n57 -->
<g id="edge64" class="edge">
<title>n56&#45;&gt;n57</title>
<path fill="none" stroke="black" d="M335.49,-347.44C353.52,-345.01 377.65,-341.76 397.68,-339.07"/>
<polygon fill="black" stroke="black" points="397.97,-342.56 407.42,-337.76 397.04,-335.63 397.97,-342.56"/>
<text text-anchor="middle" x="362.38" y="-346.77" font-family="Times,serif" font-size="10.00">(0,1)</text>
</g>
<!-- n57&#45;&gt;n58 -->
<g id="edge66" class="edge">
<title>n57&#45;&gt;n58</title>
<path fill="none" stroke="black" d="M463.54,-334C486.51,-334 520.18,-334 546.04,-334"/>
<polygon fill="black" stroke="black" points="545.8,-337.5 555.8,-334 545.8,-330.5 545.8,-337.5"/>
<text text-anchor="middle" x="510.38" y="-335.75" font-family="Times,serif" font-size="10.00">(0,1)</text>
</g>
<!-- n60 -->
<g id="node61" class="node">
<title>n60</title>
<path fill="none" stroke="black" d="M728.62,-455C728.62,-455 698.62,-455 698.62,-455 692.62,-455 686.62,-449 686.62,-443 686.62,-443 686.62,-431 686.62,-431 686.62,-425 692.62,-419 698.62,-419 698.62,-419 728.62,-419 728.62,-419 734.62,-419 740.62,-425 740.62,-431 740.62,-431 740.62,-443 740.62,-443 740.62,-449 734.62,-455 728.62,-455"/>
<text text-anchor="middle" x="713.62" y="-432.73" font-family="Times,serif" font-size="12.00">steer</text>
</g>
<!-- n58&#45;&gt;n60 -->
<g id="edge68" class="edge">
<title>n58&#45;&gt;n60</title>
<path fill="none" stroke="black" d="M608.43,-352.41C628.73,-368.89 658.68,-393.21 681.27,-411.54"/>
<polygon fill="black" stroke="black" points="678.99,-414.21 688.96,-417.79 683.41,-408.77 678.99,-414.21"/>
<text text-anchor="middle" x="659.12" y="-402.49" font-family="Times,serif" font-size="10.00">(0,1)</text>
</g>
<!-- n59 -->
<g id="node60" class="node">
<title>n59</title>
<path fill="none" stroke="black" d="M599.75,-455C599.75,-455 569.75,-455 569.75,-455 563.75,-455 557.75,-449 557.75,-443 557.75,-443 557.75,-431 557.75,-431 557.75,-425 563.75,-419 569.75,-419 569.75,-419 599.75,-419 599.75,-419 605.75,-419 611.75,-425 611.75,-431 611.75,-431 611.75,-443 611.75,-443 611.75,-449 605.75,-455 599.75,-455"/>
<text text-anchor="middle" x="584.75" y="-432.73" font-family="Times,serif" font-size="12.00">const 0</text>
</g>
<!-- n59&#45;&gt;n60 -->
<g id="edge67" class="edge">
<title>n59&#45;&gt;n60</title>
<path fill="none" stroke="black" d="M612.04,-437C630.24,-437 654.74,-437 675.01,-437"/>
<polygon fill="black" stroke="black" points="674.86,-440.5 684.86,-437 674.86,-433.5 674.86,-440.5"/>
<text text-anchor="middle" x="659.12" y="-438.75" font-family="Times,serif" font-size="10.00">(0,0)</text>
</g>
<!-- n60&#45;&gt;n64 -->
<g id="edge74" class="edge">
<title>n60&#45;&gt;n64</title>
<path fill="none" stroke="black" d="M731.87,-455.28C750.18,-474.69 779.28,-505.53 800.08,-527.58"/>
<polygon fill="black" stroke="black" points="797.43,-529.87 806.84,-534.75 802.52,-525.07 797.43,-529.87"/>
<text text-anchor="middle" x="768.12" y="-504.26" font-family="Times,serif" font-size="10.00">(T,0)</text>
</g>
<!-- n63 -->
<g id="node64" class="node">
<title>n63</title>
<path fill="none" stroke="black" d="M599.75,-177C599.75,-177 569.75,-177 569.75,-177 563.75,-177 557.75,-171 557.75,-165 557.75,-165 557.75,-153 557.75,-153 557.75,-147 563.75,-141 569.75,-141 569.75,-141 599.75,-141 599.75,-141 605.75,-141 611.75,-147 611.75,-153 611.75,-153 611.75,-165 611.75,-165 611.75,-171 605.75,-177 599.75,-177"/>
<text text-anchor="middle" x="584.75" y="-154.72" font-family="Times,serif" font-size="12.00">&gt;</text>
</g>
<!-- n61&#45;&gt;n63 -->
<g id="edge71" class="edge">
<title>n61&#45;&gt;n63</title>
<path fill="none" stroke="black" d="M463.54,-189.39C486.61,-183.55 520.48,-174.99 546.39,-168.44"/>
<polygon fill="black" stroke="black" points="547.01,-171.9 555.85,-166.05 545.29,-165.11 547.01,-171.9"/>
<text text-anchor="middle" x="510.38" y="-181.47" font-family="Times,serif" font-size="10.00">(0,0)</text>
</g>
<!-- n62 -->
<g id="node63" class="node">
<title>n62</title>
<path fill="none" stroke="black" d="M451.38,-160C451.38,-160 421.38,-160 421.38,-160 415.38,-160 409.38,-154 409.38,-148 409.38,-148 409.38,-136 409.38,-136 409.38,-130 415.38,-124 421.38,-124 421.38,-124 451.38,-124 451.38,-124 457.38,-124 463.38,-130 463.38,-136 463.38,-136 463.38,-148 463.38,-148 463.38,-154 457.38,-160 451.38,-160"/>
<text text-anchor="middle" x="436.38" y="-137.72" font-family="Times,serif" font-size="12.00">const 0</text>
</g>
<!-- n62&#45;&gt;n63 -->
<g id="edge72" class="edge">
<title>n62&#45;&gt;n63</title>
<path fill="none" stroke="black" d="M463.54,-145.04C486.51,-147.71 520.18,-151.62 546.04,-154.62"/>
<polygon fill="black" stroke="black" points="545.47,-158.08 555.81,-155.76 546.28,-151.12 545.47,-158.08"/>
<text text-anchor="middle" x="510.38" y="-153.27" font-family="Times,serif" font-size="10.00">(0,1)</text>
</g>
<!-- n -->
<g id="node66" class="node">
<title>n</title>
<path fill="none" stroke="black" d="M57.88,-1090C57.88,-1090 27.88,-1090 27.88,-1090 21.88,-1090 15.88,-1084 15.88,-1078 15.88,-1078 15.88,-1066 15.88,-1066 15.88,-1060 21.88,-1054 27.88,-1054 27.88,-1054 57.88,-1054 57.88,-1054 63.88,-1054 69.88,-1060 69.88,-1066 69.88,-1066 69.88,-1078 69.88,-1078 69.88,-1084 63.88,-1090 57.88,-1090"/>
<text text-anchor="middle" x="42.88" y="-1067.72" font-family="Times,serif" font-size="12.00">n</text>
</g>
<!-- &#45;1 -->
<g id="node67" class="node">
<title>&#45;1</title>
<path fill="none" stroke="black" d="M57.88,-643C57.88,-643 27.88,-643 27.88,-643 21.88,-643 15.88,-637 15.88,-631 15.88,-631 15.88,-619 15.88,-619 15.88,-613 21.88,-607 27.88,-607 27.88,-607 57.88,-607 57.88,-607 63.88,-607 69.88,-613 69.88,-619 69.88,-619 69.88,-631 69.88,-631 69.88,-637 63.88,-643 57.88,-643"/>
<text text-anchor="middle" x="42.88" y="-620.73" font-family="Times,serif" font-size="12.00">&#45;1</text>
</g>
<!-- &#45;1&#45;&gt;n9 -->
<g id="edge7" class="edge">
<title>&#45;1&#45;&gt;n9</title>
<path fill="none" stroke="black" d="M70.25,-637.57C91.62,-647.75 121.98,-662.22 145.71,-673.53"/>
<polygon fill="black" stroke="black" points="144.2,-676.68 154.73,-677.83 147.21,-670.36 144.2,-676.68"/>
<text text-anchor="middle" x="113.12" y="-663.7" font-family="Times,serif" font-size="10.00">(P,0)</text>
</g>
<!-- &#45;1&#45;&gt;n12 -->
<g id="edge10" class="edge">
<title>&#45;1&#45;&gt;n12</title>
<path fill="none" stroke="black" d="M60.74,-643.22C79.32,-662.8 110.56,-694.3 140.5,-718 142.48,-719.57 144.56,-721.13 146.68,-722.67"/>
<polygon fill="black" stroke="black" points="144.68,-725.54 154.9,-728.34 148.65,-719.78 144.68,-725.54"/>
<text text-anchor="middle" x="113.12" y="-703.3" font-family="Times,serif" font-size="10.00">(P,0)</text>
</g>
<!-- &#45;1&#45;&gt;n14 -->
<g id="edge14" class="edge">
<title>&#45;1&#45;&gt;n14</title>
<path fill="none" stroke="black" d="M70.17,-625.87C137.93,-628.12 318.68,-634.13 397.61,-636.75"/>
<polygon fill="black" stroke="black" points="397.31,-640.24 407.42,-637.07 397.55,-633.24 397.31,-640.24"/>
<text text-anchor="middle" x="253.62" y="-634" font-family="Times,serif" font-size="10.00">(P,0)</text>
</g>
<!-- &#45;1&#45;&gt;n40 -->
<g id="edge43" class="edge">
<title>&#45;1&#45;&gt;n40</title>
<path fill="none" stroke="black" d="M70.25,-618.72C91.43,-613.67 121.43,-606.52 145.07,-600.89"/>
<polygon fill="black" stroke="black" points="145.71,-604.33 154.62,-598.61 144.09,-597.53 145.71,-604.33"/>
<text text-anchor="middle" x="113.12" y="-612.23" font-family="Times,serif" font-size="10.00">(P,0)</text>
</g>
<!-- &#45;1&#45;&gt;n43 -->
<g id="edge46" class="edge">
<title>&#45;1&#45;&gt;n43</title>
<path fill="none" stroke="black" d="M57.19,-606.57C68.61,-591.46 85.97,-569.99 103.75,-553.75 116.82,-541.81 132.62,-530.34 146.61,-521"/>
<polygon fill="black" stroke="black" points="148.22,-524.13 154.69,-515.73 144.4,-518.27 148.22,-524.13"/>
<text text-anchor="middle" x="113.12" y="-555.5" font-family="Times,serif" font-size="10.00">(P,0)</text>
</g>
<!-- &#45;1&#45;&gt;n45 -->
<g id="edge50" class="edge">
<title>&#45;1&#45;&gt;n45</title>
<path fill="none" stroke="black" d="M67.53,-606.68C86.29,-593.08 113.74,-575.18 140.5,-565 187.09,-547.28 329.52,-527.47 397.93,-518.66"/>
<polygon fill="black" stroke="black" points="398.05,-522.17 407.53,-517.43 397.17,-515.23 398.05,-522.17"/>
<text text-anchor="middle" x="253.62" y="-542.67" font-family="Times,serif" font-size="10.00">(P,0)</text>
</g>
</g>
</svg>
