<?xml version="1.0" encoding="UTF-8" standalone="no"?>
<!DOCTYPE svg PUBLIC "-//W3C//DTD SVG 1.1//EN"
 "http://www.w3.org/Graphics/SVG/1.1/DTD/svg11.dtd">
<!-- Generated by graphviz version 12.2.1 (20241206.2353)
 -->
<!-- Title: G Pages: 1 -->
<svg width="601pt" height="321pt"
 viewBox="0.00 0.00 600.75 321.00" xmlns="http://www.w3.org/2000/svg" xmlns:xlink="http://www.w3.org/1999/xlink">
<g id="graph0" class="graph" transform="scale(1 1) rotate(0) translate(4 317)">
<title>G</title>
<polygon fill="white" stroke="none" points="-4,4 -4,-317 596.75,-317 596.75,4 -4,4"/>
<!-- n0 -->
<g id="node1" class="node">
<title>n0</title>
<path fill="none" stroke="black" d="M82.25,-104C82.25,-104 52.25,-104 52.25,-104 46.25,-104 40.25,-98 40.25,-92 40.25,-92 40.25,-80 40.25,-80 40.25,-74 46.25,-68 52.25,-68 52.25,-68 82.25,-68 82.25,-68 88.25,-68 94.25,-74 94.25,-80 94.25,-80 94.25,-92 94.25,-92 94.25,-98 88.25,-104 82.25,-104"/>
<text text-anchor="middle" x="67.25" y="-81.72" font-family="Times,serif" font-size="12.00">const 1</text>
</g>
<!-- n6 -->
<g id="node7" class="node">
<title>n6</title>
<path fill="none" stroke="black" d="M314.75,-97C314.75,-97 203.5,-97 203.5,-97 197.5,-97 191.5,-91 191.5,-85 191.5,-85 191.5,-73 191.5,-73 191.5,-67 197.5,-61 203.5,-61 203.5,-61 314.75,-61 314.75,-61 320.75,-61 326.75,-67 326.75,-73 326.75,-73 326.75,-85 326.75,-85 326.75,-91 320.75,-97 314.75,-97"/>
<text text-anchor="middle" x="259.12" y="-74.72" font-family="Times,serif" font-size="12.00">callsnd squarePlusOne#0</text>
</g>
<!-- n0&#45;&gt;n6 -->
<g id="edge6" class="edge">
<title>n0&#45;&gt;n6</title>
<path fill="none" stroke="black" d="M94.65,-85.03C116.7,-84.21 149.3,-83.01 179.61,-81.89"/>
<polygon fill="black" stroke="black" points="179.71,-85.39 189.57,-81.53 179.45,-78.4 179.71,-85.39"/>
<text text-anchor="middle" x="163" y="-84.46" font-family="Times,serif" font-size="10.00">(0,0)</text>
</g>
<!-- n1 -->
<g id="node2" class="node">
<title>n1</title>
<path fill="none" stroke="black" d="M274.12,-259C274.12,-259 244.12,-259 244.12,-259 238.12,-259 232.12,-253 232.12,-247 232.12,-247 232.12,-235 232.12,-235 232.12,-229 238.12,-223 244.12,-223 244.12,-223 274.12,-223 274.12,-223 280.12,-223 286.12,-229 286.12,-235 286.12,-235 286.12,-247 286.12,-247 286.12,-253 280.12,-259 274.12,-259"/>
<text text-anchor="middle" x="259.12" y="-236.72" font-family="Times,serif" font-size="12.00">*</text>
</g>
<!-- n3 -->
<g id="node4" class="node">
<title>n3</title>
<path fill="none" stroke="black" d="M423.62,-269C423.62,-269 393.62,-269 393.62,-269 387.62,-269 381.62,-263 381.62,-257 381.62,-257 381.62,-245 381.62,-245 381.62,-239 387.62,-233 393.62,-233 393.62,-233 423.62,-233 423.62,-233 429.62,-233 435.62,-239 435.62,-245 435.62,-245 435.62,-257 435.62,-257 435.62,-263 429.62,-269 423.62,-269"/>
<text text-anchor="middle" x="408.62" y="-246.72" font-family="Times,serif" font-size="12.00">+</text>
</g>
<!-- n1&#45;&gt;n3 -->
<g id="edge3" class="edge">
<title>n1&#45;&gt;n3</title>
<path fill="none" stroke="black" d="M286.5,-242.79C309.78,-244.37 343.98,-246.69 370.11,-248.46"/>
<polygon fill="black" stroke="black" points="369.76,-251.94 379.97,-249.13 370.23,-244.96 369.76,-251.94"/>
<text text-anchor="middle" x="354.12" y="-249.52" font-family="Times,serif" font-size="10.00">(0,0)</text>
</g>
<!-- n2 -->
<g id="node3" class="node">
<title>n2</title>
<path fill="none" stroke="black" d="M274.12,-313C274.12,-313 244.12,-313 244.12,-313 238.12,-313 232.12,-307 232.12,-301 232.12,-301 232.12,-289 232.12,-289 232.12,-283 238.12,-277 244.12,-277 244.12,-277 274.12,-277 274.12,-277 280.12,-277 286.12,-283 286.12,-289 286.12,-289 286.12,-301 286.12,-301 286.12,-307 280.12,-313 274.12,-313"/>
<text text-anchor="middle" x="259.12" y="-290.73" font-family="Times,serif" font-size="12.00">const 1</text>
</g>
<!-- n2&#45;&gt;n3 -->
<g id="edge4" class="edge">
<title>n2&#45;&gt;n3</title>
<path fill="none" stroke="black" d="M286.5,-287.13C309.88,-280.16 344.29,-269.89 370.47,-262.08"/>
<polygon fill="black" stroke="black" points="371.45,-265.44 380.03,-259.23 369.45,-258.74 371.45,-265.44"/>
<text text-anchor="middle" x="354.12" y="-270.81" font-family="Times,serif" font-size="10.00">(0,1)</text>
</g>
<!-- n4 -->
<g id="node5" class="node">
<title>n4</title>
<path fill="none" stroke="black" d="M580.75,-269C580.75,-269 502.5,-269 502.5,-269 496.5,-269 490.5,-263 490.5,-257 490.5,-257 490.5,-245 490.5,-245 490.5,-239 496.5,-233 502.5,-233 502.5,-233 580.75,-233 580.75,-233 586.75,-233 592.75,-239 592.75,-245 592.75,-245 592.75,-257 592.75,-257 592.75,-263 586.75,-269 580.75,-269"/>
<text text-anchor="middle" x="541.62" y="-246.72" font-family="Times,serif" font-size="12.00">ret squarePlusOne</text>
</g>
<!-- n3&#45;&gt;n4 -->
<g id="edge5" class="edge">
<title>n3&#45;&gt;n4</title>
<path fill="none" stroke="black" d="M435.82,-251C448.2,-251 463.54,-251 478.64,-251"/>
<polygon fill="black" stroke="black" points="478.57,-254.5 488.57,-251 478.57,-247.5 478.57,-254.5"/>
<text text-anchor="middle" x="463.12" y="-252.75" font-family="Times,serif" font-size="10.00">(0,0)</text>
</g>
<!-- n5 -->
<g id="node6" class="node">
<title>n5</title>
<path fill="none" stroke="black" d="M122.5,-43C122.5,-43 12,-43 12,-43 6,-43 0,-37 0,-31 0,-31 0,-19 0,-19 0,-13 6,-7 12,-7 12,-7 122.5,-7 122.5,-7 128.5,-7 134.5,-13 134.5,-19 134.5,-19 134.5,-31 134.5,-31 134.5,-37 128.5,-43 122.5,-43"/>
<text text-anchor="middle" x="67.25" y="-20.73" font-family="Times,serif" font-size="12.00">callgroup squarePlusOne</text>
</g>
<!-- n5&#45;&gt;n6 -->
<g id="edge7" class="edge">
<title>n5&#45;&gt;n6</title>
<path fill="none" stroke="black" d="M133.06,-43.43C149.01,-47.97 166.23,-52.87 182.64,-57.53"/>
<polygon fill="black" stroke="black" points="181.25,-60.78 191.83,-60.14 183.16,-54.04 181.25,-60.78"/>
<text text-anchor="middle" x="163" y="-55.37" font-family="Times,serif" font-size="10.00">(0,1)</text>
</g>
<!-- n7 -->
<g id="node8" class="node">
<title>n7</title>
<path fill="none" stroke="black" d="M306.5,-36C306.5,-36 211.75,-36 211.75,-36 205.75,-36 199.75,-30 199.75,-24 199.75,-24 199.75,-12 199.75,-12 199.75,-6 205.75,0 211.75,0 211.75,0 306.5,0 306.5,0 312.5,0 318.5,-6 318.5,-12 318.5,-12 318.5,-24 318.5,-24 318.5,-30 312.5,-36 306.5,-36"/>
<text text-anchor="middle" x="259.12" y="-13.72" font-family="Times,serif" font-size="12.00">retsnd squarePlusOne</text>
</g>
<!-- n5&#45;&gt;n7 -->
<g id="edge8" class="edge">
<title>n5&#45;&gt;n7</title>
<path fill="none" stroke="black" d="M134.91,-19.64C140.86,-19.29 146.78,-18.98 152.5,-18.75 164.02,-18.28 176.26,-18 188.17,-17.84"/>
<polygon fill="black" stroke="black" points="187.97,-21.34 197.93,-17.73 187.9,-14.34 187.97,-21.34"/>
<text text-anchor="middle" x="163" y="-20.5" font-family="Times,serif" font-size="10.00">(0,1)</text>
</g>
<!-- n8 -->
<g id="node9" class="node">
<title>n8</title>
<path fill="none" stroke="black" d="M423.75,-36C423.75,-36 393.5,-36 393.5,-36 387.5,-36 381.5,-30 381.5,-24 381.5,-24 381.5,-12 381.5,-12 381.5,-6 387.5,0 393.5,0 393.5,0 423.75,0 423.75,0 429.75,0 435.75,-6 435.75,-12 435.75,-12 435.75,-24 435.75,-24 435.75,-30 429.75,-36 423.75,-36"/>
<text text-anchor="middle" x="408.62" y="-13.72" font-family="Times,serif" font-size="12.00">ret main</text>
</g>
<!-- n7&#45;&gt;n8 -->
<g id="edge9" class="edge">
<title>n7&#45;&gt;n8</title>
<path fill="none" stroke="black" d="M318.84,-18C336,-18 354.29,-18 369.79,-18"/>
<polygon fill="black" stroke="black" points="369.51,-21.5 379.51,-18 369.51,-14.5 369.51,-21.5"/>
<text text-anchor="middle" x="354.12" y="-19.75" font-family="Times,serif" font-size="10.00">(0,0)</text>
</g>
<!-- n9 -->
<g id="node10" class="node">
<title>n9</title>
<path fill="none" stroke="black" d="M274.12,-205C274.12,-205 244.12,-205 244.12,-205 238.12,-205 232.12,-199 232.12,-193 232.12,-193 232.12,-181 232.12,-181 232.12,-175 238.12,-169 244.12,-169 244.12,-169 274.12,-169 274.12,-169 280.12,-169 286.12,-175 286.12,-181 286.12,-181 286.12,-193 286.12,-193 286.12,-199 280.12,-205 274.12,-205"/>
<text text-anchor="middle" x="259.12" y="-182.72" font-family="Times,serif" font-size="12.00">*</text>
</g>
<!-- n11 -->
<g id="node12" class="node">
<title>n11</title>
<path fill="none" stroke="black" d="M423.62,-205C423.62,-205 393.62,-205 393.62,-205 387.62,-205 381.62,-199 381.62,-193 381.62,-193 381.62,-181 381.62,-181 381.62,-175 387.62,-169 393.62,-169 393.62,-169 423.62,-169 423.62,-169 429.62,-169 435.62,-175 435.62,-181 435.62,-181 435.62,-193 435.62,-193 435.62,-199 429.62,-205 423.62,-205"/>
<text text-anchor="middle" x="408.62" y="-182.72" font-family="Times,serif" font-size="12.00">+</text>
</g>
<!-- n9&#45;&gt;n11 -->
<g id="edge12" class="edge">
<title>n9&#45;&gt;n11</title>
<path fill="none" stroke="black" d="M286.5,-187C309.78,-187 343.98,-187 370.11,-187"/>
<polygon fill="black" stroke="black" points="369.97,-190.5 379.97,-187 369.97,-183.5 369.97,-190.5"/>
<text text-anchor="middle" x="354.12" y="-188.75" font-family="Times,serif" font-size="10.00">(0,0)</text>
</g>
<!-- n10 -->
<g id="node11" class="node">
<title>n10</title>
<path fill="none" stroke="black" d="M274.12,-151C274.12,-151 244.12,-151 244.12,-151 238.12,-151 232.12,-145 232.12,-139 232.12,-139 232.12,-127 232.12,-127 232.12,-121 238.12,-115 244.12,-115 244.12,-115 274.12,-115 274.12,-115 280.12,-115 286.12,-121 286.12,-127 286.12,-127 286.12,-139 286.12,-139 286.12,-145 280.12,-151 274.12,-151"/>
<text text-anchor="middle" x="259.12" y="-128.72" font-family="Times,serif" font-size="12.00">const 1</text>
</g>
<!-- n10&#45;&gt;n11 -->
<g id="edge13" class="edge">
<title>n10&#45;&gt;n11</title>
<path fill="none" stroke="black" d="M286.5,-142.65C309.99,-151.25 344.6,-163.93 370.82,-173.53"/>
<polygon fill="black" stroke="black" points="369.47,-176.76 380.06,-176.91 371.87,-170.18 369.47,-176.76"/>
<text text-anchor="middle" x="354.12" y="-171.28" font-family="Times,serif" font-size="10.00">(0,1)</text>
</g>
<!-- n12 -->
<g id="node13" class="node">
<title>n12</title>
<path fill="none" stroke="black" d="M580.75,-205C580.75,-205 502.5,-205 502.5,-205 496.5,-205 490.5,-199 490.5,-193 490.5,-193 490.5,-181 490.5,-181 490.5,-175 496.5,-169 502.5,-169 502.5,-169 580.75,-169 580.75,-169 586.75,-169 592.75,-175 592.75,-181 592.75,-181 592.75,-193 592.75,-193 592.75,-199 586.75,-205 580.75,-205"/>
<text text-anchor="middle" x="541.62" y="-182.72" font-family="Times,serif" font-size="12.00">ret squarePlusOne</text>
</g>
<!-- n11&#45;&gt;n12 -->
<g id="edge14" class="edge">
<title>n11&#45;&gt;n12</title>
<path fill="none" stroke="black" d="M435.82,-187C448.2,-187 463.54,-187 478.64,-187"/>
<polygon fill="black" stroke="black" points="478.57,-190.5 488.57,-187 478.57,-183.5 478.57,-190.5"/>
<text text-anchor="middle" x="463.12" y="-188.75" font-family="Times,serif" font-size="10.00">(0,0)</text>
</g>
<!-- n -->
<g id="node14" class="node">
<title>n</title>
<path fill="none" stroke="black" d="M82.25,-286C82.25,-286 52.25,-286 52.25,-286 46.25,-286 40.25,-280 40.25,-274 40.25,-274 40.25,-262 40.25,-262 40.25,-256 46.25,-250 52.25,-250 52.25,-250 82.25,-250 82.25,-250 88.25,-250 94.25,-256 94.25,-262 94.25,-262 94.25,-274 94.25,-274 94.25,-280 88.25,-286 82.25,-286"/>
<text text-anchor="middle" x="67.25" y="-263.73" font-family="Times,serif" font-size="12.00">n</text>
</g>
<!-- &#45;1 -->
<g id="node15" class="node">
<title>&#45;1</title>
<path fill="none" stroke="black" d="M82.25,-232C82.25,-232 52.25,-232 52.25,-232 46.25,-232 40.25,-226 40.25,-220 40.25,-220 40.25,-208 40.25,-208 40.25,-202 46.25,-196 52.25,-196 52.25,-196 82.25,-196 82.25,-196 88.25,-196 94.25,-202 94.25,-208 94.25,-208 94.25,-220 94.25,-220 94.25,-226 88.25,-232 82.25,-232"/>
<text text-anchor="middle" x="67.25" y="-209.72" font-family="Times,serif" font-size="12.00">&#45;1</text>
</g>
<!-- &#45;1&#45;&gt;n1 -->
<g id="edge1" class="edge">
<title>&#45;1&#45;&gt;n1</title>
<path fill="none" stroke="black" d="M94.6,-225.6C110.92,-232.14 132.51,-239.66 152.5,-243 174.88,-246.74 200.3,-246.4 220.59,-245.05"/>
<polygon fill="black" stroke="black" points="220.68,-248.55 230.38,-244.28 220.13,-241.57 220.68,-248.55"/>
<text text-anchor="middle" x="163" y="-247.05" font-family="Times,serif" font-size="10.00">(N,0)</text>
</g>
<!-- &#45;1&#45;&gt;n1 -->
<g id="edge2" class="edge">
<title>&#45;1&#45;&gt;n1</title>
<path fill="none" stroke="black" d="M94.65,-217.75C127.29,-222.4 183.08,-230.33 220.27,-235.62"/>
<polygon fill="black" stroke="black" points="219.75,-239.08 230.14,-237.02 220.74,-232.15 219.75,-239.08"/>
<text text-anchor="middle" x="163" y="-230.06" font-family="Times,serif" font-size="10.00">(N,1)</text>
</g>
<!-- &#45;1&#45;&gt;n9 -->
<g id="edge10" class="edge">
<title>&#45;1&#45;&gt;n9</title>
<path fill="none" stroke="black" d="M94.65,-210.25C127.29,-205.6 183.08,-197.67 220.27,-192.38"/>
<polygon fill="black" stroke="black" points="220.74,-195.85 230.14,-190.98 219.75,-188.92 220.74,-195.85"/>
<text text-anchor="middle" x="163" y="-203.06" font-family="Times,serif" font-size="10.00">(N,0)</text>
</g>
<!-- &#45;1&#45;&gt;n9 -->
<g id="edge11" class="edge">
<title>&#45;1&#45;&gt;n9</title>
<path fill="none" stroke="black" d="M94.59,-202.3C110.91,-195.7 132.5,-188.12 152.5,-184.75 174.88,-180.98 200.29,-181.38 220.59,-182.8"/>
<polygon fill="black" stroke="black" points="220.12,-186.27 230.37,-183.6 220.69,-179.29 220.12,-186.27"/>
<text text-anchor="middle" x="163" y="-186.5" font-family="Times,serif" font-size="10.00">(N,1)</text>
</g>
</g>
</svg>
