<?xml version="1.0" encoding="UTF-8" standalone="no"?>
<!DOCTYPE svg PUBLIC "-//W3C//DTD SVG 1.1//EN"
 "http://www.w3.org/Graphics/SVG/1.1/DTD/svg11.dtd">
<!-- Generated by graphviz version 12.2.1 (20241206.2353)
 -->
<!-- Title: G Pages: 1 -->
<svg width="520pt" height="403pt"
 viewBox="0.00 0.00 519.75 403.00" xmlns="http://www.w3.org/2000/svg" xmlns:xlink="http://www.w3.org/1999/xlink">
<g id="graph0" class="graph" transform="scale(1 1) rotate(0) translate(4 399)">
<title>G</title>
<polygon fill="white" stroke="none" points="-4,4 -4,-399 515.75,-399 515.75,4 -4,4"/>
<!-- n0 -->
<g id="node1" class="node">
<title>n0</title>
<path fill="none" stroke="black" d="M69.12,-206C69.12,-206 39.12,-206 39.12,-206 33.12,-206 27.12,-200 27.12,-194 27.12,-194 27.12,-182 27.12,-182 27.12,-176 33.12,-170 39.12,-170 39.12,-170 69.12,-170 69.12,-170 75.12,-170 81.12,-176 81.12,-182 81.12,-182 81.12,-194 81.12,-194 81.12,-200 75.12,-206 69.12,-206"/>
<text text-anchor="middle" x="54.12" y="-183.72" font-family="Times,serif" font-size="12.00">const 1</text>
</g>
<!-- n10 -->
<g id="node11" class="node">
<title>n10</title>
<path fill="none" stroke="black" d="M260,-170C260,-170 175,-170 175,-170 169,-170 163,-164 163,-158 163,-158 163,-146 163,-146 163,-140 169,-134 175,-134 175,-134 260,-134 260,-134 266,-134 272,-140 272,-146 272,-146 272,-158 272,-158 272,-164 266,-170 260,-170"/>
<text text-anchor="middle" x="217.5" y="-147.72" font-family="Times,serif" font-size="12.00">callsnd addThree#0</text>
</g>
<!-- n0&#45;&gt;n10 -->
<g id="edge6" class="edge">
<title>n0&#45;&gt;n10</title>
<path fill="none" stroke="black" d="M81.41,-182.14C100.46,-177.89 127.09,-171.95 151.67,-166.46"/>
<polygon fill="black" stroke="black" points="152.32,-169.9 161.31,-164.31 150.79,-163.07 152.32,-169.9"/>
<text text-anchor="middle" x="135.62" y="-172.83" font-family="Times,serif" font-size="10.00">(0,0)</text>
</g>
<!-- n1 -->
<g id="node2" class="node">
<title>n1</title>
<path fill="none" stroke="black" d="M69.12,-260C69.12,-260 39.12,-260 39.12,-260 33.12,-260 27.12,-254 27.12,-248 27.12,-248 27.12,-236 27.12,-236 27.12,-230 33.12,-224 39.12,-224 39.12,-224 69.12,-224 69.12,-224 75.12,-224 81.12,-230 81.12,-236 81.12,-236 81.12,-248 81.12,-248 81.12,-254 75.12,-260 69.12,-260"/>
<text text-anchor="middle" x="54.12" y="-237.72" font-family="Times,serif" font-size="12.00">const 2</text>
</g>
<!-- n11 -->
<g id="node12" class="node">
<title>n11</title>
<path fill="none" stroke="black" d="M260,-248C260,-248 175,-248 175,-248 169,-248 163,-242 163,-236 163,-236 163,-224 163,-224 163,-218 169,-212 175,-212 175,-212 260,-212 260,-212 266,-212 272,-218 272,-224 272,-224 272,-236 272,-236 272,-242 266,-248 260,-248"/>
<text text-anchor="middle" x="217.5" y="-225.72" font-family="Times,serif" font-size="12.00">callsnd addThree#1</text>
</g>
<!-- n1&#45;&gt;n11 -->
<g id="edge8" class="edge">
<title>n1&#45;&gt;n11</title>
<path fill="none" stroke="black" d="M81.41,-240.05C100.38,-238.63 126.85,-236.67 151.34,-234.85"/>
<polygon fill="black" stroke="black" points="151.57,-238.34 161.28,-234.11 151.05,-231.36 151.57,-238.34"/>
<text text-anchor="middle" x="135.62" y="-238.11" font-family="Times,serif" font-size="10.00">(0,0)</text>
</g>
<!-- n2 -->
<g id="node3" class="node">
<title>n2</title>
<path fill="none" stroke="black" d="M69.12,-36C69.12,-36 39.12,-36 39.12,-36 33.12,-36 27.12,-30 27.12,-24 27.12,-24 27.12,-12 27.12,-12 27.12,-6 33.12,0 39.12,0 39.12,0 69.12,0 69.12,0 75.12,0 81.12,-6 81.12,-12 81.12,-12 81.12,-24 81.12,-24 81.12,-30 75.12,-36 69.12,-36"/>
<text text-anchor="middle" x="54.12" y="-13.72" font-family="Times,serif" font-size="12.00">const 3</text>
</g>
<!-- n12 -->
<g id="node13" class="node">
<title>n12</title>
<path fill="none" stroke="black" d="M260,-43C260,-43 175,-43 175,-43 169,-43 163,-37 163,-31 163,-31 163,-19 163,-19 163,-13 169,-7 175,-7 175,-7 260,-7 260,-7 266,-7 272,-13 272,-19 272,-19 272,-31 272,-31 272,-37 266,-43 260,-43"/>
<text text-anchor="middle" x="217.5" y="-20.73" font-family="Times,serif" font-size="12.00">callsnd addThree#2</text>
</g>
<!-- n2&#45;&gt;n12 -->
<g id="edge10" class="edge">
<title>n2&#45;&gt;n12</title>
<path fill="none" stroke="black" d="M81.49,-17.67C99.41,-17.59 123.65,-17.73 145,-18.75 147.06,-18.85 149.15,-18.96 151.26,-19.08"/>
<polygon fill="black" stroke="black" points="150.93,-22.57 161.14,-19.74 151.4,-15.58 150.93,-22.57"/>
<text text-anchor="middle" x="135.62" y="-20.5" font-family="Times,serif" font-size="10.00">(0,0)</text>
</g>
<!-- n3 -->
<g id="node4" class="node">
<title>n3</title>
<path fill="none" stroke="black" d="M251,-395C251,-395 184,-395 184,-395 178,-395 172,-389 172,-383 172,-383 172,-371 172,-371 172,-365 178,-359 184,-359 184,-359 251,-359 251,-359 257,-359 263,-365 263,-371 263,-371 263,-383 263,-383 263,-389 257,-395 251,-395"/>
<text text-anchor="middle" x="217.5" y="-372.73" font-family="Times,serif" font-size="12.00">arg addThree#0</text>
</g>
<!-- n7 -->
<g id="node8" class="node">
<title>n7</title>
<path fill="none" stroke="black" d="M368.88,-368C368.88,-368 338.88,-368 338.88,-368 332.88,-368 326.88,-362 326.88,-356 326.88,-356 326.88,-344 326.88,-344 326.88,-338 332.88,-332 338.88,-332 338.88,-332 368.88,-332 368.88,-332 374.88,-332 380.88,-338 380.88,-344 380.88,-344 380.88,-356 380.88,-356 380.88,-362 374.88,-368 368.88,-368"/>
<text text-anchor="middle" x="353.88" y="-345.73" font-family="Times,serif" font-size="12.00">+</text>
</g>
<!-- n3&#45;&gt;n7 -->
<g id="edge4" class="edge">
<title>n3&#45;&gt;n7</title>
<path fill="none" stroke="black" d="M263.24,-368.01C280.2,-364.6 299.31,-360.76 315.52,-357.51"/>
<polygon fill="black" stroke="black" points="316.13,-360.95 325.25,-355.55 314.75,-354.09 316.13,-360.95"/>
<text text-anchor="middle" x="299.38" y="-363.63" font-family="Times,serif" font-size="10.00">(0,1)</text>
</g>
<!-- n4 -->
<g id="node5" class="node">
<title>n4</title>
<path fill="none" stroke="black" d="M87.62,-368C87.62,-368 20.62,-368 20.62,-368 14.62,-368 8.62,-362 8.62,-356 8.62,-356 8.62,-344 8.62,-344 8.62,-338 14.62,-332 20.62,-332 20.62,-332 87.62,-332 87.62,-332 93.62,-332 99.62,-338 99.62,-344 99.62,-344 99.62,-356 99.62,-356 99.62,-362 93.62,-368 87.62,-368"/>
<text text-anchor="middle" x="54.12" y="-345.73" font-family="Times,serif" font-size="12.00">arg addThree#1</text>
</g>
<!-- n6 -->
<g id="node7" class="node">
<title>n6</title>
<path fill="none" stroke="black" d="M232.5,-341C232.5,-341 202.5,-341 202.5,-341 196.5,-341 190.5,-335 190.5,-329 190.5,-329 190.5,-317 190.5,-317 190.5,-311 196.5,-305 202.5,-305 202.5,-305 232.5,-305 232.5,-305 238.5,-305 244.5,-311 244.5,-317 244.5,-317 244.5,-329 244.5,-329 244.5,-335 238.5,-341 232.5,-341"/>
<text text-anchor="middle" x="217.5" y="-318.73" font-family="Times,serif" font-size="12.00">+</text>
</g>
<!-- n4&#45;&gt;n6 -->
<g id="edge2" class="edge">
<title>n4&#45;&gt;n6</title>
<path fill="none" stroke="black" d="M100.08,-342.48C124.97,-338.31 155.55,-333.2 179.12,-329.25"/>
<polygon fill="black" stroke="black" points="179.63,-332.72 188.91,-327.62 178.47,-325.81 179.63,-332.72"/>
<text text-anchor="middle" x="135.62" y="-339.06" font-family="Times,serif" font-size="10.00">(0,1)</text>
</g>
<!-- n5 -->
<g id="node6" class="node">
<title>n5</title>
<path fill="none" stroke="black" d="M87.62,-314C87.62,-314 20.62,-314 20.62,-314 14.62,-314 8.62,-308 8.62,-302 8.62,-302 8.62,-290 8.62,-290 8.62,-284 14.62,-278 20.62,-278 20.62,-278 87.62,-278 87.62,-278 93.62,-278 99.62,-284 99.62,-290 99.62,-290 99.62,-302 99.62,-302 99.62,-308 93.62,-314 87.62,-314"/>
<text text-anchor="middle" x="54.12" y="-291.73" font-family="Times,serif" font-size="12.00">arg addThree#2</text>
</g>
<!-- n5&#45;&gt;n6 -->
<g id="edge1" class="edge">
<title>n5&#45;&gt;n6</title>
<path fill="none" stroke="black" d="M100.08,-303.52C124.97,-307.69 155.55,-312.8 179.12,-316.75"/>
<polygon fill="black" stroke="black" points="178.47,-320.19 188.91,-318.38 179.63,-313.28 178.47,-320.19"/>
<text text-anchor="middle" x="135.62" y="-312.06" font-family="Times,serif" font-size="10.00">(0,0)</text>
</g>
<!-- n6&#45;&gt;n7 -->
<g id="edge3" class="edge">
<title>n6&#45;&gt;n7</title>
<path fill="none" stroke="black" d="M244.73,-328.27C264.89,-332.32 293.01,-337.97 315.52,-342.5"/>
<polygon fill="black" stroke="black" points="314.74,-345.91 325.23,-344.45 316.11,-339.04 314.74,-345.91"/>
<text text-anchor="middle" x="299.38" y="-342.25" font-family="Times,serif" font-size="10.00">(0,0)</text>
</g>
<!-- n8 -->
<g id="node9" class="node">
<title>n8</title>
<path fill="none" stroke="black" d="M499.75,-368C499.75,-368 447.75,-368 447.75,-368 441.75,-368 435.75,-362 435.75,-356 435.75,-356 435.75,-344 435.75,-344 435.75,-338 441.75,-332 447.75,-332 447.75,-332 499.75,-332 499.75,-332 505.75,-332 511.75,-338 511.75,-344 511.75,-344 511.75,-356 511.75,-356 511.75,-362 505.75,-368 499.75,-368"/>
<text text-anchor="middle" x="473.75" y="-345.73" font-family="Times,serif" font-size="12.00">ret addThree</text>
</g>
<!-- n7&#45;&gt;n8 -->
<g id="edge5" class="edge">
<title>n7&#45;&gt;n8</title>
<path fill="none" stroke="black" d="M381.33,-350C393.97,-350 409.51,-350 424.16,-350"/>
<polygon fill="black" stroke="black" points="424.14,-353.5 434.14,-350 424.14,-346.5 424.14,-353.5"/>
<text text-anchor="middle" x="408.38" y="-351.75" font-family="Times,serif" font-size="10.00">(0,0)</text>
</g>
<!-- n9 -->
<g id="node10" class="node">
<title>n9</title>
<path fill="none" stroke="black" d="M96.25,-121C96.25,-121 12,-121 12,-121 6,-121 0,-115 0,-109 0,-109 0,-97 0,-97 0,-91 6,-85 12,-85 12,-85 96.25,-85 96.25,-85 102.25,-85 108.25,-91 108.25,-97 108.25,-97 108.25,-109 108.25,-109 108.25,-115 102.25,-121 96.25,-121"/>
<text text-anchor="middle" x="54.12" y="-98.72" font-family="Times,serif" font-size="12.00">callgroup addThree</text>
</g>
<!-- n9&#45;&gt;n10 -->
<g id="edge7" class="edge">
<title>n9&#45;&gt;n10</title>
<path fill="none" stroke="black" d="M108.36,-111.53C120.53,-114.03 133.31,-117.09 145,-120.75 152.56,-123.12 160.39,-126.03 167.98,-129.12"/>
<polygon fill="black" stroke="black" points="166.53,-132.31 177.1,-132.98 169.25,-125.86 166.53,-132.31"/>
<text text-anchor="middle" x="135.62" y="-122.5" font-family="Times,serif" font-size="10.00">(0,1)</text>
</g>
<!-- n9&#45;&gt;n11 -->
<g id="edge9" class="edge">
<title>n9&#45;&gt;n11</title>
<path fill="none" stroke="black" d="M96.09,-121.29C112.37,-129.75 130.61,-140.8 145,-153.75 155.24,-162.97 153.97,-168.59 163,-179 170.42,-187.56 179.09,-196.29 187.27,-204.04"/>
<polygon fill="black" stroke="black" points="184.71,-206.45 194.42,-210.7 189.48,-201.32 184.71,-206.45"/>
<text text-anchor="middle" x="135.62" y="-155.5" font-family="Times,serif" font-size="10.00">(0,1)</text>
</g>
<!-- n9&#45;&gt;n12 -->
<g id="edge11" class="edge">
<title>n9&#45;&gt;n12</title>
<path fill="none" stroke="black" d="M93.37,-84.52C115.7,-73.72 144.08,-60 167.98,-48.45"/>
<polygon fill="black" stroke="black" points="169.41,-51.65 176.89,-44.15 166.36,-45.35 169.41,-51.65"/>
<text text-anchor="middle" x="135.62" y="-68.09" font-family="Times,serif" font-size="10.00">(0,1)</text>
</g>
<!-- n13 -->
<g id="node14" class="node">
<title>n13</title>
<path fill="none" stroke="black" d="M251.75,-104C251.75,-104 183.25,-104 183.25,-104 177.25,-104 171.25,-98 171.25,-92 171.25,-92 171.25,-80 171.25,-80 171.25,-74 177.25,-68 183.25,-68 183.25,-68 251.75,-68 251.75,-68 257.75,-68 263.75,-74 263.75,-80 263.75,-80 263.75,-92 263.75,-92 263.75,-98 257.75,-104 251.75,-104"/>
<text text-anchor="middle" x="217.5" y="-81.72" font-family="Times,serif" font-size="12.00">retsnd addThree</text>
</g>
<!-- n9&#45;&gt;n13 -->
<g id="edge12" class="edge">
<title>n9&#45;&gt;n13</title>
<path fill="none" stroke="black" d="M108.5,-89.5C114.46,-88.39 120.46,-87.43 126.25,-86.75 136.99,-85.49 148.5,-84.86 159.59,-84.6"/>
<polygon fill="black" stroke="black" points="159.46,-88.11 169.42,-84.48 159.38,-81.11 159.46,-88.11"/>
<text text-anchor="middle" x="135.62" y="-88.5" font-family="Times,serif" font-size="10.00">(0,1)</text>
</g>
<!-- n14 -->
<g id="node15" class="node">
<title>n14</title>
<path fill="none" stroke="black" d="M369,-104C369,-104 338.75,-104 338.75,-104 332.75,-104 326.75,-98 326.75,-92 326.75,-92 326.75,-80 326.75,-80 326.75,-74 332.75,-68 338.75,-68 338.75,-68 369,-68 369,-68 375,-68 381,-74 381,-80 381,-80 381,-92 381,-92 381,-98 375,-104 369,-104"/>
<text text-anchor="middle" x="353.88" y="-81.72" font-family="Times,serif" font-size="12.00">ret main</text>
</g>
<!-- n13&#45;&gt;n14 -->
<g id="edge13" class="edge">
<title>n13&#45;&gt;n14</title>
<path fill="none" stroke="black" d="M263.99,-86C280.78,-86 299.59,-86 315.57,-86"/>
<polygon fill="black" stroke="black" points="315.12,-89.5 325.12,-86 315.12,-82.5 315.12,-89.5"/>
<text text-anchor="middle" x="299.38" y="-87.75" font-family="Times,serif" font-size="10.00">(0,0)</text>
</g>
</g>
</svg>
