<?xml version="1.0" encoding="UTF-8" standalone="no"?>
<!DOCTYPE svg PUBLIC "-//W3C//DTD SVG 1.1//EN"
 "http://www.w3.org/Graphics/SVG/1.1/DTD/svg11.dtd">
<!-- Generated by graphviz version 12.2.1 (20241206.2353)
 -->
<!-- Title: G Pages: 1 -->
<svg width="565pt" height="538pt"
 viewBox="0.00 0.00 564.75 538.03" xmlns="http://www.w3.org/2000/svg" xmlns:xlink="http://www.w3.org/1999/xlink">
<g id="graph0" class="graph" transform="scale(1 1) rotate(0) translate(4 534.03)">
<title>G</title>
<polygon fill="white" stroke="none" points="-4,4 -4,-534.03 560.75,-534.03 560.75,4 -4,4"/>
<!-- n0 -->
<g id="node1" class="node">
<title>n0</title>
<path fill="none" stroke="black" d="M53.88,-104C53.88,-104 22.12,-104 22.12,-104 16.12,-104 10.12,-98 10.12,-92 10.12,-92 10.12,-80 10.12,-80 10.12,-74 16.12,-68 22.12,-68 22.12,-68 53.88,-68 53.88,-68 59.88,-68 65.88,-74 65.88,-80 65.88,-80 65.88,-92 65.88,-92 65.88,-98 59.88,-104 53.88,-104"/>
<text text-anchor="middle" x="38" y="-81.72" font-family="Times,serif" font-size="12.00">const 10</text>
</g>
<!-- n19 -->
<g id="node20" class="node">
<title>n19</title>
<path fill="none" stroke="black" d="M195.5,-97C195.5,-97 142.75,-97 142.75,-97 136.75,-97 130.75,-91 130.75,-85 130.75,-85 130.75,-73 130.75,-73 130.75,-67 136.75,-61 142.75,-61 142.75,-61 195.5,-61 195.5,-61 201.5,-61 207.5,-67 207.5,-73 207.5,-73 207.5,-85 207.5,-85 207.5,-91 201.5,-97 195.5,-97"/>
<text text-anchor="middle" x="169.12" y="-74.72" font-family="Times,serif" font-size="12.00">callsnd fib#0</text>
</g>
<!-- n0&#45;&gt;n19 -->
<g id="edge21" class="edge">
<title>n0&#45;&gt;n19</title>
<path fill="none" stroke="black" d="M66.07,-84.53C81.36,-83.7 100.94,-82.64 118.85,-81.67"/>
<polygon fill="black" stroke="black" points="119.01,-85.17 128.81,-81.13 118.63,-78.18 119.01,-85.17"/>
<text text-anchor="middle" x="103.38" y="-84.67" font-family="Times,serif" font-size="10.00">(0,0)</text>
</g>
<!-- n1 -->
<g id="node2" class="node">
<title>n1</title>
<path fill="none" stroke="black" d="M186.5,-415C186.5,-415 151.75,-415 151.75,-415 145.75,-415 139.75,-409 139.75,-403 139.75,-403 139.75,-391 139.75,-391 139.75,-385 145.75,-379 151.75,-379 151.75,-379 186.5,-379 186.5,-379 192.5,-379 198.5,-385 198.5,-391 198.5,-391 198.5,-403 198.5,-403 198.5,-409 192.5,-415 186.5,-415"/>
<text text-anchor="middle" x="169.12" y="-392.73" font-family="Times,serif" font-size="12.00">arg fib#0</text>
</g>
<!-- n3 -->
<g id="node4" class="node">
<title>n3</title>
<path fill="none" stroke="black" d="M304.38,-363C304.38,-363 274.38,-363 274.38,-363 268.38,-363 262.38,-357 262.38,-351 262.38,-351 262.38,-339 262.38,-339 262.38,-333 268.38,-327 274.38,-327 274.38,-327 304.38,-327 304.38,-327 310.38,-327 316.38,-333 316.38,-339 316.38,-339 316.38,-351 316.38,-351 316.38,-357 310.38,-363 304.38,-363"/>
<text text-anchor="middle" x="289.38" y="-340.73" font-family="Times,serif" font-size="12.00">&lt;</text>
</g>
<!-- n1&#45;&gt;n3 -->
<g id="edge1" class="edge">
<title>n1&#45;&gt;n3</title>
<path fill="none" stroke="black" d="M198.75,-384.41C214.71,-377.39 234.76,-368.58 251.84,-361.06"/>
<polygon fill="black" stroke="black" points="252.9,-364.42 260.65,-357.19 250.09,-358.01 252.9,-364.42"/>
<text text-anchor="middle" x="234.88" y="-374.31" font-family="Times,serif" font-size="10.00">(0,0)</text>
</g>
<!-- n5 -->
<g id="node6" class="node">
<title>n5</title>
<path fill="none" stroke="black" d="M304.38,-487C304.38,-487 274.38,-487 274.38,-487 268.38,-487 262.38,-481 262.38,-475 262.38,-475 262.38,-463 262.38,-463 262.38,-457 268.38,-451 274.38,-451 274.38,-451 304.38,-451 304.38,-451 310.38,-451 316.38,-457 316.38,-463 316.38,-463 316.38,-475 316.38,-475 316.38,-481 310.38,-487 304.38,-487"/>
<text text-anchor="middle" x="289.38" y="-464.73" font-family="Times,serif" font-size="12.00">&#45;</text>
</g>
<!-- n1&#45;&gt;n5 -->
<g id="edge3" class="edge">
<title>n1&#45;&gt;n5</title>
<path fill="none" stroke="black" d="M198.75,-414.43C214.86,-424.24 235.14,-436.58 252.33,-447.05"/>
<polygon fill="black" stroke="black" points="250.38,-449.96 260.74,-452.18 254.02,-443.98 250.38,-449.96"/>
<text text-anchor="middle" x="234.88" y="-443.32" font-family="Times,serif" font-size="10.00">(0,0)</text>
</g>
<!-- n10 -->
<g id="node11" class="node">
<title>n10</title>
<path fill="none" stroke="black" d="M304.38,-189C304.38,-189 274.38,-189 274.38,-189 268.38,-189 262.38,-183 262.38,-177 262.38,-177 262.38,-165 262.38,-165 262.38,-159 268.38,-153 274.38,-153 274.38,-153 304.38,-153 304.38,-153 310.38,-153 316.38,-159 316.38,-165 316.38,-165 316.38,-177 316.38,-177 316.38,-183 310.38,-189 304.38,-189"/>
<text text-anchor="middle" x="289.38" y="-166.72" font-family="Times,serif" font-size="12.00">&#45;</text>
</g>
<!-- n1&#45;&gt;n10 -->
<g id="edge8" class="edge">
<title>n1&#45;&gt;n10</title>
<path fill="none" stroke="black" d="M193.72,-378.6C210.35,-364.37 231.79,-343.22 244.25,-320 260.05,-290.55 252.81,-279.05 262.25,-247 266.88,-231.26 272.77,-213.95 277.78,-199.83"/>
<polygon fill="black" stroke="black" points="280.98,-201.3 281.06,-190.71 274.39,-198.93 280.98,-201.3"/>
<text text-anchor="middle" x="234.88" y="-348.1" font-family="Times,serif" font-size="10.00">(0,0)</text>
</g>
<!-- n15 -->
<g id="node16" class="node">
<title>n15</title>
<path fill="none" stroke="black" d="M424.62,-388C424.62,-388 394.62,-388 394.62,-388 388.62,-388 382.62,-382 382.62,-376 382.62,-376 382.62,-364 382.62,-364 382.62,-358 388.62,-352 394.62,-352 394.62,-352 424.62,-352 424.62,-352 430.62,-352 436.62,-358 436.62,-364 436.62,-364 436.62,-376 436.62,-376 436.62,-382 430.62,-388 424.62,-388"/>
<text text-anchor="middle" x="409.62" y="-365.73" font-family="Times,serif" font-size="12.00">steer</text>
</g>
<!-- n1&#45;&gt;n15 -->
<g id="edge15" class="edge">
<title>n1&#45;&gt;n15</title>
<path fill="none" stroke="black" d="M198.89,-393.74C241.95,-388.87 323.19,-379.67 370.94,-374.27"/>
<polygon fill="black" stroke="black" points="371.27,-377.75 380.81,-373.15 370.48,-370.8 371.27,-377.75"/>
<text text-anchor="middle" x="289.38" y="-387.93" font-family="Times,serif" font-size="10.00">(0,0)</text>
</g>
<!-- n2 -->
<g id="node3" class="node">
<title>n2</title>
<path fill="none" stroke="black" d="M184.12,-351C184.12,-351 154.12,-351 154.12,-351 148.12,-351 142.12,-345 142.12,-339 142.12,-339 142.12,-327 142.12,-327 142.12,-321 148.12,-315 154.12,-315 154.12,-315 184.12,-315 184.12,-315 190.12,-315 196.12,-321 196.12,-327 196.12,-327 196.12,-339 196.12,-339 196.12,-345 190.12,-351 184.12,-351"/>
<text text-anchor="middle" x="169.12" y="-328.73" font-family="Times,serif" font-size="12.00">const 1</text>
</g>
<!-- n2&#45;&gt;n3 -->
<g id="edge2" class="edge">
<title>n2&#45;&gt;n3</title>
<path fill="none" stroke="black" d="M196.32,-315.79C210.56,-308.6 228.44,-303.09 244.25,-308.75 250.99,-311.16 257.43,-315.1 263.22,-319.5"/>
<polygon fill="black" stroke="black" points="260.65,-321.92 270.55,-325.69 265.16,-316.57 260.65,-321.92"/>
<text text-anchor="middle" x="234.88" y="-310.5" font-family="Times,serif" font-size="10.00">(0,1)</text>
</g>
<!-- n3&#45;&gt;n15 -->
<g id="edge16" class="edge">
<title>n3&#45;&gt;n15</title>
<path fill="none" stroke="black" d="M316.62,-350.55C332.69,-353.95 353.52,-358.35 371.3,-362.11"/>
<polygon fill="black" stroke="black" points="370.47,-365.51 380.97,-364.15 371.91,-358.66 370.47,-365.51"/>
<text text-anchor="middle" x="343.88" y="-360" font-family="Times,serif" font-size="10.00">(0,1)</text>
</g>
<!-- n16 -->
<g id="node17" class="node">
<title>n16</title>
<path fill="none" stroke="black" d="M424.62,-334C424.62,-334 394.62,-334 394.62,-334 388.62,-334 382.62,-328 382.62,-322 382.62,-322 382.62,-310 382.62,-310 382.62,-304 388.62,-298 394.62,-298 394.62,-298 424.62,-298 424.62,-298 430.62,-298 436.62,-304 436.62,-310 436.62,-310 436.62,-322 436.62,-322 436.62,-328 430.62,-334 424.62,-334"/>
<text text-anchor="middle" x="409.62" y="-311.73" font-family="Times,serif" font-size="12.00">steer</text>
</g>
<!-- n3&#45;&gt;n16 -->
<g id="edge18" class="edge">
<title>n3&#45;&gt;n16</title>
<path fill="none" stroke="black" d="M316.62,-338.56C332.69,-334.62 353.52,-329.51 371.3,-325.15"/>
<polygon fill="black" stroke="black" points="372.11,-328.56 380.98,-322.78 370.44,-321.76 372.11,-328.56"/>
<text text-anchor="middle" x="343.88" y="-335.7" font-family="Times,serif" font-size="10.00">(0,1)</text>
</g>
<!-- n4 -->
<g id="node5" class="node">
<title>n4</title>
<path fill="none" stroke="black" d="M184.12,-487C184.12,-487 154.12,-487 154.12,-487 148.12,-487 142.12,-481 142.12,-475 142.12,-475 142.12,-463 142.12,-463 142.12,-457 148.12,-451 154.12,-451 154.12,-451 184.12,-451 184.12,-451 190.12,-451 196.12,-457 196.12,-463 196.12,-463 196.12,-475 196.12,-475 196.12,-481 190.12,-487 184.12,-487"/>
<text text-anchor="middle" x="169.12" y="-464.73" font-family="Times,serif" font-size="12.00">const 1</text>
</g>
<!-- n4&#45;&gt;n5 -->
<g id="edge4" class="edge">
<title>n4&#45;&gt;n5</title>
<path fill="none" stroke="black" d="M196.37,-469C212.37,-469 233.07,-469 250.79,-469"/>
<polygon fill="black" stroke="black" points="250.69,-472.5 260.69,-469 250.69,-465.5 250.69,-472.5"/>
<text text-anchor="middle" x="234.88" y="-470.75" font-family="Times,serif" font-size="10.00">(0,1)</text>
</g>
<!-- n7 -->
<g id="node8" class="node">
<title>n7</title>
<path fill="none" stroke="black" d="M436,-520C436,-520 383.25,-520 383.25,-520 377.25,-520 371.25,-514 371.25,-508 371.25,-508 371.25,-496 371.25,-496 371.25,-490 377.25,-484 383.25,-484 383.25,-484 436,-484 436,-484 442,-484 448,-490 448,-496 448,-496 448,-508 448,-508 448,-514 442,-520 436,-520"/>
<text text-anchor="middle" x="409.62" y="-497.73" font-family="Times,serif" font-size="12.00">callsnd fib#0</text>
</g>
<!-- n5&#45;&gt;n7 -->
<g id="edge5" class="edge">
<title>n5&#45;&gt;n7</title>
<path fill="none" stroke="black" d="M316.62,-476.32C329.31,-479.86 344.96,-484.23 359.73,-488.35"/>
<polygon fill="black" stroke="black" points="358.76,-491.72 369.33,-491.03 360.64,-484.97 358.76,-491.72"/>
<text text-anchor="middle" x="343.88" y="-488.24" font-family="Times,serif" font-size="10.00">(0,0)</text>
</g>
<!-- n6 -->
<g id="node7" class="node">
<title>n6</title>
<path fill="none" stroke="black" d="M64,-423C64,-423 12,-423 12,-423 6,-423 0,-417 0,-411 0,-411 0,-399 0,-399 0,-393 6,-387 12,-387 12,-387 64,-387 64,-387 70,-387 76,-393 76,-399 76,-399 76,-411 76,-411 76,-417 70,-423 64,-423"/>
<text text-anchor="middle" x="38" y="-400.73" font-family="Times,serif" font-size="12.00">callgroup fib</text>
</g>
<!-- n6&#45;&gt;n7 -->
<g id="edge6" class="edge">
<title>n6&#45;&gt;n7</title>
<path fill="none" stroke="black" d="M50.96,-423.46C66.38,-445.41 95.46,-480.96 130.75,-496 205.5,-527.86 302.15,-520.4 359.54,-511.57"/>
<polygon fill="black" stroke="black" points="360.02,-515.03 369.33,-509.97 358.9,-508.12 360.02,-515.03"/>
<text text-anchor="middle" x="234.88" y="-520.53" font-family="Times,serif" font-size="10.00">(0,1)</text>
</g>
<!-- n8 -->
<g id="node9" class="node">
<title>n8</title>
<path fill="none" stroke="black" d="M187.25,-297C187.25,-297 151,-297 151,-297 145,-297 139,-291 139,-285 139,-285 139,-273 139,-273 139,-267 145,-261 151,-261 151,-261 187.25,-261 187.25,-261 193.25,-261 199.25,-267 199.25,-273 199.25,-273 199.25,-285 199.25,-285 199.25,-291 193.25,-297 187.25,-297"/>
<text text-anchor="middle" x="169.12" y="-274.73" font-family="Times,serif" font-size="12.00">retsnd fib</text>
</g>
<!-- n6&#45;&gt;n8 -->
<g id="edge7" class="edge">
<title>n6&#45;&gt;n8</title>
<path fill="none" stroke="black" d="M53.93,-386.83C71.33,-366.16 101.44,-331.94 130.75,-306 131.38,-305.44 132.02,-304.89 132.67,-304.33"/>
<polygon fill="black" stroke="black" points="134.7,-307.19 140.3,-298.2 130.31,-301.73 134.7,-307.19"/>
<text text-anchor="middle" x="103.38" y="-341.33" font-family="Times,serif" font-size="10.00">(0,1)</text>
</g>
<!-- n14 -->
<g id="node15" class="node">
<title>n14</title>
<path fill="none" stroke="black" d="M304.38,-292C304.38,-292 274.38,-292 274.38,-292 268.38,-292 262.38,-286 262.38,-280 262.38,-280 262.38,-268 262.38,-268 262.38,-262 268.38,-256 274.38,-256 274.38,-256 304.38,-256 304.38,-256 310.38,-256 316.38,-262 316.38,-268 316.38,-268 316.38,-280 316.38,-280 316.38,-286 310.38,-292 304.38,-292"/>
<text text-anchor="middle" x="289.38" y="-269.73" font-family="Times,serif" font-size="12.00">+</text>
</g>
<!-- n8&#45;&gt;n14 -->
<g id="edge13" class="edge">
<title>n8&#45;&gt;n14</title>
<path fill="none" stroke="black" d="M199.7,-276.37C208.04,-275.73 217.12,-275.12 225.5,-274.75 233.65,-274.39 242.41,-274.17 250.72,-274.05"/>
<polygon fill="black" stroke="black" points="250.58,-277.55 260.54,-273.95 250.51,-270.55 250.58,-277.55"/>
<text text-anchor="middle" x="234.88" y="-276.5" font-family="Times,serif" font-size="10.00">(0,0)</text>
</g>
<!-- n9 -->
<g id="node10" class="node">
<title>n9</title>
<path fill="none" stroke="black" d="M184.12,-189C184.12,-189 154.12,-189 154.12,-189 148.12,-189 142.12,-183 142.12,-177 142.12,-177 142.12,-165 142.12,-165 142.12,-159 148.12,-153 154.12,-153 154.12,-153 184.12,-153 184.12,-153 190.12,-153 196.12,-159 196.12,-165 196.12,-165 196.12,-177 196.12,-177 196.12,-183 190.12,-189 184.12,-189"/>
<text text-anchor="middle" x="169.12" y="-166.72" font-family="Times,serif" font-size="12.00">const 2</text>
</g>
<!-- n9&#45;&gt;n10 -->
<g id="edge9" class="edge">
<title>n9&#45;&gt;n10</title>
<path fill="none" stroke="black" d="M196.37,-171C212.37,-171 233.07,-171 250.79,-171"/>
<polygon fill="black" stroke="black" points="250.69,-174.5 260.69,-171 250.69,-167.5 250.69,-174.5"/>
<text text-anchor="middle" x="234.88" y="-172.75" font-family="Times,serif" font-size="10.00">(0,1)</text>
</g>
<!-- n12 -->
<g id="node13" class="node">
<title>n12</title>
<path fill="none" stroke="black" d="M436,-160C436,-160 383.25,-160 383.25,-160 377.25,-160 371.25,-154 371.25,-148 371.25,-148 371.25,-136 371.25,-136 371.25,-130 377.25,-124 383.25,-124 383.25,-124 436,-124 436,-124 442,-124 448,-130 448,-136 448,-136 448,-148 448,-148 448,-154 442,-160 436,-160"/>
<text text-anchor="middle" x="409.62" y="-137.72" font-family="Times,serif" font-size="12.00">callsnd fib#0</text>
</g>
<!-- n10&#45;&gt;n12 -->
<g id="edge10" class="edge">
<title>n10&#45;&gt;n12</title>
<path fill="none" stroke="black" d="M316.62,-164.56C329.31,-161.45 344.96,-157.61 359.73,-153.99"/>
<polygon fill="black" stroke="black" points="360.44,-157.42 369.32,-151.64 358.77,-150.62 360.44,-157.42"/>
<text text-anchor="middle" x="343.88" y="-161.7" font-family="Times,serif" font-size="10.00">(0,0)</text>
</g>
<!-- n11 -->
<g id="node12" class="node">
<title>n11</title>
<path fill="none" stroke="black" d="M64,-188C64,-188 12,-188 12,-188 6,-188 0,-182 0,-176 0,-176 0,-164 0,-164 0,-158 6,-152 12,-152 12,-152 64,-152 64,-152 70,-152 76,-158 76,-164 76,-164 76,-176 76,-176 76,-182 70,-188 64,-188"/>
<text text-anchor="middle" x="38" y="-165.72" font-family="Times,serif" font-size="12.00">callgroup fib</text>
</g>
<!-- n11&#45;&gt;n12 -->
<g id="edge11" class="edge">
<title>n11&#45;&gt;n12</title>
<path fill="none" stroke="black" d="M76.45,-156.92C92.89,-151.83 112.56,-146.59 130.75,-144 210.34,-132.65 304.06,-135.23 359.79,-138.41"/>
<polygon fill="black" stroke="black" points="359.38,-141.89 369.57,-139 359.8,-134.91 359.38,-141.89"/>
<text text-anchor="middle" x="234.88" y="-138.04" font-family="Times,serif" font-size="10.00">(0,1)</text>
</g>
<!-- n13 -->
<g id="node14" class="node">
<title>n13</title>
<path fill="none" stroke="black" d="M187.25,-243C187.25,-243 151,-243 151,-243 145,-243 139,-237 139,-231 139,-231 139,-219 139,-219 139,-213 145,-207 151,-207 151,-207 187.25,-207 187.25,-207 193.25,-207 199.25,-213 199.25,-219 199.25,-219 199.25,-231 199.25,-231 199.25,-237 193.25,-243 187.25,-243"/>
<text text-anchor="middle" x="169.12" y="-220.72" font-family="Times,serif" font-size="12.00">retsnd fib</text>
</g>
<!-- n11&#45;&gt;n13 -->
<g id="edge12" class="edge">
<title>n11&#45;&gt;n13</title>
<path fill="none" stroke="black" d="M76.35,-185.91C92.6,-192.83 111.67,-200.95 128.2,-208"/>
<polygon fill="black" stroke="black" points="126.68,-211.15 137.25,-211.85 129.42,-204.71 126.68,-211.15"/>
<text text-anchor="middle" x="103.38" y="-202.54" font-family="Times,serif" font-size="10.00">(0,1)</text>
</g>
<!-- n13&#45;&gt;n14 -->
<g id="edge14" class="edge">
<title>n13&#45;&gt;n14</title>
<path fill="none" stroke="black" d="M199.66,-237.24C215.37,-243.75 234.84,-251.82 251.53,-258.73"/>
<polygon fill="black" stroke="black" points="250.06,-261.91 260.64,-262.51 252.74,-255.44 250.06,-261.91"/>
<text text-anchor="middle" x="234.88" y="-257.08" font-family="Times,serif" font-size="10.00">(0,1)</text>
</g>
<!-- n14&#45;&gt;n16 -->
<g id="edge17" class="edge">
<title>n14&#45;&gt;n16</title>
<path fill="none" stroke="black" d="M316.62,-283.32C332.85,-289.09 353.92,-296.57 371.8,-302.92"/>
<polygon fill="black" stroke="black" points="370.43,-306.15 381.03,-306.2 372.78,-299.55 370.43,-306.15"/>
<text text-anchor="middle" x="343.88" y="-298.01" font-family="Times,serif" font-size="10.00">(0,0)</text>
</g>
<!-- n17 -->
<g id="node18" class="node">
<title>n17</title>
<path fill="none" stroke="black" d="M544.75,-361C544.75,-361 514.75,-361 514.75,-361 508.75,-361 502.75,-355 502.75,-349 502.75,-349 502.75,-337 502.75,-337 502.75,-331 508.75,-325 514.75,-325 514.75,-325 544.75,-325 544.75,-325 550.75,-325 556.75,-331 556.75,-337 556.75,-337 556.75,-349 556.75,-349 556.75,-355 550.75,-361 544.75,-361"/>
<text text-anchor="middle" x="529.75" y="-338.73" font-family="Times,serif" font-size="12.00">ret fib</text>
</g>
<!-- n15&#45;&gt;n17 -->
<g id="edge19" class="edge">
<title>n15&#45;&gt;n17</title>
<path fill="none" stroke="black" d="M436.84,-364.01C452.9,-360.34 473.71,-355.58 491.46,-351.52"/>
<polygon fill="black" stroke="black" points="492.16,-354.95 501.13,-349.31 490.6,-348.13 492.16,-354.95"/>
<text text-anchor="middle" x="475.38" y="-359.06" font-family="Times,serif" font-size="10.00">(T,0)</text>
</g>
<!-- n16&#45;&gt;n17 -->
<g id="edge20" class="edge">
<title>n16&#45;&gt;n17</title>
<path fill="none" stroke="black" d="M436.84,-321.99C452.9,-325.66 473.71,-330.42 491.46,-334.48"/>
<polygon fill="black" stroke="black" points="490.6,-337.87 501.13,-336.69 492.16,-331.05 490.6,-337.87"/>
<text text-anchor="middle" x="475.38" y="-334.46" font-family="Times,serif" font-size="10.00">(F,0)</text>
</g>
<!-- n18 -->
<g id="node19" class="node">
<title>n18</title>
<path fill="none" stroke="black" d="M64,-43C64,-43 12,-43 12,-43 6,-43 0,-37 0,-31 0,-31 0,-19 0,-19 0,-13 6,-7 12,-7 12,-7 64,-7 64,-7 70,-7 76,-13 76,-19 76,-19 76,-31 76,-31 76,-37 70,-43 64,-43"/>
<text text-anchor="middle" x="38" y="-20.73" font-family="Times,serif" font-size="12.00">callgroup fib</text>
</g>
<!-- n18&#45;&gt;n19 -->
<g id="edge22" class="edge">
<title>n18&#45;&gt;n19</title>
<path fill="none" stroke="black" d="M76.35,-40.62C90.01,-46.33 105.67,-52.88 120.14,-58.93"/>
<polygon fill="black" stroke="black" points="118.44,-62.02 129.02,-62.65 121.14,-55.56 118.44,-62.02"/>
<text text-anchor="middle" x="103.38" y="-56.98" font-family="Times,serif" font-size="10.00">(0,1)</text>
</g>
<!-- n20 -->
<g id="node21" class="node">
<title>n20</title>
<path fill="none" stroke="black" d="M187.25,-36C187.25,-36 151,-36 151,-36 145,-36 139,-30 139,-24 139,-24 139,-12 139,-12 139,-6 145,0 151,0 151,0 187.25,0 187.25,0 193.25,0 199.25,-6 199.25,-12 199.25,-12 199.25,-24 199.25,-24 199.25,-30 193.25,-36 187.25,-36"/>
<text text-anchor="middle" x="169.12" y="-13.72" font-family="Times,serif" font-size="12.00">retsnd fib</text>
</g>
<!-- n18&#45;&gt;n20 -->
<g id="edge23" class="edge">
<title>n18&#45;&gt;n20</title>
<path fill="none" stroke="black" d="M76.23,-20.24C82.17,-19.64 88.24,-19.11 94,-18.75 104.75,-18.09 116.4,-17.78 127.21,-17.66"/>
<polygon fill="black" stroke="black" points="127.03,-21.16 137.01,-17.61 126.99,-14.16 127.03,-21.16"/>
<text text-anchor="middle" x="103.38" y="-20.5" font-family="Times,serif" font-size="10.00">(0,1)</text>
</g>
<!-- n21 -->
<g id="node22" class="node">
<title>n21</title>
<path fill="none" stroke="black" d="M304.5,-36C304.5,-36 274.25,-36 274.25,-36 268.25,-36 262.25,-30 262.25,-24 262.25,-24 262.25,-12 262.25,-12 262.25,-6 268.25,0 274.25,0 274.25,0 304.5,0 304.5,0 310.5,0 316.5,-6 316.5,-12 316.5,-12 316.5,-24 316.5,-24 316.5,-30 310.5,-36 304.5,-36"/>
<text text-anchor="middle" x="289.38" y="-13.72" font-family="Times,serif" font-size="12.00">ret main</text>
</g>
<!-- n20&#45;&gt;n21 -->
<g id="edge24" class="edge">
<title>n20&#45;&gt;n21</title>
<path fill="none" stroke="black" d="M199.66,-18C215.07,-18 234.1,-18 250.58,-18"/>
<polygon fill="black" stroke="black" points="250.52,-21.5 260.52,-18 250.52,-14.5 250.52,-21.5"/>
<text text-anchor="middle" x="234.88" y="-19.75" font-family="Times,serif" font-size="10.00">(0,0)</text>
</g>
</g>
</svg>
