<?xml version="1.0" encoding="UTF-8" standalone="no"?>
<!DOCTYPE svg PUBLIC "-//W3C//DTD SVG 1.1//EN"
 "http://www.w3.org/Graphics/SVG/1.1/DTD/svg11.dtd">
<!-- Generated by graphviz version 12.2.1 (20241206.2353)
 -->
<!-- Title: G Pages: 1 -->
<svg width="389pt" height="125pt"
 viewBox="0.00 0.00 388.50 125.00" xmlns="http://www.w3.org/2000/svg" xmlns:xlink="http://www.w3.org/1999/xlink">
<g id="graph0" class="graph" transform="scale(1 1) rotate(0) translate(4 121)">
<title>G</title>
<polygon fill="white" stroke="none" points="-4,4 -4,-121 384.5,-121 384.5,4 -4,4"/>
<!-- n0 -->
<g id="node1" class="node">
<title>n0</title>
<path fill="none" stroke="black" d="M150.75,-117C150.75,-117 120.75,-117 120.75,-117 114.75,-117 108.75,-111 108.75,-105 108.75,-105 108.75,-93 108.75,-93 108.75,-87 114.75,-81 120.75,-81 120.75,-81 150.75,-81 150.75,-81 156.75,-81 162.75,-87 162.75,-93 162.75,-93 162.75,-105 162.75,-105 162.75,-111 156.75,-117 150.75,-117"/>
<text text-anchor="middle" x="135.75" y="-94.72" font-family="Times,serif" font-size="12.00">const 2</text>
</g>
<!-- n4 -->
<g id="node5" class="node">
<title>n4</title>
<path fill="none" stroke="black" d="M259.5,-90C259.5,-90 229.5,-90 229.5,-90 223.5,-90 217.5,-84 217.5,-78 217.5,-78 217.5,-66 217.5,-66 217.5,-60 223.5,-54 229.5,-54 229.5,-54 259.5,-54 259.5,-54 265.5,-54 271.5,-60 271.5,-66 271.5,-66 271.5,-78 271.5,-78 271.5,-84 265.5,-90 259.5,-90"/>
<text text-anchor="middle" x="244.5" y="-67.72" font-family="Times,serif" font-size="12.00">+</text>
</g>
<!-- n0&#45;&gt;n4 -->
<g id="edge3" class="edge">
<title>n0&#45;&gt;n4</title>
<path fill="none" stroke="black" d="M163.14,-92.33C176.1,-89.05 191.94,-85.04 206.12,-81.46"/>
<polygon fill="black" stroke="black" points="206.74,-84.91 215.58,-79.06 205.03,-78.12 206.74,-84.91"/>
<text text-anchor="middle" x="190.12" y="-88.87" font-family="Times,serif" font-size="10.00">(0,0)</text>
</g>
<!-- n1 -->
<g id="node2" class="node">
<title>n1</title>
<path fill="none" stroke="black" d="M42,-90C42,-90 12,-90 12,-90 6,-90 0,-84 0,-78 0,-78 0,-66 0,-66 0,-60 6,-54 12,-54 12,-54 42,-54 42,-54 48,-54 54,-60 54,-66 54,-66 54,-78 54,-78 54,-84 48,-90 42,-90"/>
<text text-anchor="middle" x="27" y="-67.72" font-family="Times,serif" font-size="12.00">const 3</text>
</g>
<!-- n3 -->
<g id="node4" class="node">
<title>n3</title>
<path fill="none" stroke="black" d="M150.75,-63C150.75,-63 120.75,-63 120.75,-63 114.75,-63 108.75,-57 108.75,-51 108.75,-51 108.75,-39 108.75,-39 108.75,-33 114.75,-27 120.75,-27 120.75,-27 150.75,-27 150.75,-27 156.75,-27 162.75,-33 162.75,-39 162.75,-39 162.75,-51 162.75,-51 162.75,-57 156.75,-63 150.75,-63"/>
<text text-anchor="middle" x="135.75" y="-40.73" font-family="Times,serif" font-size="12.00">*</text>
</g>
<!-- n1&#45;&gt;n3 -->
<g id="edge1" class="edge">
<title>n1&#45;&gt;n3</title>
<path fill="none" stroke="black" d="M54.39,-65.33C67.35,-62.05 83.19,-58.04 97.37,-54.46"/>
<polygon fill="black" stroke="black" points="97.99,-57.91 106.83,-52.06 96.28,-51.12 97.99,-57.91"/>
<text text-anchor="middle" x="81.38" y="-61.87" font-family="Times,serif" font-size="10.00">(0,0)</text>
</g>
<!-- n2 -->
<g id="node3" class="node">
<title>n2</title>
<path fill="none" stroke="black" d="M42,-36C42,-36 12,-36 12,-36 6,-36 0,-30 0,-24 0,-24 0,-12 0,-12 0,-6 6,0 12,0 12,0 42,0 42,0 48,0 54,-6 54,-12 54,-12 54,-24 54,-24 54,-30 48,-36 42,-36"/>
<text text-anchor="middle" x="27" y="-13.72" font-family="Times,serif" font-size="12.00">const 4</text>
</g>
<!-- n2&#45;&gt;n3 -->
<g id="edge2" class="edge">
<title>n2&#45;&gt;n3</title>
<path fill="none" stroke="black" d="M54.39,-24.67C67.35,-27.95 83.19,-31.96 97.37,-35.54"/>
<polygon fill="black" stroke="black" points="96.28,-38.88 106.83,-37.94 97.99,-32.09 96.28,-38.88"/>
<text text-anchor="middle" x="81.38" y="-34.87" font-family="Times,serif" font-size="10.00">(0,1)</text>
</g>
<!-- n3&#45;&gt;n4 -->
<g id="edge4" class="edge">
<title>n3&#45;&gt;n4</title>
<path fill="none" stroke="black" d="M163.14,-51.67C176.1,-54.95 191.94,-58.96 206.12,-62.54"/>
<polygon fill="black" stroke="black" points="205.03,-65.88 215.58,-64.94 206.74,-59.09 205.03,-65.88"/>
<text text-anchor="middle" x="190.12" y="-61.87" font-family="Times,serif" font-size="10.00">(0,1)</text>
</g>
<!-- n5 -->
<g id="node6" class="node">
<title>n5</title>
<path fill="none" stroke="black" d="M368.5,-90C368.5,-90 338.25,-90 338.25,-90 332.25,-90 326.25,-84 326.25,-78 326.25,-78 326.25,-66 326.25,-66 326.25,-60 332.25,-54 338.25,-54 338.25,-54 368.5,-54 368.5,-54 374.5,-54 380.5,-60 380.5,-66 380.5,-66 380.5,-78 380.5,-78 380.5,-84 374.5,-90 368.5,-90"/>
<text text-anchor="middle" x="353.38" y="-67.72" font-family="Times,serif" font-size="12.00">ret main</text>
</g>
<!-- n4&#45;&gt;n5 -->
<g id="edge5" class="edge">
<title>n4&#45;&gt;n5</title>
<path fill="none" stroke="black" d="M271.92,-72C284.76,-72 300.44,-72 314.53,-72"/>
<polygon fill="black" stroke="black" points="314.38,-75.5 324.38,-72 314.38,-68.5 314.38,-75.5"/>
<text text-anchor="middle" x="298.88" y="-73.75" font-family="Times,serif" font-size="10.00">(0,0)</text>
</g>
</g>
</svg>
