<?xml version="1.0" encoding="UTF-8" standalone="no"?>
<!DOCTYPE svg PUBLIC "-//W3C//DTD SVG 1.1//EN"
 "http://www.w3.org/Graphics/SVG/1.1/DTD/svg11.dtd">
<!-- Generated by graphviz version 12.2.1 (20241206.2353)
 -->
<!-- Title: G Pages: 1 -->
<svg width="334pt" height="220pt"
 viewBox="0.00 0.00 333.50 220.00" xmlns="http://www.w3.org/2000/svg" xmlns:xlink="http://www.w3.org/1999/xlink">
<g id="graph0" class="graph" transform="scale(1 1) rotate(0) translate(4 216)">
<title>G</title>
<polygon fill="white" stroke="none" points="-4,4 -4,-216 329.5,-216 329.5,4 -4,4"/>
<!-- n0 -->
<g id="node1" class="node">
<title>n0</title>
<path fill="none" stroke="black" d="M55.25,-104C55.25,-104 25.25,-104 25.25,-104 19.25,-104 13.25,-98 13.25,-92 13.25,-92 13.25,-80 13.25,-80 13.25,-74 19.25,-68 25.25,-68 25.25,-68 55.25,-68 55.25,-68 61.25,-68 67.25,-74 67.25,-80 67.25,-80 67.25,-92 67.25,-92 67.25,-98 61.25,-104 55.25,-104"/>
<text text-anchor="middle" x="40.25" y="-81.72" font-family="Times,serif" font-size="12.00">const 7</text>
</g>
<!-- n6 -->
<g id="node7" class="node">
<title>n6</title>
<path fill="none" stroke="black" d="M204.5,-97C204.5,-97 147.25,-97 147.25,-97 141.25,-97 135.25,-91 135.25,-85 135.25,-85 135.25,-73 135.25,-73 135.25,-67 141.25,-61 147.25,-61 147.25,-61 204.5,-61 204.5,-61 210.5,-61 216.5,-67 216.5,-73 216.5,-73 216.5,-85 216.5,-85 216.5,-91 210.5,-97 204.5,-97"/>
<text text-anchor="middle" x="175.88" y="-74.72" font-family="Times,serif" font-size="12.00">callsnd neg#0</text>
</g>
<!-- n0&#45;&gt;n6 -->
<g id="edge4" class="edge">
<title>n0&#45;&gt;n6</title>
<path fill="none" stroke="black" d="M67.65,-84.62C83.6,-83.78 104.47,-82.69 123.55,-81.69"/>
<polygon fill="black" stroke="black" points="123.52,-85.2 133.32,-81.18 123.15,-78.2 123.52,-85.2"/>
<text text-anchor="middle" x="107.88" y="-84.67" font-family="Times,serif" font-size="10.00">(0,0)</text>
</g>
<!-- n1 -->
<g id="node2" class="node">
<title>n1</title>
<path fill="none" stroke="black" d="M59.88,-212C59.88,-212 20.62,-212 20.62,-212 14.62,-212 8.62,-206 8.62,-200 8.62,-200 8.62,-188 8.62,-188 8.62,-182 14.62,-176 20.62,-176 20.62,-176 59.88,-176 59.88,-176 65.88,-176 71.88,-182 71.88,-188 71.88,-188 71.88,-200 71.88,-200 71.88,-206 65.88,-212 59.88,-212"/>
<text text-anchor="middle" x="40.25" y="-189.72" font-family="Times,serif" font-size="12.00">arg neg#0</text>
</g>
<!-- n3 -->
<g id="node4" class="node">
<title>n3</title>
<path fill="none" stroke="black" d="M190.88,-158C190.88,-158 160.88,-158 160.88,-158 154.88,-158 148.88,-152 148.88,-146 148.88,-146 148.88,-134 148.88,-134 148.88,-128 154.88,-122 160.88,-122 160.88,-122 190.88,-122 190.88,-122 196.88,-122 202.88,-128 202.88,-134 202.88,-134 202.88,-146 202.88,-146 202.88,-152 196.88,-158 190.88,-158"/>
<text text-anchor="middle" x="175.88" y="-135.72" font-family="Times,serif" font-size="12.00">&#45;</text>
</g>
<!-- n1&#45;&gt;n3 -->
<g id="edge2" class="edge">
<title>n1&#45;&gt;n3</title>
<path fill="none" stroke="black" d="M72.24,-181.48C91.85,-173.55 117.3,-163.27 137.95,-154.92"/>
<polygon fill="black" stroke="black" points="139.19,-158.2 147.15,-151.2 136.57,-151.71 139.19,-158.2"/>
<text text-anchor="middle" x="107.88" y="-171.98" font-family="Times,serif" font-size="10.00">(0,1)</text>
</g>
<!-- n2 -->
<g id="node3" class="node">
<title>n2</title>
<path fill="none" stroke="black" d="M55.25,-158C55.25,-158 25.25,-158 25.25,-158 19.25,-158 13.25,-152 13.25,-146 13.25,-146 13.25,-134 13.25,-134 13.25,-128 19.25,-122 25.25,-122 25.25,-122 55.25,-122 55.25,-122 61.25,-122 67.25,-128 67.25,-134 67.25,-134 67.25,-146 67.25,-146 67.25,-152 61.25,-158 55.25,-158"/>
<text text-anchor="middle" x="40.25" y="-135.72" font-family="Times,serif" font-size="12.00">const 0</text>
</g>
<!-- n2&#45;&gt;n3 -->
<g id="edge1" class="edge">
<title>n2&#45;&gt;n3</title>
<path fill="none" stroke="black" d="M67.65,-140C87.51,-140 114.99,-140 137.17,-140"/>
<polygon fill="black" stroke="black" points="137.02,-143.5 147.02,-140 137.02,-136.5 137.02,-143.5"/>
<text text-anchor="middle" x="107.88" y="-141.75" font-family="Times,serif" font-size="10.00">(0,0)</text>
</g>
<!-- n4 -->
<g id="node5" class="node">
<title>n4</title>
<path fill="none" stroke="black" d="M313.38,-158C313.38,-158 283.38,-158 283.38,-158 277.38,-158 271.38,-152 271.38,-146 271.38,-146 271.38,-134 271.38,-134 271.38,-128 277.38,-122 283.38,-122 283.38,-122 313.38,-122 313.38,-122 319.38,-122 325.38,-128 325.38,-134 325.38,-134 325.38,-146 325.38,-146 325.38,-152 319.38,-158 313.38,-158"/>
<text text-anchor="middle" x="298.38" y="-135.72" font-family="Times,serif" font-size="12.00">ret neg</text>
</g>
<!-- n3&#45;&gt;n4 -->
<g id="edge3" class="edge">
<title>n3&#45;&gt;n4</title>
<path fill="none" stroke="black" d="M203.32,-140C219.8,-140 241.27,-140 259.54,-140"/>
<polygon fill="black" stroke="black" points="259.48,-143.5 269.48,-140 259.48,-136.5 259.48,-143.5"/>
<text text-anchor="middle" x="243.88" y="-141.75" font-family="Times,serif" font-size="10.00">(0,0)</text>
</g>
<!-- n5 -->
<g id="node6" class="node">
<title>n5</title>
<path fill="none" stroke="black" d="M68.5,-43C68.5,-43 12,-43 12,-43 6,-43 0,-37 0,-31 0,-31 0,-19 0,-19 0,-13 6,-7 12,-7 12,-7 68.5,-7 68.5,-7 74.5,-7 80.5,-13 80.5,-19 80.5,-19 80.5,-31 80.5,-31 80.5,-37 74.5,-43 68.5,-43"/>
<text text-anchor="middle" x="40.25" y="-20.73" font-family="Times,serif" font-size="12.00">callgroup neg</text>
</g>
<!-- n5&#45;&gt;n6 -->
<g id="edge5" class="edge">
<title>n5&#45;&gt;n6</title>
<path fill="none" stroke="black" d="M80.98,-41.06C94.72,-46.61 110.31,-52.91 124.77,-58.75"/>
<polygon fill="black" stroke="black" points="123.08,-61.84 133.66,-62.35 125.7,-55.35 123.08,-61.84"/>
<text text-anchor="middle" x="107.88" y="-56.98" font-family="Times,serif" font-size="10.00">(0,1)</text>
</g>
<!-- n7 -->
<g id="node8" class="node">
<title>n7</title>
<path fill="none" stroke="black" d="M196.25,-36C196.25,-36 155.5,-36 155.5,-36 149.5,-36 143.5,-30 143.5,-24 143.5,-24 143.5,-12 143.5,-12 143.5,-6 149.5,0 155.5,0 155.5,0 196.25,0 196.25,0 202.25,0 208.25,-6 208.25,-12 208.25,-12 208.25,-24 208.25,-24 208.25,-30 202.25,-36 196.25,-36"/>
<text text-anchor="middle" x="175.88" y="-13.72" font-family="Times,serif" font-size="12.00">retsnd neg</text>
</g>
<!-- n5&#45;&gt;n7 -->
<g id="edge6" class="edge">
<title>n5&#45;&gt;n7</title>
<path fill="none" stroke="black" d="M80.94,-20.15C86.82,-19.58 92.81,-19.09 98.5,-18.75 109.29,-18.11 120.95,-17.8 131.84,-17.68"/>
<polygon fill="black" stroke="black" points="131.77,-21.18 141.75,-17.62 131.73,-14.18 131.77,-21.18"/>
<text text-anchor="middle" x="107.88" y="-20.5" font-family="Times,serif" font-size="10.00">(0,1)</text>
</g>
<!-- n8 -->
<g id="node9" class="node">
<title>n8</title>
<path fill="none" stroke="black" d="M313.5,-36C313.5,-36 283.25,-36 283.25,-36 277.25,-36 271.25,-30 271.25,-24 271.25,-24 271.25,-12 271.25,-12 271.25,-6 277.25,0 283.25,0 283.25,0 313.5,0 313.5,0 319.5,0 325.5,-6 325.5,-12 325.5,-12 325.5,-24 325.5,-24 325.5,-30 319.5,-36 313.5,-36"/>
<text text-anchor="middle" x="298.38" y="-13.72" font-family="Times,serif" font-size="12.00">ret main</text>
</g>
<!-- n7&#45;&gt;n8 -->
<g id="edge7" class="edge">
<title>n7&#45;&gt;n8</title>
<path fill="none" stroke="black" d="M208.53,-18C224.13,-18 243.06,-18 259.43,-18"/>
<polygon fill="black" stroke="black" points="259.3,-21.5 269.3,-18 259.3,-14.5 259.3,-21.5"/>
<text text-anchor="middle" x="243.88" y="-19.75" font-family="Times,serif" font-size="10.00">(0,0)</text>
</g>
</g>
</svg>
