<?xml version="1.0" encoding="UTF-8" standalone="no"?>
<!DOCTYPE svg PUBLIC "-//W3C//DTD SVG 1.1//EN"
 "http://www.w3.org/Graphics/SVG/1.1/DTD/svg11.dtd">
<!-- Generated by graphviz version 12.2.1 (20241206.2353)
 -->
<!-- Title: G Pages: 1 -->
<svg width="389pt" height="98pt"
 viewBox="0.00 0.00 388.50 98.00" xmlns="http://www.w3.org/2000/svg" xmlns:xlink="http://www.w3.org/1999/xlink">
<g id="graph0" class="graph" transform="scale(1 1) rotate(0) translate(4 94)">
<title>G</title>
<polygon fill="white" stroke="none" points="-4,4 -4,-94 384.5,-94 384.5,4 -4,4"/>
<!-- n0 -->
<g id="node1" class="node">
<title>n0</title>
<path fill="none" stroke="black" d="M42,-90C42,-90 12,-90 12,-90 6,-90 0,-84 0,-78 0,-78 0,-66 0,-66 0,-60 6,-54 12,-54 12,-54 42,-54 42,-54 48,-54 54,-60 54,-66 54,-66 54,-78 54,-78 54,-84 48,-90 42,-90"/>
<text text-anchor="middle" x="27" y="-67.72" font-family="Times,serif" font-size="12.00">const 1</text>
</g>
<!-- n2 -->
<g id="node3" class="node">
<title>n2</title>
<path fill="none" stroke="black" d="M150.75,-63C150.75,-63 120.75,-63 120.75,-63 114.75,-63 108.75,-57 108.75,-51 108.75,-51 108.75,-39 108.75,-39 108.75,-33 114.75,-27 120.75,-27 120.75,-27 150.75,-27 150.75,-27 156.75,-27 162.75,-33 162.75,-39 162.75,-39 162.75,-51 162.75,-51 162.75,-57 156.75,-63 150.75,-63"/>
<text text-anchor="middle" x="135.75" y="-40.73" font-family="Times,serif" font-size="12.00">+</text>
</g>
<!-- n0&#45;&gt;n2 -->
<g id="edge1" class="edge">
<title>n0&#45;&gt;n2</title>
<path fill="none" stroke="black" d="M54.39,-65.33C67.35,-62.05 83.19,-58.04 97.37,-54.46"/>
<polygon fill="black" stroke="black" points="97.99,-57.91 106.83,-52.06 96.28,-51.12 97.99,-57.91"/>
<text text-anchor="middle" x="81.38" y="-61.87" font-family="Times,serif" font-size="10.00">(0,0)</text>
</g>
<!-- n1 -->
<g id="node2" class="node">
<title>n1</title>
<path fill="none" stroke="black" d="M42,-36C42,-36 12,-36 12,-36 6,-36 0,-30 0,-24 0,-24 0,-12 0,-12 0,-6 6,0 12,0 12,0 42,0 42,0 48,0 54,-6 54,-12 54,-12 54,-24 54,-24 54,-30 48,-36 42,-36"/>
<text text-anchor="middle" x="27" y="-13.72" font-family="Times,serif" font-size="12.00">const 2</text>
</g>
<!-- n1&#45;&gt;n2 -->
<g id="edge2" class="edge">
<title>n1&#45;&gt;n2</title>
<path fill="none" stroke="black" d="M54.39,-24.67C67.35,-27.95 83.19,-31.96 97.37,-35.54"/>
<polygon fill="black" stroke="black" points="96.28,-38.88 106.83,-37.94 97.99,-32.09 96.28,-38.88"/>
<text text-anchor="middle" x="81.38" y="-34.87" font-family="Times,serif" font-size="10.00">(0,1)</text>
</g>
<!-- n3 -->
<g id="node4" class="node">
<title>n3</title>
<path fill="none" stroke="black" d="M259.5,-63C259.5,-63 229.5,-63 229.5,-63 223.5,-63 217.5,-57 217.5,-51 217.5,-51 217.5,-39 217.5,-39 217.5,-33 223.5,-27 229.5,-27 229.5,-27 259.5,-27 259.5,-27 265.5,-27 271.5,-33 271.5,-39 271.5,-39 271.5,-51 271.5,-51 271.5,-57 265.5,-63 259.5,-63"/>
<text text-anchor="middle" x="244.5" y="-40.73" font-family="Times,serif" font-size="12.00">*</text>
</g>
<!-- n2&#45;&gt;n3 -->
<g id="edge3" class="edge">
<title>n2&#45;&gt;n3</title>
<path fill="none" stroke="black" d="M163.14,-45C175.97,-45 191.62,-45 205.69,-45"/>
<polygon fill="black" stroke="black" points="205.53,-48.5 215.53,-45 205.53,-41.5 205.53,-48.5"/>
<text text-anchor="middle" x="190.12" y="-46.75" font-family="Times,serif" font-size="10.00">(0,0)</text>
</g>
<!-- n2&#45;&gt;n3 -->
<g id="edge4" class="edge">
<title>n2&#45;&gt;n3</title>
<path fill="none" stroke="black" d="M162.9,-34.34C168.68,-32.44 174.85,-30.74 180.75,-29.75 189.03,-28.35 197.85,-29.08 206.17,-30.81"/>
<polygon fill="black" stroke="black" points="205.09,-34.15 215.65,-33.3 206.86,-27.38 205.09,-34.15"/>
<text text-anchor="middle" x="190.12" y="-31.5" font-family="Times,serif" font-size="10.00">(0,1)</text>
</g>
<!-- n4 -->
<g id="node5" class="node">
<title>n4</title>
<path fill="none" stroke="black" d="M368.5,-63C368.5,-63 338.25,-63 338.25,-63 332.25,-63 326.25,-57 326.25,-51 326.25,-51 326.25,-39 326.25,-39 326.25,-33 332.25,-27 338.25,-27 338.25,-27 368.5,-27 368.5,-27 374.5,-27 380.5,-33 380.5,-39 380.5,-39 380.5,-51 380.5,-51 380.5,-57 374.5,-63 368.5,-63"/>
<text text-anchor="middle" x="353.38" y="-40.73" font-family="Times,serif" font-size="12.00">ret main</text>
</g>
<!-- n3&#45;&gt;n4 -->
<g id="edge5" class="edge">
<title>n3&#45;&gt;n4</title>
<path fill="none" stroke="black" d="M271.92,-45C284.76,-45 300.44,-45 314.53,-45"/>
<polygon fill="black" stroke="black" points="314.38,-48.5 324.38,-45 314.38,-41.5 314.38,-48.5"/>
<text text-anchor="middle" x="298.88" y="-46.75" font-family="Times,serif" font-size="10.00">(0,0)</text>
</g>
</g>
</svg>
