<?xml version="1.0" encoding="UTF-8" standalone="no"?>
<!DOCTYPE svg PUBLIC "-//W3C//DTD SVG 1.1//EN"
 "http://www.w3.org/Graphics/SVG/1.1/DTD/svg11.dtd">
<!-- Generated by graphviz version 12.2.1 (20241206.2353)
 -->
<!-- Title: G Pages: 1 -->
<svg width="687pt" height="389pt"
 viewBox="0.00 0.00 686.75 389.00" xmlns="http://www.w3.org/2000/svg" xmlns:xlink="http://www.w3.org/1999/xlink">
<g id="graph0" class="graph" transform="scale(1 1) rotate(0) translate(4 385)">
<title>G</title>
<polygon fill="white" stroke="none" points="-4,4 -4,-385 682.75,-385 682.75,4 -4,4"/>
<!-- n0 -->
<g id="node1" class="node">
<title>n0</title>
<path fill="none" stroke="black" d="M55.25,-104C55.25,-104 25.25,-104 25.25,-104 19.25,-104 13.25,-98 13.25,-92 13.25,-92 13.25,-80 13.25,-80 13.25,-74 19.25,-68 25.25,-68 25.25,-68 55.25,-68 55.25,-68 61.25,-68 67.25,-74 67.25,-80 67.25,-80 67.25,-92 67.25,-92 67.25,-98 61.25,-104 55.25,-104"/>
<text text-anchor="middle" x="40.25" y="-81.72" font-family="Times,serif" font-size="12.00">const 5</text>
</g>
<!-- n19 -->
<g id="node20" class="node">
<title>n19</title>
<path fill="none" stroke="black" d="M204.5,-97C204.5,-97 147.25,-97 147.25,-97 141.25,-97 135.25,-91 135.25,-85 135.25,-85 135.25,-73 135.25,-73 135.25,-67 141.25,-61 147.25,-61 147.25,-61 204.5,-61 204.5,-61 210.5,-61 216.5,-67 216.5,-73 216.5,-73 216.5,-85 216.5,-85 216.5,-91 210.5,-97 204.5,-97"/>
<text text-anchor="middle" x="175.88" y="-74.72" font-family="Times,serif" font-size="12.00">callsnd fact#0</text>
</g>
<!-- n0&#45;&gt;n19 -->
<g id="edge22" class="edge">
<title>n0&#45;&gt;n19</title>
<path fill="none" stroke="black" d="M67.65,-84.62C83.6,-83.78 104.47,-82.69 123.55,-81.69"/>
<polygon fill="black" stroke="black" points="123.52,-85.2 133.32,-81.18 123.15,-78.2 123.52,-85.2"/>
<text text-anchor="middle" x="107.88" y="-84.67" font-family="Times,serif" font-size="10.00">(0,0)</text>
</g>
<!-- n1 -->
<g id="node2" class="node">
<title>n1</title>
<path fill="none" stroke="black" d="M59.88,-276C59.88,-276 20.62,-276 20.62,-276 14.62,-276 8.62,-270 8.62,-264 8.62,-264 8.62,-252 8.62,-252 8.62,-246 14.62,-240 20.62,-240 20.62,-240 59.88,-240 59.88,-240 65.88,-240 71.88,-246 71.88,-252 71.88,-252 71.88,-264 71.88,-264 71.88,-270 65.88,-276 59.88,-276"/>
<text text-anchor="middle" x="40.25" y="-253.72" font-family="Times,serif" font-size="12.00">arg fact#0</text>
</g>
<!-- n3 -->
<g id="node4" class="node">
<title>n3</title>
<path fill="none" stroke="black" d="M190.88,-327C190.88,-327 160.88,-327 160.88,-327 154.88,-327 148.88,-321 148.88,-315 148.88,-315 148.88,-303 148.88,-303 148.88,-297 154.88,-291 160.88,-291 160.88,-291 190.88,-291 190.88,-291 196.88,-291 202.88,-297 202.88,-303 202.88,-303 202.88,-315 202.88,-315 202.88,-321 196.88,-327 190.88,-327"/>
<text text-anchor="middle" x="175.88" y="-304.73" font-family="Times,serif" font-size="12.00">&lt;</text>
</g>
<!-- n1&#45;&gt;n3 -->
<g id="edge1" class="edge">
<title>n1&#45;&gt;n3</title>
<path fill="none" stroke="black" d="M72.24,-262.52C86.29,-265.14 102.93,-269.09 117.25,-274.75 124.45,-277.6 131.8,-281.28 138.73,-285.16"/>
<polygon fill="black" stroke="black" points="136.83,-288.11 147.22,-290.17 140.38,-282.08 136.83,-288.11"/>
<text text-anchor="middle" x="107.88" y="-276.5" font-family="Times,serif" font-size="10.00">(0,0)</text>
</g>
<!-- n4 -->
<g id="node5" class="node">
<title>n4</title>
<path fill="none" stroke="black" d="M190.88,-381C190.88,-381 160.88,-381 160.88,-381 154.88,-381 148.88,-375 148.88,-369 148.88,-369 148.88,-357 148.88,-357 148.88,-351 154.88,-345 160.88,-345 160.88,-345 190.88,-345 190.88,-345 196.88,-345 202.88,-351 202.88,-357 202.88,-357 202.88,-369 202.88,-369 202.88,-375 196.88,-381 190.88,-381"/>
<text text-anchor="middle" x="175.88" y="-358.73" font-family="Times,serif" font-size="12.00">==</text>
</g>
<!-- n1&#45;&gt;n4 -->
<g id="edge3" class="edge">
<title>n1&#45;&gt;n4</title>
<path fill="none" stroke="black" d="M67.93,-276.32C82.98,-287.13 101.81,-301.45 117.25,-315.75 126.09,-323.93 126.21,-328.05 135.25,-336 136.67,-337.25 138.15,-338.48 139.66,-339.71"/>
<polygon fill="black" stroke="black" points="137.31,-342.32 147.4,-345.54 141.53,-336.73 137.31,-342.32"/>
<text text-anchor="middle" x="107.88" y="-317.5" font-family="Times,serif" font-size="10.00">(0,0)</text>
</g>
<!-- n10 -->
<g id="node11" class="node">
<title>n10</title>
<path fill="none" stroke="black" d="M190.88,-158C190.88,-158 160.88,-158 160.88,-158 154.88,-158 148.88,-152 148.88,-146 148.88,-146 148.88,-134 148.88,-134 148.88,-128 154.88,-122 160.88,-122 160.88,-122 190.88,-122 190.88,-122 196.88,-122 202.88,-128 202.88,-134 202.88,-134 202.88,-146 202.88,-146 202.88,-152 196.88,-158 190.88,-158"/>
<text text-anchor="middle" x="175.88" y="-135.72" font-family="Times,serif" font-size="12.00">&#45;</text>
</g>
<!-- n1&#45;&gt;n10 -->
<g id="edge9" class="edge">
<title>n1&#45;&gt;n10</title>
<path fill="none" stroke="black" d="M58.43,-239.6C76.66,-220.51 106.72,-190.24 135.25,-167 136.54,-165.95 137.87,-164.9 139.23,-163.85"/>
<polygon fill="black" stroke="black" points="141.21,-166.74 147.19,-158 137.06,-161.1 141.21,-166.74"/>
<text text-anchor="middle" x="107.88" y="-199.69" font-family="Times,serif" font-size="10.00">(0,0)</text>
</g>
<!-- n14 -->
<g id="node15" class="node">
<title>n14</title>
<path fill="none" stroke="black" d="M449.25,-257C449.25,-257 419.25,-257 419.25,-257 413.25,-257 407.25,-251 407.25,-245 407.25,-245 407.25,-233 407.25,-233 407.25,-227 413.25,-221 419.25,-221 419.25,-221 449.25,-221 449.25,-221 455.25,-221 461.25,-227 461.25,-233 461.25,-233 461.25,-245 461.25,-245 461.25,-251 455.25,-257 449.25,-257"/>
<text text-anchor="middle" x="434.25" y="-234.72" font-family="Times,serif" font-size="12.00">*</text>
</g>
<!-- n1&#45;&gt;n14 -->
<g id="edge14" class="edge">
<title>n1&#45;&gt;n14</title>
<path fill="none" stroke="black" d="M72.34,-256.49C143.65,-253.04 318.76,-244.55 395.82,-240.81"/>
<polygon fill="black" stroke="black" points="395.55,-244.33 405.37,-240.35 395.21,-237.34 395.55,-244.33"/>
<text text-anchor="middle" x="243.88" y="-250.25" font-family="Times,serif" font-size="10.00">(0,0)</text>
</g>
<!-- n2 -->
<g id="node3" class="node">
<title>n2</title>
<path fill="none" stroke="black" d="M55.25,-377C55.25,-377 25.25,-377 25.25,-377 19.25,-377 13.25,-371 13.25,-365 13.25,-365 13.25,-353 13.25,-353 13.25,-347 19.25,-341 25.25,-341 25.25,-341 55.25,-341 55.25,-341 61.25,-341 67.25,-347 67.25,-353 67.25,-353 67.25,-365 67.25,-365 67.25,-371 61.25,-377 55.25,-377"/>
<text text-anchor="middle" x="40.25" y="-354.73" font-family="Times,serif" font-size="12.00">const 1</text>
</g>
<!-- n2&#45;&gt;n3 -->
<g id="edge2" class="edge">
<title>n2&#45;&gt;n3</title>
<path fill="none" stroke="black" d="M67.65,-349.12C87.69,-341.62 115.5,-331.22 137.78,-322.88"/>
<polygon fill="black" stroke="black" points="138.97,-326.17 147.11,-319.39 136.52,-319.61 138.97,-326.17"/>
<text text-anchor="middle" x="107.88" y="-338.74" font-family="Times,serif" font-size="10.00">(0,1)</text>
</g>
<!-- n2&#45;&gt;n4 -->
<g id="edge4" class="edge">
<title>n2&#45;&gt;n4</title>
<path fill="none" stroke="black" d="M67.65,-359.79C87.51,-360.38 114.99,-361.21 137.17,-361.87"/>
<polygon fill="black" stroke="black" points="136.92,-365.37 147.02,-362.17 137.13,-358.37 136.92,-365.37"/>
<text text-anchor="middle" x="107.88" y="-362.99" font-family="Times,serif" font-size="10.00">(0,1)</text>
</g>
<!-- n5 -->
<g id="node6" class="node">
<title>n5</title>
<path fill="none" stroke="black" d="M326.88,-363C326.88,-363 296.88,-363 296.88,-363 290.88,-363 284.88,-357 284.88,-351 284.88,-351 284.88,-339 284.88,-339 284.88,-333 290.88,-327 296.88,-327 296.88,-327 326.88,-327 326.88,-327 332.88,-327 338.88,-333 338.88,-339 338.88,-339 338.88,-351 338.88,-351 338.88,-357 332.88,-363 326.88,-363"/>
<text text-anchor="middle" x="311.88" y="-340.73" font-family="Times,serif" font-size="12.00">+</text>
</g>
<!-- n3&#45;&gt;n5 -->
<g id="edge5" class="edge">
<title>n3&#45;&gt;n5</title>
<path fill="none" stroke="black" d="M203.35,-316.11C223.35,-321.49 251.08,-328.94 273.37,-334.92"/>
<polygon fill="black" stroke="black" points="272.43,-338.3 282.99,-337.51 274.24,-331.53 272.43,-338.3"/>
<text text-anchor="middle" x="243.88" y="-330.91" font-family="Times,serif" font-size="10.00">(0,0)</text>
</g>
<!-- n4&#45;&gt;n5 -->
<g id="edge6" class="edge">
<title>n4&#45;&gt;n5</title>
<path fill="none" stroke="black" d="M203.35,-359.44C223.26,-356.77 250.83,-353.07 273.06,-350.08"/>
<polygon fill="black" stroke="black" points="273.51,-353.55 282.96,-348.75 272.58,-346.61 273.51,-353.55"/>
<text text-anchor="middle" x="243.88" y="-356.83" font-family="Times,serif" font-size="10.00">(0,1)</text>
</g>
<!-- n7 -->
<g id="node8" class="node">
<title>n7</title>
<path fill="none" stroke="black" d="M449.25,-311C449.25,-311 419.25,-311 419.25,-311 413.25,-311 407.25,-305 407.25,-299 407.25,-299 407.25,-287 407.25,-287 407.25,-281 413.25,-275 419.25,-275 419.25,-275 449.25,-275 449.25,-275 455.25,-275 461.25,-281 461.25,-287 461.25,-287 461.25,-299 461.25,-299 461.25,-305 455.25,-311 449.25,-311"/>
<text text-anchor="middle" x="434.25" y="-288.73" font-family="Times,serif" font-size="12.00">&gt;</text>
</g>
<!-- n5&#45;&gt;n7 -->
<g id="edge7" class="edge">
<title>n5&#45;&gt;n7</title>
<path fill="none" stroke="black" d="M339.29,-333.59C356.07,-326.34 378.02,-316.86 396.49,-308.88"/>
<polygon fill="black" stroke="black" points="397.71,-312.16 405.51,-304.99 394.94,-305.74 397.71,-312.16"/>
<text text-anchor="middle" x="379.88" y="-320.75" font-family="Times,serif" font-size="10.00">(0,0)</text>
</g>
<!-- n6 -->
<g id="node7" class="node">
<title>n6</title>
<path fill="none" stroke="black" d="M326.88,-309C326.88,-309 296.88,-309 296.88,-309 290.88,-309 284.88,-303 284.88,-297 284.88,-297 284.88,-285 284.88,-285 284.88,-279 290.88,-273 296.88,-273 296.88,-273 326.88,-273 326.88,-273 332.88,-273 338.88,-279 338.88,-285 338.88,-285 338.88,-297 338.88,-297 338.88,-303 332.88,-309 326.88,-309"/>
<text text-anchor="middle" x="311.88" y="-286.73" font-family="Times,serif" font-size="12.00">const 0</text>
</g>
<!-- n6&#45;&gt;n7 -->
<g id="edge8" class="edge">
<title>n6&#45;&gt;n7</title>
<path fill="none" stroke="black" d="M339.29,-291.44C355.76,-291.71 377.2,-292.07 395.45,-292.37"/>
<polygon fill="black" stroke="black" points="395.32,-295.87 405.38,-292.54 395.44,-288.87 395.32,-295.87"/>
<text text-anchor="middle" x="379.88" y="-293.99" font-family="Times,serif" font-size="10.00">(0,1)</text>
</g>
<!-- n15 -->
<g id="node16" class="node">
<title>n15</title>
<path fill="none" stroke="black" d="M558,-340C558,-340 528,-340 528,-340 522,-340 516,-334 516,-328 516,-328 516,-316 516,-316 516,-310 522,-304 528,-304 528,-304 558,-304 558,-304 564,-304 570,-310 570,-316 570,-316 570,-328 570,-328 570,-334 564,-340 558,-340"/>
<text text-anchor="middle" x="543" y="-317.73" font-family="Times,serif" font-size="12.00">steer</text>
</g>
<!-- n7&#45;&gt;n15 -->
<g id="edge17" class="edge">
<title>n7&#45;&gt;n15</title>
<path fill="none" stroke="black" d="M461.64,-300.17C474.6,-303.69 490.44,-307.99 504.62,-311.84"/>
<polygon fill="black" stroke="black" points="503.52,-315.17 514.09,-314.42 505.35,-308.42 503.52,-315.17"/>
<text text-anchor="middle" x="488.62" y="-310.99" font-family="Times,serif" font-size="10.00">(0,1)</text>
</g>
<!-- n16 -->
<g id="node17" class="node">
<title>n16</title>
<path fill="none" stroke="black" d="M558,-286C558,-286 528,-286 528,-286 522,-286 516,-280 516,-274 516,-274 516,-262 516,-262 516,-256 522,-250 528,-250 528,-250 558,-250 558,-250 564,-250 570,-256 570,-262 570,-262 570,-274 570,-274 570,-280 564,-286 558,-286"/>
<text text-anchor="middle" x="543" y="-263.73" font-family="Times,serif" font-size="12.00">steer</text>
</g>
<!-- n7&#45;&gt;n16 -->
<g id="edge19" class="edge">
<title>n7&#45;&gt;n16</title>
<path fill="none" stroke="black" d="M461.6,-283.79C467.37,-281.96 473.48,-280.17 479.25,-278.75 487.27,-276.77 495.96,-275.04 504.25,-273.56"/>
<polygon fill="black" stroke="black" points="504.79,-277.02 514.08,-271.92 503.64,-270.12 504.79,-277.02"/>
<text text-anchor="middle" x="488.62" y="-280.5" font-family="Times,serif" font-size="10.00">(0,1)</text>
</g>
<!-- n8 -->
<g id="node9" class="node">
<title>n8</title>
<path fill="none" stroke="black" d="M449.25,-365C449.25,-365 419.25,-365 419.25,-365 413.25,-365 407.25,-359 407.25,-353 407.25,-353 407.25,-341 407.25,-341 407.25,-335 413.25,-329 419.25,-329 419.25,-329 449.25,-329 449.25,-329 455.25,-329 461.25,-335 461.25,-341 461.25,-341 461.25,-353 461.25,-353 461.25,-359 455.25,-365 449.25,-365"/>
<text text-anchor="middle" x="434.25" y="-342.73" font-family="Times,serif" font-size="12.00">const 1</text>
</g>
<!-- n8&#45;&gt;n15 -->
<g id="edge16" class="edge">
<title>n8&#45;&gt;n15</title>
<path fill="none" stroke="black" d="M461.64,-340.82C474.6,-337.79 490.44,-334.08 504.62,-330.76"/>
<polygon fill="black" stroke="black" points="505.13,-334.23 514.07,-328.54 503.54,-327.41 505.13,-334.23"/>
<text text-anchor="middle" x="488.62" y="-337.75" font-family="Times,serif" font-size="10.00">(0,0)</text>
</g>
<!-- n9 -->
<g id="node10" class="node">
<title>n9</title>
<path fill="none" stroke="black" d="M55.25,-158C55.25,-158 25.25,-158 25.25,-158 19.25,-158 13.25,-152 13.25,-146 13.25,-146 13.25,-134 13.25,-134 13.25,-128 19.25,-122 25.25,-122 25.25,-122 55.25,-122 55.25,-122 61.25,-122 67.25,-128 67.25,-134 67.25,-134 67.25,-146 67.25,-146 67.25,-152 61.25,-158 55.25,-158"/>
<text text-anchor="middle" x="40.25" y="-135.72" font-family="Times,serif" font-size="12.00">const 1</text>
</g>
<!-- n9&#45;&gt;n10 -->
<g id="edge10" class="edge">
<title>n9&#45;&gt;n10</title>
<path fill="none" stroke="black" d="M67.65,-140C87.51,-140 114.99,-140 137.17,-140"/>
<polygon fill="black" stroke="black" points="137.02,-143.5 147.02,-140 137.02,-136.5 137.02,-143.5"/>
<text text-anchor="middle" x="107.88" y="-141.75" font-family="Times,serif" font-size="10.00">(0,1)</text>
</g>
<!-- n12 -->
<g id="node13" class="node">
<title>n12</title>
<path fill="none" stroke="black" d="M340.5,-158C340.5,-158 283.25,-158 283.25,-158 277.25,-158 271.25,-152 271.25,-146 271.25,-146 271.25,-134 271.25,-134 271.25,-128 277.25,-122 283.25,-122 283.25,-122 340.5,-122 340.5,-122 346.5,-122 352.5,-128 352.5,-134 352.5,-134 352.5,-146 352.5,-146 352.5,-152 346.5,-158 340.5,-158"/>
<text text-anchor="middle" x="311.88" y="-135.72" font-family="Times,serif" font-size="12.00">callsnd fact#0</text>
</g>
<!-- n10&#45;&gt;n12 -->
<g id="edge11" class="edge">
<title>n10&#45;&gt;n12</title>
<path fill="none" stroke="black" d="M203.36,-136.06C218.05,-134.32 236.64,-132.85 253.25,-133.75 255.31,-133.86 257.41,-133.99 259.52,-134.15"/>
<polygon fill="black" stroke="black" points="259.17,-137.63 269.42,-134.98 259.75,-130.65 259.17,-137.63"/>
<text text-anchor="middle" x="243.88" y="-135.5" font-family="Times,serif" font-size="10.00">(0,0)</text>
</g>
<!-- n11 -->
<g id="node12" class="node">
<title>n11</title>
<path fill="none" stroke="black" d="M204.12,-212C204.12,-212 147.62,-212 147.62,-212 141.62,-212 135.62,-206 135.62,-200 135.62,-200 135.62,-188 135.62,-188 135.62,-182 141.62,-176 147.62,-176 147.62,-176 204.12,-176 204.12,-176 210.12,-176 216.12,-182 216.12,-188 216.12,-188 216.12,-200 216.12,-200 216.12,-206 210.12,-212 204.12,-212"/>
<text text-anchor="middle" x="175.88" y="-189.72" font-family="Times,serif" font-size="12.00">callgroup fact</text>
</g>
<!-- n11&#45;&gt;n12 -->
<g id="edge12" class="edge">
<title>n11&#45;&gt;n12</title>
<path fill="none" stroke="black" d="M216.35,-178.09C230.15,-172.53 245.82,-166.22 260.38,-160.35"/>
<polygon fill="black" stroke="black" points="261.38,-163.72 269.35,-156.74 258.76,-157.23 261.38,-163.72"/>
<text text-anchor="middle" x="243.88" y="-171.98" font-family="Times,serif" font-size="10.00">(0,1)</text>
</g>
<!-- n13 -->
<g id="node14" class="node">
<title>n13</title>
<path fill="none" stroke="black" d="M332.25,-213C332.25,-213 291.5,-213 291.5,-213 285.5,-213 279.5,-207 279.5,-201 279.5,-201 279.5,-189 279.5,-189 279.5,-183 285.5,-177 291.5,-177 291.5,-177 332.25,-177 332.25,-177 338.25,-177 344.25,-183 344.25,-189 344.25,-189 344.25,-201 344.25,-201 344.25,-207 338.25,-213 332.25,-213"/>
<text text-anchor="middle" x="311.88" y="-190.72" font-family="Times,serif" font-size="12.00">retsnd fact</text>
</g>
<!-- n11&#45;&gt;n13 -->
<g id="edge13" class="edge">
<title>n11&#45;&gt;n13</title>
<path fill="none" stroke="black" d="M216.35,-194.29C232.66,-194.42 251.6,-194.56 268.23,-194.68"/>
<polygon fill="black" stroke="black" points="267.77,-198.18 277.8,-194.75 267.82,-191.18 267.77,-198.18"/>
<text text-anchor="middle" x="243.88" y="-196.31" font-family="Times,serif" font-size="10.00">(0,1)</text>
</g>
<!-- n13&#45;&gt;n14 -->
<g id="edge15" class="edge">
<title>n13&#45;&gt;n14</title>
<path fill="none" stroke="black" d="M344.6,-201.95C358.53,-205.43 374.93,-210.1 389.25,-215.75 391.76,-216.74 394.31,-217.83 396.86,-218.99"/>
<polygon fill="black" stroke="black" points="395.29,-222.12 405.81,-223.35 398.35,-215.83 395.29,-222.12"/>
<text text-anchor="middle" x="379.88" y="-217.5" font-family="Times,serif" font-size="10.00">(0,1)</text>
</g>
<!-- n14&#45;&gt;n16 -->
<g id="edge18" class="edge">
<title>n14&#45;&gt;n16</title>
<path fill="none" stroke="black" d="M461.64,-246.17C474.6,-249.69 490.44,-253.99 504.62,-257.84"/>
<polygon fill="black" stroke="black" points="503.52,-261.17 514.09,-260.42 505.35,-254.42 503.52,-261.17"/>
<text text-anchor="middle" x="488.62" y="-256.99" font-family="Times,serif" font-size="10.00">(0,0)</text>
</g>
<!-- n17 -->
<g id="node18" class="node">
<title>n17</title>
<path fill="none" stroke="black" d="M666.75,-313C666.75,-313 636.75,-313 636.75,-313 630.75,-313 624.75,-307 624.75,-301 624.75,-301 624.75,-289 624.75,-289 624.75,-283 630.75,-277 636.75,-277 636.75,-277 666.75,-277 666.75,-277 672.75,-277 678.75,-283 678.75,-289 678.75,-289 678.75,-301 678.75,-301 678.75,-307 672.75,-313 666.75,-313"/>
<text text-anchor="middle" x="651.75" y="-290.73" font-family="Times,serif" font-size="12.00">ret fact</text>
</g>
<!-- n15&#45;&gt;n17 -->
<g id="edge20" class="edge">
<title>n15&#45;&gt;n17</title>
<path fill="none" stroke="black" d="M570.39,-315.33C583.35,-312.05 599.19,-308.04 613.37,-304.46"/>
<polygon fill="black" stroke="black" points="613.99,-307.91 622.83,-302.06 612.28,-301.12 613.99,-307.91"/>
<text text-anchor="middle" x="597.38" y="-311.87" font-family="Times,serif" font-size="10.00">(T,0)</text>
</g>
<!-- n16&#45;&gt;n17 -->
<g id="edge21" class="edge">
<title>n16&#45;&gt;n17</title>
<path fill="none" stroke="black" d="M570.39,-274.67C583.35,-277.95 599.19,-281.96 613.37,-285.54"/>
<polygon fill="black" stroke="black" points="612.28,-288.88 622.83,-287.94 613.99,-282.09 612.28,-288.88"/>
<text text-anchor="middle" x="597.38" y="-284.87" font-family="Times,serif" font-size="10.00">(F,0)</text>
</g>
<!-- n18 -->
<g id="node19" class="node">
<title>n18</title>
<path fill="none" stroke="black" d="M68.5,-43C68.5,-43 12,-43 12,-43 6,-43 0,-37 0,-31 0,-31 0,-19 0,-19 0,-13 6,-7 12,-7 12,-7 68.5,-7 68.5,-7 74.5,-7 80.5,-13 80.5,-19 80.5,-19 80.5,-31 80.5,-31 80.5,-37 74.5,-43 68.5,-43"/>
<text text-anchor="middle" x="40.25" y="-20.73" font-family="Times,serif" font-size="12.00">callgroup fact</text>
</g>
<!-- n18&#45;&gt;n19 -->
<g id="edge23" class="edge">
<title>n18&#45;&gt;n19</title>
<path fill="none" stroke="black" d="M80.98,-41.06C94.72,-46.61 110.31,-52.91 124.77,-58.75"/>
<polygon fill="black" stroke="black" points="123.08,-61.84 133.66,-62.35 125.7,-55.35 123.08,-61.84"/>
<text text-anchor="middle" x="107.88" y="-56.98" font-family="Times,serif" font-size="10.00">(0,1)</text>
</g>
<!-- n20 -->
<g id="node21" class="node">
<title>n20</title>
<path fill="none" stroke="black" d="M196.25,-36C196.25,-36 155.5,-36 155.5,-36 149.5,-36 143.5,-30 143.5,-24 143.5,-24 143.5,-12 143.5,-12 143.5,-6 149.5,0 155.5,0 155.5,0 196.25,0 196.25,0 202.25,0 208.25,-6 208.25,-12 208.25,-12 208.25,-24 208.25,-24 208.25,-30 202.25,-36 196.25,-36"/>
<text text-anchor="middle" x="175.88" y="-13.72" font-family="Times,serif" font-size="12.00">retsnd fact</text>
</g>
<!-- n18&#45;&gt;n20 -->
<g id="edge24" class="edge">
<title>n18&#45;&gt;n20</title>
<path fill="none" stroke="black" d="M80.94,-20.15C86.82,-19.58 92.81,-19.09 98.5,-18.75 109.29,-18.11 120.95,-17.8 131.84,-17.68"/>
<polygon fill="black" stroke="black" points="131.77,-21.18 141.75,-17.62 131.73,-14.18 131.77,-21.18"/>
<text text-anchor="middle" x="107.88" y="-20.5" font-family="Times,serif" font-size="10.00">(0,1)</text>
</g>
<!-- n21 -->
<g id="node22" class="node">
<title>n21</title>
<path fill="none" stroke="black" d="M327,-36C327,-36 296.75,-36 296.75,-36 290.75,-36 284.75,-30 284.75,-24 284.75,-24 284.75,-12 284.75,-12 284.75,-6 290.75,0 296.75,0 296.75,0 327,0 327,0 333,0 339,-6 339,-12 339,-12 339,-24 339,-24 339,-30 333,-36 327,-36"/>
<text text-anchor="middle" x="311.88" y="-13.72" font-family="Times,serif" font-size="12.00">ret main</text>
</g>
<!-- n20&#45;&gt;n21 -->
<g id="edge25" class="edge">
<title>n20&#45;&gt;n21</title>
<path fill="none" stroke="black" d="M208.63,-18C227.91,-18 252.63,-18 272.94,-18"/>
<polygon fill="black" stroke="black" points="272.79,-21.5 282.79,-18 272.79,-14.5 272.79,-21.5"/>
<text text-anchor="middle" x="243.88" y="-19.75" font-family="Times,serif" font-size="10.00">(0,0)</text>
</g>
</g>
</svg>
