<?xml version="1.0" encoding="UTF-8" standalone="no"?>
<!DOCTYPE svg PUBLIC "-//W3C//DTD SVG 1.1//EN"
 "http://www.w3.org/Graphics/SVG/1.1/DTD/svg11.dtd">
<!-- Generated by graphviz version 12.2.1 (20241206.2353)
 -->
<!-- Title: G Pages: 1 -->
<svg width="3067pt" height="1034pt"
 viewBox="0.00 0.00 3067.25 1034.00" xmlns="http://www.w3.org/2000/svg" xmlns:xlink="http://www.w3.org/1999/xlink">
<g id="graph0" class="graph" transform="scale(1 1) rotate(0) translate(4 1030)">
<title>G</title>
<polygon fill="white" stroke="none" points="-4,4 -4,-1030 3063.25,-1030 3063.25,4 -4,4"/>
<!-- n0 -->
<g id="node1" class="node">
<title>n0</title>
<path fill="none" stroke="black" d="M196.12,-576C196.12,-576 166.12,-576 166.12,-576 160.12,-576 154.12,-570 154.12,-564 154.12,-564 154.12,-552 154.12,-552 154.12,-546 160.12,-540 166.12,-540 166.12,-540 196.12,-540 196.12,-540 202.12,-540 208.12,-546 208.12,-552 208.12,-552 208.12,-564 208.12,-564 208.12,-570 202.12,-576 196.12,-576"/>
<text text-anchor="middle" x="181.12" y="-553.73" font-family="Times,serif" font-size="12.00">const &#45;1</text>
</g>
<!-- n12 -->
<g id="node13" class="node">
<title>n12</title>
<path fill="none" stroke="black" d="M320.75,-576C320.75,-576 290.75,-576 290.75,-576 284.75,-576 278.75,-570 278.75,-564 278.75,-564 278.75,-552 278.75,-552 278.75,-546 284.75,-540 290.75,-540 290.75,-540 320.75,-540 320.75,-540 326.75,-540 332.75,-546 332.75,-552 332.75,-552 332.75,-564 332.75,-564 332.75,-570 326.75,-576 320.75,-576"/>
<text text-anchor="middle" x="305.75" y="-553.73" font-family="Times,serif" font-size="12.00">+i 2</text>
</g>
<!-- n0&#45;&gt;n12 -->
<g id="edge2" class="edge">
<title>n0&#45;&gt;n12</title>
<path fill="none" stroke="black" d="M208.43,-558C225.56,-558 248.18,-558 267.2,-558"/>
<polygon fill="black" stroke="black" points="266.97,-561.5 276.97,-558 266.97,-554.5 266.97,-561.5"/>
<text text-anchor="middle" x="251.38" y="-559.75" font-family="Times,serif" font-size="10.00">(0,0)</text>
</g>
<!-- n1 -->
<g id="node2" class="node">
<title>n1</title>
<path fill="none" stroke="black" d="M2377.25,-90C2377.25,-90 2347.25,-90 2347.25,-90 2341.25,-90 2335.25,-84 2335.25,-78 2335.25,-78 2335.25,-66 2335.25,-66 2335.25,-60 2341.25,-54 2347.25,-54 2347.25,-54 2377.25,-54 2377.25,-54 2383.25,-54 2389.25,-60 2389.25,-66 2389.25,-66 2389.25,-78 2389.25,-78 2389.25,-84 2383.25,-90 2377.25,-90"/>
<text text-anchor="middle" x="2362.25" y="-67.72" font-family="Times,serif" font-size="12.00">const 1</text>
</g>
<!-- n56 -->
<g id="node57" class="node">
<title>n56</title>
<path fill="none" stroke="black" d="M2501.88,-90C2501.88,-90 2471.88,-90 2471.88,-90 2465.88,-90 2459.88,-84 2459.88,-78 2459.88,-78 2459.88,-66 2459.88,-66 2459.88,-60 2465.88,-54 2471.88,-54 2471.88,-54 2501.88,-54 2501.88,-54 2507.88,-54 2513.88,-60 2513.88,-66 2513.88,-66 2513.88,-78 2513.88,-78 2513.88,-84 2507.88,-90 2501.88,-90"/>
<text text-anchor="middle" x="2486.88" y="-67.72" font-family="Times,serif" font-size="12.00">+i 2</text>
</g>
<!-- n1&#45;&gt;n56 -->
<g id="edge55" class="edge">
<title>n1&#45;&gt;n56</title>
<path fill="none" stroke="black" d="M2389.56,-72C2406.69,-72 2429.31,-72 2448.32,-72"/>
<polygon fill="black" stroke="black" points="2448.1,-75.5 2458.1,-72 2448.1,-68.5 2448.1,-75.5"/>
<text text-anchor="middle" x="2416.62" y="-73.75" font-family="Times,serif" font-size="10.00">(0,0)</text>
</g>
<!-- n2 -->
<g id="node3" class="node">
<title>n2</title>
<path fill="none" stroke="black" d="M2128,-144C2128,-144 2098,-144 2098,-144 2092,-144 2086,-138 2086,-132 2086,-132 2086,-120 2086,-120 2086,-114 2092,-108 2098,-108 2098,-108 2128,-108 2128,-108 2134,-108 2140,-114 2140,-120 2140,-120 2140,-132 2140,-132 2140,-138 2134,-144 2128,-144"/>
<text text-anchor="middle" x="2113" y="-121.72" font-family="Times,serif" font-size="12.00">const 2</text>
</g>
<!-- n51 -->
<g id="node52" class="node">
<title>n51</title>
<path fill="none" stroke="black" d="M2252.62,-144C2252.62,-144 2222.62,-144 2222.62,-144 2216.62,-144 2210.62,-138 2210.62,-132 2210.62,-132 2210.62,-120 2210.62,-120 2210.62,-114 2216.62,-108 2222.62,-108 2222.62,-108 2252.62,-108 2252.62,-108 2258.62,-108 2264.62,-114 2264.62,-120 2264.62,-120 2264.62,-132 2264.62,-132 2264.62,-138 2258.62,-144 2252.62,-144"/>
<text text-anchor="middle" x="2237.62" y="-121.72" font-family="Times,serif" font-size="12.00">+i 2</text>
</g>
<!-- n2&#45;&gt;n51 -->
<g id="edge49" class="edge">
<title>n2&#45;&gt;n51</title>
<path fill="none" stroke="black" d="M2140.31,-126C2157.44,-126 2180.06,-126 2199.07,-126"/>
<polygon fill="black" stroke="black" points="2198.85,-129.5 2208.85,-126 2198.85,-122.5 2198.85,-129.5"/>
<text text-anchor="middle" x="2167.38" y="-127.75" font-family="Times,serif" font-size="10.00">(0,0)</text>
</g>
<!-- n3 -->
<g id="node4" class="node">
<title>n3</title>
<path fill="none" stroke="black" d="M1878.75,-198C1878.75,-198 1848.75,-198 1848.75,-198 1842.75,-198 1836.75,-192 1836.75,-186 1836.75,-186 1836.75,-174 1836.75,-174 1836.75,-168 1842.75,-162 1848.75,-162 1848.75,-162 1878.75,-162 1878.75,-162 1884.75,-162 1890.75,-168 1890.75,-174 1890.75,-174 1890.75,-186 1890.75,-186 1890.75,-192 1884.75,-198 1878.75,-198"/>
<text text-anchor="middle" x="1863.75" y="-175.72" font-family="Times,serif" font-size="12.00">const 3</text>
</g>
<!-- n46 -->
<g id="node47" class="node">
<title>n46</title>
<path fill="none" stroke="black" d="M2003.38,-198C2003.38,-198 1973.38,-198 1973.38,-198 1967.38,-198 1961.38,-192 1961.38,-186 1961.38,-186 1961.38,-174 1961.38,-174 1961.38,-168 1967.38,-162 1973.38,-162 1973.38,-162 2003.38,-162 2003.38,-162 2009.38,-162 2015.38,-168 2015.38,-174 2015.38,-174 2015.38,-186 2015.38,-186 2015.38,-192 2009.38,-198 2003.38,-198"/>
<text text-anchor="middle" x="1988.38" y="-175.72" font-family="Times,serif" font-size="12.00">+i 2</text>
</g>
<!-- n3&#45;&gt;n46 -->
<g id="edge43" class="edge">
<title>n3&#45;&gt;n46</title>
<path fill="none" stroke="black" d="M1891.06,-180C1908.19,-180 1930.81,-180 1949.82,-180"/>
<polygon fill="black" stroke="black" points="1949.6,-183.5 1959.6,-180 1949.6,-176.5 1949.6,-183.5"/>
<text text-anchor="middle" x="1918.12" y="-181.75" font-family="Times,serif" font-size="10.00">(0,0)</text>
</g>
<!-- n4 -->
<g id="node5" class="node">
<title>n4</title>
<path fill="none" stroke="black" d="M1629.5,-252C1629.5,-252 1599.5,-252 1599.5,-252 1593.5,-252 1587.5,-246 1587.5,-240 1587.5,-240 1587.5,-228 1587.5,-228 1587.5,-222 1593.5,-216 1599.5,-216 1599.5,-216 1629.5,-216 1629.5,-216 1635.5,-216 1641.5,-222 1641.5,-228 1641.5,-228 1641.5,-240 1641.5,-240 1641.5,-246 1635.5,-252 1629.5,-252"/>
<text text-anchor="middle" x="1614.5" y="-229.72" font-family="Times,serif" font-size="12.00">const 4</text>
</g>
<!-- n41 -->
<g id="node42" class="node">
<title>n41</title>
<path fill="none" stroke="black" d="M1754.12,-252C1754.12,-252 1724.12,-252 1724.12,-252 1718.12,-252 1712.12,-246 1712.12,-240 1712.12,-240 1712.12,-228 1712.12,-228 1712.12,-222 1718.12,-216 1724.12,-216 1724.12,-216 1754.12,-216 1754.12,-216 1760.12,-216 1766.12,-222 1766.12,-228 1766.12,-228 1766.12,-240 1766.12,-240 1766.12,-246 1760.12,-252 1754.12,-252"/>
<text text-anchor="middle" x="1739.12" y="-229.72" font-family="Times,serif" font-size="12.00">+i 2</text>
</g>
<!-- n4&#45;&gt;n41 -->
<g id="edge37" class="edge">
<title>n4&#45;&gt;n41</title>
<path fill="none" stroke="black" d="M1641.81,-234C1658.94,-234 1681.56,-234 1700.57,-234"/>
<polygon fill="black" stroke="black" points="1700.35,-237.5 1710.35,-234 1700.35,-230.5 1700.35,-237.5"/>
<text text-anchor="middle" x="1668.88" y="-235.75" font-family="Times,serif" font-size="10.00">(0,0)</text>
</g>
<!-- n5 -->
<g id="node6" class="node">
<title>n5</title>
<path fill="none" stroke="black" d="M1380.25,-306C1380.25,-306 1350.25,-306 1350.25,-306 1344.25,-306 1338.25,-300 1338.25,-294 1338.25,-294 1338.25,-282 1338.25,-282 1338.25,-276 1344.25,-270 1350.25,-270 1350.25,-270 1380.25,-270 1380.25,-270 1386.25,-270 1392.25,-276 1392.25,-282 1392.25,-282 1392.25,-294 1392.25,-294 1392.25,-300 1386.25,-306 1380.25,-306"/>
<text text-anchor="middle" x="1365.25" y="-283.73" font-family="Times,serif" font-size="12.00">const 5</text>
</g>
<!-- n36 -->
<g id="node37" class="node">
<title>n36</title>
<path fill="none" stroke="black" d="M1504.88,-306C1504.88,-306 1474.88,-306 1474.88,-306 1468.88,-306 1462.88,-300 1462.88,-294 1462.88,-294 1462.88,-282 1462.88,-282 1462.88,-276 1468.88,-270 1474.88,-270 1474.88,-270 1504.88,-270 1504.88,-270 1510.88,-270 1516.88,-276 1516.88,-282 1516.88,-282 1516.88,-294 1516.88,-294 1516.88,-300 1510.88,-306 1504.88,-306"/>
<text text-anchor="middle" x="1489.88" y="-283.73" font-family="Times,serif" font-size="12.00">+i 2</text>
</g>
<!-- n5&#45;&gt;n36 -->
<g id="edge31" class="edge">
<title>n5&#45;&gt;n36</title>
<path fill="none" stroke="black" d="M1392.56,-288C1409.69,-288 1432.31,-288 1451.32,-288"/>
<polygon fill="black" stroke="black" points="1451.1,-291.5 1461.1,-288 1451.1,-284.5 1451.1,-291.5"/>
<text text-anchor="middle" x="1419.62" y="-289.75" font-family="Times,serif" font-size="10.00">(0,0)</text>
</g>
<!-- n6 -->
<g id="node7" class="node">
<title>n6</title>
<path fill="none" stroke="black" d="M1131,-360C1131,-360 1101,-360 1101,-360 1095,-360 1089,-354 1089,-348 1089,-348 1089,-336 1089,-336 1089,-330 1095,-324 1101,-324 1101,-324 1131,-324 1131,-324 1137,-324 1143,-330 1143,-336 1143,-336 1143,-348 1143,-348 1143,-354 1137,-360 1131,-360"/>
<text text-anchor="middle" x="1116" y="-337.73" font-family="Times,serif" font-size="12.00">const 6</text>
</g>
<!-- n31 -->
<g id="node32" class="node">
<title>n31</title>
<path fill="none" stroke="black" d="M1255.62,-360C1255.62,-360 1225.62,-360 1225.62,-360 1219.62,-360 1213.62,-354 1213.62,-348 1213.62,-348 1213.62,-336 1213.62,-336 1213.62,-330 1219.62,-324 1225.62,-324 1225.62,-324 1255.62,-324 1255.62,-324 1261.62,-324 1267.62,-330 1267.62,-336 1267.62,-336 1267.62,-348 1267.62,-348 1267.62,-354 1261.62,-360 1255.62,-360"/>
<text text-anchor="middle" x="1240.62" y="-337.73" font-family="Times,serif" font-size="12.00">+i 2</text>
</g>
<!-- n6&#45;&gt;n31 -->
<g id="edge25" class="edge">
<title>n6&#45;&gt;n31</title>
<path fill="none" stroke="black" d="M1143.31,-342C1160.44,-342 1183.06,-342 1202.07,-342"/>
<polygon fill="black" stroke="black" points="1201.85,-345.5 1211.85,-342 1201.85,-338.5 1201.85,-345.5"/>
<text text-anchor="middle" x="1170.38" y="-343.75" font-family="Times,serif" font-size="10.00">(0,0)</text>
</g>
<!-- n7 -->
<g id="node8" class="node">
<title>n7</title>
<path fill="none" stroke="black" d="M881.75,-414C881.75,-414 851.75,-414 851.75,-414 845.75,-414 839.75,-408 839.75,-402 839.75,-402 839.75,-390 839.75,-390 839.75,-384 845.75,-378 851.75,-378 851.75,-378 881.75,-378 881.75,-378 887.75,-378 893.75,-384 893.75,-390 893.75,-390 893.75,-402 893.75,-402 893.75,-408 887.75,-414 881.75,-414"/>
<text text-anchor="middle" x="866.75" y="-391.73" font-family="Times,serif" font-size="12.00">const 7</text>
</g>
<!-- n26 -->
<g id="node27" class="node">
<title>n26</title>
<path fill="none" stroke="black" d="M1006.38,-414C1006.38,-414 976.38,-414 976.38,-414 970.38,-414 964.38,-408 964.38,-402 964.38,-402 964.38,-390 964.38,-390 964.38,-384 970.38,-378 976.38,-378 976.38,-378 1006.38,-378 1006.38,-378 1012.38,-378 1018.38,-384 1018.38,-390 1018.38,-390 1018.38,-402 1018.38,-402 1018.38,-408 1012.38,-414 1006.38,-414"/>
<text text-anchor="middle" x="991.38" y="-391.73" font-family="Times,serif" font-size="12.00">+i 2</text>
</g>
<!-- n7&#45;&gt;n26 -->
<g id="edge19" class="edge">
<title>n7&#45;&gt;n26</title>
<path fill="none" stroke="black" d="M894.06,-396C911.19,-396 933.81,-396 952.82,-396"/>
<polygon fill="black" stroke="black" points="952.6,-399.5 962.6,-396 952.6,-392.5 952.6,-399.5"/>
<text text-anchor="middle" x="921.12" y="-397.75" font-family="Times,serif" font-size="10.00">(0,0)</text>
</g>
<!-- n8 -->
<g id="node9" class="node">
<title>n8</title>
<path fill="none" stroke="black" d="M608.75,-468C608.75,-468 578.75,-468 578.75,-468 572.75,-468 566.75,-462 566.75,-456 566.75,-456 566.75,-444 566.75,-444 566.75,-438 572.75,-432 578.75,-432 578.75,-432 608.75,-432 608.75,-432 614.75,-432 620.75,-438 620.75,-444 620.75,-444 620.75,-456 620.75,-456 620.75,-462 614.75,-468 608.75,-468"/>
<text text-anchor="middle" x="593.75" y="-445.73" font-family="Times,serif" font-size="12.00">const 8</text>
</g>
<!-- n21 -->
<g id="node22" class="node">
<title>n21</title>
<path fill="none" stroke="black" d="M757.12,-468C757.12,-468 727.12,-468 727.12,-468 721.12,-468 715.12,-462 715.12,-456 715.12,-456 715.12,-444 715.12,-444 715.12,-438 721.12,-432 727.12,-432 727.12,-432 757.12,-432 757.12,-432 763.12,-432 769.12,-438 769.12,-444 769.12,-444 769.12,-456 769.12,-456 769.12,-462 763.12,-468 757.12,-468"/>
<text text-anchor="middle" x="742.12" y="-445.73" font-family="Times,serif" font-size="12.00">+i 2</text>
</g>
<!-- n8&#45;&gt;n21 -->
<g id="edge13" class="edge">
<title>n8&#45;&gt;n21</title>
<path fill="none" stroke="black" d="M620.92,-450C643.88,-450 677.55,-450 703.42,-450"/>
<polygon fill="black" stroke="black" points="703.18,-453.5 713.18,-450 703.18,-446.5 703.18,-453.5"/>
<text text-anchor="middle" x="671.88" y="-451.75" font-family="Times,serif" font-size="10.00">(0,0)</text>
</g>
<!-- n9 -->
<g id="node10" class="node">
<title>n9</title>
<path fill="none" stroke="black" d="M320.75,-522C320.75,-522 290.75,-522 290.75,-522 284.75,-522 278.75,-516 278.75,-510 278.75,-510 278.75,-498 278.75,-498 278.75,-492 284.75,-486 290.75,-486 290.75,-486 320.75,-486 320.75,-486 326.75,-486 332.75,-492 332.75,-498 332.75,-498 332.75,-510 332.75,-510 332.75,-516 326.75,-522 320.75,-522"/>
<text text-anchor="middle" x="305.75" y="-499.73" font-family="Times,serif" font-size="12.00">const 9</text>
</g>
<!-- n16 -->
<g id="node17" class="node">
<title>n16</title>
<path fill="none" stroke="black" d="M452.88,-522C452.88,-522 422.88,-522 422.88,-522 416.88,-522 410.88,-516 410.88,-510 410.88,-510 410.88,-498 410.88,-498 410.88,-492 416.88,-486 422.88,-486 422.88,-486 452.88,-486 452.88,-486 458.88,-486 464.88,-492 464.88,-498 464.88,-498 464.88,-510 464.88,-510 464.88,-516 458.88,-522 452.88,-522"/>
<text text-anchor="middle" x="437.88" y="-499.73" font-family="Times,serif" font-size="12.00">+i 2</text>
</g>
<!-- n9&#45;&gt;n16 -->
<g id="edge7" class="edge">
<title>n9&#45;&gt;n16</title>
<path fill="none" stroke="black" d="M333.08,-504C352.13,-504 378.14,-504 399.36,-504"/>
<polygon fill="black" stroke="black" points="399.07,-507.5 409.07,-504 399.07,-500.5 399.07,-507.5"/>
<text text-anchor="middle" x="360.12" y="-505.75" font-family="Times,serif" font-size="10.00">(0,0)</text>
</g>
<!-- n10 -->
<g id="node11" class="node">
<title>n10</title>
<path fill="none" stroke="black" d="M57.62,-630C57.62,-630 25.88,-630 25.88,-630 19.88,-630 13.88,-624 13.88,-618 13.88,-618 13.88,-606 13.88,-606 13.88,-600 19.88,-594 25.88,-594 25.88,-594 57.62,-594 57.62,-594 63.62,-594 69.62,-600 69.62,-606 69.62,-606 69.62,-618 69.62,-618 69.62,-624 63.62,-630 57.62,-630"/>
<text text-anchor="middle" x="41.75" y="-607.73" font-family="Times,serif" font-size="12.00">const 10</text>
</g>
<!-- n11 -->
<g id="node12" class="node">
<title>n11</title>
<path fill="none" stroke="black" d="M196.12,-630C196.12,-630 166.12,-630 166.12,-630 160.12,-630 154.12,-624 154.12,-618 154.12,-618 154.12,-606 154.12,-606 154.12,-600 160.12,-594 166.12,-594 166.12,-594 196.12,-594 196.12,-594 202.12,-594 208.12,-600 208.12,-606 208.12,-606 208.12,-618 208.12,-618 208.12,-624 202.12,-630 196.12,-630"/>
<text text-anchor="middle" x="181.12" y="-607.73" font-family="Times,serif" font-size="12.00">+i 2</text>
</g>
<!-- n10&#45;&gt;n11 -->
<g id="edge1" class="edge">
<title>n10&#45;&gt;n11</title>
<path fill="none" stroke="black" d="M69.89,-612C90.67,-612 119.56,-612 142.56,-612"/>
<polygon fill="black" stroke="black" points="142.46,-615.5 152.46,-612 142.46,-608.5 142.46,-615.5"/>
<text text-anchor="middle" x="110.88" y="-613.75" font-family="Times,serif" font-size="10.00">(0,0)</text>
</g>
<!-- n14 -->
<g id="node15" class="node">
<title>n14</title>
<path fill="none" stroke="black" d="M320.75,-630C320.75,-630 290.75,-630 290.75,-630 284.75,-630 278.75,-624 278.75,-618 278.75,-618 278.75,-606 278.75,-606 278.75,-600 284.75,-594 290.75,-594 290.75,-594 320.75,-594 320.75,-594 326.75,-594 332.75,-600 332.75,-606 332.75,-606 332.75,-618 332.75,-618 332.75,-624 326.75,-630 320.75,-630"/>
<text text-anchor="middle" x="305.75" y="-607.73" font-family="Times,serif" font-size="12.00">*</text>
</g>
<!-- n11&#45;&gt;n14 -->
<g id="edge3" class="edge">
<title>n11&#45;&gt;n14</title>
<path fill="none" stroke="black" d="M208.43,-612C225.56,-612 248.18,-612 267.2,-612"/>
<polygon fill="black" stroke="black" points="266.97,-615.5 276.97,-612 266.97,-608.5 266.97,-615.5"/>
<text text-anchor="middle" x="251.38" y="-613.75" font-family="Times,serif" font-size="10.00">(0,0)</text>
</g>
<!-- n15 -->
<g id="node16" class="node">
<title>n15</title>
<path fill="none" stroke="black" d="M452.88,-576C452.88,-576 422.88,-576 422.88,-576 416.88,-576 410.88,-570 410.88,-564 410.88,-564 410.88,-552 410.88,-552 410.88,-546 416.88,-540 422.88,-540 422.88,-540 452.88,-540 452.88,-540 458.88,-540 464.88,-546 464.88,-552 464.88,-552 464.88,-564 464.88,-564 464.88,-570 458.88,-576 452.88,-576"/>
<text text-anchor="middle" x="437.88" y="-553.73" font-family="Times,serif" font-size="12.00">+</text>
</g>
<!-- n12&#45;&gt;n15 -->
<g id="edge6" class="edge">
<title>n12&#45;&gt;n15</title>
<path fill="none" stroke="black" d="M333.08,-558C352.13,-558 378.14,-558 399.36,-558"/>
<polygon fill="black" stroke="black" points="399.07,-561.5 409.07,-558 399.07,-554.5 399.07,-561.5"/>
<text text-anchor="middle" x="360.12" y="-559.75" font-family="Times,serif" font-size="10.00">(0,1)</text>
</g>
<!-- n13 -->
<g id="node14" class="node">
<title>n13</title>
<path fill="none" stroke="black" d="M212,-684C212,-684 150.25,-684 150.25,-684 144.25,-684 138.25,-678 138.25,-672 138.25,-672 138.25,-660 138.25,-660 138.25,-654 144.25,-648 150.25,-648 150.25,-648 212,-648 212,-648 218,-648 224,-654 224,-660 224,-660 224,-672 224,-672 224,-678 218,-684 212,-684"/>
<text text-anchor="middle" x="181.12" y="-661.73" font-family="Times,serif" font-size="12.00">const 1000003</text>
</g>
<!-- n13&#45;&gt;n14 -->
<g id="edge4" class="edge">
<title>n13&#45;&gt;n14</title>
<path fill="none" stroke="black" d="M223.98,-647.57C238.36,-641.24 254.32,-634.21 268.24,-628.08"/>
<polygon fill="black" stroke="black" points="269.3,-631.44 277.04,-624.2 266.47,-625.03 269.3,-631.44"/>
<text text-anchor="middle" x="251.38" y="-640.75" font-family="Times,serif" font-size="10.00">(0,1)</text>
</g>
<!-- n14&#45;&gt;n15 -->
<g id="edge5" class="edge">
<title>n14&#45;&gt;n15</title>
<path fill="none" stroke="black" d="M333.08,-601.07C352.31,-593.09 378.63,-582.17 399.95,-573.32"/>
<polygon fill="black" stroke="black" points="401.29,-576.56 409.18,-569.49 398.61,-570.09 401.29,-576.56"/>
<text text-anchor="middle" x="360.12" y="-594.74" font-family="Times,serif" font-size="10.00">(0,0)</text>
</g>
<!-- n17 -->
<g id="node18" class="node">
<title>n17</title>
<path fill="none" stroke="black" d="M608.75,-576C608.75,-576 578.75,-576 578.75,-576 572.75,-576 566.75,-570 566.75,-564 566.75,-564 566.75,-552 566.75,-552 566.75,-546 572.75,-540 578.75,-540 578.75,-540 608.75,-540 608.75,-540 614.75,-540 620.75,-546 620.75,-552 620.75,-552 620.75,-564 620.75,-564 620.75,-570 614.75,-576 608.75,-576"/>
<text text-anchor="middle" x="593.75" y="-553.73" font-family="Times,serif" font-size="12.00">+i 2</text>
</g>
<!-- n15&#45;&gt;n17 -->
<g id="edge8" class="edge">
<title>n15&#45;&gt;n17</title>
<path fill="none" stroke="black" d="M465.33,-558C490.06,-558 527.27,-558 555.1,-558"/>
<polygon fill="black" stroke="black" points="554.87,-561.5 564.87,-558 554.87,-554.5 554.87,-561.5"/>
<text text-anchor="middle" x="515.62" y="-559.75" font-family="Times,serif" font-size="10.00">(0,0)</text>
</g>
<!-- n19 -->
<g id="node20" class="node">
<title>n19</title>
<path fill="none" stroke="black" d="M608.75,-522C608.75,-522 578.75,-522 578.75,-522 572.75,-522 566.75,-516 566.75,-510 566.75,-510 566.75,-498 566.75,-498 566.75,-492 572.75,-486 578.75,-486 578.75,-486 608.75,-486 608.75,-486 614.75,-486 620.75,-492 620.75,-498 620.75,-498 620.75,-510 620.75,-510 620.75,-516 614.75,-522 608.75,-522"/>
<text text-anchor="middle" x="593.75" y="-499.73" font-family="Times,serif" font-size="12.00">*</text>
</g>
<!-- n16&#45;&gt;n19 -->
<g id="edge9" class="edge">
<title>n16&#45;&gt;n19</title>
<path fill="none" stroke="black" d="M465.33,-504C490.06,-504 527.27,-504 555.1,-504"/>
<polygon fill="black" stroke="black" points="554.87,-507.5 564.87,-504 554.87,-500.5 554.87,-507.5"/>
<text text-anchor="middle" x="515.62" y="-505.75" font-family="Times,serif" font-size="10.00">(0,0)</text>
</g>
<!-- n20 -->
<g id="node21" class="node">
<title>n20</title>
<path fill="none" stroke="black" d="M757.12,-522C757.12,-522 727.12,-522 727.12,-522 721.12,-522 715.12,-516 715.12,-510 715.12,-510 715.12,-498 715.12,-498 715.12,-492 721.12,-486 727.12,-486 727.12,-486 757.12,-486 757.12,-486 763.12,-486 769.12,-492 769.12,-498 769.12,-498 769.12,-510 769.12,-510 769.12,-516 763.12,-522 757.12,-522"/>
<text text-anchor="middle" x="742.12" y="-499.73" font-family="Times,serif" font-size="12.00">+</text>
</g>
<!-- n17&#45;&gt;n20 -->
<g id="edge12" class="edge">
<title>n17&#45;&gt;n20</title>
<path fill="none" stroke="black" d="M620.92,-548.35C644.09,-539.8 678.16,-527.23 704.12,-517.65"/>
<polygon fill="black" stroke="black" points="705.1,-521.02 713.27,-514.28 702.68,-514.45 705.1,-521.02"/>
<text text-anchor="middle" x="671.88" y="-534.37" font-family="Times,serif" font-size="10.00">(0,1)</text>
</g>
<!-- n18 -->
<g id="node19" class="node">
<title>n18</title>
<path fill="none" stroke="black" d="M468.75,-468C468.75,-468 407,-468 407,-468 401,-468 395,-462 395,-456 395,-456 395,-444 395,-444 395,-438 401,-432 407,-432 407,-432 468.75,-432 468.75,-432 474.75,-432 480.75,-438 480.75,-444 480.75,-444 480.75,-456 480.75,-456 480.75,-462 474.75,-468 468.75,-468"/>
<text text-anchor="middle" x="437.88" y="-445.73" font-family="Times,serif" font-size="12.00">const 1000003</text>
</g>
<!-- n18&#45;&gt;n19 -->
<g id="edge10" class="edge">
<title>n18&#45;&gt;n19</title>
<path fill="none" stroke="black" d="M480.92,-464.76C504.37,-472.98 533.3,-483.14 555.86,-491.05"/>
<polygon fill="black" stroke="black" points="554.67,-494.34 565.26,-494.35 556.99,-487.74 554.67,-494.34"/>
<text text-anchor="middle" x="515.62" y="-480.37" font-family="Times,serif" font-size="10.00">(0,1)</text>
</g>
<!-- n19&#45;&gt;n20 -->
<g id="edge11" class="edge">
<title>n19&#45;&gt;n20</title>
<path fill="none" stroke="black" d="M620.92,-504C643.88,-504 677.55,-504 703.42,-504"/>
<polygon fill="black" stroke="black" points="703.18,-507.5 713.18,-504 703.18,-500.5 703.18,-507.5"/>
<text text-anchor="middle" x="671.88" y="-505.75" font-family="Times,serif" font-size="10.00">(0,0)</text>
</g>
<!-- n22 -->
<g id="node23" class="node">
<title>n22</title>
<path fill="none" stroke="black" d="M881.75,-522C881.75,-522 851.75,-522 851.75,-522 845.75,-522 839.75,-516 839.75,-510 839.75,-510 839.75,-498 839.75,-498 839.75,-492 845.75,-486 851.75,-486 851.75,-486 881.75,-486 881.75,-486 887.75,-486 893.75,-492 893.75,-498 893.75,-498 893.75,-510 893.75,-510 893.75,-516 887.75,-522 881.75,-522"/>
<text text-anchor="middle" x="866.75" y="-499.73" font-family="Times,serif" font-size="12.00">+i 2</text>
</g>
<!-- n20&#45;&gt;n22 -->
<g id="edge14" class="edge">
<title>n20&#45;&gt;n22</title>
<path fill="none" stroke="black" d="M769.43,-504C786.56,-504 809.18,-504 828.2,-504"/>
<polygon fill="black" stroke="black" points="827.97,-507.5 837.97,-504 827.97,-500.5 827.97,-507.5"/>
<text text-anchor="middle" x="812.38" y="-505.75" font-family="Times,serif" font-size="10.00">(0,0)</text>
</g>
<!-- n24 -->
<g id="node25" class="node">
<title>n24</title>
<path fill="none" stroke="black" d="M881.75,-468C881.75,-468 851.75,-468 851.75,-468 845.75,-468 839.75,-462 839.75,-456 839.75,-456 839.75,-444 839.75,-444 839.75,-438 845.75,-432 851.75,-432 851.75,-432 881.75,-432 881.75,-432 887.75,-432 893.75,-438 893.75,-444 893.75,-444 893.75,-456 893.75,-456 893.75,-462 887.75,-468 881.75,-468"/>
<text text-anchor="middle" x="866.75" y="-445.73" font-family="Times,serif" font-size="12.00">*</text>
</g>
<!-- n21&#45;&gt;n24 -->
<g id="edge15" class="edge">
<title>n21&#45;&gt;n24</title>
<path fill="none" stroke="black" d="M769.43,-450C786.56,-450 809.18,-450 828.2,-450"/>
<polygon fill="black" stroke="black" points="827.97,-453.5 837.97,-450 827.97,-446.5 827.97,-453.5"/>
<text text-anchor="middle" x="812.38" y="-451.75" font-family="Times,serif" font-size="10.00">(0,0)</text>
</g>
<!-- n25 -->
<g id="node26" class="node">
<title>n25</title>
<path fill="none" stroke="black" d="M1006.38,-468C1006.38,-468 976.38,-468 976.38,-468 970.38,-468 964.38,-462 964.38,-456 964.38,-456 964.38,-444 964.38,-444 964.38,-438 970.38,-432 976.38,-432 976.38,-432 1006.38,-432 1006.38,-432 1012.38,-432 1018.38,-438 1018.38,-444 1018.38,-444 1018.38,-456 1018.38,-456 1018.38,-462 1012.38,-468 1006.38,-468"/>
<text text-anchor="middle" x="991.38" y="-445.73" font-family="Times,serif" font-size="12.00">+</text>
</g>
<!-- n22&#45;&gt;n25 -->
<g id="edge18" class="edge">
<title>n22&#45;&gt;n25</title>
<path fill="none" stroke="black" d="M894.06,-492.42C911.43,-484.76 934.45,-474.63 953.63,-466.18"/>
<polygon fill="black" stroke="black" points="954.99,-469.41 962.73,-462.18 952.16,-463 954.99,-469.41"/>
<text text-anchor="middle" x="921.12" y="-485.17" font-family="Times,serif" font-size="10.00">(0,1)</text>
</g>
<!-- n23 -->
<g id="node24" class="node">
<title>n23</title>
<path fill="none" stroke="black" d="M773,-414C773,-414 711.25,-414 711.25,-414 705.25,-414 699.25,-408 699.25,-402 699.25,-402 699.25,-390 699.25,-390 699.25,-384 705.25,-378 711.25,-378 711.25,-378 773,-378 773,-378 779,-378 785,-384 785,-390 785,-390 785,-402 785,-402 785,-408 779,-414 773,-414"/>
<text text-anchor="middle" x="742.12" y="-391.73" font-family="Times,serif" font-size="12.00">const 1000003</text>
</g>
<!-- n23&#45;&gt;n24 -->
<g id="edge16" class="edge">
<title>n23&#45;&gt;n24</title>
<path fill="none" stroke="black" d="M784.98,-414.43C799.36,-420.76 815.32,-427.79 829.24,-433.92"/>
<polygon fill="black" stroke="black" points="827.47,-436.97 838.04,-437.8 830.3,-430.56 827.47,-436.97"/>
<text text-anchor="middle" x="812.38" y="-431.17" font-family="Times,serif" font-size="10.00">(0,1)</text>
</g>
<!-- n24&#45;&gt;n25 -->
<g id="edge17" class="edge">
<title>n24&#45;&gt;n25</title>
<path fill="none" stroke="black" d="M894.06,-450C911.19,-450 933.81,-450 952.82,-450"/>
<polygon fill="black" stroke="black" points="952.6,-453.5 962.6,-450 952.6,-446.5 952.6,-453.5"/>
<text text-anchor="middle" x="921.12" y="-451.75" font-family="Times,serif" font-size="10.00">(0,0)</text>
</g>
<!-- n27 -->
<g id="node28" class="node">
<title>n27</title>
<path fill="none" stroke="black" d="M1131,-468C1131,-468 1101,-468 1101,-468 1095,-468 1089,-462 1089,-456 1089,-456 1089,-444 1089,-444 1089,-438 1095,-432 1101,-432 1101,-432 1131,-432 1131,-432 1137,-432 1143,-438 1143,-444 1143,-444 1143,-456 1143,-456 1143,-462 1137,-468 1131,-468"/>
<text text-anchor="middle" x="1116" y="-445.73" font-family="Times,serif" font-size="12.00">+i 2</text>
</g>
<!-- n25&#45;&gt;n27 -->
<g id="edge20" class="edge">
<title>n25&#45;&gt;n27</title>
<path fill="none" stroke="black" d="M1018.68,-450C1035.81,-450 1058.43,-450 1077.45,-450"/>
<polygon fill="black" stroke="black" points="1077.22,-453.5 1087.22,-450 1077.22,-446.5 1077.22,-453.5"/>
<text text-anchor="middle" x="1061.62" y="-451.75" font-family="Times,serif" font-size="10.00">(0,0)</text>
</g>
<!-- n29 -->
<g id="node30" class="node">
<title>n29</title>
<path fill="none" stroke="black" d="M1131,-414C1131,-414 1101,-414 1101,-414 1095,-414 1089,-408 1089,-402 1089,-402 1089,-390 1089,-390 1089,-384 1095,-378 1101,-378 1101,-378 1131,-378 1131,-378 1137,-378 1143,-384 1143,-390 1143,-390 1143,-402 1143,-402 1143,-408 1137,-414 1131,-414"/>
<text text-anchor="middle" x="1116" y="-391.73" font-family="Times,serif" font-size="12.00">*</text>
</g>
<!-- n26&#45;&gt;n29 -->
<g id="edge21" class="edge">
<title>n26&#45;&gt;n29</title>
<path fill="none" stroke="black" d="M1018.68,-396C1035.81,-396 1058.43,-396 1077.45,-396"/>
<polygon fill="black" stroke="black" points="1077.22,-399.5 1087.22,-396 1077.22,-392.5 1077.22,-399.5"/>
<text text-anchor="middle" x="1061.62" y="-397.75" font-family="Times,serif" font-size="10.00">(0,0)</text>
</g>
<!-- n30 -->
<g id="node31" class="node">
<title>n30</title>
<path fill="none" stroke="black" d="M1255.62,-414C1255.62,-414 1225.62,-414 1225.62,-414 1219.62,-414 1213.62,-408 1213.62,-402 1213.62,-402 1213.62,-390 1213.62,-390 1213.62,-384 1219.62,-378 1225.62,-378 1225.62,-378 1255.62,-378 1255.62,-378 1261.62,-378 1267.62,-384 1267.62,-390 1267.62,-390 1267.62,-402 1267.62,-402 1267.62,-408 1261.62,-414 1255.62,-414"/>
<text text-anchor="middle" x="1240.62" y="-391.73" font-family="Times,serif" font-size="12.00">+</text>
</g>
<!-- n27&#45;&gt;n30 -->
<g id="edge24" class="edge">
<title>n27&#45;&gt;n30</title>
<path fill="none" stroke="black" d="M1143.31,-438.42C1160.68,-430.76 1183.7,-420.63 1202.88,-412.18"/>
<polygon fill="black" stroke="black" points="1204.24,-415.41 1211.98,-408.18 1201.41,-409 1204.24,-415.41"/>
<text text-anchor="middle" x="1170.38" y="-431.17" font-family="Times,serif" font-size="10.00">(0,1)</text>
</g>
<!-- n28 -->
<g id="node29" class="node">
<title>n28</title>
<path fill="none" stroke="black" d="M1022.25,-360C1022.25,-360 960.5,-360 960.5,-360 954.5,-360 948.5,-354 948.5,-348 948.5,-348 948.5,-336 948.5,-336 948.5,-330 954.5,-324 960.5,-324 960.5,-324 1022.25,-324 1022.25,-324 1028.25,-324 1034.25,-330 1034.25,-336 1034.25,-336 1034.25,-348 1034.25,-348 1034.25,-354 1028.25,-360 1022.25,-360"/>
<text text-anchor="middle" x="991.38" y="-337.73" font-family="Times,serif" font-size="12.00">const 1000003</text>
</g>
<!-- n28&#45;&gt;n29 -->
<g id="edge22" class="edge">
<title>n28&#45;&gt;n29</title>
<path fill="none" stroke="black" d="M1034.23,-360.43C1048.61,-366.76 1064.57,-373.79 1078.49,-379.92"/>
<polygon fill="black" stroke="black" points="1076.72,-382.97 1087.29,-383.8 1079.55,-376.56 1076.72,-382.97"/>
<text text-anchor="middle" x="1061.62" y="-377.17" font-family="Times,serif" font-size="10.00">(0,1)</text>
</g>
<!-- n29&#45;&gt;n30 -->
<g id="edge23" class="edge">
<title>n29&#45;&gt;n30</title>
<path fill="none" stroke="black" d="M1143.31,-396C1160.44,-396 1183.06,-396 1202.07,-396"/>
<polygon fill="black" stroke="black" points="1201.85,-399.5 1211.85,-396 1201.85,-392.5 1201.85,-399.5"/>
<text text-anchor="middle" x="1170.38" y="-397.75" font-family="Times,serif" font-size="10.00">(0,0)</text>
</g>
<!-- n32 -->
<g id="node33" class="node">
<title>n32</title>
<path fill="none" stroke="black" d="M1380.25,-414C1380.25,-414 1350.25,-414 1350.25,-414 1344.25,-414 1338.25,-408 1338.25,-402 1338.25,-402 1338.25,-390 1338.25,-390 1338.25,-384 1344.25,-378 1350.25,-378 1350.25,-378 1380.25,-378 1380.25,-378 1386.25,-378 1392.25,-384 1392.25,-390 1392.25,-390 1392.25,-402 1392.25,-402 1392.25,-408 1386.25,-414 1380.25,-414"/>
<text text-anchor="middle" x="1365.25" y="-391.73" font-family="Times,serif" font-size="12.00">+i 2</text>
</g>
<!-- n30&#45;&gt;n32 -->
<g id="edge26" class="edge">
<title>n30&#45;&gt;n32</title>
<path fill="none" stroke="black" d="M1267.93,-396C1285.06,-396 1307.68,-396 1326.7,-396"/>
<polygon fill="black" stroke="black" points="1326.47,-399.5 1336.47,-396 1326.47,-392.5 1326.47,-399.5"/>
<text text-anchor="middle" x="1310.88" y="-397.75" font-family="Times,serif" font-size="10.00">(0,0)</text>
</g>
<!-- n34 -->
<g id="node35" class="node">
<title>n34</title>
<path fill="none" stroke="black" d="M1380.25,-360C1380.25,-360 1350.25,-360 1350.25,-360 1344.25,-360 1338.25,-354 1338.25,-348 1338.25,-348 1338.25,-336 1338.25,-336 1338.25,-330 1344.25,-324 1350.25,-324 1350.25,-324 1380.25,-324 1380.25,-324 1386.25,-324 1392.25,-330 1392.25,-336 1392.25,-336 1392.25,-348 1392.25,-348 1392.25,-354 1386.25,-360 1380.25,-360"/>
<text text-anchor="middle" x="1365.25" y="-337.73" font-family="Times,serif" font-size="12.00">*</text>
</g>
<!-- n31&#45;&gt;n34 -->
<g id="edge27" class="edge">
<title>n31&#45;&gt;n34</title>
<path fill="none" stroke="black" d="M1267.93,-342C1285.06,-342 1307.68,-342 1326.7,-342"/>
<polygon fill="black" stroke="black" points="1326.47,-345.5 1336.47,-342 1326.47,-338.5 1326.47,-345.5"/>
<text text-anchor="middle" x="1310.88" y="-343.75" font-family="Times,serif" font-size="10.00">(0,0)</text>
</g>
<!-- n35 -->
<g id="node36" class="node">
<title>n35</title>
<path fill="none" stroke="black" d="M1504.88,-360C1504.88,-360 1474.88,-360 1474.88,-360 1468.88,-360 1462.88,-354 1462.88,-348 1462.88,-348 1462.88,-336 1462.88,-336 1462.88,-330 1468.88,-324 1474.88,-324 1474.88,-324 1504.88,-324 1504.88,-324 1510.88,-324 1516.88,-330 1516.88,-336 1516.88,-336 1516.88,-348 1516.88,-348 1516.88,-354 1510.88,-360 1504.88,-360"/>
<text text-anchor="middle" x="1489.88" y="-337.73" font-family="Times,serif" font-size="12.00">+</text>
</g>
<!-- n32&#45;&gt;n35 -->
<g id="edge30" class="edge">
<title>n32&#45;&gt;n35</title>
<path fill="none" stroke="black" d="M1392.56,-384.42C1409.93,-376.76 1432.95,-366.63 1452.13,-358.18"/>
<polygon fill="black" stroke="black" points="1453.49,-361.41 1461.23,-354.18 1450.66,-355 1453.49,-361.41"/>
<text text-anchor="middle" x="1419.62" y="-377.17" font-family="Times,serif" font-size="10.00">(0,1)</text>
</g>
<!-- n33 -->
<g id="node34" class="node">
<title>n33</title>
<path fill="none" stroke="black" d="M1271.5,-306C1271.5,-306 1209.75,-306 1209.75,-306 1203.75,-306 1197.75,-300 1197.75,-294 1197.75,-294 1197.75,-282 1197.75,-282 1197.75,-276 1203.75,-270 1209.75,-270 1209.75,-270 1271.5,-270 1271.5,-270 1277.5,-270 1283.5,-276 1283.5,-282 1283.5,-282 1283.5,-294 1283.5,-294 1283.5,-300 1277.5,-306 1271.5,-306"/>
<text text-anchor="middle" x="1240.62" y="-283.73" font-family="Times,serif" font-size="12.00">const 1000003</text>
</g>
<!-- n33&#45;&gt;n34 -->
<g id="edge28" class="edge">
<title>n33&#45;&gt;n34</title>
<path fill="none" stroke="black" d="M1283.48,-306.43C1297.86,-312.76 1313.82,-319.79 1327.74,-325.92"/>
<polygon fill="black" stroke="black" points="1325.97,-328.97 1336.54,-329.8 1328.8,-322.56 1325.97,-328.97"/>
<text text-anchor="middle" x="1310.88" y="-323.17" font-family="Times,serif" font-size="10.00">(0,1)</text>
</g>
<!-- n34&#45;&gt;n35 -->
<g id="edge29" class="edge">
<title>n34&#45;&gt;n35</title>
<path fill="none" stroke="black" d="M1392.56,-342C1409.69,-342 1432.31,-342 1451.32,-342"/>
<polygon fill="black" stroke="black" points="1451.1,-345.5 1461.1,-342 1451.1,-338.5 1451.1,-345.5"/>
<text text-anchor="middle" x="1419.62" y="-343.75" font-family="Times,serif" font-size="10.00">(0,0)</text>
</g>
<!-- n37 -->
<g id="node38" class="node">
<title>n37</title>
<path fill="none" stroke="black" d="M1629.5,-360C1629.5,-360 1599.5,-360 1599.5,-360 1593.5,-360 1587.5,-354 1587.5,-348 1587.5,-348 1587.5,-336 1587.5,-336 1587.5,-330 1593.5,-324 1599.5,-324 1599.5,-324 1629.5,-324 1629.5,-324 1635.5,-324 1641.5,-330 1641.5,-336 1641.5,-336 1641.5,-348 1641.5,-348 1641.5,-354 1635.5,-360 1629.5,-360"/>
<text text-anchor="middle" x="1614.5" y="-337.73" font-family="Times,serif" font-size="12.00">+i 2</text>
</g>
<!-- n35&#45;&gt;n37 -->
<g id="edge32" class="edge">
<title>n35&#45;&gt;n37</title>
<path fill="none" stroke="black" d="M1517.18,-342C1534.31,-342 1556.93,-342 1575.95,-342"/>
<polygon fill="black" stroke="black" points="1575.72,-345.5 1585.72,-342 1575.72,-338.5 1575.72,-345.5"/>
<text text-anchor="middle" x="1560.12" y="-343.75" font-family="Times,serif" font-size="10.00">(0,0)</text>
</g>
<!-- n39 -->
<g id="node40" class="node">
<title>n39</title>
<path fill="none" stroke="black" d="M1629.5,-306C1629.5,-306 1599.5,-306 1599.5,-306 1593.5,-306 1587.5,-300 1587.5,-294 1587.5,-294 1587.5,-282 1587.5,-282 1587.5,-276 1593.5,-270 1599.5,-270 1599.5,-270 1629.5,-270 1629.5,-270 1635.5,-270 1641.5,-276 1641.5,-282 1641.5,-282 1641.5,-294 1641.5,-294 1641.5,-300 1635.5,-306 1629.5,-306"/>
<text text-anchor="middle" x="1614.5" y="-283.73" font-family="Times,serif" font-size="12.00">*</text>
</g>
<!-- n36&#45;&gt;n39 -->
<g id="edge33" class="edge">
<title>n36&#45;&gt;n39</title>
<path fill="none" stroke="black" d="M1517.18,-288C1534.31,-288 1556.93,-288 1575.95,-288"/>
<polygon fill="black" stroke="black" points="1575.72,-291.5 1585.72,-288 1575.72,-284.5 1575.72,-291.5"/>
<text text-anchor="middle" x="1560.12" y="-289.75" font-family="Times,serif" font-size="10.00">(0,0)</text>
</g>
<!-- n40 -->
<g id="node41" class="node">
<title>n40</title>
<path fill="none" stroke="black" d="M1754.12,-306C1754.12,-306 1724.12,-306 1724.12,-306 1718.12,-306 1712.12,-300 1712.12,-294 1712.12,-294 1712.12,-282 1712.12,-282 1712.12,-276 1718.12,-270 1724.12,-270 1724.12,-270 1754.12,-270 1754.12,-270 1760.12,-270 1766.12,-276 1766.12,-282 1766.12,-282 1766.12,-294 1766.12,-294 1766.12,-300 1760.12,-306 1754.12,-306"/>
<text text-anchor="middle" x="1739.12" y="-283.73" font-family="Times,serif" font-size="12.00">+</text>
</g>
<!-- n37&#45;&gt;n40 -->
<g id="edge36" class="edge">
<title>n37&#45;&gt;n40</title>
<path fill="none" stroke="black" d="M1641.81,-330.42C1659.18,-322.76 1682.2,-312.63 1701.38,-304.18"/>
<polygon fill="black" stroke="black" points="1702.74,-307.41 1710.48,-300.18 1699.91,-301 1702.74,-307.41"/>
<text text-anchor="middle" x="1668.88" y="-323.17" font-family="Times,serif" font-size="10.00">(0,1)</text>
</g>
<!-- n38 -->
<g id="node39" class="node">
<title>n38</title>
<path fill="none" stroke="black" d="M1520.75,-252C1520.75,-252 1459,-252 1459,-252 1453,-252 1447,-246 1447,-240 1447,-240 1447,-228 1447,-228 1447,-222 1453,-216 1459,-216 1459,-216 1520.75,-216 1520.75,-216 1526.75,-216 1532.75,-222 1532.75,-228 1532.75,-228 1532.75,-240 1532.75,-240 1532.75,-246 1526.75,-252 1520.75,-252"/>
<text text-anchor="middle" x="1489.88" y="-229.72" font-family="Times,serif" font-size="12.00">const 1000003</text>
</g>
<!-- n38&#45;&gt;n39 -->
<g id="edge34" class="edge">
<title>n38&#45;&gt;n39</title>
<path fill="none" stroke="black" d="M1532.73,-252.43C1547.11,-258.76 1563.07,-265.79 1576.99,-271.92"/>
<polygon fill="black" stroke="black" points="1575.22,-274.97 1585.79,-275.8 1578.05,-268.56 1575.22,-274.97"/>
<text text-anchor="middle" x="1560.12" y="-269.17" font-family="Times,serif" font-size="10.00">(0,1)</text>
</g>
<!-- n39&#45;&gt;n40 -->
<g id="edge35" class="edge">
<title>n39&#45;&gt;n40</title>
<path fill="none" stroke="black" d="M1641.81,-288C1658.94,-288 1681.56,-288 1700.57,-288"/>
<polygon fill="black" stroke="black" points="1700.35,-291.5 1710.35,-288 1700.35,-284.5 1700.35,-291.5"/>
<text text-anchor="middle" x="1668.88" y="-289.75" font-family="Times,serif" font-size="10.00">(0,0)</text>
</g>
<!-- n42 -->
<g id="node43" class="node">
<title>n42</title>
<path fill="none" stroke="black" d="M1878.75,-306C1878.75,-306 1848.75,-306 1848.75,-306 1842.75,-306 1836.75,-300 1836.75,-294 1836.75,-294 1836.75,-282 1836.75,-282 1836.75,-276 1842.75,-270 1848.75,-270 1848.75,-270 1878.75,-270 1878.75,-270 1884.75,-270 1890.75,-276 1890.75,-282 1890.75,-282 1890.75,-294 1890.75,-294 1890.75,-300 1884.75,-306 1878.75,-306"/>
<text text-anchor="middle" x="1863.75" y="-283.73" font-family="Times,serif" font-size="12.00">+i 2</text>
</g>
<!-- n40&#45;&gt;n42 -->
<g id="edge38" class="edge">
<title>n40&#45;&gt;n42</title>
<path fill="none" stroke="black" d="M1766.43,-288C1783.56,-288 1806.18,-288 1825.2,-288"/>
<polygon fill="black" stroke="black" points="1824.97,-291.5 1834.97,-288 1824.97,-284.5 1824.97,-291.5"/>
<text text-anchor="middle" x="1809.38" y="-289.75" font-family="Times,serif" font-size="10.00">(0,0)</text>
</g>
<!-- n44 -->
<g id="node45" class="node">
<title>n44</title>
<path fill="none" stroke="black" d="M1878.75,-252C1878.75,-252 1848.75,-252 1848.75,-252 1842.75,-252 1836.75,-246 1836.75,-240 1836.75,-240 1836.75,-228 1836.75,-228 1836.75,-222 1842.75,-216 1848.75,-216 1848.75,-216 1878.75,-216 1878.75,-216 1884.75,-216 1890.75,-222 1890.75,-228 1890.75,-228 1890.75,-240 1890.75,-240 1890.75,-246 1884.75,-252 1878.75,-252"/>
<text text-anchor="middle" x="1863.75" y="-229.72" font-family="Times,serif" font-size="12.00">*</text>
</g>
<!-- n41&#45;&gt;n44 -->
<g id="edge39" class="edge">
<title>n41&#45;&gt;n44</title>
<path fill="none" stroke="black" d="M1766.43,-234C1783.56,-234 1806.18,-234 1825.2,-234"/>
<polygon fill="black" stroke="black" points="1824.97,-237.5 1834.97,-234 1824.97,-230.5 1824.97,-237.5"/>
<text text-anchor="middle" x="1809.38" y="-235.75" font-family="Times,serif" font-size="10.00">(0,0)</text>
</g>
<!-- n45 -->
<g id="node46" class="node">
<title>n45</title>
<path fill="none" stroke="black" d="M2003.38,-252C2003.38,-252 1973.38,-252 1973.38,-252 1967.38,-252 1961.38,-246 1961.38,-240 1961.38,-240 1961.38,-228 1961.38,-228 1961.38,-222 1967.38,-216 1973.38,-216 1973.38,-216 2003.38,-216 2003.38,-216 2009.38,-216 2015.38,-222 2015.38,-228 2015.38,-228 2015.38,-240 2015.38,-240 2015.38,-246 2009.38,-252 2003.38,-252"/>
<text text-anchor="middle" x="1988.38" y="-229.72" font-family="Times,serif" font-size="12.00">+</text>
</g>
<!-- n42&#45;&gt;n45 -->
<g id="edge42" class="edge">
<title>n42&#45;&gt;n45</title>
<path fill="none" stroke="black" d="M1891.06,-276.42C1908.43,-268.76 1931.45,-258.63 1950.63,-250.18"/>
<polygon fill="black" stroke="black" points="1951.99,-253.41 1959.73,-246.18 1949.16,-247 1951.99,-253.41"/>
<text text-anchor="middle" x="1918.12" y="-269.17" font-family="Times,serif" font-size="10.00">(0,1)</text>
</g>
<!-- n43 -->
<g id="node44" class="node">
<title>n43</title>
<path fill="none" stroke="black" d="M1770,-198C1770,-198 1708.25,-198 1708.25,-198 1702.25,-198 1696.25,-192 1696.25,-186 1696.25,-186 1696.25,-174 1696.25,-174 1696.25,-168 1702.25,-162 1708.25,-162 1708.25,-162 1770,-162 1770,-162 1776,-162 1782,-168 1782,-174 1782,-174 1782,-186 1782,-186 1782,-192 1776,-198 1770,-198"/>
<text text-anchor="middle" x="1739.12" y="-175.72" font-family="Times,serif" font-size="12.00">const 1000003</text>
</g>
<!-- n43&#45;&gt;n44 -->
<g id="edge40" class="edge">
<title>n43&#45;&gt;n44</title>
<path fill="none" stroke="black" d="M1781.98,-198.43C1796.36,-204.76 1812.32,-211.79 1826.24,-217.92"/>
<polygon fill="black" stroke="black" points="1824.47,-220.97 1835.04,-221.8 1827.3,-214.56 1824.47,-220.97"/>
<text text-anchor="middle" x="1809.38" y="-215.17" font-family="Times,serif" font-size="10.00">(0,1)</text>
</g>
<!-- n44&#45;&gt;n45 -->
<g id="edge41" class="edge">
<title>n44&#45;&gt;n45</title>
<path fill="none" stroke="black" d="M1891.06,-234C1908.19,-234 1930.81,-234 1949.82,-234"/>
<polygon fill="black" stroke="black" points="1949.6,-237.5 1959.6,-234 1949.6,-230.5 1949.6,-237.5"/>
<text text-anchor="middle" x="1918.12" y="-235.75" font-family="Times,serif" font-size="10.00">(0,0)</text>
</g>
<!-- n47 -->
<g id="node48" class="node">
<title>n47</title>
<path fill="none" stroke="black" d="M2128,-252C2128,-252 2098,-252 2098,-252 2092,-252 2086,-246 2086,-240 2086,-240 2086,-228 2086,-228 2086,-222 2092,-216 2098,-216 2098,-216 2128,-216 2128,-216 2134,-216 2140,-222 2140,-228 2140,-228 2140,-240 2140,-240 2140,-246 2134,-252 2128,-252"/>
<text text-anchor="middle" x="2113" y="-229.72" font-family="Times,serif" font-size="12.00">+i 2</text>
</g>
<!-- n45&#45;&gt;n47 -->
<g id="edge44" class="edge">
<title>n45&#45;&gt;n47</title>
<path fill="none" stroke="black" d="M2015.68,-234C2032.81,-234 2055.43,-234 2074.45,-234"/>
<polygon fill="black" stroke="black" points="2074.22,-237.5 2084.22,-234 2074.22,-230.5 2074.22,-237.5"/>
<text text-anchor="middle" x="2058.62" y="-235.75" font-family="Times,serif" font-size="10.00">(0,0)</text>
</g>
<!-- n49 -->
<g id="node50" class="node">
<title>n49</title>
<path fill="none" stroke="black" d="M2128,-198C2128,-198 2098,-198 2098,-198 2092,-198 2086,-192 2086,-186 2086,-186 2086,-174 2086,-174 2086,-168 2092,-162 2098,-162 2098,-162 2128,-162 2128,-162 2134,-162 2140,-168 2140,-174 2140,-174 2140,-186 2140,-186 2140,-192 2134,-198 2128,-198"/>
<text text-anchor="middle" x="2113" y="-175.72" font-family="Times,serif" font-size="12.00">*</text>
</g>
<!-- n46&#45;&gt;n49 -->
<g id="edge45" class="edge">
<title>n46&#45;&gt;n49</title>
<path fill="none" stroke="black" d="M2015.68,-180C2032.81,-180 2055.43,-180 2074.45,-180"/>
<polygon fill="black" stroke="black" points="2074.22,-183.5 2084.22,-180 2074.22,-176.5 2074.22,-183.5"/>
<text text-anchor="middle" x="2058.62" y="-181.75" font-family="Times,serif" font-size="10.00">(0,0)</text>
</g>
<!-- n50 -->
<g id="node51" class="node">
<title>n50</title>
<path fill="none" stroke="black" d="M2252.62,-198C2252.62,-198 2222.62,-198 2222.62,-198 2216.62,-198 2210.62,-192 2210.62,-186 2210.62,-186 2210.62,-174 2210.62,-174 2210.62,-168 2216.62,-162 2222.62,-162 2222.62,-162 2252.62,-162 2252.62,-162 2258.62,-162 2264.62,-168 2264.62,-174 2264.62,-174 2264.62,-186 2264.62,-186 2264.62,-192 2258.62,-198 2252.62,-198"/>
<text text-anchor="middle" x="2237.62" y="-175.72" font-family="Times,serif" font-size="12.00">+</text>
</g>
<!-- n47&#45;&gt;n50 -->
<g id="edge48" class="edge">
<title>n47&#45;&gt;n50</title>
<path fill="none" stroke="black" d="M2140.31,-222.42C2157.68,-214.76 2180.7,-204.63 2199.88,-196.18"/>
<polygon fill="black" stroke="black" points="2201.24,-199.41 2208.98,-192.18 2198.41,-193 2201.24,-199.41"/>
<text text-anchor="middle" x="2167.38" y="-215.17" font-family="Times,serif" font-size="10.00">(0,1)</text>
</g>
<!-- n48 -->
<g id="node49" class="node">
<title>n48</title>
<path fill="none" stroke="black" d="M2019.25,-144C2019.25,-144 1957.5,-144 1957.5,-144 1951.5,-144 1945.5,-138 1945.5,-132 1945.5,-132 1945.5,-120 1945.5,-120 1945.5,-114 1951.5,-108 1957.5,-108 1957.5,-108 2019.25,-108 2019.25,-108 2025.25,-108 2031.25,-114 2031.25,-120 2031.25,-120 2031.25,-132 2031.25,-132 2031.25,-138 2025.25,-144 2019.25,-144"/>
<text text-anchor="middle" x="1988.38" y="-121.72" font-family="Times,serif" font-size="12.00">const 1000003</text>
</g>
<!-- n48&#45;&gt;n49 -->
<g id="edge46" class="edge">
<title>n48&#45;&gt;n49</title>
<path fill="none" stroke="black" d="M2031.23,-144.43C2045.61,-150.76 2061.57,-157.79 2075.49,-163.92"/>
<polygon fill="black" stroke="black" points="2073.72,-166.97 2084.29,-167.8 2076.55,-160.56 2073.72,-166.97"/>
<text text-anchor="middle" x="2058.62" y="-161.17" font-family="Times,serif" font-size="10.00">(0,1)</text>
</g>
<!-- n49&#45;&gt;n50 -->
<g id="edge47" class="edge">
<title>n49&#45;&gt;n50</title>
<path fill="none" stroke="black" d="M2140.31,-180C2157.44,-180 2180.06,-180 2199.07,-180"/>
<polygon fill="black" stroke="black" points="2198.85,-183.5 2208.85,-180 2198.85,-176.5 2198.85,-183.5"/>
<text text-anchor="middle" x="2167.38" y="-181.75" font-family="Times,serif" font-size="10.00">(0,0)</text>
</g>
<!-- n52 -->
<g id="node53" class="node">
<title>n52</title>
<path fill="none" stroke="black" d="M2377.25,-198C2377.25,-198 2347.25,-198 2347.25,-198 2341.25,-198 2335.25,-192 2335.25,-186 2335.25,-186 2335.25,-174 2335.25,-174 2335.25,-168 2341.25,-162 2347.25,-162 2347.25,-162 2377.25,-162 2377.25,-162 2383.25,-162 2389.25,-168 2389.25,-174 2389.25,-174 2389.25,-186 2389.25,-186 2389.25,-192 2383.25,-198 2377.25,-198"/>
<text text-anchor="middle" x="2362.25" y="-175.72" font-family="Times,serif" font-size="12.00">+i 2</text>
</g>
<!-- n50&#45;&gt;n52 -->
<g id="edge50" class="edge">
<title>n50&#45;&gt;n52</title>
<path fill="none" stroke="black" d="M2264.93,-180C2282.06,-180 2304.68,-180 2323.7,-180"/>
<polygon fill="black" stroke="black" points="2323.47,-183.5 2333.47,-180 2323.47,-176.5 2323.47,-183.5"/>
<text text-anchor="middle" x="2307.88" y="-181.75" font-family="Times,serif" font-size="10.00">(0,0)</text>
</g>
<!-- n54 -->
<g id="node55" class="node">
<title>n54</title>
<path fill="none" stroke="black" d="M2377.25,-144C2377.25,-144 2347.25,-144 2347.25,-144 2341.25,-144 2335.25,-138 2335.25,-132 2335.25,-132 2335.25,-120 2335.25,-120 2335.25,-114 2341.25,-108 2347.25,-108 2347.25,-108 2377.25,-108 2377.25,-108 2383.25,-108 2389.25,-114 2389.25,-120 2389.25,-120 2389.25,-132 2389.25,-132 2389.25,-138 2383.25,-144 2377.25,-144"/>
<text text-anchor="middle" x="2362.25" y="-121.72" font-family="Times,serif" font-size="12.00">*</text>
</g>
<!-- n51&#45;&gt;n54 -->
<g id="edge51" class="edge">
<title>n51&#45;&gt;n54</title>
<path fill="none" stroke="black" d="M2264.93,-126C2282.06,-126 2304.68,-126 2323.7,-126"/>
<polygon fill="black" stroke="black" points="2323.47,-129.5 2333.47,-126 2323.47,-122.5 2323.47,-129.5"/>
<text text-anchor="middle" x="2307.88" y="-127.75" font-family="Times,serif" font-size="10.00">(0,0)</text>
</g>
<!-- n55 -->
<g id="node56" class="node">
<title>n55</title>
<path fill="none" stroke="black" d="M2501.88,-144C2501.88,-144 2471.88,-144 2471.88,-144 2465.88,-144 2459.88,-138 2459.88,-132 2459.88,-132 2459.88,-120 2459.88,-120 2459.88,-114 2465.88,-108 2471.88,-108 2471.88,-108 2501.88,-108 2501.88,-108 2507.88,-108 2513.88,-114 2513.88,-120 2513.88,-120 2513.88,-132 2513.88,-132 2513.88,-138 2507.88,-144 2501.88,-144"/>
<text text-anchor="middle" x="2486.88" y="-121.72" font-family="Times,serif" font-size="12.00">+</text>
</g>
<!-- n52&#45;&gt;n55 -->
<g id="edge54" class="edge">
<title>n52&#45;&gt;n55</title>
<path fill="none" stroke="black" d="M2389.56,-168.42C2406.93,-160.76 2429.95,-150.63 2449.13,-142.18"/>
<polygon fill="black" stroke="black" points="2450.49,-145.41 2458.23,-138.18 2447.66,-139 2450.49,-145.41"/>
<text text-anchor="middle" x="2416.62" y="-161.17" font-family="Times,serif" font-size="10.00">(0,1)</text>
</g>
<!-- n53 -->
<g id="node54" class="node">
<title>n53</title>
<path fill="none" stroke="black" d="M2268.5,-90C2268.5,-90 2206.75,-90 2206.75,-90 2200.75,-90 2194.75,-84 2194.75,-78 2194.75,-78 2194.75,-66 2194.75,-66 2194.75,-60 2200.75,-54 2206.75,-54 2206.75,-54 2268.5,-54 2268.5,-54 2274.5,-54 2280.5,-60 2280.5,-66 2280.5,-66 2280.5,-78 2280.5,-78 2280.5,-84 2274.5,-90 2268.5,-90"/>
<text text-anchor="middle" x="2237.62" y="-67.72" font-family="Times,serif" font-size="12.00">const 1000003</text>
</g>
<!-- n53&#45;&gt;n54 -->
<g id="edge52" class="edge">
<title>n53&#45;&gt;n54</title>
<path fill="none" stroke="black" d="M2280.48,-90.43C2294.86,-96.76 2310.82,-103.79 2324.74,-109.92"/>
<polygon fill="black" stroke="black" points="2322.97,-112.97 2333.54,-113.8 2325.8,-106.56 2322.97,-112.97"/>
<text text-anchor="middle" x="2307.88" y="-107.17" font-family="Times,serif" font-size="10.00">(0,1)</text>
</g>
<!-- n54&#45;&gt;n55 -->
<g id="edge53" class="edge">
<title>n54&#45;&gt;n55</title>
<path fill="none" stroke="black" d="M2389.56,-126C2406.69,-126 2429.31,-126 2448.32,-126"/>
<polygon fill="black" stroke="black" points="2448.1,-129.5 2458.1,-126 2448.1,-122.5 2448.1,-129.5"/>
<text text-anchor="middle" x="2416.62" y="-127.75" font-family="Times,serif" font-size="10.00">(0,0)</text>
</g>
<!-- n57 -->
<g id="node58" class="node">
<title>n57</title>
<path fill="none" stroke="black" d="M2626.5,-144C2626.5,-144 2596.5,-144 2596.5,-144 2590.5,-144 2584.5,-138 2584.5,-132 2584.5,-132 2584.5,-120 2584.5,-120 2584.5,-114 2590.5,-108 2596.5,-108 2596.5,-108 2626.5,-108 2626.5,-108 2632.5,-108 2638.5,-114 2638.5,-120 2638.5,-120 2638.5,-132 2638.5,-132 2638.5,-138 2632.5,-144 2626.5,-144"/>
<text text-anchor="middle" x="2611.5" y="-121.72" font-family="Times,serif" font-size="12.00">+i 2</text>
</g>
<!-- n55&#45;&gt;n57 -->
<g id="edge56" class="edge">
<title>n55&#45;&gt;n57</title>
<path fill="none" stroke="black" d="M2514.18,-126C2531.31,-126 2553.93,-126 2572.95,-126"/>
<polygon fill="black" stroke="black" points="2572.72,-129.5 2582.72,-126 2572.72,-122.5 2572.72,-129.5"/>
<text text-anchor="middle" x="2557.12" y="-127.75" font-family="Times,serif" font-size="10.00">(0,0)</text>
</g>
<!-- n59 -->
<g id="node60" class="node">
<title>n59</title>
<path fill="none" stroke="black" d="M2626.5,-90C2626.5,-90 2596.5,-90 2596.5,-90 2590.5,-90 2584.5,-84 2584.5,-78 2584.5,-78 2584.5,-66 2584.5,-66 2584.5,-60 2590.5,-54 2596.5,-54 2596.5,-54 2626.5,-54 2626.5,-54 2632.5,-54 2638.5,-60 2638.5,-66 2638.5,-66 2638.5,-78 2638.5,-78 2638.5,-84 2632.5,-90 2626.5,-90"/>
<text text-anchor="middle" x="2611.5" y="-67.72" font-family="Times,serif" font-size="12.00">*</text>
</g>
<!-- n56&#45;&gt;n59 -->
<g id="edge57" class="edge">
<title>n56&#45;&gt;n59</title>
<path fill="none" stroke="black" d="M2514.18,-72C2531.31,-72 2553.93,-72 2572.95,-72"/>
<polygon fill="black" stroke="black" points="2572.72,-75.5 2582.72,-72 2572.72,-68.5 2572.72,-75.5"/>
<text text-anchor="middle" x="2557.12" y="-73.75" font-family="Times,serif" font-size="10.00">(0,0)</text>
</g>
<!-- n60 -->
<g id="node61" class="node">
<title>n60</title>
<path fill="none" stroke="black" d="M2758.62,-120C2758.62,-120 2728.62,-120 2728.62,-120 2722.62,-120 2716.62,-114 2716.62,-108 2716.62,-108 2716.62,-96 2716.62,-96 2716.62,-90 2722.62,-84 2728.62,-84 2728.62,-84 2758.62,-84 2758.62,-84 2764.62,-84 2770.62,-90 2770.62,-96 2770.62,-96 2770.62,-108 2770.62,-108 2770.62,-114 2764.62,-120 2758.62,-120"/>
<text text-anchor="middle" x="2743.62" y="-97.72" font-family="Times,serif" font-size="12.00">+</text>
</g>
<!-- n57&#45;&gt;n60 -->
<g id="edge60" class="edge">
<title>n57&#45;&gt;n60</title>
<path fill="none" stroke="black" d="M2638.83,-121.14C2657.88,-117.63 2683.89,-112.83 2705.11,-108.92"/>
<polygon fill="black" stroke="black" points="2705.64,-112.38 2714.84,-107.12 2704.37,-105.5 2705.64,-112.38"/>
<text text-anchor="middle" x="2665.88" y="-119.3" font-family="Times,serif" font-size="10.00">(0,1)</text>
</g>
<!-- n58 -->
<g id="node59" class="node">
<title>n58</title>
<path fill="none" stroke="black" d="M2517.75,-36C2517.75,-36 2456,-36 2456,-36 2450,-36 2444,-30 2444,-24 2444,-24 2444,-12 2444,-12 2444,-6 2450,0 2456,0 2456,0 2517.75,0 2517.75,0 2523.75,0 2529.75,-6 2529.75,-12 2529.75,-12 2529.75,-24 2529.75,-24 2529.75,-30 2523.75,-36 2517.75,-36"/>
<text text-anchor="middle" x="2486.88" y="-13.72" font-family="Times,serif" font-size="12.00">const 1000003</text>
</g>
<!-- n58&#45;&gt;n59 -->
<g id="edge58" class="edge">
<title>n58&#45;&gt;n59</title>
<path fill="none" stroke="black" d="M2529.73,-36.43C2544.11,-42.76 2560.07,-49.79 2573.99,-55.92"/>
<polygon fill="black" stroke="black" points="2572.22,-58.97 2582.79,-59.8 2575.05,-52.56 2572.22,-58.97"/>
<text text-anchor="middle" x="2557.12" y="-53.17" font-family="Times,serif" font-size="10.00">(0,1)</text>
</g>
<!-- n59&#45;&gt;n60 -->
<g id="edge59" class="edge">
<title>n59&#45;&gt;n60</title>
<path fill="none" stroke="black" d="M2638.83,-78.07C2657.97,-82.48 2684.13,-88.52 2705.41,-93.42"/>
<polygon fill="black" stroke="black" points="2704.33,-96.76 2714.86,-95.6 2705.9,-89.94 2704.33,-96.76"/>
<text text-anchor="middle" x="2665.88" y="-87.85" font-family="Times,serif" font-size="10.00">(0,0)</text>
</g>
<!-- n89 -->
<g id="node90" class="node">
<title>n89</title>
<path fill="none" stroke="black" d="M2938.25,-113C2938.25,-113 2860.75,-113 2860.75,-113 2854.75,-113 2848.75,-107 2848.75,-101 2848.75,-101 2848.75,-89 2848.75,-89 2848.75,-83 2854.75,-77 2860.75,-77 2860.75,-77 2938.25,-77 2938.25,-77 2944.25,-77 2950.25,-83 2950.25,-89 2950.25,-89 2950.25,-101 2950.25,-101 2950.25,-107 2944.25,-113 2938.25,-113"/>
<text text-anchor="middle" x="2899.5" y="-90.72" font-family="Times,serif" font-size="12.00">callsnd sumList#0</text>
</g>
<!-- n60&#45;&gt;n89 -->
<g id="edge90" class="edge">
<title>n60&#45;&gt;n89</title>
<path fill="none" stroke="black" d="M2771.08,-100.8C2789.23,-99.97 2814.11,-98.84 2837.06,-97.8"/>
<polygon fill="black" stroke="black" points="2837.14,-101.29 2846.98,-97.34 2836.83,-94.3 2837.14,-101.29"/>
<text text-anchor="middle" x="2821.38" y="-100.67" font-family="Times,serif" font-size="10.00">(0,0)</text>
</g>
<!-- n61 -->
<g id="node62" class="node">
<title>n61</title>
<path fill="none" stroke="black" d="M71.5,-1026C71.5,-1026 12,-1026 12,-1026 6,-1026 0,-1020 0,-1014 0,-1014 0,-1002 0,-1002 0,-996 6,-990 12,-990 12,-990 71.5,-990 71.5,-990 77.5,-990 83.5,-996 83.5,-1002 83.5,-1002 83.5,-1014 83.5,-1014 83.5,-1020 77.5,-1026 71.5,-1026"/>
<text text-anchor="middle" x="41.75" y="-1003.73" font-family="Times,serif" font-size="12.00">arg sumList#0</text>
</g>
<!-- n64 -->
<g id="node65" class="node">
<title>n64</title>
<path fill="none" stroke="black" d="M196.12,-999C196.12,-999 166.12,-999 166.12,-999 160.12,-999 154.12,-993 154.12,-987 154.12,-987 154.12,-975 154.12,-975 154.12,-969 160.12,-963 166.12,-963 166.12,-963 196.12,-963 196.12,-963 202.12,-963 208.12,-969 208.12,-975 208.12,-975 208.12,-987 208.12,-987 208.12,-993 202.12,-999 196.12,-999"/>
<text text-anchor="middle" x="181.12" y="-976.73" font-family="Times,serif" font-size="12.00">==</text>
</g>
<!-- n61&#45;&gt;n64 -->
<g id="edge61" class="edge">
<title>n61&#45;&gt;n64</title>
<path fill="none" stroke="black" d="M83.97,-999.9C102.6,-996.24 124.46,-991.94 142.62,-988.37"/>
<polygon fill="black" stroke="black" points="143.05,-991.85 152.19,-986.49 141.7,-984.99 143.05,-991.85"/>
<text text-anchor="middle" x="110.88" y="-997.87" font-family="Times,serif" font-size="10.00">(0,0)</text>
</g>
<!-- n62 -->
<g id="node63" class="node">
<title>n62</title>
<path fill="none" stroke="black" d="M196.12,-880C196.12,-880 166.12,-880 166.12,-880 160.12,-880 154.12,-874 154.12,-868 154.12,-868 154.12,-856 154.12,-856 154.12,-850 160.12,-844 166.12,-844 166.12,-844 196.12,-844 196.12,-844 202.12,-844 208.12,-850 208.12,-856 208.12,-856 208.12,-868 208.12,-868 208.12,-874 202.12,-880 196.12,-880"/>
<text text-anchor="middle" x="181.12" y="-857.73" font-family="Times,serif" font-size="12.00">const 0</text>
</g>
<!-- n66 -->
<g id="node67" class="node">
<title>n66</title>
<path fill="none" stroke="black" d="M320.75,-945C320.75,-945 290.75,-945 290.75,-945 284.75,-945 278.75,-939 278.75,-933 278.75,-933 278.75,-921 278.75,-921 278.75,-915 284.75,-909 290.75,-909 290.75,-909 320.75,-909 320.75,-909 326.75,-909 332.75,-915 332.75,-921 332.75,-921 332.75,-933 332.75,-933 332.75,-939 326.75,-945 320.75,-945"/>
<text text-anchor="middle" x="305.75" y="-922.73" font-family="Times,serif" font-size="12.00">==</text>
</g>
<!-- n62&#45;&gt;n66 -->
<g id="edge63" class="edge">
<title>n62&#45;&gt;n66</title>
<path fill="none" stroke="black" d="M208.43,-875.94C225.97,-885.24 249.25,-897.58 268.54,-907.8"/>
<polygon fill="black" stroke="black" points="266.68,-910.78 277.15,-912.37 269.95,-904.59 266.68,-910.78"/>
<text text-anchor="middle" x="251.38" y="-903.98" font-family="Times,serif" font-size="10.00">(0,0)</text>
</g>
<!-- n70 -->
<g id="node71" class="node">
<title>n70</title>
<path fill="none" stroke="black" d="M320.75,-837C320.75,-837 290.75,-837 290.75,-837 284.75,-837 278.75,-831 278.75,-825 278.75,-825 278.75,-813 278.75,-813 278.75,-807 284.75,-801 290.75,-801 290.75,-801 320.75,-801 320.75,-801 326.75,-801 332.75,-807 332.75,-813 332.75,-813 332.75,-825 332.75,-825 332.75,-831 326.75,-837 320.75,-837"/>
<text text-anchor="middle" x="305.75" y="-814.73" font-family="Times,serif" font-size="12.00">+</text>
</g>
<!-- n62&#45;&gt;n70 -->
<g id="edge69" class="edge">
<title>n62&#45;&gt;n70</title>
<path fill="none" stroke="black" d="M208.43,-852.78C225.73,-846.71 248.61,-838.69 267.73,-831.98"/>
<polygon fill="black" stroke="black" points="268.78,-835.32 277.06,-828.71 266.46,-828.72 268.78,-835.32"/>
<text text-anchor="middle" x="251.38" y="-842.25" font-family="Times,serif" font-size="10.00">(0,0)</text>
</g>
<!-- n63 -->
<g id="node64" class="node">
<title>n63</title>
<path fill="none" stroke="black" d="M56.75,-972C56.75,-972 26.75,-972 26.75,-972 20.75,-972 14.75,-966 14.75,-960 14.75,-960 14.75,-948 14.75,-948 14.75,-942 20.75,-936 26.75,-936 26.75,-936 56.75,-936 56.75,-936 62.75,-936 68.75,-942 68.75,-948 68.75,-948 68.75,-960 68.75,-960 68.75,-966 62.75,-972 56.75,-972"/>
<text text-anchor="middle" x="41.75" y="-949.73" font-family="Times,serif" font-size="12.00">const &#45;1</text>
</g>
<!-- n63&#45;&gt;n64 -->
<g id="edge62" class="edge">
<title>n63&#45;&gt;n64</title>
<path fill="none" stroke="black" d="M69.24,-959.21C90.05,-963.3 119.3,-969.04 142.53,-973.61"/>
<polygon fill="black" stroke="black" points="141.75,-977.02 152.23,-975.52 143.1,-970.16 141.75,-977.02"/>
<text text-anchor="middle" x="110.88" y="-970.87" font-family="Times,serif" font-size="10.00">(0,1)</text>
</g>
<!-- n67 -->
<g id="node68" class="node">
<title>n67</title>
<path fill="none" stroke="black" d="M452.88,-1002C452.88,-1002 422.88,-1002 422.88,-1002 416.88,-1002 410.88,-996 410.88,-990 410.88,-990 410.88,-978 410.88,-978 410.88,-972 416.88,-966 422.88,-966 422.88,-966 452.88,-966 452.88,-966 458.88,-966 464.88,-972 464.88,-978 464.88,-978 464.88,-990 464.88,-990 464.88,-996 458.88,-1002 452.88,-1002"/>
<text text-anchor="middle" x="437.88" y="-979.73" font-family="Times,serif" font-size="12.00">band</text>
</g>
<!-- n64&#45;&gt;n67 -->
<g id="edge65" class="edge">
<title>n64&#45;&gt;n67</title>
<path fill="none" stroke="black" d="M208.43,-981.31C253.83,-981.84 347.07,-982.94 399.3,-983.56"/>
<polygon fill="black" stroke="black" points="399.16,-987.06 409.2,-983.67 399.24,-980.06 399.16,-987.06"/>
<text text-anchor="middle" x="305.75" y="-984.5" font-family="Times,serif" font-size="10.00">(0,0)</text>
</g>
<!-- n64&#45;&gt;n70 -->
<g id="edge70" class="edge">
<title>n64&#45;&gt;n70</title>
<path fill="none" stroke="black" d="M208.38,-972.51C225.89,-965.48 247.97,-953.74 260.75,-936 282.73,-905.49 263.41,-885.46 279.59,-847.46"/>
<polygon fill="black" stroke="black" points="282.6,-849.28 283.86,-838.76 276.32,-846.2 282.6,-849.28"/>
<text text-anchor="middle" x="251.38" y="-954.98" font-family="Times,serif" font-size="10.00">(0,1)</text>
</g>
<!-- n65 -->
<g id="node66" class="node">
<title>n65</title>
<path fill="none" stroke="black" d="M196.12,-942C196.12,-942 166.12,-942 166.12,-942 160.12,-942 154.12,-936 154.12,-930 154.12,-930 154.12,-918 154.12,-918 154.12,-912 160.12,-906 166.12,-906 166.12,-906 196.12,-906 196.12,-906 202.12,-906 208.12,-912 208.12,-918 208.12,-918 208.12,-930 208.12,-930 208.12,-936 202.12,-942 196.12,-942"/>
<text text-anchor="middle" x="181.12" y="-919.73" font-family="Times,serif" font-size="12.00">const 0</text>
</g>
<!-- n65&#45;&gt;n66 -->
<g id="edge64" class="edge">
<title>n65&#45;&gt;n66</title>
<path fill="none" stroke="black" d="M208.34,-923.98C223.63,-924.03 243.29,-924.22 260.75,-924.75 262.93,-924.82 265.17,-924.9 267.43,-924.98"/>
<polygon fill="black" stroke="black" points="267.04,-928.47 277.19,-925.42 267.35,-921.48 267.04,-928.47"/>
<text text-anchor="middle" x="251.38" y="-926.5" font-family="Times,serif" font-size="10.00">(0,1)</text>
</g>
<!-- n66&#45;&gt;n67 -->
<g id="edge66" class="edge">
<title>n66&#45;&gt;n67</title>
<path fill="none" stroke="black" d="M333.08,-938.53C352.4,-946.99 378.87,-958.59 400.24,-967.95"/>
<polygon fill="black" stroke="black" points="398.63,-971.07 409.2,-971.88 401.44,-964.66 398.63,-971.07"/>
<text text-anchor="middle" x="360.12" y="-955.54" font-family="Times,serif" font-size="10.00">(0,1)</text>
</g>
<!-- n69 -->
<g id="node70" class="node">
<title>n69</title>
<path fill="none" stroke="black" d="M608.75,-1002C608.75,-1002 578.75,-1002 578.75,-1002 572.75,-1002 566.75,-996 566.75,-990 566.75,-990 566.75,-978 566.75,-978 566.75,-972 572.75,-966 578.75,-966 578.75,-966 608.75,-966 608.75,-966 614.75,-966 620.75,-972 620.75,-978 620.75,-978 620.75,-990 620.75,-990 620.75,-996 614.75,-1002 608.75,-1002"/>
<text text-anchor="middle" x="593.75" y="-979.73" font-family="Times,serif" font-size="12.00">steer</text>
</g>
<!-- n67&#45;&gt;n69 -->
<g id="edge68" class="edge">
<title>n67&#45;&gt;n69</title>
<path fill="none" stroke="black" d="M465.33,-984C490.06,-984 527.27,-984 555.1,-984"/>
<polygon fill="black" stroke="black" points="554.87,-987.5 564.87,-984 554.87,-980.5 554.87,-987.5"/>
<text text-anchor="middle" x="515.62" y="-985.75" font-family="Times,serif" font-size="10.00">(0,1)</text>
</g>
<!-- n68 -->
<g id="node69" class="node">
<title>n68</title>
<path fill="none" stroke="black" d="M452.88,-948C452.88,-948 422.88,-948 422.88,-948 416.88,-948 410.88,-942 410.88,-936 410.88,-936 410.88,-924 410.88,-924 410.88,-918 416.88,-912 422.88,-912 422.88,-912 452.88,-912 452.88,-912 458.88,-912 464.88,-918 464.88,-924 464.88,-924 464.88,-936 464.88,-936 464.88,-942 458.88,-948 452.88,-948"/>
<text text-anchor="middle" x="437.88" y="-925.73" font-family="Times,serif" font-size="12.00">const 0</text>
</g>
<!-- n68&#45;&gt;n69 -->
<g id="edge67" class="edge">
<title>n68&#45;&gt;n69</title>
<path fill="none" stroke="black" d="M465.33,-939.28C490.28,-948.04 527.93,-961.25 555.84,-971.05"/>
<polygon fill="black" stroke="black" points="554.36,-974.24 564.96,-974.25 556.68,-967.63 554.36,-974.24"/>
<text text-anchor="middle" x="515.62" y="-960.37" font-family="Times,serif" font-size="10.00">(0,0)</text>
</g>
<!-- n87 -->
<g id="node88" class="node">
<title>n87</title>
<path fill="none" stroke="black" d="M1013.62,-937C1013.62,-937 969.12,-937 969.12,-937 963.12,-937 957.12,-931 957.12,-925 957.12,-925 957.12,-913 957.12,-913 957.12,-907 963.12,-901 969.12,-901 969.12,-901 1013.62,-901 1013.62,-901 1019.62,-901 1025.62,-907 1025.62,-913 1025.62,-913 1025.62,-925 1025.62,-925 1025.62,-931 1019.62,-937 1013.62,-937"/>
<text text-anchor="middle" x="991.38" y="-914.73" font-family="Times,serif" font-size="12.00">ret sumList</text>
</g>
<!-- n69&#45;&gt;n87 -->
<g id="edge88" class="edge">
<title>n69&#45;&gt;n87</title>
<path fill="none" stroke="black" d="M621.01,-979.68C687.37,-968.78 862.37,-940.03 945.41,-926.39"/>
<polygon fill="black" stroke="black" points="945.94,-929.85 955.24,-924.77 944.81,-922.94 945.94,-929.85"/>
<text text-anchor="middle" x="812.38" y="-951" font-family="Times,serif" font-size="10.00">(T,0)</text>
</g>
<!-- n72 -->
<g id="node73" class="node">
<title>n72</title>
<path fill="none" stroke="black" d="M452.88,-837C452.88,-837 422.88,-837 422.88,-837 416.88,-837 410.88,-831 410.88,-825 410.88,-825 410.88,-813 410.88,-813 410.88,-807 416.88,-801 422.88,-801 422.88,-801 452.88,-801 452.88,-801 458.88,-801 464.88,-807 464.88,-813 464.88,-813 464.88,-825 464.88,-825 464.88,-831 458.88,-837 452.88,-837"/>
<text text-anchor="middle" x="437.88" y="-814.73" font-family="Times,serif" font-size="12.00">&gt;</text>
</g>
<!-- n70&#45;&gt;n72 -->
<g id="edge71" class="edge">
<title>n70&#45;&gt;n72</title>
<path fill="none" stroke="black" d="M333.08,-819C352.13,-819 378.14,-819 399.36,-819"/>
<polygon fill="black" stroke="black" points="399.07,-822.5 409.07,-819 399.07,-815.5 399.07,-822.5"/>
<text text-anchor="middle" x="360.12" y="-820.75" font-family="Times,serif" font-size="10.00">(0,0)</text>
</g>
<!-- n71 -->
<g id="node72" class="node">
<title>n71</title>
<path fill="none" stroke="black" d="M320.75,-891C320.75,-891 290.75,-891 290.75,-891 284.75,-891 278.75,-885 278.75,-879 278.75,-879 278.75,-867 278.75,-867 278.75,-861 284.75,-855 290.75,-855 290.75,-855 320.75,-855 320.75,-855 326.75,-855 332.75,-861 332.75,-867 332.75,-867 332.75,-879 332.75,-879 332.75,-885 326.75,-891 320.75,-891"/>
<text text-anchor="middle" x="305.75" y="-868.73" font-family="Times,serif" font-size="12.00">const 0</text>
</g>
<!-- n71&#45;&gt;n72 -->
<g id="edge72" class="edge">
<title>n71&#45;&gt;n72</title>
<path fill="none" stroke="black" d="M333.08,-862.07C352.31,-854.09 378.63,-843.17 399.95,-834.32"/>
<polygon fill="black" stroke="black" points="401.29,-837.56 409.18,-830.49 398.61,-831.09 401.29,-837.56"/>
<text text-anchor="middle" x="360.12" y="-855.74" font-family="Times,serif" font-size="10.00">(0,1)</text>
</g>
<!-- n75 -->
<g id="node76" class="node">
<title>n75</title>
<path fill="none" stroke="black" d="M608.75,-793C608.75,-793 578.75,-793 578.75,-793 572.75,-793 566.75,-787 566.75,-781 566.75,-781 566.75,-769 566.75,-769 566.75,-763 572.75,-757 578.75,-757 578.75,-757 608.75,-757 608.75,-757 614.75,-757 620.75,-763 620.75,-769 620.75,-769 620.75,-781 620.75,-781 620.75,-787 614.75,-793 608.75,-793"/>
<text text-anchor="middle" x="593.75" y="-770.73" font-family="Times,serif" font-size="12.00">==</text>
</g>
<!-- n72&#45;&gt;n75 -->
<g id="edge73" class="edge">
<title>n72&#45;&gt;n75</title>
<path fill="none" stroke="black" d="M465.24,-803.43C477.35,-796.95 492.13,-789.98 506.25,-785.75 521.96,-781.04 539.87,-778.4 555.3,-776.91"/>
<polygon fill="black" stroke="black" points="555.36,-780.41 565.04,-776.1 554.78,-773.44 555.36,-780.41"/>
<text text-anchor="middle" x="515.62" y="-787.5" font-family="Times,serif" font-size="10.00">(0,0)</text>
</g>
<!-- n84 -->
<g id="node85" class="node">
<title>n84</title>
<path fill="none" stroke="black" d="M608.75,-948C608.75,-948 578.75,-948 578.75,-948 572.75,-948 566.75,-942 566.75,-936 566.75,-936 566.75,-924 566.75,-924 566.75,-918 572.75,-912 578.75,-912 578.75,-912 608.75,-912 608.75,-912 614.75,-912 620.75,-918 620.75,-924 620.75,-924 620.75,-936 620.75,-936 620.75,-942 614.75,-948 608.75,-948"/>
<text text-anchor="middle" x="593.75" y="-925.73" font-family="Times,serif" font-size="12.00">+</text>
</g>
<!-- n72&#45;&gt;n84 -->
<g id="edge84" class="edge">
<title>n72&#45;&gt;n84</title>
<path fill="none" stroke="black" d="M465.23,-833.51C472.89,-838.13 481.11,-843.47 488.25,-849 506.27,-862.95 508.83,-868.69 525,-884.75 533.08,-892.78 533.89,-896.15 543,-903 547.24,-906.19 551.91,-909.24 556.64,-912.06"/>
<polygon fill="black" stroke="black" points="554.55,-914.9 564.98,-916.76 557.99,-908.8 554.55,-914.9"/>
<text text-anchor="middle" x="515.62" y="-886.5" font-family="Times,serif" font-size="10.00">(0,0)</text>
</g>
<!-- n73 -->
<g id="node74" class="node">
<title>n73</title>
<path fill="none" stroke="black" d="M452.88,-894C452.88,-894 422.88,-894 422.88,-894 416.88,-894 410.88,-888 410.88,-882 410.88,-882 410.88,-870 410.88,-870 410.88,-864 416.88,-858 422.88,-858 422.88,-858 452.88,-858 452.88,-858 458.88,-858 464.88,-864 464.88,-870 464.88,-870 464.88,-882 464.88,-882 464.88,-888 458.88,-894 452.88,-894"/>
<text text-anchor="middle" x="437.88" y="-871.73" font-family="Times,serif" font-size="12.00">const 1</text>
</g>
<!-- n76 -->
<g id="node77" class="node">
<title>n76</title>
<path fill="none" stroke="black" d="M757.12,-827C757.12,-827 727.12,-827 727.12,-827 721.12,-827 715.12,-821 715.12,-815 715.12,-815 715.12,-803 715.12,-803 715.12,-797 721.12,-791 727.12,-791 727.12,-791 757.12,-791 757.12,-791 763.12,-791 769.12,-797 769.12,-803 769.12,-803 769.12,-815 769.12,-815 769.12,-821 763.12,-827 757.12,-827"/>
<text text-anchor="middle" x="742.12" y="-804.73" font-family="Times,serif" font-size="12.00">band</text>
</g>
<!-- n73&#45;&gt;n76 -->
<g id="edge75" class="edge">
<title>n73&#45;&gt;n76</title>
<path fill="none" stroke="black" d="M465.36,-864.53C486.12,-855.97 515.93,-844.61 543,-837.75 597.93,-823.84 663.24,-815.99 703.44,-812.12"/>
<polygon fill="black" stroke="black" points="703.68,-815.61 713.32,-811.2 703.04,-808.64 703.68,-815.61"/>
<text text-anchor="middle" x="593.75" y="-839.5" font-family="Times,serif" font-size="10.00">(0,0)</text>
</g>
<!-- n73&#45;&gt;n84 -->
<g id="edge85" class="edge">
<title>n73&#45;&gt;n84</title>
<path fill="none" stroke="black" d="M465.33,-885.28C490.28,-894.04 527.93,-907.25 555.84,-917.05"/>
<polygon fill="black" stroke="black" points="554.36,-920.24 564.96,-920.25 556.68,-913.63 554.36,-920.24"/>
<text text-anchor="middle" x="515.62" y="-906.37" font-family="Times,serif" font-size="10.00">(0,1)</text>
</g>
<!-- n74 -->
<g id="node75" class="node">
<title>n74</title>
<path fill="none" stroke="black" d="M452.88,-769C452.88,-769 422.88,-769 422.88,-769 416.88,-769 410.88,-763 410.88,-757 410.88,-757 410.88,-745 410.88,-745 410.88,-739 416.88,-733 422.88,-733 422.88,-733 452.88,-733 452.88,-733 458.88,-733 464.88,-739 464.88,-745 464.88,-745 464.88,-757 464.88,-757 464.88,-763 458.88,-769 452.88,-769"/>
<text text-anchor="middle" x="437.88" y="-746.73" font-family="Times,serif" font-size="12.00">const 0</text>
</g>
<!-- n74&#45;&gt;n75 -->
<g id="edge74" class="edge">
<title>n74&#45;&gt;n75</title>
<path fill="none" stroke="black" d="M465.07,-749.06C482.24,-748.32 505.1,-748.34 525,-751.75 535.24,-753.5 546.01,-756.59 555.88,-759.95"/>
<polygon fill="black" stroke="black" points="554.54,-763.19 565.14,-763.29 556.92,-756.61 554.54,-763.19"/>
<text text-anchor="middle" x="515.62" y="-753.5" font-family="Times,serif" font-size="10.00">(0,1)</text>
</g>
<!-- n75&#45;&gt;n76 -->
<g id="edge76" class="edge">
<title>n75&#45;&gt;n76</title>
<path fill="none" stroke="black" d="M620.92,-781.08C643.98,-786.44 677.85,-794.3 703.77,-800.32"/>
<polygon fill="black" stroke="black" points="702.68,-803.66 713.21,-802.52 704.27,-796.85 702.68,-803.66"/>
<text text-anchor="middle" x="671.88" y="-796.8" font-family="Times,serif" font-size="10.00">(0,1)</text>
</g>
<!-- n83 -->
<g id="node84" class="node">
<title>n83</title>
<path fill="none" stroke="black" d="M881.75,-827C881.75,-827 851.75,-827 851.75,-827 845.75,-827 839.75,-821 839.75,-815 839.75,-815 839.75,-803 839.75,-803 839.75,-797 845.75,-791 851.75,-791 851.75,-791 881.75,-791 881.75,-791 887.75,-791 893.75,-797 893.75,-803 893.75,-803 893.75,-815 893.75,-815 893.75,-821 887.75,-827 881.75,-827"/>
<text text-anchor="middle" x="866.75" y="-804.73" font-family="Times,serif" font-size="12.00">steer</text>
</g>
<!-- n76&#45;&gt;n83 -->
<g id="edge83" class="edge">
<title>n76&#45;&gt;n83</title>
<path fill="none" stroke="black" d="M769.43,-809C786.56,-809 809.18,-809 828.2,-809"/>
<polygon fill="black" stroke="black" points="827.97,-812.5 837.97,-809 827.97,-805.5 827.97,-812.5"/>
<text text-anchor="middle" x="812.38" y="-810.75" font-family="Times,serif" font-size="10.00">(0,1)</text>
</g>
<!-- n77 -->
<g id="node78" class="node">
<title>n77</title>
<path fill="none" stroke="black" d="M608.75,-630C608.75,-630 578.75,-630 578.75,-630 572.75,-630 566.75,-624 566.75,-618 566.75,-618 566.75,-606 566.75,-606 566.75,-600 572.75,-594 578.75,-594 578.75,-594 608.75,-594 608.75,-594 614.75,-594 620.75,-600 620.75,-606 620.75,-606 620.75,-618 620.75,-618 620.75,-624 614.75,-630 608.75,-630"/>
<text text-anchor="middle" x="593.75" y="-607.73" font-family="Times,serif" font-size="12.00">arg h</text>
</g>
<!-- n82 -->
<g id="node83" class="node">
<title>n82</title>
<path fill="none" stroke="black" d="M757.12,-738C757.12,-738 727.12,-738 727.12,-738 721.12,-738 715.12,-732 715.12,-726 715.12,-726 715.12,-714 715.12,-714 715.12,-708 721.12,-702 727.12,-702 727.12,-702 757.12,-702 757.12,-702 763.12,-702 769.12,-708 769.12,-714 769.12,-714 769.12,-726 769.12,-726 769.12,-732 763.12,-738 757.12,-738"/>
<text text-anchor="middle" x="742.12" y="-715.73" font-family="Times,serif" font-size="12.00">+</text>
</g>
<!-- n77&#45;&gt;n82 -->
<g id="edge80" class="edge">
<title>n77&#45;&gt;n82</title>
<path fill="none" stroke="black" d="M621.15,-625.06C628.87,-629.21 637.19,-634.02 644.5,-639 669.03,-655.69 694.67,-677.41 713.37,-694.16"/>
<polygon fill="black" stroke="black" points="710.81,-696.57 720.58,-700.69 715.51,-691.38 710.81,-696.57"/>
<text text-anchor="middle" x="671.88" y="-667.79" font-family="Times,serif" font-size="10.00">(0,0)</text>
</g>
<!-- n78 -->
<g id="node79" class="node">
<title>n78</title>
<path fill="none" stroke="black" d="M452.88,-661C452.88,-661 422.88,-661 422.88,-661 416.88,-661 410.88,-655 410.88,-649 410.88,-649 410.88,-637 410.88,-637 410.88,-631 416.88,-625 422.88,-625 422.88,-625 452.88,-625 452.88,-625 458.88,-625 464.88,-631 464.88,-637 464.88,-637 464.88,-649 464.88,-649 464.88,-655 458.88,-661 452.88,-661"/>
<text text-anchor="middle" x="437.88" y="-638.73" font-family="Times,serif" font-size="12.00">arg t</text>
</g>
<!-- n80 -->
<g id="node81" class="node">
<title>n80</title>
<path fill="none" stroke="black" d="M632.5,-684C632.5,-684 555,-684 555,-684 549,-684 543,-678 543,-672 543,-672 543,-660 543,-660 543,-654 549,-648 555,-648 555,-648 632.5,-648 632.5,-648 638.5,-648 644.5,-654 644.5,-660 644.5,-660 644.5,-672 644.5,-672 644.5,-678 638.5,-684 632.5,-684"/>
<text text-anchor="middle" x="593.75" y="-661.73" font-family="Times,serif" font-size="12.00">callsnd sumList#0</text>
</g>
<!-- n78&#45;&gt;n80 -->
<g id="edge77" class="edge">
<title>n78&#45;&gt;n80</title>
<path fill="none" stroke="black" d="M465.05,-641.62C482.21,-641.18 505.08,-641.49 525,-644.75 527.19,-645.11 529.41,-645.52 531.64,-645.98"/>
<polygon fill="black" stroke="black" points="530.81,-649.38 541.34,-648.26 532.41,-642.57 530.81,-649.38"/>
<text text-anchor="middle" x="515.62" y="-646.5" font-family="Times,serif" font-size="10.00">(0,0)</text>
</g>
<!-- n79 -->
<g id="node80" class="node">
<title>n79</title>
<path fill="none" stroke="black" d="M476.25,-715C476.25,-715 399.5,-715 399.5,-715 393.5,-715 387.5,-709 387.5,-703 387.5,-703 387.5,-691 387.5,-691 387.5,-685 393.5,-679 399.5,-679 399.5,-679 476.25,-679 476.25,-679 482.25,-679 488.25,-685 488.25,-691 488.25,-691 488.25,-703 488.25,-703 488.25,-709 482.25,-715 476.25,-715"/>
<text text-anchor="middle" x="437.88" y="-692.73" font-family="Times,serif" font-size="12.00">callgroup sumList</text>
</g>
<!-- n79&#45;&gt;n80 -->
<g id="edge78" class="edge">
<title>n79&#45;&gt;n80</title>
<path fill="none" stroke="black" d="M488.41,-687.02C502.07,-684.27 517.05,-681.25 531.29,-678.38"/>
<polygon fill="black" stroke="black" points="531.92,-681.83 541.03,-676.42 530.54,-674.96 531.92,-681.83"/>
<text text-anchor="middle" x="515.62" y="-685.11" font-family="Times,serif" font-size="10.00">(0,1)</text>
</g>
<!-- n81 -->
<g id="node82" class="node">
<title>n81</title>
<path fill="none" stroke="black" d="M624.25,-738C624.25,-738 563.25,-738 563.25,-738 557.25,-738 551.25,-732 551.25,-726 551.25,-726 551.25,-714 551.25,-714 551.25,-708 557.25,-702 563.25,-702 563.25,-702 624.25,-702 624.25,-702 630.25,-702 636.25,-708 636.25,-714 636.25,-714 636.25,-726 636.25,-726 636.25,-732 630.25,-738 624.25,-738"/>
<text text-anchor="middle" x="593.75" y="-715.73" font-family="Times,serif" font-size="12.00">retsnd sumList</text>
</g>
<!-- n79&#45;&gt;n81 -->
<g id="edge79" class="edge">
<title>n79&#45;&gt;n81</title>
<path fill="none" stroke="black" d="M488.41,-704.4C504.76,-706.85 523,-709.57 539.61,-712.06"/>
<polygon fill="black" stroke="black" points="538.89,-715.49 549.3,-713.51 539.93,-708.57 538.89,-715.49"/>
<text text-anchor="middle" x="515.62" y="-710.94" font-family="Times,serif" font-size="10.00">(0,1)</text>
</g>
<!-- n81&#45;&gt;n82 -->
<g id="edge81" class="edge">
<title>n81&#45;&gt;n82</title>
<path fill="none" stroke="black" d="M636.7,-720C657.74,-720 683.03,-720 703.45,-720"/>
<polygon fill="black" stroke="black" points="703.33,-723.5 713.33,-720 703.33,-716.5 703.33,-723.5"/>
<text text-anchor="middle" x="671.88" y="-721.75" font-family="Times,serif" font-size="10.00">(0,1)</text>
</g>
<!-- n82&#45;&gt;n83 -->
<g id="edge82" class="edge">
<title>n82&#45;&gt;n83</title>
<path fill="none" stroke="black" d="M768.53,-738.44C786.7,-751.63 811.36,-769.53 831.3,-784"/>
<polygon fill="black" stroke="black" points="829,-786.65 839.15,-789.69 833.11,-780.99 829,-786.65"/>
<text text-anchor="middle" x="812.38" y="-776.84" font-family="Times,serif" font-size="10.00">(0,0)</text>
</g>
<!-- n83&#45;&gt;n87 -->
<g id="edge89" class="edge">
<title>n83&#45;&gt;n87</title>
<path fill="none" stroke="black" d="M888.27,-827.41C908.26,-845.34 938.82,-872.75 961.3,-892.92"/>
<polygon fill="black" stroke="black" points="958.88,-895.45 968.66,-899.52 963.55,-890.23 958.88,-895.45"/>
<text text-anchor="middle" x="921.12" y="-865.75" font-family="Times,serif" font-size="10.00">(T,0)</text>
</g>
<!-- n86 -->
<g id="node87" class="node">
<title>n86</title>
<path fill="none" stroke="black" d="M757.12,-911C757.12,-911 727.12,-911 727.12,-911 721.12,-911 715.12,-905 715.12,-899 715.12,-899 715.12,-887 715.12,-887 715.12,-881 721.12,-875 727.12,-875 727.12,-875 757.12,-875 757.12,-875 763.12,-875 769.12,-881 769.12,-887 769.12,-887 769.12,-899 769.12,-899 769.12,-905 763.12,-911 757.12,-911"/>
<text text-anchor="middle" x="742.12" y="-888.73" font-family="Times,serif" font-size="12.00">&gt;</text>
</g>
<!-- n84&#45;&gt;n86 -->
<g id="edge86" class="edge">
<title>n84&#45;&gt;n86</title>
<path fill="none" stroke="black" d="M620.92,-923.39C643.98,-917.55 677.85,-908.99 703.77,-902.44"/>
<polygon fill="black" stroke="black" points="704.38,-905.9 713.22,-900.05 702.67,-899.11 704.38,-905.9"/>
<text text-anchor="middle" x="671.88" y="-914.36" font-family="Times,serif" font-size="10.00">(0,0)</text>
</g>
<!-- n85 -->
<g id="node86" class="node">
<title>n85</title>
<path fill="none" stroke="black" d="M608.75,-894C608.75,-894 578.75,-894 578.75,-894 572.75,-894 566.75,-888 566.75,-882 566.75,-882 566.75,-870 566.75,-870 566.75,-864 572.75,-858 578.75,-858 578.75,-858 608.75,-858 608.75,-858 614.75,-858 620.75,-864 620.75,-870 620.75,-870 620.75,-882 620.75,-882 620.75,-888 614.75,-894 608.75,-894"/>
<text text-anchor="middle" x="593.75" y="-871.73" font-family="Times,serif" font-size="12.00">const 0</text>
</g>
<!-- n85&#45;&gt;n86 -->
<g id="edge87" class="edge">
<title>n85&#45;&gt;n86</title>
<path fill="none" stroke="black" d="M620.92,-879.04C643.88,-881.71 677.55,-885.62 703.42,-888.62"/>
<polygon fill="black" stroke="black" points="702.85,-892.08 713.19,-889.76 703.66,-885.12 702.85,-892.08"/>
<text text-anchor="middle" x="671.88" y="-887.77" font-family="Times,serif" font-size="10.00">(0,1)</text>
</g>
<!-- n88 -->
<g id="node89" class="node">
<title>n88</title>
<path fill="none" stroke="black" d="M2782,-59C2782,-59 2705.25,-59 2705.25,-59 2699.25,-59 2693.25,-53 2693.25,-47 2693.25,-47 2693.25,-35 2693.25,-35 2693.25,-29 2699.25,-23 2705.25,-23 2705.25,-23 2782,-23 2782,-23 2788,-23 2794,-29 2794,-35 2794,-35 2794,-47 2794,-47 2794,-53 2788,-59 2782,-59"/>
<text text-anchor="middle" x="2743.62" y="-36.73" font-family="Times,serif" font-size="12.00">callgroup sumList</text>
</g>
<!-- n88&#45;&gt;n89 -->
<g id="edge91" class="edge">
<title>n88&#45;&gt;n89</title>
<path fill="none" stroke="black" d="M2794.16,-58.38C2807.95,-63.22 2823.09,-68.54 2837.46,-73.58"/>
<polygon fill="black" stroke="black" points="2836.24,-76.86 2846.84,-76.87 2838.56,-70.26 2836.24,-76.86"/>
<text text-anchor="middle" x="2821.38" y="-71.37" font-family="Times,serif" font-size="10.00">(0,1)</text>
</g>
<!-- n90 -->
<g id="node91" class="node">
<title>n90</title>
<path fill="none" stroke="black" d="M2930,-52C2930,-52 2869,-52 2869,-52 2863,-52 2857,-46 2857,-40 2857,-40 2857,-28 2857,-28 2857,-22 2863,-16 2869,-16 2869,-16 2930,-16 2930,-16 2936,-16 2942,-22 2942,-28 2942,-28 2942,-40 2942,-40 2942,-46 2936,-52 2930,-52"/>
<text text-anchor="middle" x="2899.5" y="-29.73" font-family="Times,serif" font-size="12.00">retsnd sumList</text>
</g>
<!-- n88&#45;&gt;n90 -->
<g id="edge92" class="edge">
<title>n88&#45;&gt;n90</title>
<path fill="none" stroke="black" d="M2794.26,-35.92C2800.23,-35.45 2806.25,-35.04 2812,-34.75 2822.8,-34.2 2834.36,-33.9 2845.41,-33.76"/>
<polygon fill="black" stroke="black" points="2845.2,-37.26 2855.17,-33.67 2845.14,-30.26 2845.2,-37.26"/>
<text text-anchor="middle" x="2821.38" y="-36.5" font-family="Times,serif" font-size="10.00">(0,1)</text>
</g>
<!-- n91 -->
<g id="node92" class="node">
<title>n91</title>
<path fill="none" stroke="black" d="M3047.25,-52C3047.25,-52 3017,-52 3017,-52 3011,-52 3005,-46 3005,-40 3005,-40 3005,-28 3005,-28 3005,-22 3011,-16 3017,-16 3017,-16 3047.25,-16 3047.25,-16 3053.25,-16 3059.25,-22 3059.25,-28 3059.25,-28 3059.25,-40 3059.25,-40 3059.25,-46 3053.25,-52 3047.25,-52"/>
<text text-anchor="middle" x="3032.12" y="-29.73" font-family="Times,serif" font-size="12.00">ret main</text>
</g>
<!-- n90&#45;&gt;n91 -->
<g id="edge93" class="edge">
<title>n90&#45;&gt;n91</title>
<path fill="none" stroke="black" d="M2942.19,-34C2958.65,-34 2977.43,-34 2993.47,-34"/>
<polygon fill="black" stroke="black" points="2993.09,-37.5 3003.09,-34 2993.09,-30.5 2993.09,-37.5"/>
<text text-anchor="middle" x="2977.62" y="-35.75" font-family="Times,serif" font-size="10.00">(0,0)</text>
</g>
</g>
</svg>
