<?xml version="1.0" encoding="UTF-8" standalone="no"?>
<!DOCTYPE svg PUBLIC "-//W3C//DTD SVG 1.1//EN"
 "http://www.w3.org/Graphics/SVG/1.1/DTD/svg11.dtd">
<!-- Generated by graphviz version 12.2.1 (20241206.2353)
 -->
<!-- Title: G Pages: 1 -->
<svg width="522pt" height="456pt"
 viewBox="0.00 0.00 522.00 456.00" xmlns="http://www.w3.org/2000/svg" xmlns:xlink="http://www.w3.org/1999/xlink">
<g id="graph0" class="graph" transform="scale(1 1) rotate(0) translate(4 452)">
<title>G</title>
<polygon fill="white" stroke="none" points="-4,4 -4,-452 518,-452 518,4 -4,4"/>
<!-- n0 -->
<g id="node1" class="node">
<title>n0</title>
<path fill="none" stroke="black" d="M69.12,-206C69.12,-206 39.12,-206 39.12,-206 33.12,-206 27.12,-200 27.12,-194 27.12,-194 27.12,-182 27.12,-182 27.12,-176 33.12,-170 39.12,-170 39.12,-170 69.12,-170 69.12,-170 75.12,-170 81.12,-176 81.12,-182 81.12,-182 81.12,-194 81.12,-194 81.12,-200 75.12,-206 69.12,-206"/>
<text text-anchor="middle" x="54.12" y="-183.72" font-family="Times,serif" font-size="12.00">const 1</text>
</g>
<!-- n7 -->
<g id="node8" class="node">
<title>n7</title>
<path fill="none" stroke="black" d="M262.25,-167C262.25,-167 177.25,-167 177.25,-167 171.25,-167 165.25,-161 165.25,-155 165.25,-155 165.25,-143 165.25,-143 165.25,-137 171.25,-131 177.25,-131 177.25,-131 262.25,-131 262.25,-131 268.25,-131 274.25,-137 274.25,-143 274.25,-143 274.25,-155 274.25,-155 274.25,-161 268.25,-167 262.25,-167"/>
<text text-anchor="middle" x="219.75" y="-144.72" font-family="Times,serif" font-size="12.00">callsnd addThree#0</text>
</g>
<!-- n0&#45;&gt;n7 -->
<g id="edge6" class="edge">
<title>n0&#45;&gt;n7</title>
<path fill="none" stroke="black" d="M81.41,-181.73C101.01,-177.06 128.65,-170.48 154,-164.43"/>
<polygon fill="black" stroke="black" points="154.68,-167.87 163.6,-162.15 153.06,-161.06 154.68,-167.87"/>
<text text-anchor="middle" x="136.75" y="-172.59" font-family="Times,serif" font-size="10.00">(0,0)</text>
</g>
<!-- n1 -->
<g id="node2" class="node">
<title>n1</title>
<path fill="none" stroke="black" d="M69.12,-260C69.12,-260 39.12,-260 39.12,-260 33.12,-260 27.12,-254 27.12,-248 27.12,-248 27.12,-236 27.12,-236 27.12,-230 33.12,-224 39.12,-224 39.12,-224 69.12,-224 69.12,-224 75.12,-224 81.12,-230 81.12,-236 81.12,-236 81.12,-248 81.12,-248 81.12,-254 75.12,-260 69.12,-260"/>
<text text-anchor="middle" x="54.12" y="-237.72" font-family="Times,serif" font-size="12.00">const 2</text>
</g>
<!-- n8 -->
<g id="node9" class="node">
<title>n8</title>
<path fill="none" stroke="black" d="M262.25,-238C262.25,-238 177.25,-238 177.25,-238 171.25,-238 165.25,-232 165.25,-226 165.25,-226 165.25,-214 165.25,-214 165.25,-208 171.25,-202 177.25,-202 177.25,-202 262.25,-202 262.25,-202 268.25,-202 274.25,-208 274.25,-214 274.25,-214 274.25,-226 274.25,-226 274.25,-232 268.25,-238 262.25,-238"/>
<text text-anchor="middle" x="219.75" y="-215.72" font-family="Times,serif" font-size="12.00">callsnd addThree#1</text>
</g>
<!-- n1&#45;&gt;n8 -->
<g id="edge8" class="edge">
<title>n1&#45;&gt;n8</title>
<path fill="none" stroke="black" d="M81.41,-238.47C101.01,-235.83 128.65,-232.11 154,-228.71"/>
<polygon fill="black" stroke="black" points="154.13,-232.22 163.57,-227.42 153.19,-225.28 154.13,-232.22"/>
<text text-anchor="middle" x="136.75" y="-234.07" font-family="Times,serif" font-size="10.00">(0,0)</text>
</g>
<!-- n2 -->
<g id="node3" class="node">
<title>n2</title>
<path fill="none" stroke="black" d="M69.12,-36C69.12,-36 39.12,-36 39.12,-36 33.12,-36 27.12,-30 27.12,-24 27.12,-24 27.12,-12 27.12,-12 27.12,-6 33.12,0 39.12,0 39.12,0 69.12,0 69.12,0 75.12,0 81.12,-6 81.12,-12 81.12,-12 81.12,-24 81.12,-24 81.12,-30 75.12,-36 69.12,-36"/>
<text text-anchor="middle" x="54.12" y="-13.72" font-family="Times,serif" font-size="12.00">const 3</text>
</g>
<!-- n9 -->
<g id="node10" class="node">
<title>n9</title>
<path fill="none" stroke="black" d="M262.25,-43C262.25,-43 177.25,-43 177.25,-43 171.25,-43 165.25,-37 165.25,-31 165.25,-31 165.25,-19 165.25,-19 165.25,-13 171.25,-7 177.25,-7 177.25,-7 262.25,-7 262.25,-7 268.25,-7 274.25,-13 274.25,-19 274.25,-19 274.25,-31 274.25,-31 274.25,-37 268.25,-43 262.25,-43"/>
<text text-anchor="middle" x="219.75" y="-20.73" font-family="Times,serif" font-size="12.00">callsnd addThree#2</text>
</g>
<!-- n2&#45;&gt;n9 -->
<g id="edge10" class="edge">
<title>n2&#45;&gt;n9</title>
<path fill="none" stroke="black" d="M81.35,-17.66C99.79,-17.56 125.04,-17.69 147.25,-18.75 149.31,-18.85 151.4,-18.96 153.51,-19.08"/>
<polygon fill="black" stroke="black" points="153.19,-22.57 163.39,-19.73 153.65,-15.58 153.19,-22.57"/>
<text text-anchor="middle" x="136.75" y="-20.5" font-family="Times,serif" font-size="10.00">(0,0)</text>
</g>
<!-- n3 -->
<g id="node4" class="node">
<title>n3</title>
<path fill="none" stroke="black" d="M234.75,-448C234.75,-448 204.75,-448 204.75,-448 198.75,-448 192.75,-442 192.75,-436 192.75,-436 192.75,-424 192.75,-424 192.75,-418 198.75,-412 204.75,-412 204.75,-412 234.75,-412 234.75,-412 240.75,-412 246.75,-418 246.75,-424 246.75,-424 246.75,-436 246.75,-436 246.75,-442 240.75,-448 234.75,-448"/>
<text text-anchor="middle" x="219.75" y="-425.73" font-family="Times,serif" font-size="12.00">+</text>
</g>
<!-- n4 -->
<g id="node5" class="node">
<title>n4</title>
<path fill="none" stroke="black" d="M371.12,-421C371.12,-421 341.12,-421 341.12,-421 335.12,-421 329.12,-415 329.12,-409 329.12,-409 329.12,-397 329.12,-397 329.12,-391 335.12,-385 341.12,-385 341.12,-385 371.12,-385 371.12,-385 377.12,-385 383.12,-391 383.12,-397 383.12,-397 383.12,-409 383.12,-409 383.12,-415 377.12,-421 371.12,-421"/>
<text text-anchor="middle" x="356.12" y="-398.73" font-family="Times,serif" font-size="12.00">+</text>
</g>
<!-- n3&#45;&gt;n4 -->
<g id="edge3" class="edge">
<title>n3&#45;&gt;n4</title>
<path fill="none" stroke="black" d="M246.98,-424.73C267.14,-420.68 295.26,-415.03 317.77,-410.5"/>
<polygon fill="black" stroke="black" points="318.36,-413.96 327.48,-408.55 316.99,-407.09 318.36,-413.96"/>
<text text-anchor="middle" x="301.62" y="-416.63" font-family="Times,serif" font-size="10.00">(0,0)</text>
</g>
<!-- n5 -->
<g id="node6" class="node">
<title>n5</title>
<path fill="none" stroke="black" d="M502,-421C502,-421 450,-421 450,-421 444,-421 438,-415 438,-409 438,-409 438,-397 438,-397 438,-391 444,-385 450,-385 450,-385 502,-385 502,-385 508,-385 514,-391 514,-397 514,-397 514,-409 514,-409 514,-415 508,-421 502,-421"/>
<text text-anchor="middle" x="476" y="-398.73" font-family="Times,serif" font-size="12.00">ret addThree</text>
</g>
<!-- n4&#45;&gt;n5 -->
<g id="edge5" class="edge">
<title>n4&#45;&gt;n5</title>
<path fill="none" stroke="black" d="M383.58,-403C396.22,-403 411.76,-403 426.41,-403"/>
<polygon fill="black" stroke="black" points="426.39,-406.5 436.39,-403 426.39,-399.5 426.39,-406.5"/>
<text text-anchor="middle" x="410.62" y="-404.75" font-family="Times,serif" font-size="10.00">(0,0)</text>
</g>
<!-- n6 -->
<g id="node7" class="node">
<title>n6</title>
<path fill="none" stroke="black" d="M96.25,-121C96.25,-121 12,-121 12,-121 6,-121 0,-115 0,-109 0,-109 0,-97 0,-97 0,-91 6,-85 12,-85 12,-85 96.25,-85 96.25,-85 102.25,-85 108.25,-91 108.25,-97 108.25,-97 108.25,-109 108.25,-109 108.25,-115 102.25,-121 96.25,-121"/>
<text text-anchor="middle" x="54.12" y="-98.72" font-family="Times,serif" font-size="12.00">callgroup addThree</text>
</g>
<!-- n6&#45;&gt;n7 -->
<g id="edge7" class="edge">
<title>n6&#45;&gt;n7</title>
<path fill="none" stroke="black" d="M108.63,-111.56C121.39,-114.09 134.9,-117.15 147.25,-120.75 153.1,-122.45 159.13,-124.45 165.1,-126.57"/>
<polygon fill="black" stroke="black" points="163.7,-129.79 174.3,-129.98 166.14,-123.22 163.7,-129.79"/>
<text text-anchor="middle" x="136.75" y="-122.5" font-family="Times,serif" font-size="10.00">(0,1)</text>
</g>
<!-- n6&#45;&gt;n8 -->
<g id="edge9" class="edge">
<title>n6&#45;&gt;n8</title>
<path fill="none" stroke="black" d="M97.81,-121.39C114.24,-129.61 132.56,-140.28 147.25,-152.75 157.21,-161.2 156.15,-166.62 165.25,-176 171.43,-182.37 178.5,-188.73 185.43,-194.54"/>
<polygon fill="black" stroke="black" points="182.92,-197.01 192.88,-200.63 187.35,-191.59 182.92,-197.01"/>
<text text-anchor="middle" x="136.75" y="-154.5" font-family="Times,serif" font-size="10.00">(0,1)</text>
</g>
<!-- n6&#45;&gt;n9 -->
<g id="edge11" class="edge">
<title>n6&#45;&gt;n9</title>
<path fill="none" stroke="black" d="M93.9,-84.52C116.64,-73.67 145.58,-59.88 169.87,-48.3"/>
<polygon fill="black" stroke="black" points="171.08,-51.6 178.6,-44.14 168.07,-45.28 171.08,-51.6"/>
<text text-anchor="middle" x="136.75" y="-70.42" font-family="Times,serif" font-size="10.00">(0,1)</text>
</g>
<!-- n10 -->
<g id="node11" class="node">
<title>n10</title>
<path fill="none" stroke="black" d="M254,-104C254,-104 185.5,-104 185.5,-104 179.5,-104 173.5,-98 173.5,-92 173.5,-92 173.5,-80 173.5,-80 173.5,-74 179.5,-68 185.5,-68 185.5,-68 254,-68 254,-68 260,-68 266,-74 266,-80 266,-80 266,-92 266,-92 266,-98 260,-104 254,-104"/>
<text text-anchor="middle" x="219.75" y="-81.72" font-family="Times,serif" font-size="12.00">retsnd addThree</text>
</g>
<!-- n6&#45;&gt;n10 -->
<g id="edge12" class="edge">
<title>n6&#45;&gt;n10</title>
<path fill="none" stroke="black" d="M108.5,-89.5C114.46,-88.38 120.46,-87.43 126.25,-86.75 137.85,-85.39 150.33,-84.75 162.25,-84.52"/>
<polygon fill="black" stroke="black" points="161.98,-88.02 171.95,-84.43 161.92,-81.02 161.98,-88.02"/>
<text text-anchor="middle" x="136.75" y="-88.5" font-family="Times,serif" font-size="10.00">(0,1)</text>
</g>
<!-- n11 -->
<g id="node12" class="node">
<title>n11</title>
<path fill="none" stroke="black" d="M371.25,-104C371.25,-104 341,-104 341,-104 335,-104 329,-98 329,-92 329,-92 329,-80 329,-80 329,-74 335,-68 341,-68 341,-68 371.25,-68 371.25,-68 377.25,-68 383.25,-74 383.25,-80 383.25,-80 383.25,-92 383.25,-92 383.25,-98 377.25,-104 371.25,-104"/>
<text text-anchor="middle" x="356.12" y="-81.72" font-family="Times,serif" font-size="12.00">ret main</text>
</g>
<!-- n10&#45;&gt;n11 -->
<g id="edge13" class="edge">
<title>n10&#45;&gt;n11</title>
<path fill="none" stroke="black" d="M266.24,-86C283.03,-86 301.84,-86 317.82,-86"/>
<polygon fill="black" stroke="black" points="317.37,-89.5 327.37,-86 317.37,-82.5 317.37,-89.5"/>
<text text-anchor="middle" x="301.62" y="-87.75" font-family="Times,serif" font-size="10.00">(0,0)</text>
</g>
<!-- n12 -->
<g id="node13" class="node">
<title>n12</title>
<path fill="none" stroke="black" d="M234.75,-347C234.75,-347 204.75,-347 204.75,-347 198.75,-347 192.75,-341 192.75,-335 192.75,-335 192.75,-323 192.75,-323 192.75,-317 198.75,-311 204.75,-311 204.75,-311 234.75,-311 234.75,-311 240.75,-311 246.75,-317 246.75,-323 246.75,-323 246.75,-335 246.75,-335 246.75,-341 240.75,-347 234.75,-347"/>
<text text-anchor="middle" x="219.75" y="-324.73" font-family="Times,serif" font-size="12.00">+</text>
</g>
<!-- n13 -->
<g id="node14" class="node">
<title>n13</title>
<path fill="none" stroke="black" d="M371.12,-347C371.12,-347 341.12,-347 341.12,-347 335.12,-347 329.12,-341 329.12,-335 329.12,-335 329.12,-323 329.12,-323 329.12,-317 335.12,-311 341.12,-311 341.12,-311 371.12,-311 371.12,-311 377.12,-311 383.12,-317 383.12,-323 383.12,-323 383.12,-335 383.12,-335 383.12,-341 377.12,-347 371.12,-347"/>
<text text-anchor="middle" x="356.12" y="-324.73" font-family="Times,serif" font-size="12.00">+</text>
</g>
<!-- n12&#45;&gt;n13 -->
<g id="edge16" class="edge">
<title>n12&#45;&gt;n13</title>
<path fill="none" stroke="black" d="M246.98,-329C267.05,-329 295,-329 317.46,-329"/>
<polygon fill="black" stroke="black" points="317.45,-332.5 327.45,-329 317.45,-325.5 317.45,-332.5"/>
<text text-anchor="middle" x="301.62" y="-330.75" font-family="Times,serif" font-size="10.00">(0,0)</text>
</g>
<!-- n14 -->
<g id="node15" class="node">
<title>n14</title>
<path fill="none" stroke="black" d="M502,-347C502,-347 450,-347 450,-347 444,-347 438,-341 438,-335 438,-335 438,-323 438,-323 438,-317 444,-311 450,-311 450,-311 502,-311 502,-311 508,-311 514,-317 514,-323 514,-323 514,-335 514,-335 514,-341 508,-347 502,-347"/>
<text text-anchor="middle" x="476" y="-324.73" font-family="Times,serif" font-size="12.00">ret addThree</text>
</g>
<!-- n13&#45;&gt;n14 -->
<g id="edge18" class="edge">
<title>n13&#45;&gt;n14</title>
<path fill="none" stroke="black" d="M383.58,-329C396.22,-329 411.76,-329 426.41,-329"/>
<polygon fill="black" stroke="black" points="426.39,-332.5 436.39,-329 426.39,-325.5 426.39,-332.5"/>
<text text-anchor="middle" x="410.62" y="-330.75" font-family="Times,serif" font-size="10.00">(0,0)</text>
</g>
<!-- n -->
<g id="node16" class="node">
<title>n</title>
<path fill="none" stroke="black" d="M69.12,-442C69.12,-442 39.12,-442 39.12,-442 33.12,-442 27.12,-436 27.12,-430 27.12,-430 27.12,-418 27.12,-418 27.12,-412 33.12,-406 39.12,-406 39.12,-406 69.12,-406 69.12,-406 75.12,-406 81.12,-412 81.12,-418 81.12,-418 81.12,-430 81.12,-430 81.12,-436 75.12,-442 69.12,-442"/>
<text text-anchor="middle" x="54.12" y="-419.73" font-family="Times,serif" font-size="12.00">n</text>
</g>
<!-- &#45;1 -->
<g id="node17" class="node">
<title>&#45;1</title>
<path fill="none" stroke="black" d="M69.12,-388C69.12,-388 39.12,-388 39.12,-388 33.12,-388 27.12,-382 27.12,-376 27.12,-376 27.12,-364 27.12,-364 27.12,-358 33.12,-352 39.12,-352 39.12,-352 69.12,-352 69.12,-352 75.12,-352 81.12,-358 81.12,-364 81.12,-364 81.12,-376 81.12,-376 81.12,-382 75.12,-388 69.12,-388"/>
<text text-anchor="middle" x="54.12" y="-365.73" font-family="Times,serif" font-size="12.00">&#45;1</text>
</g>
<!-- &#45;1&#45;&gt;n3 -->
<g id="edge1" class="edge">
<title>&#45;1&#45;&gt;n3</title>
<path fill="none" stroke="black" d="M81.62,-379.81C90.79,-384.1 100.66,-389.82 108.25,-397 119.83,-407.95 112.53,-419.9 126.25,-428 142.59,-437.64 163.55,-438.81 181.38,-437.28"/>
<polygon fill="black" stroke="black" points="181.55,-440.78 191.06,-436.12 180.72,-433.83 181.55,-440.78"/>
<text text-anchor="middle" x="136.75" y="-437.51" font-family="Times,serif" font-size="10.00">(X,0)</text>
</g>
<!-- &#45;1&#45;&gt;n3 -->
<g id="edge2" class="edge">
<title>&#45;1&#45;&gt;n3</title>
<path fill="none" stroke="black" d="M81.41,-379.64C108.53,-389.58 151.05,-405.17 181.59,-416.38"/>
<polygon fill="black" stroke="black" points="180.24,-419.61 190.83,-419.76 182.65,-413.03 180.24,-419.61"/>
<text text-anchor="middle" x="136.75" y="-405.34" font-family="Times,serif" font-size="10.00">(Y,1)</text>
</g>
<!-- &#45;1&#45;&gt;n4 -->
<g id="edge4" class="edge">
<title>&#45;1&#45;&gt;n4</title>
<path fill="none" stroke="black" d="M81.47,-372.28C122.66,-375.92 204.78,-383.47 274.25,-391.75 288.55,-393.45 304.23,-395.58 317.95,-397.52"/>
<polygon fill="black" stroke="black" points="317.04,-400.92 327.44,-398.88 318.03,-393.99 317.04,-400.92"/>
<text text-anchor="middle" x="219.75" y="-393.5" font-family="Times,serif" font-size="10.00">(Z,1)</text>
</g>
<!-- &#45;1&#45;&gt;n12 -->
<g id="edge14" class="edge">
<title>&#45;1&#45;&gt;n12</title>
<path fill="none" stroke="black" d="M81.41,-363.41C108.41,-356.65 150.68,-346.06 181.19,-338.41"/>
<polygon fill="black" stroke="black" points="181.94,-341.83 190.79,-336.01 180.24,-335.04 181.94,-341.83"/>
<text text-anchor="middle" x="136.75" y="-353.7" font-family="Times,serif" font-size="10.00">(X,0)</text>
</g>
<!-- &#45;1&#45;&gt;n12 -->
<g id="edge15" class="edge">
<title>&#45;1&#45;&gt;n12</title>
<path fill="none" stroke="black" d="M81.58,-351.97C94.46,-344.2 110.54,-335.96 126.25,-331.75 143.9,-327.02 164.13,-325.96 181.16,-326.23"/>
<polygon fill="black" stroke="black" points="180.74,-329.71 190.86,-326.55 180.98,-322.72 180.74,-329.71"/>
<text text-anchor="middle" x="136.75" y="-333.5" font-family="Times,serif" font-size="10.00">(Y,1)</text>
</g>
<!-- &#45;1&#45;&gt;n13 -->
<g id="edge17" class="edge">
<title>&#45;1&#45;&gt;n13</title>
<path fill="none" stroke="black" d="M72.96,-351.6C93.2,-332.15 128.26,-302.68 165.25,-290.75 211.36,-275.88 226.98,-280.14 274.25,-290.75 289.59,-294.19 305.44,-300.89 319,-307.73"/>
<polygon fill="black" stroke="black" points="317.06,-310.67 327.54,-312.24 320.32,-304.48 317.06,-310.67"/>
<text text-anchor="middle" x="219.75" y="-292.5" font-family="Times,serif" font-size="10.00">(Z,1)</text>
</g>
</g>
</svg>
