<?xml version="1.0" encoding="UTF-8" standalone="no"?>
<!DOCTYPE svg PUBLIC "-//W3C//DTD SVG 1.1//EN"
 "http://www.w3.org/Graphics/SVG/1.1/DTD/svg11.dtd">
<!-- Generated by graphviz version 12.2.1 (20241206.2353)
 -->
<!-- Title: G Pages: 1 -->
<svg width="397pt" height="220pt"
 viewBox="0.00 0.00 397.25 220.00" xmlns="http://www.w3.org/2000/svg" xmlns:xlink="http://www.w3.org/1999/xlink">
<g id="graph0" class="graph" transform="scale(1 1) rotate(0) translate(4 216)">
<title>G</title>
<polygon fill="white" stroke="none" points="-4,4 -4,-216 393.25,-216 393.25,4 -4,4"/>
<!-- n0 -->
<g id="node1" class="node">
<title>n0</title>
<path fill="none" stroke="black" d="M66.88,-104C66.88,-104 36.88,-104 36.88,-104 30.88,-104 24.88,-98 24.88,-92 24.88,-92 24.88,-80 24.88,-80 24.88,-74 30.88,-68 36.88,-68 36.88,-68 66.88,-68 66.88,-68 72.88,-68 78.88,-74 78.88,-80 78.88,-80 78.88,-92 78.88,-92 78.88,-98 72.88,-104 66.88,-104"/>
<text text-anchor="middle" x="51.88" y="-81.72" font-family="Times,serif" font-size="12.00">const 1</text>
</g>
<!-- n6 -->
<g id="node7" class="node">
<title>n6</title>
<path fill="none" stroke="black" d="M251,-97C251,-97 170.5,-97 170.5,-97 164.5,-97 158.5,-91 158.5,-85 158.5,-85 158.5,-73 158.5,-73 158.5,-67 164.5,-61 170.5,-61 170.5,-61 251,-61 251,-61 257,-61 263,-67 263,-73 263,-73 263,-85 263,-85 263,-91 257,-97 251,-97"/>
<text text-anchor="middle" x="210.75" y="-74.72" font-family="Times,serif" font-size="12.00">callsnd negBool#0</text>
</g>
<!-- n0&#45;&gt;n6 -->
<g id="edge4" class="edge">
<title>n0&#45;&gt;n6</title>
<path fill="none" stroke="black" d="M79.13,-84.83C97.65,-84 123.26,-82.86 146.9,-81.8"/>
<polygon fill="black" stroke="black" points="146.97,-85.31 156.8,-81.36 146.65,-78.31 146.97,-85.31"/>
<text text-anchor="middle" x="131.12" y="-84.67" font-family="Times,serif" font-size="10.00">(0,0)</text>
</g>
<!-- n1 -->
<g id="node2" class="node">
<title>n1</title>
<path fill="none" stroke="black" d="M83.12,-212C83.12,-212 20.62,-212 20.62,-212 14.62,-212 8.62,-206 8.62,-200 8.62,-200 8.62,-188 8.62,-188 8.62,-182 14.62,-176 20.62,-176 20.62,-176 83.12,-176 83.12,-176 89.12,-176 95.12,-182 95.12,-188 95.12,-188 95.12,-200 95.12,-200 95.12,-206 89.12,-212 83.12,-212"/>
<text text-anchor="middle" x="51.88" y="-189.72" font-family="Times,serif" font-size="12.00">arg negBool#0</text>
</g>
<!-- n3 -->
<g id="node4" class="node">
<title>n3</title>
<path fill="none" stroke="black" d="M225.75,-158C225.75,-158 195.75,-158 195.75,-158 189.75,-158 183.75,-152 183.75,-146 183.75,-146 183.75,-134 183.75,-134 183.75,-128 189.75,-122 195.75,-122 195.75,-122 225.75,-122 225.75,-122 231.75,-122 237.75,-128 237.75,-134 237.75,-134 237.75,-146 237.75,-146 237.75,-152 231.75,-158 225.75,-158"/>
<text text-anchor="middle" x="210.75" y="-135.72" font-family="Times,serif" font-size="12.00">==</text>
</g>
<!-- n1&#45;&gt;n3 -->
<g id="edge1" class="edge">
<title>n1&#45;&gt;n3</title>
<path fill="none" stroke="black" d="M95.33,-179.39C119.5,-171.07 149.5,-160.74 172.71,-152.75"/>
<polygon fill="black" stroke="black" points="173.76,-156.09 182.08,-149.53 171.48,-149.47 173.76,-156.09"/>
<text text-anchor="middle" x="131.12" y="-171.98" font-family="Times,serif" font-size="10.00">(0,0)</text>
</g>
<!-- n2 -->
<g id="node3" class="node">
<title>n2</title>
<path fill="none" stroke="black" d="M66.88,-158C66.88,-158 36.88,-158 36.88,-158 30.88,-158 24.88,-152 24.88,-146 24.88,-146 24.88,-134 24.88,-134 24.88,-128 30.88,-122 36.88,-122 36.88,-122 66.88,-122 66.88,-122 72.88,-122 78.88,-128 78.88,-134 78.88,-134 78.88,-146 78.88,-146 78.88,-152 72.88,-158 66.88,-158"/>
<text text-anchor="middle" x="51.88" y="-135.72" font-family="Times,serif" font-size="12.00">const 0</text>
</g>
<!-- n2&#45;&gt;n3 -->
<g id="edge2" class="edge">
<title>n2&#45;&gt;n3</title>
<path fill="none" stroke="black" d="M79.13,-140C104.58,-140 143.45,-140 172.17,-140"/>
<polygon fill="black" stroke="black" points="171.89,-143.5 181.89,-140 171.89,-136.5 171.89,-143.5"/>
<text text-anchor="middle" x="131.12" y="-141.75" font-family="Times,serif" font-size="10.00">(0,1)</text>
</g>
<!-- n4 -->
<g id="node5" class="node">
<title>n4</title>
<path fill="none" stroke="black" d="M377.25,-158C377.25,-158 329.75,-158 329.75,-158 323.75,-158 317.75,-152 317.75,-146 317.75,-146 317.75,-134 317.75,-134 317.75,-128 323.75,-122 329.75,-122 329.75,-122 377.25,-122 377.25,-122 383.25,-122 389.25,-128 389.25,-134 389.25,-134 389.25,-146 389.25,-146 389.25,-152 383.25,-158 377.25,-158"/>
<text text-anchor="middle" x="353.5" y="-135.72" font-family="Times,serif" font-size="12.00">ret negBool</text>
</g>
<!-- n3&#45;&gt;n4 -->
<g id="edge3" class="edge">
<title>n3&#45;&gt;n4</title>
<path fill="none" stroke="black" d="M238.22,-140C257.28,-140 283.48,-140 305.99,-140"/>
<polygon fill="black" stroke="black" points="305.86,-143.5 315.86,-140 305.86,-136.5 305.86,-143.5"/>
<text text-anchor="middle" x="290.38" y="-141.75" font-family="Times,serif" font-size="10.00">(0,0)</text>
</g>
<!-- n5 -->
<g id="node6" class="node">
<title>n5</title>
<path fill="none" stroke="black" d="M91.75,-43C91.75,-43 12,-43 12,-43 6,-43 0,-37 0,-31 0,-31 0,-19 0,-19 0,-13 6,-7 12,-7 12,-7 91.75,-7 91.75,-7 97.75,-7 103.75,-13 103.75,-19 103.75,-19 103.75,-31 103.75,-31 103.75,-37 97.75,-43 91.75,-43"/>
<text text-anchor="middle" x="51.88" y="-20.73" font-family="Times,serif" font-size="12.00">callgroup negBool</text>
</g>
<!-- n5&#45;&gt;n6 -->
<g id="edge5" class="edge">
<title>n5&#45;&gt;n6</title>
<path fill="none" stroke="black" d="M104.24,-42.68C118.06,-47.44 133.15,-52.63 147.48,-57.57"/>
<polygon fill="black" stroke="black" points="146.24,-60.84 156.84,-60.79 148.52,-54.22 146.24,-60.84"/>
<text text-anchor="middle" x="131.12" y="-55.37" font-family="Times,serif" font-size="10.00">(0,1)</text>
</g>
<!-- n7 -->
<g id="node8" class="node">
<title>n7</title>
<path fill="none" stroke="black" d="M242.75,-36C242.75,-36 178.75,-36 178.75,-36 172.75,-36 166.75,-30 166.75,-24 166.75,-24 166.75,-12 166.75,-12 166.75,-6 172.75,0 178.75,0 178.75,0 242.75,0 242.75,0 248.75,0 254.75,-6 254.75,-12 254.75,-12 254.75,-24 254.75,-24 254.75,-30 248.75,-36 242.75,-36"/>
<text text-anchor="middle" x="210.75" y="-13.72" font-family="Times,serif" font-size="12.00">retsnd negBool</text>
</g>
<!-- n5&#45;&gt;n7 -->
<g id="edge6" class="edge">
<title>n5&#45;&gt;n7</title>
<path fill="none" stroke="black" d="M103.99,-19.89C109.97,-19.43 115.99,-19.04 121.75,-18.75 132.51,-18.22 144.02,-17.92 155.05,-17.77"/>
<polygon fill="black" stroke="black" points="154.83,-21.27 164.8,-17.68 154.77,-14.27 154.83,-21.27"/>
<text text-anchor="middle" x="131.12" y="-20.5" font-family="Times,serif" font-size="10.00">(0,1)</text>
</g>
<!-- n8 -->
<g id="node9" class="node">
<title>n8</title>
<path fill="none" stroke="black" d="M368.62,-36C368.62,-36 338.38,-36 338.38,-36 332.38,-36 326.38,-30 326.38,-24 326.38,-24 326.38,-12 326.38,-12 326.38,-6 332.38,0 338.38,0 338.38,0 368.62,0 368.62,0 374.62,0 380.62,-6 380.62,-12 380.62,-12 380.62,-24 380.62,-24 380.62,-30 374.62,-36 368.62,-36"/>
<text text-anchor="middle" x="353.5" y="-13.72" font-family="Times,serif" font-size="12.00">ret main</text>
</g>
<!-- n7&#45;&gt;n8 -->
<g id="edge7" class="edge">
<title>n7&#45;&gt;n8</title>
<path fill="none" stroke="black" d="M255.13,-18C274.21,-18 296.41,-18 314.8,-18"/>
<polygon fill="black" stroke="black" points="314.74,-21.5 324.74,-18 314.74,-14.5 314.74,-21.5"/>
<text text-anchor="middle" x="290.38" y="-19.75" font-family="Times,serif" font-size="10.00">(0,0)</text>
</g>
</g>
</svg>
