<?xml version="1.0" encoding="UTF-8" standalone="no"?>
<!DOCTYPE svg PUBLIC "-//W3C//DTD SVG 1.1//EN"
 "http://www.w3.org/Graphics/SVG/1.1/DTD/svg11.dtd">
<!-- Generated by graphviz version 12.2.1 (20241206.2353)
 -->
<!-- Title: G Pages: 1 -->
<svg width="566pt" height="239pt"
 viewBox="0.00 0.00 565.50 239.00" xmlns="http://www.w3.org/2000/svg" xmlns:xlink="http://www.w3.org/1999/xlink">
<g id="graph0" class="graph" transform="scale(1 1) rotate(0) translate(4 235)">
<title>G</title>
<polygon fill="white" stroke="none" points="-4,4 -4,-235 561.5,-235 561.5,4 -4,4"/>
<!-- n0 -->
<g id="node1" class="node">
<title>n0</title>
<path fill="none" stroke="black" d="M59.5,-104C59.5,-104 27.75,-104 27.75,-104 21.75,-104 15.75,-98 15.75,-92 15.75,-92 15.75,-80 15.75,-80 15.75,-74 21.75,-68 27.75,-68 27.75,-68 59.5,-68 59.5,-68 65.5,-68 71.5,-74 71.5,-80 71.5,-80 71.5,-92 71.5,-92 71.5,-98 65.5,-104 59.5,-104"/>
<text text-anchor="middle" x="43.62" y="-81.72" font-family="Times,serif" font-size="12.00">const 15</text>
</g>
<!-- n8 -->
<g id="node9" class="node">
<title>n8</title>
<path fill="none" stroke="black" d="M218,-97C218,-97 154,-97 154,-97 148,-97 142,-91 142,-85 142,-85 142,-73 142,-73 142,-67 148,-61 154,-61 154,-61 218,-61 218,-61 224,-61 230,-67 230,-73 230,-73 230,-85 230,-85 230,-91 224,-97 218,-97"/>
<text text-anchor="middle" x="186" y="-74.72" font-family="Times,serif" font-size="12.00">callsnd rem7#0</text>
</g>
<!-- n0&#45;&gt;n8 -->
<g id="edge8" class="edge">
<title>n0&#45;&gt;n8</title>
<path fill="none" stroke="black" d="M71.69,-84.65C88.35,-83.82 110.31,-82.72 130.45,-81.72"/>
<polygon fill="black" stroke="black" points="130.4,-85.23 140.21,-81.23 130.05,-78.24 130.4,-85.23"/>
<text text-anchor="middle" x="114.62" y="-84.67" font-family="Times,serif" font-size="10.00">(0,0)</text>
</g>
<!-- n1 -->
<g id="node2" class="node">
<title>n1</title>
<path fill="none" stroke="black" d="M66.62,-229C66.62,-229 20.63,-229 20.63,-229 14.62,-229 8.62,-223 8.62,-217 8.62,-217 8.62,-205 8.62,-205 8.62,-199 14.62,-193 20.62,-193 20.62,-193 66.62,-193 66.62,-193 72.62,-193 78.62,-199 78.62,-205 78.62,-205 78.62,-217 78.62,-217 78.62,-223 72.62,-229 66.62,-229"/>
<text text-anchor="middle" x="43.62" y="-206.72" font-family="Times,serif" font-size="12.00">arg rem7#0</text>
</g>
<!-- n3 -->
<g id="node4" class="node">
<title>n3</title>
<path fill="none" stroke="black" d="M201,-203C201,-203 171,-203 171,-203 165,-203 159,-197 159,-191 159,-191 159,-179 159,-179 159,-173 165,-167 171,-167 171,-167 201,-167 201,-167 207,-167 213,-173 213,-179 213,-179 213,-191 213,-191 213,-197 207,-203 201,-203"/>
<text text-anchor="middle" x="186" y="-180.72" font-family="Times,serif" font-size="12.00">/</text>
</g>
<!-- n1&#45;&gt;n3 -->
<g id="edge1" class="edge">
<title>n1&#45;&gt;n3</title>
<path fill="none" stroke="black" d="M78.96,-204.64C99.78,-200.78 126.36,-195.86 147.69,-191.91"/>
<polygon fill="black" stroke="black" points="148.25,-195.37 157.45,-190.1 146.98,-188.48 148.25,-195.37"/>
<text text-anchor="middle" x="114.62" y="-201.31" font-family="Times,serif" font-size="10.00">(0,0)</text>
</g>
<!-- n5 -->
<g id="node6" class="node">
<title>n5</title>
<path fill="none" stroke="black" d="M435.75,-231C435.75,-231 405.75,-231 405.75,-231 399.75,-231 393.75,-225 393.75,-219 393.75,-219 393.75,-207 393.75,-207 393.75,-201 399.75,-195 405.75,-195 405.75,-195 435.75,-195 435.75,-195 441.75,-195 447.75,-201 447.75,-207 447.75,-207 447.75,-219 447.75,-219 447.75,-225 441.75,-231 435.75,-231"/>
<text text-anchor="middle" x="420.75" y="-208.72" font-family="Times,serif" font-size="12.00">&#45;</text>
</g>
<!-- n1&#45;&gt;n5 -->
<g id="edge5" class="edge">
<title>n1&#45;&gt;n5</title>
<path fill="none" stroke="black" d="M78.91,-213.63C87.51,-214.19 96.71,-214.7 105.25,-215 217.07,-218.91 245.11,-215.78 357,-216 365.33,-216.02 367.42,-216.28 375.75,-216 377.93,-215.93 380.17,-215.83 382.43,-215.72"/>
<polygon fill="black" stroke="black" points="382.41,-219.23 392.2,-215.16 382.01,-212.24 382.41,-219.23"/>
<text text-anchor="middle" x="257.38" y="-218.46" font-family="Times,serif" font-size="10.00">(0,0)</text>
</g>
<!-- n2 -->
<g id="node3" class="node">
<title>n2</title>
<path fill="none" stroke="black" d="M58.62,-167C58.62,-167 28.62,-167 28.62,-167 22.62,-167 16.62,-161 16.62,-155 16.62,-155 16.62,-143 16.62,-143 16.62,-137 22.62,-131 28.62,-131 28.62,-131 58.62,-131 58.62,-131 64.62,-131 70.62,-137 70.62,-143 70.62,-143 70.62,-155 70.62,-155 70.62,-161 64.62,-167 58.62,-167"/>
<text text-anchor="middle" x="43.62" y="-144.72" font-family="Times,serif" font-size="12.00">const 7</text>
</g>
<!-- n2&#45;&gt;n3 -->
<g id="edge2" class="edge">
<title>n2&#45;&gt;n3</title>
<path fill="none" stroke="black" d="M71.03,-155.77C92.69,-161.33 123.63,-169.26 147.8,-175.46"/>
<polygon fill="black" stroke="black" points="146.69,-178.79 157.25,-177.88 148.43,-172.01 146.69,-178.79"/>
<text text-anchor="middle" x="114.62" y="-170.91" font-family="Times,serif" font-size="10.00">(0,1)</text>
</g>
<!-- n4 -->
<g id="node5" class="node">
<title>n4</title>
<path fill="none" stroke="black" d="M326.88,-203C326.88,-203 296.88,-203 296.88,-203 290.88,-203 284.88,-197 284.88,-191 284.88,-191 284.88,-179 284.88,-179 284.88,-173 290.88,-167 296.88,-167 296.88,-167 326.88,-167 326.88,-167 332.88,-167 338.88,-173 338.88,-179 338.88,-179 338.88,-191 338.88,-191 338.88,-197 332.88,-203 326.88,-203"/>
<text text-anchor="middle" x="311.88" y="-180.72" font-family="Times,serif" font-size="12.00">*</text>
</g>
<!-- n2&#45;&gt;n4 -->
<g id="edge4" class="edge">
<title>n2&#45;&gt;n4</title>
<path fill="none" stroke="black" d="M71.12,-144.88C107.46,-140.09 174.57,-134.3 230,-146.75 245.34,-150.19 261.19,-156.89 274.75,-163.73"/>
<polygon fill="black" stroke="black" points="272.81,-166.67 283.29,-168.24 276.07,-160.48 272.81,-166.67"/>
<text text-anchor="middle" x="186" y="-148.5" font-family="Times,serif" font-size="10.00">(0,1)</text>
</g>
<!-- n3&#45;&gt;n4 -->
<g id="edge3" class="edge">
<title>n3&#45;&gt;n4</title>
<path fill="none" stroke="black" d="M213.27,-185C230.68,-185 253.79,-185 273.15,-185"/>
<polygon fill="black" stroke="black" points="273.13,-188.5 283.13,-185 273.13,-181.5 273.13,-188.5"/>
<text text-anchor="middle" x="257.38" y="-186.75" font-family="Times,serif" font-size="10.00">(0,0)</text>
</g>
<!-- n4&#45;&gt;n5 -->
<g id="edge6" class="edge">
<title>n4&#45;&gt;n5</title>
<path fill="none" stroke="black" d="M339.29,-191.92C352.27,-195.32 368.13,-199.47 382.32,-203.19"/>
<polygon fill="black" stroke="black" points="381.24,-206.53 391.8,-205.68 383.01,-199.76 381.24,-206.53"/>
<text text-anchor="middle" x="366.38" y="-202.43" font-family="Times,serif" font-size="10.00">(0,1)</text>
</g>
<!-- n6 -->
<g id="node7" class="node">
<title>n6</title>
<path fill="none" stroke="black" d="M545.5,-231C545.5,-231 514.5,-231 514.5,-231 508.5,-231 502.5,-225 502.5,-219 502.5,-219 502.5,-207 502.5,-207 502.5,-201 508.5,-195 514.5,-195 514.5,-195 545.5,-195 545.5,-195 551.5,-195 557.5,-201 557.5,-207 557.5,-207 557.5,-219 557.5,-219 557.5,-225 551.5,-231 545.5,-231"/>
<text text-anchor="middle" x="530" y="-208.72" font-family="Times,serif" font-size="12.00">ret rem7</text>
</g>
<!-- n5&#45;&gt;n6 -->
<g id="edge7" class="edge">
<title>n5&#45;&gt;n6</title>
<path fill="none" stroke="black" d="M447.99,-213C460.87,-213 476.65,-213 490.84,-213"/>
<polygon fill="black" stroke="black" points="490.78,-216.5 500.78,-213 490.78,-209.5 490.78,-216.5"/>
<text text-anchor="middle" x="475.12" y="-214.75" font-family="Times,serif" font-size="10.00">(0,0)</text>
</g>
<!-- n7 -->
<g id="node8" class="node">
<title>n7</title>
<path fill="none" stroke="black" d="M75.25,-43C75.25,-43 12,-43 12,-43 6,-43 0,-37 0,-31 0,-31 0,-19 0,-19 0,-13 6,-7 12,-7 12,-7 75.25,-7 75.25,-7 81.25,-7 87.25,-13 87.25,-19 87.25,-19 87.25,-31 87.25,-31 87.25,-37 81.25,-43 75.25,-43"/>
<text text-anchor="middle" x="43.62" y="-20.73" font-family="Times,serif" font-size="12.00">callgroup rem7</text>
</g>
<!-- n7&#45;&gt;n8 -->
<g id="edge9" class="edge">
<title>n7&#45;&gt;n8</title>
<path fill="none" stroke="black" d="M87.5,-41.5C101.39,-46.84 116.96,-52.83 131.52,-58.43"/>
<polygon fill="black" stroke="black" points="129.9,-61.55 140.49,-61.88 132.41,-55.02 129.9,-61.55"/>
<text text-anchor="middle" x="114.62" y="-56.98" font-family="Times,serif" font-size="10.00">(0,1)</text>
</g>
<!-- n9 -->
<g id="node10" class="node">
<title>n9</title>
<path fill="none" stroke="black" d="M209.75,-36C209.75,-36 162.25,-36 162.25,-36 156.25,-36 150.25,-30 150.25,-24 150.25,-24 150.25,-12 150.25,-12 150.25,-6 156.25,0 162.25,0 162.25,0 209.75,0 209.75,0 215.75,0 221.75,-6 221.75,-12 221.75,-12 221.75,-24 221.75,-24 221.75,-30 215.75,-36 209.75,-36"/>
<text text-anchor="middle" x="186" y="-13.72" font-family="Times,serif" font-size="12.00">retsnd rem7</text>
</g>
<!-- n7&#45;&gt;n9 -->
<g id="edge10" class="edge">
<title>n7&#45;&gt;n9</title>
<path fill="none" stroke="black" d="M87.64,-20.07C93.55,-19.53 99.55,-19.07 105.25,-18.75 116.13,-18.14 127.85,-17.83 138.87,-17.7"/>
<polygon fill="black" stroke="black" points="138.55,-21.2 148.53,-17.63 138.5,-14.21 138.55,-21.2"/>
<text text-anchor="middle" x="114.62" y="-20.5" font-family="Times,serif" font-size="10.00">(0,1)</text>
</g>
<!-- n10 -->
<g id="node11" class="node">
<title>n10</title>
<path fill="none" stroke="black" d="M327,-36C327,-36 296.75,-36 296.75,-36 290.75,-36 284.75,-30 284.75,-24 284.75,-24 284.75,-12 284.75,-12 284.75,-6 290.75,0 296.75,0 296.75,0 327,0 327,0 333,0 339,-6 339,-12 339,-12 339,-24 339,-24 339,-30 333,-36 327,-36"/>
<text text-anchor="middle" x="311.88" y="-13.72" font-family="Times,serif" font-size="12.00">ret main</text>
</g>
<!-- n9&#45;&gt;n10 -->
<g id="edge11" class="edge">
<title>n9&#45;&gt;n10</title>
<path fill="none" stroke="black" d="M222.17,-18C238.05,-18 256.85,-18 273.04,-18"/>
<polygon fill="black" stroke="black" points="272.78,-21.5 282.78,-18 272.78,-14.5 272.78,-21.5"/>
<text text-anchor="middle" x="257.38" y="-19.75" font-family="Times,serif" font-size="10.00">(0,0)</text>
</g>
</g>
</svg>
