<?xml version="1.0" encoding="UTF-8" standalone="no"?>
<!DOCTYPE svg PUBLIC "-//W3C//DTD SVG 1.1//EN"
 "http://www.w3.org/Graphics/SVG/1.1/DTD/svg11.dtd">
<!-- Generated by graphviz version 12.2.1 (20241206.2353)
 -->
<!-- Title: G Pages: 1 -->
<svg width="1024pt" height="577pt"
 viewBox="0.00 0.00 1023.75 577.00" xmlns="http://www.w3.org/2000/svg" xmlns:xlink="http://www.w3.org/1999/xlink">
<g id="graph0" class="graph" transform="scale(1 1) rotate(0) translate(4 573)">
<title>G</title>
<polygon fill="white" stroke="none" points="-4,4 -4,-573 1019.75,-573 1019.75,4 -4,4"/>
<!-- n0 -->
<g id="node1" class="node">
<title>n0</title>
<path fill="none" stroke="black" d="M199.88,-144C199.88,-144 169.88,-144 169.88,-144 163.88,-144 157.88,-138 157.88,-132 157.88,-132 157.88,-120 157.88,-120 157.88,-114 163.88,-108 169.88,-108 169.88,-108 199.88,-108 199.88,-108 205.88,-108 211.88,-114 211.88,-120 211.88,-120 211.88,-132 211.88,-132 211.88,-138 205.88,-144 199.88,-144"/>
<text text-anchor="middle" x="184.88" y="-121.72" font-family="Times,serif" font-size="12.00">const &#45;1</text>
</g>
<!-- n4 -->
<g id="node5" class="node">
<title>n4</title>
<path fill="none" stroke="black" d="M325.38,-144C325.38,-144 295.38,-144 295.38,-144 289.38,-144 283.38,-138 283.38,-132 283.38,-132 283.38,-120 283.38,-120 283.38,-114 289.38,-108 295.38,-108 295.38,-108 325.38,-108 325.38,-108 331.38,-108 337.38,-114 337.38,-120 337.38,-120 337.38,-132 337.38,-132 337.38,-138 331.38,-144 325.38,-144"/>
<text text-anchor="middle" x="310.38" y="-121.72" font-family="Times,serif" font-size="12.00">+i 2</text>
</g>
<!-- n0&#45;&gt;n4 -->
<g id="edge2" class="edge">
<title>n0&#45;&gt;n4</title>
<path fill="none" stroke="black" d="M212.37,-126C229.62,-126 252.4,-126 271.55,-126"/>
<polygon fill="black" stroke="black" points="271.41,-129.5 281.41,-126 271.41,-122.5 271.41,-129.5"/>
<text text-anchor="middle" x="255.12" y="-127.75" font-family="Times,serif" font-size="10.00">(0,0)</text>
</g>
<!-- n1 -->
<g id="node2" class="node">
<title>n1</title>
<path fill="none" stroke="black" d="M326.25,-90C326.25,-90 294.5,-90 294.5,-90 288.5,-90 282.5,-84 282.5,-78 282.5,-78 282.5,-66 282.5,-66 282.5,-60 288.5,-54 294.5,-54 294.5,-54 326.25,-54 326.25,-54 332.25,-54 338.25,-60 338.25,-66 338.25,-66 338.25,-78 338.25,-78 338.25,-84 332.25,-90 326.25,-90"/>
<text text-anchor="middle" x="310.38" y="-67.72" font-family="Times,serif" font-size="12.00">const 10</text>
</g>
<!-- n8 -->
<g id="node9" class="node">
<title>n8</title>
<path fill="none" stroke="black" d="M450.88,-90C450.88,-90 420.88,-90 420.88,-90 414.88,-90 408.88,-84 408.88,-78 408.88,-78 408.88,-66 408.88,-66 408.88,-60 414.88,-54 420.88,-54 420.88,-54 450.88,-54 450.88,-54 456.88,-54 462.88,-60 462.88,-66 462.88,-66 462.88,-78 462.88,-78 462.88,-84 456.88,-90 450.88,-90"/>
<text text-anchor="middle" x="435.88" y="-67.72" font-family="Times,serif" font-size="12.00">+i 2</text>
</g>
<!-- n1&#45;&gt;n8 -->
<g id="edge7" class="edge">
<title>n1&#45;&gt;n8</title>
<path fill="none" stroke="black" d="M338.48,-72C355.76,-72 378.41,-72 397.41,-72"/>
<polygon fill="black" stroke="black" points="397.17,-75.5 407.17,-72 397.17,-68.5 397.17,-75.5"/>
<text text-anchor="middle" x="365.62" y="-73.75" font-family="Times,serif" font-size="10.00">(0,0)</text>
</g>
<!-- n2 -->
<g id="node3" class="node">
<title>n2</title>
<path fill="none" stroke="black" d="M59.5,-198C59.5,-198 27.75,-198 27.75,-198 21.75,-198 15.75,-192 15.75,-186 15.75,-186 15.75,-174 15.75,-174 15.75,-168 21.75,-162 27.75,-162 27.75,-162 59.5,-162 59.5,-162 65.5,-162 71.5,-168 71.5,-174 71.5,-174 71.5,-186 71.5,-186 71.5,-192 65.5,-198 59.5,-198"/>
<text text-anchor="middle" x="43.62" y="-175.72" font-family="Times,serif" font-size="12.00">const 15</text>
</g>
<!-- n3 -->
<g id="node4" class="node">
<title>n3</title>
<path fill="none" stroke="black" d="M199.88,-198C199.88,-198 169.88,-198 169.88,-198 163.88,-198 157.88,-192 157.88,-186 157.88,-186 157.88,-174 157.88,-174 157.88,-168 163.88,-162 169.88,-162 169.88,-162 199.88,-162 199.88,-162 205.88,-162 211.88,-168 211.88,-174 211.88,-174 211.88,-186 211.88,-186 211.88,-192 205.88,-198 199.88,-198"/>
<text text-anchor="middle" x="184.88" y="-175.72" font-family="Times,serif" font-size="12.00">+i 2</text>
</g>
<!-- n2&#45;&gt;n3 -->
<g id="edge1" class="edge">
<title>n2&#45;&gt;n3</title>
<path fill="none" stroke="black" d="M71.8,-180C93.07,-180 122.86,-180 146.39,-180"/>
<polygon fill="black" stroke="black" points="146.19,-183.5 156.19,-180 146.19,-176.5 146.19,-183.5"/>
<text text-anchor="middle" x="114.62" y="-181.75" font-family="Times,serif" font-size="10.00">(0,0)</text>
</g>
<!-- n6 -->
<g id="node7" class="node">
<title>n6</title>
<path fill="none" stroke="black" d="M325.38,-198C325.38,-198 295.38,-198 295.38,-198 289.38,-198 283.38,-192 283.38,-186 283.38,-186 283.38,-174 283.38,-174 283.38,-168 289.38,-162 295.38,-162 295.38,-162 325.38,-162 325.38,-162 331.38,-162 337.38,-168 337.38,-174 337.38,-174 337.38,-186 337.38,-186 337.38,-192 331.38,-198 325.38,-198"/>
<text text-anchor="middle" x="310.38" y="-175.72" font-family="Times,serif" font-size="12.00">*</text>
</g>
<!-- n3&#45;&gt;n6 -->
<g id="edge3" class="edge">
<title>n3&#45;&gt;n6</title>
<path fill="none" stroke="black" d="M212.37,-180C229.62,-180 252.4,-180 271.55,-180"/>
<polygon fill="black" stroke="black" points="271.41,-183.5 281.41,-180 271.41,-176.5 271.41,-183.5"/>
<text text-anchor="middle" x="255.12" y="-181.75" font-family="Times,serif" font-size="10.00">(0,0)</text>
</g>
<!-- n7 -->
<g id="node8" class="node">
<title>n7</title>
<path fill="none" stroke="black" d="M450.88,-144C450.88,-144 420.88,-144 420.88,-144 414.88,-144 408.88,-138 408.88,-132 408.88,-132 408.88,-120 408.88,-120 408.88,-114 414.88,-108 420.88,-108 420.88,-108 450.88,-108 450.88,-108 456.88,-108 462.88,-114 462.88,-120 462.88,-120 462.88,-132 462.88,-132 462.88,-138 456.88,-144 450.88,-144"/>
<text text-anchor="middle" x="435.88" y="-121.72" font-family="Times,serif" font-size="12.00">+</text>
</g>
<!-- n4&#45;&gt;n7 -->
<g id="edge6" class="edge">
<title>n4&#45;&gt;n7</title>
<path fill="none" stroke="black" d="M337.87,-126C355.12,-126 377.9,-126 397.05,-126"/>
<polygon fill="black" stroke="black" points="396.91,-129.5 406.91,-126 396.91,-122.5 396.91,-129.5"/>
<text text-anchor="middle" x="365.62" y="-127.75" font-family="Times,serif" font-size="10.00">(0,1)</text>
</g>
<!-- n5 -->
<g id="node6" class="node">
<title>n5</title>
<path fill="none" stroke="black" d="M215.75,-252C215.75,-252 154,-252 154,-252 148,-252 142,-246 142,-240 142,-240 142,-228 142,-228 142,-222 148,-216 154,-216 154,-216 215.75,-216 215.75,-216 221.75,-216 227.75,-222 227.75,-228 227.75,-228 227.75,-240 227.75,-240 227.75,-246 221.75,-252 215.75,-252"/>
<text text-anchor="middle" x="184.88" y="-229.72" font-family="Times,serif" font-size="12.00">const 1000003</text>
</g>
<!-- n5&#45;&gt;n6 -->
<g id="edge4" class="edge">
<title>n5&#45;&gt;n6</title>
<path fill="none" stroke="black" d="M228.03,-215.57C242.62,-209.19 258.84,-202.1 272.93,-195.94"/>
<polygon fill="black" stroke="black" points="274.08,-199.25 281.84,-192.04 271.28,-192.84 274.08,-199.25"/>
<text text-anchor="middle" x="255.12" y="-208.75" font-family="Times,serif" font-size="10.00">(0,1)</text>
</g>
<!-- n6&#45;&gt;n7 -->
<g id="edge5" class="edge">
<title>n6&#45;&gt;n7</title>
<path fill="none" stroke="black" d="M337.87,-168.42C355.45,-160.73 378.77,-150.53 398.13,-142.07"/>
<polygon fill="black" stroke="black" points="399.28,-145.38 407.04,-138.17 396.47,-138.97 399.28,-145.38"/>
<text text-anchor="middle" x="365.62" y="-161.17" font-family="Times,serif" font-size="10.00">(0,0)</text>
</g>
<!-- n9 -->
<g id="node10" class="node">
<title>n9</title>
<path fill="none" stroke="black" d="M575.5,-144C575.5,-144 545.5,-144 545.5,-144 539.5,-144 533.5,-138 533.5,-132 533.5,-132 533.5,-120 533.5,-120 533.5,-114 539.5,-108 545.5,-108 545.5,-108 575.5,-108 575.5,-108 581.5,-108 587.5,-114 587.5,-120 587.5,-120 587.5,-132 587.5,-132 587.5,-138 581.5,-144 575.5,-144"/>
<text text-anchor="middle" x="560.5" y="-121.72" font-family="Times,serif" font-size="12.00">+i 2</text>
</g>
<!-- n7&#45;&gt;n9 -->
<g id="edge8" class="edge">
<title>n7&#45;&gt;n9</title>
<path fill="none" stroke="black" d="M463.18,-126C480.31,-126 502.93,-126 521.95,-126"/>
<polygon fill="black" stroke="black" points="521.72,-129.5 531.72,-126 521.72,-122.5 521.72,-129.5"/>
<text text-anchor="middle" x="506.12" y="-127.75" font-family="Times,serif" font-size="10.00">(0,0)</text>
</g>
<!-- n11 -->
<g id="node12" class="node">
<title>n11</title>
<path fill="none" stroke="black" d="M575.5,-90C575.5,-90 545.5,-90 545.5,-90 539.5,-90 533.5,-84 533.5,-78 533.5,-78 533.5,-66 533.5,-66 533.5,-60 539.5,-54 545.5,-54 545.5,-54 575.5,-54 575.5,-54 581.5,-54 587.5,-60 587.5,-66 587.5,-66 587.5,-78 587.5,-78 587.5,-84 581.5,-90 575.5,-90"/>
<text text-anchor="middle" x="560.5" y="-67.72" font-family="Times,serif" font-size="12.00">*</text>
</g>
<!-- n8&#45;&gt;n11 -->
<g id="edge9" class="edge">
<title>n8&#45;&gt;n11</title>
<path fill="none" stroke="black" d="M463.18,-72C480.31,-72 502.93,-72 521.95,-72"/>
<polygon fill="black" stroke="black" points="521.72,-75.5 531.72,-72 521.72,-68.5 521.72,-75.5"/>
<text text-anchor="middle" x="506.12" y="-73.75" font-family="Times,serif" font-size="10.00">(0,0)</text>
</g>
<!-- n12 -->
<g id="node13" class="node">
<title>n12</title>
<path fill="none" stroke="black" d="M709.5,-115C709.5,-115 679.5,-115 679.5,-115 673.5,-115 667.5,-109 667.5,-103 667.5,-103 667.5,-91 667.5,-91 667.5,-85 673.5,-79 679.5,-79 679.5,-79 709.5,-79 709.5,-79 715.5,-79 721.5,-85 721.5,-91 721.5,-91 721.5,-103 721.5,-103 721.5,-109 715.5,-115 709.5,-115"/>
<text text-anchor="middle" x="694.5" y="-92.72" font-family="Times,serif" font-size="12.00">+</text>
</g>
<!-- n9&#45;&gt;n12 -->
<g id="edge12" class="edge">
<title>n9&#45;&gt;n12</title>
<path fill="none" stroke="black" d="M587.89,-120.2C607.41,-115.91 634.26,-110.02 656,-105.24"/>
<polygon fill="black" stroke="black" points="656.66,-108.68 665.67,-103.11 655.15,-101.84 656.66,-108.68"/>
<text text-anchor="middle" x="614.88" y="-117.54" font-family="Times,serif" font-size="10.00">(0,1)</text>
</g>
<!-- n10 -->
<g id="node11" class="node">
<title>n10</title>
<path fill="none" stroke="black" d="M466.75,-36C466.75,-36 405,-36 405,-36 399,-36 393,-30 393,-24 393,-24 393,-12 393,-12 393,-6 399,0 405,0 405,0 466.75,0 466.75,0 472.75,0 478.75,-6 478.75,-12 478.75,-12 478.75,-24 478.75,-24 478.75,-30 472.75,-36 466.75,-36"/>
<text text-anchor="middle" x="435.88" y="-13.72" font-family="Times,serif" font-size="12.00">const 1000003</text>
</g>
<!-- n10&#45;&gt;n11 -->
<g id="edge10" class="edge">
<title>n10&#45;&gt;n11</title>
<path fill="none" stroke="black" d="M478.73,-36.43C493.11,-42.76 509.07,-49.79 522.99,-55.92"/>
<polygon fill="black" stroke="black" points="521.22,-58.97 531.79,-59.8 524.05,-52.56 521.22,-58.97"/>
<text text-anchor="middle" x="506.12" y="-53.17" font-family="Times,serif" font-size="10.00">(0,1)</text>
</g>
<!-- n11&#45;&gt;n12 -->
<g id="edge11" class="edge">
<title>n11&#45;&gt;n12</title>
<path fill="none" stroke="black" d="M587.79,-76.3C599.04,-78.2 612.3,-80.5 624.25,-82.75 634.59,-84.7 645.77,-86.94 656.07,-89.06"/>
<polygon fill="black" stroke="black" points="655.25,-92.46 665.75,-91.07 656.67,-85.61 655.25,-92.46"/>
<text text-anchor="middle" x="614.88" y="-84.5" font-family="Times,serif" font-size="10.00">(0,0)</text>
</g>
<!-- n37 -->
<g id="node38" class="node">
<title>n37</title>
<path fill="none" stroke="black" d="M894.75,-108C894.75,-108 813.5,-108 813.5,-108 807.5,-108 801.5,-102 801.5,-96 801.5,-96 801.5,-84 801.5,-84 801.5,-78 807.5,-72 813.5,-72 813.5,-72 894.75,-72 894.75,-72 900.75,-72 906.75,-78 906.75,-84 906.75,-84 906.75,-96 906.75,-96 906.75,-102 900.75,-108 894.75,-108"/>
<text text-anchor="middle" x="854.12" y="-85.72" font-family="Times,serif" font-size="12.00">callsnd sumTwo#0</text>
</g>
<!-- n12&#45;&gt;n37 -->
<g id="edge37" class="edge">
<title>n12&#45;&gt;n37</title>
<path fill="none" stroke="black" d="M721.88,-95.83C740.41,-95.01 766.01,-93.87 789.69,-92.82"/>
<polygon fill="black" stroke="black" points="789.77,-96.32 799.61,-92.38 789.46,-89.32 789.77,-96.32"/>
<text text-anchor="middle" x="774.12" y="-95.67" font-family="Times,serif" font-size="10.00">(0,0)</text>
</g>
<!-- n13 -->
<g id="node14" class="node">
<title>n13</title>
<path fill="none" stroke="black" d="M75.25,-264C75.25,-264 12,-264 12,-264 6,-264 0,-258 0,-252 0,-252 0,-240 0,-240 0,-234 6,-228 12,-228 12,-228 75.25,-228 75.25,-228 81.25,-228 87.25,-234 87.25,-240 87.25,-240 87.25,-252 87.25,-252 87.25,-258 81.25,-264 75.25,-264"/>
<text text-anchor="middle" x="43.62" y="-241.72" font-family="Times,serif" font-size="12.00">arg sumTwo#0</text>
</g>
<!-- n14 -->
<g id="node15" class="node">
<title>n14</title>
<path fill="none" stroke="black" d="M58.62,-342C58.62,-342 28.62,-342 28.62,-342 22.62,-342 16.62,-336 16.62,-330 16.62,-330 16.62,-318 16.62,-318 16.62,-312 22.62,-306 28.62,-306 28.62,-306 58.62,-306 58.62,-306 64.62,-306 70.62,-312 70.62,-318 70.62,-318 70.62,-330 70.62,-330 70.62,-336 64.62,-342 58.62,-342"/>
<text text-anchor="middle" x="43.62" y="-319.73" font-family="Times,serif" font-size="12.00">const 0</text>
</g>
<!-- n17 -->
<g id="node18" class="node">
<title>n17</title>
<path fill="none" stroke="black" d="M199.88,-414C199.88,-414 169.88,-414 169.88,-414 163.88,-414 157.88,-408 157.88,-402 157.88,-402 157.88,-390 157.88,-390 157.88,-384 163.88,-378 169.88,-378 169.88,-378 199.88,-378 199.88,-378 205.88,-378 211.88,-384 211.88,-390 211.88,-390 211.88,-402 211.88,-402 211.88,-408 205.88,-414 199.88,-414"/>
<text text-anchor="middle" x="184.88" y="-391.73" font-family="Times,serif" font-size="12.00">==</text>
</g>
<!-- n14&#45;&gt;n17 -->
<g id="edge13" class="edge">
<title>n14&#45;&gt;n17</title>
<path fill="none" stroke="black" d="M70.82,-337.54C92.5,-348.76 123.55,-364.81 147.62,-377.26"/>
<polygon fill="black" stroke="black" points="145.97,-380.34 156.46,-381.82 149.18,-374.12 145.97,-380.34"/>
<text text-anchor="middle" x="114.62" y="-366.06" font-family="Times,serif" font-size="10.00">(0,0)</text>
</g>
<!-- n23 -->
<g id="node24" class="node">
<title>n23</title>
<path fill="none" stroke="black" d="M199.88,-306C199.88,-306 169.88,-306 169.88,-306 163.88,-306 157.88,-300 157.88,-294 157.88,-294 157.88,-282 157.88,-282 157.88,-276 163.88,-270 169.88,-270 169.88,-270 199.88,-270 199.88,-270 205.88,-270 211.88,-276 211.88,-282 211.88,-282 211.88,-294 211.88,-294 211.88,-300 205.88,-306 199.88,-306"/>
<text text-anchor="middle" x="184.88" y="-283.73" font-family="Times,serif" font-size="12.00">+</text>
</g>
<!-- n14&#45;&gt;n23 -->
<g id="edge21" class="edge">
<title>n14&#45;&gt;n23</title>
<path fill="none" stroke="black" d="M71.09,-312.49C81.57,-308.3 93.82,-303.83 105.25,-300.75 118.47,-297.18 133.22,-294.47 146.35,-292.48"/>
<polygon fill="black" stroke="black" points="146.47,-296 155.88,-291.13 145.49,-289.07 146.47,-296"/>
<text text-anchor="middle" x="114.62" y="-302.5" font-family="Times,serif" font-size="10.00">(0,0)</text>
</g>
<!-- n15 -->
<g id="node16" class="node">
<title>n15</title>
<path fill="none" stroke="black" d="M58.62,-465C58.62,-465 28.62,-465 28.62,-465 22.62,-465 16.62,-459 16.62,-453 16.62,-453 16.62,-441 16.62,-441 16.62,-435 22.62,-429 28.62,-429 28.62,-429 58.62,-429 58.62,-429 64.62,-429 70.62,-435 70.62,-441 70.62,-441 70.62,-453 70.62,-453 70.62,-459 64.62,-465 58.62,-465"/>
<text text-anchor="middle" x="43.62" y="-442.73" font-family="Times,serif" font-size="12.00">const 1</text>
</g>
<!-- n18 -->
<g id="node19" class="node">
<title>n18</title>
<path fill="none" stroke="black" d="M325.38,-461C325.38,-461 295.38,-461 295.38,-461 289.38,-461 283.38,-455 283.38,-449 283.38,-449 283.38,-437 283.38,-437 283.38,-431 289.38,-425 295.38,-425 295.38,-425 325.38,-425 325.38,-425 331.38,-425 337.38,-431 337.38,-437 337.38,-437 337.38,-449 337.38,-449 337.38,-455 331.38,-461 325.38,-461"/>
<text text-anchor="middle" x="310.38" y="-438.73" font-family="Times,serif" font-size="12.00">band</text>
</g>
<!-- n15&#45;&gt;n18 -->
<g id="edge15" class="edge">
<title>n15&#45;&gt;n18</title>
<path fill="none" stroke="black" d="M70.98,-446.6C118.26,-445.89 217.61,-444.39 271.93,-443.57"/>
<polygon fill="black" stroke="black" points="271.67,-447.07 281.62,-443.42 271.56,-440.07 271.67,-447.07"/>
<text text-anchor="middle" x="184.88" y="-447.28" font-family="Times,serif" font-size="10.00">(0,0)</text>
</g>
<!-- n15&#45;&gt;n23 -->
<g id="edge22" class="edge">
<title>n15&#45;&gt;n23</title>
<path fill="none" stroke="black" d="M71.09,-438.55C88.75,-431.54 111.04,-419.8 124,-402 147.25,-370.08 119.67,-347.57 142,-315 143.88,-312.26 146.14,-309.73 148.62,-307.42"/>
<polygon fill="black" stroke="black" points="150.76,-310.19 156.5,-301.29 146.46,-304.66 150.76,-310.19"/>
<text text-anchor="middle" x="114.62" y="-421.02" font-family="Times,serif" font-size="10.00">(0,1)</text>
</g>
<!-- n16 -->
<g id="node17" class="node">
<title>n16</title>
<path fill="none" stroke="black" d="M58.62,-408C58.62,-408 28.62,-408 28.62,-408 22.62,-408 16.62,-402 16.62,-396 16.62,-396 16.62,-384 16.62,-384 16.62,-378 22.62,-372 28.62,-372 28.62,-372 58.62,-372 58.62,-372 64.62,-372 70.62,-378 70.62,-384 70.62,-384 70.62,-396 70.62,-396 70.62,-402 64.62,-408 58.62,-408"/>
<text text-anchor="middle" x="43.62" y="-385.73" font-family="Times,serif" font-size="12.00">const 0</text>
</g>
<!-- n16&#45;&gt;n17 -->
<g id="edge14" class="edge">
<title>n16&#45;&gt;n17</title>
<path fill="none" stroke="black" d="M71.1,-389.73C86.54,-389.71 106.38,-389.9 124,-390.75 131.1,-391.09 138.65,-391.63 145.92,-392.22"/>
<polygon fill="black" stroke="black" points="145.6,-395.71 155.87,-393.1 146.21,-388.73 145.6,-395.71"/>
<text text-anchor="middle" x="114.62" y="-392.5" font-family="Times,serif" font-size="10.00">(0,1)</text>
</g>
<!-- n17&#45;&gt;n18 -->
<g id="edge16" class="edge">
<title>n17&#45;&gt;n18</title>
<path fill="none" stroke="black" d="M212.17,-405.35C227.49,-410.86 247.14,-418.05 264.5,-424.75 267.18,-425.78 269.94,-426.87 272.71,-427.97"/>
<polygon fill="black" stroke="black" points="271.35,-431.19 281.93,-431.66 273.95,-424.69 271.35,-431.19"/>
<text text-anchor="middle" x="255.12" y="-426.5" font-family="Times,serif" font-size="10.00">(0,1)</text>
</g>
<!-- n22 -->
<g id="node23" class="node">
<title>n22</title>
<path fill="none" stroke="black" d="M450.88,-470C450.88,-470 420.88,-470 420.88,-470 414.88,-470 408.88,-464 408.88,-458 408.88,-458 408.88,-446 408.88,-446 408.88,-440 414.88,-434 420.88,-434 420.88,-434 450.88,-434 450.88,-434 456.88,-434 462.88,-440 462.88,-446 462.88,-446 462.88,-458 462.88,-458 462.88,-464 456.88,-470 450.88,-470"/>
<text text-anchor="middle" x="435.88" y="-447.73" font-family="Times,serif" font-size="12.00">steer</text>
</g>
<!-- n18&#45;&gt;n22 -->
<g id="edge20" class="edge">
<title>n18&#45;&gt;n22</title>
<path fill="none" stroke="black" d="M337.87,-444.93C355.12,-446.19 377.9,-447.85 397.05,-449.24"/>
<polygon fill="black" stroke="black" points="396.69,-452.73 406.92,-449.96 397.2,-445.74 396.69,-452.73"/>
<text text-anchor="middle" x="365.62" y="-449.25" font-family="Times,serif" font-size="10.00">(0,1)</text>
</g>
<!-- n19 -->
<g id="node20" class="node">
<title>n19</title>
<path fill="none" stroke="black" d="M199.88,-569C199.88,-569 169.88,-569 169.88,-569 163.88,-569 157.88,-563 157.88,-557 157.88,-557 157.88,-545 157.88,-545 157.88,-539 163.88,-533 169.88,-533 169.88,-533 199.88,-533 199.88,-533 205.88,-533 211.88,-539 211.88,-545 211.88,-545 211.88,-557 211.88,-557 211.88,-563 205.88,-569 199.88,-569"/>
<text text-anchor="middle" x="184.88" y="-546.73" font-family="Times,serif" font-size="12.00">arg x</text>
</g>
<!-- n21 -->
<g id="node22" class="node">
<title>n21</title>
<path fill="none" stroke="black" d="M325.38,-515C325.38,-515 295.38,-515 295.38,-515 289.38,-515 283.38,-509 283.38,-503 283.38,-503 283.38,-491 283.38,-491 283.38,-485 289.38,-479 295.38,-479 295.38,-479 325.38,-479 325.38,-479 331.38,-479 337.38,-485 337.38,-491 337.38,-491 337.38,-503 337.38,-503 337.38,-509 331.38,-515 325.38,-515"/>
<text text-anchor="middle" x="310.38" y="-492.73" font-family="Times,serif" font-size="12.00">+</text>
</g>
<!-- n19&#45;&gt;n21 -->
<g id="edge17" class="edge">
<title>n19&#45;&gt;n21</title>
<path fill="none" stroke="black" d="M212.37,-539.42C229.95,-531.73 253.27,-521.53 272.63,-513.07"/>
<polygon fill="black" stroke="black" points="273.78,-516.38 281.54,-509.17 270.97,-509.97 273.78,-516.38"/>
<text text-anchor="middle" x="255.12" y="-525.75" font-family="Times,serif" font-size="10.00">(0,0)</text>
</g>
<!-- n20 -->
<g id="node21" class="node">
<title>n20</title>
<path fill="none" stroke="black" d="M199.88,-515C199.88,-515 169.88,-515 169.88,-515 163.88,-515 157.88,-509 157.88,-503 157.88,-503 157.88,-491 157.88,-491 157.88,-485 163.88,-479 169.88,-479 169.88,-479 199.88,-479 199.88,-479 205.88,-479 211.88,-485 211.88,-491 211.88,-491 211.88,-503 211.88,-503 211.88,-509 205.88,-515 199.88,-515"/>
<text text-anchor="middle" x="184.88" y="-492.73" font-family="Times,serif" font-size="12.00">arg y</text>
</g>
<!-- n20&#45;&gt;n21 -->
<g id="edge18" class="edge">
<title>n20&#45;&gt;n21</title>
<path fill="none" stroke="black" d="M212.37,-497C229.62,-497 252.4,-497 271.55,-497"/>
<polygon fill="black" stroke="black" points="271.41,-500.5 281.41,-497 271.41,-493.5 271.41,-500.5"/>
<text text-anchor="middle" x="255.12" y="-498.75" font-family="Times,serif" font-size="10.00">(0,1)</text>
</g>
<!-- n21&#45;&gt;n22 -->
<g id="edge19" class="edge">
<title>n21&#45;&gt;n22</title>
<path fill="none" stroke="black" d="M337.87,-487.35C355.37,-480.97 378.55,-472.52 397.86,-465.49"/>
<polygon fill="black" stroke="black" points="398.81,-468.87 407,-462.16 396.41,-462.29 398.81,-468.87"/>
<text text-anchor="middle" x="365.62" y="-481.6" font-family="Times,serif" font-size="10.00">(0,0)</text>
</g>
<!-- n35 -->
<g id="node36" class="node">
<title>n35</title>
<path fill="none" stroke="black" d="M878.25,-447C878.25,-447 830,-447 830,-447 824,-447 818,-441 818,-435 818,-435 818,-423 818,-423 818,-417 824,-411 830,-411 830,-411 878.25,-411 878.25,-411 884.25,-411 890.25,-417 890.25,-423 890.25,-423 890.25,-435 890.25,-435 890.25,-441 884.25,-447 878.25,-447"/>
<text text-anchor="middle" x="854.12" y="-424.73" font-family="Times,serif" font-size="12.00">ret sumTwo</text>
</g>
<!-- n22&#45;&gt;n35 -->
<g id="edge35" class="edge">
<title>n22&#45;&gt;n35</title>
<path fill="none" stroke="black" d="M462.97,-450.59C520.72,-447.47 663.75,-439.72 783.5,-433 790.89,-432.59 798.71,-432.14 806.35,-431.7"/>
<polygon fill="black" stroke="black" points="806.41,-435.21 816.19,-431.14 806.01,-428.22 806.41,-435.21"/>
<text text-anchor="middle" x="614.88" y="-444.42" font-family="Times,serif" font-size="10.00">(T,0)</text>
</g>
<!-- n25 -->
<g id="node26" class="node">
<title>n25</title>
<path fill="none" stroke="black" d="M325.38,-346C325.38,-346 295.38,-346 295.38,-346 289.38,-346 283.38,-340 283.38,-334 283.38,-334 283.38,-322 283.38,-322 283.38,-316 289.38,-310 295.38,-310 295.38,-310 325.38,-310 325.38,-310 331.38,-310 337.38,-316 337.38,-322 337.38,-322 337.38,-334 337.38,-334 337.38,-340 331.38,-346 325.38,-346"/>
<text text-anchor="middle" x="310.38" y="-323.73" font-family="Times,serif" font-size="12.00">&gt;</text>
</g>
<!-- n23&#45;&gt;n25 -->
<g id="edge23" class="edge">
<title>n23&#45;&gt;n25</title>
<path fill="none" stroke="black" d="M212.37,-296.58C229.79,-302.22 252.84,-309.69 272.09,-315.93"/>
<polygon fill="black" stroke="black" points="270.89,-319.22 281.49,-318.97 273.05,-312.56 270.89,-319.22"/>
<text text-anchor="middle" x="255.12" y="-314.51" font-family="Times,serif" font-size="10.00">(0,0)</text>
</g>
<!-- n24 -->
<g id="node25" class="node">
<title>n24</title>
<path fill="none" stroke="black" d="M199.88,-360C199.88,-360 169.88,-360 169.88,-360 163.88,-360 157.88,-354 157.88,-348 157.88,-348 157.88,-336 157.88,-336 157.88,-330 163.88,-324 169.88,-324 169.88,-324 199.88,-324 199.88,-324 205.88,-324 211.88,-330 211.88,-336 211.88,-336 211.88,-348 211.88,-348 211.88,-354 205.88,-360 199.88,-360"/>
<text text-anchor="middle" x="184.88" y="-337.73" font-family="Times,serif" font-size="12.00">const 0</text>
</g>
<!-- n24&#45;&gt;n25 -->
<g id="edge24" class="edge">
<title>n24&#45;&gt;n25</title>
<path fill="none" stroke="black" d="M212.37,-339C229.62,-337.04 252.4,-334.46 271.55,-332.29"/>
<polygon fill="black" stroke="black" points="271.88,-335.77 281.42,-331.17 271.09,-328.82 271.88,-335.77"/>
<text text-anchor="middle" x="255.12" y="-336.75" font-family="Times,serif" font-size="10.00">(0,1)</text>
</g>
<!-- n28 -->
<g id="node29" class="node">
<title>n28</title>
<path fill="none" stroke="black" d="M450.88,-373C450.88,-373 420.88,-373 420.88,-373 414.88,-373 408.88,-367 408.88,-361 408.88,-361 408.88,-349 408.88,-349 408.88,-343 414.88,-337 420.88,-337 420.88,-337 450.88,-337 450.88,-337 456.88,-337 462.88,-343 462.88,-349 462.88,-349 462.88,-361 462.88,-361 462.88,-367 456.88,-373 450.88,-373"/>
<text text-anchor="middle" x="435.88" y="-350.73" font-family="Times,serif" font-size="12.00">==</text>
</g>
<!-- n25&#45;&gt;n28 -->
<g id="edge25" class="edge">
<title>n25&#45;&gt;n28</title>
<path fill="none" stroke="black" d="M337.87,-333.79C355.21,-337.58 378.12,-342.59 397.32,-346.79"/>
<polygon fill="black" stroke="black" points="396.43,-350.18 406.95,-348.89 397.92,-343.34 396.43,-350.18"/>
<text text-anchor="middle" x="365.62" y="-343.25" font-family="Times,serif" font-size="10.00">(0,0)</text>
</g>
<!-- n32 -->
<g id="node33" class="node">
<title>n32</title>
<path fill="none" stroke="black" d="M450.88,-252C450.88,-252 420.88,-252 420.88,-252 414.88,-252 408.88,-246 408.88,-240 408.88,-240 408.88,-228 408.88,-228 408.88,-222 414.88,-216 420.88,-216 420.88,-216 450.88,-216 450.88,-216 456.88,-216 462.88,-222 462.88,-228 462.88,-228 462.88,-240 462.88,-240 462.88,-246 456.88,-252 450.88,-252"/>
<text text-anchor="middle" x="435.88" y="-229.72" font-family="Times,serif" font-size="12.00">+</text>
</g>
<!-- n25&#45;&gt;n32 -->
<g id="edge31" class="edge">
<title>n25&#45;&gt;n32</title>
<path fill="none" stroke="black" d="M335.48,-309.65C354.35,-295.29 380.81,-275.15 401.68,-259.27"/>
<polygon fill="black" stroke="black" points="403.79,-262.06 409.63,-253.22 399.55,-256.49 403.79,-262.06"/>
<text text-anchor="middle" x="365.62" y="-293.93" font-family="Times,serif" font-size="10.00">(0,0)</text>
</g>
<!-- n26 -->
<g id="node27" class="node">
<title>n26</title>
<path fill="none" stroke="black" d="M325.38,-269C325.38,-269 295.38,-269 295.38,-269 289.38,-269 283.38,-263 283.38,-257 283.38,-257 283.38,-245 283.38,-245 283.38,-239 289.38,-233 295.38,-233 295.38,-233 325.38,-233 325.38,-233 331.38,-233 337.38,-239 337.38,-245 337.38,-245 337.38,-257 337.38,-257 337.38,-263 331.38,-269 325.38,-269"/>
<text text-anchor="middle" x="310.38" y="-246.72" font-family="Times,serif" font-size="12.00">const 1</text>
</g>
<!-- n29 -->
<g id="node30" class="node">
<title>n29</title>
<path fill="none" stroke="black" d="M575.5,-370C575.5,-370 545.5,-370 545.5,-370 539.5,-370 533.5,-364 533.5,-358 533.5,-358 533.5,-346 533.5,-346 533.5,-340 539.5,-334 545.5,-334 545.5,-334 575.5,-334 575.5,-334 581.5,-334 587.5,-340 587.5,-346 587.5,-346 587.5,-358 587.5,-358 587.5,-364 581.5,-370 575.5,-370"/>
<text text-anchor="middle" x="560.5" y="-347.73" font-family="Times,serif" font-size="12.00">band</text>
</g>
<!-- n26&#45;&gt;n29 -->
<g id="edge27" class="edge">
<title>n26&#45;&gt;n29</title>
<path fill="none" stroke="black" d="M337.59,-260.95C370.64,-273.58 429.14,-296.19 478.75,-316.75 493.13,-322.71 508.85,-329.51 522.55,-335.53"/>
<polygon fill="black" stroke="black" points="521.11,-338.72 531.67,-339.55 523.94,-332.31 521.11,-338.72"/>
<text text-anchor="middle" x="435.88" y="-318.5" font-family="Times,serif" font-size="10.00">(0,0)</text>
</g>
<!-- n26&#45;&gt;n32 -->
<g id="edge32" class="edge">
<title>n26&#45;&gt;n32</title>
<path fill="none" stroke="black" d="M337.87,-247.35C355.12,-244.98 377.9,-241.84 397.05,-239.21"/>
<polygon fill="black" stroke="black" points="397.5,-242.68 406.93,-237.85 396.54,-235.74 397.5,-242.68"/>
<text text-anchor="middle" x="365.62" y="-246.27" font-family="Times,serif" font-size="10.00">(0,1)</text>
</g>
<!-- n27 -->
<g id="node28" class="node">
<title>n27</title>
<path fill="none" stroke="black" d="M325.38,-407C325.38,-407 295.38,-407 295.38,-407 289.38,-407 283.38,-401 283.38,-395 283.38,-395 283.38,-383 283.38,-383 283.38,-377 289.38,-371 295.38,-371 295.38,-371 325.38,-371 325.38,-371 331.38,-371 337.38,-377 337.38,-383 337.38,-383 337.38,-395 337.38,-395 337.38,-401 331.38,-407 325.38,-407"/>
<text text-anchor="middle" x="310.38" y="-384.73" font-family="Times,serif" font-size="12.00">const 0</text>
</g>
<!-- n27&#45;&gt;n28 -->
<g id="edge26" class="edge">
<title>n27&#45;&gt;n28</title>
<path fill="none" stroke="black" d="M337.87,-381.71C355.29,-376.91 378.34,-370.57 397.59,-365.26"/>
<polygon fill="black" stroke="black" points="398.25,-368.71 406.97,-362.68 396.4,-361.96 398.25,-368.71"/>
<text text-anchor="middle" x="365.62" y="-377.8" font-family="Times,serif" font-size="10.00">(0,1)</text>
</g>
<!-- n28&#45;&gt;n29 -->
<g id="edge28" class="edge">
<title>n28&#45;&gt;n29</title>
<path fill="none" stroke="black" d="M463.18,-354.36C480.31,-353.94 502.93,-353.38 521.95,-352.92"/>
<polygon fill="black" stroke="black" points="521.81,-356.42 531.72,-352.68 521.64,-349.43 521.81,-356.42"/>
<text text-anchor="middle" x="506.12" y="-355.25" font-family="Times,serif" font-size="10.00">(0,1)</text>
</g>
<!-- n31 -->
<g id="node32" class="node">
<title>n31</title>
<path fill="none" stroke="black" d="M709.5,-424C709.5,-424 679.5,-424 679.5,-424 673.5,-424 667.5,-418 667.5,-412 667.5,-412 667.5,-400 667.5,-400 667.5,-394 673.5,-388 679.5,-388 679.5,-388 709.5,-388 709.5,-388 715.5,-388 721.5,-394 721.5,-400 721.5,-400 721.5,-412 721.5,-412 721.5,-418 715.5,-424 709.5,-424"/>
<text text-anchor="middle" x="694.5" y="-401.73" font-family="Times,serif" font-size="12.00">steer</text>
</g>
<!-- n29&#45;&gt;n31 -->
<g id="edge30" class="edge">
<title>n29&#45;&gt;n31</title>
<path fill="none" stroke="black" d="M587.89,-362.8C607.59,-370.85 634.75,-381.97 656.6,-390.9"/>
<polygon fill="black" stroke="black" points="655.17,-394.1 665.75,-394.65 657.82,-387.62 655.17,-394.1"/>
<text text-anchor="middle" x="614.88" y="-379.13" font-family="Times,serif" font-size="10.00">(0,1)</text>
</g>
<!-- n30 -->
<g id="node31" class="node">
<title>n30</title>
<path fill="none" stroke="black" d="M575.5,-424C575.5,-424 545.5,-424 545.5,-424 539.5,-424 533.5,-418 533.5,-412 533.5,-412 533.5,-400 533.5,-400 533.5,-394 539.5,-388 545.5,-388 545.5,-388 575.5,-388 575.5,-388 581.5,-388 587.5,-394 587.5,-400 587.5,-400 587.5,-412 587.5,-412 587.5,-418 581.5,-424 575.5,-424"/>
<text text-anchor="middle" x="560.5" y="-401.73" font-family="Times,serif" font-size="12.00">const 0</text>
</g>
<!-- n30&#45;&gt;n31 -->
<g id="edge29" class="edge">
<title>n30&#45;&gt;n31</title>
<path fill="none" stroke="black" d="M587.89,-406C607.32,-406 634.01,-406 655.7,-406"/>
<polygon fill="black" stroke="black" points="655.64,-409.5 665.64,-406 655.64,-402.5 655.64,-409.5"/>
<text text-anchor="middle" x="614.88" y="-407.75" font-family="Times,serif" font-size="10.00">(0,0)</text>
</g>
<!-- n31&#45;&gt;n35 -->
<g id="edge36" class="edge">
<title>n31&#45;&gt;n35</title>
<path fill="none" stroke="black" d="M721.88,-409.85C744.89,-413.21 778.8,-418.16 806.39,-422.18"/>
<polygon fill="black" stroke="black" points="805.88,-425.64 816.28,-423.62 806.89,-418.72 805.88,-425.64"/>
<text text-anchor="middle" x="774.12" y="-419.94" font-family="Times,serif" font-size="10.00">(T,0)</text>
</g>
<!-- n34 -->
<g id="node35" class="node">
<title>n34</title>
<path fill="none" stroke="black" d="M575.5,-220C575.5,-220 545.5,-220 545.5,-220 539.5,-220 533.5,-214 533.5,-208 533.5,-208 533.5,-196 533.5,-196 533.5,-190 539.5,-184 545.5,-184 545.5,-184 575.5,-184 575.5,-184 581.5,-184 587.5,-190 587.5,-196 587.5,-196 587.5,-208 587.5,-208 587.5,-214 581.5,-220 575.5,-220"/>
<text text-anchor="middle" x="560.5" y="-197.72" font-family="Times,serif" font-size="12.00">&gt;</text>
</g>
<!-- n32&#45;&gt;n34 -->
<g id="edge33" class="edge">
<title>n32&#45;&gt;n34</title>
<path fill="none" stroke="black" d="M463.18,-227.14C480.4,-222.64 503.15,-216.71 522.22,-211.73"/>
<polygon fill="black" stroke="black" points="522.98,-215.15 531.77,-209.24 521.21,-208.37 522.98,-215.15"/>
<text text-anchor="middle" x="506.12" y="-219.75" font-family="Times,serif" font-size="10.00">(0,0)</text>
</g>
<!-- n33 -->
<g id="node34" class="node">
<title>n33</title>
<path fill="none" stroke="black" d="M450.88,-198C450.88,-198 420.88,-198 420.88,-198 414.88,-198 408.88,-192 408.88,-186 408.88,-186 408.88,-174 408.88,-174 408.88,-168 414.88,-162 420.88,-162 420.88,-162 450.88,-162 450.88,-162 456.88,-162 462.88,-168 462.88,-174 462.88,-174 462.88,-186 462.88,-186 462.88,-192 456.88,-198 450.88,-198"/>
<text text-anchor="middle" x="435.88" y="-175.72" font-family="Times,serif" font-size="12.00">const 0</text>
</g>
<!-- n33&#45;&gt;n34 -->
<g id="edge34" class="edge">
<title>n33&#45;&gt;n34</title>
<path fill="none" stroke="black" d="M463.21,-182.84C478.54,-184.68 498.19,-187.37 515.5,-190.75 517.65,-191.17 519.85,-191.63 522.06,-192.12"/>
<polygon fill="black" stroke="black" points="521.08,-195.48 531.61,-194.38 522.69,-188.67 521.08,-195.48"/>
<text text-anchor="middle" x="506.12" y="-192.5" font-family="Times,serif" font-size="10.00">(0,1)</text>
</g>
<!-- n36 -->
<g id="node37" class="node">
<title>n36</title>
<path fill="none" stroke="black" d="M734.75,-54C734.75,-54 654.25,-54 654.25,-54 648.25,-54 642.25,-48 642.25,-42 642.25,-42 642.25,-30 642.25,-30 642.25,-24 648.25,-18 654.25,-18 654.25,-18 734.75,-18 734.75,-18 740.75,-18 746.75,-24 746.75,-30 746.75,-30 746.75,-42 746.75,-42 746.75,-48 740.75,-54 734.75,-54"/>
<text text-anchor="middle" x="694.5" y="-31.73" font-family="Times,serif" font-size="12.00">callgroup sumTwo</text>
</g>
<!-- n36&#45;&gt;n37 -->
<g id="edge38" class="edge">
<title>n36&#45;&gt;n37</title>
<path fill="none" stroke="black" d="M747.11,-53.68C760.92,-58.41 776,-63.58 790.34,-68.49"/>
<polygon fill="black" stroke="black" points="789.1,-71.77 799.7,-71.7 791.37,-65.14 789.1,-71.77"/>
<text text-anchor="middle" x="774.12" y="-66.37" font-family="Times,serif" font-size="10.00">(0,1)</text>
</g>
<!-- n38 -->
<g id="node39" class="node">
<title>n38</title>
<path fill="none" stroke="black" d="M886.5,-47C886.5,-47 821.75,-47 821.75,-47 815.75,-47 809.75,-41 809.75,-35 809.75,-35 809.75,-23 809.75,-23 809.75,-17 815.75,-11 821.75,-11 821.75,-11 886.5,-11 886.5,-11 892.5,-11 898.5,-17 898.5,-23 898.5,-23 898.5,-35 898.5,-35 898.5,-41 892.5,-47 886.5,-47"/>
<text text-anchor="middle" x="854.12" y="-24.73" font-family="Times,serif" font-size="12.00">retsnd sumTwo</text>
</g>
<!-- n36&#45;&gt;n38 -->
<g id="edge39" class="edge">
<title>n36&#45;&gt;n38</title>
<path fill="none" stroke="black" d="M746.9,-30.89C752.91,-30.43 758.96,-30.04 764.75,-29.75 775.56,-29.22 787.11,-28.92 798.19,-28.77"/>
<polygon fill="black" stroke="black" points="798.02,-32.27 807.99,-28.68 797.96,-25.27 798.02,-32.27"/>
<text text-anchor="middle" x="774.12" y="-31.5" font-family="Times,serif" font-size="10.00">(0,1)</text>
</g>
<!-- n39 -->
<g id="node40" class="node">
<title>n39</title>
<path fill="none" stroke="black" d="M1003.75,-47C1003.75,-47 973.5,-47 973.5,-47 967.5,-47 961.5,-41 961.5,-35 961.5,-35 961.5,-23 961.5,-23 961.5,-17 967.5,-11 973.5,-11 973.5,-11 1003.75,-11 1003.75,-11 1009.75,-11 1015.75,-17 1015.75,-23 1015.75,-23 1015.75,-35 1015.75,-35 1015.75,-41 1009.75,-47 1003.75,-47"/>
<text text-anchor="middle" x="988.62" y="-24.73" font-family="Times,serif" font-size="12.00">ret main</text>
</g>
<!-- n38&#45;&gt;n39 -->
<g id="edge40" class="edge">
<title>n38&#45;&gt;n39</title>
<path fill="none" stroke="black" d="M898.88,-29C915.5,-29 934.26,-29 950.24,-29"/>
<polygon fill="black" stroke="black" points="949.8,-32.5 959.8,-29 949.8,-25.5 949.8,-32.5"/>
<text text-anchor="middle" x="934.12" y="-30.75" font-family="Times,serif" font-size="10.00">(0,0)</text>
</g>
</g>
</svg>
