<?xml version="1.0" encoding="UTF-8" standalone="no"?>
<!DOCTYPE svg PUBLIC "-//W3C//DTD SVG 1.1//EN"
 "http://www.w3.org/Graphics/SVG/1.1/DTD/svg11.dtd">
<!-- Generated by graphviz version 12.2.1 (20241206.2353)
 -->
<!-- Title: G Pages: 1 -->
<svg width="866pt" height="561pt"
 viewBox="0.00 0.00 865.75 561.25" xmlns="http://www.w3.org/2000/svg" xmlns:xlink="http://www.w3.org/1999/xlink">
<g id="graph0" class="graph" transform="scale(1 1) rotate(0) translate(4 557.25)">
<title>G</title>
<polygon fill="white" stroke="none" points="-4,4 -4,-557.25 861.75,-557.25 861.75,4 -4,4"/>
<!-- n0 -->
<g id="node1" class="node">
<title>n0</title>
<path fill="none" stroke="black" d="M79,-172C79,-172 29.25,-172 29.25,-172 23.25,-172 17.25,-166 17.25,-160 17.25,-160 17.25,-148 17.25,-148 17.25,-142 23.25,-136 29.25,-136 29.25,-136 79,-136 79,-136 85,-136 91,-142 91,-148 91,-148 91,-160 91,-160 91,-166 85,-172 79,-172"/>
<text text-anchor="middle" x="54.12" y="-149.72" font-family="Times,serif" font-size="12.00">const 10000</text>
</g>
<!-- n21 -->
<g id="node22" class="node">
<title>n21</title>
<path fill="none" stroke="black" d="M260,-165C260,-165 175,-165 175,-165 169,-165 163,-159 163,-153 163,-153 163,-141 163,-141 163,-135 169,-129 175,-129 175,-129 260,-129 260,-129 266,-129 272,-135 272,-141 272,-141 272,-153 272,-153 272,-159 266,-165 260,-165"/>
<text text-anchor="middle" x="217.5" y="-142.72" font-family="Times,serif" font-size="12.00">callsnd sumFrom#0</text>
</g>
<!-- n0&#45;&gt;n21 -->
<g id="edge24" class="edge">
<title>n0&#45;&gt;n21</title>
<path fill="none" stroke="black" d="M91.34,-152.43C108.98,-151.66 130.74,-150.72 151.14,-149.84"/>
<polygon fill="black" stroke="black" points="151.28,-153.33 161.12,-149.4 150.98,-146.34 151.28,-153.33"/>
<text text-anchor="middle" x="135.62" y="-152.46" font-family="Times,serif" font-size="10.00">(0,0)</text>
</g>
<!-- n1 -->
<g id="node2" class="node">
<title>n1</title>
<path fill="none" stroke="black" d="M69.12,-36C69.12,-36 39.12,-36 39.12,-36 33.12,-36 27.12,-30 27.12,-24 27.12,-24 27.12,-12 27.12,-12 27.12,-6 33.12,0 39.12,0 39.12,0 69.12,0 69.12,0 75.12,0 81.12,-6 81.12,-12 81.12,-12 81.12,-24 81.12,-24 81.12,-30 75.12,-36 69.12,-36"/>
<text text-anchor="middle" x="54.12" y="-13.72" font-family="Times,serif" font-size="12.00">const 0</text>
</g>
<!-- n22 -->
<g id="node23" class="node">
<title>n22</title>
<path fill="none" stroke="black" d="M260,-43C260,-43 175,-43 175,-43 169,-43 163,-37 163,-31 163,-31 163,-19 163,-19 163,-13 169,-7 175,-7 175,-7 260,-7 260,-7 266,-7 272,-13 272,-19 272,-19 272,-31 272,-31 272,-37 266,-43 260,-43"/>
<text text-anchor="middle" x="217.5" y="-20.73" font-family="Times,serif" font-size="12.00">callsnd sumFrom#1</text>
</g>
<!-- n1&#45;&gt;n22 -->
<g id="edge26" class="edge">
<title>n1&#45;&gt;n22</title>
<path fill="none" stroke="black" d="M81.49,-17.67C99.41,-17.59 123.65,-17.73 145,-18.75 147.06,-18.85 149.15,-18.96 151.26,-19.08"/>
<polygon fill="black" stroke="black" points="150.93,-22.57 161.14,-19.74 151.4,-15.58 150.93,-22.57"/>
<text text-anchor="middle" x="135.62" y="-20.5" font-family="Times,serif" font-size="10.00">(0,0)</text>
</g>
<!-- n2 -->
<g id="node3" class="node">
<title>n2</title>
<path fill="none" stroke="black" d="M87.62,-504C87.62,-504 20.62,-504 20.62,-504 14.62,-504 8.62,-498 8.62,-492 8.62,-492 8.62,-480 8.62,-480 8.62,-474 14.62,-468 20.62,-468 20.62,-468 87.62,-468 87.62,-468 93.62,-468 99.62,-474 99.62,-480 99.62,-480 99.62,-492 99.62,-492 99.62,-498 93.62,-504 87.62,-504"/>
<text text-anchor="middle" x="54.12" y="-481.73" font-family="Times,serif" font-size="12.00">arg sumFrom#0</text>
</g>
<!-- n12 -->
<g id="node13" class="node">
<title>n12</title>
<path fill="none" stroke="black" d="M232.5,-474C232.5,-474 202.5,-474 202.5,-474 196.5,-474 190.5,-468 190.5,-462 190.5,-462 190.5,-450 190.5,-450 190.5,-444 196.5,-438 202.5,-438 202.5,-438 232.5,-438 232.5,-438 238.5,-438 244.5,-444 244.5,-450 244.5,-450 244.5,-462 244.5,-462 244.5,-468 238.5,-474 232.5,-474"/>
<text text-anchor="middle" x="217.5" y="-451.73" font-family="Times,serif" font-size="12.00">+</text>
</g>
<!-- n2&#45;&gt;n12 -->
<g id="edge11" class="edge">
<title>n2&#45;&gt;n12</title>
<path fill="none" stroke="black" d="M100.08,-477.64C124.97,-473.02 155.55,-467.33 179.12,-462.95"/>
<polygon fill="black" stroke="black" points="179.72,-466.4 188.92,-461.13 178.44,-459.51 179.72,-466.4"/>
<text text-anchor="middle" x="135.62" y="-473.65" font-family="Times,serif" font-size="10.00">(0,0)</text>
</g>
<!-- n17 -->
<g id="node18" class="node">
<title>n17</title>
<path fill="none" stroke="black" d="M715,-517C715,-517 685,-517 685,-517 679,-517 673,-511 673,-505 673,-505 673,-493 673,-493 673,-487 679,-481 685,-481 685,-481 715,-481 715,-481 721,-481 727,-487 727,-493 727,-493 727,-505 727,-505 727,-511 721,-517 715,-517"/>
<text text-anchor="middle" x="700" y="-494.73" font-family="Times,serif" font-size="12.00">steer</text>
</g>
<!-- n2&#45;&gt;n17 -->
<g id="edge18" class="edge">
<title>n2&#45;&gt;n17</title>
<path fill="none" stroke="black" d="M87.67,-504.49C119.47,-520.8 169.79,-542 216.5,-542 216.5,-542 216.5,-542 592.25,-542 616.92,-542 642.63,-532 662.63,-521.64"/>
<polygon fill="black" stroke="black" points="664.1,-524.82 671.21,-516.97 660.75,-518.68 664.1,-524.82"/>
<text text-anchor="middle" x="381.25" y="-543.75" font-family="Times,serif" font-size="10.00">(0,0)</text>
</g>
<!-- n3 -->
<g id="node4" class="node">
<title>n3</title>
<path fill="none" stroke="black" d="M87.62,-338C87.62,-338 20.62,-338 20.62,-338 14.62,-338 8.62,-332 8.62,-326 8.62,-326 8.62,-314 8.62,-314 8.62,-308 14.62,-302 20.62,-302 20.62,-302 87.62,-302 87.62,-302 93.62,-302 99.62,-308 99.62,-314 99.62,-314 99.62,-326 99.62,-326 99.62,-332 93.62,-338 87.62,-338"/>
<text text-anchor="middle" x="54.12" y="-315.73" font-family="Times,serif" font-size="12.00">arg sumFrom#1</text>
</g>
<!-- n5 -->
<g id="node6" class="node">
<title>n5</title>
<path fill="none" stroke="black" d="M232.5,-301C232.5,-301 202.5,-301 202.5,-301 196.5,-301 190.5,-295 190.5,-289 190.5,-289 190.5,-277 190.5,-277 190.5,-271 196.5,-265 202.5,-265 202.5,-265 232.5,-265 232.5,-265 238.5,-265 244.5,-271 244.5,-277 244.5,-277 244.5,-289 244.5,-289 244.5,-295 238.5,-301 232.5,-301"/>
<text text-anchor="middle" x="217.5" y="-278.73" font-family="Times,serif" font-size="12.00">&lt;</text>
</g>
<!-- n3&#45;&gt;n5 -->
<g id="edge1" class="edge">
<title>n3&#45;&gt;n5</title>
<path fill="none" stroke="black" d="M100.08,-309.69C125.08,-303.96 155.83,-296.91 179.44,-291.5"/>
<polygon fill="black" stroke="black" points="179.96,-294.97 188.93,-289.32 178.4,-288.14 179.96,-294.97"/>
<text text-anchor="middle" x="135.62" y="-304.36" font-family="Times,serif" font-size="10.00">(0,0)</text>
</g>
<!-- n6 -->
<g id="node7" class="node">
<title>n6</title>
<path fill="none" stroke="black" d="M232.5,-247C232.5,-247 202.5,-247 202.5,-247 196.5,-247 190.5,-241 190.5,-235 190.5,-235 190.5,-223 190.5,-223 190.5,-217 196.5,-211 202.5,-211 202.5,-211 232.5,-211 232.5,-211 238.5,-211 244.5,-217 244.5,-223 244.5,-223 244.5,-235 244.5,-235 244.5,-241 238.5,-247 232.5,-247"/>
<text text-anchor="middle" x="217.5" y="-224.72" font-family="Times,serif" font-size="12.00">==</text>
</g>
<!-- n3&#45;&gt;n6 -->
<g id="edge3" class="edge">
<title>n3&#45;&gt;n6</title>
<path fill="none" stroke="black" d="M85.03,-301.51C106.51,-288.42 136.27,-270.65 163,-256 168.47,-253 174.32,-249.92 180.07,-246.97"/>
<polygon fill="black" stroke="black" points="181.51,-250.16 188.84,-242.52 178.34,-243.92 181.51,-250.16"/>
<text text-anchor="middle" x="135.62" y="-278.18" font-family="Times,serif" font-size="10.00">(0,0)</text>
</g>
<!-- n11 -->
<g id="node12" class="node">
<title>n11</title>
<path fill="none" stroke="black" d="M232.5,-355C232.5,-355 202.5,-355 202.5,-355 196.5,-355 190.5,-349 190.5,-343 190.5,-343 190.5,-331 190.5,-331 190.5,-325 196.5,-319 202.5,-319 202.5,-319 232.5,-319 232.5,-319 238.5,-319 244.5,-325 244.5,-331 244.5,-331 244.5,-343 244.5,-343 244.5,-349 238.5,-355 232.5,-355"/>
<text text-anchor="middle" x="217.5" y="-332.73" font-family="Times,serif" font-size="12.00">&#45;</text>
</g>
<!-- n3&#45;&gt;n11 -->
<g id="edge9" class="edge">
<title>n3&#45;&gt;n11</title>
<path fill="none" stroke="black" d="M100.08,-324.74C124.97,-327.36 155.55,-330.58 179.12,-333.06"/>
<polygon fill="black" stroke="black" points="178.59,-336.53 188.9,-334.09 179.32,-329.56 178.59,-336.53"/>
<text text-anchor="middle" x="135.62" y="-330.76" font-family="Times,serif" font-size="10.00">(0,0)</text>
</g>
<!-- n3&#45;&gt;n12 -->
<g id="edge12" class="edge">
<title>n3&#45;&gt;n12</title>
<path fill="none" stroke="black" d="M99.75,-336.93C115.79,-344.85 132.89,-355.7 145,-369.75 159.94,-387.09 149.06,-399.85 163,-418 168.01,-424.52 174.45,-430.39 181.11,-435.45"/>
<polygon fill="black" stroke="black" points="178.79,-438.09 188.99,-440.97 182.81,-432.36 178.79,-438.09"/>
<text text-anchor="middle" x="135.62" y="-371.5" font-family="Times,serif" font-size="10.00">(0,1)</text>
</g>
<!-- n4 -->
<g id="node5" class="node">
<title>n4</title>
<path fill="none" stroke="black" d="M69.12,-233C69.12,-233 39.12,-233 39.12,-233 33.12,-233 27.12,-227 27.12,-221 27.12,-221 27.12,-209 27.12,-209 27.12,-203 33.12,-197 39.12,-197 39.12,-197 69.12,-197 69.12,-197 75.12,-197 81.12,-203 81.12,-209 81.12,-209 81.12,-221 81.12,-221 81.12,-227 75.12,-233 69.12,-233"/>
<text text-anchor="middle" x="54.12" y="-210.72" font-family="Times,serif" font-size="12.00">const 0</text>
</g>
<!-- n4&#45;&gt;n5 -->
<g id="edge2" class="edge">
<title>n4&#45;&gt;n5</title>
<path fill="none" stroke="black" d="M81.48,-216.82C100.29,-219.1 125.58,-224.23 145,-235.75 155.36,-241.89 153.46,-248.66 163,-256 168.23,-260.02 174.15,-263.71 180.1,-266.98"/>
<polygon fill="black" stroke="black" points="178.19,-269.93 188.68,-271.39 181.38,-263.7 178.19,-269.93"/>
<text text-anchor="middle" x="135.62" y="-237.5" font-family="Times,serif" font-size="10.00">(0,1)</text>
</g>
<!-- n4&#45;&gt;n6 -->
<g id="edge4" class="edge">
<title>n4&#45;&gt;n6</title>
<path fill="none" stroke="black" d="M81.56,-206.54C99.5,-201.91 123.75,-197.84 145,-201.75 156.56,-203.88 168.68,-207.79 179.58,-212"/>
<polygon fill="black" stroke="black" points="178.03,-215.15 188.61,-215.68 180.67,-208.67 178.03,-215.15"/>
<text text-anchor="middle" x="135.62" y="-203.5" font-family="Times,serif" font-size="10.00">(0,1)</text>
</g>
<!-- n7 -->
<g id="node8" class="node">
<title>n7</title>
<path fill="none" stroke="black" d="M396.25,-301C396.25,-301 366.25,-301 366.25,-301 360.25,-301 354.25,-295 354.25,-289 354.25,-289 354.25,-277 354.25,-277 354.25,-271 360.25,-265 366.25,-265 366.25,-265 396.25,-265 396.25,-265 402.25,-265 408.25,-271 408.25,-277 408.25,-277 408.25,-289 408.25,-289 408.25,-295 402.25,-301 396.25,-301"/>
<text text-anchor="middle" x="381.25" y="-278.73" font-family="Times,serif" font-size="12.00">+</text>
</g>
<!-- n5&#45;&gt;n7 -->
<g id="edge5" class="edge">
<title>n5&#45;&gt;n7</title>
<path fill="none" stroke="black" d="M244.85,-283C271.4,-283 312.63,-283 342.63,-283"/>
<polygon fill="black" stroke="black" points="342.4,-286.5 352.4,-283 342.4,-279.5 342.4,-286.5"/>
<text text-anchor="middle" x="299.38" y="-284.75" font-family="Times,serif" font-size="10.00">(0,0)</text>
</g>
<!-- n6&#45;&gt;n7 -->
<g id="edge6" class="edge">
<title>n6&#45;&gt;n7</title>
<path fill="none" stroke="black" d="M244.85,-237.8C271.52,-246.7 313,-260.55 343.02,-270.57"/>
<polygon fill="black" stroke="black" points="341.88,-273.88 352.48,-273.73 344.1,-267.24 341.88,-273.88"/>
<text text-anchor="middle" x="299.38" y="-259.37" font-family="Times,serif" font-size="10.00">(0,1)</text>
</g>
<!-- n9 -->
<g id="node10" class="node">
<title>n9</title>
<path fill="none" stroke="black" d="M606.25,-480C606.25,-480 576.25,-480 576.25,-480 570.25,-480 564.25,-474 564.25,-468 564.25,-468 564.25,-456 564.25,-456 564.25,-450 570.25,-444 576.25,-444 576.25,-444 606.25,-444 606.25,-444 612.25,-444 618.25,-450 618.25,-456 618.25,-456 618.25,-468 618.25,-468 618.25,-474 612.25,-480 606.25,-480"/>
<text text-anchor="middle" x="591.25" y="-457.73" font-family="Times,serif" font-size="12.00">&gt;</text>
</g>
<!-- n7&#45;&gt;n9 -->
<g id="edge7" class="edge">
<title>n7&#45;&gt;n9</title>
<path fill="none" stroke="black" d="M408.49,-288.04C444.74,-296.37 509.78,-316.49 546.25,-358.75 564.79,-380.23 552.68,-394.09 564.25,-420 566.35,-424.71 568.9,-429.52 571.57,-434.13"/>
<polygon fill="black" stroke="black" points="568.48,-435.79 576.69,-442.49 574.45,-432.13 568.48,-435.79"/>
<text text-anchor="middle" x="500" y="-360.5" font-family="Times,serif" font-size="10.00">(0,0)</text>
</g>
<!-- n8 -->
<g id="node9" class="node">
<title>n8</title>
<path fill="none" stroke="black" d="M396.25,-506C396.25,-506 366.25,-506 366.25,-506 360.25,-506 354.25,-500 354.25,-494 354.25,-494 354.25,-482 354.25,-482 354.25,-476 360.25,-470 366.25,-470 366.25,-470 396.25,-470 396.25,-470 402.25,-470 408.25,-476 408.25,-482 408.25,-482 408.25,-494 408.25,-494 408.25,-500 402.25,-506 396.25,-506"/>
<text text-anchor="middle" x="381.25" y="-483.73" font-family="Times,serif" font-size="12.00">const 0</text>
</g>
<!-- n8&#45;&gt;n9 -->
<g id="edge8" class="edge">
<title>n8&#45;&gt;n9</title>
<path fill="none" stroke="black" d="M408.59,-484.71C444.99,-480.16 510.86,-471.92 552.48,-466.72"/>
<polygon fill="black" stroke="black" points="552.8,-470.21 562.29,-465.49 551.93,-463.26 552.8,-470.21"/>
<text text-anchor="middle" x="500" y="-480.6" font-family="Times,serif" font-size="10.00">(0,1)</text>
</g>
<!-- n9&#45;&gt;n17 -->
<g id="edge19" class="edge">
<title>n9&#45;&gt;n17</title>
<path fill="none" stroke="black" d="M618.64,-471.15C631.72,-475.68 647.75,-481.24 662.04,-486.19"/>
<polygon fill="black" stroke="black" points="660.52,-489.37 671.12,-489.34 662.81,-482.75 660.52,-489.37"/>
<text text-anchor="middle" x="645.62" y="-484.47" font-family="Times,serif" font-size="10.00">(0,1)</text>
</g>
<!-- n18 -->
<g id="node19" class="node">
<title>n18</title>
<path fill="none" stroke="black" d="M715,-463C715,-463 685,-463 685,-463 679,-463 673,-457 673,-451 673,-451 673,-439 673,-439 673,-433 679,-427 685,-427 685,-427 715,-427 715,-427 721,-427 727,-433 727,-439 727,-439 727,-451 727,-451 727,-457 721,-463 715,-463"/>
<text text-anchor="middle" x="700" y="-440.73" font-family="Times,serif" font-size="12.00">steer</text>
</g>
<!-- n9&#45;&gt;n18 -->
<g id="edge21" class="edge">
<title>n9&#45;&gt;n18</title>
<path fill="none" stroke="black" d="M618.64,-457.8C631.47,-455.75 647.12,-453.26 661.19,-451.02"/>
<polygon fill="black" stroke="black" points="661.73,-454.48 671.05,-449.45 660.63,-447.57 661.73,-454.48"/>
<text text-anchor="middle" x="645.62" y="-456.27" font-family="Times,serif" font-size="10.00">(0,1)</text>
</g>
<!-- n10 -->
<g id="node11" class="node">
<title>n10</title>
<path fill="none" stroke="black" d="M69.12,-423C69.12,-423 39.12,-423 39.12,-423 33.12,-423 27.12,-417 27.12,-411 27.12,-411 27.12,-399 27.12,-399 27.12,-393 33.12,-387 39.12,-387 39.12,-387 69.12,-387 69.12,-387 75.12,-387 81.12,-393 81.12,-399 81.12,-399 81.12,-411 81.12,-411 81.12,-417 75.12,-423 69.12,-423"/>
<text text-anchor="middle" x="54.12" y="-400.73" font-family="Times,serif" font-size="12.00">const 1</text>
</g>
<!-- n10&#45;&gt;n11 -->
<g id="edge10" class="edge">
<title>n10&#45;&gt;n11</title>
<path fill="none" stroke="black" d="M81.38,-402.56C100.14,-399.9 125.41,-394.38 145,-383 155.06,-377.16 153.67,-370.95 163,-364 168.29,-360.06 174.25,-356.42 180.21,-353.16"/>
<polygon fill="black" stroke="black" points="181.49,-356.44 188.79,-348.76 178.3,-350.21 181.49,-356.44"/>
<text text-anchor="middle" x="135.62" y="-393.26" font-family="Times,serif" font-size="10.00">(0,1)</text>
</g>
<!-- n14 -->
<g id="node15" class="node">
<title>n14</title>
<path fill="none" stroke="black" d="M423.75,-359C423.75,-359 338.75,-359 338.75,-359 332.75,-359 326.75,-353 326.75,-347 326.75,-347 326.75,-335 326.75,-335 326.75,-329 332.75,-323 338.75,-323 338.75,-323 423.75,-323 423.75,-323 429.75,-323 435.75,-329 435.75,-335 435.75,-335 435.75,-347 435.75,-347 435.75,-353 429.75,-359 423.75,-359"/>
<text text-anchor="middle" x="381.25" y="-336.73" font-family="Times,serif" font-size="12.00">callsnd sumFrom#0</text>
</g>
<!-- n11&#45;&gt;n14 -->
<g id="edge13" class="edge">
<title>n11&#45;&gt;n14</title>
<path fill="none" stroke="black" d="M244.87,-327.79C262.82,-322.61 287.15,-317.75 308.75,-320.75 310.91,-321.05 313.09,-321.4 315.29,-321.79"/>
<polygon fill="black" stroke="black" points="314.34,-325.17 324.84,-323.73 315.74,-318.31 314.34,-325.17"/>
<text text-anchor="middle" x="299.38" y="-322.5" font-family="Times,serif" font-size="10.00">(0,0)</text>
</g>
<!-- n15 -->
<g id="node16" class="node">
<title>n15</title>
<path fill="none" stroke="black" d="M423.75,-452C423.75,-452 338.75,-452 338.75,-452 332.75,-452 326.75,-446 326.75,-440 326.75,-440 326.75,-428 326.75,-428 326.75,-422 332.75,-416 338.75,-416 338.75,-416 423.75,-416 423.75,-416 429.75,-416 435.75,-422 435.75,-428 435.75,-428 435.75,-440 435.75,-440 435.75,-446 429.75,-452 423.75,-452"/>
<text text-anchor="middle" x="381.25" y="-429.73" font-family="Times,serif" font-size="12.00">callsnd sumFrom#1</text>
</g>
<!-- n12&#45;&gt;n15 -->
<g id="edge15" class="edge">
<title>n12&#45;&gt;n15</title>
<path fill="none" stroke="black" d="M244.85,-452.42C263.94,-449.82 290.63,-446.19 315.27,-442.84"/>
<polygon fill="black" stroke="black" points="315.48,-446.34 324.92,-441.53 314.54,-439.41 315.48,-446.34"/>
<text text-anchor="middle" x="299.38" y="-447.41" font-family="Times,serif" font-size="10.00">(0,0)</text>
</g>
<!-- n13 -->
<g id="node14" class="node">
<title>n13</title>
<path fill="none" stroke="black" d="M259.62,-409C259.62,-409 175.38,-409 175.38,-409 169.38,-409 163.38,-403 163.38,-397 163.38,-397 163.38,-385 163.38,-385 163.38,-379 169.38,-373 175.38,-373 175.38,-373 259.62,-373 259.62,-373 265.62,-373 271.62,-379 271.62,-385 271.62,-385 271.62,-397 271.62,-397 271.62,-403 265.62,-409 259.62,-409"/>
<text text-anchor="middle" x="217.5" y="-386.73" font-family="Times,serif" font-size="12.00">callgroup sumFrom</text>
</g>
<!-- n13&#45;&gt;n14 -->
<g id="edge14" class="edge">
<title>n13&#45;&gt;n14</title>
<path fill="none" stroke="black" d="M255.07,-372.59C260.74,-369.72 266.53,-366.79 272,-364 280.01,-359.92 281.44,-357.52 290,-354.75 298.07,-352.14 306.72,-350.02 315.34,-348.3"/>
<polygon fill="black" stroke="black" points="315.91,-351.75 325.12,-346.53 314.66,-344.86 315.91,-351.75"/>
<text text-anchor="middle" x="299.38" y="-356.5" font-family="Times,serif" font-size="10.00">(0,1)</text>
</g>
<!-- n13&#45;&gt;n15 -->
<g id="edge16" class="edge">
<title>n13&#45;&gt;n15</title>
<path fill="none" stroke="black" d="M271.91,-405.2C285.84,-408.9 301.01,-412.93 315.46,-416.78"/>
<polygon fill="black" stroke="black" points="314.32,-420.09 324.88,-419.28 316.11,-413.33 314.32,-420.09"/>
<text text-anchor="middle" x="299.38" y="-415.54" font-family="Times,serif" font-size="10.00">(0,1)</text>
</g>
<!-- n16 -->
<g id="node17" class="node">
<title>n16</title>
<path fill="none" stroke="black" d="M534.25,-415C534.25,-415 465.75,-415 465.75,-415 459.75,-415 453.75,-409 453.75,-403 453.75,-403 453.75,-391 453.75,-391 453.75,-385 459.75,-379 465.75,-379 465.75,-379 534.25,-379 534.25,-379 540.25,-379 546.25,-385 546.25,-391 546.25,-391 546.25,-403 546.25,-403 546.25,-409 540.25,-415 534.25,-415"/>
<text text-anchor="middle" x="500" y="-392.73" font-family="Times,serif" font-size="12.00">retsnd sumFrom</text>
</g>
<!-- n13&#45;&gt;n16 -->
<g id="edge17" class="edge">
<title>n13&#45;&gt;n16</title>
<path fill="none" stroke="black" d="M271.92,-392.14C320.73,-393.19 392.68,-394.73 442.45,-395.79"/>
<polygon fill="black" stroke="black" points="442.07,-399.28 452.14,-396 442.22,-392.28 442.07,-399.28"/>
<text text-anchor="middle" x="299.38" y="-394.62" font-family="Times,serif" font-size="10.00">(0,1)</text>
</g>
<!-- n16&#45;&gt;n18 -->
<g id="edge20" class="edge">
<title>n16&#45;&gt;n18</title>
<path fill="none" stroke="black" d="M546.74,-407.07C568.45,-411.94 594.73,-417.97 618.25,-423.75 632.44,-427.23 647.97,-431.27 661.59,-434.88"/>
<polygon fill="black" stroke="black" points="660.48,-438.21 671.04,-437.4 662.28,-431.44 660.48,-438.21"/>
<text text-anchor="middle" x="591.25" y="-425.5" font-family="Times,serif" font-size="10.00">(0,0)</text>
</g>
<!-- n19 -->
<g id="node20" class="node">
<title>n19</title>
<path fill="none" stroke="black" d="M845.75,-490C845.75,-490 793.75,-490 793.75,-490 787.75,-490 781.75,-484 781.75,-478 781.75,-478 781.75,-466 781.75,-466 781.75,-460 787.75,-454 793.75,-454 793.75,-454 845.75,-454 845.75,-454 851.75,-454 857.75,-460 857.75,-466 857.75,-466 857.75,-478 857.75,-478 857.75,-484 851.75,-490 845.75,-490"/>
<text text-anchor="middle" x="819.75" y="-467.73" font-family="Times,serif" font-size="12.00">ret sumFrom</text>
</g>
<!-- n17&#45;&gt;n19 -->
<g id="edge22" class="edge">
<title>n17&#45;&gt;n19</title>
<path fill="none" stroke="black" d="M727.43,-492.94C740.18,-490.02 755.88,-486.42 770.65,-483.03"/>
<polygon fill="black" stroke="black" points="771.26,-486.48 780.22,-480.83 769.69,-479.66 771.26,-486.48"/>
<text text-anchor="middle" x="754.38" y="-490.46" font-family="Times,serif" font-size="10.00">(T,0)</text>
</g>
<!-- n18&#45;&gt;n19 -->
<g id="edge23" class="edge">
<title>n18&#45;&gt;n19</title>
<path fill="none" stroke="black" d="M727.43,-451.06C740.18,-453.98 755.88,-457.58 770.65,-460.97"/>
<polygon fill="black" stroke="black" points="769.69,-464.34 780.22,-463.17 771.26,-457.52 769.69,-464.34"/>
<text text-anchor="middle" x="754.38" y="-461.06" font-family="Times,serif" font-size="10.00">(F,0)</text>
</g>
<!-- n20 -->
<g id="node21" class="node">
<title>n20</title>
<path fill="none" stroke="black" d="M96.25,-104C96.25,-104 12,-104 12,-104 6,-104 0,-98 0,-92 0,-92 0,-80 0,-80 0,-74 6,-68 12,-68 12,-68 96.25,-68 96.25,-68 102.25,-68 108.25,-74 108.25,-80 108.25,-80 108.25,-92 108.25,-92 108.25,-98 102.25,-104 96.25,-104"/>
<text text-anchor="middle" x="54.12" y="-81.72" font-family="Times,serif" font-size="12.00">callgroup sumFrom</text>
</g>
<!-- n20&#45;&gt;n21 -->
<g id="edge25" class="edge">
<title>n20&#45;&gt;n21</title>
<path fill="none" stroke="black" d="M103.98,-104.47C120.73,-110.8 139.65,-117.95 157.14,-124.56"/>
<polygon fill="black" stroke="black" points="155.8,-127.8 166.39,-128.06 158.28,-121.25 155.8,-127.8"/>
<text text-anchor="middle" x="135.62" y="-120.08" font-family="Times,serif" font-size="10.00">(0,1)</text>
</g>
<!-- n20&#45;&gt;n22 -->
<g id="edge27" class="edge">
<title>n20&#45;&gt;n22</title>
<path fill="none" stroke="black" d="M103.98,-67.53C120.73,-61.2 139.65,-54.05 157.14,-47.44"/>
<polygon fill="black" stroke="black" points="158.28,-50.75 166.39,-43.94 155.8,-44.2 158.28,-50.75"/>
<text text-anchor="middle" x="135.62" y="-59.08" font-family="Times,serif" font-size="10.00">(0,1)</text>
</g>
<!-- n23 -->
<g id="node24" class="node">
<title>n23</title>
<path fill="none" stroke="black" d="M251.75,-104C251.75,-104 183.25,-104 183.25,-104 177.25,-104 171.25,-98 171.25,-92 171.25,-92 171.25,-80 171.25,-80 171.25,-74 177.25,-68 183.25,-68 183.25,-68 251.75,-68 251.75,-68 257.75,-68 263.75,-74 263.75,-80 263.75,-80 263.75,-92 263.75,-92 263.75,-98 257.75,-104 251.75,-104"/>
<text text-anchor="middle" x="217.5" y="-81.72" font-family="Times,serif" font-size="12.00">retsnd sumFrom</text>
</g>
<!-- n20&#45;&gt;n23 -->
<g id="edge28" class="edge">
<title>n20&#45;&gt;n23</title>
<path fill="none" stroke="black" d="M108.41,-86C124.82,-86 142.95,-86 159.59,-86"/>
<polygon fill="black" stroke="black" points="159.33,-89.5 169.33,-86 159.33,-82.5 159.33,-89.5"/>
<text text-anchor="middle" x="135.62" y="-87.75" font-family="Times,serif" font-size="10.00">(0,1)</text>
</g>
<!-- n24 -->
<g id="node25" class="node">
<title>n24</title>
<path fill="none" stroke="black" d="M396.38,-104C396.38,-104 366.12,-104 366.12,-104 360.12,-104 354.12,-98 354.12,-92 354.12,-92 354.12,-80 354.12,-80 354.12,-74 360.12,-68 366.12,-68 366.12,-68 396.38,-68 396.38,-68 402.38,-68 408.38,-74 408.38,-80 408.38,-80 408.38,-92 408.38,-92 408.38,-98 402.38,-104 396.38,-104"/>
<text text-anchor="middle" x="381.25" y="-81.72" font-family="Times,serif" font-size="12.00">ret main</text>
</g>
<!-- n23&#45;&gt;n24 -->
<g id="edge29" class="edge">
<title>n23&#45;&gt;n24</title>
<path fill="none" stroke="black" d="M263.99,-86C288.77,-86 319.07,-86 342.52,-86"/>
<polygon fill="black" stroke="black" points="342.25,-89.5 352.25,-86 342.25,-82.5 342.25,-89.5"/>
<text text-anchor="middle" x="299.38" y="-87.75" font-family="Times,serif" font-size="10.00">(0,0)</text>
</g>
</g>
</svg>
