<?xml version="1.0" encoding="UTF-8" standalone="no"?>
<!DOCTYPE svg PUBLIC "-//W3C//DTD SVG 1.1//EN"
 "http://www.w3.org/Graphics/SVG/1.1/DTD/svg11.dtd">
<!-- Generated by graphviz version 12.2.1 (20241206.2353)
 -->
<!-- Title: G Pages: 1 -->
<svg width="672pt" height="987pt"
 viewBox="0.00 0.00 672.25 987.00" xmlns="http://www.w3.org/2000/svg" xmlns:xlink="http://www.w3.org/1999/xlink">
<g id="graph0" class="graph" transform="scale(1 1) rotate(0) translate(4 983)">
<title>G</title>
<polygon fill="white" stroke="none" points="-4,4 -4,-983 668.25,-983 668.25,4 -4,4"/>
<!-- n0 -->
<g id="node1" class="node">
<title>n0</title>
<path fill="none" stroke="black" d="M72.25,-393C72.25,-393 33.75,-393 33.75,-393 27.75,-393 21.75,-387 21.75,-381 21.75,-381 21.75,-369 21.75,-369 21.75,-363 27.75,-357 33.75,-357 33.75,-357 72.25,-357 72.25,-357 78.25,-357 84.25,-363 84.25,-369 84.25,-369 84.25,-381 84.25,-381 84.25,-387 78.25,-393 72.25,-393"/>
<text text-anchor="middle" x="53" y="-370.73" font-family="Times,serif" font-size="12.00">fconst 2.5</text>
</g>
<!-- n7 -->
<g id="node8" class="node">
<title>n7</title>
<path fill="none" stroke="black" d="M255.5,-385C255.5,-385 172.75,-385 172.75,-385 166.75,-385 160.75,-379 160.75,-373 160.75,-373 160.75,-361 160.75,-361 160.75,-355 166.75,-349 172.75,-349 172.75,-349 255.5,-349 255.5,-349 261.5,-349 267.5,-355 267.5,-361 267.5,-361 267.5,-373 267.5,-373 267.5,-379 261.5,-385 255.5,-385"/>
<text text-anchor="middle" x="214.12" y="-362.73" font-family="Times,serif" font-size="12.00">callsnd floatSum#0</text>
</g>
<!-- n0&#45;&gt;n7 -->
<g id="edge4" class="edge">
<title>n0&#45;&gt;n7</title>
<path fill="none" stroke="black" d="M84.68,-373.46C102.91,-372.54 126.72,-371.34 148.89,-370.23"/>
<polygon fill="black" stroke="black" points="148.97,-373.73 158.78,-369.73 148.62,-366.74 148.97,-373.73"/>
<text text-anchor="middle" x="133.38" y="-373.23" font-family="Times,serif" font-size="10.00">(0,0)</text>
</g>
<!-- n1 -->
<g id="node2" class="node">
<title>n1</title>
<path fill="none" stroke="black" d="M72.25,-601C72.25,-601 33.75,-601 33.75,-601 27.75,-601 21.75,-595 21.75,-589 21.75,-589 21.75,-577 21.75,-577 21.75,-571 27.75,-565 33.75,-565 33.75,-565 72.25,-565 72.25,-565 78.25,-565 84.25,-571 84.25,-577 84.25,-577 84.25,-589 84.25,-589 84.25,-595 78.25,-601 72.25,-601"/>
<text text-anchor="middle" x="53" y="-578.73" font-family="Times,serif" font-size="12.00">fconst 3.0</text>
</g>
<!-- n8 -->
<g id="node9" class="node">
<title>n8</title>
<path fill="none" stroke="black" d="M255.5,-601C255.5,-601 172.75,-601 172.75,-601 166.75,-601 160.75,-595 160.75,-589 160.75,-589 160.75,-577 160.75,-577 160.75,-571 166.75,-565 172.75,-565 172.75,-565 255.5,-565 255.5,-565 261.5,-565 267.5,-571 267.5,-577 267.5,-577 267.5,-589 267.5,-589 267.5,-595 261.5,-601 255.5,-601"/>
<text text-anchor="middle" x="214.12" y="-578.73" font-family="Times,serif" font-size="12.00">callsnd floatSum#1</text>
</g>
<!-- n1&#45;&gt;n8 -->
<g id="edge6" class="edge">
<title>n1&#45;&gt;n8</title>
<path fill="none" stroke="black" d="M84.68,-583C102.91,-583 126.72,-583 148.89,-583"/>
<polygon fill="black" stroke="black" points="148.78,-586.5 158.78,-583 148.78,-579.5 148.78,-586.5"/>
<text text-anchor="middle" x="133.38" y="-584.75" font-family="Times,serif" font-size="10.00">(0,0)</text>
</g>
<!-- n2 -->
<g id="node3" class="node">
<title>n2</title>
<path fill="none" stroke="black" d="M85.38,-709C85.38,-709 20.62,-709 20.62,-709 14.62,-709 8.62,-703 8.62,-697 8.62,-697 8.62,-685 8.62,-685 8.62,-679 14.62,-673 20.62,-673 20.62,-673 85.38,-673 85.38,-673 91.38,-673 97.38,-679 97.38,-685 97.38,-685 97.38,-697 97.38,-697 97.38,-703 91.38,-709 85.38,-709"/>
<text text-anchor="middle" x="53" y="-686.73" font-family="Times,serif" font-size="12.00">arg floatSum#0</text>
</g>
<!-- n4 -->
<g id="node5" class="node">
<title>n4</title>
<path fill="none" stroke="black" d="M229.12,-655C229.12,-655 199.12,-655 199.12,-655 193.12,-655 187.12,-649 187.12,-643 187.12,-643 187.12,-631 187.12,-631 187.12,-625 193.12,-619 199.12,-619 199.12,-619 229.12,-619 229.12,-619 235.12,-619 241.12,-625 241.12,-631 241.12,-631 241.12,-643 241.12,-643 241.12,-649 235.12,-655 229.12,-655"/>
<text text-anchor="middle" x="214.12" y="-632.73" font-family="Times,serif" font-size="12.00">f+</text>
</g>
<!-- n2&#45;&gt;n4 -->
<g id="edge2" class="edge">
<title>n2&#45;&gt;n4</title>
<path fill="none" stroke="black" d="M97.48,-676.24C122,-667.93 152.31,-657.64 175.75,-649.68"/>
<polygon fill="black" stroke="black" points="176.87,-653 185.21,-646.47 174.62,-646.37 176.87,-653"/>
<text text-anchor="middle" x="133.38" y="-668.98" font-family="Times,serif" font-size="10.00">(0,1)</text>
</g>
<!-- n3 -->
<g id="node4" class="node">
<title>n3</title>
<path fill="none" stroke="black" d="M85.38,-655C85.38,-655 20.62,-655 20.62,-655 14.62,-655 8.62,-649 8.62,-643 8.62,-643 8.62,-631 8.62,-631 8.62,-625 14.62,-619 20.62,-619 20.62,-619 85.38,-619 85.38,-619 91.38,-619 97.38,-625 97.38,-631 97.38,-631 97.38,-643 97.38,-643 97.38,-649 91.38,-655 85.38,-655"/>
<text text-anchor="middle" x="53" y="-632.73" font-family="Times,serif" font-size="12.00">arg floatSum#1</text>
</g>
<!-- n3&#45;&gt;n4 -->
<g id="edge1" class="edge">
<title>n3&#45;&gt;n4</title>
<path fill="none" stroke="black" d="M97.48,-637C121.88,-637 152.03,-637 175.43,-637"/>
<polygon fill="black" stroke="black" points="175.13,-640.5 185.13,-637 175.13,-633.5 175.13,-640.5"/>
<text text-anchor="middle" x="133.38" y="-638.75" font-family="Times,serif" font-size="10.00">(0,0)</text>
</g>
<!-- n5 -->
<g id="node6" class="node">
<title>n5</title>
<path fill="none" stroke="black" d="M400.88,-655C400.88,-655 351.12,-655 351.12,-655 345.12,-655 339.12,-649 339.12,-643 339.12,-643 339.12,-631 339.12,-631 339.12,-625 345.12,-619 351.12,-619 351.12,-619 400.88,-619 400.88,-619 406.88,-619 412.88,-625 412.88,-631 412.88,-631 412.88,-643 412.88,-643 412.88,-649 406.88,-655 400.88,-655"/>
<text text-anchor="middle" x="376" y="-632.73" font-family="Times,serif" font-size="12.00">ret floatSum</text>
</g>
<!-- n4&#45;&gt;n5 -->
<g id="edge3" class="edge">
<title>n4&#45;&gt;n5</title>
<path fill="none" stroke="black" d="M241.53,-637C264.83,-637 299.38,-637 327.48,-637"/>
<polygon fill="black" stroke="black" points="327.17,-640.5 337.17,-637 327.17,-633.5 327.17,-640.5"/>
<text text-anchor="middle" x="294.88" y="-638.75" font-family="Times,serif" font-size="10.00">(0,0)</text>
</g>
<!-- n6 -->
<g id="node7" class="node">
<title>n6</title>
<path fill="none" stroke="black" d="M94,-457C94,-457 12,-457 12,-457 6,-457 0,-451 0,-445 0,-445 0,-433 0,-433 0,-427 6,-421 12,-421 12,-421 94,-421 94,-421 100,-421 106,-427 106,-433 106,-433 106,-445 106,-445 106,-451 100,-457 94,-457"/>
<text text-anchor="middle" x="53" y="-434.73" font-family="Times,serif" font-size="12.00">callgroup floatSum</text>
</g>
<!-- n6&#45;&gt;n7 -->
<g id="edge5" class="edge">
<title>n6&#45;&gt;n7</title>
<path fill="none" stroke="black" d="M94.57,-420.65C115.06,-411.37 140.14,-400.02 161.95,-390.16"/>
<polygon fill="black" stroke="black" points="163.31,-393.38 170.98,-386.07 160.42,-387 163.31,-393.38"/>
<text text-anchor="middle" x="133.38" y="-409.06" font-family="Times,serif" font-size="10.00">(0,1)</text>
</g>
<!-- n6&#45;&gt;n8 -->
<g id="edge7" class="edge">
<title>n6&#45;&gt;n8</title>
<path fill="none" stroke="black" d="M67.18,-457.09C85.87,-481.8 122.11,-526.41 160.75,-556 161.87,-556.86 163.02,-557.7 164.2,-558.53"/>
<polygon fill="black" stroke="black" points="162,-561.28 172.31,-563.75 165.79,-555.39 162,-561.28"/>
<text text-anchor="middle" x="133.38" y="-541.17" font-family="Times,serif" font-size="10.00">(0,1)</text>
</g>
<!-- n9 -->
<g id="node10" class="node">
<title>n9</title>
<path fill="none" stroke="black" d="M247.25,-439C247.25,-439 181,-439 181,-439 175,-439 169,-433 169,-427 169,-427 169,-415 169,-415 169,-409 175,-403 181,-403 181,-403 247.25,-403 247.25,-403 253.25,-403 259.25,-409 259.25,-415 259.25,-415 259.25,-427 259.25,-427 259.25,-433 253.25,-439 247.25,-439"/>
<text text-anchor="middle" x="214.12" y="-416.73" font-family="Times,serif" font-size="12.00">retsnd floatSum</text>
</g>
<!-- n6&#45;&gt;n9 -->
<g id="edge8" class="edge">
<title>n6&#45;&gt;n9</title>
<path fill="none" stroke="black" d="M106.1,-433.11C122.53,-431.25 140.73,-429.19 157.39,-427.3"/>
<polygon fill="black" stroke="black" points="157.6,-430.8 167.14,-426.2 156.81,-423.85 157.6,-430.8"/>
<text text-anchor="middle" x="133.38" y="-432.83" font-family="Times,serif" font-size="10.00">(0,1)</text>
</g>
<!-- n21 -->
<g id="node22" class="node">
<title>n21</title>
<path fill="none" stroke="black" d="M391,-371C391,-371 361,-371 361,-371 355,-371 349,-365 349,-359 349,-359 349,-347 349,-347 349,-341 355,-335 361,-335 361,-335 391,-335 391,-335 397,-335 403,-341 403,-347 403,-347 403,-359 403,-359 403,-365 397,-371 391,-371"/>
<text text-anchor="middle" x="376" y="-348.73" font-family="Times,serif" font-size="12.00">*</text>
</g>
<!-- n9&#45;&gt;n21 -->
<g id="edge18" class="edge">
<title>n9&#45;&gt;n21</title>
<path fill="none" stroke="black" d="M257.22,-402.61C260.94,-400.03 264.45,-397.17 267.5,-394 280.54,-380.48 269.79,-366.06 285.5,-355.75 300.49,-345.91 320.15,-344.38 337.22,-345.67"/>
<polygon fill="black" stroke="black" points="336.71,-349.13 347.04,-346.77 337.49,-342.18 336.71,-349.13"/>
<text text-anchor="middle" x="294.88" y="-357.5" font-family="Times,serif" font-size="10.00">(0,0)</text>
</g>
<!-- n10 -->
<g id="node11" class="node">
<title>n10</title>
<path fill="none" stroke="black" d="M72.25,-172C72.25,-172 33.75,-172 33.75,-172 27.75,-172 21.75,-166 21.75,-160 21.75,-160 21.75,-148 21.75,-148 21.75,-142 27.75,-136 33.75,-136 33.75,-136 72.25,-136 72.25,-136 78.25,-136 84.25,-142 84.25,-148 84.25,-148 84.25,-160 84.25,-160 84.25,-166 78.25,-172 72.25,-172"/>
<text text-anchor="middle" x="53" y="-149.72" font-family="Times,serif" font-size="12.00">fconst 2.5</text>
</g>
<!-- n18 -->
<g id="node19" class="node">
<title>n18</title>
<path fill="none" stroke="black" d="M254,-158C254,-158 174.25,-158 174.25,-158 168.25,-158 162.25,-152 162.25,-146 162.25,-146 162.25,-134 162.25,-134 162.25,-128 168.25,-122 174.25,-122 174.25,-122 254,-122 254,-122 260,-122 266,-128 266,-134 266,-134 266,-146 266,-146 266,-152 260,-158 254,-158"/>
<text text-anchor="middle" x="214.12" y="-135.72" font-family="Times,serif" font-size="12.00">callsnd floatSub#0</text>
</g>
<!-- n10&#45;&gt;n18 -->
<g id="edge13" class="edge">
<title>n10&#45;&gt;n18</title>
<path fill="none" stroke="black" d="M84.68,-151.3C103.38,-149.66 127.95,-147.49 150.6,-145.5"/>
<polygon fill="black" stroke="black" points="150.71,-149 160.37,-144.64 150.1,-142.03 150.71,-149"/>
<text text-anchor="middle" x="133.38" y="-149.59" font-family="Times,serif" font-size="10.00">(0,0)</text>
</g>
<!-- n11 -->
<g id="node12" class="node">
<title>n11</title>
<path fill="none" stroke="black" d="M72.25,-36C72.25,-36 33.75,-36 33.75,-36 27.75,-36 21.75,-30 21.75,-24 21.75,-24 21.75,-12 21.75,-12 21.75,-6 27.75,0 33.75,0 33.75,0 72.25,0 72.25,0 78.25,0 84.25,-6 84.25,-12 84.25,-12 84.25,-24 84.25,-24 84.25,-30 78.25,-36 72.25,-36"/>
<text text-anchor="middle" x="53" y="-13.72" font-family="Times,serif" font-size="12.00">fconst 3.5</text>
</g>
<!-- n19 -->
<g id="node20" class="node">
<title>n19</title>
<path fill="none" stroke="black" d="M254,-43C254,-43 174.25,-43 174.25,-43 168.25,-43 162.25,-37 162.25,-31 162.25,-31 162.25,-19 162.25,-19 162.25,-13 168.25,-7 174.25,-7 174.25,-7 254,-7 254,-7 260,-7 266,-13 266,-19 266,-19 266,-31 266,-31 266,-37 260,-43 254,-43"/>
<text text-anchor="middle" x="214.12" y="-20.73" font-family="Times,serif" font-size="12.00">callsnd floatSub#1</text>
</g>
<!-- n11&#45;&gt;n19 -->
<g id="edge15" class="edge">
<title>n11&#45;&gt;n19</title>
<path fill="none" stroke="black" d="M84.41,-17.66C101.56,-17.61 123.36,-17.81 142.75,-18.75 145.39,-18.88 148.08,-19.03 150.79,-19.2"/>
<polygon fill="black" stroke="black" points="150.31,-22.67 160.53,-19.87 150.79,-15.69 150.31,-22.67"/>
<text text-anchor="middle" x="133.38" y="-20.5" font-family="Times,serif" font-size="10.00">(0,0)</text>
</g>
<!-- n12 -->
<g id="node13" class="node">
<title>n12</title>
<path fill="none" stroke="black" d="M83.88,-763C83.88,-763 22.12,-763 22.12,-763 16.12,-763 10.12,-757 10.12,-751 10.12,-751 10.12,-739 10.12,-739 10.12,-733 16.12,-727 22.12,-727 22.12,-727 83.88,-727 83.88,-727 89.88,-727 95.88,-733 95.88,-739 95.88,-739 95.88,-751 95.88,-751 95.88,-757 89.88,-763 83.88,-763"/>
<text text-anchor="middle" x="53" y="-740.73" font-family="Times,serif" font-size="12.00">arg floatSub#0</text>
</g>
<!-- n14 -->
<g id="node15" class="node">
<title>n14</title>
<path fill="none" stroke="black" d="M229.12,-763C229.12,-763 199.12,-763 199.12,-763 193.12,-763 187.12,-757 187.12,-751 187.12,-751 187.12,-739 187.12,-739 187.12,-733 193.12,-727 199.12,-727 199.12,-727 229.12,-727 229.12,-727 235.12,-727 241.12,-733 241.12,-739 241.12,-739 241.12,-751 241.12,-751 241.12,-757 235.12,-763 229.12,-763"/>
<text text-anchor="middle" x="214.12" y="-740.73" font-family="Times,serif" font-size="12.00">*fi &#45;1.0</text>
</g>
<!-- n12&#45;&gt;n14 -->
<g id="edge9" class="edge">
<title>n12&#45;&gt;n14</title>
<path fill="none" stroke="black" d="M96.22,-745C120.8,-745 151.52,-745 175.3,-745"/>
<polygon fill="black" stroke="black" points="175.18,-748.5 185.18,-745 175.18,-741.5 175.18,-748.5"/>
<text text-anchor="middle" x="133.38" y="-746.75" font-family="Times,serif" font-size="10.00">(0,0)</text>
</g>
<!-- n13 -->
<g id="node14" class="node">
<title>n13</title>
<path fill="none" stroke="black" d="M245,-709C245,-709 183.25,-709 183.25,-709 177.25,-709 171.25,-703 171.25,-697 171.25,-697 171.25,-685 171.25,-685 171.25,-679 177.25,-673 183.25,-673 183.25,-673 245,-673 245,-673 251,-673 257,-679 257,-685 257,-685 257,-697 257,-697 257,-703 251,-709 245,-709"/>
<text text-anchor="middle" x="214.12" y="-686.73" font-family="Times,serif" font-size="12.00">arg floatSub#1</text>
</g>
<!-- n15 -->
<g id="node16" class="node">
<title>n15</title>
<path fill="none" stroke="black" d="M391,-731C391,-731 361,-731 361,-731 355,-731 349,-725 349,-719 349,-719 349,-707 349,-707 349,-701 355,-695 361,-695 361,-695 391,-695 391,-695 397,-695 403,-701 403,-707 403,-707 403,-719 403,-719 403,-725 397,-731 391,-731"/>
<text text-anchor="middle" x="376" y="-708.73" font-family="Times,serif" font-size="12.00">f+</text>
</g>
<!-- n13&#45;&gt;n15 -->
<g id="edge10" class="edge">
<title>n13&#45;&gt;n15</title>
<path fill="none" stroke="black" d="M257.33,-695.76C272.18,-697.52 288.97,-699.61 304.25,-701.75 315.1,-703.27 326.87,-705.07 337.63,-706.79"/>
<polygon fill="black" stroke="black" points="336.9,-710.22 347.33,-708.36 338.02,-703.31 336.9,-710.22"/>
<text text-anchor="middle" x="294.88" y="-703.5" font-family="Times,serif" font-size="10.00">(0,0)</text>
</g>
<!-- n14&#45;&gt;n15 -->
<g id="edge11" class="edge">
<title>n14&#45;&gt;n15</title>
<path fill="none" stroke="black" d="M241.53,-739.72C267.68,-734.48 307.97,-726.42 337.45,-720.52"/>
<polygon fill="black" stroke="black" points="337.96,-723.98 347.08,-718.59 336.58,-717.12 337.96,-723.98"/>
<text text-anchor="middle" x="294.88" y="-731.71" font-family="Times,serif" font-size="10.00">(0,1)</text>
</g>
<!-- n16 -->
<g id="node17" class="node">
<title>n16</title>
<path fill="none" stroke="black" d="M543.25,-731C543.25,-731 496.5,-731 496.5,-731 490.5,-731 484.5,-725 484.5,-719 484.5,-719 484.5,-707 484.5,-707 484.5,-701 490.5,-695 496.5,-695 496.5,-695 543.25,-695 543.25,-695 549.25,-695 555.25,-701 555.25,-707 555.25,-707 555.25,-719 555.25,-719 555.25,-725 549.25,-731 543.25,-731"/>
<text text-anchor="middle" x="519.88" y="-708.73" font-family="Times,serif" font-size="12.00">ret floatSub</text>
</g>
<!-- n15&#45;&gt;n16 -->
<g id="edge12" class="edge">
<title>n15&#45;&gt;n16</title>
<path fill="none" stroke="black" d="M403.35,-713C422.82,-713 449.83,-713 472.83,-713"/>
<polygon fill="black" stroke="black" points="472.58,-716.5 482.58,-713 472.58,-709.5 472.58,-716.5"/>
<text text-anchor="middle" x="457.12" y="-714.75" font-family="Times,serif" font-size="10.00">(0,0)</text>
</g>
<!-- n17 -->
<g id="node18" class="node">
<title>n17</title>
<path fill="none" stroke="black" d="M92.5,-104C92.5,-104 13.5,-104 13.5,-104 7.5,-104 1.5,-98 1.5,-92 1.5,-92 1.5,-80 1.5,-80 1.5,-74 7.5,-68 13.5,-68 13.5,-68 92.5,-68 92.5,-68 98.5,-68 104.5,-74 104.5,-80 104.5,-80 104.5,-92 104.5,-92 104.5,-98 98.5,-104 92.5,-104"/>
<text text-anchor="middle" x="53" y="-81.72" font-family="Times,serif" font-size="12.00">callgroup floatSub</text>
</g>
<!-- n17&#45;&gt;n18 -->
<g id="edge14" class="edge">
<title>n17&#45;&gt;n18</title>
<path fill="none" stroke="black" d="M104.79,-103.23C119.64,-108.28 136.04,-113.84 151.49,-119.08"/>
<polygon fill="black" stroke="black" points="149.98,-122.27 160.57,-122.17 152.22,-115.64 149.98,-122.27"/>
<text text-anchor="middle" x="133.38" y="-116.37" font-family="Times,serif" font-size="10.00">(0,1)</text>
</g>
<!-- n17&#45;&gt;n19 -->
<g id="edge16" class="edge">
<title>n17&#45;&gt;n19</title>
<path fill="none" stroke="black" d="M102.17,-67.53C118.69,-61.2 137.35,-54.05 154.59,-47.44"/>
<polygon fill="black" stroke="black" points="155.62,-50.79 163.7,-43.95 153.11,-44.26 155.62,-50.79"/>
<text text-anchor="middle" x="133.38" y="-60.9" font-family="Times,serif" font-size="10.00">(0,1)</text>
</g>
<!-- n20 -->
<g id="node21" class="node">
<title>n20</title>
<path fill="none" stroke="black" d="M245.75,-104C245.75,-104 182.5,-104 182.5,-104 176.5,-104 170.5,-98 170.5,-92 170.5,-92 170.5,-80 170.5,-80 170.5,-74 176.5,-68 182.5,-68 182.5,-68 245.75,-68 245.75,-68 251.75,-68 257.75,-74 257.75,-80 257.75,-80 257.75,-92 257.75,-92 257.75,-98 251.75,-104 245.75,-104"/>
<text text-anchor="middle" x="214.12" y="-81.72" font-family="Times,serif" font-size="12.00">retsnd floatSub</text>
</g>
<!-- n17&#45;&gt;n20 -->
<g id="edge17" class="edge">
<title>n17&#45;&gt;n20</title>
<path fill="none" stroke="black" d="M104.79,-86C122.02,-86 141.34,-86 158.84,-86"/>
<polygon fill="black" stroke="black" points="158.52,-89.5 168.52,-86 158.52,-82.5 158.52,-89.5"/>
<text text-anchor="middle" x="133.38" y="-87.75" font-family="Times,serif" font-size="10.00">(0,1)</text>
</g>
<!-- n20&#45;&gt;n21 -->
<g id="edge19" class="edge">
<title>n20&#45;&gt;n21</title>
<path fill="none" stroke="black" d="M257.28,-104.34C260.99,-106.92 264.48,-109.81 267.5,-113 326.21,-175.03 356.52,-274.56 368.59,-323.67"/>
<polygon fill="black" stroke="black" points="365.15,-324.33 370.86,-333.26 371.96,-322.72 365.15,-324.33"/>
<text text-anchor="middle" x="294.88" y="-159.96" font-family="Times,serif" font-size="10.00">(0,1)</text>
</g>
<!-- n41 -->
<g id="node42" class="node">
<title>n41</title>
<path fill="none" stroke="black" d="M534.88,-416C534.88,-416 504.88,-416 504.88,-416 498.88,-416 492.88,-410 492.88,-404 492.88,-404 492.88,-392 492.88,-392 492.88,-386 498.88,-380 504.88,-380 504.88,-380 534.88,-380 534.88,-380 540.88,-380 546.88,-386 546.88,-392 546.88,-392 546.88,-404 546.88,-404 546.88,-410 540.88,-416 534.88,-416"/>
<text text-anchor="middle" x="519.88" y="-393.73" font-family="Times,serif" font-size="12.00">/</text>
</g>
<!-- n21&#45;&gt;n41 -->
<g id="edge36" class="edge">
<title>n21&#45;&gt;n41</title>
<path fill="none" stroke="black" d="M403.35,-361.36C425.45,-368.37 457.26,-378.46 481.9,-386.27"/>
<polygon fill="black" stroke="black" points="480.63,-389.54 491.22,-389.23 482.75,-382.87 480.63,-389.54"/>
<text text-anchor="middle" x="457.12" y="-382.6" font-family="Times,serif" font-size="10.00">(0,0)</text>
</g>
<!-- n22 -->
<g id="node23" class="node">
<title>n22</title>
<path fill="none" stroke="black" d="M233.38,-547C233.38,-547 194.88,-547 194.88,-547 188.88,-547 182.88,-541 182.88,-535 182.88,-535 182.88,-523 182.88,-523 182.88,-517 188.88,-511 194.88,-511 194.88,-511 233.38,-511 233.38,-511 239.38,-511 245.38,-517 245.38,-523 245.38,-523 245.38,-535 245.38,-535 245.38,-541 239.38,-547 233.38,-547"/>
<text text-anchor="middle" x="214.12" y="-524.73" font-family="Times,serif" font-size="12.00">fconst 1.5</text>
</g>
<!-- n38 -->
<g id="node39" class="node">
<title>n38</title>
<path fill="none" stroke="black" d="M417.75,-540C417.75,-540 334.25,-540 334.25,-540 328.25,-540 322.25,-534 322.25,-528 322.25,-528 322.25,-516 322.25,-516 322.25,-510 328.25,-504 334.25,-504 334.25,-504 417.75,-504 417.75,-504 423.75,-504 429.75,-510 429.75,-516 429.75,-516 429.75,-528 429.75,-528 429.75,-534 423.75,-540 417.75,-540"/>
<text text-anchor="middle" x="376" y="-517.73" font-family="Times,serif" font-size="12.00">callsnd floatMult#0</text>
</g>
<!-- n22&#45;&gt;n38 -->
<g id="edge31" class="edge">
<title>n22&#45;&gt;n38</title>
<path fill="none" stroke="black" d="M245.57,-527.67C264.02,-526.86 288.26,-525.8 310.77,-524.81"/>
<polygon fill="black" stroke="black" points="310.65,-528.32 320.49,-524.39 310.34,-521.33 310.65,-528.32"/>
<text text-anchor="middle" x="294.88" y="-527.46" font-family="Times,serif" font-size="10.00">(0,0)</text>
</g>
<!-- n23 -->
<g id="node24" class="node">
<title>n23</title>
<path fill="none" stroke="black" d="M72.25,-339C72.25,-339 33.75,-339 33.75,-339 27.75,-339 21.75,-333 21.75,-327 21.75,-327 21.75,-315 21.75,-315 21.75,-309 27.75,-303 33.75,-303 33.75,-303 72.25,-303 72.25,-303 78.25,-303 84.25,-309 84.25,-315 84.25,-315 84.25,-327 84.25,-327 84.25,-333 78.25,-339 72.25,-339"/>
<text text-anchor="middle" x="53" y="-316.73" font-family="Times,serif" font-size="12.00">fconst 3.0</text>
</g>
<!-- n30 -->
<g id="node31" class="node">
<title>n30</title>
<path fill="none" stroke="black" d="M253.62,-329C253.62,-329 174.62,-329 174.62,-329 168.62,-329 162.62,-323 162.62,-317 162.62,-317 162.62,-305 162.62,-305 162.62,-299 168.62,-293 174.62,-293 174.62,-293 253.62,-293 253.62,-293 259.62,-293 265.62,-299 265.62,-305 265.62,-305 265.62,-317 265.62,-317 265.62,-323 259.62,-329 253.62,-329"/>
<text text-anchor="middle" x="214.12" y="-306.73" font-family="Times,serif" font-size="12.00">callsnd floatDiv#0</text>
</g>
<!-- n23&#45;&gt;n30 -->
<g id="edge23" class="edge">
<title>n23&#45;&gt;n30</title>
<path fill="none" stroke="black" d="M84.68,-319.07C103.45,-317.89 128.16,-316.34 150.88,-314.91"/>
<polygon fill="black" stroke="black" points="150.92,-318.42 160.68,-314.3 150.48,-311.43 150.92,-318.42"/>
<text text-anchor="middle" x="133.38" y="-318.35" font-family="Times,serif" font-size="10.00">(0,0)</text>
</g>
<!-- n24 -->
<g id="node25" class="node">
<title>n24</title>
<path fill="none" stroke="black" d="M72.25,-280C72.25,-280 33.75,-280 33.75,-280 27.75,-280 21.75,-274 21.75,-268 21.75,-268 21.75,-256 21.75,-256 21.75,-250 27.75,-244 33.75,-244 33.75,-244 72.25,-244 72.25,-244 78.25,-244 84.25,-250 84.25,-256 84.25,-256 84.25,-268 84.25,-268 84.25,-274 78.25,-280 72.25,-280"/>
<text text-anchor="middle" x="53" y="-257.73" font-family="Times,serif" font-size="12.00">fconst 2.0</text>
</g>
<!-- n31 -->
<g id="node32" class="node">
<title>n31</title>
<path fill="none" stroke="black" d="M253.62,-271C253.62,-271 174.62,-271 174.62,-271 168.62,-271 162.62,-265 162.62,-259 162.62,-259 162.62,-247 162.62,-247 162.62,-241 168.62,-235 174.62,-235 174.62,-235 253.62,-235 253.62,-235 259.62,-235 265.62,-241 265.62,-247 265.62,-247 265.62,-259 265.62,-259 265.62,-265 259.62,-271 253.62,-271"/>
<text text-anchor="middle" x="214.12" y="-248.72" font-family="Times,serif" font-size="12.00">callsnd floatDiv#1</text>
</g>
<!-- n24&#45;&gt;n31 -->
<g id="edge25" class="edge">
<title>n24&#45;&gt;n31</title>
<path fill="none" stroke="black" d="M84.68,-260.26C103.45,-259.2 128.16,-257.81 150.88,-256.52"/>
<polygon fill="black" stroke="black" points="150.89,-260.03 160.68,-255.97 150.5,-253.04 150.89,-260.03"/>
<text text-anchor="middle" x="133.38" y="-259.79" font-family="Times,serif" font-size="10.00">(0,0)</text>
</g>
<!-- n25 -->
<g id="node26" class="node">
<title>n25</title>
<path fill="none" stroke="black" d="M83.5,-871C83.5,-871 22.5,-871 22.5,-871 16.5,-871 10.5,-865 10.5,-859 10.5,-859 10.5,-847 10.5,-847 10.5,-841 16.5,-835 22.5,-835 22.5,-835 83.5,-835 83.5,-835 89.5,-835 95.5,-841 95.5,-847 95.5,-847 95.5,-859 95.5,-859 95.5,-865 89.5,-871 83.5,-871"/>
<text text-anchor="middle" x="53" y="-848.73" font-family="Times,serif" font-size="12.00">arg floatDiv#0</text>
</g>
<!-- n27 -->
<g id="node28" class="node">
<title>n27</title>
<path fill="none" stroke="black" d="M229.12,-844C229.12,-844 199.12,-844 199.12,-844 193.12,-844 187.12,-838 187.12,-832 187.12,-832 187.12,-820 187.12,-820 187.12,-814 193.12,-808 199.12,-808 199.12,-808 229.12,-808 229.12,-808 235.12,-808 241.12,-814 241.12,-820 241.12,-820 241.12,-832 241.12,-832 241.12,-838 235.12,-844 229.12,-844"/>
<text text-anchor="middle" x="214.12" y="-821.73" font-family="Times,serif" font-size="12.00">/</text>
</g>
<!-- n25&#45;&gt;n27 -->
<g id="edge21" class="edge">
<title>n25&#45;&gt;n27</title>
<path fill="none" stroke="black" d="M95.81,-845.91C120.66,-841.69 151.9,-836.39 175.89,-832.32"/>
<polygon fill="black" stroke="black" points="176.27,-835.8 185.54,-830.68 175.1,-828.9 176.27,-835.8"/>
<text text-anchor="middle" x="133.38" y="-842.87" font-family="Times,serif" font-size="10.00">(0,1)</text>
</g>
<!-- n26 -->
<g id="node27" class="node">
<title>n26</title>
<path fill="none" stroke="black" d="M83.5,-817C83.5,-817 22.5,-817 22.5,-817 16.5,-817 10.5,-811 10.5,-805 10.5,-805 10.5,-793 10.5,-793 10.5,-787 16.5,-781 22.5,-781 22.5,-781 83.5,-781 83.5,-781 89.5,-781 95.5,-787 95.5,-793 95.5,-793 95.5,-805 95.5,-805 95.5,-811 89.5,-817 83.5,-817"/>
<text text-anchor="middle" x="53" y="-794.73" font-family="Times,serif" font-size="12.00">arg floatDiv#1</text>
</g>
<!-- n26&#45;&gt;n27 -->
<g id="edge20" class="edge">
<title>n26&#45;&gt;n27</title>
<path fill="none" stroke="black" d="M95.81,-806.09C120.66,-810.31 151.9,-815.61 175.89,-819.68"/>
<polygon fill="black" stroke="black" points="175.1,-823.1 185.54,-821.32 176.27,-816.2 175.1,-823.1"/>
<text text-anchor="middle" x="133.38" y="-815.06" font-family="Times,serif" font-size="10.00">(0,0)</text>
</g>
<!-- n28 -->
<g id="node29" class="node">
<title>n28</title>
<path fill="none" stroke="black" d="M399,-844C399,-844 353,-844 353,-844 347,-844 341,-838 341,-832 341,-832 341,-820 341,-820 341,-814 347,-808 353,-808 353,-808 399,-808 399,-808 405,-808 411,-814 411,-820 411,-820 411,-832 411,-832 411,-838 405,-844 399,-844"/>
<text text-anchor="middle" x="376" y="-821.73" font-family="Times,serif" font-size="12.00">ret floatDiv</text>
</g>
<!-- n27&#45;&gt;n28 -->
<g id="edge22" class="edge">
<title>n27&#45;&gt;n28</title>
<path fill="none" stroke="black" d="M241.53,-826C265.38,-826 301,-826 329.45,-826"/>
<polygon fill="black" stroke="black" points="329.23,-829.5 339.23,-826 329.23,-822.5 329.23,-829.5"/>
<text text-anchor="middle" x="294.88" y="-827.75" font-family="Times,serif" font-size="10.00">(0,0)</text>
</g>
<!-- n29 -->
<g id="node30" class="node">
<title>n29</title>
<path fill="none" stroke="black" d="M92.12,-226C92.12,-226 13.88,-226 13.88,-226 7.88,-226 1.88,-220 1.88,-214 1.88,-214 1.88,-202 1.88,-202 1.88,-196 7.88,-190 13.88,-190 13.88,-190 92.12,-190 92.12,-190 98.12,-190 104.12,-196 104.12,-202 104.12,-202 104.12,-214 104.12,-214 104.12,-220 98.12,-226 92.12,-226"/>
<text text-anchor="middle" x="53" y="-203.72" font-family="Times,serif" font-size="12.00">callgroup floatDiv</text>
</g>
<!-- n29&#45;&gt;n30 -->
<g id="edge24" class="edge">
<title>n29&#45;&gt;n30</title>
<path fill="none" stroke="black" d="M95.72,-226.5C99.43,-229.05 102.93,-231.88 106,-235 118.55,-247.75 111.09,-258.62 124,-271 132.08,-278.75 141.92,-285.16 152.07,-290.41"/>
<polygon fill="black" stroke="black" points="150.37,-293.48 160.9,-294.63 153.39,-287.16 150.37,-293.48"/>
<text text-anchor="middle" x="133.38" y="-285.67" font-family="Times,serif" font-size="10.00">(0,1)</text>
</g>
<!-- n29&#45;&gt;n31 -->
<g id="edge26" class="edge">
<title>n29&#45;&gt;n31</title>
<path fill="none" stroke="black" d="M104.35,-222.24C119.37,-226.49 136,-231.19 151.64,-235.61"/>
<polygon fill="black" stroke="black" points="150.25,-238.86 160.83,-238.21 152.16,-232.12 150.25,-238.86"/>
<text text-anchor="middle" x="133.38" y="-233.6" font-family="Times,serif" font-size="10.00">(0,1)</text>
</g>
<!-- n32 -->
<g id="node33" class="node">
<title>n32</title>
<path fill="none" stroke="black" d="M245.38,-212C245.38,-212 182.88,-212 182.88,-212 176.88,-212 170.88,-206 170.88,-200 170.88,-200 170.88,-188 170.88,-188 170.88,-182 176.88,-176 182.88,-176 182.88,-176 245.38,-176 245.38,-176 251.38,-176 257.38,-182 257.38,-188 257.38,-188 257.38,-200 257.38,-200 257.38,-206 251.38,-212 245.38,-212"/>
<text text-anchor="middle" x="214.12" y="-189.72" font-family="Times,serif" font-size="12.00">retsnd floatDiv</text>
</g>
<!-- n29&#45;&gt;n32 -->
<g id="edge27" class="edge">
<title>n29&#45;&gt;n32</title>
<path fill="none" stroke="black" d="M104.61,-194.82C111.1,-193.55 117.68,-192.47 124,-191.75 135.3,-190.46 147.46,-190.09 159.05,-190.23"/>
<polygon fill="black" stroke="black" points="158.81,-193.72 168.89,-190.48 158.98,-186.72 158.81,-193.72"/>
<text text-anchor="middle" x="133.38" y="-193.5" font-family="Times,serif" font-size="10.00">(0,1)</text>
</g>
<!-- n39 -->
<g id="node40" class="node">
<title>n39</title>
<path fill="none" stroke="black" d="M417.75,-425C417.75,-425 334.25,-425 334.25,-425 328.25,-425 322.25,-419 322.25,-413 322.25,-413 322.25,-401 322.25,-401 322.25,-395 328.25,-389 334.25,-389 334.25,-389 417.75,-389 417.75,-389 423.75,-389 429.75,-395 429.75,-401 429.75,-401 429.75,-413 429.75,-413 429.75,-419 423.75,-425 417.75,-425"/>
<text text-anchor="middle" x="376" y="-402.73" font-family="Times,serif" font-size="12.00">callsnd floatMult#1</text>
</g>
<!-- n32&#45;&gt;n39 -->
<g id="edge33" class="edge">
<title>n32&#45;&gt;n39</title>
<path fill="none" stroke="black" d="M254.37,-212.31C259.46,-216.18 264.08,-220.72 267.5,-226 301.84,-279.03 247.84,-316.28 285.5,-367 292.27,-376.12 301.6,-383.2 311.69,-388.69"/>
<polygon fill="black" stroke="black" points="310.07,-391.8 320.6,-393.01 313.12,-385.5 310.07,-391.8"/>
<text text-anchor="middle" x="294.88" y="-384.87" font-family="Times,serif" font-size="10.00">(0,0)</text>
</g>
<!-- n33 -->
<g id="node34" class="node">
<title>n33</title>
<path fill="none" stroke="black" d="M85.75,-979C85.75,-979 20.25,-979 20.25,-979 14.25,-979 8.25,-973 8.25,-967 8.25,-967 8.25,-955 8.25,-955 8.25,-949 14.25,-943 20.25,-943 20.25,-943 85.75,-943 85.75,-943 91.75,-943 97.75,-949 97.75,-955 97.75,-955 97.75,-967 97.75,-967 97.75,-973 91.75,-979 85.75,-979"/>
<text text-anchor="middle" x="53" y="-956.73" font-family="Times,serif" font-size="12.00">arg floatMult#0</text>
</g>
<!-- n35 -->
<g id="node36" class="node">
<title>n35</title>
<path fill="none" stroke="black" d="M229.12,-952C229.12,-952 199.12,-952 199.12,-952 193.12,-952 187.12,-946 187.12,-940 187.12,-940 187.12,-928 187.12,-928 187.12,-922 193.12,-916 199.12,-916 199.12,-916 229.12,-916 229.12,-916 235.12,-916 241.12,-922 241.12,-928 241.12,-928 241.12,-940 241.12,-940 241.12,-946 235.12,-952 229.12,-952"/>
<text text-anchor="middle" x="214.12" y="-929.73" font-family="Times,serif" font-size="12.00">*</text>
</g>
<!-- n33&#45;&gt;n35 -->
<g id="edge29" class="edge">
<title>n33&#45;&gt;n35</title>
<path fill="none" stroke="black" d="M97.9,-953.55C122.3,-949.41 152.33,-944.31 175.62,-940.36"/>
<polygon fill="black" stroke="black" points="176.02,-943.85 185.3,-938.72 174.85,-936.94 176.02,-943.85"/>
<text text-anchor="middle" x="133.38" y="-950.87" font-family="Times,serif" font-size="10.00">(0,1)</text>
</g>
<!-- n34 -->
<g id="node35" class="node">
<title>n34</title>
<path fill="none" stroke="black" d="M85.75,-925C85.75,-925 20.25,-925 20.25,-925 14.25,-925 8.25,-919 8.25,-913 8.25,-913 8.25,-901 8.25,-901 8.25,-895 14.25,-889 20.25,-889 20.25,-889 85.75,-889 85.75,-889 91.75,-889 97.75,-895 97.75,-901 97.75,-901 97.75,-913 97.75,-913 97.75,-919 91.75,-925 85.75,-925"/>
<text text-anchor="middle" x="53" y="-902.73" font-family="Times,serif" font-size="12.00">arg floatMult#1</text>
</g>
<!-- n34&#45;&gt;n35 -->
<g id="edge28" class="edge">
<title>n34&#45;&gt;n35</title>
<path fill="none" stroke="black" d="M97.9,-914.45C122.3,-918.59 152.33,-923.69 175.62,-927.64"/>
<polygon fill="black" stroke="black" points="174.85,-931.06 185.3,-929.28 176.02,-924.15 174.85,-931.06"/>
<text text-anchor="middle" x="133.38" y="-923.06" font-family="Times,serif" font-size="10.00">(0,0)</text>
</g>
<!-- n36 -->
<g id="node37" class="node">
<title>n36</title>
<path fill="none" stroke="black" d="M401.25,-952C401.25,-952 350.75,-952 350.75,-952 344.75,-952 338.75,-946 338.75,-940 338.75,-940 338.75,-928 338.75,-928 338.75,-922 344.75,-916 350.75,-916 350.75,-916 401.25,-916 401.25,-916 407.25,-916 413.25,-922 413.25,-928 413.25,-928 413.25,-940 413.25,-940 413.25,-946 407.25,-952 401.25,-952"/>
<text text-anchor="middle" x="376" y="-929.73" font-family="Times,serif" font-size="12.00">ret floatMult</text>
</g>
<!-- n35&#45;&gt;n36 -->
<g id="edge30" class="edge">
<title>n35&#45;&gt;n36</title>
<path fill="none" stroke="black" d="M241.53,-934C264.75,-934 299.15,-934 327.2,-934"/>
<polygon fill="black" stroke="black" points="326.88,-937.5 336.88,-934 326.88,-930.5 326.88,-937.5"/>
<text text-anchor="middle" x="294.88" y="-935.75" font-family="Times,serif" font-size="10.00">(0,0)</text>
</g>
<!-- n37 -->
<g id="node38" class="node">
<title>n37</title>
<path fill="none" stroke="black" d="M255.5,-493C255.5,-493 172.75,-493 172.75,-493 166.75,-493 160.75,-487 160.75,-481 160.75,-481 160.75,-469 160.75,-469 160.75,-463 166.75,-457 172.75,-457 172.75,-457 255.5,-457 255.5,-457 261.5,-457 267.5,-463 267.5,-469 267.5,-469 267.5,-481 267.5,-481 267.5,-487 261.5,-493 255.5,-493"/>
<text text-anchor="middle" x="214.12" y="-470.73" font-family="Times,serif" font-size="12.00">callgroup floatMult</text>
</g>
<!-- n37&#45;&gt;n38 -->
<g id="edge32" class="edge">
<title>n37&#45;&gt;n38</title>
<path fill="none" stroke="black" d="M267.92,-490.52C281.76,-494.59 296.84,-499.02 311.19,-503.24"/>
<polygon fill="black" stroke="black" points="309.96,-506.53 320.54,-505.99 311.93,-499.81 309.96,-506.53"/>
<text text-anchor="middle" x="294.88" y="-501.66" font-family="Times,serif" font-size="10.00">(0,1)</text>
</g>
<!-- n37&#45;&gt;n39 -->
<g id="edge34" class="edge">
<title>n37&#45;&gt;n39</title>
<path fill="none" stroke="black" d="M258.39,-456.6C277.76,-448.36 300.8,-438.56 321.27,-429.85"/>
<polygon fill="black" stroke="black" points="322.48,-433.14 330.31,-426.01 319.74,-426.7 322.48,-433.14"/>
<text text-anchor="middle" x="294.88" y="-444.79" font-family="Times,serif" font-size="10.00">(0,1)</text>
</g>
<!-- n40 -->
<g id="node41" class="node">
<title>n40</title>
<path fill="none" stroke="black" d="M409.5,-479C409.5,-479 342.5,-479 342.5,-479 336.5,-479 330.5,-473 330.5,-467 330.5,-467 330.5,-455 330.5,-455 330.5,-449 336.5,-443 342.5,-443 342.5,-443 409.5,-443 409.5,-443 415.5,-443 421.5,-449 421.5,-455 421.5,-455 421.5,-467 421.5,-467 421.5,-473 415.5,-479 409.5,-479"/>
<text text-anchor="middle" x="376" y="-456.73" font-family="Times,serif" font-size="12.00">retsnd floatMult</text>
</g>
<!-- n37&#45;&gt;n40 -->
<g id="edge35" class="edge">
<title>n37&#45;&gt;n40</title>
<path fill="none" stroke="black" d="M267.63,-464.06C273.63,-463.12 279.68,-462.32 285.5,-461.75 296.29,-460.7 307.85,-460.16 318.95,-459.94"/>
<polygon fill="black" stroke="black" points="318.83,-463.44 328.79,-459.83 318.75,-456.44 318.83,-463.44"/>
<text text-anchor="middle" x="294.88" y="-463.5" font-family="Times,serif" font-size="10.00">(0,1)</text>
</g>
<!-- n40&#45;&gt;n41 -->
<g id="edge37" class="edge">
<title>n40&#45;&gt;n41</title>
<path fill="none" stroke="black" d="M418.42,-442.61C438.57,-433.66 462.59,-422.99 482.09,-414.34"/>
<polygon fill="black" stroke="black" points="483.3,-417.63 491.02,-410.37 480.46,-411.23 483.3,-417.63"/>
<text text-anchor="middle" x="457.12" y="-431.25" font-family="Times,serif" font-size="10.00">(0,1)</text>
</g>
<!-- n42 -->
<g id="node43" class="node">
<title>n42</title>
<path fill="none" stroke="black" d="M652.25,-416C652.25,-416 622,-416 622,-416 616,-416 610,-410 610,-404 610,-404 610,-392 610,-392 610,-386 616,-380 622,-380 622,-380 652.25,-380 652.25,-380 658.25,-380 664.25,-386 664.25,-392 664.25,-392 664.25,-404 664.25,-404 664.25,-410 658.25,-416 652.25,-416"/>
<text text-anchor="middle" x="637.12" y="-393.73" font-family="Times,serif" font-size="12.00">ret main</text>
</g>
<!-- n41&#45;&gt;n42 -->
<g id="edge38" class="edge">
<title>n41&#45;&gt;n42</title>
<path fill="none" stroke="black" d="M547.32,-398C562.54,-398 581.93,-398 598.7,-398"/>
<polygon fill="black" stroke="black" points="598.29,-401.5 608.29,-398 598.29,-394.5 598.29,-401.5"/>
<text text-anchor="middle" x="582.62" y="-399.75" font-family="Times,serif" font-size="10.00">(0,0)</text>
</g>
</g>
</svg>
